<?xml version="1.0" encoding="UTF-8"?>
<svg width="80px" height="80px" viewBox="0 0 80 80" version="1.1" xmlns="http://www.w3.org/2000/svg" xmlns:xlink="http://www.w3.org/1999/xlink">
    <!-- Generator: Sketch 49.3 (51167) - http://www.bohemiancoding.com/sketch -->
    <title>object/chip/grey copy</title>
    <desc>Created with Sketch.</desc>
    <defs></defs>
    <g id="Page-1" stroke="none" stroke-width="1" fill="none" fill-rule="evenodd">
        <g id="-" transform="translate(-151.000000, -242.000000)">
            <g id="object/chip/2-red" transform="translate(151.000000, 242.000000)">
                <g id="Group" stroke-width="1">
                    <circle id="Outer" fill="#94333E" cx="40" cy="40" r="40"></circle>
                    <path d="M40,68 C24.536027,68 12,55.463973 12,40 C12,24.536027 24.536027,12 40,12 C55.463973,12 68,24.536027 68,40 C68,55.463973 55.463973,68 40,68 Z M40,64 C53.254834,64 64,53.254834 64,40 C64,26.745166 53.254834,16 40,16 C26.745166,16 16,26.745166 16,40 C16,53.254834 26.745166,64 40,64 Z" id="Combined-Shape" fill-opacity="0.121433424" fill="#000000"></path>
                    <path d="M19.9525787,20.4525787 C15.0317668,25.4984643 12,32.3951786 12,40 C12,55.463973 24.536027,68 40,68 C47.6048214,68 54.5015357,64.9682332 59.5474213,60.0474213 C54.4620413,65.2620578 47.3591516,68.5 39.5,68.5 C24.036027,68.5 11.5,55.963973 11.5,40.5 C11.5,32.6408484 14.7379422,25.5379587 19.9525787,20.4525787 Z" id="Middle-Highlight" fill-opacity="0.2" fill="#FFFFFF"></path>
                    <path d="M19.9525787,20.4525787 C25.0379587,15.2379422 32.1408484,12 40,12 C55.463973,12 68,24.536027 68,40 C68,47.8591516 64.7620578,54.9620413 59.5474213,60.0474213 C64.4682332,55.0015357 67.5,48.1048214 67.5,40.5 C67.5,25.036027 54.963973,12.5 39.5,12.5 C31.8951786,12.5 24.9984643,15.5317668 19.9525787,20.4525787 Z" id="Middle-Shadow" fill-opacity="0.2" fill="#000000"></path>
                    <path d="M22.7812673,23.2812673 C27.1425594,18.790369 33.2454169,16 40,16 C53.254834,16 64,26.745166 64,40 C64,46.7545831 61.209631,52.8574406 56.7187327,57.2187327 C60.9158079,52.8969314 63.5,47.0002509 63.5,40.5 C63.5,27.245166 52.754834,16.5 39.5,16.5 C32.9997491,16.5 27.1030686,19.0841921 22.7812673,23.2812673 Z" id="Inner-Highlight" fill-opacity="0.2" fill="#FFFFFF"></path>
                    <path d="M22.7812673,23.2812673 C18.5841921,27.6030686 16,33.4997491 16,40 C16,53.254834 26.745166,64 40,64 C46.5002509,64 52.3969314,61.4158079 56.7187327,57.2187327 C52.3574406,61.709631 46.2545831,64.5 39.5,64.5 C26.245166,64.5 15.5,53.754834 15.5,40.5 C15.5,33.7454169 18.290369,27.6425594 22.7812673,23.2812673 Z" id="Inner-Shadow" fill-opacity="0.2" fill="#000000"></path>
                    <path d="M11.0722269,25.6292825 C10.1825439,27.4269956 9.45457808,29.3189888 8.90734165,31.2862496 L2.04928022,27.326746 C2.69066116,25.4052187 3.47389429,23.5485961 4.38655179,21.7693061 L11.0722269,25.6292825 Z M37.9815199,72.3694857 L37.9815199,79.9499558 C35.9438165,79.848682 33.9462513,79.5949232 32,79.1998551 L32,71.4055407 C33.9299345,71.905912 35.9296341,72.2330865 37.9815199,72.3694857 Z M16.8781969,62.5869835 L10.0584764,66.524351 C8.4340939,64.6920551 6.97532624,62.7095892 5.70563144,60.6004112 L4.97508607,59.3350695 C3.80717423,57.2239393 2.82458837,54.9960168 2.04928022,52.673254 L8.90734165,48.7137504 C10.3795931,54.0063487 13.1599501,58.7541651 16.8781969,62.5869835 Z M71.3776119,31.1217316 C70.8204873,29.1593341 70.0832828,27.2726848 69.1849918,25.4807772 L75.6134482,21.7693061 C76.5261057,23.5485961 77.3093388,25.4052187 77.9507198,27.326746 L71.3776119,31.1217316 Z M71.3776119,48.8782684 L77.9507198,52.673254 C77.1754116,54.9960168 76.1928258,57.2239393 75.0249139,59.3350695 L74.2943686,60.6004112 C73.0246738,62.7095892 71.5659061,64.6920551 69.9415236,66.524351 L63.3336916,62.7093174 C67.0730021,58.8949404 69.8778229,54.1610766 71.3776119,48.8782684 Z M48,71.4895351 L48,79.1998551 C46.0537487,79.5949232 44.0561835,79.848682 42.0184801,79.9499558 L42.0184801,72.3898166 C44.0690193,72.2743574 46.0686601,71.9684628 48,71.4895351 Z M63.3336916,17.2906826 L69.9415236,13.475649 C71.2740319,14.9787121 72.4950947,16.5828276 73.591763,18.2750465 L67.1543902,21.9916655 C66.0277718,20.3065737 64.7475293,18.732903 63.3336916,17.2906826 Z M48,8.51046494 C45.4910761,7.8883097 42.8668909,7.55815705 40.1655943,7.55815705 C37.3451945,7.55815705 34.6088557,7.91806516 32,8.59445931 L32,0.800144925 C34.5848795,0.275442075 37.2602733,-2.84217094e-14 40,-2.84217094e-14 C42.7397267,-2.84217094e-14 45.4151205,0.275442075 48,0.800144925 L48,8.51046494 Z M16.8781969,17.4130165 C15.473203,18.861303 14.2021226,20.4402344 13.0849295,22.1298368 L6.40823698,18.2750465 C7.50490531,16.5828276 8.72596811,14.9787121 10.0584764,13.475649 L16.8781969,17.4130165 Z" id="Pattern" fill="#F0F0F0"></path>
                    <path d="M40.2482335,0.000754081527 C18.2727057,0.132429217 0.5,17.4925929 0.5,39.5 C0.5,61.59139 18.40861,79.5 40.5,79.5 C62.5074071,79.5 79.8675708,61.7272943 79.9992459,39.7517665 C79.9997484,39.8344518 80,39.9171965 80,40 C80,62.09139 62.09139,80 40,80 C17.90861,80 -1.77635684e-15,62.09139 -1.77635684e-15,40 C-1.77635684e-15,17.90861 17.90861,2.34479103e-13 40,2.34479103e-13 C40.0828035,2.34479103e-13 40.1655482,0.000251601441 40.2482335,0.000754081527 Z" id="Outer-Shadow" fill-opacity="0.2" fill="#000000"></path>
                </g>
                <path d="M31.758,33.064 C31.950001,33.1160003 32.1119993,33.1919995 32.244,33.292 L32.25,33.292 L32.226,33.046 L32.694,33.046 L32.694,34.444 L32.298,34.444 C32.2419997,34.1039983 32.1390008,33.8510008 31.989,33.685 C31.8389993,33.5189992 31.6280014,33.436 31.356,33.436 C31.1839991,33.436 31.0450005,33.4839995 30.939,33.58 C30.8329995,33.6760005 30.78,33.7999992 30.78,33.952 C30.78,34.0760006 30.8079997,34.1809996 30.864,34.267 C30.9200003,34.3530004 31.0099994,34.4339996 31.134,34.51 C31.2580006,34.5860004 31.4439988,34.6799994 31.692,34.792 C31.9480013,34.9040006 32.1649991,35.0159994 32.343,35.128 C32.5210009,35.2400006 32.6709994,35.3839991 32.793,35.56 C32.9150006,35.7360009 32.976,35.9439988 32.976,36.184 C32.976,36.5040016 32.876001,36.7699989 32.676,36.982 C32.475999,37.1940011 32.1940018,37.3259997 31.83,37.378 L31.824,38.224 L31.278,38.224 L31.272,37.378 C30.9919986,37.3299998 30.7400011,37.2380007 30.516,37.102 L30.51,37.102 L30.528,37.354 L30.066,37.354 L30.066,35.95 L30.456,35.95 C30.5120003,36.2820017 30.6309991,36.5339991 30.813,36.706 C30.9950009,36.8780009 31.2279986,36.964 31.512,36.964 C31.720001,36.964 31.8829994,36.9080006 32.001,36.796 C32.1190006,36.6839994 32.178,36.5400009 32.178,36.364 C32.178,36.2359994 32.1400004,36.1300004 32.064,36.046 C31.9879996,35.9619996 31.9000005,35.8960002 31.8,35.848 C31.6999995,35.7999998 31.5340012,35.7280005 31.302,35.632 C30.897998,35.4639992 30.5800012,35.2650012 30.348,35.035 C30.1159988,34.8049989 30,34.5100018 30,34.15 C30,33.8579985 30.0919991,33.5990011 30.276,33.373 C30.4600009,33.1469989 30.7679978,33.0240001 31.2,33.004 L31.2,32.278 L31.764,32.278 L31.758,33.064 Z M43.556,35.24 L37.276,35.36 L37.276,38.92 C37.5826682,38.786666 37.9659977,38.6733338 38.426,38.58 C38.8860023,38.4866662 39.3093314,38.44 39.696,38.44 C40.762672,38.44 41.6593297,38.6433313 42.386,39.05 C43.1126703,39.4566687 43.6559982,39.9999966 44.016,40.68 C44.3760018,41.3600034 44.556,42.1133292 44.556,42.94 C44.556,43.9266716 44.3126691,44.7733298 43.826,45.48 C43.3393309,46.1866702 42.7026706,46.7199982 41.916,47.08 C41.1293294,47.4400018 40.2893378,47.62 39.396,47.62 C38.5693292,47.62 37.8426698,47.4833347 37.216,47.21 C36.5893302,46.9366653 36.109335,46.5900021 35.776,46.17 C35.442665,45.7499979 35.276,45.3200022 35.276,44.88 C35.276,44.4666646 35.4059987,44.1100015 35.666,43.81 C35.9260013,43.5099985 36.2693312,43.36 36.696,43.36 C37.1226688,43.36 37.4326657,43.493332 37.626,43.76 C37.8193343,44.026668 37.916,44.3199984 37.916,44.64 C37.916,44.9466682 37.8426674,45.2199988 37.696,45.46 C37.7760004,45.6733344 37.9793317,45.8499993 38.306,45.99 C38.6326683,46.1300007 38.9493318,46.2 39.256,46.2 C40.0026704,46.2 40.5593315,45.9200028 40.926,45.36 C41.2926685,44.7999972 41.476,44.1333372 41.476,43.36 C41.476,41.0533218 40.676008,39.9 39.076,39.9 C38.7559984,39.9 38.3826688,39.9599994 37.956,40.08 C37.5293312,40.2000006 37.1026688,40.3866654 36.676,40.64 L35.816,39.98 L35.736,33.3 L40.916,33.3 C41.4360026,33.3 41.8193321,33.2133342 42.066,33.04 C42.3126679,32.8666658 42.436,32.5200026 42.436,32 L43.696,32 L43.556,35.24 Z" id="Combined-Shape" fill="#FFFFFF"></path>
            </g>
        </g>
    </g>
</svg>