<?xml version="1.0" encoding="UTF-8"?>
<svg width="80px" height="80px" viewBox="0 0 80 80" version="1.1" xmlns="http://www.w3.org/2000/svg" xmlns:xlink="http://www.w3.org/1999/xlink">
    <!-- Generator: Sketch 49.3 (51167) - http://www.bohemiancoding.com/sketch -->
    <title>object/chip/grey</title>
    <desc>Created with Sketch.</desc>
    <defs></defs>
    <g id="Page-1" stroke="none" stroke-width="1" fill="none" fill-rule="evenodd">
        <g id="-" transform="translate(-151.000000, -122.000000)">
            <g id="object/chip/1-grey" transform="translate(151.000000, 122.000000)">
                <g id="Group" stroke-width="1">
                    <circle id="Outer" fill="#74797B" cx="40" cy="40" r="40"></circle>
                    <path d="M40,68 C24.536027,68 12,55.463973 12,40 C12,24.536027 24.536027,12 40,12 C55.463973,12 68,24.536027 68,40 C68,55.463973 55.463973,68 40,68 Z M40,64 C53.254834,64 64,53.254834 64,40 C64,26.745166 53.254834,16 40,16 C26.745166,16 16,26.745166 16,40 C16,53.254834 26.745166,64 40,64 Z" id="Combined-Shape" fill-opacity="0.121433424" fill="#000000"></path>
                    <path d="M19.9525787,20.4525787 C15.0317668,25.4984643 12,32.3951786 12,40 C12,55.463973 24.536027,68 40,68 C47.6048214,68 54.5015357,64.9682332 59.5474213,60.0474213 C54.4620413,65.2620578 47.3591516,68.5 39.5,68.5 C24.036027,68.5 11.5,55.963973 11.5,40.5 C11.5,32.6408484 14.7379422,25.5379587 19.9525787,20.4525787 Z" id="Middle-Highlight" fill-opacity="0.2" fill="#FFFFFF"></path>
                    <path d="M19.9525787,20.4525787 C25.0379587,15.2379422 32.1408484,12 40,12 C55.463973,12 68,24.536027 68,40 C68,47.8591516 64.7620578,54.9620413 59.5474213,60.0474213 C64.4682332,55.0015357 67.5,48.1048214 67.5,40.5 C67.5,25.036027 54.963973,12.5 39.5,12.5 C31.8951786,12.5 24.9984643,15.5317668 19.9525787,20.4525787 Z" id="Middle-Shadow" fill-opacity="0.2" fill="#000000"></path>
                    <path d="M22.7812673,23.2812673 C27.1425594,18.790369 33.2454169,16 40,16 C53.254834,16 64,26.745166 64,40 C64,46.7545831 61.209631,52.8574406 56.7187327,57.2187327 C60.9158079,52.8969314 63.5,47.0002509 63.5,40.5 C63.5,27.245166 52.754834,16.5 39.5,16.5 C32.9997491,16.5 27.1030686,19.0841921 22.7812673,23.2812673 Z" id="Inner-Highlight" fill-opacity="0.2" fill="#FFFFFF"></path>
                    <path d="M22.7812673,23.2812673 C18.5841921,27.6030686 16,33.4997491 16,40 C16,53.254834 26.745166,64 40,64 C46.5002509,64 52.3969314,61.4158079 56.7187327,57.2187327 C52.3574406,61.709631 46.2545831,64.5 39.5,64.5 C26.245166,64.5 15.5,53.754834 15.5,40.5 C15.5,33.7454169 18.290369,27.6425594 22.7812673,23.2812673 Z" id="Inner-Shadow" fill-opacity="0.2" fill="#000000"></path>
                    <path d="M11.0722269,25.6292825 C10.1825439,27.4269956 9.45457808,29.3189888 8.90734165,31.2862496 L2.04928022,27.326746 C2.69066116,25.4052187 3.47389429,23.5485961 4.38655179,21.7693061 L11.0722269,25.6292825 Z M37.9815199,72.3694857 L37.9815199,79.9499558 C35.9438165,79.848682 33.9462513,79.5949232 32,79.1998551 L32,71.4055407 C33.9299345,71.905912 35.9296341,72.2330865 37.9815199,72.3694857 Z M16.8781969,62.5869835 L10.0584764,66.524351 C8.4340939,64.6920551 6.97532624,62.7095892 5.70563144,60.6004112 L4.97508607,59.3350695 C3.80717423,57.2239393 2.82458837,54.9960168 2.04928022,52.673254 L8.90734165,48.7137504 C10.3795931,54.0063487 13.1599501,58.7541651 16.8781969,62.5869835 Z M71.3776119,31.1217316 C70.8204873,29.1593341 70.0832828,27.2726848 69.1849918,25.4807772 L75.6134482,21.7693061 C76.5261057,23.5485961 77.3093388,25.4052187 77.9507198,27.326746 L71.3776119,31.1217316 Z M71.3776119,48.8782684 L77.9507198,52.673254 C77.1754116,54.9960168 76.1928258,57.2239393 75.0249139,59.3350695 L74.2943686,60.6004112 C73.0246738,62.7095892 71.5659061,64.6920551 69.9415236,66.524351 L63.3336916,62.7093174 C67.0730021,58.8949404 69.8778229,54.1610766 71.3776119,48.8782684 Z M48,71.4895351 L48,79.1998551 C46.0537487,79.5949232 44.0561835,79.848682 42.0184801,79.9499558 L42.0184801,72.3898166 C44.0690193,72.2743574 46.0686601,71.9684628 48,71.4895351 Z M63.3336916,17.2906826 L69.9415236,13.475649 C71.2740319,14.9787121 72.4950947,16.5828276 73.591763,18.2750465 L67.1543902,21.9916655 C66.0277718,20.3065737 64.7475293,18.732903 63.3336916,17.2906826 Z M48,8.51046494 C45.4910761,7.8883097 42.8668909,7.55815705 40.1655943,7.55815705 C37.3451945,7.55815705 34.6088557,7.91806516 32,8.59445931 L32,0.800144925 C34.5848795,0.275442075 37.2602733,-2.84217094e-14 40,-2.84217094e-14 C42.7397267,-2.84217094e-14 45.4151205,0.275442075 48,0.800144925 L48,8.51046494 Z M16.8781969,17.4130165 C15.473203,18.861303 14.2021226,20.4402344 13.0849295,22.1298368 L6.40823698,18.2750465 C7.50490531,16.5828276 8.72596811,14.9787121 10.0584764,13.475649 L16.8781969,17.4130165 Z" id="Pattern" fill="#F0F0F0"></path>
                    <path d="M40.2482335,0.000754081527 C18.2727057,0.132429217 0.5,17.4925929 0.5,39.5 C0.5,61.59139 18.40861,79.5 40.5,79.5 C62.5074071,79.5 79.8675708,61.7272943 79.9992459,39.7517665 C79.9997484,39.8344518 80,39.9171965 80,40 C80,62.09139 62.09139,80 40,80 C17.90861,80 -1.77635684e-15,62.09139 -1.77635684e-15,40 C-1.77635684e-15,17.90861 17.90861,2.34479103e-13 40,2.34479103e-13 C40.0828035,2.34479103e-13 40.1655482,0.000251601441 40.2482335,0.000754081527 Z" id="Outer-Shadow" fill-opacity="0.2" fill="#000000"></path>
                </g>
                <path d="M31.758,34.084 C31.950001,34.1360003 32.1119993,34.2119995 32.244,34.312 L32.25,34.312 L32.226,34.066 L32.694,34.066 L32.694,35.464 L32.298,35.464 C32.2419997,35.1239983 32.1390008,34.8710008 31.989,34.705 C31.8389993,34.5389992 31.6280014,34.456 31.356,34.456 C31.1839991,34.456 31.0450005,34.5039995 30.939,34.6 C30.8329995,34.6960005 30.78,34.8199992 30.78,34.972 C30.78,35.0960006 30.8079997,35.2009996 30.864,35.287 C30.9200003,35.3730004 31.0099994,35.4539996 31.134,35.53 C31.2580006,35.6060004 31.4439988,35.6999994 31.692,35.812 C31.9480013,35.9240006 32.1649991,36.0359994 32.343,36.148 C32.5210009,36.2600006 32.6709994,36.4039991 32.793,36.58 C32.9150006,36.7560009 32.976,36.9639988 32.976,37.204 C32.976,37.5240016 32.876001,37.7899989 32.676,38.002 C32.475999,38.2140011 32.1940018,38.3459997 31.83,38.398 L31.824,39.244 L31.278,39.244 L31.272,38.398 C30.9919986,38.3499998 30.7400011,38.2580007 30.516,38.122 L30.51,38.122 L30.528,38.374 L30.066,38.374 L30.066,36.97 L30.456,36.97 C30.5120003,37.3020017 30.6309991,37.5539991 30.813,37.726 C30.9950009,37.8980009 31.2279986,37.984 31.512,37.984 C31.720001,37.984 31.8829994,37.9280006 32.001,37.816 C32.1190006,37.7039994 32.178,37.5600009 32.178,37.384 C32.178,37.2559994 32.1400004,37.1500004 32.064,37.066 C31.9879996,36.9819996 31.9000005,36.9160002 31.8,36.868 C31.6999995,36.8199998 31.5340012,36.7480005 31.302,36.652 C30.897998,36.4839992 30.5800012,36.2850011 30.348,36.055 C30.1159988,35.8249988 30,35.5300018 30,35.17 C30,34.8779985 30.0919991,34.6190011 30.276,34.393 C30.4600009,34.1669989 30.7679978,34.0440001 31.2,34.024 L31.2,33.298 L31.764,33.298 L31.758,34.084 Z M41.296,44.04 C41.296,44.8933376 41.2760002,45.4933316 41.236,45.84 C41.6626688,45.7999998 42.1626638,45.78 42.736,45.78 L42.736,47.32 L36.996,47.32 L36.996,46 C37.3560018,45.9866666 37.6293324,45.9433337 37.816,45.87 C38.0026676,45.7966663 38.1493328,45.6400012 38.256,45.4 C38.3626672,45.1599988 38.416,44.7800026 38.416,44.26 L38.416,36.24 L36.236,37.54 L35.516,36.34 L40.096,33 L41.296,33 L41.296,44.04 Z" id="Combined-Shape" fill="#FFFFFF"></path>
            </g>
        </g>
    </g>
</svg>