<?xml version="1.0" encoding="UTF-8"?>
<svg width="80px" height="80px" viewBox="0 0 80 80" version="1.1" xmlns="http://www.w3.org/2000/svg" xmlns:xlink="http://www.w3.org/1999/xlink">
    <!-- Generator: Sketch 49.3 (51167) - http://www.bohemiancoding.com/sketch -->
    <title>object/chip/grey copy 2</title>
    <desc>Created with Sketch.</desc>
    <defs></defs>
    <g id="Page-1" stroke="none" stroke-width="1" fill="none" fill-rule="evenodd">
        <g id="-" transform="translate(-151.000000, -362.000000)">
            <g id="object/chip/3-blue" transform="translate(151.000000, 362.000000)">
                <g id="Group" stroke-width="1">
                    <circle id="Outer" fill="#3B5894" cx="40" cy="40" r="40"></circle>
                    <path d="M40,68 C24.536027,68 12,55.463973 12,40 C12,24.536027 24.536027,12 40,12 C55.463973,12 68,24.536027 68,40 C68,55.463973 55.463973,68 40,68 Z M40,64 C53.254834,64 64,53.254834 64,40 C64,26.745166 53.254834,16 40,16 C26.745166,16 16,26.745166 16,40 C16,53.254834 26.745166,64 40,64 Z" id="Combined-Shape" fill-opacity="0.121433424" fill="#000000"></path>
                    <path d="M19.9525787,20.4525787 C15.0317668,25.4984643 12,32.3951786 12,40 C12,55.463973 24.536027,68 40,68 C47.6048214,68 54.5015357,64.9682332 59.5474213,60.0474213 C54.4620413,65.2620578 47.3591516,68.5 39.5,68.5 C24.036027,68.5 11.5,55.963973 11.5,40.5 C11.5,32.6408484 14.7379422,25.5379587 19.9525787,20.4525787 Z" id="Middle-Highlight" fill-opacity="0.2" fill="#FFFFFF"></path>
                    <path d="M19.9525787,20.4525787 C25.0379587,15.2379422 32.1408484,12 40,12 C55.463973,12 68,24.536027 68,40 C68,47.8591516 64.7620578,54.9620413 59.5474213,60.0474213 C64.4682332,55.0015357 67.5,48.1048214 67.5,40.5 C67.5,25.036027 54.963973,12.5 39.5,12.5 C31.8951786,12.5 24.9984643,15.5317668 19.9525787,20.4525787 Z" id="Middle-Shadow" fill-opacity="0.2" fill="#000000"></path>
                    <path d="M22.7812673,23.2812673 C27.1425594,18.790369 33.2454169,16 40,16 C53.254834,16 64,26.745166 64,40 C64,46.7545831 61.209631,52.8574406 56.7187327,57.2187327 C60.9158079,52.8969314 63.5,47.0002509 63.5,40.5 C63.5,27.245166 52.754834,16.5 39.5,16.5 C32.9997491,16.5 27.1030686,19.0841921 22.7812673,23.2812673 Z" id="Inner-Highlight" fill-opacity="0.2" fill="#FFFFFF"></path>
                    <path d="M22.7812673,23.2812673 C18.5841921,27.6030686 16,33.4997491 16,40 C16,53.254834 26.745166,64 40,64 C46.5002509,64 52.3969314,61.4158079 56.7187327,57.2187327 C52.3574406,61.709631 46.2545831,64.5 39.5,64.5 C26.245166,64.5 15.5,53.754834 15.5,40.5 C15.5,33.7454169 18.290369,27.6425594 22.7812673,23.2812673 Z" id="Inner-Shadow" fill-opacity="0.2" fill="#000000"></path>
                    <path d="M11.0722269,25.6292825 C10.1825439,27.4269956 9.45457808,29.3189888 8.90734165,31.2862496 L2.04928022,27.326746 C2.69066116,25.4052187 3.47389429,23.5485961 4.38655179,21.7693061 L11.0722269,25.6292825 Z M37.9815199,72.3694857 L37.9815199,79.9499558 C35.9438165,79.848682 33.9462513,79.5949232 32,79.1998551 L32,71.4055407 C33.9299345,71.905912 35.9296341,72.2330865 37.9815199,72.3694857 Z M16.8781969,62.5869835 L10.0584764,66.524351 C8.4340939,64.6920551 6.97532624,62.7095892 5.70563144,60.6004112 L4.97508607,59.3350695 C3.80717423,57.2239393 2.82458837,54.9960168 2.04928022,52.673254 L8.90734165,48.7137504 C10.3795931,54.0063487 13.1599501,58.7541651 16.8781969,62.5869835 Z M71.3776119,31.1217316 C70.8204873,29.1593341 70.0832828,27.2726848 69.1849918,25.4807772 L75.6134482,21.7693061 C76.5261057,23.5485961 77.3093388,25.4052187 77.9507198,27.326746 L71.3776119,31.1217316 Z M71.3776119,48.8782684 L77.9507198,52.673254 C77.1754116,54.9960168 76.1928258,57.2239393 75.0249139,59.3350695 L74.2943686,60.6004112 C73.0246738,62.7095892 71.5659061,64.6920551 69.9415236,66.524351 L63.3336916,62.7093174 C67.0730021,58.8949404 69.8778229,54.1610766 71.3776119,48.8782684 Z M48,71.4895351 L48,79.1998551 C46.0537487,79.5949232 44.0561835,79.848682 42.0184801,79.9499558 L42.0184801,72.3898166 C44.0690193,72.2743574 46.0686601,71.9684628 48,71.4895351 Z M63.3336916,17.2906826 L69.9415236,13.475649 C71.2740319,14.9787121 72.4950947,16.5828276 73.591763,18.2750465 L67.1543902,21.9916655 C66.0277718,20.3065737 64.7475293,18.732903 63.3336916,17.2906826 Z M48,8.51046494 C45.4910761,7.8883097 42.8668909,7.55815705 40.1655943,7.55815705 C37.3451945,7.55815705 34.6088557,7.91806516 32,8.59445931 L32,0.800144925 C34.5848795,0.275442075 37.2602733,-2.84217094e-14 40,-2.84217094e-14 C42.7397267,-2.84217094e-14 45.4151205,0.275442075 48,0.800144925 L48,8.51046494 Z M16.8781969,17.4130165 C15.473203,18.861303 14.2021226,20.4402344 13.0849295,22.1298368 L6.40823698,18.2750465 C7.50490531,16.5828276 8.72596811,14.9787121 10.0584764,13.475649 L16.8781969,17.4130165 Z" id="Pattern" fill="#F0F0F0"></path>
                    <path d="M40.2482335,0.000754081527 C18.2727057,0.132429217 0.5,17.4925929 0.5,39.5 C0.5,61.59139 18.40861,79.5 40.5,79.5 C62.5074071,79.5 79.8675708,61.7272943 79.9992459,39.7517665 C79.9997484,39.8344518 80,39.9171965 80,40 C80,62.09139 62.09139,80 40,80 C17.90861,80 -1.77635684e-15,62.09139 -1.77635684e-15,40 C-1.77635684e-15,17.90861 17.90861,2.34479103e-13 40,2.34479103e-13 C40.0828035,2.34479103e-13 40.1655482,0.000251601441 40.2482335,0.000754081527 Z" id="Outer-Shadow" fill-opacity="0.2" fill="#000000"></path>
                </g>
                <path d="M26.758,34.084 C26.950001,34.1360003 27.1119993,34.2119995 27.244,34.312 L27.25,34.312 L27.226,34.066 L27.694,34.066 L27.694,35.464 L27.298,35.464 C27.2419997,35.1239983 27.1390008,34.8710008 26.989,34.705 C26.8389993,34.5389992 26.6280014,34.456 26.356,34.456 C26.1839991,34.456 26.0450005,34.5039995 25.939,34.6 C25.8329995,34.6960005 25.78,34.8199992 25.78,34.972 C25.78,35.0960006 25.8079997,35.2009996 25.864,35.287 C25.9200003,35.3730004 26.0099994,35.4539996 26.134,35.53 C26.2580006,35.6060004 26.4439988,35.6999994 26.692,35.812 C26.9480013,35.9240006 27.1649991,36.0359994 27.343,36.148 C27.5210009,36.2600006 27.6709994,36.4039991 27.793,36.58 C27.9150006,36.7560009 27.976,36.9639988 27.976,37.204 C27.976,37.5240016 27.876001,37.7899989 27.676,38.002 C27.475999,38.2140011 27.1940018,38.3459997 26.83,38.398 L26.824,39.244 L26.278,39.244 L26.272,38.398 C25.9919986,38.3499998 25.7400011,38.2580007 25.516,38.122 L25.51,38.122 L25.528,38.374 L25.066,38.374 L25.066,36.97 L25.456,36.97 C25.5120003,37.3020017 25.6309991,37.5539991 25.813,37.726 C25.9950009,37.8980009 26.2279986,37.984 26.512,37.984 C26.720001,37.984 26.8829994,37.9280006 27.001,37.816 C27.1190006,37.7039994 27.178,37.5600009 27.178,37.384 C27.178,37.2559994 27.1400004,37.1500004 27.064,37.066 C26.9879996,36.9819996 26.9000005,36.9160002 26.8,36.868 C26.6999995,36.8199998 26.5340012,36.7480005 26.302,36.652 C25.897998,36.4839992 25.5800012,36.2850011 25.348,36.055 C25.1159988,35.8249989 25,35.5300018 25,35.17 C25,34.8779985 25.0919991,34.6190011 25.276,34.393 C25.4600009,34.1669989 25.7679978,34.0440001 26.2,34.024 L26.2,33.298 L26.764,33.298 L26.758,34.084 Z M36.296,44.04 C36.296,44.8933376 36.2760002,45.4933316 36.236,45.84 C36.6626688,45.7999998 37.1626638,45.78 37.736,45.78 L37.736,47.32 L31.996,47.32 L31.996,46 C32.3560018,45.9866666 32.6293324,45.9433337 32.816,45.87 C33.0026676,45.7966663 33.1493328,45.6400012 33.256,45.4 C33.3626672,45.1599988 33.416,44.7800026 33.416,44.26 L33.416,36.24 L31.236,37.54 L30.516,36.34 L35.096,33 L36.296,33 L36.296,44.04 Z M45.516,33 C46.7293394,33 47.7426626,33.3599964 48.556,34.08 C49.3693374,34.8000036 49.9659981,35.7133278 50.346,36.82 C50.7260019,37.9266722 50.916,39.079994 50.916,40.28 C50.916,41.4533392 50.7093354,42.606661 50.296,43.74 C49.8826646,44.873339 49.2626708,45.806663 48.436,46.54 C47.6093292,47.273337 46.6093392,47.64 45.436,47.64 C44.1559936,47.64 43.1060041,47.2833369 42.286,46.57 C41.4659959,45.8566631 40.8693352,44.9500055 40.496,43.85 C40.1226648,42.7499945 39.936,41.5933394 39.936,40.38 C39.936,39.2066608 40.1493312,38.0500057 40.576,36.91 C41.0026688,35.7699943 41.6393291,34.833337 42.486,34.1 C43.3326709,33.366663 44.3426608,33 45.516,33 Z M45.476,34.4 C44.5826622,34.4 43.9426686,34.9099949 43.556,35.93 C43.1693314,36.9500051 42.976,38.293325 42.976,39.96 C42.976,41.7733424 43.1493316,43.2699941 43.496,44.45 C43.8426684,45.6300059 44.5293282,46.22 45.556,46.22 C46.422671,46.22 47.0259983,45.720005 47.366,44.72 C47.7060017,43.719995 47.876,42.3800084 47.876,40.7 C47.876,38.766657 47.709335,37.233339 47.376,36.1 C47.042665,34.966661 46.409338,34.4 45.476,34.4 Z" id="Combined-Shape" fill="#FFFFFF"></path>
            </g>
        </g>
    </g>
</svg>