<?xml version="1.0" encoding="UTF-8"?>
<svg width="80px" height="80px" viewBox="0 0 80 80" version="1.1" xmlns="http://www.w3.org/2000/svg" xmlns:xlink="http://www.w3.org/1999/xlink">
    <!-- Generator: Sketch 49.3 (51167) - http://www.bohemiancoding.com/sketch -->
    <title>object/chip/grey copy 3</title>
    <desc>Created with Sketch.</desc>
    <defs></defs>
    <g id="Page-1" stroke="none" stroke-width="1" fill="none" fill-rule="evenodd">
        <g id="-" transform="translate(-151.000000, -482.000000)">
            <g id="object/chip/4-green" transform="translate(151.000000, 482.000000)">
                <g id="Group" stroke-width="1">
                    <circle id="Outer" fill="#37735C" cx="40" cy="40" r="40"></circle>
                    <path d="M40,68 C24.536027,68 12,55.463973 12,40 C12,24.536027 24.536027,12 40,12 C55.463973,12 68,24.536027 68,40 C68,55.463973 55.463973,68 40,68 Z M40,64 C53.254834,64 64,53.254834 64,40 C64,26.745166 53.254834,16 40,16 C26.745166,16 16,26.745166 16,40 C16,53.254834 26.745166,64 40,64 Z" id="Combined-Shape" fill-opacity="0.121433424" fill="#000000"></path>
                    <path d="M19.9525787,20.4525787 C15.0317668,25.4984643 12,32.3951786 12,40 C12,55.463973 24.536027,68 40,68 C47.6048214,68 54.5015357,64.9682332 59.5474213,60.0474213 C54.4620413,65.2620578 47.3591516,68.5 39.5,68.5 C24.036027,68.5 11.5,55.963973 11.5,40.5 C11.5,32.6408484 14.7379422,25.5379587 19.9525787,20.4525787 Z" id="Middle-Highlight" fill-opacity="0.2" fill="#FFFFFF"></path>
                    <path d="M19.9525787,20.4525787 C25.0379587,15.2379422 32.1408484,12 40,12 C55.463973,12 68,24.536027 68,40 C68,47.8591516 64.7620578,54.9620413 59.5474213,60.0474213 C64.4682332,55.0015357 67.5,48.1048214 67.5,40.5 C67.5,25.036027 54.963973,12.5 39.5,12.5 C31.8951786,12.5 24.9984643,15.5317668 19.9525787,20.4525787 Z" id="Middle-Shadow" fill-opacity="0.2" fill="#000000"></path>
                    <path d="M22.7812673,23.2812673 C27.1425594,18.790369 33.2454169,16 40,16 C53.254834,16 64,26.745166 64,40 C64,46.7545831 61.209631,52.8574406 56.7187327,57.2187327 C60.9158079,52.8969314 63.5,47.0002509 63.5,40.5 C63.5,27.245166 52.754834,16.5 39.5,16.5 C32.9997491,16.5 27.1030686,19.0841921 22.7812673,23.2812673 Z" id="Inner-Highlight" fill-opacity="0.2" fill="#FFFFFF"></path>
                    <path d="M22.7812673,23.2812673 C18.5841921,27.6030686 16,33.4997491 16,40 C16,53.254834 26.745166,64 40,64 C46.5002509,64 52.3969314,61.4158079 56.7187327,57.2187327 C52.3574406,61.709631 46.2545831,64.5 39.5,64.5 C26.245166,64.5 15.5,53.754834 15.5,40.5 C15.5,33.7454169 18.290369,27.6425594 22.7812673,23.2812673 Z" id="Inner-Shadow" fill-opacity="0.2" fill="#000000"></path>
                    <path d="M11.0722269,25.6292825 C10.1825439,27.4269956 9.45457808,29.3189888 8.90734165,31.2862496 L2.04928022,27.326746 C2.69066116,25.4052187 3.47389429,23.5485961 4.38655179,21.7693061 L11.0722269,25.6292825 Z M37.9815199,72.3694857 L37.9815199,79.9499558 C35.9438165,79.848682 33.9462513,79.5949232 32,79.1998551 L32,71.4055407 C33.9299345,71.905912 35.9296341,72.2330865 37.9815199,72.3694857 Z M16.8781969,62.5869835 L10.0584764,66.524351 C8.4340939,64.6920551 6.97532624,62.7095892 5.70563144,60.6004112 L4.97508607,59.3350695 C3.80717423,57.2239393 2.82458837,54.9960168 2.04928022,52.673254 L8.90734165,48.7137504 C10.3795931,54.0063487 13.1599501,58.7541651 16.8781969,62.5869835 Z M71.3776119,31.1217316 C70.8204873,29.1593341 70.0832828,27.2726848 69.1849918,25.4807772 L75.6134482,21.7693061 C76.5261057,23.5485961 77.3093388,25.4052187 77.9507198,27.326746 L71.3776119,31.1217316 Z M71.3776119,48.8782684 L77.9507198,52.673254 C77.1754116,54.9960168 76.1928258,57.2239393 75.0249139,59.3350695 L74.2943686,60.6004112 C73.0246738,62.7095892 71.5659061,64.6920551 69.9415236,66.524351 L63.3336916,62.7093174 C67.0730021,58.8949404 69.8778229,54.1610766 71.3776119,48.8782684 Z M48,71.4895351 L48,79.1998551 C46.0537487,79.5949232 44.0561835,79.848682 42.0184801,79.9499558 L42.0184801,72.3898166 C44.0690193,72.2743574 46.0686601,71.9684628 48,71.4895351 Z M63.3336916,17.2906826 L69.9415236,13.475649 C71.2740319,14.9787121 72.4950947,16.5828276 73.591763,18.2750465 L67.1543902,21.9916655 C66.0277718,20.3065737 64.7475293,18.732903 63.3336916,17.2906826 Z M48,8.51046494 C45.4910761,7.8883097 42.8668909,7.55815705 40.1655943,7.55815705 C37.3451945,7.55815705 34.6088557,7.91806516 32,8.59445931 L32,0.800144925 C34.5848795,0.275442075 37.2602733,-2.84217094e-14 40,-2.84217094e-14 C42.7397267,-2.84217094e-14 45.4151205,0.275442075 48,0.800144925 L48,8.51046494 Z M16.8781969,17.4130165 C15.473203,18.861303 14.2021226,20.4402344 13.0849295,22.1298368 L6.40823698,18.2750465 C7.50490531,16.5828276 8.72596811,14.9787121 10.0584764,13.475649 L16.8781969,17.4130165 Z" id="Pattern" fill="#F0F0F0"></path>
                    <path d="M40.2482335,0.000754081527 C18.2727057,0.132429217 0.5,17.4925929 0.5,39.5 C0.5,61.59139 18.40861,79.5 40.5,79.5 C62.5074071,79.5 79.8675708,61.7272943 79.9992459,39.7517665 C79.9997484,39.8344518 80,39.9171965 80,40 C80,62.09139 62.09139,80 40,80 C17.90861,80 -1.77635684e-15,62.09139 -1.77635684e-15,40 C-1.77635684e-15,17.90861 17.90861,2.34479103e-13 40,2.34479103e-13 C40.0828035,2.34479103e-13 40.1655482,0.000251601441 40.2482335,0.000754081527 Z" id="Outer-Shadow" fill-opacity="0.2" fill="#000000"></path>
                </g>
                <path d="M25.758,33.064 C25.950001,33.1160003 26.1119993,33.1919995 26.244,33.292 L26.25,33.292 L26.226,33.046 L26.694,33.046 L26.694,34.444 L26.298,34.444 C26.2419997,34.1039983 26.1390008,33.8510008 25.989,33.685 C25.8389993,33.5189992 25.6280014,33.436 25.356,33.436 C25.1839991,33.436 25.0450005,33.4839995 24.939,33.58 C24.8329995,33.6760005 24.78,33.7999992 24.78,33.952 C24.78,34.0760006 24.8079997,34.1809996 24.864,34.267 C24.9200003,34.3530004 25.0099994,34.4339996 25.134,34.51 C25.2580006,34.5860004 25.4439988,34.6799994 25.692,34.792 C25.9480013,34.9040006 26.1649991,35.0159994 26.343,35.128 C26.5210009,35.2400006 26.6709994,35.3839991 26.793,35.56 C26.9150006,35.7360009 26.976,35.9439988 26.976,36.184 C26.976,36.5040016 26.876001,36.7699989 26.676,36.982 C26.475999,37.1940011 26.1940018,37.3259997 25.83,37.378 L25.824,38.224 L25.278,38.224 L25.272,37.378 C24.9919986,37.3299998 24.7400011,37.2380007 24.516,37.102 L24.51,37.102 L24.528,37.354 L24.066,37.354 L24.066,35.95 L24.456,35.95 C24.5120003,36.2820017 24.6309991,36.5339991 24.813,36.706 C24.9950009,36.8780009 25.2279986,36.964 25.512,36.964 C25.720001,36.964 25.8829994,36.9080006 26.001,36.796 C26.1190006,36.6839994 26.178,36.5400009 26.178,36.364 C26.178,36.2359994 26.1400004,36.1300004 26.064,36.046 C25.9879996,35.9619996 25.9000005,35.8960002 25.8,35.848 C25.6999995,35.7999998 25.5340012,35.7280005 25.302,35.632 C24.897998,35.4639992 24.5800012,35.2650012 24.348,35.035 C24.1159988,34.8049989 24,34.5100018 24,34.15 C24,33.8579985 24.0919991,33.5990011 24.276,33.373 C24.4600009,33.1469989 24.7679978,33.0240001 25.2,33.004 L25.2,32.278 L25.764,32.278 L25.758,33.064 Z M34.556,32.98 C35.3293372,32.98 36.0559966,33.1066654 36.736,33.36 C37.4160034,33.6133346 37.9693312,34.0233305 38.396,34.59 C38.8226688,35.1566695 39.036,35.8799956 39.036,36.76 C39.036,37.2400024 38.9160012,37.7299975 38.676,38.23 C38.4359988,38.7300025 37.9960032,39.3199966 37.356,40 C36.7159968,40.6800034 35.8093392,41.4999952 34.636,42.46 C33.9559966,43.0066694 33.4293352,43.5299975 33.056,44.03 C32.6826648,44.5300025 32.462667,44.9333318 32.396,45.24 L36.316,45.34 C36.8093358,45.3666668 37.1826654,45.2866676 37.436,45.1 C37.6893346,44.9133324 37.816,44.5600026 37.816,44.04 L39.096,44.04 L38.936,47.3 L30.176,47.3 C30.176,46.433329 30.3193319,45.66667 30.606,45 C30.8926681,44.33333 31.2426646,43.7633357 31.656,43.29 C32.0693354,42.8166643 32.6159966,42.2666698 33.296,41.64 C34.2426714,40.7599956 34.9259979,39.9500037 35.346,39.21 C35.7660021,38.4699963 35.976,37.733337 35.976,37 C35.976,36.266663 35.8326681,35.6500025 35.546,35.15 C35.2593319,34.6499975 34.7760034,34.4 34.096,34.4 C33.7493316,34.4 33.4260015,34.4799992 33.126,34.64 C32.8259985,34.8000008 32.5960008,34.9999988 32.436,35.24 C32.569334,35.373334 32.669333,35.5366657 32.736,35.73 C32.802667,35.9233343 32.836,36.1066658 32.836,36.28 C32.836,36.5733348 32.7226678,36.8599986 32.496,37.14 C32.2693322,37.4200014 31.9426688,37.56 31.516,37.56 C31.115998,37.56 30.7960012,37.4200014 30.556,37.14 C30.3159988,36.8599986 30.196,36.5133354 30.196,36.1 C30.196,35.6733312 30.3726649,35.2166691 30.726,34.73 C31.0793351,34.2433309 31.5859967,33.8300017 32.246,33.49 C32.9060033,33.1499983 33.6759956,32.98 34.556,32.98 Z M49.776,35.24 L43.496,35.36 L43.496,38.92 C43.8026682,38.786666 44.1859977,38.6733338 44.646,38.58 C45.1060023,38.4866662 45.5293314,38.44 45.916,38.44 C46.982672,38.44 47.8793297,38.6433313 48.606,39.05 C49.3326703,39.4566687 49.8759982,39.9999966 50.236,40.68 C50.5960018,41.3600034 50.776,42.1133292 50.776,42.94 C50.776,43.9266716 50.5326691,44.7733298 50.046,45.48 C49.5593309,46.1866702 48.9226706,46.7199982 48.136,47.08 C47.3493294,47.4400018 46.5093378,47.62 45.616,47.62 C44.7893292,47.62 44.0626698,47.4833347 43.436,47.21 C42.8093302,46.9366653 42.329335,46.5900021 41.996,46.17 C41.662665,45.7499979 41.496,45.3200022 41.496,44.88 C41.496,44.4666646 41.6259987,44.1100015 41.886,43.81 C42.1460013,43.5099985 42.4893312,43.36 42.916,43.36 C43.3426688,43.36 43.6526657,43.493332 43.846,43.76 C44.0393343,44.026668 44.136,44.3199984 44.136,44.64 C44.136,44.9466682 44.0626674,45.2199988 43.916,45.46 C43.9960004,45.6733344 44.1993317,45.8499993 44.526,45.99 C44.8526683,46.1300007 45.1693318,46.2 45.476,46.2 C46.2226704,46.2 46.7793315,45.9200028 47.146,45.36 C47.5126685,44.7999972 47.696,44.1333372 47.696,43.36 C47.696,41.0533218 46.896008,39.9 45.296,39.9 C44.9759984,39.9 44.6026688,39.9599994 44.176,40.08 C43.7493312,40.2000006 43.3226688,40.3866654 42.896,40.64 L42.036,39.98 L41.956,33.3 L47.136,33.3 C47.6560026,33.3 48.0393321,33.2133342 48.286,33.04 C48.5326679,32.8666658 48.656,32.5200026 48.656,32 L49.916,32 L49.776,35.24 Z" id="Combined-Shape" fill="#FFFFFF"></path>
            </g>
        </g>
    </g>
</svg>