<?xml version="1.0" encoding="UTF-8"?>
<svg width="80px" height="80px" viewBox="0 0 80 80" version="1.1" xmlns="http://www.w3.org/2000/svg" xmlns:xlink="http://www.w3.org/1999/xlink">
    <!-- Generator: Sketch 49.3 (51167) - http://www.bohemiancoding.com/sketch -->
    <title>object/chip/grey copy 4</title>
    <desc>Created with Sketch.</desc>
    <defs></defs>
    <g id="Page-1" stroke="none" stroke-width="1" fill="none" fill-rule="evenodd">
        <g id="-" transform="translate(-151.000000, -602.000000)">
            <g id="object/chip/5-black" transform="translate(151.000000, 602.000000)">
                <g id="Group" stroke-width="1">
                    <circle id="Outer" fill="#3B3B40" cx="40" cy="40" r="40"></circle>
                    <path d="M40,68 C24.536027,68 12,55.463973 12,40 C12,24.536027 24.536027,12 40,12 C55.463973,12 68,24.536027 68,40 C68,55.463973 55.463973,68 40,68 Z M40,64 C53.254834,64 64,53.254834 64,40 C64,26.745166 53.254834,16 40,16 C26.745166,16 16,26.745166 16,40 C16,53.254834 26.745166,64 40,64 Z" id="Combined-Shape" fill-opacity="0.121433424" fill="#000000"></path>
                    <path d="M19.9525787,20.4525787 C15.0317668,25.4984643 12,32.3951786 12,40 C12,55.463973 24.536027,68 40,68 C47.6048214,68 54.5015357,64.9682332 59.5474213,60.0474213 C54.4620413,65.2620578 47.3591516,68.5 39.5,68.5 C24.036027,68.5 11.5,55.963973 11.5,40.5 C11.5,32.6408484 14.7379422,25.5379587 19.9525787,20.4525787 Z" id="Middle-Highlight" fill-opacity="0.2" fill="#FFFFFF"></path>
                    <path d="M19.9525787,20.4525787 C25.0379587,15.2379422 32.1408484,12 40,12 C55.463973,12 68,24.536027 68,40 C68,47.8591516 64.7620578,54.9620413 59.5474213,60.0474213 C64.4682332,55.0015357 67.5,48.1048214 67.5,40.5 C67.5,25.036027 54.963973,12.5 39.5,12.5 C31.8951786,12.5 24.9984643,15.5317668 19.9525787,20.4525787 Z" id="Middle-Shadow" fill-opacity="0.2" fill="#000000"></path>
                    <path d="M22.7812673,23.2812673 C27.1425594,18.790369 33.2454169,16 40,16 C53.254834,16 64,26.745166 64,40 C64,46.7545831 61.209631,52.8574406 56.7187327,57.2187327 C60.9158079,52.8969314 63.5,47.0002509 63.5,40.5 C63.5,27.245166 52.754834,16.5 39.5,16.5 C32.9997491,16.5 27.1030686,19.0841921 22.7812673,23.2812673 Z" id="Inner-Highlight" fill-opacity="0.2" fill="#FFFFFF"></path>
                    <path d="M22.7812673,23.2812673 C18.5841921,27.6030686 16,33.4997491 16,40 C16,53.254834 26.745166,64 40,64 C46.5002509,64 52.3969314,61.4158079 56.7187327,57.2187327 C52.3574406,61.709631 46.2545831,64.5 39.5,64.5 C26.245166,64.5 15.5,53.754834 15.5,40.5 C15.5,33.7454169 18.290369,27.6425594 22.7812673,23.2812673 Z" id="Inner-Shadow" fill-opacity="0.2" fill="#000000"></path>
                    <path d="M11.0722269,25.6292825 C10.1825439,27.4269956 9.45457808,29.3189888 8.90734165,31.2862496 L2.04928022,27.326746 C2.69066116,25.4052187 3.47389429,23.5485961 4.38655179,21.7693061 L11.0722269,25.6292825 Z M37.9815199,72.3694857 L37.9815199,79.9499558 C35.9438165,79.848682 33.9462513,79.5949232 32,79.1998551 L32,71.4055407 C33.9299345,71.905912 35.9296341,72.2330865 37.9815199,72.3694857 Z M16.8781969,62.5869835 L10.0584764,66.524351 C8.4340939,64.6920551 6.97532624,62.7095892 5.70563144,60.6004112 L4.97508607,59.3350695 C3.80717423,57.2239393 2.82458837,54.9960168 2.04928022,52.673254 L8.90734165,48.7137504 C10.3795931,54.0063487 13.1599501,58.7541651 16.8781969,62.5869835 Z M71.3776119,31.1217316 C70.8204873,29.1593341 70.0832828,27.2726848 69.1849918,25.4807772 L75.6134482,21.7693061 C76.5261057,23.5485961 77.3093388,25.4052187 77.9507198,27.326746 L71.3776119,31.1217316 Z M71.3776119,48.8782684 L77.9507198,52.673254 C77.1754116,54.9960168 76.1928258,57.2239393 75.0249139,59.3350695 L74.2943686,60.6004112 C73.0246738,62.7095892 71.5659061,64.6920551 69.9415236,66.524351 L63.3336916,62.7093174 C67.0730021,58.8949404 69.8778229,54.1610766 71.3776119,48.8782684 Z M48,71.4895351 L48,79.1998551 C46.0537487,79.5949232 44.0561835,79.848682 42.0184801,79.9499558 L42.0184801,72.3898166 C44.0690193,72.2743574 46.0686601,71.9684628 48,71.4895351 Z M63.3336916,17.2906826 L69.9415236,13.475649 C71.2740319,14.9787121 72.4950947,16.5828276 73.591763,18.2750465 L67.1543902,21.9916655 C66.0277718,20.3065737 64.7475293,18.732903 63.3336916,17.2906826 Z M48,8.51046494 C45.4910761,7.8883097 42.8668909,7.55815705 40.1655943,7.55815705 C37.3451945,7.55815705 34.6088557,7.91806516 32,8.59445931 L32,0.800144925 C34.5848795,0.275442075 37.2602733,-2.84217094e-14 40,-2.84217094e-14 C42.7397267,-2.84217094e-14 45.4151205,0.275442075 48,0.800144925 L48,8.51046494 Z M16.8781969,17.4130165 C15.473203,18.861303 14.2021226,20.4402344 13.0849295,22.1298368 L6.40823698,18.2750465 C7.50490531,16.5828276 8.72596811,14.9787121 10.0584764,13.475649 L16.8781969,17.4130165 Z" id="Pattern" fill="#F0F0F0"></path>
                    <path d="M40.2482335,0.000754081527 C18.2727057,0.132429217 0.5,17.4925929 0.5,39.5 C0.5,61.59139 18.40861,79.5 40.5,79.5 C62.5074071,79.5 79.8675708,61.7272943 79.9992459,39.7517665 C79.9997484,39.8344518 80,39.9171965 80,40 C80,62.09139 62.09139,80 40,80 C17.90861,80 -1.77635684e-15,62.09139 -1.77635684e-15,40 C-1.77635684e-15,17.90861 17.90861,2.34479103e-13 40,2.34479103e-13 C40.0828035,2.34479103e-13 40.1655482,0.000251601441 40.2482335,0.000754081527 Z" id="Outer-Shadow" fill-opacity="0.2" fill="#000000"></path>
                </g>
                <path d="M22.758,33.786 C22.950001,33.8380003 23.1119993,33.9139995 23.244,34.014 L23.25,34.014 L23.226,33.768 L23.694,33.768 L23.694,35.166 L23.298,35.166 C23.2419997,34.8259983 23.1390008,34.5730008 22.989,34.407 C22.8389993,34.2409992 22.6280014,34.158 22.356,34.158 C22.1839991,34.158 22.0450005,34.2059995 21.939,34.302 C21.8329995,34.3980005 21.78,34.5219992 21.78,34.674 C21.78,34.7980006 21.8079997,34.9029996 21.864,34.989 C21.9200003,35.0750004 22.0099994,35.1559996 22.134,35.232 C22.2580006,35.3080004 22.4439988,35.4019994 22.692,35.514 C22.9480013,35.6260006 23.1649991,35.7379994 23.343,35.85 C23.5210009,35.9620006 23.6709994,36.1059991 23.793,36.282 C23.9150006,36.4580009 23.976,36.6659988 23.976,36.906 C23.976,37.2260016 23.876001,37.4919989 23.676,37.704 C23.475999,37.9160011 23.1940018,38.0479997 22.83,38.1 L22.824,38.946 L22.278,38.946 L22.272,38.1 C21.9919986,38.0519998 21.7400011,37.9600007 21.516,37.824 L21.51,37.824 L21.528,38.076 L21.066,38.076 L21.066,36.672 L21.456,36.672 C21.5120003,37.0040017 21.6309991,37.2559991 21.813,37.428 C21.9950009,37.6000009 22.2279986,37.686 22.512,37.686 C22.720001,37.686 22.8829994,37.6300006 23.001,37.518 C23.1190006,37.4059994 23.178,37.2620009 23.178,37.086 C23.178,36.9579994 23.1400004,36.8520004 23.064,36.768 C22.9879996,36.6839996 22.9000005,36.6180002 22.8,36.57 C22.6999995,36.5219998 22.5340012,36.4500005 22.302,36.354 C21.897998,36.1859992 21.5800012,35.9870011 21.348,35.757 C21.1159988,35.5269988 21,35.2320018 21,34.872 C21,34.5799985 21.0919991,34.3210011 21.276,34.095 C21.4600009,33.8689989 21.7679978,33.7460001 22.2,33.726 L22.2,33 L22.764,33 L22.758,33.786 Z M31.411,43.234 C31.411,43.959337 31.3940002,44.4693319 31.36,44.764 C31.7226685,44.7299998 32.1476642,44.713 32.635,44.713 L32.635,46.022 L27.756,46.022 L27.756,44.9 C28.0620015,44.8886666 28.2943326,44.8518336 28.453,44.7895 C28.6116675,44.7271664 28.7363329,44.594001 28.827,44.39 C28.9176671,44.185999 28.963,43.8630022 28.963,43.421 L28.963,36.604 L27.11,37.709 L26.498,36.689 L30.391,33.85 L31.411,33.85 L31.411,43.234 Z M39.248,33.85 C40.2793385,33.85 41.1406632,34.1559969 41.832,34.768 C42.5233368,35.3800031 43.0304984,36.1563286 43.3535,37.097 C43.6765016,38.0376714 43.838,39.0179949 43.838,40.038 C43.838,41.0353383 43.6623351,42.0156618 43.311,42.979 C42.9596649,43.9423381 42.4326702,44.7356635 41.73,45.359 C41.0273298,45.9823364 40.1773383,46.294 39.18,46.294 C38.0919946,46.294 37.1995035,45.9908364 36.5025,45.3845 C35.8054965,44.7781636 35.2983349,44.0075047 34.981,43.0725 C34.6636651,42.1374953 34.505,41.1543385 34.505,40.123 C34.505,39.1256617 34.6863315,38.1425048 35.049,37.1735 C35.4116685,36.2044952 35.9528298,35.4083364 36.6725,34.785 C37.3921703,34.1616635 38.2506617,33.85 39.248,33.85 Z M39.214,35.04 C38.4546629,35.04 37.9106683,35.4734957 37.582,36.3405 C37.2533317,37.2075043 37.089,38.3493263 37.089,39.766 C37.089,41.307341 37.2363319,42.579495 37.531,43.5825 C37.8256682,44.585505 38.409329,45.087 39.282,45.087 C40.0186704,45.087 40.5314986,44.6620043 40.8205,43.812 C41.1095015,42.9619958 41.254,41.8230071 41.254,40.395 C41.254,38.7516585 41.1123348,37.4483382 40.829,36.485 C40.5456653,35.5216619 40.0073373,35.04 39.214,35.04 Z M50.536,33.85 C51.5673385,33.85 52.4286632,34.1559969 53.12,34.768 C53.8113368,35.3800031 54.3184984,36.1563286 54.6415,37.097 C54.9645016,38.0376714 55.126,39.0179949 55.126,40.038 C55.126,41.0353383 54.9503351,42.0156618 54.599,42.979 C54.2476649,43.9423381 53.7206702,44.7356635 53.018,45.359 C52.3153299,45.9823364 51.4653384,46.294 50.468,46.294 C49.3799946,46.294 48.4875035,45.9908364 47.7905,45.3845 C47.0934965,44.7781636 46.586335,44.0075047 46.269,43.0725 C45.9516651,42.1374953 45.793,41.1543385 45.793,40.123 C45.793,39.1256617 45.9743316,38.1425048 46.337,37.1735 C46.6996685,36.2044952 47.2408298,35.4083364 47.9605,34.785 C48.6801703,34.1616635 49.5386617,33.85 50.536,33.85 Z M50.502,35.04 C49.7426629,35.04 49.1986683,35.4734957 48.87,36.3405 C48.5413317,37.2075043 48.377,38.3493263 48.377,39.766 C48.377,41.307341 48.5243319,42.579495 48.819,43.5825 C49.1136682,44.585505 49.697329,45.087 50.57,45.087 C51.3066704,45.087 51.8194986,44.6620043 52.1085,43.812 C52.3975015,42.9619958 52.542,41.8230071 52.542,40.395 C52.542,38.7516585 52.4003348,37.4483382 52.117,36.485 C51.8336653,35.5216619 51.2953373,35.04 50.502,35.04 Z" id="Combined-Shape" fill="#FFFFFF"></path>
            </g>
        </g>
    </g>
</svg>