<svg xmlns="http://www.w3.org/2000/svg" xmlns:xlink="http://www.w3.org/1999/xlink" viewBox="0 0 179.576 250.442"><defs><pattern id="6582d253-4612-4447-9605-7efd7773de3d" data-name="pattern17758" width="595.276" height="841.89" patternTransform="matrix(0.8, 0, 0, -0.8, -615.4, 1813.785)" patternUnits="userSpaceOnUse" viewBox="0 0 595.276 841.89"><rect width="595.276" height="841.89" fill="none"/></pattern></defs><title>10C</title><g id="d0537446-5c59-452b-8704-f75e3bcb96dc" data-name="Layer 2"><g id="d09b8806-04aa-43e6-af4e-c3ec30ec93fe" data-name="Clubs"><g id="ed5077fe-38ec-4784-9d49-c0ab32aeed68" data-name="10C"><g id="4460723b-489b-4847-95a9-11816a34c637" data-name="g101171"><rect id="5d716e5e-6694-4881-8d91-a2e5702efe68" data-name="rect5130" x="0.496" y="0.496" width="178.583" height="249.449" rx="8.504" ry="8.504" fill="#fff" stroke="#b3b0b0" stroke-width="0.993"/><path id="21586758-dc9c-4138-9de3-5af0ac773868" data-name="path147-0-8-1-6-13-2-22-1-5" d="M131.2,26.985c-7.855.171-11.377,9-5.56,15.862.844,1,.931,1.574-.614.613-3.917-2.615-11.427-.9-11.811,7.1-.475,9.853,13.31,12.692,15.9,2.214.137-1.1,1.036-1.08.819.489a32.576,32.576,0,0,1-3.4,12.121h9.338a32.558,32.558,0,0,1-3.4-12.121c-.217-1.569.682-1.594.819-.489,2.588,10.478,16.373,7.639,15.9-2.214-.385-8-7.895-9.717-11.811-7.1-1.545.961-1.458.387-.614-.613,5.817-6.859,2.295-15.691-5.56-15.862H131.2Z"/><path id="96592fe8-dbfd-4798-b49f-5e9edad76d91" data-name="path147-0-8-1-6-75-2-83-21-1-8" d="M48.372,26.985c-7.855.171-11.377,9-5.56,15.862.844,1,.931,1.574-.614.613-3.917-2.615-11.427-.9-11.811,7.1-.475,9.853,13.309,12.692,15.9,2.214.136-1.1,1.036-1.08.819.489a32.576,32.576,0,0,1-3.4,12.121h9.337a32.576,32.576,0,0,1-3.4-12.121c-.217-1.569.683-1.594.82-.489,2.588,10.478,16.373,7.639,15.9-2.214-.385-8-7.895-9.717-11.811-7.1-1.545.961-1.458.387-.615-.613,5.817-6.859,2.3-15.691-5.559-15.862h-.006Z"/><path id="436502a7-128a-496e-b09b-4ddb0e9721e0" data-name="path147-0-8-1-6-7-5-5-7-3-5-5" d="M131.2,224.122c-7.855-.17-11.377-9-5.56-15.861.844-1,.931-1.575-.614-.614-3.917,2.616-11.427.9-11.811-7.1-.475-9.853,13.31-12.692,15.9-2.215.137,1.105,1.036,1.08.819-.489a32.582,32.582,0,0,0-3.4-12.121h9.338a32.563,32.563,0,0,0-3.4,12.121c-.217,1.569.682,1.594.819.489,2.588-10.477,16.373-7.638,15.9,2.215-.385,8-7.895,9.716-11.811,7.1-1.545-.961-1.458-.387-.614.614,5.817,6.859,2.295,15.691-5.56,15.861H131.2Z"/><path id="c3b82db1-d380-4d2a-9d72-3f9bf2b32617" data-name="path147-0-8-1-6-75-6-1-2-7-9-3" d="M48.372,224.122c-7.855-.17-11.377-9-5.56-15.861.844-1,.931-1.575-.614-.614-3.917,2.616-11.427.9-11.811-7.1-.475-9.853,13.309-12.692,15.9-2.215.136,1.105,1.036,1.08.819-.489a32.582,32.582,0,0,0-3.4-12.121h9.337a32.582,32.582,0,0,0-3.4,12.121c-.217,1.569.683,1.594.82.489,2.588-10.477,16.373-7.638,15.9,2.215-.385,8-7.895,9.716-11.811,7.1-1.545-.961-1.458-.387-.615.614,5.817,6.859,2.3,15.691-5.559,15.861h-.006Z"/><path id="3af7fc72-1a0e-4286-aa56-016bb1c5e2f1" data-name="path147-0-8-1-6-2-00-7-1-1-4" d="M89.785,53.441c-7.855.171-11.377,9-5.56,15.862.844,1,.931,1.574-.614.613-3.917-2.615-11.426-.9-11.811,7.1-.475,9.853,13.31,12.692,15.9,2.215.136-1.106,1.036-1.08.819.489a32.582,32.582,0,0,1-3.4,12.121h9.338a32.582,32.582,0,0,1-3.4-12.121c-.217-1.569.682-1.594.819-.489,2.588,10.477,16.373,7.638,15.9-2.215-.385-8-7.895-9.716-11.811-7.1-1.545.961-1.458.387-.615-.613,5.818-6.859,2.3-15.691-5.559-15.862h-.006Z"/><path id="e433a813-8d84-4aa7-ac53-0d6689488995" data-name="path147-0-8-1-6-2-0-8-6-8-1-8" d="M89.785,197.666c-7.855-.17-11.377-9-5.56-15.861.844-1,.931-1.575-.614-.614-3.917,2.616-11.427.9-11.811-7.1-.475-9.853,13.31-12.691,15.9-2.214.136,1.1,1.036,1.08.819-.489a32.576,32.576,0,0,0-3.4-12.121h9.338a32.558,32.558,0,0,0-3.4,12.121c-.217,1.569.682,1.594.819.489,2.588-10.477,16.373-7.639,15.9,2.214-.385,8-7.895,9.717-11.811,7.1-1.545-.961-1.458-.387-.615.614,5.818,6.858,2.3,15.691-5.559,15.861h-.006Z"/><path id="4f60ba46-4303-4f72-9b4b-7f2a91e99a7b" data-name="path147-6-9-8-7-0-5-6-83-3-7" d="M165.307,209.967c3.142-.071,4.551-3.751,2.224-6.609-.337-.417-.372-.656.246-.256,1.567,1.09,4.571.374,4.724-2.958.191-4.106-5.323-5.289-6.359-.923-.054.461-.414.45-.327-.2a14,14,0,0,1,1.359-5.05h-3.735a14,14,0,0,1,1.359,5.05c.087.654-.273.665-.327.2-1.036-4.366-6.55-3.183-6.36.923.154,3.332,3.158,4.048,4.725,2.958.618-.4.583-.161.246.256-2.327,2.858-.918,6.538,2.223,6.609h0Z"/><path id="63480252-7a4c-450e-95b7-23b2d83ad48e" data-name="path147-0-8-1-6-75-2-9-77-44-0-7" d="M48.372,79.9c-7.855.17-11.377,9-5.56,15.861.844,1,.931,1.574-.614.613-3.917-2.615-11.427-.9-11.811,7.1-.475,9.853,13.309,12.692,15.9,2.215.136-1.106,1.036-1.08.819.489a32.582,32.582,0,0,1-3.4,12.121h9.337a32.582,32.582,0,0,1-3.4-12.121c-.217-1.569.683-1.594.82-.489,2.588,10.477,16.373,7.638,15.9-2.215-.385-8-7.895-9.716-11.811-7.1-1.545.961-1.458.387-.615-.613,5.817-6.859,2.3-15.691-5.559-15.861h-.006Z"/><path id="d4c63bae-1e77-4779-8b56-a2b80d4fe4fa" data-name="path147-0-8-1-6-75-2-8-0-3-9-3" d="M48.372,171.21c-7.855-.171-11.377-9-5.56-15.862.844-1,.931-1.574-.614-.613-3.917,2.616-11.427.9-11.811-7.1-.475-9.853,13.309-12.692,15.9-2.215.136,1.106,1.036,1.081.819-.488a32.576,32.576,0,0,0-3.4-12.121h9.337a32.576,32.576,0,0,0-3.4,12.121c-.217,1.569.683,1.594.82.488,2.588-10.477,16.373-7.638,15.9,2.215-.385,8-7.895,9.717-11.811,7.1-1.545-.961-1.458-.387-.615.613,5.817,6.859,2.3,15.691-5.559,15.862h-.006Z"/><path id="0fddd3b8-4acc-4c02-9c16-baab422c3e73" data-name="path147-0-8-1-6-75-2-9-7-1-9-7-9" d="M131.2,79.9c-7.855.17-11.377,9-5.56,15.861.844,1,.931,1.574-.614.613-3.917-2.615-11.427-.9-11.811,7.1-.475,9.853,13.31,12.692,15.9,2.215.137-1.106,1.036-1.08.819.489a32.582,32.582,0,0,1-3.4,12.121h9.338a32.563,32.563,0,0,1-3.4-12.121c-.217-1.569.682-1.594.819-.489,2.588,10.477,16.373,7.638,15.9-2.215-.385-8-7.895-9.716-11.811-7.1-1.545.961-1.458.387-.614-.613,5.817-6.859,2.295-15.691-5.56-15.861H131.2Z"/><path id="95ca8bc5-f877-430e-ab39-a85deeb78c05" data-name="path147-0-8-1-6-75-2-8-5-1-52-2-8" d="M131.2,171.21c-7.855-.171-11.377-9-5.56-15.862.844-1,.931-1.574-.614-.613-3.917,2.616-11.427.9-11.811-7.1-.475-9.853,13.31-12.692,15.9-2.215.137,1.106,1.036,1.081.819-.488a32.576,32.576,0,0,0-3.4-12.121h9.338a32.558,32.558,0,0,0-3.4,12.121c-.217,1.569.682,1.594.819.488,2.588-10.477,16.373-7.638,15.9,2.215-.385,8-7.895,9.717-11.811,7.1-1.545-.961-1.458-.387-.614.613,5.817,6.859,2.295,15.691-5.56,15.862H131.2Z"/><path id="5cee4c2e-0327-4b97-95d4-65e8176d7cd4" data-name="path147-6-9-8-7-4-5-62-52-8-0" d="M14.269,40.475c-3.142.071-4.55,3.751-2.223,6.609.337.417.372.656-.246.256-1.567-1.09-4.571-.374-4.725,2.958-.19,4.106,5.324,5.289,6.36.923.054-.46.414-.45.327.2a14,14,0,0,1-1.359,5.05h3.735a14,14,0,0,1-1.359-5.05c-.087-.654.273-.664.328-.2,1.035,4.366,6.549,3.183,6.359-.923-.154-3.332-3.158-4.048-4.725-2.958-.618.4-.583.161-.245-.256,2.326-2.858.918-6.538-2.224-6.609h0Z"/><path id="e481c53c-bd50-495b-8486-68e72c7bcdec" data-name="path31-6-7-6" d="M6.254,37.967v-26.4H8.813v26.4Z"/><path id="849fd0e5-4a90-4609-a235-80580330ad7c" data-name="path33-9-3-6" d="M16.4,11.567c-2.463,0-4.443,2.25-4.443,5.045v16.31c0,2.8,1.981,5.044,4.443,5.044h1.438c2.463,0,4.447-2.249,4.447-5.044V16.612c0-2.795-1.985-5.045-4.447-5.045Zm.744,2.5a2.56,2.56,0,0,1,2.623,2.511V33.1a2.628,2.628,0,0,1-5.251,0V16.574a2.565,2.565,0,0,1,2.628-2.511Z"/><path id="225f1954-f97f-4068-92f0-7fc986eefb06" data-name="path31-1-4-0-7" d="M173.32,212.475v26.4h-2.559v-26.4Z"/><path id="7d686f29-4979-498d-8256-6124be9eff29" data-name="path33-5-7-4-0" d="M163.176,238.875c2.463,0,4.443-2.25,4.443-5.044V217.52c0-2.8-1.981-5.044-4.443-5.044h-1.438a4.763,4.763,0,0,0-4.448,5.044v16.311a4.765,4.765,0,0,0,4.448,5.044Zm-.744-2.5a2.56,2.56,0,0,1-2.624-2.511V217.342a2.628,2.628,0,0,1,5.252,0v16.526a2.565,2.565,0,0,1-2.628,2.511Z"/></g><rect id="9eefdd80-33f9-4fde-b972-cf7c1da85f23" data-name="rect17706" x="0.496" y="0.496" width="178.583" height="249.449" rx="8.504" ry="8.504" opacity="0.08" fill="url(#6582d253-4612-4447-9605-7efd7773de3d)" style="isolation:isolate"/></g></g></g></svg>