<svg xmlns="http://www.w3.org/2000/svg" xmlns:xlink="http://www.w3.org/1999/xlink" viewBox="0 0 179.579 250.446"><defs><pattern id="9faea622-4a5c-47b2-9043-477993e585e6" data-name="pattern17604" width="595.276" height="841.89" patternTransform="matrix(0.8, 0, 0, -0.8, -615.4, 967.046)" patternUnits="userSpaceOnUse" viewBox="0 0 595.276 841.89"><rect width="595.276" height="841.89" fill="none"/></pattern></defs><title>10D</title><g id="ba2f677b-6707-4d81-8389-4cf7365f4ef3" data-name="Layer 2"><g id="4769ffea-b895-4aef-a506-5a1b43d672f2" data-name="Diamonds"><g id="3129d6a4-4c4e-4e1e-a948-2568bdccc29e" data-name="10D"><g id="b64a6dbd-2d95-4628-9775-2fd2045149e5" data-name="g101299"><rect id="c2612cb0-6da0-46c8-ab12-2899d850ed65" data-name="rect6178" x="0.498" y="0.498" width="178.583" height="249.449" rx="8.504" ry="8.504" fill="#fff" stroke="#b3b0b0" stroke-width="0.997"/><path id="bf6d7939-054c-49cc-9e06-b5712c3ba642" data-name="path7062-5" d="M14.273,56.477a45.124,45.124,0,0,0-5.821-8,45.124,45.124,0,0,0,5.821-8,45.069,45.069,0,0,0,5.82,8A45.069,45.069,0,0,0,14.273,56.477Z" fill="#d40000"/><path id="da18ffb4-c5c2-4357-952c-c2c87cee4f6b" data-name="path7064-0" d="M131.2,65.054c-4.149-6.851-8.514-13.511-13.968-19.2,5.454-5.688,9.819-12.348,13.968-19.2,4.149,6.852,8.514,13.512,13.969,19.2C139.717,51.543,135.352,58.2,131.2,65.054Z" fill="#d40000"/><path id="21e6eca9-db2a-48ed-ba43-4b2f90b2095d" data-name="path7066-9" d="M165.308,209.969a45.119,45.119,0,0,0-5.82-8,45.119,45.119,0,0,0,5.82-8,45.169,45.169,0,0,0,5.82,8A45.169,45.169,0,0,0,165.308,209.969Z" fill="#d40000"/><path id="63a2b195-f10b-4ed3-80f6-349b8fea3e30" data-name="path7068-2" d="M48.377,65.054c-4.149-6.851-8.514-13.511-13.969-19.2,5.455-5.688,9.82-12.348,13.969-19.2,4.149,6.852,8.514,13.512,13.969,19.2C56.891,51.543,52.526,58.2,48.377,65.054Z" fill="#d40000"/><path id="75856e03-f1cd-4a37-ae92-56a01ff6a3c7" data-name="path7070-0" d="M131.2,117.972c-4.149-6.851-8.514-13.511-13.968-19.2,5.454-5.688,9.819-12.348,13.968-19.2,4.149,6.852,8.514,13.512,13.969,19.2C139.717,104.461,135.352,111.121,131.2,117.972Z" fill="#d40000"/><path id="20b74fee-5f1d-41dd-ad19-469e664afac2" data-name="path7072-0" d="M48.377,117.972c-4.149-6.851-8.514-13.511-13.969-19.2,5.455-5.688,9.82-12.348,13.969-19.2,4.149,6.852,8.514,13.512,13.969,19.2C56.891,104.461,52.526,111.121,48.377,117.972Z" fill="#d40000"/><path id="fe2cca5a-eb00-44be-b71d-4eb8bd132781" data-name="path7074-4" d="M89.79,91.511C85.641,84.659,81.276,78,75.821,72.311c5.455-5.689,9.82-12.348,13.969-19.2,4.149,6.852,8.514,13.511,13.969,19.2C98.3,78,93.939,84.659,89.79,91.511Z" fill="#d40000"/><path id="0491d9b1-3614-4543-9425-4953c9d9fd31" data-name="path7084-9" d="M48.377,223.8c-4.149-6.851-8.514-13.511-13.969-19.2,5.455-5.688,9.82-12.348,13.969-19.2,4.149,6.852,8.514,13.512,13.969,19.2C56.891,210.284,52.526,216.944,48.377,223.8Z" fill="#d40000"/><path id="096557df-1324-4e31-8fa6-71b83c73bb60" data-name="path7086-7" d="M131.2,223.8c-4.149-6.852-8.514-13.511-13.968-19.2,5.454-5.689,9.819-12.348,13.968-19.2,4.149,6.852,8.514,13.511,13.969,19.2C139.717,210.29,135.352,216.949,131.2,223.8Z" fill="#d40000"/><path id="8fc18200-595a-41f4-b484-e1361b463681" data-name="path7088-6" d="M131.2,170.878c-4.149-6.852-8.514-13.511-13.968-19.2,5.454-5.689,9.819-12.348,13.968-19.2,4.149,6.852,8.514,13.511,13.969,19.2C139.717,157.367,135.352,164.026,131.2,170.878Z" fill="#d40000"/><path id="42420ef4-c583-43d9-b954-0c7dbc4f0492" data-name="path7090-8" d="M48.377,170.852c-4.149-6.852-8.514-13.511-13.969-19.2,5.455-5.688,9.82-12.348,13.969-19.2,4.149,6.852,8.514,13.512,13.969,19.2C56.891,157.341,52.526,164,48.377,170.852Z" fill="#d40000"/><path id="569d7724-cf59-4aa7-abe7-151f9ba63ba3" data-name="path7092-79" d="M89.79,197.335c-4.149-6.852-8.514-13.511-13.969-19.2,5.455-5.688,9.82-12.348,13.969-19.2,4.149,6.852,8.514,13.512,13.969,19.2C98.3,183.824,93.939,190.483,89.79,197.335Z" fill="#d40000"/><g id="35b0290d-e235-4bf6-a30b-bc3ca74e161c" data-name="g8345-9-6-9-5"><path id="8faab39b-46a7-4232-9273-860100079d80" data-name="path31-8-2-5-6" d="M6.256,37.969v-26.4H8.815v26.4Z" fill="#d40000"/><path id="dc58bcd4-484a-4ba2-97b7-8914cf528519" data-name="path33-2-0-3-1" d="M16.4,11.569c-2.464,0-4.443,2.25-4.443,5.044V32.924c0,2.8,1.981,5.044,4.443,5.044h1.438c2.463,0,4.447-2.249,4.447-5.044V16.613c0-2.794-1.985-5.044-4.447-5.044Zm.743,2.5a2.56,2.56,0,0,1,2.624,2.511V33.1a2.628,2.628,0,0,1-5.251,0V16.576a2.564,2.564,0,0,1,2.627-2.511Z" fill="#d40000"/></g><g id="471d7fd5-6486-4232-b50f-0514e8c278b7" data-name="g8345-5-0-8-9"><path id="5d2de22f-bc69-4294-9ee4-138c4e017986" data-name="path31-1-3-1-4" d="M173.322,212.477v26.4h-2.559v-26.4Z" fill="#d40000"/><path id="53576684-4c59-4702-933a-1be20b927f96" data-name="path33-5-5-1-9" d="M163.177,238.877c2.464,0,4.444-2.25,4.444-5.045v-16.31c0-2.795-1.981-5.044-4.444-5.044h-1.438c-2.463,0-4.447,2.249-4.447,5.044v16.31c0,2.8,1.985,5.045,4.447,5.045Zm-.743-2.5a2.56,2.56,0,0,1-2.624-2.511V217.343a2.628,2.628,0,0,1,5.252,0V233.87a2.565,2.565,0,0,1-2.628,2.511Z" fill="#d40000"/></g></g><rect id="60f3fc4b-e7e3-49f7-8ef4-d0f095434f5d" data-name="rect16714" x="0.498" y="0.498" width="178.583" height="249.449" rx="8.504" ry="8.504" opacity="0.08" fill="url(#9faea622-4a5c-47b2-9043-477993e585e6)" style="isolation:isolate"/></g></g></g></svg>