<svg xmlns="http://www.w3.org/2000/svg" xmlns:xlink="http://www.w3.org/1999/xlink" viewBox="0 0 179.576 250.442"><defs><pattern id="84ec3fda-fd11-47bf-81ed-c701ca580d56" data-name="pattern17784" width="595.276" height="841.89" patternTransform="matrix(0.8, 0, 0, -0.8, -615.4, 1531.539)" patternUnits="userSpaceOnUse" viewBox="0 0 595.276 841.89"><rect width="595.276" height="841.89" fill="none"/></pattern></defs><title>10H</title><g id="96744ec2-fad1-4d96-9ad7-fcc56b456b89" data-name="Layer 2"><g id="38dfd31e-75ee-4511-9b0d-019929681b33" data-name="Hearts"><g id="c587055b-fd65-4e62-afc2-9e76219cc228" data-name="10H"><g id="56411ce6-b213-4516-a787-063320efaea0" data-name="g101227"><rect id="812e9fd6-4992-46f0-bfe5-dbc937a9b7af" data-name="rect5839" x="0.496" y="0.496" width="178.583" height="249.449" rx="8.504" ry="8.504" fill="#fff" stroke="#b3b0b0" stroke-width="0.993"/><path id="973204e3-8917-478a-ac57-b1d38a6a56d3" data-name="path10308-5-1" d="M48.375,117.965s-3.733-6.125-8.769-13.325c-3.369-4.819-6.062-10.036-6.312-14.531-.288-5.133,2.431-10.284,7.353-10.534S47.562,83.534,48.375,87c.813-3.469,2.809-7.677,7.728-7.428s7.64,5.4,7.353,10.534c-.25,4.5-2.943,9.712-6.312,14.531-5.036,7.2-8.769,13.325-8.769,13.325Z" fill="#d40000"/><path id="01b20633-1bac-44db-8d05-b89d36e4bc5f" data-name="path10310-7-8" d="M14.271,56.475s-1.78-2.552-4.181-5.552c-1.606-2.008-2.89-4.182-3.009-6.054a3.878,3.878,0,0,1,3.505-4.389c2.345-.1,3.3,1.649,3.685,3.094.387-1.445,1.339-3.2,3.684-3.094a3.878,3.878,0,0,1,3.506,4.389c-.119,1.872-1.4,4.046-3.01,6.054-2.4,3-4.18,5.552-4.18,5.552Z" fill="#d40000"/><path id="078f5935-1c3c-4867-abb7-325996fa82ac" data-name="path10312-3-5" d="M165.306,193.967s-1.78,2.552-4.18,5.552c-1.607,2.008-2.891,4.182-3.01,6.054a3.879,3.879,0,0,0,3.5,4.39c2.346.1,3.3-1.65,3.685-3.095.388,1.445,1.339,3.2,3.685,3.095a3.879,3.879,0,0,0,3.5-4.39c-.119-1.872-1.4-4.046-3.009-6.054C167.086,196.519,165.306,193.967,165.306,193.967Z" fill="#d40000"/><path id="990c16bf-1dcd-4312-a02d-8a8bd3447b94" data-name="path10314-8-8" d="M89.788,99.165S86.055,93.04,81.019,85.84c-3.368-4.819-6.062-10.036-6.312-14.531-.288-5.134,2.431-10.284,7.353-10.534s6.915,3.959,7.728,7.428c.813-3.469,2.809-7.677,7.728-7.428s7.64,5.4,7.353,10.534c-.25,4.5-2.943,9.712-6.312,14.531-5.036,7.2-8.769,13.325-8.769,13.325Z" fill="#d40000"/><path id="89010e7e-3a4c-4e38-a4e5-805b1d026302" data-name="path10318-3-7" d="M48.375,65.052s-3.733-6.124-8.769-13.325c-3.369-4.818-6.062-10.036-6.312-14.53-.288-5.134,2.431-10.284,7.353-10.534s6.915,3.959,7.728,7.428c.813-3.47,2.809-7.677,7.728-7.428s7.64,5.4,7.353,10.534c-.25,4.494-2.943,9.712-6.312,14.53-5.036,7.2-8.769,13.325-8.769,13.325Z" fill="#d40000"/><path id="02de63c5-f63f-4adf-9470-953b72a1ae39" data-name="path10322-4-6" d="M131.2,117.965s-3.733-6.125-8.769-13.325c-3.368-4.819-6.062-10.036-6.312-14.531-.287-5.133,2.431-10.284,7.353-10.534S130.388,83.534,131.2,87c.813-3.469,2.809-7.677,7.728-7.428s7.641,5.4,7.353,10.534c-.25,4.5-2.943,9.712-6.312,14.531-5.036,7.2-8.769,13.325-8.769,13.325Z" fill="#d40000"/><path id="98faa04c-e064-443a-94bc-9227d2cfe486" data-name="path10324-9-8" d="M131.2,65.052s-3.733-6.124-8.769-13.325c-3.368-4.818-6.062-10.036-6.312-14.53-.287-5.134,2.431-10.284,7.353-10.534s6.915,3.959,7.728,7.428c.813-3.47,2.809-7.677,7.728-7.428s7.641,5.4,7.353,10.534c-.25,4.494-2.943,9.712-6.312,14.53-5.036,7.2-8.769,13.325-8.769,13.325Z" fill="#d40000"/><path id="544968bf-2cc0-4ca6-b64a-0660fda4cb48" data-name="path10332-8-6" d="M89.788,151.277S86.055,157.4,81.019,164.6c-3.368,4.819-6.062,10.036-6.312,14.531-.288,5.133,2.431,10.284,7.353,10.534s6.915-3.959,7.728-7.428c.813,3.469,2.809,7.677,7.728,7.428s7.64-5.4,7.353-10.534c-.25-4.5-2.943-9.712-6.312-14.531-5.036-7.2-8.769-13.325-8.769-13.325Z" fill="#d40000"/><path id="eb555a41-3f0e-4cb6-8d27-00a946a7f09d" data-name="path10334-5-0" d="M131.2,132.477s-3.733,6.125-8.769,13.325c-3.368,4.819-6.062,10.036-6.312,14.531-.287,5.133,2.431,10.284,7.353,10.534s6.915-3.959,7.728-7.428c.813,3.469,2.809,7.677,7.728,7.428s7.641-5.4,7.353-10.534c-.25-4.5-2.943-9.712-6.312-14.531-5.036-7.2-8.769-13.325-8.769-13.325Z" fill="#d40000"/><path id="3b11cd9e-43bb-4a09-9b7d-359dbd12763c" data-name="path10336-3-5" d="M48.375,132.477S44.642,138.6,39.606,145.8c-3.369,4.819-6.062,10.036-6.312,14.531-.288,5.133,2.431,10.284,7.353,10.534s6.915-3.959,7.728-7.428c.813,3.469,2.809,7.677,7.728,7.428s7.64-5.4,7.353-10.534c-.25-4.5-2.943-9.712-6.312-14.531-5.036-7.2-8.769-13.325-8.769-13.325Z" fill="#d40000"/><path id="d64e04fe-57e0-417b-a536-65c3d6624459" data-name="path10338-2-9" d="M131.2,185.39s-3.733,6.124-8.769,13.325c-3.368,4.818-6.062,10.036-6.312,14.53-.287,5.134,2.431,10.284,7.353,10.534s6.915-3.958,7.728-7.428c.813,3.469,2.809,7.677,7.728,7.428s7.641-5.4,7.353-10.534c-.25-4.494-2.943-9.712-6.312-14.53-5.036-7.2-8.769-13.325-8.769-13.325Z" fill="#d40000"/><path id="8369f173-a179-4ba3-b639-67302889e5e9" data-name="path10340-9-7" d="M48.375,185.39s-3.733,6.124-8.769,13.325c-3.369,4.818-6.062,10.036-6.312,14.53-.288,5.134,2.431,10.284,7.353,10.534s6.915-3.958,7.728-7.428c.813,3.469,2.809,7.677,7.728,7.428s7.64-5.4,7.353-10.534c-.25-4.494-2.943-9.712-6.312-14.53-5.036-7.2-8.769-13.325-8.769-13.325Z" fill="#d40000"/><g id="0d4ec3e2-0ba5-43b7-8513-f7b7bc07df02" data-name="g7724-24-8-9-7"><g id="c3a81a10-779a-48d0-bb83-8dff06565256" data-name="g8345-9-7-5-1"><path id="1a0b9590-6d58-45f1-bfc5-f42bfd29e9b8" data-name="path31-8-2-9-8" d="M6.254,37.967v-26.4H8.813v26.4Z" fill="#d40000"/><path id="1c568e91-2b2b-4cd8-b88d-e4985e5b80f9" data-name="path33-2-3-1-6" d="M16.4,11.567c-2.463,0-4.443,2.25-4.443,5.045V32.923c0,2.794,1.981,5.043,4.443,5.043h1.438a4.763,4.763,0,0,0,4.447-5.043V16.612c0-2.795-1.985-5.045-4.447-5.045Zm.744,2.5a2.56,2.56,0,0,1,2.623,2.511V33.1a2.628,2.628,0,0,1-5.251,0V16.574a2.565,2.565,0,0,1,2.628-2.511Z" fill="#d40000"/></g></g><g id="c5c7c1a7-7b66-4800-bc2c-e47428074342" data-name="g7724-2-5-0-2-7"><g id="5f3bd413-3527-48e8-a2d6-d7b3128dcaa0" data-name="g8345-5-0-9-6-9"><g id="d1258b46-4ef4-47bf-b0f2-08b0456ecd8a" data-name="g10963-5-1"><path id="3daa92ac-6df6-4b83-a4f4-d38849984edf" data-name="path31-1-3-2-1-5" d="M173.32,212.475v26.4h-2.559v-26.4Z" fill="#d40000"/><path id="8ef46422-712f-4e7b-8eaa-376d43ebb7e6" data-name="path33-5-5-3-3-1" d="M163.175,238.875c2.464,0,4.444-2.25,4.444-5.045V217.52c0-2.8-1.981-5.044-4.444-5.044h-1.438c-2.463,0-4.447,2.249-4.447,5.044v16.31c0,2.795,1.985,5.045,4.447,5.045Zm-.743-2.5a2.56,2.56,0,0,1-2.624-2.511V217.342a2.628,2.628,0,0,1,5.252,0v16.526a2.565,2.565,0,0,1-2.628,2.511Z" fill="#d40000"/></g></g></g></g><rect id="b7e3c37b-93fe-49a4-8c5f-e8f5c585a837" data-name="rect17732" x="0.496" y="0.496" width="178.583" height="249.449" rx="8.504" ry="8.504" opacity="0.08" fill="url(#84ec3fda-fd11-47bf-81ed-c701ca580d56)" style="isolation:isolate"/></g></g></g></svg>