<svg xmlns="http://www.w3.org/2000/svg" xmlns:xlink="http://www.w3.org/1999/xlink" viewBox="0 0 179.576 250.442"><defs><pattern id="095ef258-ba8d-400f-b263-9c579b6e5b51" data-name="pattern17654" width="595.276" height="841.89" patternTransform="matrix(0.8, 0, 0, -0.8, -615.4, 1249.292)" patternUnits="userSpaceOnUse" viewBox="0 0 595.276 841.89"><rect width="595.276" height="841.89" fill="none"/></pattern></defs><title>10S</title><g id="fa13ae8c-12c7-4ada-a4ae-de2828c8ff93" data-name="Layer 2"><g id="00316680-5261-4722-a292-c3f6e384bd51" data-name="Spades"><g id="31233ec0-9714-4bd0-94bf-6207bc8985ea" data-name="10S"><g id="ce76ca03-a9e5-46cf-8c98-86db3a5b55ed" data-name="g101266"><rect id="b8e94e28-d9e7-421d-81a0-712b2e087a02" data-name="rect5473" x="0.496" y="0.496" width="178.583" height="249.449" rx="8.504" ry="8.504" fill="#fff" stroke="#b3b0b0" stroke-width="0.993"/><path id="206700eb-89df-4d30-8f34-3c2d321d1f8f" data-name="path7293-3-2" d="M48.375,26.652C40.994,37.178,33.1,43.235,32.966,51.447c-.045,2.659,1.393,7.179,5.9,8.044,2.921.559,6.944-1.806,7.028-6.61-.013-.956,1.012-.932,1,.379a27.273,27.273,0,0,1-3.353,11.793h9.668A27.273,27.273,0,0,1,49.856,53.26c-.009-1.311,1.016-1.335,1-.379.084,4.8,4.107,7.169,7.029,6.61,4.5-.865,5.94-5.385,5.9-8.044C63.653,43.235,55.756,37.178,48.375,26.652Z"/><path id="2ee2c6e4-2c95-4eaf-9904-7499ce103ac7" data-name="path7295-4-8" d="M14.27,40.475c-3.448,4.386-7.138,6.91-7.2,10.331a3.322,3.322,0,0,0,2.755,3.352A2.861,2.861,0,0,0,13.11,51.4c-.008-.4.473-.388.468.158a10.44,10.44,0,0,1-1.566,4.913h4.517a10.452,10.452,0,0,1-1.567-4.913c-.008-.546.475-.557.469-.158a2.861,2.861,0,0,0,3.284,2.754,3.323,3.323,0,0,0,2.755-3.352C21.408,47.385,17.719,44.861,14.27,40.475Z"/><path id="fa4269c0-929b-46db-99d6-6f7bcca67f0f" data-name="path7297-5-1" d="M48.375,170.877c-7.381-10.526-15.278-16.583-15.409-24.8-.045-2.659,1.393-7.178,5.9-8.043,2.921-.559,6.944,1.806,7.028,6.61-.013.956,1.012.931,1-.379a27.265,27.265,0,0,0-3.353-11.793h9.668a27.265,27.265,0,0,0-3.353,11.793c-.009,1.31,1.016,1.335,1,.379.084-4.8,4.107-7.169,7.029-6.61,4.5.865,5.94,5.384,5.9,8.043-.131,8.212-8.028,14.269-15.409,24.8Z"/><path id="cbc3f56d-e680-4bc4-90c2-da271b530553" data-name="path7299-3-5" d="M165.306,209.967c-3.448-4.386-7.138-6.91-7.2-10.331a3.322,3.322,0,0,1,2.755-3.352,2.86,2.86,0,0,1,3.283,2.754c-.008.4.474.389.469-.158a10.454,10.454,0,0,0-1.566-4.913h4.517A10.456,10.456,0,0,0,166,198.88c-.008.547.475.557.469.158a2.86,2.86,0,0,1,3.284-2.754,3.324,3.324,0,0,1,2.755,3.352C172.444,203.057,168.754,205.581,165.306,209.967Z"/><path id="86269d6f-513a-4c4f-b41d-a71ebabea3b2" data-name="path7301-4-0" d="M131.2,26.652c-7.381,10.526-15.278,16.583-15.409,24.8-.044,2.659,1.394,7.179,5.9,8.044,2.921.559,6.944-1.806,7.028-6.61-.013-.956,1.012-.932,1,.379a27.273,27.273,0,0,1-3.353,11.793h9.668a27.273,27.273,0,0,1-3.353-11.793c-.009-1.311,1.016-1.335,1-.379.083,4.8,4.106,7.169,7.028,6.61,4.5-.865,5.941-5.385,5.9-8.044C146.479,43.235,138.582,37.178,131.2,26.652Z"/><path id="720f498c-911a-4274-afb1-fe55ebea76c1" data-name="path7303-7-8" d="M48.375,79.565C40.994,90.091,33.1,96.148,32.966,104.36c-.045,2.659,1.393,7.178,5.9,8.043,2.921.559,6.944-1.806,7.028-6.61-.013-.956,1.012-.931,1,.379a27.265,27.265,0,0,1-3.353,11.793h9.668a27.265,27.265,0,0,1-3.353-11.793c-.009-1.31,1.016-1.335,1-.379.084,4.8,4.107,7.169,7.029,6.61,4.5-.865,5.94-5.384,5.9-8.043C63.653,96.148,55.756,90.091,48.375,79.565Z"/><path id="03dd7cf8-3297-4721-9f9a-f563aa28b377" data-name="path7305-6-7" d="M89.788,60.765C82.407,71.291,74.51,77.348,74.379,85.56c-.044,2.659,1.393,7.178,5.9,8.043,2.921.559,6.944-1.806,7.028-6.61-.013-.956,1.012-.931,1,.379a27.279,27.279,0,0,1-3.353,11.793h9.668a27.265,27.265,0,0,1-3.353-11.793c-.009-1.31,1.016-1.335,1-.379.084,4.8,4.107,7.169,7.028,6.61,4.5-.865,5.941-5.384,5.9-8.043C105.066,77.348,97.169,71.291,89.788,60.765Z"/><path id="074ec610-d81e-497a-9cd6-098b3b96a5da" data-name="path7309-8-5" d="M131.2,79.565c-7.381,10.526-15.278,16.583-15.409,24.8-.044,2.659,1.394,7.178,5.9,8.043,2.921.559,6.944-1.806,7.028-6.61-.013-.956,1.012-.931,1,.379a27.265,27.265,0,0,1-3.353,11.793h9.668a27.265,27.265,0,0,1-3.353-11.793c-.009-1.31,1.016-1.335,1-.379.083,4.8,4.106,7.169,7.028,6.61,4.5-.865,5.941-5.384,5.9-8.043C146.479,96.148,138.582,90.091,131.2,79.565Z"/><path id="0c6d74df-7ac2-4e6a-8a7d-6407ea9b1517" data-name="path7313-6-8" d="M48.375,223.79C40.994,213.264,33.1,207.207,32.966,199c-.045-2.659,1.393-7.179,5.9-8.044,2.921-.559,6.944,1.806,7.028,6.61-.013.956,1.012.932,1-.379a27.265,27.265,0,0,0-3.353-11.792h9.668a27.265,27.265,0,0,0-3.353,11.792c-.009,1.311,1.016,1.336,1,.379.084-4.8,4.107-7.169,7.029-6.61,4.5.865,5.94,5.385,5.9,8.044C63.653,207.207,55.756,213.264,48.375,223.79Z"/><path id="64f4d850-67e6-42e9-9b67-4f69dd1d9904" data-name="path7315-7-3" d="M131.2,223.79c-7.381-10.526-15.278-16.583-15.409-24.795-.044-2.659,1.394-7.179,5.9-8.044,2.921-.559,6.944,1.806,7.028,6.61-.013.956,1.012.932,1-.379a27.265,27.265,0,0,0-3.353-11.792h9.668a27.265,27.265,0,0,0-3.353,11.792c-.009,1.311,1.016,1.336,1,.379.083-4.8,4.106-7.169,7.028-6.61,4.5.865,5.941,5.385,5.9,8.044C146.479,207.207,138.582,213.264,131.2,223.79Z"/><path id="720bf9c1-af21-4ec4-b5fa-ea987f6b07b8" data-name="path7317-0-2" d="M89.788,189.677c-7.381-10.526-15.278-16.583-15.409-24.794-.044-2.66,1.393-7.179,5.9-8.044,2.921-.559,6.944,1.806,7.028,6.61-.013.956,1.012.931,1-.379a27.279,27.279,0,0,0-3.353-11.793h9.668a27.265,27.265,0,0,0-3.353,11.793c-.009,1.31,1.016,1.335,1,.379.084-4.8,4.107-7.169,7.028-6.61,4.5.865,5.941,5.384,5.9,8.044C105.066,173.094,97.169,179.151,89.788,189.677Z"/><path id="b8f2463e-3a46-4134-b3a2-3aee5b769d32" data-name="path7319-5-6" d="M131.2,170.877c-7.381-10.526-15.278-16.583-15.409-24.794-.044-2.66,1.394-7.179,5.9-8.044,2.921-.559,6.944,1.806,7.028,6.61-.013.956,1.012.931,1-.379a27.269,27.269,0,0,0-3.353-11.793h9.668a27.269,27.269,0,0,0-3.353,11.793c-.009,1.31,1.016,1.335,1,.379.083-4.8,4.106-7.169,7.028-6.61,4.5.865,5.941,5.384,5.9,8.044-.132,8.211-8.029,14.269-15.41,24.794Z"/><path id="e4ca3fc1-5422-4e02-baef-da21280f4a92" data-name="path31-5-4-7" d="M6.254,37.967v-26.4H8.813v26.4Z"/><path id="dc9f74ff-fa1b-4078-989a-3535d798ca0c" data-name="path33-4-6-8" d="M16.4,11.567c-2.464,0-4.444,2.25-4.444,5.045v16.31c0,2.8,1.981,5.044,4.444,5.044h1.438c2.463,0,4.447-2.249,4.447-5.044V16.612c0-2.795-1.985-5.045-4.447-5.045Zm.743,2.5a2.56,2.56,0,0,1,2.624,2.511V33.1a2.628,2.628,0,0,1-5.252,0V16.574a2.565,2.565,0,0,1,2.628-2.511Z"/><g id="16b01121-9049-4fd5-8d93-c0b4eca30f9f" data-name="g8583-6-9"><path id="0dcf462a-814b-435d-bf0e-f656f3b04e8b" data-name="path31-5-5-6-7" d="M173.32,212.475v26.4h-2.559v-26.4Z"/><path id="7e81a47f-e983-4ad7-87a9-62f00e369879" data-name="path33-4-3-7-9" d="M163.175,238.875c2.464,0,4.444-2.25,4.444-5.044V217.52c0-2.8-1.981-5.044-4.444-5.044h-1.437a4.763,4.763,0,0,0-4.448,5.044v16.311a4.765,4.765,0,0,0,4.448,5.044Zm-.743-2.5a2.56,2.56,0,0,1-2.624-2.511V217.342a2.628,2.628,0,0,1,5.252,0v16.526a2.565,2.565,0,0,1-2.628,2.511Z"/></g></g><rect id="a0e81af5-c992-49c4-96cf-939abcddb8c4" data-name="rect17628" x="0.496" y="0.496" width="178.583" height="249.449" rx="8.504" ry="8.504" opacity="0.08" fill="url(#095ef258-ba8d-400f-b263-9c579b6e5b51)" style="isolation:isolate"/></g></g></g></svg>