<svg xmlns="http://www.w3.org/2000/svg" xmlns:xlink="http://www.w3.org/1999/xlink" viewBox="0 0 179.576 250.442"><defs><pattern id="c66fadc0-cc6e-438f-bc43-5cdd9e1deafb" data-name="pattern17744" width="595.276" height="841.89" patternTransform="matrix(0.8, 0, 0, -0.8, -615.4, 1813.785)" patternUnits="userSpaceOnUse" viewBox="0 0 595.276 841.89"><rect width="595.276" height="841.89" fill="none"/></pattern></defs><title>2C</title><g id="af58d272-8fa3-43dd-bef5-0e8e371d629f" data-name="Layer 2"><g id="a3fc3c00-d4d1-4206-b59b-e6808d8414ff" data-name="Clubs"><g id="f7fb3089-5d2b-434b-9b9e-d6dabc4e6b70" data-name="2C"><g id="7801765b-af7b-4abc-bcbe-6fb3e4b400b7" data-name="g100781"><rect id="2ec8a5ba-35a0-47ec-9be0-780bccf5c0b7" data-name="rect4942" x="0.496" y="0.496" width="178.583" height="249.449" rx="8.504" ry="8.504" fill="#fff" stroke="#b3b0b0" stroke-width="0.993"/><path id="9a34ba42-2478-464e-8f9b-1e2abb4fcb74" data-name="path147-0-8-1-6-7-2-1-6-3" d="M89.784,26.985c-7.854.17-11.376,9-5.559,15.862.844,1,.931,1.574-.614.613-3.917-2.616-11.427-.9-11.811,7.1-.475,9.853,13.309,12.692,15.9,2.214.137-1.1,1.037-1.08.82.489a32.576,32.576,0,0,1-3.4,12.121h9.337a32.576,32.576,0,0,1-3.4-12.121c-.217-1.569.683-1.594.82-.489,2.588,10.478,16.373,7.639,15.9-2.214-.385-8-7.895-9.717-11.811-7.1-1.546.961-1.458.387-.615-.613,5.817-6.859,2.3-15.691-5.559-15.862h-.007Z"/><path id="71cc0748-6f59-4ce0-87c4-9de75de68824" data-name="path147-0-8-1-6-1-4-5-4-2" d="M89.784,224.122c-7.854-.17-11.376-9-5.559-15.861.844-1,.931-1.575-.614-.614-3.917,2.616-11.427.9-11.811-7.1-.475-9.853,13.309-12.692,15.9-2.215.137,1.105,1.037,1.08.82-.489a32.582,32.582,0,0,0-3.4-12.121h9.338a32.564,32.564,0,0,0-3.4,12.121c-.216,1.569.683,1.594.82.489,2.588-10.477,16.373-7.638,15.9,2.215-.385,8-7.895,9.716-11.811,7.1-1.545-.961-1.458-.387-.615.614,5.817,6.859,2.3,15.691-5.559,15.861h-.007Z"/><path id="34220c24-2532-4c41-8d11-f6a7de3f8c1b" data-name="path147-6-9-8-7-0-5-4-9-1" d="M165.307,209.967c3.142-.071,4.551-3.751,2.224-6.609-.338-.417-.372-.656.246-.256,1.566,1.09,4.57.374,4.724-2.958.19-4.106-5.324-5.289-6.359-.923-.055.461-.415.45-.328-.2a14.022,14.022,0,0,1,1.359-5.05h-3.735a14,14,0,0,1,1.36,5.05c.086.654-.273.665-.328.2-1.035-4.366-6.549-3.183-6.359.923.154,3.332,3.157,4.048,4.724,2.958.618-.4.583-.161.246.256-2.327,2.858-.918,6.538,2.224,6.609h0Z"/><path id="47546231-f7f4-4715-aa76-e48732cf0244" data-name="path147-6-9-8-7-4-5-9-2-7" d="M14.269,40.475c-3.142.071-4.551,3.751-2.224,6.609.338.417.373.656-.246.256-1.566-1.09-4.57-.374-4.724,2.958-.19,4.106,5.324,5.289,6.359.923.055-.46.415-.45.328.2a14,14,0,0,1-1.359,5.05h3.735a14,14,0,0,1-1.359-5.05c-.087-.654.273-.664.327-.2,1.036,4.366,6.549,3.183,6.359-.923-.153-3.332-3.157-4.048-4.724-2.958-.618.4-.583.161-.246-.256,2.327-2.858.918-6.538-2.223-6.609h0Z"/><path id="67737de2-ea9b-4e2d-ba61-d248225adfd1" data-name="path15-9-1-0-1" d="M6.356,37.91l.128-1.628C6.89,31.252,7.971,29.555,14.1,24.3c2.976-2.546,3.952-3.8,4.089-5.259.39-3.437-2.651-4.51-4.632-4.526-2.568-.023-5.472,1.539-4.086,5.17l-2.881.862c-.579-3.387.017-6.564,2.712-7.974,3.6-1.839,8.217-1.118,10.547,1.779a6.906,6.906,0,0,1,1.084,6.737c-2.455,5.376-10.783,7.742-11.47,13.962h9.2V31.591h2.713v6.376L6.356,37.911Z"/><path id="ac1ee611-dab8-4924-ad5f-923a3bc1f497" data-name="path15-5-7-4-9-4" d="M172.818,212.532l-.128,1.628c-.407,5.03-1.488,6.728-7.619,11.979-2.976,2.546-3.953,3.8-4.089,5.259-.39,3.437,2.651,4.51,4.632,4.526,2.567.023,5.472-1.539,4.086-5.17l2.881-.862c.579,3.387-.017,6.564-2.713,7.974-3.6,1.839-8.216,1.118-10.546-1.779a6.909,6.909,0,0,1-1.085-6.737c2.456-5.376,10.784-7.742,11.471-13.962H160.5v3.463h-2.712v-6.376l15.027.057Z"/></g><rect id="f8284e95-b2db-46e0-ae69-83577872ae47" data-name="rect17692" x="0.496" y="0.496" width="178.583" height="249.449" rx="8.504" ry="8.504" opacity="0.08" fill="url(#c66fadc0-cc6e-438f-bc43-5cdd9e1deafb)" style="isolation:isolate"/></g></g></g></svg>