<svg xmlns="http://www.w3.org/2000/svg" xmlns:xlink="http://www.w3.org/1999/xlink" viewBox="0 0 179.579 250.446"><defs><pattern id="b914573b-16cf-4ab5-a37c-b2de8ad6601f" data-name="pattern17588" width="595.276" height="841.89" patternTransform="matrix(0.8, 0, 0, -0.8, -615.4, 967.046)" patternUnits="userSpaceOnUse" viewBox="0 0 595.276 841.89"><rect width="595.276" height="841.89" fill="none"/></pattern></defs><title>2D</title><g id="b7cc4c44-7879-427e-87cb-67a634b450bc" data-name="Layer 2"><g id="b4f50a46-5698-4cc0-b41d-2c6b482309e5" data-name="Diamonds"><g id="1006f824-5da3-4867-8242-7550ba23f198" data-name="2D"><g id="47c8ef04-fe3e-4389-911e-bb57fd5e5cd8" data-name="g100798"><rect id="d473e6d0-72c1-407c-8785-a8959300ddbb" data-name="rect5989" x="0.498" y="0.498" width="178.583" height="249.449" rx="8.504" ry="8.504" fill="#fff" stroke="#b3b0b0" stroke-width="0.997"/><path id="a972c790-7982-4e09-8509-013ea149bed0" data-name="path6516-8" d="M89.79,65.054c-4.149-6.851-8.514-13.511-13.969-19.2,5.455-5.688,9.82-12.348,13.969-19.2,4.149,6.852,8.514,13.512,13.968,19.2C98.3,51.543,93.939,58.2,89.79,65.054Z" fill="#d40000"/><path id="af4aa8c7-5e7e-47d4-b739-f72ec0110ca0" data-name="path6518-2" d="M14.272,56.477a45.119,45.119,0,0,0-5.82-8,45.119,45.119,0,0,0,5.82-8,45.169,45.169,0,0,0,5.82,8A45.169,45.169,0,0,0,14.272,56.477Z" fill="#d40000"/><path id="3a7a6ea6-f64b-4377-9e95-1c4e86e6b8fe" data-name="path6522-0" d="M165.308,209.969a45.124,45.124,0,0,0-5.821-8,45.124,45.124,0,0,0,5.821-8,45.119,45.119,0,0,0,5.82,8A45.119,45.119,0,0,0,165.308,209.969Z" fill="#d40000"/><path id="568c48e0-1b1d-445b-9535-e169088bac05" data-name="path6538-6" d="M89.79,223.791c-4.149-6.851-8.514-13.511-13.969-19.2,5.455-5.688,9.82-12.348,13.969-19.2,4.149,6.852,8.514,13.512,13.968,19.2C98.3,210.28,93.939,216.94,89.79,223.791Z" fill="#d40000"/><path id="d8b8ce26-74ad-4b48-b66b-d565c03b8caa" data-name="path15-34-1-4-2" d="M6.757,37.912l.129-1.628c.406-5.031,1.487-6.728,7.618-11.979,2.977-2.546,3.953-3.8,4.09-5.259.39-3.438-2.652-4.51-4.633-4.526-2.567-.023-5.472,1.539-4.085,5.17L7,20.552c-.579-3.387.017-6.564,2.712-7.974,3.6-1.839,8.216-1.118,10.547,1.779a6.908,6.908,0,0,1,1.084,6.737c-2.455,5.376-10.783,7.742-11.47,13.962h9.2V31.593h2.712v6.376L6.757,37.912Z" fill="#d40000"/><path id="cd93b0bd-ea87-491e-ac43-bb5323a37e7b" data-name="path15-5-4-6-4" d="M172.82,212.534l-.129,1.628c-.406,5.03-1.487,6.727-7.618,11.979-2.977,2.546-3.953,3.8-4.089,5.259-.39,3.437,2.651,4.51,4.632,4.526,2.567.023,5.472-1.539,4.086-5.17l2.881-.862c.579,3.387-.017,6.564-2.713,7.974-3.6,1.839-8.216,1.118-10.547-1.779a6.911,6.911,0,0,1-1.084-6.737c2.456-5.376,10.784-7.742,11.471-13.962h-9.205v3.463h-2.712v-6.376l15.027.057Z" fill="#d40000"/></g><rect id="daff5158-8bca-4fb6-bfa9-ccd7d4d30502" data-name="rect16686" x="0.498" y="0.498" width="178.583" height="249.449" rx="8.504" ry="8.504" opacity="0.08" fill="url(#b914573b-16cf-4ab5-a37c-b2de8ad6601f)" style="isolation:isolate"/></g></g></g></svg>