<svg xmlns="http://www.w3.org/2000/svg" xmlns:xlink="http://www.w3.org/1999/xlink" viewBox="0 0 179.576 250.442"><defs><pattern id="77ae7915-8a59-4ef5-a176-240d7fad17eb" data-name="pattern17770" width="595.276" height="841.89" patternTransform="matrix(0.8, 0, 0, -0.8, -615.4, 1531.539)" patternUnits="userSpaceOnUse" viewBox="0 0 595.276 841.89"><rect width="595.276" height="841.89" fill="none"/></pattern></defs><title>2H</title><g id="99bdcc0e-1de1-4759-907e-83e4f5df4180" data-name="Layer 2"><g id="d2185db8-bc48-4dbf-9864-9c6d3eff1e69" data-name="Hearts"><g id="228949ef-4cf0-4230-b949-7f595252d076" data-name="2H"><g id="f05dbd94-049d-4f92-a6f7-67c13bd1c4db" data-name="g100772"><rect id="81c7a7bb-10fb-4405-a9f4-8bbc7290dec8" data-name="rect5609" x="0.496" y="0.496" width="178.583" height="249.449" rx="8.504" ry="8.504" fill="#fff" stroke="#b3b0b0" stroke-width="0.993"/><path id="e8c90cb1-dcdc-4b4c-b4a5-41ca10b62a53" data-name="path9766-0-8" d="M14.27,56.475s-1.78-2.552-4.18-5.552c-1.606-2.008-2.89-4.182-3.01-6.054a3.878,3.878,0,0,1,3.506-4.389c2.345-.1,3.3,1.649,3.684,3.094.388-1.445,1.34-3.2,3.685-3.094a3.878,3.878,0,0,1,3.505,4.389c-.119,1.872-1.4,4.046-3.009,6.054-2.4,3-4.181,5.552-4.181,5.552Z" fill="#d40000"/><path id="3e0130ca-f4b0-400a-8af5-00f5061dd340" data-name="path9768-3-3" d="M165.306,193.967s-1.78,2.552-4.181,5.552c-1.606,2.008-2.89,4.182-3.009,6.054a3.879,3.879,0,0,0,3.5,4.39c2.345.1,3.3-1.65,3.685-3.095.387,1.445,1.339,3.2,3.684,3.095a3.879,3.879,0,0,0,3.506-4.39c-.119-1.872-1.4-4.046-3.01-6.054-2.4-3-4.18-5.552-4.18-5.552Z" fill="#d40000"/><path id="3fd8c5cb-6612-48e6-beb2-204e4c754e7c" data-name="path9772-1-7" d="M89.788,65.052s-3.733-6.124-8.769-13.325c-3.369-4.818-6.062-10.036-6.313-14.53-.287-5.134,2.432-10.284,7.354-10.534s6.915,3.959,7.728,7.428c.812-3.47,2.809-7.677,7.728-7.428s7.64,5.4,7.353,10.534c-.25,4.494-2.944,9.712-6.313,14.53-5.035,7.2-8.768,13.325-8.768,13.325Z" fill="#d40000"/><path id="588f8030-6ad8-41eb-94e0-c81b6d0e9c58" data-name="path9786-2-1" d="M89.788,185.39s-3.733,6.124-8.769,13.325c-3.369,4.818-6.062,10.036-6.313,14.53-.287,5.134,2.432,10.284,7.354,10.534s6.915-3.958,7.728-7.428c.812,3.469,2.809,7.677,7.728,7.428s7.64-5.4,7.353-10.534c-.25-4.494-2.944-9.712-6.313-14.53-5.035-7.2-8.768-13.325-8.768-13.325Z" fill="#d40000"/><path id="bf46c53a-89ca-4758-b17d-8727d2d4362c" data-name="path15-34-0-0-4" d="M6.755,37.91l.129-1.628C7.29,31.252,8.371,29.554,14.5,24.3c2.976-2.546,3.952-3.8,4.089-5.259.39-3.437-2.651-4.51-4.632-4.526-2.568-.023-5.472,1.539-4.086,5.17l-2.881.862c-.579-3.387.017-6.564,2.712-7.974,3.6-1.839,8.216-1.118,10.547,1.779a6.906,6.906,0,0,1,1.084,6.737c-2.455,5.376-10.783,7.742-11.47,13.962h9.2V31.591h2.713v6.376L6.756,37.91Z" fill="#d40000"/><path id="bdc86aab-d0a3-4bef-bdfd-020079f3424f" data-name="path15-5-4-5-2-7" d="M172.818,212.532l-.128,1.628c-.407,5.03-1.488,6.728-7.619,11.979-2.976,2.546-3.953,3.8-4.089,5.259-.39,3.437,2.651,4.51,4.632,4.526,2.567.023,5.472-1.539,4.086-5.17l2.881-.862c.579,3.387-.017,6.564-2.713,7.974-3.6,1.839-8.216,1.118-10.546-1.779a6.909,6.909,0,0,1-1.085-6.737c2.456-5.376,10.784-7.742,11.471-13.962H160.5v3.463h-2.712v-6.376l15.027.057Z" fill="#d40000"/></g><rect id="ad84db41-d061-45c2-9af6-8d8aedcae587" data-name="rect17718" x="0.496" y="0.496" width="178.583" height="249.449" rx="8.504" ry="8.504" opacity="0.08" fill="url(#77ae7915-8a59-4ef5-a176-240d7fad17eb)" style="isolation:isolate"/></g></g></g></svg>