<svg xmlns="http://www.w3.org/2000/svg" xmlns:xlink="http://www.w3.org/1999/xlink" viewBox="0 0 179.576 250.442"><defs><pattern id="7b46c249-a6f2-448c-b3b8-6d4b2f6650a3" data-name="pattern17766" width="595.276" height="841.89" patternTransform="matrix(0.8, 0, 0, -0.8, -615.4, 1813.785)" patternUnits="userSpaceOnUse" viewBox="0 0 595.276 841.89"><rect width="595.276" height="841.89" fill="none"/></pattern></defs><title>3C</title><g id="3fbce36c-6f92-4406-a899-65fb7dd9115f" data-name="Layer 2"><g id="c0f811e9-b92c-44c5-9223-d3b177ead44a" data-name="Clubs"><g id="f63ab0cd-24ff-400d-b736-d7581317b2c8" data-name="3C"><g id="ce0909c3-8004-4a1f-9cd3-5fd8cd241934" data-name="g100807"><rect id="eb0106ea-6b0e-4130-a721-2f5baf628f74" data-name="rect4960" x="0.496" y="0.496" width="178.583" height="249.449" rx="8.504" ry="8.504" fill="#fff" stroke="#b3b0b0" stroke-width="0.993"/><path id="ec9f90d9-8020-48b0-969f-e8cdfe2e2ba5" data-name="path147-0-8-1-6-7-2-5-9-2" d="M89.784,26.985c-7.854.171-11.376,9-5.559,15.862.844,1,.931,1.574-.615.613-3.916-2.616-11.426-.9-11.811,7.1-.475,9.853,13.31,12.692,15.9,2.214.137-1.1,1.037-1.08.82.489a32.576,32.576,0,0,1-3.4,12.121h9.337a32.576,32.576,0,0,1-3.4-12.121c-.217-1.569.683-1.594.82-.489,2.588,10.478,16.373,7.639,15.9-2.214-.385-8-7.895-9.717-11.811-7.1-1.546.961-1.458.387-.615-.613,5.817-6.859,2.3-15.691-5.559-15.862h-.007Z"/><path id="86ef9dde-c895-4e9f-ba53-31c06cbd5f3f" data-name="path147-0-8-1-6-1-4-3-4-3" d="M89.784,224.122c-7.854-.17-11.376-9-5.559-15.861.844-1,.931-1.575-.615-.614-3.916,2.616-11.426.9-11.811-7.1-.475-9.853,13.31-12.692,15.9-2.215.137,1.105,1.037,1.08.82-.489a32.582,32.582,0,0,0-3.4-12.121h9.337a32.582,32.582,0,0,0-3.4,12.121c-.217,1.569.683,1.594.82.489,2.588-10.477,16.373-7.638,15.9,2.215-.385,8-7.895,9.716-11.811,7.1-1.545-.961-1.458-.387-.615.614,5.817,6.859,2.3,15.691-5.559,15.861h-.007Z"/><path id="ffc4e15f-3c11-4652-b5f1-69a45e849dfe" data-name="path147-0-8-1-6-1-1-0-4-8-8" d="M89.784,106.354c-7.854.17-11.376,9-5.559,15.861.844,1,.931,1.575-.615.614-3.916-2.616-11.426-.9-11.811,7.1-.475,9.853,13.31,12.692,15.9,2.215.137-1.105,1.037-1.08.82.489a32.582,32.582,0,0,1-3.4,12.121h9.337a32.582,32.582,0,0,1-3.4-12.121c-.217-1.569.683-1.594.82-.489,2.588,10.477,16.373,7.638,15.9-2.215-.385-8-7.895-9.716-11.811-7.1-1.546.961-1.458.387-.615-.614,5.817-6.859,2.3-15.691-5.559-15.861h-.007Z"/><path id="b8eb971f-aafc-4b64-a6da-8db58fd330bf" data-name="path147-6-9-8-7-0-5-5-1-4" d="M165.307,209.967c3.142-.071,4.551-3.751,2.224-6.609-.338-.417-.372-.656.246-.256,1.566,1.09,4.57.374,4.724-2.958.19-4.106-5.324-5.289-6.359-.923-.055.461-.415.45-.328-.2a14.022,14.022,0,0,1,1.359-5.05h-3.735a14,14,0,0,1,1.36,5.05c.086.654-.273.665-.328.2-1.035-4.366-6.549-3.183-6.359.923.154,3.332,3.158,4.048,4.724,2.958.618-.4.584-.161.246.256-2.327,2.858-.918,6.538,2.224,6.609h0Z"/><path id="1e4c8791-00a1-4eef-b99e-af6c6aa1e836" data-name="path147-6-9-8-7-4-5-8-2-3" d="M14.269,40.475c-3.142.071-4.551,3.751-2.224,6.609.338.417.373.656-.246.256-1.566-1.09-4.57-.374-4.724,2.958-.19,4.106,5.324,5.289,6.359.923.055-.46.415-.45.328.2a14,14,0,0,1-1.359,5.05h3.735a14.023,14.023,0,0,1-1.36-5.05c-.086-.654.273-.664.328-.2,1.035,4.366,6.549,3.183,6.359-.923-.154-3.332-3.157-4.048-4.724-2.958-.618.4-.583.161-.246-.256,2.327-2.858.918-6.538-2.224-6.609h0Z"/><path id="4e7a5a96-f80d-4fa1-b2f0-9518bf322b65" data-name="path17-9-7-6-4" d="M5.7,32.18l2.032-1.5c1.764,2.872,3.737,4.764,6.754,4.44,4.528-.312,6.4-5.058,5.457-8.634A5.239,5.239,0,0,0,12.3,23.43a7.512,7.512,0,0,1-1.515.736c-.313,0-1.021-1.407-.924-1.837a93.587,93.587,0,0,1,6.858-8.04H9.129v3.428H6.216v-6.15H21.05v2.087a50.467,50.467,0,0,0-5.288,6.379,7.194,7.194,0,0,1,6.778,5.409,14.355,14.355,0,0,1-.413,7.292,9.152,9.152,0,0,1-7.438,5.21c-5.006.337-7.662-3.17-8.987-5.764Z"/><path id="130ab7be-4a47-477e-ae4e-dc575920171e" data-name="path17-5-0-1-5-7" d="M173.873,218.262l-2.033,1.5c-1.764-2.872-3.736-4.764-6.754-4.439-4.528.311-6.4,5.057-5.457,8.633a5.239,5.239,0,0,0,7.647,3.061,7.46,7.46,0,0,1,1.515-.736c.312,0,1.02,1.408.923,1.837a93.235,93.235,0,0,1-6.858,8.04h7.59v-3.428h2.912v6.15H158.525v-2.086a50.444,50.444,0,0,0,5.287-6.38A7.2,7.2,0,0,1,157.034,225a14.344,14.344,0,0,1,.414-7.292,9.152,9.152,0,0,1,7.437-5.21c5.006-.336,7.662,3.171,8.988,5.764Z"/></g><rect id="52693bd3-b3a5-4d4a-9a54-e18ba83517e6" data-name="rect17714" x="0.496" y="0.496" width="178.583" height="249.449" rx="8.504" ry="8.504" opacity="0.08" fill="url(#7b46c249-a6f2-448c-b3b8-6d4b2f6650a3)" style="isolation:isolate"/></g></g></g></svg>