<svg xmlns="http://www.w3.org/2000/svg" xmlns:xlink="http://www.w3.org/1999/xlink" viewBox="0 0 179.579 250.446"><defs><pattern id="679b83a1-0cea-4663-bc2a-473b322b19ad" data-name="pattern17590" width="595.276" height="841.89" patternTransform="matrix(0.8, 0, 0, -0.8, -615.4, 967.046)" patternUnits="userSpaceOnUse" viewBox="0 0 595.276 841.89"><rect width="595.276" height="841.89" fill="none"/></pattern></defs><title>3D</title><g id="eb081b7b-0b6e-49cd-bf0d-877445381c34" data-name="Layer 2"><g id="d36239d5-df61-42e7-be22-1156dd7849cb" data-name="Diamonds"><g id="1311e976-956b-474f-954b-c5319c5329d4" data-name="3D"><g id="c72bf3e8-cddc-40fa-b51c-89da35b37dd8" data-name="g100837"><rect id="987db05a-2fb6-43e4-a70e-fed917bf69fe" data-name="rect6005" x="0.498" y="0.498" width="178.583" height="249.449" rx="8.504" ry="8.504" fill="#fff" stroke="#b3b0b0" stroke-width="0.997" opacity="0.99" style="isolation:isolate"/><path id="e57a42b4-d60f-4b01-af41-33490328d3df" data-name="path6584-3" d="M89.79,65.054c-4.149-6.851-8.514-13.511-13.969-19.2,5.455-5.688,9.82-12.348,13.969-19.2,4.149,6.852,8.514,13.512,13.968,19.2C98.3,51.543,93.939,58.2,89.79,65.054Z" fill="#d40000"/><path id="714f28fb-ae8b-4970-9d7e-8a4b1a1b429c" data-name="path6586-2" d="M14.272,56.477a45.119,45.119,0,0,0-5.82-8,45.119,45.119,0,0,0,5.82-8,45.169,45.169,0,0,0,5.82,8A45.169,45.169,0,0,0,14.272,56.477Z" fill="#d40000"/><path id="8d171053-06c4-49b3-a330-352d4f3d543e" data-name="path6590-7" d="M165.308,209.969a45.124,45.124,0,0,0-5.821-8,45.124,45.124,0,0,0,5.821-8,45.119,45.119,0,0,0,5.82,8A45.119,45.119,0,0,0,165.308,209.969Z" fill="#d40000"/><path id="882b6ce1-a4fe-416a-ad29-4b832559556e" data-name="path6600-5" d="M89.79,144.423c-4.149-6.852-8.514-13.511-13.969-19.2,5.455-5.689,9.82-12.348,13.969-19.2,4.149,6.852,8.514,13.511,13.968,19.2C98.3,130.912,93.939,137.571,89.79,144.423Z" fill="#d40000"/><path id="dcffb6ea-0946-4c84-8e82-cfec7c8a0b4d" data-name="path6606-3" d="M89.79,223.791c-4.149-6.851-8.514-13.511-13.969-19.2,5.455-5.688,9.82-12.348,13.969-19.2,4.149,6.852,8.514,13.512,13.968,19.2C98.3,210.28,93.939,216.94,89.79,223.791Z" fill="#d40000"/><path id="2e0e8f46-06d0-414d-935c-7642806860f9" data-name="path17-2-9-4-8" d="M5.7,32.182l2.032-1.5c1.764,2.872,3.737,4.764,6.755,4.439,4.527-.311,6.4-5.057,5.456-8.633A5.238,5.238,0,0,0,12.3,23.432a7.46,7.46,0,0,1-1.515.736c-.313,0-1.02-1.408-.924-1.837a93.371,93.371,0,0,1,6.859-8.04H9.13v3.428H6.217v-6.15H21.051v2.086a50.513,50.513,0,0,0-5.288,6.38,7.194,7.194,0,0,1,6.778,5.409,14.344,14.344,0,0,1-.413,7.292,9.153,9.153,0,0,1-7.438,5.21c-5.006.336-7.661-3.171-8.987-5.764Z" fill="#d40000"/><path id="c4943855-2223-4895-96bf-4b2870034012" data-name="path17-5-3-3-8" d="M173.875,218.264l-2.033,1.495c-1.764-2.872-3.737-4.764-6.754-4.439-4.528.311-6.4,5.057-5.457,8.633a5.239,5.239,0,0,0,7.646,3.061,7.512,7.512,0,0,1,1.515-.736c.313,0,1.021,1.408.924,1.837a93.235,93.235,0,0,1-6.858,8.04h7.589v-3.428h2.913v6.15H158.527v-2.086a50.444,50.444,0,0,0,5.287-6.38A7.2,7.2,0,0,1,157.036,225a14.344,14.344,0,0,1,.414-7.292,9.151,9.151,0,0,1,7.437-5.21c5.006-.337,7.662,3.17,8.988,5.764Z" fill="#d40000"/></g><rect id="a5e40b65-270f-4174-8a54-4d484885b5d3" data-name="rect16684" x="0.498" y="0.498" width="178.583" height="249.449" rx="8.504" ry="8.504" opacity="0.08" fill="url(#679b83a1-0cea-4663-bc2a-473b322b19ad)" style="isolation:isolate"/></g></g></g></svg>