<svg xmlns="http://www.w3.org/2000/svg" xmlns:xlink="http://www.w3.org/1999/xlink" viewBox="0 0 179.576 250.442"><defs><pattern id="c1bb440c-7b32-409a-83bc-4b425918ac18" data-name="pattern17792" width="595.276" height="841.89" patternTransform="matrix(0.8, 0, 0, -0.8, -615.4, 1531.539)" patternUnits="userSpaceOnUse" viewBox="0 0 595.276 841.89"><rect width="595.276" height="841.89" fill="none"/></pattern></defs><title>3H</title><g id="123039ff-0301-40cf-bc2f-b2164acca539" data-name="Layer 2"><g id="fe4a61a0-7223-4518-a708-2b839424f40c" data-name="Hearts"><g id="7b2b590f-91c4-45da-a4f5-d1999b50aefd" data-name="3H"><g id="a6927d38-8c16-43b7-9fba-d325dadbc4f2" data-name="g100817"><rect id="c0f21c70-c442-478b-bd8d-ee8473397a54" data-name="rect5631" x="0.496" y="0.496" width="178.583" height="249.449" rx="8.504" ry="8.504" fill="#fff" stroke="#b3b0b0" stroke-width="0.993"/><path id="bfef1aa6-7250-496d-a683-396b2cc5f25f" data-name="path9834-5-2" d="M14.27,56.475s-1.78-2.552-4.18-5.552C8.483,48.915,7.2,46.741,7.08,44.869a3.878,3.878,0,0,1,3.506-4.389c2.345-.1,3.3,1.649,3.684,3.094.388-1.445,1.34-3.2,3.685-3.094a3.878,3.878,0,0,1,3.505,4.389c-.119,1.872-1.4,4.046-3.009,6.054-2.4,3-4.181,5.552-4.181,5.552Z" fill="#d40000"/><path id="abb82616-1f3c-4421-9161-34953c6b842b" data-name="path9836-5-8" d="M165.306,193.967s-1.78,2.552-4.181,5.552c-1.606,2.008-2.89,4.182-3.009,6.054a3.879,3.879,0,0,0,3.5,4.39c2.345.1,3.3-1.65,3.685-3.095.387,1.445,1.339,3.2,3.684,3.095a3.879,3.879,0,0,0,3.506-4.39c-.119-1.872-1.4-4.046-3.01-6.054C167.086,196.519,165.306,193.967,165.306,193.967Z" fill="#d40000"/><path id="b5852c49-3b3e-47b3-b504-61354aedee74" data-name="path9840-3-6" d="M89.788,65.052s-3.733-6.124-8.769-13.325c-3.369-4.818-6.062-10.036-6.313-14.53-.287-5.134,2.432-10.284,7.354-10.534s6.915,3.959,7.728,7.428c.812-3.47,2.809-7.677,7.728-7.428s7.64,5.4,7.353,10.534c-.251,4.494-2.944,9.712-6.313,14.53-5.035,7.2-8.768,13.325-8.768,13.325Z" fill="#d40000"/><path id="fae3c902-cb66-439e-84f1-69546fb04607" data-name="path9850-2-3" d="M89.788,144.421S86.055,138.3,81.019,131.1c-3.369-4.819-6.062-10.036-6.313-14.53-.287-5.134,2.432-10.285,7.354-10.534s6.915,3.958,7.728,7.427c.812-3.469,2.809-7.677,7.728-7.427s7.64,5.4,7.353,10.534c-.251,4.494-2.944,9.711-6.313,14.53C93.521,138.3,89.788,144.421,89.788,144.421Z" fill="#d40000"/><path id="1b2a1f9d-bf06-4325-a04d-9eba0288b033" data-name="path9854-8-0" d="M89.788,185.39s-3.733,6.124-8.769,13.325c-3.369,4.818-6.062,10.036-6.313,14.53-.287,5.134,2.432,10.284,7.354,10.534s6.915-3.958,7.728-7.428c.812,3.469,2.809,7.677,7.728,7.428s7.64-5.4,7.353-10.534c-.251-4.494-2.944-9.712-6.313-14.53C93.521,191.514,89.788,185.39,89.788,185.39Z" fill="#d40000"/><path id="f0bd74e2-08c5-4d05-a451-662b0869fc4a" data-name="path17-2-9-8-4" d="M5.7,32.18l2.032-1.5c1.764,2.872,3.737,4.764,6.755,4.44,4.528-.312,6.4-5.058,5.456-8.634A5.239,5.239,0,0,0,12.3,23.43a7.429,7.429,0,0,1-1.515.737c-.313,0-1.02-1.408-.924-1.838a93.467,93.467,0,0,1,6.859-8.039H9.128v3.427H6.215v-6.15H21.049v2.087a50.556,50.556,0,0,0-5.288,6.379,7.2,7.2,0,0,1,6.778,5.41,14.329,14.329,0,0,1-.413,7.291,9.154,9.154,0,0,1-7.438,5.211c-5.006.336-7.661-3.171-8.987-5.765Z" fill="#d40000"/><path id="95cb5bf1-b1ee-4dd1-935b-f03780f0d5f1" data-name="path17-5-3-9-1-3" d="M173.873,218.262l-2.033,1.5c-1.764-2.872-3.736-4.764-6.754-4.439-4.528.311-6.4,5.057-5.457,8.633a5.239,5.239,0,0,0,7.647,3.061,7.46,7.46,0,0,1,1.515-.736c.312,0,1.02,1.408.923,1.837a93.235,93.235,0,0,1-6.858,8.04h7.59v-3.428h2.912v6.15H158.525v-2.086a50.513,50.513,0,0,0,5.288-6.38A7.2,7.2,0,0,1,157.034,225a14.345,14.345,0,0,1,.414-7.292,9.152,9.152,0,0,1,7.437-5.21c5.006-.336,7.662,3.171,8.988,5.764Z" fill="#d40000"/></g><rect id="86bd8b14-30a0-4216-91fb-4a9dab1a31d5" data-name="rect17740" x="0.496" y="0.496" width="178.583" height="249.449" rx="8.504" ry="8.504" opacity="0.08" fill="url(#c1bb440c-7b32-409a-83bc-4b425918ac18)" style="isolation:isolate"/></g></g></g></svg>