<svg xmlns="http://www.w3.org/2000/svg" xmlns:xlink="http://www.w3.org/1999/xlink" viewBox="0 0 179.576 250.442"><defs><pattern id="d64c54c0-8ec9-4344-a004-b025ae5f1e10" data-name="pattern17746" width="595.276" height="841.89" patternTransform="matrix(0.8, 0, 0, -0.8, -615.4, 1813.785)" patternUnits="userSpaceOnUse" viewBox="0 0 595.276 841.89"><rect width="595.276" height="841.89" fill="none"/></pattern></defs><title>4C</title><g id="7811465f-cb65-499f-8983-dc68cbaf644f" data-name="Layer 2"><g id="37ba7bde-1949-42d5-b972-208411baa60d" data-name="Clubs"><g id="cdb88e3b-94b5-4b80-94e7-a79e1696c1ab" data-name="4C"><g id="5dfe71b6-fa0f-4886-8708-a6d24918d8b5" data-name="g100880"><rect id="35bce8a4-b8dc-4fa8-b94f-ca26749bff6e" data-name="rect4978" x="0.496" y="0.496" width="178.583" height="249.449" rx="8.504" ry="8.504" fill="#fff" stroke="#b3b0b0" stroke-width="0.993"/><path id="4dbbc8db-3a77-4e7d-97f8-156dc897f6eb" data-name="path147-0-8-1-6-13-2-06-7" d="M131.2,26.985c-7.855.17-11.377,9-5.56,15.861.844,1,.931,1.575-.614.614-3.917-2.616-11.427-.9-11.811,7.1-.475,9.853,13.309,12.692,15.9,2.214.136-1.1,1.036-1.08.819.489a32.576,32.576,0,0,1-3.4,12.121h9.338a32.576,32.576,0,0,1-3.4-12.121c-.217-1.569.682-1.594.819-.489,2.588,10.478,16.373,7.639,15.9-2.214-.385-8-7.894-9.717-11.811-7.1-1.545.961-1.458.387-.614-.614,5.817-6.858,2.295-15.691-5.56-15.861H131.2Z"/><path id="675ffc1f-2d4f-4dc3-b091-f1729a6a16ce" data-name="path147-0-8-1-6-75-2-83-35-3" d="M48.372,26.985c-7.855.17-11.377,9-5.56,15.861.844,1,.931,1.575-.614.614-3.917-2.616-11.427-.9-11.811,7.1-.475,9.853,13.309,12.692,15.9,2.214.136-1.1,1.036-1.08.819.489a32.576,32.576,0,0,1-3.4,12.121h9.338a32.559,32.559,0,0,1-3.4-12.121c-.216-1.569.683-1.594.82-.489,2.588,10.478,16.373,7.639,15.9-2.214-.385-8-7.895-9.717-11.811-7.1-1.545.961-1.458.387-.615-.614,5.818-6.858,2.3-15.691-5.559-15.861h-.006Z"/><path id="b6c2713c-5afb-46fc-869d-9f9c84c4f3a4" data-name="path147-0-8-1-6-7-5-5-7-77-6" d="M131.2,224.122c-7.855-.17-11.377-9-5.56-15.861.844-1,.931-1.575-.614-.614-3.917,2.616-11.427.9-11.811-7.1-.475-9.853,13.309-12.692,15.9-2.215.136,1.105,1.036,1.08.819-.489a32.582,32.582,0,0,0-3.4-12.121h9.338a32.582,32.582,0,0,0-3.4,12.121c-.217,1.569.682,1.594.819.489,2.588-10.477,16.373-7.638,15.9,2.215-.385,8-7.894,9.716-11.811,7.1-1.545-.961-1.458-.387-.614.614,5.817,6.859,2.295,15.691-5.56,15.861H131.2Z"/><path id="fddf2f9a-ba4f-418f-a403-3f71d4e6c15d" data-name="path147-0-8-1-6-75-6-1-2-08-0" d="M48.372,224.122c-7.855-.17-11.377-9-5.56-15.861.844-1,.931-1.575-.614-.614-3.917,2.616-11.427.9-11.811-7.1-.475-9.853,13.309-12.692,15.9-2.215.136,1.105,1.036,1.08.819-.489a32.582,32.582,0,0,0-3.4-12.121h9.338a32.564,32.564,0,0,0-3.4,12.121c-.216,1.569.683,1.594.82.489,2.588-10.477,16.373-7.638,15.9,2.215-.385,8-7.895,9.716-11.811,7.1-1.545-.961-1.458-.387-.615.614,5.818,6.859,2.3,15.691-5.559,15.861h-.006Z"/><path id="346344ef-7bf9-4c84-b921-dd7dfc38fda9" data-name="path147-6-9-8-7-0-5-6-17-9" d="M165.307,209.967c3.142-.071,4.551-3.751,2.224-6.609-.337-.417-.372-.656.246-.256,1.567,1.09,4.57.374,4.724-2.958.19-4.106-5.324-5.289-6.359-.923-.055.461-.414.45-.328-.2a14,14,0,0,1,1.36-5.05h-3.735a14.022,14.022,0,0,1,1.359,5.05c.087.654-.273.665-.328.2-1.035-4.366-6.549-3.183-6.359.923.154,3.332,3.158,4.048,4.724,2.958.618-.4.584-.161.246.256-2.327,2.858-.918,6.538,2.224,6.609h0Z"/><path id="d5a08b6e-bb6d-4693-bd96-2608a652eac7" data-name="path147-6-9-8-7-4-5-62-79-3" d="M14.269,40.475c-3.142.071-4.55,3.751-2.224,6.609.338.417.373.656-.245.256-1.567-1.09-4.571-.374-4.725,2.958-.19,4.106,5.324,5.289,6.359.923.055-.46.415-.45.328.2a14,14,0,0,1-1.359,5.05h3.735a14,14,0,0,1-1.359-5.05c-.087-.654.273-.664.327-.2,1.036,4.366,6.55,3.183,6.36-.923-.154-3.332-3.158-4.048-4.725-2.958-.618.4-.583.161-.246-.256,2.327-2.858.918-6.538-2.223-6.609h0Z"/><path id="5a124984-945f-4786-8a44-4ec648fe5d0a" data-name="path19-0-7-3" d="M14.455,37.964V35.632h2.1V31.786H6.033V29.071l11.39-17.5,1.861.009v17.5h3.222v2.714H19.284l-.062,3.846h1.764v2.335H14.454Zm2.1-19.989-7.232,11.1h7.232Z"/><path id="ae04864f-c3b8-4587-908c-f7d9eb1f53d9" data-name="path19-4-4-9-1" d="M165.12,212.479v2.331h-2.105v3.847h10.527v2.714l-11.391,17.5-1.86-.009v-17.5h-3.223v-2.715h3.223l.061-3.846h-1.764v-2.335h6.532Zm-2.105,19.988,7.232-11.1h-7.232Z"/></g><rect id="94027d89-969a-4563-b578-49a67e224c86" data-name="rect17694" x="0.496" y="0.496" width="178.583" height="249.449" rx="8.504" ry="8.504" opacity="0.08" fill="url(#d64c54c0-8ec9-4344-a004-b025ae5f1e10)" style="isolation:isolate"/></g></g></g></svg>