<svg xmlns="http://www.w3.org/2000/svg" xmlns:xlink="http://www.w3.org/1999/xlink" viewBox="0 0 179.579 250.446"><defs><pattern id="757392a5-7c12-483e-85e0-ba66fbdf5759" data-name="pattern17592" width="595.276" height="841.89" patternTransform="matrix(0.8, 0, 0, -0.8, -615.4, 967.046)" patternUnits="userSpaceOnUse" viewBox="0 0 595.276 841.89"><rect width="595.276" height="841.89" fill="none"/></pattern></defs><title>4D</title><g id="6971e123-d4e2-4457-83fb-2c4e64743134" data-name="Layer 2"><g id="3b52b8aa-6e61-40e8-bb91-a7b4ae758d1c" data-name="Diamonds"><g id="c8d4c19c-d636-4106-a6db-53e6acfbea25" data-name="4D"><g id="b3221353-7e9c-4413-862c-b76e34eeab0f" data-name="g100847"><rect id="88158ff9-0d62-4958-a764-b51269a0e0d5" data-name="rect6023" x="0.498" y="0.498" width="178.583" height="249.449" rx="8.504" ry="8.504" fill="#fff" stroke="#b3b0b0" stroke-width="0.997"/><path id="d480b3ec-00e3-4e14-a0c4-9b102a9430ac" data-name="path6654-0" d="M14.272,56.477a45.069,45.069,0,0,0-5.82-8,45.069,45.069,0,0,0,5.82-8,45.124,45.124,0,0,0,5.821,8A45.124,45.124,0,0,0,14.272,56.477Z" fill="#d40000"/><path id="540d4016-9ad9-4f5b-ba2c-b384b67c2375" data-name="path6656-6" d="M131.2,65.054c-4.149-6.851-8.514-13.511-13.969-19.2,5.455-5.688,9.82-12.348,13.969-19.2,4.149,6.852,8.514,13.512,13.969,19.2C139.717,51.543,135.352,58.2,131.2,65.054Z" fill="#d40000"/><path id="0d0ed0c1-6290-4ec8-b61f-6b4b9a8a5ede" data-name="path6658-8" d="M165.308,209.969a45.169,45.169,0,0,0-5.82-8,45.169,45.169,0,0,0,5.82-8,45.119,45.119,0,0,0,5.82,8A45.119,45.119,0,0,0,165.308,209.969Z" fill="#d40000"/><path id="d9c9ea4c-f656-4028-bc90-6262d451cb57" data-name="path6660-7" d="M48.377,65.054c-4.149-6.851-8.514-13.511-13.969-19.2,5.455-5.688,9.82-12.348,13.969-19.2,4.149,6.852,8.514,13.512,13.969,19.2C56.891,51.543,52.526,58.2,48.377,65.054Z" fill="#d40000"/><path id="b06fb116-ce99-41b2-a85e-abbf2bc34e15" data-name="path6676-4" d="M48.377,223.8c-4.149-6.851-8.514-13.511-13.969-19.2,5.455-5.688,9.82-12.348,13.969-19.2,4.149,6.852,8.514,13.512,13.969,19.2C56.891,210.284,52.526,216.944,48.377,223.8Z" fill="#d40000"/><path id="82ccb002-93e8-4711-b671-4f27b607d69d" data-name="path6678-8" d="M131.2,223.8c-4.149-6.852-8.514-13.511-13.969-19.2,5.455-5.689,9.82-12.348,13.969-19.2,4.149,6.852,8.514,13.511,13.969,19.2C139.717,210.29,135.352,216.949,131.2,223.8Z" fill="#d40000"/><path id="3233ca04-4828-4ed5-b944-3e6b42f5210a" data-name="path19-3-1-9-0" d="M14.456,37.965V35.634h2.105V31.787H6.035V29.073l11.39-17.5,1.86.009v17.5h3.223v2.714H19.285l-.06,3.847h1.764v2.335H14.456Zm2.105-19.988-7.232,11.1h7.232Z" fill="#d40000"/><path id="87784484-e205-446b-bbdf-21f06d1494b6" data-name="path19-4-46-7-7" d="M165.122,212.48v2.332h-2.105v3.847h10.526v2.714l-11.39,17.5-1.86-.009v-17.5H157.07v-2.714h3.223l.06-3.846h-1.764v-2.335h6.533Zm-2.105,19.989,7.232-11.1h-7.232Z" fill="#d40000"/></g><rect id="0a14f07c-221c-4018-9103-bc2a56fd5dcf" data-name="rect16690" x="0.498" y="0.498" width="178.583" height="249.449" rx="8.504" ry="8.504" opacity="0.08" fill="url(#757392a5-7c12-483e-85e0-ba66fbdf5759)" style="isolation:isolate"/></g></g></g></svg>