<svg xmlns="http://www.w3.org/2000/svg" xmlns:xlink="http://www.w3.org/1999/xlink" viewBox="0 0 179.576 250.442"><defs><pattern id="5e6a7579-502a-495c-8897-04e1eefee146" data-name="pattern17772" width="595.276" height="841.89" patternTransform="matrix(0.8, 0, 0, -0.8, -615.4, 1531.539)" patternUnits="userSpaceOnUse" viewBox="0 0 595.276 841.89"><rect width="595.276" height="841.89" fill="none"/></pattern></defs><title>4H</title><g id="13819b7e-bd1e-4b1b-9941-e2a62700c433" data-name="Layer 2"><g id="b052855b-f317-4dbe-9aca-8192907b18fc" data-name="Hearts"><g id="8d788ceb-712a-43d8-9c29-eaea9ec404e1" data-name="4H"><g id="e805f497-2de0-4821-8aaa-04d5c6946625" data-name="g100869"><rect id="e9b53a93-be2b-4f8e-9289-fc55c4217ab7" data-name="rect5655" x="0.496" y="0.496" width="178.583" height="249.449" rx="8.504" ry="8.504" fill="#fff" stroke="#b3b0b0" stroke-width="0.993"/><path id="46fca683-bf19-47f2-b09e-76262ed43df0" data-name="path9902-6-7" d="M14.271,56.475s-1.78-2.552-4.181-5.552c-1.606-2.008-2.89-4.182-3.01-6.054a3.878,3.878,0,0,1,3.506-4.389c2.345-.1,3.3,1.649,3.685,3.094.387-1.445,1.339-3.2,3.684-3.094a3.878,3.878,0,0,1,3.506,4.389c-.12,1.872-1.4,4.046-3.01,6.054-2.4,3-4.179,5.55-4.181,5.552Z" fill="#d40000"/><path id="2b8883aa-0fe1-4fb5-b4b7-650f33d8941e" data-name="path9904-6-0" d="M165.306,193.967s-1.78,2.552-4.18,5.552c-1.607,2.008-2.891,4.182-3.01,6.054a3.879,3.879,0,0,0,3.506,4.39c2.345.1,3.3-1.65,3.684-3.095.388,1.445,1.34,3.2,3.685,3.095a3.879,3.879,0,0,0,3.5-4.39c-.119-1.872-1.4-4.046-3.009-6.054C167.086,196.519,165.308,193.969,165.306,193.967Z" fill="#d40000"/><path id="cd10b489-01ea-40f2-a2c4-ff072e612160" data-name="path9910-2-6" d="M48.375,65.052s-3.733-6.124-8.769-13.325c-3.369-4.818-6.062-10.036-6.312-14.53-.288-5.134,2.431-10.284,7.353-10.534s6.915,3.959,7.728,7.428c.813-3.47,2.809-7.677,7.728-7.428s7.64,5.4,7.353,10.534c-.25,4.494-2.944,9.712-6.312,14.53-5.036,7.2-8.766,13.32-8.769,13.325Z" fill="#d40000"/><path id="ea2a2c19-6c41-40d5-9419-c6b0a96bc383" data-name="path9916-8-0" d="M131.2,65.052s-3.733-6.124-8.769-13.325c-3.368-4.818-6.062-10.036-6.312-14.53-.287-5.134,2.431-10.284,7.353-10.534s6.915,3.959,7.728,7.428c.813-3.47,2.809-7.677,7.728-7.428s7.641,5.4,7.353,10.534c-.25,4.494-2.943,9.712-6.312,14.53-5.036,7.2-8.766,13.32-8.769,13.325Z" fill="#d40000"/><path id="40676811-0a93-4d1b-b1dc-2efefd3d052b" data-name="path9930-7-9" d="M131.2,185.39s-3.733,6.124-8.769,13.325c-3.368,4.818-6.062,10.036-6.312,14.53-.287,5.134,2.431,10.284,7.353,10.534s6.915-3.958,7.728-7.428c.813,3.469,2.809,7.677,7.728,7.428s7.641-5.4,7.353-10.534c-.25-4.494-2.943-9.712-6.312-14.53C134.934,191.514,131.2,185.4,131.2,185.39Z" fill="#d40000"/><path id="2cb672f6-437e-401b-8897-33d0d3590160" data-name="path9932-9-8" d="M48.375,185.39s-3.733,6.124-8.769,13.325c-3.369,4.818-6.062,10.036-6.312,14.53-.288,5.134,2.431,10.284,7.353,10.534s6.915-3.958,7.728-7.428c.813,3.469,2.809,7.677,7.728,7.428s7.64-5.4,7.353-10.534c-.25-4.494-2.944-9.712-6.312-14.53C52.108,191.514,48.378,185.4,48.375,185.39Z" fill="#d40000"/><path id="71e84283-822e-43b1-a0ee-0aa8a11726aa" data-name="path19-3-8-2-9" d="M14.455,37.964V35.632h2.1V31.785H6.033V29.071l11.39-17.5,1.861.009v17.5h3.222v2.714H19.284l-.062,3.846h1.764v2.335H14.454Zm2.1-19.989-7.232,11.1h7.232Z" fill="#d40000"/><path id="e5df1007-1865-4f50-8f1b-6104aca760b2" data-name="path19-4-46-0-1-9" d="M165.12,212.479v2.331h-2.105v3.847h10.527v2.714l-11.391,17.5-1.86-.009v-17.5h-3.223v-2.714h3.223l.061-3.846h-1.764v-2.335h6.532Zm-2.105,19.988,7.232-11.1h-7.232Z" fill="#d40000"/></g><rect id="98ece9a0-f6ab-45bb-afc3-67d0c13c360a" data-name="rect17720" x="0.496" y="0.496" width="178.583" height="249.449" rx="8.504" ry="8.504" opacity="0.08" fill="url(#5e6a7579-502a-495c-8897-04e1eefee146)" style="isolation:isolate"/></g></g></g></svg>