<svg xmlns="http://www.w3.org/2000/svg" xmlns:xlink="http://www.w3.org/1999/xlink" viewBox="0 0 179.576 250.442"><defs><pattern id="f852d33b-c62d-46bf-9b88-6b4b2bb39c34" data-name="pattern17642" width="595.276" height="841.89" patternTransform="matrix(0.8, 0, 0, -0.8, -615.4, 1249.292)" patternUnits="userSpaceOnUse" viewBox="0 0 595.276 841.89"><rect width="595.276" height="841.89" fill="none"/></pattern></defs><title>4S</title><g id="a750e888-7847-47a2-9aee-008c58994d00" data-name="Layer 2"><g id="b42de491-8810-4986-918d-90bf678de8ff" data-name="Spades"><g id="35b82e90-f6b9-4e8b-8a96-ed7d6e8f9ec6" data-name="4S"><g id="9133d974-7c72-42b6-860a-33195d7e8cc4" data-name="g100858"><rect id="14408e6f-03c9-4e66-9160-06436745e255" data-name="rect5318" x="0.496" y="0.496" width="178.583" height="249.449" rx="8.504" ry="8.504" fill="#fff" stroke="#b3b0b0" stroke-width="0.993"/><path id="ad59761c-11f9-44be-9df0-bac19fc3aaba" data-name="path6882-1-0" d="M48.375,26.652C40.994,37.178,33.1,43.235,32.966,51.447c-.045,2.659,1.393,7.179,5.9,8.044,2.921.559,6.944-1.806,7.028-6.61-.013-.956,1.012-.932,1,.379a27.273,27.273,0,0,1-3.353,11.793h9.668A27.273,27.273,0,0,1,49.856,53.26c-.009-1.311,1.016-1.335,1-.379.084,4.8,4.107,7.169,7.028,6.61,4.5-.865,5.941-5.385,5.9-8.044C63.653,43.235,55.756,37.178,48.375,26.652Z"/><path id="d4f44aa4-3c45-401d-af71-87194aea2633" data-name="path6884-6-5" d="M14.271,40.475c-3.449,4.386-7.139,6.91-7.2,10.331a3.322,3.322,0,0,0,2.755,3.352A2.86,2.86,0,0,0,13.11,51.4c-.008-.4.473-.388.469.158a10.452,10.452,0,0,1-1.567,4.913h4.517a10.44,10.44,0,0,1-1.566-4.913c-.008-.546.474-.557.468-.158a2.861,2.861,0,0,0,3.284,2.754,3.322,3.322,0,0,0,2.755-3.352C21.408,47.385,17.719,44.861,14.271,40.475Z"/><path id="84c390c0-a018-40e2-8573-f97bed89d79d" data-name="path6888-1-5" d="M165.306,209.967c-3.448-4.386-7.138-6.91-7.2-10.331a3.322,3.322,0,0,1,2.755-3.352,2.86,2.86,0,0,1,3.283,2.754c-.008.4.473.389.469-.158a10.445,10.445,0,0,0-1.567-4.913h4.518A10.445,10.445,0,0,0,166,198.88c-.008.547.475.557.469.158a2.86,2.86,0,0,1,3.284-2.754,3.323,3.323,0,0,1,2.755,3.352C172.444,203.057,168.755,205.581,165.306,209.967Z"/><path id="98844e2f-dbf3-4fbe-9a72-2cbaed61f446" data-name="path6890-4-9" d="M131.2,26.652c-7.381,10.526-15.278,16.583-15.409,24.8-.044,2.659,1.394,7.179,5.9,8.044,2.921.559,6.944-1.806,7.028-6.61-.013-.956,1.013-.932,1,.379a27.273,27.273,0,0,1-3.353,11.793h9.669a27.259,27.259,0,0,1-3.353-11.793c-.01-1.311,1.015-1.335,1-.379.084,4.8,4.106,7.169,7.028,6.61,4.5-.865,5.941-5.385,5.9-8.044C146.479,43.235,138.582,37.178,131.2,26.652Z"/><path id="10559661-61da-4ed0-a1f5-094e3625e015" data-name="path6902-7-5" d="M48.375,223.79C40.994,213.264,33.1,207.207,32.966,199c-.045-2.659,1.393-7.179,5.9-8.044,2.921-.559,6.944,1.806,7.028,6.61-.013.956,1.012.932,1-.379a27.265,27.265,0,0,0-3.353-11.792h9.668a27.265,27.265,0,0,0-3.353,11.792c-.009,1.311,1.016,1.335,1,.379.084-4.8,4.107-7.169,7.028-6.61,4.5.865,5.941,5.385,5.9,8.044C63.653,207.207,55.756,213.264,48.375,223.79Z"/><path id="a9c71e6b-beb0-4769-8254-8ba56f890531" data-name="path6904-9-7" d="M131.2,223.79c-7.381-10.526-15.278-16.583-15.409-24.795-.044-2.659,1.394-7.179,5.9-8.044,2.921-.559,6.944,1.806,7.028,6.61-.013.956,1.013.932,1-.379a27.265,27.265,0,0,0-3.353-11.792h9.669a27.251,27.251,0,0,0-3.353,11.792c-.01,1.311,1.015,1.335,1,.379.084-4.8,4.106-7.169,7.028-6.61,4.5.865,5.941,5.385,5.9,8.044C146.479,207.207,138.582,213.264,131.2,223.79Z"/><path id="b27e237b-b027-4e7d-b81b-30c18b7a8a5a" data-name="path19-08-0-9" d="M14.455,37.964V35.632h2.1V31.785H6.033V29.071l11.39-17.5,1.861.009v17.5h3.222v2.714H19.284l-.062,3.846h1.764v2.335H14.454Zm2.1-19.989-7.232,11.1h7.232Z"/><path id="a4d4e485-e287-43ff-a80d-65a0afce9a75" data-name="path19-08-1-1-4" d="M165.121,212.479v2.331h-2.105v3.847h10.527v2.714l-11.391,17.5-1.86-.009v-17.5h-3.223v-2.714h3.223l.061-3.847h-1.764v-2.335h6.532Zm-2.105,19.988,7.232-11.1h-7.232Z"/></g><rect id="30990ddb-a216-48bb-8a6d-a3c5b48e26a3" data-name="rect17616" x="0.496" y="0.496" width="178.583" height="249.449" rx="8.504" ry="8.504" opacity="0.08" fill="url(#f852d33b-c62d-46bf-9b88-6b4b2bb39c34)" style="isolation:isolate"/></g></g></g></svg>