<svg xmlns="http://www.w3.org/2000/svg" xmlns:xlink="http://www.w3.org/1999/xlink" viewBox="0 0 179.576 250.442"><defs><pattern id="a5b5b2b3-e0d3-49ab-b5e2-dc8d4161d903" data-name="pattern17748" width="595.276" height="841.89" patternTransform="matrix(0.8, 0, 0, -0.8, -615.399, 1813.785)" patternUnits="userSpaceOnUse" viewBox="0 0 595.276 841.89"><rect width="595.276" height="841.89" fill="none"/></pattern></defs><title>5C</title><g id="12c2cf25-53d1-4f24-b523-4b27e9048f2b" data-name="Layer 2"><g id="d78b8a2c-40e6-453c-935a-76d7f5ee096f" data-name="Clubs"><g id="4757bb9e-35ea-4574-9e4a-be853f8e8484" data-name="5C"><g id="f5511d01-57d6-4570-b7ed-b23e897fdbba" data-name="g100891"><rect id="5a619177-71ae-403c-8f65-593c11cd7ef6" data-name="rect5000" x="0.496" y="0.496" width="178.583" height="249.449" rx="8.504" ry="8.504" fill="#fff" stroke="#b3b0b0" stroke-width="0.993"/><path id="94bb19df-bd5b-4e5a-a9f0-2a8576def2b9" data-name="path147-0-8-1-6-13-2-8-2-5" d="M131.2,26.985c-7.854.171-11.376,9-5.559,15.862.844,1,.931,1.574-.615.613-3.916-2.615-11.426-.9-11.81,7.1-.475,9.853,13.309,12.692,15.9,2.215.137-1.106,1.037-1.081.82.488a32.576,32.576,0,0,1-3.4,12.121h9.337a32.576,32.576,0,0,1-3.4-12.121c-.216-1.569.683-1.594.82-.488,2.588,10.477,16.373,7.638,15.9-2.215-.385-8-7.895-9.716-11.811-7.1-1.546.961-1.458.387-.615-.613,5.817-6.859,2.295-15.691-5.559-15.862H131.2Z"/><path id="103aef86-beb8-4979-97ca-72cff21f5ba5" data-name="path147-0-8-1-6-75-2-83-7-6-4" d="M48.371,26.985c-7.854.171-11.377,9-5.559,15.862.843,1,.93,1.574-.615.613-3.916-2.615-11.426-.9-11.811,7.1-.475,9.853,13.31,12.692,15.9,2.215.137-1.106,1.036-1.081.82.488a32.559,32.559,0,0,1-3.4,12.121h9.338a32.576,32.576,0,0,1-3.4-12.121c-.217-1.569.683-1.594.819-.488,2.589,10.477,16.373,7.638,15.9-2.215-.384-8-7.894-9.716-11.811-7.1-1.545.961-1.458.387-.614-.613,5.817-6.859,2.3-15.691-5.559-15.862h-.007Z"/><path id="6b80604c-c9ef-4558-8097-d7824d682206" data-name="path147-0-8-1-6-7-5-5-7-6-8-5" d="M131.2,224.122c-7.854-.17-11.376-9-5.559-15.861.844-1,.931-1.575-.615-.614-3.916,2.616-11.426.9-11.81-7.1-.475-9.853,13.309-12.692,15.9-2.215.137,1.105,1.037,1.08.82-.489a32.582,32.582,0,0,0-3.4-12.121h9.337a32.582,32.582,0,0,0-3.4,12.121c-.216,1.569.683,1.594.82.489,2.588-10.477,16.373-7.638,15.9,2.215-.385,8-7.895,9.716-11.811,7.1-1.546-.961-1.458-.387-.615.614,5.817,6.859,2.295,15.691-5.559,15.861H131.2Z"/><path id="9e0c2221-985a-4286-a0a3-18174f02790d" data-name="path147-0-8-1-6-75-6-1-2-4-9-5" d="M48.371,224.122c-7.854-.17-11.377-9-5.559-15.861.843-1,.93-1.575-.615-.614-3.916,2.616-11.426.9-11.811-7.1-.475-9.853,13.31-12.692,15.9-2.215.137,1.105,1.036,1.08.82-.489a32.564,32.564,0,0,0-3.4-12.121h9.338a32.582,32.582,0,0,0-3.4,12.121c-.217,1.569.683,1.594.819.489,2.589-10.477,16.373-7.638,15.9,2.215-.384,8-7.894,9.716-11.811,7.1-1.545-.961-1.458-.387-.614.614,5.817,6.859,2.3,15.691-5.559,15.861h-.007Z"/><path id="a7e1f2e4-01c7-47e3-82d1-e98f66e9d566" data-name="path147-0-8-1-6-1-1-0-5-6-4-0" d="M89.784,106.354c-7.854.17-11.376,9-5.559,15.861.843,1,.93,1.575-.615.614-3.916-2.616-11.426-.9-11.811,7.1-.475,9.853,13.31,12.692,15.9,2.215.137-1.105,1.036-1.08.82.489a32.564,32.564,0,0,1-3.4,12.121h9.338a32.582,32.582,0,0,1-3.4-12.121c-.217-1.569.683-1.594.82-.489,2.588,10.477,16.373,7.638,15.9-2.215-.384-8-7.894-9.716-11.81-7.1-1.546.961-1.459.387-.615-.614,5.817-6.859,2.3-15.691-5.559-15.861h-.007Z"/><path id="62a76a98-fa79-42a3-9c21-d912e7be36eb" data-name="path147-6-9-8-7-0-5-6-7-4-6" d="M165.307,209.967c3.142-.071,4.551-3.751,2.224-6.609-.338-.417-.372-.656.246-.256,1.566,1.09,4.57.374,4.724-2.958.19-4.106-5.324-5.289-6.359-.923-.055.461-.415.45-.328-.2a14.022,14.022,0,0,1,1.359-5.05h-3.735a14,14,0,0,1,1.36,5.05c.086.654-.274.665-.328.2-1.035-4.366-6.549-3.183-6.359.923.154,3.332,3.157,4.048,4.724,2.958.618-.4.583-.161.246.256-2.327,2.858-.918,6.538,2.224,6.609h0Z"/><path id="e3a503b7-e1fa-44ac-9a0d-3b4880d0eb30" data-name="path147-6-9-8-7-4-5-62-2-3-8" d="M14.269,40.475c-3.142.071-4.551,3.751-2.224,6.609.338.417.372.656-.246.256-1.566-1.09-4.57-.374-4.724,2.959-.19,4.105,5.324,5.288,6.359.922.055-.46.415-.45.328.2a14.016,14.016,0,0,1-1.359,5.05h3.735a14,14,0,0,1-1.36-5.05c-.086-.654.273-.664.328-.2,1.035,4.366,6.549,3.183,6.359-.922-.154-3.333-3.158-4.049-4.724-2.959-.618.4-.583.161-.246-.256,2.327-2.858.918-6.538-2.224-6.609h0Z"/><path id="c21e91a3-10d4-4c8d-afd5-1df9a5096be0" data-name="path21-39-8-1" d="M5.948,31.133l2.588-.025c.493,1.593,1.586,3.213,3.069,3.662a6.188,6.188,0,0,0,7.774-4.133c1.077-3.335-.024-8.019-2.909-9.682-2.39-1.379-5.942-.216-7.573,2.733L7.085,22.559l.973-10.992H19.9v2.6H10.3l-.152,4.579a7.579,7.579,0,0,1,7.3-.425c3.91,1.9,5.726,6.218,4.967,11.307-1.053,5.062-3.376,7.931-8.614,8.34-5.827.054-7.884-4.027-7.859-6.833Z"/><path id="38322100-2b6f-42e9-8904-c9e0503eb2d2" data-name="path21-3-4-1-8" d="M173.626,219.31l-2.588.025c-.494-1.594-1.586-3.213-3.069-3.663a6.188,6.188,0,0,0-7.774,4.133c-1.077,3.336.024,8.02,2.909,9.683,2.39,1.378,5.942.216,7.573-2.734l1.812,1.13-.973,10.992h-11.84v-2.6h9.595l.152-4.579a7.579,7.579,0,0,1-7.3.425c-3.909-1.9-5.726-6.217-4.967-11.307,1.054-5.062,3.376-7.93,8.615-8.34,5.826-.054,7.883,4.027,7.859,6.834Z"/></g><rect id="f43974d7-e6c2-4199-a488-d87d26c96448" data-name="rect17696" x="0.496" y="0.496" width="178.583" height="249.449" rx="8.504" ry="8.504" opacity="0.08" fill="url(#a5b5b2b3-e0d3-49ab-b5e2-dc8d4161d903)" style="isolation:isolate"/></g></g></g></svg>