<svg xmlns="http://www.w3.org/2000/svg" xmlns:xlink="http://www.w3.org/1999/xlink" viewBox="0 0 179.579 250.446"><defs><pattern id="3da79af8-6d96-4d6b-95ff-e89901bcb453" data-name="pattern17594" width="595.276" height="841.89" patternTransform="matrix(0.8, 0, 0, -0.8, -615.4, 967.046)" patternUnits="userSpaceOnUse" viewBox="0 0 595.276 841.89"><rect width="595.276" height="841.89" fill="none"/></pattern></defs><title>5D</title><g id="df14e7a7-58f4-4da4-b158-39d82a4888a2" data-name="Layer 2"><g id="8f309f29-8134-4e67-b36e-41ea1e78493c" data-name="Diamonds"><g id="da4c1342-21f6-4708-93b6-713004254f9b" data-name="5D"><g id="322a9850-08fb-4952-be4e-ba88b0ff71be" data-name="g100927"><rect id="a0a36c0d-4206-4e32-839a-e6d90e3f4119" data-name="rect6043" x="0.498" y="0.498" width="178.583" height="249.449" rx="8.504" ry="8.504" fill="#fff" stroke="#b3b0b0" stroke-width="0.997"/><path id="dcc3238c-6e96-458d-af8a-8b0ed0133e65" data-name="path6722-9" d="M14.272,56.477a45.169,45.169,0,0,0-5.82-8,45.169,45.169,0,0,0,5.82-8,45.119,45.119,0,0,0,5.82,8A45.119,45.119,0,0,0,14.272,56.477Z" fill="#d40000"/><path id="dca7bd3e-7292-4da6-81b9-350487f7e49f" data-name="path6724-6" d="M131.2,65.054c-4.149-6.851-8.514-13.511-13.969-19.2,5.455-5.688,9.82-12.348,13.969-19.2,4.149,6.852,8.514,13.512,13.968,19.2C139.717,51.543,135.352,58.2,131.2,65.054Z" fill="#d40000"/><path id="c197536b-fff9-407b-a4ab-871f16952b53" data-name="path6726-3" d="M165.308,209.969a45.124,45.124,0,0,0-5.821-8,45.124,45.124,0,0,0,5.821-8,45.069,45.069,0,0,0,5.82,8A45.069,45.069,0,0,0,165.308,209.969Z" fill="#d40000"/><path id="65a445a7-2610-4dd2-97ef-78bcc39f361b" data-name="path6728-7" d="M48.376,65.054c-4.149-6.851-8.514-13.511-13.968-19.2,5.454-5.688,9.819-12.348,13.968-19.2,4.149,6.852,8.514,13.512,13.969,19.2C56.89,51.543,52.525,58.2,48.376,65.054Z" fill="#d40000"/><path id="b0c2743e-d736-431d-88f7-1116e443627b" data-name="path6736-0" d="M89.79,144.423c-4.149-6.852-8.514-13.511-13.969-19.2,5.455-5.689,9.82-12.348,13.969-19.2,4.149,6.852,8.514,13.511,13.968,19.2C98.3,130.912,93.939,137.571,89.79,144.423Z" fill="#d40000"/><path id="9c62c9fc-28d7-425b-b939-d41b66352592" data-name="path6744-9" d="M48.376,223.8c-4.149-6.851-8.514-13.511-13.968-19.2,5.454-5.688,9.819-12.348,13.968-19.2,4.149,6.852,8.514,13.512,13.969,19.2C56.89,210.284,52.525,216.944,48.376,223.8Z" fill="#d40000"/><path id="18ab1c67-baa2-404a-bfe8-43d1919997a0" data-name="path6746-2" d="M131.2,223.8c-4.149-6.852-8.514-13.511-13.969-19.2,5.455-5.689,9.82-12.348,13.969-19.2,4.149,6.852,8.514,13.511,13.968,19.2C139.717,210.29,135.352,216.949,131.2,223.8Z" fill="#d40000"/><path id="5148a6dd-fa17-42f5-a185-dfae08c2e1ce" data-name="path21-9-8-2-7" d="M5.95,31.134l2.588-.025c.493,1.594,1.586,3.213,3.069,3.663a6.187,6.187,0,0,0,7.773-4.133c1.077-3.336-.024-8.02-2.908-9.682-2.391-1.379-5.942-.216-7.573,2.733L7.086,22.561l.973-10.992H19.9v2.6H10.305l-.153,4.579a7.582,7.582,0,0,1,7.3-.425c3.91,1.9,5.726,6.217,4.967,11.307-1.053,5.062-3.376,7.931-8.614,8.34-5.827.054-7.884-4.027-7.859-6.834Z" fill="#d40000"/><path id="110b19c8-edb2-4903-9385-2065c17f122e" data-name="path21-3-0-8-6" d="M173.628,219.312l-2.588.025c-.494-1.594-1.586-3.213-3.069-3.663a6.188,6.188,0,0,0-7.774,4.133c-1.077,3.336.024,8.02,2.909,9.682,2.39,1.379,5.942.216,7.573-2.733l1.812,1.129-.973,10.992H159.679v-2.6h9.594l.152-4.579a7.581,7.581,0,0,1-7.3.425c-3.909-1.9-5.726-6.218-4.967-11.307,1.054-5.062,3.376-7.931,8.614-8.34,5.827-.054,7.884,4.027,7.86,6.833h0Z" fill="#d40000"/></g><rect id="a0ebdcdc-798f-4dd9-be1e-725289ca2e3c" data-name="rect16694" x="0.498" y="0.498" width="178.583" height="249.449" rx="8.504" ry="8.504" opacity="0.08" fill="url(#3da79af8-6d96-4d6b-95ff-e89901bcb453)" style="isolation:isolate"/></g></g></g></svg>