<svg xmlns="http://www.w3.org/2000/svg" xmlns:xlink="http://www.w3.org/1999/xlink" viewBox="0 0 179.576 250.442"><defs><pattern id="fdc84b53-6bc6-4f0f-bd63-daa314ee7bac" data-name="pattern17774" width="595.276" height="841.89" patternTransform="matrix(0.8, 0, 0, -0.8, -615.4, 1531.539)" patternUnits="userSpaceOnUse" viewBox="0 0 595.276 841.89"><rect width="595.276" height="841.89" fill="none"/></pattern></defs><title>5H</title><g id="a4e2b98f-08f4-4718-8f11-1fd8d8c54c46" data-name="Layer 2"><g id="2be13bad-bccb-4d19-a0fd-4144500d89ff" data-name="Hearts"><g id="924ad43c-d690-4989-9b92-dd4ce86f5a77" data-name="5H"><g id="278625ae-9dba-4040-884d-2320ae28e5d7" data-name="g100903"><rect id="d26dc424-0356-4001-af53-ac4e5b043324" data-name="rect5681" x="0.496" y="0.496" width="178.583" height="249.449" rx="8.504" ry="8.504" fill="#fff" stroke="#b3b0b0" stroke-width="0.993"/><path id="00510139-5ce9-4d63-bd4a-bd011c5883cb" data-name="path9970-5-6" d="M14.271,56.475s-1.78-2.552-4.181-5.552c-1.606-2.008-2.89-4.182-3.01-6.054a3.878,3.878,0,0,1,3.506-4.389c2.345-.1,3.3,1.649,3.685,3.094.387-1.445,1.339-3.2,3.684-3.094a3.878,3.878,0,0,1,3.506,4.389c-.12,1.872-1.4,4.046-3.01,6.054-2.4,3-4.181,5.552-4.181,5.552Z" fill="#d40000"/><path id="94ffa4c1-ea81-4779-8d60-5b1a12284870" data-name="path9972-9-9" d="M165.306,193.967s-1.78,2.552-4.18,5.552c-1.607,2.008-2.891,4.182-3.01,6.054a3.879,3.879,0,0,0,3.506,4.39c2.345.1,3.3-1.65,3.684-3.095.388,1.445,1.34,3.2,3.685,3.095a3.879,3.879,0,0,0,3.5-4.39c-.119-1.872-1.4-4.046-3.009-6.054C167.086,196.519,165.306,193.967,165.306,193.967Z" fill="#d40000"/><path id="1cd47e1e-90ba-4853-a071-93c43b06b9ee" data-name="path9978-0-4" d="M48.375,65.052s-3.733-6.124-8.769-13.325c-3.369-4.818-6.062-10.036-6.312-14.53-.288-5.134,2.431-10.284,7.353-10.534s6.915,3.959,7.728,7.428c.813-3.47,2.809-7.677,7.728-7.428s7.64,5.4,7.353,10.534c-.25,4.494-2.944,9.712-6.312,14.53-5.036,7.2-8.769,13.325-8.769,13.325Z" fill="#d40000"/><path id="f2a327d2-1b23-4a54-ada2-0705b9e80815" data-name="path9984-9-5" d="M131.2,65.052s-3.733-6.124-8.769-13.325c-3.368-4.818-6.062-10.036-6.312-14.53-.287-5.134,2.431-10.284,7.353-10.534s6.915,3.959,7.728,7.428c.813-3.47,2.809-7.677,7.728-7.428s7.641,5.4,7.353,10.534c-.25,4.494-2.943,9.712-6.312,14.53-5.036,7.2-8.769,13.325-8.769,13.325Z" fill="#d40000"/><path id="f0d3fb3d-aeb0-4577-a05c-d4ac840d0460" data-name="path9986-7-3" d="M89.788,144.421S86.055,138.3,81.019,131.1c-3.369-4.819-6.062-10.036-6.312-14.53-.287-5.134,2.431-10.285,7.353-10.534s6.915,3.958,7.728,7.427c.813-3.469,2.809-7.677,7.728-7.427s7.64,5.4,7.353,10.534c-.25,4.494-2.943,9.711-6.312,14.53C93.521,138.3,89.788,144.421,89.788,144.421Z" fill="#d40000"/><path id="673abbd9-5a93-415b-a529-ea98bbc36172" data-name="path9998-0-9" d="M131.2,185.39s-3.733,6.124-8.769,13.325c-3.368,4.818-6.062,10.036-6.312,14.53-.287,5.134,2.431,10.284,7.353,10.534s6.915-3.958,7.728-7.428c.813,3.469,2.809,7.677,7.728,7.428s7.641-5.4,7.353-10.534c-.25-4.494-2.943-9.712-6.312-14.53C134.934,191.514,131.2,185.39,131.2,185.39Z" fill="#d40000"/><path id="e5abc525-a71c-4620-b1e9-6d49edb37df0" data-name="path10000-8-2" d="M48.375,185.39s-3.733,6.124-8.769,13.325c-3.369,4.818-6.062,10.036-6.312,14.53-.288,5.134,2.431,10.284,7.353,10.534s6.915-3.958,7.728-7.428c.813,3.469,2.809,7.677,7.728,7.428s7.64-5.4,7.353-10.534c-.25-4.494-2.944-9.712-6.312-14.53C52.108,191.514,48.375,185.39,48.375,185.39Z" fill="#d40000"/><path id="ece3f915-34fa-46cf-ab8e-5e50048782d4" data-name="path21-9-5-1-8" d="M5.948,31.132l2.588-.025c.494,1.594,1.586,3.213,3.069,3.663a6.189,6.189,0,0,0,7.774-4.133c1.077-3.336-.024-8.02-2.909-9.683-2.39-1.378-5.942-.215-7.573,2.734l-1.812-1.13.973-10.991H19.9v2.6H10.3l-.152,4.579a7.579,7.579,0,0,1,7.3-.425c3.909,1.9,5.725,6.217,4.966,11.307-1.053,5.062-3.375,7.93-8.614,8.34-5.826.054-7.883-4.027-7.859-6.834Z" fill="#d40000"/><path id="192d538c-3d26-487e-b929-7848a89287d5" data-name="path21-3-0-6-3-8" d="M173.626,219.31l-2.588.025c-.493-1.594-1.586-3.213-3.069-3.663a6.189,6.189,0,0,0-7.774,4.133c-1.077,3.336.024,8.02,2.909,9.682,2.39,1.379,5.942.216,7.573-2.733l1.812,1.13-.973,10.991H159.677v-2.6h9.594l.152-4.579a7.579,7.579,0,0,1-7.3.425c-3.91-1.9-5.726-6.217-4.967-11.307,1.053-5.062,3.375-7.93,8.614-8.34,5.826-.054,7.884,4.027,7.859,6.834Z" fill="#d40000"/></g><rect id="aa5f9fba-589c-4046-b663-9ae8e3a3b6ed" data-name="rect17722" x="0.496" y="0.496" width="178.583" height="249.449" rx="8.504" ry="8.504" opacity="0.08" fill="url(#fdc84b53-6bc6-4f0f-bd63-daa314ee7bac)" style="isolation:isolate"/></g></g></g></svg>