<svg xmlns="http://www.w3.org/2000/svg" xmlns:xlink="http://www.w3.org/1999/xlink" viewBox="0 0 179.576 250.442"><defs><pattern id="5c508701-1746-42e6-a8cd-5acc296cc977" data-name="pattern17644" width="595.276" height="841.89" patternTransform="matrix(0.8, 0, 0, -0.8, -615.4, 1249.292)" patternUnits="userSpaceOnUse" viewBox="0 0 595.276 841.89"><rect width="595.276" height="841.89" fill="none"/></pattern></defs><title>5S</title><g id="8af8d923-e4da-43e5-9dee-235827fdd9c7" data-name="Layer 2"><g id="79cf13bf-26e4-4347-8c80-36a6eb02ff07" data-name="Spades"><g id="b23649d3-3e3e-46a3-9b57-08b0dffb0e1c" data-name="5S"><g id="c6c8bc9b-745f-4cc0-bc23-32483cceb824" data-name="g100915"><rect id="4fba8d17-dc86-4ccc-967a-79365f6b13f8" data-name="rect5340" x="0.496" y="0.496" width="178.583" height="249.449" rx="8.504" ry="8.504" fill="#fff" stroke="#b3b0b0" stroke-width="0.993"/><path id="13413aa7-3f41-4923-a279-1e17337b67b8" data-name="path6950-9-9" d="M131.2,223.789c7.381-10.525,15.278-16.582,15.409-24.794.045-2.659-1.393-7.179-5.9-8.044-2.922-.559-6.945,1.806-7.028,6.61.012.956-1.013.932-1-.379a27.267,27.267,0,0,1,3.354-11.792h-9.669a27.265,27.265,0,0,1,3.353,11.792c.009,1.311-1.016,1.335-1,.379-.084-4.8-4.107-7.169-7.028-6.61-4.5.865-5.941,5.385-5.9,8.044C115.923,207.207,123.82,213.264,131.2,223.789Z"/><path id="59b56f0b-21e4-43d0-b0ee-ffcdc3e6a9f5" data-name="path6952-6-0" d="M165.306,209.967c3.448-4.386,7.138-6.91,7.2-10.331a3.322,3.322,0,0,0-2.755-3.352,2.861,2.861,0,0,0-3.284,2.754c.008.4-.473.388-.468-.158a10.44,10.44,0,0,1,1.566-4.913h-4.517a10.44,10.44,0,0,1,1.566,4.913c.009.546-.474.557-.468.158a2.861,2.861,0,0,0-3.284-2.754,3.322,3.322,0,0,0-2.755,3.352C158.168,203.057,161.857,205.581,165.306,209.967Z"/><path id="1d17f9c0-27de-4e4e-b380-98af7178b4dc" data-name="path6956-5-0" d="M14.27,40.475c3.448,4.386,7.138,6.91,7.2,10.331a3.322,3.322,0,0,1-2.755,3.352A2.86,2.86,0,0,1,15.431,51.4c.008-.4-.473-.389-.469.158a10.445,10.445,0,0,0,1.567,4.913H12.011a10.445,10.445,0,0,0,1.567-4.913c.008-.547-.475-.557-.469-.158a2.86,2.86,0,0,1-3.284,2.754A3.323,3.323,0,0,1,7.07,50.806C7.132,47.385,10.821,44.861,14.27,40.475Z"/><path id="de2f3a52-f65c-4926-bb19-9cd398f4e5ae" data-name="path6958-4-1" d="M48.375,223.789C55.756,213.264,63.653,207.207,63.784,199c.044-2.659-1.393-7.179-5.9-8.044-2.921-.559-6.944,1.806-7.028,6.61.013.956-1.012.932-1-.379a27.265,27.265,0,0,1,3.353-11.792H43.54a27.253,27.253,0,0,1,3.354,11.792c.009,1.311-1.016,1.335-1,.379-.084-4.8-4.107-7.169-7.029-6.61-4.5.865-5.94,5.385-5.9,8.044C33.1,207.207,40.994,213.264,48.375,223.789Z"/><path id="be399c58-e974-4322-9c2c-74a2fa178cb4" data-name="path6970-5-5" d="M131.2,26.652c7.381,10.526,15.278,16.583,15.409,24.8.045,2.659-1.393,7.179-5.9,8.044-2.922.559-6.945-1.806-7.028-6.61.012-.957-1.013-.932-1,.379a27.267,27.267,0,0,0,3.354,11.792h-9.669A27.265,27.265,0,0,0,129.72,53.26c.009-1.311-1.016-1.336-1-.379-.084,4.8-4.107,7.169-7.028,6.61-4.5-.865-5.941-5.385-5.9-8.044C115.923,43.235,123.82,37.178,131.2,26.652Z"/><path id="78f0f737-6abd-40da-b588-36fd3269a184" data-name="path6972-5-8" d="M48.375,26.652c7.381,10.526,15.278,16.583,15.409,24.8.044,2.659-1.393,7.179-5.9,8.044-2.921.559-6.944-1.806-7.028-6.61.013-.957-1.012-.932-1,.379a27.265,27.265,0,0,0,3.353,11.792H43.54A27.253,27.253,0,0,0,46.894,53.26c.009-1.311-1.016-1.336-1-.379-.084,4.8-4.107,7.169-7.029,6.61-4.5-.865-5.94-5.385-5.9-8.044C33.1,43.235,40.994,37.178,48.375,26.652Z"/><path id="1773bc81-b249-447b-be5f-86ba07c4695c" data-name="path6980-6-3" d="M89.788,144.421c7.381-10.526,15.278-16.583,15.409-24.795.045-2.659-1.393-7.178-5.9-8.044-2.921-.558-6.944,1.806-7.028,6.611.013.956-1.012.931-1-.379a27.265,27.265,0,0,1,3.353-11.793H84.954a27.265,27.265,0,0,1,3.353,11.793c.009,1.31-1.016,1.335-1,.379-.084-4.8-4.107-7.169-7.028-6.611-4.5.866-5.941,5.385-5.9,8.044C74.51,127.838,82.407,133.9,89.788,144.421Z"/><path id="95166914-fb77-4f89-bc1e-9cde51665053" data-name="path21-4-5-5" d="M173.628,219.31l-2.588.025c-.494-1.594-1.586-3.214-3.069-3.663a6.189,6.189,0,0,0-7.774,4.133c-1.077,3.336.024,8.02,2.909,9.682,2.39,1.379,5.942.216,7.573-2.733l1.812,1.129-.973,10.992h-11.84v-2.6h9.595l.152-4.579a7.581,7.581,0,0,1-7.3.425c-3.909-1.9-5.726-6.218-4.967-11.307,1.054-5.062,3.376-7.931,8.615-8.34,5.826-.054,7.883,4.027,7.859,6.834Z"/><path id="5144b220-3a63-4874-bcfd-a135a08533d2" data-name="path21-4-9-2-8" d="M5.95,31.132l2.588-.025c.493,1.594,1.586,3.213,3.069,3.663a6.189,6.189,0,0,0,7.774-4.133c1.077-3.336-.024-8.02-2.909-9.682-2.39-1.379-5.942-.216-7.573,2.733l-1.812-1.13L8.06,11.567H19.9v2.6H10.305l-.152,4.579a7.579,7.579,0,0,1,7.3-.425c3.91,1.9,5.726,6.217,4.967,11.307-1.053,5.062-3.376,7.931-8.614,8.34-5.827.054-7.884-4.027-7.859-6.834Z"/></g><rect id="1551d169-30d7-4465-a9e6-eeb1036a0eb4" data-name="rect17618" x="0.497" y="0.496" width="178.583" height="249.449" rx="8.504" ry="8.504" opacity="0.08" fill="url(#5c508701-1746-42e6-a8cd-5acc296cc977)" style="isolation:isolate"/></g></g></g></svg>