<svg xmlns="http://www.w3.org/2000/svg" xmlns:xlink="http://www.w3.org/1999/xlink" viewBox="0 0 179.576 250.442"><defs><pattern id="5baf48cf-a222-4b14-befb-d68141800183" data-name="pattern17750" width="595.276" height="841.89" patternTransform="matrix(0.8, 0, 0, -0.8, -615.4, 1813.785)" patternUnits="userSpaceOnUse" viewBox="0 0 595.276 841.89"><rect width="595.276" height="841.89" fill="none"/></pattern></defs><title>6C</title><g id="db5cdf2c-c819-4480-b1a2-279864c415a1" data-name="Layer 2"><g id="1b868a0c-7dd8-4780-b4c1-bf9046335469" data-name="Clubs"><g id="c52c629d-e2c9-4042-83f8-61afcd813848" data-name="6C"><g id="c407fe9c-ce78-4406-a2ea-c1a1ce554225" data-name="g100978"><rect id="3bc8b33a-3a41-4ffc-8e7e-ad816bce5c62" data-name="rect5022" x="0.496" y="0.496" width="178.583" height="249.449" rx="8.504" ry="8.504" fill="#fff" stroke="#b3b0b0" stroke-width="0.993"/><path id="4f8448b1-b70e-469d-816d-9686e7ab2eef" data-name="path147-0-8-1-6-13-2-5-7-1" d="M131.2,26.985c-7.855.171-11.377,9-5.56,15.862.844,1,.931,1.574-.614.613-3.917-2.615-11.427-.9-11.811,7.1-.475,9.853,13.309,12.692,15.9,2.214.136-1.1,1.036-1.08.819.489a32.576,32.576,0,0,1-3.4,12.121h9.338a32.576,32.576,0,0,1-3.4-12.121c-.217-1.569.682-1.594.819-.489,2.588,10.478,16.373,7.639,15.9-2.214-.385-8-7.894-9.717-11.811-7.1-1.545.961-1.458.387-.614-.613,5.817-6.859,2.295-15.691-5.56-15.862H131.2Z"/><path id="c5dd46db-cdcd-4eba-9664-6ee196d5c581" data-name="path147-0-8-1-6-75-2-83-8-8-7" d="M48.372,26.985c-7.855.171-11.377,9-5.56,15.862.844,1,.931,1.574-.615.613-3.916-2.615-11.426-.9-11.81,7.1-.475,9.853,13.309,12.692,15.9,2.214.137-1.1,1.037-1.08.82.489a32.576,32.576,0,0,1-3.4,12.121h9.337a32.576,32.576,0,0,1-3.4-12.121c-.217-1.569.683-1.594.82-.489,2.588,10.478,16.373,7.639,15.9-2.214-.385-8-7.895-9.717-11.811-7.1-1.546.961-1.458.387-.615-.613,5.817-6.859,2.3-15.691-5.559-15.862h-.006Z"/><path id="a2b99dd0-371e-4169-8010-b4c5316d524c" data-name="path147-0-8-1-6-7-5-5-7-8-7-8" d="M131.2,224.122c-7.855-.17-11.377-9-5.56-15.861.844-1,.931-1.575-.614-.614-3.917,2.616-11.427.9-11.811-7.1-.475-9.853,13.309-12.692,15.9-2.215.136,1.105,1.036,1.08.819-.489a32.582,32.582,0,0,0-3.4-12.121h9.338a32.582,32.582,0,0,0-3.4,12.121c-.217,1.569.682,1.594.819.489,2.588-10.477,16.373-7.638,15.9,2.215-.385,8-7.894,9.716-11.811,7.1-1.545-.961-1.458-.387-.614.614,5.817,6.859,2.295,15.691-5.56,15.861H131.2Z"/><path id="3c742c98-c355-44eb-a46e-48432fe1b485" data-name="path147-0-8-1-6-75-6-1-2-0-6-8" d="M48.372,224.122c-7.855-.17-11.377-9-5.56-15.861.844-1,.931-1.575-.615-.614-3.916,2.616-11.426.9-11.81-7.1-.475-9.853,13.309-12.692,15.9-2.215.137,1.105,1.037,1.08.82-.489a32.582,32.582,0,0,0-3.4-12.121h9.337a32.582,32.582,0,0,0-3.4,12.121c-.217,1.569.683,1.594.82.489,2.588-10.477,16.373-7.638,15.9,2.215-.385,8-7.895,9.716-11.811,7.1-1.546-.961-1.458-.387-.615.614,5.817,6.859,2.3,15.691-5.559,15.861h-.006Z"/><path id="fdc389ce-747f-4897-b6d8-871aeeb45a48" data-name="path147-0-8-1-6-7-5-7-3-0-9-6-4" d="M131.2,106.354c-7.855.17-11.377,9-5.56,15.861.844,1,.931,1.575-.614.614-3.917-2.616-11.427-.9-11.811,7.1-.475,9.853,13.309,12.692,15.9,2.215.136-1.105,1.036-1.08.819.489a32.582,32.582,0,0,1-3.4,12.121h9.338a32.582,32.582,0,0,1-3.4-12.121c-.217-1.569.682-1.594.819-.489,2.588,10.477,16.373,7.638,15.9-2.215-.385-8-7.894-9.716-11.811-7.1-1.545.961-1.458.387-.614-.614,5.817-6.859,2.295-15.691-5.56-15.861H131.2Z"/><path id="103cd6f4-4be7-4868-84e1-d410929f8ff2" data-name="path147-0-8-1-6-75-6-6-5-3-0-0-2" d="M48.372,106.354c-7.855.17-11.377,9-5.56,15.861.844,1,.931,1.575-.615.614-3.916-2.616-11.426-.9-11.81,7.1-.475,9.853,13.309,12.692,15.9,2.215.137-1.105,1.037-1.08.82.489a32.582,32.582,0,0,1-3.4,12.121h9.337a32.582,32.582,0,0,1-3.4-12.121c-.217-1.569.683-1.594.82-.489,2.588,10.477,16.373,7.638,15.9-2.215-.385-8-7.895-9.716-11.811-7.1-1.546.961-1.458.387-.615-.614,5.817-6.859,2.3-15.691-5.559-15.861h-.006Z"/><path id="e06462c1-e91f-410e-bc2d-12026425c9cd" data-name="path147-6-9-8-7-0-5-6-4-2-8" d="M165.307,209.967c3.142-.071,4.551-3.751,2.224-6.609-.337-.417-.372-.656.246-.256,1.567,1.09,4.571.374,4.724-2.958.19-4.105-5.324-5.288-6.359-.923-.054.461-.414.45-.327-.2a14,14,0,0,1,1.359-5.05h-3.735a14,14,0,0,1,1.359,5.05c.087.654-.273.665-.328.2-1.035-4.365-6.549-3.182-6.359.923.154,3.332,3.158,4.048,4.725,2.958.618-.4.583-.161.245.256-2.327,2.858-.918,6.538,2.224,6.609h0Z"/><path id="d85df160-7345-4831-85ec-b69894ef780d" data-name="path147-6-9-8-7-4-5-62-0-2-9" d="M14.269,40.475c-3.142.071-4.55,3.751-2.224,6.609.338.417.373.656-.245.256-1.567-1.09-4.571-.374-4.725,2.958-.19,4.106,5.324,5.289,6.359.923.055-.46.415-.45.328.2a14,14,0,0,1-1.359,5.05h3.735a14,14,0,0,1-1.359-5.05c-.087-.654.273-.664.327-.2,1.036,4.366,6.55,3.183,6.36-.923-.154-3.332-3.158-4.048-4.725-2.958-.618.4-.583.161-.246-.256,2.327-2.858.918-6.538-2.223-6.609h0Z"/><path id="d2e04f97-9fe1-4397-8ea7-49afe20b99c8" data-name="path23-8-1-4" d="M6.517,29.845a52.963,52.963,0,0,1-.052-9.665c.82-5.206,2.808-7.588,6.138-8.365,3.235-.758,7.779.086,8.776,4.436l-2.7.052c-1.463-2.941-5.163-2.156-7.248-.875C9.764,16.447,9.012,20.7,9.334,20.965c0,0,3.145-2.33,5.625-2.158,5.3.552,7.485,5.148,7.3,9.487-.169,5.22-1.824,9.4-7.441,9.673-5.34-.207-7.787-3.118-8.3-8.122Zm13.17-1.379c.029-3.621-1.615-6.336-4.728-6.633S8.71,24.569,8.927,28.261c.218,3.707,1.652,6.826,5.425,6.809,4.058-.016,5.316-4.026,5.335-6.6Z"/><path id="c08b9d2f-8684-4368-a3e7-d7a5d0a023d2" data-name="path23-6-8-9-6" d="M173.058,220.6a53.048,53.048,0,0,1,.051,9.665c-.82,5.206-2.808,7.588-6.138,8.365-3.235.758-7.779-.085-8.776-4.436l2.7-.052c1.463,2.941,5.164,2.156,7.248.876,1.663-1.02,2.415-5.276,2.094-5.538,0,0-3.146,2.33-5.626,2.158-5.3-.552-7.484-5.148-7.3-9.487.168-5.22,1.823-9.4,7.44-9.673,5.341.207,7.787,3.118,8.3,8.123h0Zm-13.171,1.379c-.029,3.621,1.615,6.336,4.728,6.633s6.249-2.736,6.032-6.428c-.217-3.707-1.652-6.826-5.425-6.809-4.057.016-5.315,4.026-5.335,6.6Z"/></g><rect id="b411717a-7ca7-4cf4-946e-9279e9db8490" data-name="rect17698" x="0.496" y="0.496" width="178.583" height="249.449" rx="8.504" ry="8.504" opacity="0.08" fill="url(#5baf48cf-a222-4b14-befb-d68141800183)" style="isolation:isolate"/></g></g></g></svg>