<svg xmlns="http://www.w3.org/2000/svg" xmlns:xlink="http://www.w3.org/1999/xlink" viewBox="0 0 179.579 250.446"><defs><pattern id="846b6cbd-f26b-4c22-885d-0237db20d261" data-name="pattern17596" width="595.276" height="841.89" patternTransform="matrix(0.8, 0, 0, -0.8, -615.4, 967.046)" patternUnits="userSpaceOnUse" viewBox="0 0 595.276 841.89"><rect width="595.276" height="841.89" fill="none"/></pattern></defs><title>6D</title><g id="9008b0ab-d5b3-4dee-870b-061e72176356" data-name="Layer 2"><g id="fda1b61c-30d2-409c-b6ba-420f7cd12ae2" data-name="Diamonds"><g id="e2120006-182c-46f3-a674-6933fb60afd8" data-name="6D"><g id="7a79fd5a-4c71-4fac-bca1-85920f66418a" data-name="g100939"><rect id="7eb81739-837e-48f2-ad3b-78b98e3bf20b" data-name="rect6066" x="0.498" y="0.498" width="178.583" height="249.449" rx="8.504" ry="8.504" fill="#fff" stroke="#b3b0b0" stroke-width="0.997"/><path id="97ba79da-440b-42bf-a5b9-867a5c96fd3c" data-name="path6790-5" d="M14.272,56.477a45.069,45.069,0,0,0-5.82-8,45.069,45.069,0,0,0,5.82-8,45.124,45.124,0,0,0,5.821,8A45.124,45.124,0,0,0,14.272,56.477Z" fill="#d40000"/><path id="44847525-4dc1-4105-a7bf-dae284540d71" data-name="path6792-5" d="M131.2,65.054c-4.149-6.851-8.514-13.511-13.969-19.2,5.455-5.688,9.82-12.348,13.969-19.2,4.149,6.852,8.514,13.512,13.969,19.2C139.717,51.543,135.352,58.2,131.2,65.054Z" fill="#d40000"/><path id="ae4f72d9-51e1-4c83-9a57-ee8a7fd4a30c" data-name="path6794-1" d="M165.308,209.969a45.169,45.169,0,0,0-5.82-8,45.169,45.169,0,0,0,5.82-8,45.119,45.119,0,0,0,5.82,8A45.119,45.119,0,0,0,165.308,209.969Z" fill="#d40000"/><path id="c486bc23-4670-498b-92bf-43d46e6f7649" data-name="path6796-2" d="M48.377,65.054c-4.149-6.851-8.514-13.511-13.969-19.2,5.455-5.688,9.82-12.348,13.969-19.2,4.149,6.852,8.514,13.512,13.969,19.2C56.891,51.543,52.526,58.2,48.377,65.054Z" fill="#d40000"/><path id="90314968-f928-4e21-90a7-65af928ae606" data-name="path6806-6" d="M48.377,144.4c-4.149-6.852-8.514-13.511-13.969-19.2,5.455-5.689,9.82-12.348,13.969-19.2,4.149,6.852,8.514,13.511,13.969,19.2C56.891,130.886,52.526,137.545,48.377,144.4Z" fill="#d40000"/><path id="8ff147ab-65ab-4755-a2c2-c87e1a14b79b" data-name="path6808-6" d="M131.2,144.409c-4.149-6.851-8.514-13.511-13.969-19.2,5.455-5.688,9.82-12.348,13.969-19.2,4.149,6.852,8.514,13.512,13.969,19.2C139.717,130.9,135.352,137.558,131.2,144.409Z" fill="#d40000"/><path id="6966d92a-02ca-4aef-9f34-dfaf17e09383" data-name="path6812-0" d="M48.377,223.8c-4.149-6.851-8.514-13.511-13.969-19.2,5.455-5.688,9.82-12.348,13.969-19.2,4.149,6.852,8.514,13.512,13.969,19.2C56.891,210.284,52.526,216.944,48.377,223.8Z" fill="#d40000"/><path id="22d3f639-6733-45ea-89be-f0fff8fca326" data-name="path6814-4" d="M131.2,223.8c-4.149-6.852-8.514-13.511-13.969-19.2,5.455-5.689,9.82-12.348,13.969-19.2,4.149,6.852,8.514,13.511,13.969,19.2C139.717,210.29,135.352,216.949,131.2,223.8Z" fill="#d40000"/><path id="46ac38da-9d99-4e63-aa4a-9c88ea17cc93" data-name="path23-5-3-5-5" d="M6.518,29.846a53.048,53.048,0,0,1-.051-9.665c.82-5.2,2.808-7.587,6.138-8.365,3.235-.757,7.779.086,8.776,4.437l-2.7.053c-1.463-2.942-5.163-2.156-7.248-.876-1.663,1.019-2.415,5.276-2.093,5.537,0,0,3.145-2.329,5.625-2.158,5.3.552,7.485,5.148,7.3,9.487-.168,5.221-1.823,9.4-7.44,9.673-5.34-.206-7.787-3.118-8.3-8.122h0Zm13.171-1.378c.029-3.622-1.615-6.336-4.728-6.634s-6.249,2.737-6.032,6.429,1.652,6.826,5.425,6.809c4.057-.016,5.315-4.026,5.335-6.6Z" fill="#d40000"/><path id="2f09c604-51f8-4b7f-b14a-7139ffae2658" data-name="path23-6-5-6-6" d="M173.06,220.6a53.048,53.048,0,0,1,.051,9.665c-.82,5.206-2.808,7.588-6.139,8.365-3.234.758-7.779-.086-8.775-4.436l2.7-.052c1.463,2.941,5.163,2.156,7.248.875,1.663-1.019,2.415-5.275,2.093-5.537,0,0-3.145,2.33-5.625,2.158-5.3-.552-7.485-5.148-7.3-9.487.168-5.22,1.823-9.4,7.44-9.673,5.34.207,7.787,3.118,8.3,8.122Zm-13.171,1.379c-.029,3.621,1.615,6.336,4.728,6.633s6.249-2.736,6.032-6.428-1.652-6.826-5.425-6.809c-4.057.016-5.315,4.026-5.335,6.6Z" fill="#d40000"/></g><rect id="0d4f12c0-46af-4c41-b554-af4612055ba4" data-name="rect16698" x="0.498" y="0.498" width="178.583" height="249.449" rx="8.504" ry="8.504" opacity="0.08" fill="url(#846b6cbd-f26b-4c22-885d-0237db20d261)" style="isolation:isolate"/></g></g></g></svg>