<svg xmlns="http://www.w3.org/2000/svg" xmlns:xlink="http://www.w3.org/1999/xlink" viewBox="0 0 179.576 250.442"><defs><pattern id="f27f4f7d-1aa7-48fc-81f3-27a02fa9b9f4" data-name="pattern17776" width="595.276" height="841.89" patternTransform="matrix(0.8, 0, 0, -0.8, -615.4, 1531.539)" patternUnits="userSpaceOnUse" viewBox="0 0 595.276 841.89"><rect width="595.276" height="841.89" fill="none"/></pattern></defs><title>6H</title><g id="11a341be-3aff-4353-9598-33d57f8cb0b0" data-name="Layer 2"><g id="ca228c0b-21f0-4697-8a0f-01a946b92e0a" data-name="Hearts"><g id="efa0bf6d-a8a0-4900-9324-a326549f0786" data-name="6H"><g id="fa2c0ace-8b93-418f-8ae2-5fa843b14e15" data-name="g100965"><rect id="6b56f925-5f5d-422c-b0d9-5da4f1cd42a9" data-name="rect5709" x="0.496" y="0.496" width="178.583" height="249.449" rx="8.504" ry="8.504" fill="#fff" stroke="#b3b0b0" stroke-width="0.993"/><path id="94222b8b-1a06-498b-ba34-279023b8ae34" data-name="path10038-5-0" d="M14.271,56.475s-1.78-2.552-4.181-5.552c-1.606-2.008-2.89-4.182-3.01-6.054a3.878,3.878,0,0,1,3.506-4.389c2.345-.1,3.3,1.649,3.685,3.094.387-1.445,1.339-3.2,3.684-3.094a3.878,3.878,0,0,1,3.506,4.389c-.12,1.872-1.4,4.046-3.01,6.054-2.4,3-4.181,5.552-4.181,5.552Z" fill="#d40000"/><path id="1e5d0640-6157-447d-b91e-07a556d573c3" data-name="path10040-7-6" d="M165.306,193.967s-1.78,2.552-4.18,5.552c-1.607,2.008-2.891,4.182-3.01,6.054a3.879,3.879,0,0,0,3.506,4.39c2.345.1,3.3-1.65,3.684-3.095.388,1.445,1.34,3.2,3.685,3.095a3.879,3.879,0,0,0,3.5-4.39c-.119-1.872-1.4-4.046-3.009-6.054C167.086,196.519,165.306,193.967,165.306,193.967Z" fill="#d40000"/><path id="f291d3c3-57aa-4943-b9d6-d2081befcb54" data-name="path10046-1-1" d="M48.375,65.052s-3.733-6.124-8.769-13.325c-3.369-4.818-6.062-10.036-6.312-14.53-.288-5.134,2.431-10.284,7.353-10.534s6.915,3.959,7.728,7.428c.813-3.47,2.809-7.677,7.728-7.428s7.64,5.4,7.353,10.534c-.25,4.494-2.944,9.712-6.312,14.53-5.036,7.2-8.769,13.325-8.769,13.325Z" fill="#d40000"/><path id="31fbb968-3e94-4654-9bb3-422fe4c1078b" data-name="path10048-2-0" d="M131.2,144.421s-3.733-6.124-8.769-13.325c-3.368-4.819-6.062-10.036-6.312-14.53-.287-5.134,2.431-10.285,7.353-10.534s6.915,3.958,7.728,7.427c.813-3.469,2.809-7.677,7.728-7.427s7.641,5.4,7.353,10.534c-.25,4.494-2.943,9.711-6.312,14.53C134.934,138.3,131.2,144.421,131.2,144.421Z" fill="#d40000"/><path id="6887aff9-d17d-4ec2-8a08-afa8a4f6d264" data-name="path10052-3-1" d="M131.2,65.052s-3.733-6.124-8.769-13.325c-3.368-4.818-6.062-10.036-6.312-14.53-.287-5.134,2.431-10.284,7.353-10.534s6.915,3.959,7.728,7.428c.813-3.47,2.809-7.677,7.728-7.428s7.641,5.4,7.353,10.534c-.25,4.494-2.943,9.712-6.312,14.53-5.036,7.2-8.769,13.325-8.769,13.325Z" fill="#d40000"/><path id="85462ffc-81e0-4b3a-9539-c584f7fa9200" data-name="path10056-4-2" d="M48.375,144.421S44.642,138.3,39.606,131.1c-3.369-4.819-6.062-10.036-6.312-14.53-.288-5.134,2.431-10.285,7.353-10.534s6.915,3.958,7.728,7.427c.813-3.469,2.809-7.677,7.728-7.427s7.64,5.4,7.353,10.534c-.25,4.494-2.944,9.711-6.312,14.53C52.108,138.3,48.375,144.421,48.375,144.421Z" fill="#d40000"/><path id="bb1cb323-f339-4ea0-881e-fa81b6d156eb" data-name="path10066-9-2" d="M131.2,185.39s-3.733,6.124-8.769,13.325c-3.368,4.818-6.062,10.036-6.312,14.53-.287,5.134,2.431,10.284,7.353,10.534s6.915-3.958,7.728-7.428c.813,3.469,2.809,7.677,7.728,7.428s7.641-5.4,7.353-10.534c-.25-4.494-2.943-9.712-6.312-14.53C134.934,191.514,131.2,185.39,131.2,185.39Z" fill="#d40000"/><path id="3a876cf1-f260-4704-91e2-dedf62e7e338" data-name="path10068-1-2" d="M48.375,185.39s-3.733,6.124-8.769,13.325c-3.369,4.818-6.062,10.036-6.312,14.53-.288,5.134,2.431,10.284,7.353,10.534s6.915-3.958,7.728-7.428c.813,3.469,2.809,7.677,7.728,7.428s7.64-5.4,7.353-10.534c-.25-4.494-2.944-9.712-6.312-14.53C52.108,191.514,48.375,185.39,48.375,185.39Z" fill="#d40000"/><path id="abd50988-dd9a-49e2-86ae-9a450a39a1d0" data-name="path23-5-2-7-3" d="M6.517,29.845a52.963,52.963,0,0,1-.052-9.665c.82-5.206,2.808-7.588,6.138-8.365,3.235-.758,7.779.086,8.776,4.436l-2.7.052c-1.463-2.941-5.163-2.155-7.248-.875C9.764,16.447,9.012,20.7,9.334,20.965c0,0,3.145-2.329,5.625-2.158,5.3.552,7.485,5.148,7.3,9.487-.169,5.221-1.824,9.4-7.441,9.673-5.34-.207-7.787-3.118-8.3-8.122Zm13.17-1.379c.029-3.621-1.615-6.336-4.728-6.633S8.71,24.569,8.928,28.261c.217,3.708,1.651,6.826,5.424,6.809,4.058-.016,5.316-4.026,5.335-6.6Z" fill="#d40000"/><path id="f4e2d246-308b-4418-b81e-739bafa29ce6" data-name="path23-6-5-1-7-1" d="M173.058,220.6a53.048,53.048,0,0,1,.051,9.665c-.82,5.206-2.808,7.588-6.138,8.365-3.235.758-7.779-.086-8.776-4.436l2.7-.052c1.463,2.941,5.164,2.156,7.248.876,1.664-1.02,2.415-5.276,2.094-5.538,0,0-3.146,2.33-5.626,2.158-5.3-.552-7.484-5.148-7.3-9.487.168-5.22,1.823-9.4,7.44-9.673,5.341.207,7.787,3.118,8.3,8.123h0Zm-13.171,1.379c-.029,3.621,1.615,6.336,4.729,6.633s6.248-2.736,6.031-6.428c-.217-3.707-1.652-6.826-5.425-6.809-4.057.016-5.315,4.026-5.335,6.6Z" fill="#d40000"/></g><rect id="0b47ffe3-dd9a-47a0-a8f3-85bd10a866e3" data-name="rect17724" x="0.496" y="0.496" width="178.583" height="249.449" rx="8.504" ry="8.504" opacity="0.08" fill="url(#f27f4f7d-1aa7-48fc-81f3-27a02fa9b9f4)" style="isolation:isolate"/></g></g></g></svg>