<svg xmlns="http://www.w3.org/2000/svg" xmlns:xlink="http://www.w3.org/1999/xlink" viewBox="0 0 179.576 250.442"><defs><pattern id="50c5c980-d6b4-443b-bdb7-03333fcf2c5f" data-name="pattern17646" width="595.276" height="841.89" patternTransform="matrix(0.8, 0, 0, -0.8, -615.4, 1249.292)" patternUnits="userSpaceOnUse" viewBox="0 0 595.276 841.89"><rect width="595.276" height="841.89" fill="none"/></pattern></defs><title>6S</title><g id="4f9a7f9f-288e-4da5-a92b-ae9a126e5921" data-name="Layer 2"><g id="5d5548fc-1596-4a70-8904-dad70facfdb2" data-name="Spades"><g id="b5b7b003-fadb-4577-944e-aba5933460f9" data-name="6S"><g id="7bc24176-d3d3-423b-adef-419bfa7c1bdd" data-name="g100952"><rect id="d0e43856-d895-4164-a135-5bd8d86cedf1" data-name="rect5362" x="0.496" y="0.496" width="178.583" height="249.449" rx="8.504" ry="8.504" fill="#fff" stroke="#b3b0b0" stroke-width="0.993"/><path id="bf2d7ddb-a814-43d6-8b37-5453346d1d79" data-name="path7018-7-4" d="M48.375,26.652c-7.381,10.526-15.278,16.583-15.41,24.8-.044,2.659,1.394,7.179,5.9,8.044,2.922.559,6.944-1.806,7.028-6.61-.012-.956,1.013-.932,1,.379A27.275,27.275,0,0,1,43.54,65.053h9.669A27.273,27.273,0,0,1,49.856,53.26c-.01-1.311,1.016-1.335,1-.379.084,4.8,4.107,7.169,7.028,6.61,4.5-.865,5.941-5.385,5.9-8.044C63.653,43.235,55.756,37.178,48.375,26.652Z"/><path id="8c9fbe69-ed11-4144-acb5-a97e1c889268" data-name="path7020-0-8" d="M14.27,40.475c-3.448,4.386-7.138,6.91-7.2,10.331a3.322,3.322,0,0,0,2.755,3.352A2.861,2.861,0,0,0,13.11,51.4c-.008-.4.473-.388.468.158a10.44,10.44,0,0,1-1.566,4.913h4.517a10.452,10.452,0,0,1-1.567-4.913c-.008-.546.475-.557.469-.158a2.861,2.861,0,0,0,3.284,2.754,3.322,3.322,0,0,0,2.755-3.352C21.408,47.385,17.719,44.861,14.27,40.475Z"/><path id="782dc0b5-c8ee-4b73-a607-c930398cf1f9" data-name="path7024-7-1" d="M165.306,209.967c-3.448-4.386-7.138-6.91-7.2-10.331a3.324,3.324,0,0,1,2.756-3.352,2.86,2.86,0,0,1,3.283,2.754c-.008.4.473.389.469-.158a10.445,10.445,0,0,0-1.567-4.913h4.518A10.445,10.445,0,0,0,166,198.88c-.008.547.475.557.469.158a2.86,2.86,0,0,1,3.283-2.754,3.324,3.324,0,0,1,2.756,3.352C172.444,203.057,168.754,205.581,165.306,209.967Z"/><path id="d696c231-38bf-488a-8536-d12f0a876f3f" data-name="path7026-2-6" d="M131.2,26.652c-7.381,10.526-15.278,16.583-15.409,24.8-.045,2.659,1.393,7.179,5.9,8.044,2.921.559,6.944-1.806,7.028-6.61-.013-.956,1.012-.932,1,.379a27.273,27.273,0,0,1-3.353,11.793h9.668a27.273,27.273,0,0,1-3.353-11.793c-.009-1.311,1.016-1.335,1-.379.084,4.8,4.107,7.169,7.028,6.61,4.5-.865,5.941-5.385,5.9-8.044C146.479,43.235,138.582,37.178,131.2,26.652Z"/><path id="e01e4033-c0e3-4c2f-9d39-dc2d9fcd2698" data-name="path7036-9-6" d="M48.375,106.021c-7.381,10.526-15.278,16.583-15.41,24.8-.044,2.659,1.394,7.178,5.9,8.043,2.922.559,6.944-1.805,7.028-6.61-.012-.956,1.013-.931,1,.379a27.267,27.267,0,0,1-3.354,11.793h9.669a27.265,27.265,0,0,1-3.353-11.793c-.01-1.31,1.016-1.335,1-.379.084,4.805,4.107,7.169,7.028,6.61,4.5-.865,5.941-5.384,5.9-8.043C63.653,122.6,55.756,116.547,48.375,106.021Z"/><path id="faa3d169-7b40-47c9-9451-2cfb02a89fb3" data-name="path7038-9-6" d="M48.375,223.79C40.994,213.264,33.1,207.207,32.965,199c-.044-2.659,1.394-7.179,5.9-8.044,2.922-.559,6.944,1.806,7.028,6.61-.012.956,1.013.932,1-.379A27.267,27.267,0,0,0,43.54,185.39h9.669a27.265,27.265,0,0,0-3.353,11.792c-.01,1.311,1.016,1.335,1,.379.084-4.8,4.107-7.169,7.028-6.61,4.5.865,5.941,5.385,5.9,8.044C63.653,207.207,55.756,213.264,48.375,223.79Z"/><path id="dcc53dc7-699c-4b6a-80ec-b80360df1ab1" data-name="path7040-0-9" d="M131.2,223.79c-7.381-10.526-15.278-16.583-15.409-24.795-.045-2.659,1.393-7.179,5.9-8.044,2.921-.559,6.944,1.806,7.028,6.61-.013.956,1.012.932,1-.379a27.265,27.265,0,0,0-3.353-11.792h9.668a27.265,27.265,0,0,0-3.353,11.792c-.009,1.311,1.016,1.335,1,.379.084-4.8,4.107-7.169,7.028-6.61,4.5.865,5.941,5.385,5.9,8.044C146.479,207.207,138.582,213.264,131.2,223.79Z"/><path id="568675ed-553a-4394-bdaf-08fbde8b1730" data-name="path7050-2-9" d="M131.2,106.021c-7.381,10.526-15.278,16.583-15.409,24.8-.045,2.659,1.393,7.178,5.9,8.043,2.921.559,6.944-1.805,7.028-6.61-.013-.956,1.012-.931,1,.379a27.265,27.265,0,0,1-3.353,11.793h9.668a27.265,27.265,0,0,1-3.353-11.793c-.009-1.31,1.016-1.335,1-.379.084,4.805,4.107,7.169,7.028,6.61,4.5-.865,5.941-5.384,5.9-8.043C146.479,122.6,138.582,116.547,131.2,106.021Z"/><path id="5ad5c2c1-6bb3-4143-8210-e94ce70bbdfc" data-name="path23-1-9-8" d="M6.516,29.845a53.058,53.058,0,0,1-.051-9.666c.82-5.2,2.808-7.587,6.138-8.365,3.235-.757,7.779.086,8.776,4.437l-2.7.053c-1.463-2.942-5.163-2.156-7.248-.876C9.764,16.447,9.012,20.7,9.334,20.965c0,0,3.145-2.329,5.625-2.157,5.3.552,7.485,5.147,7.3,9.487-.168,5.22-1.823,9.394-7.44,9.672-5.34-.206-7.787-3.118-8.3-8.122Zm13.171-1.379c.029-3.622-1.615-6.336-4.728-6.633S8.71,24.569,8.927,28.261c.217,3.707,1.652,6.826,5.425,6.809,4.057-.016,5.315-4.026,5.335-6.6Z"/><path id="bdda51d0-a879-436c-b5d9-0c0cee52dece" data-name="path23-1-5-6-4" d="M173.058,220.6a53.047,53.047,0,0,1,.051,9.665c-.82,5.2-2.808,7.587-6.138,8.365-3.235.757-7.779-.086-8.776-4.437l2.7-.053c1.463,2.942,5.163,2.156,7.248.876,1.663-1.019,2.415-5.276,2.093-5.537,0,0-3.145,2.329-5.625,2.158-5.3-.552-7.485-5.148-7.3-9.487.168-5.221,1.823-9.4,7.44-9.673,5.34.207,7.787,3.118,8.3,8.122h0Zm-13.171,1.378c-.029,3.622,1.615,6.336,4.728,6.634s6.249-2.737,6.032-6.428c-.217-3.708-1.652-6.827-5.425-6.81-4.058.016-5.315,4.026-5.335,6.6Z"/></g><rect id="edb71d0f-c0a0-4d7a-835d-cb4b88f42f6e" data-name="rect17620" x="0.496" y="0.496" width="178.583" height="249.449" rx="8.504" ry="8.504" opacity="0.08" fill="url(#50c5c980-d6b4-443b-bdb7-03333fcf2c5f)" style="isolation:isolate"/></g></g></g></svg>