<svg xmlns="http://www.w3.org/2000/svg" xmlns:xlink="http://www.w3.org/1999/xlink" viewBox="0 0 179.579 250.446"><defs><pattern id="b89b3f21-a6e2-42db-8eb3-c849d4f6ec5e" data-name="pattern17598" width="595.276" height="841.89" patternTransform="matrix(0.8, 0, 0, -0.8, -615.4, 967.046)" patternUnits="userSpaceOnUse" viewBox="0 0 595.276 841.89"><rect width="595.276" height="841.89" fill="none"/></pattern></defs><title>7D</title><g id="5c05f672-e49d-4109-8f4f-87a69ef55f47" data-name="Layer 2"><g id="458d6275-ba82-444e-853f-a3d345ad05b1" data-name="Diamonds"><g id="c140ce7f-4b51-4515-a94d-0e5babc6738c" data-name="7D"><g id="557d982e-6959-4a59-916d-dcdf53aaa364" data-name="g101033"><rect id="91b6186b-fe5a-4e77-b94c-22f3834da1d5" data-name="rect6090" x="0.498" y="0.498" width="178.583" height="249.449" rx="8.504" ry="8.504" fill="#fff" stroke="#b3b0b0" stroke-width="0.997"/><path id="cb27f2a0-a5d9-4482-824d-8515d810d875" data-name="path6858-4" d="M14.272,56.477a45.069,45.069,0,0,0-5.82-8,45.069,45.069,0,0,0,5.82-8,45.124,45.124,0,0,0,5.821,8A45.124,45.124,0,0,0,14.272,56.477Z" fill="#d40000"/><path id="45a23bab-b4e3-4d18-b0b5-4d58fdb5a65e" data-name="path6860-1" d="M131.2,65.054c-4.149-6.851-8.514-13.511-13.969-19.2,5.455-5.688,9.82-12.348,13.969-19.2,4.149,6.852,8.514,13.512,13.969,19.2C139.717,51.543,135.352,58.2,131.2,65.054Z" fill="#d40000"/><path id="c76fc4bd-a3c9-41b3-aba0-47d0c7612eac" data-name="path6862-0" d="M165.308,209.969a45.119,45.119,0,0,0-5.82-8,45.119,45.119,0,0,0,5.82-8,45.169,45.169,0,0,0,5.82,8A45.169,45.169,0,0,0,165.308,209.969Z" fill="#d40000"/><path id="4c52c50b-2537-4df5-87ef-020cab298cf1" data-name="path6864-5" d="M48.377,65.054c-4.149-6.851-8.514-13.511-13.969-19.2,5.455-5.688,9.82-12.348,13.969-19.2,4.149,6.852,8.514,13.512,13.969,19.2C56.891,51.543,52.526,58.2,48.377,65.054Z" fill="#d40000"/><path id="3a3495eb-1a0c-4c42-bbbf-f80930c29528" data-name="path6870-5" d="M89.79,104.726c-4.149-6.852-8.514-13.512-13.969-19.2,5.455-5.689,9.82-12.348,13.969-19.2,4.149,6.852,8.514,13.511,13.969,19.2C98.3,91.214,93.939,97.874,89.79,104.726Z" fill="#d40000"/><path id="2834db46-238f-4b65-a305-e6497ff476a9" data-name="path6874-1" d="M48.377,144.4c-4.149-6.852-8.514-13.511-13.969-19.2,5.455-5.689,9.82-12.348,13.969-19.2,4.149,6.852,8.514,13.511,13.969,19.2C56.891,130.886,52.526,137.545,48.377,144.4Z" fill="#d40000"/><path id="b7e9650c-8a26-4d68-a941-b6a3ff1ae4a1" data-name="path6876-6" d="M131.2,144.409c-4.149-6.851-8.514-13.511-13.969-19.2,5.455-5.688,9.82-12.348,13.969-19.2,4.149,6.852,8.514,13.512,13.969,19.2C139.717,130.9,135.352,137.558,131.2,144.409Z" fill="#d40000"/><path id="17e44a9b-c5d3-415c-bb88-e99bc05ef5ed" data-name="path6880-5" d="M48.377,223.8c-4.149-6.851-8.514-13.511-13.969-19.2,5.455-5.688,9.82-12.348,13.969-19.2,4.149,6.852,8.514,13.512,13.969,19.2C56.891,210.284,52.526,216.944,48.377,223.8Z" fill="#d40000"/><path id="047b792a-5089-411a-8df8-8d1e6d3b5063" data-name="path6882-9" d="M131.2,223.8c-4.149-6.852-8.514-13.511-13.969-19.2,5.455-5.689,9.82-12.348,13.969-19.2,4.149,6.852,8.514,13.511,13.969,19.2C139.717,210.29,135.352,216.949,131.2,223.8Z" fill="#d40000"/><path id="688b4b47-760e-4f54-8a02-0cbe1e4571ca" data-name="path25-43-4-8-8" d="M10.213,37.966C11.949,28.787,13.8,21.9,18.65,14.418H8.786v3.219H6.168V11.569H20.6l1.78,2.849C17.22,20.044,12.5,38.232,13.339,37.966Z" fill="#d40000"/><path id="6e4bb97a-fa6f-4da9-a465-512d5ca48141" data-name="path25-7-0-7-6" d="M169.365,212.48c-1.736,9.179-3.585,16.069-8.437,23.548h9.864v-3.219h2.618v6.068H158.983l-1.78-2.849c5.155-5.626,9.872-23.814,9.036-23.548Z" fill="#d40000"/></g><rect id="275c7918-dc53-4612-b688-5bd6cd7805e9" data-name="rect16702" x="0.498" y="0.498" width="178.583" height="249.449" rx="8.504" ry="8.504" opacity="0.08" fill="url(#b89b3f21-a6e2-42db-8eb3-c849d4f6ec5e)" style="isolation:isolate"/></g></g></g></svg>