<svg xmlns="http://www.w3.org/2000/svg" xmlns:xlink="http://www.w3.org/1999/xlink" viewBox="0 0 179.576 250.442"><defs><pattern id="c215005b-75c5-41d6-9701-6727623d8ddb" data-name="pattern17778" width="595.276" height="841.89" patternTransform="matrix(0.8, 0, 0, -0.8, -615.4, 1531.539)" patternUnits="userSpaceOnUse" viewBox="0 0 595.276 841.89"><rect width="595.276" height="841.89" fill="none"/></pattern></defs><title>7H</title><g id="63e53893-f5d6-4965-9da9-b0f37178d4c1" data-name="Layer 2"><g id="445b43c1-55f8-41d0-9205-39b02ef8b31d" data-name="Hearts"><g id="a01630be-1b3b-4229-a0d8-7c0427b717d1" data-name="7H"><g id="e20a40b9-92ca-4e18-8319-4e36d3461c51" data-name="g101005"><rect id="2c097a73-4d50-4e55-8991-cad5d9d5715c" data-name="rect5737" x="0.496" y="0.496" width="178.583" height="249.449" rx="8.504" ry="8.504" fill="#fff" stroke="#b3b0b0" stroke-width="0.993"/><path id="b723dfc1-6e1f-425f-a5c1-a4d18764965c" data-name="path10106-2-3" d="M14.271,56.475s-1.78-2.552-4.181-5.552c-1.606-2.008-2.89-4.182-3.009-6.054a3.878,3.878,0,0,1,3.505-4.389c2.345-.1,3.3,1.649,3.685,3.094.387-1.445,1.339-3.2,3.684-3.094a3.878,3.878,0,0,1,3.506,4.389c-.119,1.872-1.4,4.046-3.01,6.054-2.4,3-4.18,5.552-4.18,5.552Z" fill="#d40000"/><path id="a34ca1b6-baee-4737-8f28-99edacb0cb47" data-name="path10108-3-1" d="M165.306,193.967s-1.78,2.552-4.18,5.552c-1.607,2.008-2.891,4.182-3.01,6.054a3.879,3.879,0,0,0,3.5,4.39c2.346.1,3.3-1.65,3.685-3.095.388,1.445,1.339,3.2,3.685,3.095a3.879,3.879,0,0,0,3.5-4.39c-.119-1.872-1.4-4.046-3.009-6.054C167.086,196.519,165.306,193.967,165.306,193.967Z" fill="#d40000"/><path id="bcbfa2ec-9408-4738-a186-4b392471c785" data-name="path10110-3-5" d="M89.788,104.737s-3.733-6.125-8.769-13.325c-3.368-4.819-6.062-10.037-6.312-14.531-.288-5.134,2.431-10.284,7.353-10.534s6.915,3.959,7.728,7.428c.813-3.469,2.809-7.677,7.728-7.428s7.64,5.4,7.353,10.534c-.25,4.494-2.943,9.712-6.312,14.531-5.036,7.2-8.769,13.325-8.769,13.325Z" fill="#d40000"/><path id="ebef2324-8b51-40b9-93da-e5c7035d1ae8" data-name="path10114-8-3" d="M48.375,65.052s-3.733-6.124-8.769-13.325c-3.369-4.818-6.062-10.036-6.312-14.53-.288-5.134,2.431-10.284,7.353-10.534s6.915,3.959,7.728,7.428c.813-3.47,2.809-7.677,7.728-7.428s7.64,5.4,7.353,10.534c-.25,4.494-2.943,9.712-6.312,14.53-5.036,7.2-8.769,13.325-8.769,13.325Z" fill="#d40000"/><path id="8d6dc031-6499-4375-b2f9-fee5865a671e" data-name="path10116-2-5" d="M131.2,144.421s-3.733-6.124-8.769-13.325c-3.368-4.819-6.062-10.036-6.312-14.53-.287-5.134,2.431-10.285,7.353-10.534s6.915,3.958,7.728,7.427c.813-3.469,2.809-7.677,7.728-7.427s7.641,5.4,7.353,10.534c-.25,4.494-2.943,9.711-6.312,14.53-5.036,7.2-8.769,13.325-8.769,13.325Z" fill="#d40000"/><path id="0204243d-ca81-4dfe-9058-d664e75efd0e" data-name="path10120-6-5" d="M131.2,65.052s-3.733-6.124-8.769-13.325c-3.368-4.818-6.062-10.036-6.312-14.53-.287-5.134,2.431-10.284,7.353-10.534s6.915,3.959,7.728,7.428c.813-3.47,2.809-7.677,7.728-7.428s7.641,5.4,7.353,10.534c-.25,4.494-2.943,9.712-6.312,14.53-5.036,7.2-8.769,13.325-8.769,13.325Z" fill="#d40000"/><path id="79c70335-b2d6-4bce-b0f0-74b93c33973a" data-name="path10124-1-1" d="M48.375,144.421S44.642,138.3,39.606,131.1c-3.369-4.819-6.062-10.036-6.312-14.53-.288-5.134,2.431-10.285,7.353-10.534s6.915,3.958,7.728,7.427c.813-3.469,2.809-7.677,7.728-7.427s7.64,5.4,7.353,10.534c-.25,4.494-2.943,9.711-6.312,14.53-5.036,7.2-8.769,13.325-8.769,13.325Z" fill="#d40000"/><path id="f02926e8-5eeb-4fd6-b9f7-090fe086b2cf" data-name="path10134-7-3" d="M131.2,185.39s-3.733,6.124-8.769,13.325c-3.368,4.818-6.062,10.036-6.312,14.53-.287,5.134,2.431,10.284,7.353,10.534s6.915-3.958,7.728-7.428c.813,3.469,2.809,7.677,7.728,7.428s7.641-5.4,7.353-10.534c-.25-4.494-2.943-9.712-6.312-14.53-5.036-7.2-8.769-13.325-8.769-13.325Z" fill="#d40000"/><path id="2149b7ef-36d1-4cf2-ab7f-6e149aea5f65" data-name="path10136-5-7" d="M48.375,185.39s-3.733,6.124-8.769,13.325c-3.369,4.818-6.062,10.036-6.312,14.53-.288,5.134,2.431,10.284,7.353,10.534s6.915-3.958,7.728-7.428c.813,3.469,2.809,7.677,7.728,7.428s7.64-5.4,7.353-10.534c-.25-4.494-2.943-9.712-6.312-14.53-5.036-7.2-8.769-13.325-8.769-13.325Z" fill="#d40000"/><path id="e289eafe-9cda-4429-9e5a-0869cf4e223b" data-name="path25-43-2-3-9" d="M10.211,37.964C11.948,28.785,13.8,21.9,18.649,14.416H8.785v3.219H6.166V11.567H20.594l1.779,2.849C17.219,20.042,12.5,38.23,13.337,37.964Z" fill="#d40000"/><path id="7475f256-9efe-44ee-b4fa-eb795b354451" data-name="path25-7-0-2-8-2" d="M169.363,212.478c-1.736,9.179-3.584,16.07-8.437,23.548h9.864v-3.219h2.618v6.068H158.981l-1.779-2.849c5.154-5.626,9.871-23.814,9.035-23.548Z" fill="#d40000"/></g><rect id="a3d48146-7bec-49f8-9588-8963fbe96d0f" data-name="rect17726" x="0.496" y="0.496" width="178.583" height="249.449" rx="8.504" ry="8.504" opacity="0.08" fill="url(#c215005b-75c5-41d6-9701-6727623d8ddb)" style="isolation:isolate"/></g></g></g></svg>