<svg xmlns="http://www.w3.org/2000/svg" xmlns:xlink="http://www.w3.org/1999/xlink" viewBox="0 0 179.576 250.442"><defs><pattern id="e5a53178-cc06-46e2-b28e-0a51d3b5d92b" data-name="pattern17648" width="595.276" height="841.89" patternTransform="matrix(0.8, 0, 0, -0.8, -615.4, 1249.292)" patternUnits="userSpaceOnUse" viewBox="0 0 595.276 841.89"><rect width="595.276" height="841.89" fill="none"/></pattern></defs><title>7S</title><g id="756b97d0-85c4-49bd-ac7d-7b420e89e854" data-name="Layer 2"><g id="c4f4f219-1bb6-46f9-b176-7712e4f25d47" data-name="Spades"><g id="ffbb2095-67a3-4427-a017-05bff660ecb7" data-name="7S"><g id="2d6bbe0e-8f25-4afa-abcd-b93d556ffd2a" data-name="g101019"><rect id="de26c153-ffe0-4b61-9faf-204375f3dd98" data-name="rect5386" x="0.496" y="0.496" width="178.583" height="249.449" rx="8.504" ry="8.504" fill="#fff" stroke="#b3b0b0" stroke-width="0.993"/><path id="f7301516-f563-435c-ab20-707357620121" data-name="path7086-8-0" d="M48.375,26.652C40.994,37.178,33.1,43.235,32.966,51.447c-.044,2.659,1.393,7.179,5.9,8.044,2.921.559,6.944-1.806,7.028-6.61-.013-.956,1.012-.932,1,.379a27.273,27.273,0,0,1-3.353,11.793h9.668A27.273,27.273,0,0,1,49.856,53.26c-.009-1.311,1.016-1.335,1-.379.084,4.8,4.107,7.169,7.029,6.61,4.5-.865,5.94-5.385,5.9-8.044-.131-8.212-8.028-14.269-15.409-24.795Z"/><path id="33d5f5ef-7c9a-4dd1-967b-e5ac6064deb6" data-name="path7088-9-3" d="M14.271,40.475c-3.449,4.386-7.139,6.91-7.2,10.331a3.322,3.322,0,0,0,2.755,3.352A2.86,2.86,0,0,0,13.11,51.4c-.008-.4.473-.388.468.158a10.44,10.44,0,0,1-1.566,4.913h4.517a10.44,10.44,0,0,1-1.566-4.913c-.008-.546.474-.557.468-.158a2.861,2.861,0,0,0,3.284,2.754,3.322,3.322,0,0,0,2.755-3.352c-.062-3.421-3.751-5.945-7.2-10.331Z"/><path id="058af47c-0731-4f3f-b63f-4b9e178da0af" data-name="path7092-7-0" d="M165.306,209.967c-3.448-4.386-7.138-6.91-7.2-10.331a3.322,3.322,0,0,1,2.755-3.352,2.86,2.86,0,0,1,3.283,2.754c-.008.4.474.389.469-.158a10.445,10.445,0,0,0-1.567-4.913h4.518A10.445,10.445,0,0,0,166,198.88c-.008.547.475.557.469.158a2.86,2.86,0,0,1,3.284-2.754,3.323,3.323,0,0,1,2.755,3.352C172.444,203.057,168.755,205.581,165.306,209.967Z"/><path id="c980a97c-1b4f-4471-881a-5ebdaa9ab29e" data-name="path7094-3-5" d="M131.2,26.652c-7.38,10.526-15.278,16.583-15.409,24.8-.044,2.659,1.394,7.179,5.9,8.044,2.921.559,6.944-1.806,7.028-6.61-.013-.956,1.013-.932,1,.379a27.273,27.273,0,0,1-3.353,11.793h9.669a27.259,27.259,0,0,1-3.353-11.793c-.01-1.311,1.015-1.335,1-.379.084,4.8,4.106,7.169,7.028,6.61,4.5-.865,5.941-5.385,5.9-8.044-.132-8.212-8.029-14.269-15.41-24.795Z"/><path id="b355b899-1fe1-479a-a146-24ddbe8e9ee9" data-name="path7098-7-3" d="M89.788,66.337C82.407,76.862,74.51,82.92,74.379,91.131c-.044,2.66,1.394,7.179,5.9,8.044,2.921.559,6.944-1.806,7.028-6.61-.013-.956,1.012-.931,1,.379a27.269,27.269,0,0,1-3.353,11.793h9.669a27.271,27.271,0,0,1-3.354-11.793c-.009-1.31,1.016-1.335,1-.379.084,4.8,4.106,7.169,7.028,6.61,4.5-.865,5.941-5.384,5.9-8.044-.131-8.211-8.028-14.269-15.409-24.794Z"/><path id="fe914381-e4ce-4e5e-9211-386cd1b16d69" data-name="path7105-0-7" d="M48.375,106.021c-7.381,10.526-15.278,16.583-15.409,24.8-.044,2.659,1.393,7.178,5.9,8.043,2.921.559,6.944-1.805,7.028-6.61-.013-.956,1.012-.931,1,.379a27.265,27.265,0,0,1-3.353,11.793h9.668a27.265,27.265,0,0,1-3.353-11.793c-.009-1.31,1.016-1.335,1-.379.084,4.805,4.107,7.169,7.029,6.61,4.5-.865,5.94-5.384,5.9-8.043-.131-8.212-8.028-14.269-15.409-24.795Z"/><path id="de93cae4-831e-4ce4-8ca6-cc00a2bd3df0" data-name="path7107-6-3" d="M48.375,223.79C40.994,213.264,33.1,207.207,32.966,199c-.044-2.659,1.393-7.179,5.9-8.044,2.921-.559,6.944,1.806,7.028,6.61-.013.956,1.012.932,1-.379a27.265,27.265,0,0,0-3.353-11.792h9.668a27.265,27.265,0,0,0-3.353,11.792c-.009,1.311,1.016,1.335,1,.379.084-4.8,4.107-7.169,7.029-6.61,4.5.865,5.94,5.385,5.9,8.044-.131,8.212-8.028,14.269-15.409,24.795Z"/><path id="0599d9f6-e49c-48d2-b439-a31a00f77721" data-name="path7109-5-0" d="M131.2,223.79c-7.38-10.526-15.278-16.583-15.409-24.795-.044-2.659,1.394-7.179,5.9-8.044,2.921-.559,6.944,1.806,7.028,6.61-.013.956,1.013.932,1-.379a27.265,27.265,0,0,0-3.353-11.792h9.669a27.251,27.251,0,0,0-3.353,11.792c-.01,1.311,1.015,1.335,1,.379.084-4.8,4.106-7.169,7.028-6.61,4.5.865,5.941,5.385,5.9,8.044-.132,8.212-8.029,14.269-15.41,24.795Z"/><path id="44d9b8ee-7247-4bab-a04c-bfb1d8f0826c" data-name="path7119-1-9" d="M131.2,106.021c-7.38,10.526-15.278,16.583-15.409,24.8-.044,2.659,1.394,7.178,5.9,8.043,2.921.559,6.944-1.805,7.028-6.61-.013-.956,1.013-.931,1,.379a27.265,27.265,0,0,1-3.353,11.793h9.669a27.252,27.252,0,0,1-3.353-11.793c-.01-1.31,1.015-1.335,1-.379.084,4.805,4.106,7.169,7.028,6.61,4.5-.865,5.941-5.384,5.9-8.043-.132-8.212-8.029-14.269-15.41-24.795Z"/><path id="6bdc60b4-1b93-407b-a6c0-b88e3a4f1a35" data-name="path25-4-6-4" d="M10.211,37.964C11.948,28.785,13.8,21.9,18.649,14.416H8.785v3.219H6.166V11.567H20.594l1.779,2.849C17.219,20.043,12.5,38.23,13.337,37.964Z"/><path id="85e9b500-ba08-4e77-911c-257fd272a17a" data-name="path25-4-1-9-1" d="M169.363,212.478c-1.736,9.179-3.584,16.07-8.437,23.548h9.864v-3.219h2.618v6.068H158.981l-1.779-2.849c5.154-5.626,9.871-23.814,9.035-23.548Z"/></g><rect id="7b77e83d-07dc-4367-a7db-4ed3b10c1a1a" data-name="rect17622" x="0.496" y="0.496" width="178.583" height="249.449" rx="8.504" ry="8.504" opacity="0.08" fill="url(#e5a53178-cc06-46e2-b28e-0a51d3b5d92b)" style="isolation:isolate"/></g></g></g></svg>