<svg xmlns="http://www.w3.org/2000/svg" xmlns:xlink="http://www.w3.org/1999/xlink" viewBox="0 0 179.576 250.442"><defs><pattern id="a495a292-3dc1-4b43-b823-e3db148cc35a" data-name="pattern17754" width="595.276" height="841.89" patternTransform="matrix(0.8, 0, 0, -0.8, -615.4, 1813.785)" patternUnits="userSpaceOnUse" viewBox="0 0 595.276 841.89"><rect width="595.276" height="841.89" fill="none"/></pattern></defs><title>8C</title><g id="c375937c-b869-42b7-8e36-204bc063cdad" data-name="Layer 2"><g id="8689082e-c9c3-4f54-9403-7662d149005a" data-name="Clubs"><g id="5a37b711-9830-455b-bf73-0267ff755b4c" data-name="8C"><g id="a569e172-28ec-4c6c-bdc1-291a94a3957b" data-name="g101140"><rect id="f2659876-d747-4826-be1a-1a229455c56f" data-name="rect5072" x="0.496" y="0.496" width="178.583" height="249.449" rx="8.504" ry="8.504" fill="#fff" stroke="#b3b0b0" stroke-width="0.993"/><path id="739b6879-012e-469d-9509-9d7e6e28038f" data-name="path147-0-8-1-6-13-2-2-3-8" d="M131.2,26.985c-7.855.171-11.377,9-5.56,15.862.844,1,.931,1.574-.614.613-3.917-2.615-11.427-.9-11.811,7.1-.475,9.853,13.31,12.692,15.9,2.215.136-1.106,1.036-1.081.819.489a32.577,32.577,0,0,1-3.4,12.12h9.338a32.577,32.577,0,0,1-3.4-12.12c-.217-1.57.682-1.595.819-.489,2.588,10.477,16.373,7.638,15.9-2.215-.385-8-7.895-9.716-11.811-7.1-1.545.961-1.458.387-.614-.613,5.817-6.859,2.295-15.691-5.56-15.862H131.2Z"/><path id="6e9b6c26-ba93-455e-9404-87f164daefbf" data-name="path147-0-8-1-6-75-2-83-9-8-9" d="M48.372,26.985c-7.855.171-11.377,9-5.56,15.862.844,1,.931,1.574-.614.613-3.917-2.615-11.427-.9-11.811,7.1-.475,9.853,13.309,12.692,15.9,2.215.136-1.106,1.036-1.081.819.489a32.577,32.577,0,0,1-3.4,12.12h9.337a32.577,32.577,0,0,1-3.4-12.12c-.217-1.57.683-1.595.82-.489,2.588,10.477,16.373,7.638,15.9-2.215-.385-8-7.895-9.716-11.811-7.1-1.546.961-1.459.387-.615-.613,5.817-6.859,2.3-15.691-5.559-15.862h-.006Z"/><path id="1a9fb8b6-06f7-437e-af2e-ac59055358fc" data-name="path147-0-8-1-6-7-5-5-7-62-3-0" d="M131.2,224.122c-7.855-.17-11.377-9-5.56-15.861.844-1,.931-1.575-.614-.614-3.917,2.616-11.426.9-11.811-7.1-.475-9.853,13.31-12.692,15.9-2.215.136,1.105,1.036,1.08.819-.489a32.582,32.582,0,0,0-3.4-12.121h9.338a32.582,32.582,0,0,0-3.4,12.121c-.217,1.569.682,1.594.819.489,2.588-10.477,16.373-7.638,15.9,2.215-.385,8-7.895,9.716-11.811,7.1-1.545-.961-1.458-.387-.614.614,5.817,6.859,2.295,15.691-5.56,15.861H131.2Z"/><path id="f6c2da34-242d-4229-bac8-911d6a039008" data-name="path147-0-8-1-6-75-6-1-2-41-4-5" d="M48.372,224.122c-7.855-.17-11.377-9-5.56-15.861.844-1,.931-1.575-.614-.614-3.917,2.616-11.427.9-11.811-7.1-.475-9.853,13.309-12.692,15.9-2.215.136,1.105,1.036,1.08.819-.489a32.582,32.582,0,0,0-3.4-12.121h9.337a32.582,32.582,0,0,0-3.4,12.121c-.217,1.569.683,1.594.82.489,2.588-10.477,16.373-7.638,15.9,2.215-.385,8-7.895,9.716-11.811,7.1-1.546-.961-1.459-.387-.615.614,5.817,6.859,2.3,15.691-5.559,15.861h-.006Z"/><path id="e35410a5-e39a-4fa9-9f3d-68c68e1f9bef" data-name="path147-0-8-1-6-2-00-7-5-5-3" d="M89.785,66.67c-7.855.17-11.377,9-5.56,15.861.844,1,.931,1.575-.614.614-3.917-2.616-11.426-.9-11.811,7.1-.475,9.853,13.31,12.692,15.9,2.215.137-1.106,1.036-1.08.819.489a32.582,32.582,0,0,1-3.4,12.121h9.338a32.582,32.582,0,0,1-3.4-12.121c-.217-1.569.683-1.594.819-.489,2.588,10.477,16.373,7.638,15.9-2.215-.385-8-7.894-9.716-11.811-7.1-1.545.961-1.458.386-.614-.614,5.817-6.859,2.3-15.691-5.56-15.861h-.006Z"/><path id="12861758-77fb-4f6f-acfa-1de66d047143" data-name="path147-0-8-1-6-7-5-7-3-0-4-4-6" d="M131.2,106.354c-7.855.17-11.377,9-5.56,15.861.844,1,.931,1.575-.614.614-3.917-2.616-11.427-.9-11.811,7.1-.475,9.853,13.31,12.692,15.9,2.215.136-1.105,1.036-1.08.819.489a32.582,32.582,0,0,1-3.4,12.121h9.338a32.582,32.582,0,0,1-3.4-12.121c-.217-1.569.682-1.594.819-.489,2.588,10.477,16.373,7.638,15.9-2.215-.385-8-7.895-9.716-11.811-7.1-1.545.961-1.458.387-.614-.614,5.817-6.859,2.295-15.691-5.56-15.861H131.2Z"/><path id="2675b64b-019f-4aa4-bfc8-1e27898ab67e" data-name="path147-0-8-1-6-75-6-6-5-3-2-4-8" d="M48.372,106.354c-7.855.17-11.377,9-5.56,15.861.844,1,.931,1.575-.614.614-3.917-2.616-11.427-.9-11.811,7.1-.475,9.853,13.309,12.692,15.9,2.215.136-1.105,1.036-1.08.819.489a32.582,32.582,0,0,1-3.4,12.121h9.337a32.582,32.582,0,0,1-3.4-12.121c-.217-1.569.683-1.594.82-.489,2.588,10.477,16.373,7.638,15.9-2.215-.385-8-7.895-9.716-11.811-7.1-1.546.961-1.459.387-.615-.614,5.817-6.859,2.3-15.691-5.559-15.861h-.006Z"/><path id="1a986f50-ea93-4e50-921d-66c3f8d3561b" data-name="path147-0-8-1-6-2-0-8-6-42-9-6" d="M89.785,184.438c-7.855-.17-11.377-9-5.559-15.861.843-1,.93-1.575-.615-.614-3.916,2.616-11.426.9-11.811-7.1-.475-9.853,13.31-12.692,15.9-2.215.137,1.1,1.036,1.08.819-.489a32.563,32.563,0,0,0-3.4-12.121h9.338a32.582,32.582,0,0,0-3.4,12.121c-.217,1.569.683,1.594.819.489,2.589-10.477,16.373-7.639,15.9,2.215-.384,8-7.894,9.716-11.811,7.1-1.545-.961-1.458-.387-.614.614,5.817,6.859,2.3,15.691-5.559,15.861h-.007Z"/><path id="9a56b204-a872-4786-933f-2e853934c449" data-name="path147-6-9-8-7-0-5-6-1-6-9" d="M165.307,209.967c3.142-.071,4.551-3.751,2.224-6.609-.338-.417-.372-.656.246-.256,1.566,1.09,4.57.374,4.724-2.958.19-4.105-5.324-5.288-6.359-.923-.055.461-.414.45-.328-.2a14,14,0,0,1,1.36-5.05h-3.735a14,14,0,0,1,1.359,5.05c.087.654-.273.665-.328.2-1.035-4.365-6.549-3.182-6.359.923.154,3.332,3.158,4.048,4.725,2.958.618-.4.583-.161.245.256-2.326,2.858-.918,6.538,2.224,6.609h0Z"/><path id="25eee3f1-fc4b-4f7b-bda6-87e18b5b2026" data-name="path147-6-9-8-7-4-5-62-4-0-0" d="M14.269,40.475c-3.142.071-4.55,3.751-2.223,6.609.337.417.372.656-.246.256-1.567-1.09-4.571-.374-4.725,2.958-.189,4.106,5.324,5.289,6.36.923.054-.46.414-.45.327.2a14,14,0,0,1-1.359,5.05h3.735a14,14,0,0,1-1.359-5.05c-.087-.654.273-.664.328-.2,1.035,4.366,6.549,3.183,6.359-.923-.154-3.332-3.158-4.048-4.725-2.958-.618.4-.583.161-.245-.256,2.327-2.858.918-6.538-2.224-6.609h0Z"/><path id="cab1267a-db67-450b-b563-cfc523d14d9c" data-name="path27-3-3-2" d="M5.694,30.234c.125-3.544,1.407-4.873,3.93-6.728a6.105,6.105,0,0,1-2.689-5.414c.415-4.411,3.821-6.616,7.538-6.522s6.923,3.047,7.173,6.253a5.451,5.451,0,0,1-2.588,5.6C21.4,25.4,22.9,26.7,22.847,30.193a8.209,8.209,0,0,1-8.2,7.771c-5.176.127-9.081-4.186-8.952-7.73Zm14.448.013c.221-3.209-2.616-5.373-5.818-5.405a5.9,5.9,0,0,0-5.906,5.509c0,3.093,3.628,4.774,5.971,4.782,2.848.013,5.56-2.124,5.753-4.886ZM19.117,18.768a4.708,4.708,0,0,0-5-4.559c-2.286.07-4.7,1.814-4.708,4.072,0,2.828,2.752,4.24,5.1,4.294,2.134.048,4.56-1.765,4.608-3.807Z"/><path id="baccb2c8-57a2-462c-8860-da265e4add5a" data-name="path27-0-0-5-0" d="M156.729,220.208c.126,3.544,1.407,4.874,3.93,6.728a6.107,6.107,0,0,0-2.688,5.414c.414,4.412,3.821,6.617,7.538,6.523s6.922-3.048,7.172-6.254a5.452,5.452,0,0,0-2.588-5.6c2.346-1.981,3.845-3.282,3.789-6.773a8.208,8.208,0,0,0-8.2-7.771c-5.176-.127-9.081,4.186-8.953,7.731h0Zm14.448-.012c.222,3.208-2.615,5.373-5.817,5.4a5.9,5.9,0,0,1-5.906-5.508c0-3.094,3.628-4.775,5.971-4.782,2.848-.013,5.56,2.123,5.752,4.886Zm-1.024,11.478a4.707,4.707,0,0,1-5,4.559c-2.286-.07-4.7-1.813-4.709-4.072,0-2.827,2.753-4.239,5.1-4.294,2.133-.048,4.56,1.765,4.608,3.807Z"/></g><rect id="223d1f1d-61a8-4c2e-852e-389e5dc4be5b" data-name="rect17702" x="0.496" y="0.496" width="178.583" height="249.449" rx="8.504" ry="8.504" opacity="0.08" fill="url(#a495a292-3dc1-4b43-b823-e3db148cc35a)" style="isolation:isolate"/></g></g></g></svg>