<svg xmlns="http://www.w3.org/2000/svg" xmlns:xlink="http://www.w3.org/1999/xlink" viewBox="0 0 179.579 250.446"><defs><pattern id="bc29d379-50a9-49df-b45d-12d136451780" data-name="pattern17600" width="595.276" height="841.89" patternTransform="matrix(0.8, 0, 0, -0.8, -615.4, 967.046)" patternUnits="userSpaceOnUse" viewBox="0 0 595.276 841.89"><rect width="595.276" height="841.89" fill="none"/></pattern></defs><title>8D</title><g id="05061e49-ba46-42fa-9e2e-0c5e9bcdcce0" data-name="Layer 2"><g id="6b75bfa8-6c94-4164-969e-53d277af981a" data-name="Diamonds"><g id="64fbb4d1-1eb6-46a9-a63a-ac8e1f7f0c31" data-name="8D"><g id="3003b78a-4a7a-4526-89f1-889a816eb2a1" data-name="g101047"><rect id="7aad7ef4-089a-489e-9a1a-dcd618a5d3cc" data-name="rect6116" x="0.498" y="0.498" width="178.583" height="249.449" rx="8.504" ry="8.504" fill="#fff" stroke="#b3b0b0" stroke-width="0.997"/><path id="af5e8272-bda0-437f-ae78-8b2e73d157b9" data-name="path6926-2" d="M14.273,56.477a45.124,45.124,0,0,0-5.821-8,45.124,45.124,0,0,0,5.821-8,45.069,45.069,0,0,0,5.82,8A45.069,45.069,0,0,0,14.273,56.477Z" fill="#d40000"/><path id="8c100560-d5a1-4c06-9f18-927d95422cc8" data-name="path6928-9" d="M131.2,65.054c-4.149-6.851-8.514-13.511-13.969-19.2,5.455-5.688,9.82-12.348,13.969-19.2,4.149,6.852,8.514,13.512,13.969,19.2C139.717,51.543,135.352,58.2,131.2,65.054Z" fill="#d40000"/><path id="10e9d650-0981-4cc8-952b-727dec4dd94d" data-name="path6930-6" d="M165.308,209.969a45.119,45.119,0,0,0-5.82-8,45.119,45.119,0,0,0,5.82-8,45.119,45.119,0,0,0,5.82,8A45.119,45.119,0,0,0,165.308,209.969Z" fill="#d40000"/><path id="05751e79-fcac-4529-962d-eaeafbd5f41f" data-name="path6932-2" d="M48.377,65.054c-4.149-6.851-8.514-13.511-13.969-19.2,5.455-5.688,9.82-12.348,13.969-19.2,4.149,6.852,8.514,13.512,13.969,19.2C56.891,51.543,52.526,58.2,48.377,65.054Z" fill="#d40000"/><path id="3bb68d8e-9d06-4856-af22-f68dea64d670" data-name="path6938-4" d="M89.79,104.726c-4.149-6.852-8.514-13.512-13.969-19.2,5.455-5.689,9.82-12.348,13.969-19.2,4.149,6.852,8.514,13.511,13.969,19.2-5.455,5.688-9.82,12.348-13.969,19.2Z" fill="#d40000"/><path id="7181295e-5754-460b-848d-3877fa2d8986" data-name="path6942-4" d="M48.377,144.4c-4.149-6.852-8.514-13.511-13.969-19.2,5.455-5.689,9.82-12.348,13.969-19.2,4.149,6.852,8.514,13.511,13.969,19.2C56.891,130.886,52.526,137.545,48.377,144.4Z" fill="#d40000"/><path id="ec4a7c74-39ec-41a0-ab36-199e085b7222" data-name="path6944-9" d="M131.2,144.409c-4.149-6.851-8.514-13.511-13.969-19.2,5.455-5.688,9.82-12.348,13.969-19.2,4.149,6.852,8.514,13.512,13.969,19.2C139.717,130.9,135.352,137.558,131.2,144.409Z" fill="#d40000"/><path id="e7cf51a4-1542-4093-87c1-4476962bc00d" data-name="path6948-4" d="M48.377,223.8c-4.149-6.851-8.514-13.511-13.969-19.2,5.455-5.688,9.82-12.348,13.969-19.2,4.149,6.852,8.514,13.512,13.969,19.2C56.891,210.284,52.526,216.944,48.377,223.8Z" fill="#d40000"/><path id="57249442-486e-4396-aef0-29c02db4ba3d" data-name="path6950-4" d="M131.2,223.8c-4.149-6.852-8.514-13.511-13.969-19.2,5.455-5.689,9.82-12.348,13.969-19.2,4.149,6.852,8.514,13.511,13.969,19.2C139.717,210.29,135.352,216.949,131.2,223.8Z" fill="#d40000"/><path id="e36da28b-f579-49e3-a37d-d7d8e489def8" data-name="path6956-4" d="M89.79,184.1c-4.149-6.852-8.514-13.511-13.969-19.2,5.455-5.688,9.82-12.348,13.969-19.2,4.149,6.852,8.514,13.512,13.969,19.2C98.3,170.585,93.939,177.244,89.79,184.1Z" fill="#d40000"/><path id="4ad397e5-f0f9-4538-a24b-2d1659bc1e61" data-name="path27-00-7-8-6" d="M5.7,30.236c.125-3.544,1.407-4.874,3.93-6.728a6.105,6.105,0,0,1-2.689-5.414c.414-4.411,3.821-6.617,7.538-6.522s6.922,3.047,7.172,6.253a5.451,5.451,0,0,1-2.588,5.6C21.406,25.4,22.9,26.7,22.849,30.2a8.208,8.208,0,0,1-8.2,7.771c-5.175.127-9.081-4.186-8.952-7.73Zm14.448.013c.221-3.209-2.616-5.374-5.818-5.4A5.9,5.9,0,0,0,8.42,30.352c0,3.094,3.628,4.775,5.971,4.783,2.848.012,5.56-2.124,5.753-4.886ZM19.119,18.77a4.707,4.707,0,0,0-5-4.559c-2.287.07-4.7,1.813-4.709,4.072,0,2.827,2.752,4.239,5.1,4.294,2.133.048,4.559-1.765,4.607-3.807Z" fill="#d40000"/><path id="b3b9f486-169c-4a8a-8923-c10212e64d55" data-name="path27-0-1-9-8" d="M156.731,220.21c.126,3.544,1.407,4.874,3.93,6.728a6.1,6.1,0,0,0-2.688,5.414c.414,4.411,3.821,6.617,7.538,6.522s6.922-3.047,7.172-6.253a5.451,5.451,0,0,0-2.588-5.6c2.346-1.981,3.845-3.282,3.789-6.773a8.208,8.208,0,0,0-8.2-7.771c-5.176-.127-9.081,4.186-8.953,7.73Zm14.448-.013c.221,3.209-2.615,5.374-5.817,5.405a5.9,5.9,0,0,1-5.906-5.508c0-3.094,3.628-4.775,5.97-4.783,2.849-.012,5.561,2.124,5.753,4.886Zm-1.024,11.479a4.708,4.708,0,0,1-5,4.559c-2.286-.07-4.7-1.813-4.709-4.072,0-2.827,2.753-4.239,5.1-4.294,2.133-.048,4.56,1.765,4.608,3.807Z" fill="#d40000"/></g><rect id="7fc1e556-a4a3-49b8-ae09-91ee0fa16398" data-name="rect16706" x="0.498" y="0.498" width="178.583" height="249.449" rx="8.504" ry="8.504" opacity="0.08" fill="url(#bc29d379-50a9-49df-b45d-12d136451780)" style="isolation:isolate"/></g></g></g></svg>