<svg xmlns="http://www.w3.org/2000/svg" xmlns:xlink="http://www.w3.org/1999/xlink" viewBox="0 0 179.576 250.442"><defs><pattern id="973eaa83-a767-47be-bc7f-7de3aafadb23" data-name="pattern17780" width="595.276" height="841.89" patternTransform="matrix(0.8, 0, 0, -0.8, -615.4, 1531.539)" patternUnits="userSpaceOnUse" viewBox="0 0 595.276 841.89"><rect width="595.276" height="841.89" fill="none"/></pattern></defs><title>8H</title><g id="17d92373-0652-47ec-bcc5-9309b0ce352e" data-name="Layer 2"><g id="51ad252a-2ff6-4564-a54b-576d6c6aeb1e" data-name="Hearts"><g id="c130ed26-8a34-4d76-9524-6dd2b6739790" data-name="8H"><g id="783c2ea2-1678-4c4e-b8c0-5f0bb4217fde" data-name="g101109"><rect id="25ccb06b-5a79-4848-b4ad-12d72a286b27" data-name="rect5769" x="0.496" y="0.496" width="178.583" height="249.449" rx="8.504" ry="8.504" fill="#fff" stroke="#b3b0b0" stroke-width="0.993"/><path id="b5fd285d-e3d4-44ad-8a4e-10fe93ba088e" data-name="path10174-9-0" d="M14.271,56.475s-1.78-2.552-4.181-5.552c-1.606-2.008-2.89-4.182-3.009-6.054a3.878,3.878,0,0,1,3.505-4.389c2.345-.1,3.3,1.649,3.685,3.094.387-1.445,1.339-3.2,3.684-3.094a3.878,3.878,0,0,1,3.506,4.389c-.119,1.872-1.4,4.046-3.01,6.054-2.4,3-4.18,5.552-4.18,5.552Z" fill="#d40000"/><path id="bfb762d0-d8fe-49a8-94bd-4c6ac305dd3a" data-name="path10176-9-9" d="M165.306,193.967s-1.78,2.552-4.18,5.552c-1.607,2.008-2.891,4.182-3.01,6.054a3.879,3.879,0,0,0,3.5,4.39c2.346.1,3.3-1.65,3.685-3.095.388,1.445,1.339,3.2,3.685,3.095a3.879,3.879,0,0,0,3.5-4.39c-.119-1.872-1.4-4.046-3.009-6.054C167.086,196.519,165.307,193.969,165.306,193.967Z" fill="#d40000"/><path id="8fefb584-c67d-4ac1-bc5a-a77ce7e10347" data-name="path10178-8-4" d="M89.788,104.737s-3.733-6.125-8.769-13.325c-3.368-4.819-6.062-10.037-6.312-14.531-.288-5.134,2.431-10.284,7.353-10.534s6.915,3.959,7.728,7.428c.813-3.469,2.809-7.677,7.728-7.428s7.64,5.4,7.353,10.534c-.25,4.494-2.943,9.712-6.312,14.531-5.036,7.2-8.769,13.325-8.769,13.325Z" fill="#d40000"/><path id="72f5929b-72ad-4643-9113-185ecd3e789c" data-name="path10182-1-9" d="M48.375,65.052s-3.733-6.124-8.769-13.325c-3.369-4.818-6.062-10.036-6.312-14.53-.288-5.134,2.431-10.284,7.353-10.534s6.915,3.959,7.728,7.428c.813-3.47,2.809-7.677,7.728-7.428s7.64,5.4,7.353,10.534c-.25,4.494-2.943,9.712-6.312,14.53-5.036,7.2-8.769,13.325-8.769,13.325Z" fill="#d40000"/><path id="219ac005-6c32-438b-a7bf-f38963789ea8" data-name="path10184-9-1" d="M131.2,144.421s-3.733-6.124-8.769-13.325c-3.368-4.819-6.062-10.036-6.312-14.53-.287-5.134,2.431-10.285,7.353-10.534s6.915,3.958,7.728,7.427c.813-3.469,2.809-7.677,7.728-7.427s7.641,5.4,7.353,10.534c-.25,4.494-2.943,9.711-6.312,14.53-5.036,7.2-8.769,13.325-8.769,13.325Z" fill="#d40000"/><path id="0a65a02d-7c82-4c52-858f-b99842014985" data-name="path10188-5-4" d="M131.2,65.052s-3.733-6.124-8.769-13.325c-3.368-4.818-6.062-10.036-6.312-14.53-.287-5.134,2.431-10.284,7.353-10.534s6.915,3.959,7.728,7.428c.813-3.47,2.809-7.677,7.728-7.428s7.641,5.4,7.353,10.534c-.25,4.494-2.943,9.712-6.312,14.53-5.036,7.2-8.769,13.325-8.769,13.325Z" fill="#d40000"/><path id="5fdb5092-ff89-4e8d-b6c6-a174917ad601" data-name="path10192-3-6" d="M48.375,144.421S44.642,138.3,39.606,131.1c-3.369-4.819-6.062-10.036-6.312-14.53-.288-5.134,2.431-10.285,7.353-10.534s6.915,3.958,7.728,7.427c.813-3.469,2.809-7.677,7.728-7.427s7.64,5.4,7.353,10.534c-.25,4.494-2.943,9.711-6.312,14.53-5.036,7.2-8.769,13.325-8.769,13.325Z" fill="#d40000"/><path id="a8490015-9a6a-4880-bbb3-31aa71db8e2f" data-name="path10196-7-3" d="M89.788,145.705s-3.733,6.125-8.769,13.325c-3.368,4.819-6.062,10.037-6.312,14.531-.287,5.134,2.431,10.284,7.353,10.534s6.915-3.959,7.728-7.428c.813,3.469,2.809,7.677,7.728,7.428s7.641-5.4,7.353-10.534c-.25-4.494-2.943-9.712-6.312-14.531-5.036-7.2-8.769-13.325-8.769-13.325Z" fill="#d40000"/><path id="fb6bc474-9b43-49a6-bd52-787762dfba77" data-name="path10202-2-8" d="M131.2,185.39s-3.733,6.124-8.769,13.325c-3.368,4.818-6.062,10.036-6.312,14.53-.287,5.134,2.431,10.284,7.353,10.534s6.915-3.958,7.728-7.428c.813,3.469,2.809,7.677,7.728,7.428s7.641-5.4,7.353-10.534c-.25-4.494-2.943-9.712-6.312-14.53-5.036-7.2-8.769-13.325-8.769-13.325Z" fill="#d40000"/><path id="53e9a60d-0486-4f3d-9e17-36334433b528" data-name="path10204-9-4" d="M48.375,185.39s-3.733,6.124-8.769,13.325c-3.369,4.818-6.062,10.036-6.312,14.53-.288,5.134,2.431,10.284,7.353,10.534s6.915-3.958,7.728-7.428c.813,3.469,2.809,7.677,7.728,7.428s7.64-5.4,7.353-10.534c-.25-4.494-2.943-9.712-6.312-14.53-5.036-7.2-8.769-13.325-8.769-13.325Z" fill="#d40000"/><path id="3c061f0d-0572-4caf-9e46-dbf959c3682f" data-name="path27-00-0-7-4" d="M5.694,30.234c.125-3.544,1.407-4.874,3.93-6.728a6.105,6.105,0,0,1-2.689-5.414c.415-4.411,3.821-6.617,7.538-6.522s6.923,3.047,7.173,6.253a5.451,5.451,0,0,1-2.588,5.6C21.4,25.4,22.9,26.7,22.847,30.193a8.209,8.209,0,0,1-8.2,7.771c-5.176.127-9.081-4.186-8.952-7.73Zm14.448.013c.221-3.209-2.616-5.373-5.818-5.405A5.9,5.9,0,0,0,8.418,30.35c0,3.094,3.628,4.775,5.971,4.783,2.848.012,5.56-2.124,5.753-4.886ZM19.117,18.768a4.708,4.708,0,0,0-5-4.559c-2.286.071-4.7,1.813-4.708,4.072,0,2.827,2.752,4.24,5.1,4.294,2.134.048,4.56-1.765,4.608-3.807Z" fill="#d40000"/><path id="ad574418-a539-4b0c-a72a-cd40a906a995" data-name="path27-0-1-0-8-9" d="M156.729,220.208c.126,3.544,1.407,4.874,3.93,6.728a6.107,6.107,0,0,0-2.688,5.414c.414,4.412,3.821,6.617,7.538,6.522s6.922-3.047,7.172-6.253a5.452,5.452,0,0,0-2.588-5.6c2.346-1.981,3.845-3.282,3.789-6.773a8.208,8.208,0,0,0-8.2-7.771c-5.176-.127-9.081,4.186-8.953,7.73Zm14.448-.012c.222,3.208-2.615,5.373-5.817,5.4a5.9,5.9,0,0,1-5.906-5.508c0-3.094,3.628-4.775,5.971-4.783,2.848-.012,5.56,2.124,5.752,4.886h0Zm-1.024,11.478a4.707,4.707,0,0,1-5,4.559c-2.286-.07-4.7-1.813-4.709-4.072,0-2.827,2.753-4.239,5.1-4.294,2.133-.048,4.56,1.765,4.608,3.807Z" fill="#d40000"/></g><rect id="f714d9c8-3999-4a66-972e-d55269bfbaa5" data-name="rect17728" x="0.496" y="0.496" width="178.583" height="249.449" rx="8.504" ry="8.504" opacity="0.08" fill="url(#973eaa83-a767-47be-bc7f-7de3aafadb23)" style="isolation:isolate"/></g></g></g></svg>