<svg xmlns="http://www.w3.org/2000/svg" xmlns:xlink="http://www.w3.org/1999/xlink" viewBox="0 0 179.576 250.442"><defs><pattern id="ac902621-ee4e-4766-820e-4aac070ffe0c" data-name="pattern17650" width="595.276" height="841.89" patternTransform="matrix(0.8, 0, 0, -0.8, -615.4, 1249.292)" patternUnits="userSpaceOnUse" viewBox="0 0 595.276 841.89"><rect width="595.276" height="841.89" fill="none"/></pattern></defs><title>8S</title><g id="2f6b9bf8-3430-4fa4-ac1d-8441a77e1c58" data-name="Layer 2"><g id="68ab7045-f6a4-44f3-8e06-0db17b2383cc" data-name="Spades"><g id="ac6f12c2-c829-484f-9568-2539d6e75465" data-name="8S"><g id="bede7a1d-0c4e-472e-91f6-a78c540cb8d0" data-name="g101078"><rect id="114bb992-f80d-4668-9cf8-be930e650022" data-name="rect5412" x="0.496" y="0.496" width="178.583" height="249.449" rx="8.504" ry="8.504" fill="#fff" stroke="#b3b0b0" stroke-width="0.993"/><path id="3142894b-4203-42fa-9b9c-ebdbd889c597" data-name="path7155-4-0" d="M48.375,26.652C40.994,37.178,33.1,43.235,32.966,51.447c-.045,2.659,1.393,7.179,5.9,8.044,2.922.559,6.944-1.806,7.028-6.61-.013-.956,1.013-.932,1,.379A27.261,27.261,0,0,1,43.54,65.053h9.669A27.273,27.273,0,0,1,49.856,53.26c-.009-1.311,1.016-1.335,1-.379.084,4.8,4.107,7.169,7.028,6.61,4.5-.865,5.941-5.385,5.9-8.044-.131-8.212-8.028-14.269-15.409-24.795Z"/><path id="d8c5e15a-69f7-45a3-be17-fa793ee68d2e" data-name="path7157-2-9" d="M14.271,40.475c-3.449,4.386-7.139,6.91-7.2,10.331a3.322,3.322,0,0,0,2.755,3.352A2.86,2.86,0,0,0,13.11,51.4c-.008-.4.473-.388.468.158a10.44,10.44,0,0,1-1.566,4.913h4.517a10.44,10.44,0,0,1-1.566-4.913c-.008-.546.474-.557.468-.158a2.861,2.861,0,0,0,3.284,2.754,3.322,3.322,0,0,0,2.755-3.352c-.062-3.421-3.751-5.945-7.2-10.331Z"/><path id="0fefcaa8-8f4a-4bfe-bb85-9b8a972e8ecb" data-name="path7162-7-0" d="M165.306,209.967c-3.448-4.386-7.138-6.91-7.2-10.331a3.322,3.322,0,0,1,2.755-3.352,2.86,2.86,0,0,1,3.283,2.754c-.008.4.473.389.469-.158a10.445,10.445,0,0,0-1.567-4.913h4.518A10.445,10.445,0,0,0,166,198.88c-.008.547.475.557.469.158a2.86,2.86,0,0,1,3.283-2.754,3.324,3.324,0,0,1,2.756,3.352C172.444,203.057,168.754,205.581,165.306,209.967Z"/><path id="aac32253-79b0-4566-8f9d-3c81529fdce7" data-name="path7164-8-3" d="M131.2,26.652c-7.381,10.526-15.278,16.583-15.409,24.8-.044,2.659,1.394,7.179,5.9,8.044,2.921.559,6.944-1.806,7.028-6.61-.013-.956,1.012-.932,1,.379a27.273,27.273,0,0,1-3.353,11.793h9.668a27.273,27.273,0,0,1-3.353-11.793c-.009-1.311,1.016-1.335,1-.379.083,4.8,4.106,7.169,7.028,6.61,4.5-.865,5.941-5.385,5.9-8.044-.131-8.212-8.028-14.269-15.409-24.795Z"/><path id="e5c9eacb-9b79-42cc-9611-180b4128a5c0" data-name="path7168-3-2" d="M89.788,66.337C82.407,76.862,74.51,82.92,74.379,91.131c-.044,2.66,1.393,7.179,5.9,8.044,2.921.559,6.944-1.806,7.028-6.61-.013-.956,1.012-.931,1,.379a27.269,27.269,0,0,1-3.353,11.793h9.668a27.269,27.269,0,0,1-3.353-11.793c-.009-1.31,1.016-1.335,1-.379.084,4.8,4.107,7.169,7.028,6.61,4.5-.865,5.941-5.384,5.9-8.044-.131-8.211-8.028-14.269-15.409-24.794Z"/><path id="060ab5da-e430-428d-a854-9f5fd4b07112" data-name="path7174-5-0" d="M48.375,106.021c-7.381,10.526-15.278,16.583-15.409,24.8-.045,2.659,1.393,7.178,5.9,8.043,2.922.559,6.944-1.805,7.028-6.61-.013-.956,1.013-.931,1,.379a27.253,27.253,0,0,1-3.354,11.793h9.669a27.265,27.265,0,0,1-3.353-11.793c-.009-1.31,1.016-1.335,1-.379.084,4.805,4.107,7.169,7.028,6.61,4.5-.865,5.941-5.384,5.9-8.043-.131-8.212-8.028-14.269-15.409-24.795Z"/><path id="651abc34-1363-486d-97e5-3f2b0f5d90e5" data-name="path7176-7-0" d="M48.375,223.79C40.994,213.264,33.1,207.207,32.966,199c-.045-2.659,1.393-7.179,5.9-8.044,2.922-.559,6.944,1.806,7.028,6.61-.013.956,1.013.932,1-.379A27.253,27.253,0,0,0,43.54,185.39h9.669a27.265,27.265,0,0,0-3.353,11.792c-.009,1.311,1.016,1.335,1,.379.084-4.8,4.107-7.169,7.028-6.61,4.5.865,5.941,5.385,5.9,8.044-.131,8.212-8.028,14.269-15.409,24.795Z"/><path id="ba2b3a6b-2591-4839-b3a3-a0dea1611fc1" data-name="path7178-9-4" d="M131.2,223.79c-7.381-10.526-15.278-16.583-15.409-24.795-.044-2.659,1.394-7.179,5.9-8.044,2.921-.559,6.944,1.806,7.028,6.61-.013.956,1.012.932,1-.379a27.265,27.265,0,0,0-3.353-11.792h9.668a27.265,27.265,0,0,0-3.353,11.792c-.009,1.311,1.016,1.335,1,.379.083-4.8,4.106-7.169,7.028-6.61,4.5.865,5.941,5.385,5.9,8.044-.131,8.212-8.028,14.269-15.409,24.795Z"/><path id="8a047661-1ab4-42af-8a3f-8ad2222d0d54" data-name="path7180-5-1" d="M89.788,184.105c-7.381-10.525-15.278-16.583-15.409-24.794-.044-2.659,1.393-7.179,5.9-8.044,2.921-.559,6.944,1.806,7.028,6.61-.013.956,1.012.931,1-.379a27.269,27.269,0,0,0-3.353-11.793h9.668A27.269,27.269,0,0,0,91.269,157.5c-.009,1.31,1.016,1.335,1,.379.084-4.8,4.107-7.169,7.028-6.61,4.5.865,5.941,5.385,5.9,8.044-.131,8.211-8.028,14.269-15.409,24.794Z"/><path id="2736e9cc-c2af-4cf5-9a97-c17b6165525f" data-name="path7189-7-7" d="M131.2,106.021c-7.381,10.526-15.278,16.583-15.409,24.8-.044,2.659,1.394,7.178,5.9,8.043,2.921.559,6.944-1.805,7.028-6.61-.013-.956,1.012-.931,1,.379a27.265,27.265,0,0,1-3.353,11.793h9.668a27.265,27.265,0,0,1-3.353-11.793c-.009-1.31,1.016-1.335,1-.379.083,4.805,4.106,7.169,7.028,6.61,4.5-.865,5.941-5.384,5.9-8.043-.131-8.212-8.028-14.269-15.409-24.795Z"/><path id="f01e5cd2-3502-49bf-a7b7-e753cab1d12e" data-name="path27-43-30-7" d="M5.694,30.234c.125-3.544,1.407-4.874,3.93-6.728a6.105,6.105,0,0,1-2.689-5.414c.415-4.411,3.821-6.617,7.538-6.522s6.922,3.047,7.172,6.253a5.452,5.452,0,0,1-2.587,5.6C21.4,25.4,22.9,26.7,22.847,30.193a8.208,8.208,0,0,1-8.2,7.771c-5.176.127-9.081-4.186-8.952-7.73Zm14.448.013c.221-3.209-2.616-5.374-5.818-5.405A5.9,5.9,0,0,0,8.418,30.35c0,3.094,3.628,4.775,5.971,4.783,2.848.013,5.56-2.124,5.753-4.886ZM19.117,18.768a4.707,4.707,0,0,0-5-4.559c-2.286.07-4.7,1.813-4.708,4.072,0,2.827,2.752,4.239,5.1,4.294,2.134.048,4.56-1.765,4.608-3.807Z"/><path id="fc62a510-3811-43d0-bb33-bd924a631b52" data-name="path27-43-3-4-8" d="M156.729,220.208c.126,3.544,1.407,4.874,3.93,6.728a6.1,6.1,0,0,0-2.688,5.414c.414,4.412,3.821,6.617,7.538,6.522s6.922-3.047,7.172-6.253a5.452,5.452,0,0,0-2.588-5.6c2.346-1.981,3.845-3.282,3.789-6.773a8.208,8.208,0,0,0-8.2-7.771c-5.176-.127-9.081,4.186-8.953,7.73Zm14.448-.012c.221,3.208-2.615,5.373-5.817,5.4a5.9,5.9,0,0,1-5.906-5.508c0-3.094,3.628-4.775,5.971-4.783,2.848-.012,5.56,2.124,5.752,4.887Zm-1.024,11.478a4.708,4.708,0,0,1-5,4.559c-2.286-.07-4.705-1.813-4.709-4.072,0-2.827,2.753-4.239,5.1-4.294,2.133-.048,4.559,1.765,4.608,3.807Z"/></g><rect id="ac84f0a9-1ac9-48f9-af99-bda01e715e90" data-name="rect17624" x="0.496" y="0.496" width="178.583" height="249.449" rx="8.504" ry="8.504" opacity="0.08" fill="url(#ac902621-ee4e-4766-820e-4aac070ffe0c)" style="isolation:isolate"/></g></g></g></svg>