<svg xmlns="http://www.w3.org/2000/svg" xmlns:xlink="http://www.w3.org/1999/xlink" viewBox="0 0 179.576 250.442"><defs><pattern id="e04fbab8-0e8f-4c54-96a6-15240ad23a2b" data-name="pattern17756" width="595.276" height="841.89" patternTransform="matrix(0.8, 0, 0, -0.8, -615.4, 1813.785)" patternUnits="userSpaceOnUse" viewBox="0 0 595.276 841.89"><rect width="595.276" height="841.89" fill="none"/></pattern></defs><title>9C</title><g id="10ced1db-df0e-4ab5-82c6-bac32450ce4f" data-name="Layer 2"><g id="3710c741-623a-4b7e-b19a-77e5478ce4ed" data-name="Clubs"><g id="ac8f7fe0-bb90-465d-b354-8a6aae35ad51" data-name="9C"><g id="a08c2d1e-d483-49f7-9e8e-4e82e85124b1" data-name="g101155"><rect id="5e0bc70b-3daa-4f17-941b-b0b21d6161df" data-name="rect5100" x="0.496" y="0.496" width="178.583" height="249.449" rx="8.504" ry="8.504" fill="#fff" stroke="#b3b0b0" stroke-width="0.993"/><path id="e6a83c8e-4020-41dd-a212-64fd26376389" data-name="path147-0-8-1-6-13-2-9-8-8" d="M131.2,26.985c-7.855.171-11.377,9-5.56,15.862.844,1,.931,1.574-.614.613-3.917-2.615-11.427-.9-11.811,7.1-.475,9.853,13.31,12.692,15.9,2.214.137-1.1,1.036-1.08.819.489a32.576,32.576,0,0,1-3.4,12.121h9.338a32.558,32.558,0,0,1-3.4-12.121c-.217-1.569.682-1.594.819-.489,2.588,10.478,16.373,7.639,15.9-2.214-.385-8-7.895-9.717-11.811-7.1-1.545.961-1.458.387-.614-.613,5.817-6.859,2.295-15.691-5.56-15.862H131.2Z"/><path id="ed39976a-7ac1-4155-af4d-341e74b6fc39" data-name="path147-0-8-1-6-75-2-83-3-5-0" d="M48.372,26.985c-7.855.171-11.377,9-5.56,15.862.844,1,.931,1.574-.614.613-3.917-2.615-11.427-.9-11.811,7.1-.475,9.853,13.309,12.692,15.9,2.214.136-1.1,1.036-1.08.819.489a32.576,32.576,0,0,1-3.4,12.121h9.337a32.576,32.576,0,0,1-3.4-12.121c-.217-1.569.683-1.594.82-.489,2.588,10.478,16.373,7.639,15.9-2.214-.385-8-7.895-9.717-11.811-7.1-1.545.961-1.458.387-.615-.613,5.817-6.859,2.3-15.691-5.559-15.862h-.006Z"/><path id="90825b7c-a5d2-489e-8b3a-c068cee80e7f" data-name="path147-0-8-1-6-7-5-5-7-63-0-4" d="M131.2,224.122c-7.855-.17-11.377-9-5.56-15.861.844-1,.931-1.575-.614-.614-3.917,2.616-11.427.9-11.811-7.1-.475-9.853,13.31-12.692,15.9-2.215.137,1.105,1.036,1.08.819-.489a32.582,32.582,0,0,0-3.4-12.121h9.338a32.563,32.563,0,0,0-3.4,12.121c-.217,1.569.682,1.594.819.489,2.588-10.477,16.373-7.638,15.9,2.215-.385,8-7.895,9.716-11.811,7.1-1.545-.961-1.458-.387-.614.614,5.817,6.859,2.295,15.691-5.56,15.861H131.2Z"/><path id="c940322c-48a3-4e5a-bb2b-676ca355a51f" data-name="path147-0-8-1-6-75-6-1-2-46-5-0" d="M48.372,224.122c-7.855-.17-11.377-9-5.56-15.861.844-1,.931-1.575-.614-.614-3.917,2.616-11.427.9-11.811-7.1-.475-9.853,13.309-12.692,15.9-2.215.136,1.105,1.036,1.08.819-.489a32.582,32.582,0,0,0-3.4-12.121h9.337a32.582,32.582,0,0,0-3.4,12.121c-.217,1.569.683,1.594.82.489,2.588-10.477,16.373-7.638,15.9,2.215-.385,8-7.895,9.716-11.811,7.1-1.545-.961-1.458-.387-.615.614,5.817,6.859,2.3,15.691-5.559,15.861h-.006Z"/><path id="76413d55-fd7d-45e1-9ed6-2180d7f7995f" data-name="path147-0-8-1-6-1-1-0-5-61-2-0" d="M89.785,106.354c-7.855.17-11.377,9-5.56,15.861.844,1,.931,1.575-.614.614-3.917-2.616-11.427-.9-11.811,7.1-.475,9.853,13.309,12.692,15.9,2.215.136-1.105,1.036-1.08.819.489a32.582,32.582,0,0,1-3.4,12.121h9.338a32.582,32.582,0,0,1-3.4-12.121c-.217-1.569.683-1.594.819-.489,2.588,10.477,16.373,7.638,15.9-2.215-.385-8-7.894-9.716-11.811-7.1-1.545.961-1.458.387-.614-.614,5.817-6.859,2.3-15.691-5.56-15.861h-.006Z"/><path id="ea7c36dc-1184-4a33-9fab-3ac65d3413c1" data-name="path147-6-9-8-7-0-5-6-5-2-8" d="M165.307,209.967c3.142-.071,4.551-3.751,2.224-6.609-.337-.417-.372-.656.246-.256,1.566,1.09,4.57.374,4.724-2.958.19-4.105-5.324-5.288-6.359-.923-.055.461-.414.45-.328-.2a14.022,14.022,0,0,1,1.359-5.05h-3.734a14.022,14.022,0,0,1,1.359,5.05c.086.654-.273.665-.328.2-1.035-4.365-6.549-3.182-6.359.923.154,3.332,3.158,4.048,4.724,2.958.619-.4.584-.161.246.256-2.327,2.858-.918,6.538,2.224,6.609h0Z"/><path id="7fbb58b5-5b2a-4b88-a92f-a9494b8a3738" data-name="path147-0-8-1-6-75-2-9-77-4-4-2" d="M48.372,79.9c-7.855.17-11.377,9-5.56,15.861.844,1,.931,1.574-.614.614-3.917-2.616-11.427-.9-11.811,7.1-.475,9.853,13.31,12.692,15.9,2.215.137-1.105,1.036-1.08.819.489a32.582,32.582,0,0,1-3.4,12.121h9.338a32.563,32.563,0,0,1-3.4-12.121c-.217-1.569.682-1.594.819-.489,2.588,10.477,16.373,7.638,15.9-2.215-.385-8-7.895-9.716-11.811-7.1-1.545.96-1.458.386-.615-.614,5.818-6.859,2.3-15.691-5.559-15.861h-.006Z"/><path id="deb62ad4-9a9d-407f-bbdb-7a7d6ea47c5e" data-name="path147-0-8-1-6-75-2-8-0-6-4-4" d="M48.372,171.21c-7.855-.17-11.377-9-5.56-15.861.844-1,.931-1.575-.614-.614-3.917,2.616-11.427.9-11.811-7.1-.475-9.853,13.309-12.692,15.9-2.214.136,1.105,1.036,1.08.819-.489a32.576,32.576,0,0,0-3.4-12.121h9.337a32.582,32.582,0,0,0-3.4,12.121c-.217,1.569.683,1.594.82.489,2.588-10.478,16.373-7.639,15.9,2.214-.385,8-7.895,9.717-11.811,7.1-1.545-.961-1.458-.387-.615.614,5.817,6.858,2.3,15.691-5.559,15.861h-.006Z"/><path id="f14eab7a-29fc-4e09-8537-779b62ddfbe8" data-name="path147-0-8-1-6-75-2-9-7-1-36-2-4" d="M131.2,79.9c-7.855.17-11.377,9-5.56,15.861.844,1,.931,1.574-.614.614-3.917-2.616-11.427-.9-11.811,7.1-.475,9.853,13.31,12.692,15.9,2.215.137-1.105,1.036-1.08.819.489a32.582,32.582,0,0,1-3.4,12.121h9.338a32.563,32.563,0,0,1-3.4-12.121c-.217-1.569.682-1.594.819-.489,2.588,10.477,16.373,7.638,15.9-2.215-.385-8-7.895-9.716-11.811-7.1-1.545.96-1.458.386-.614-.614,5.817-6.859,2.295-15.691-5.56-15.861H131.2Z"/><path id="9812f825-acc9-4262-81c5-700e2265f84d" data-name="path147-0-8-1-6-75-2-8-5-1-55-5-4" d="M131.2,171.21c-7.855-.17-11.377-9-5.56-15.861.844-1,.931-1.575-.614-.614-3.917,2.616-11.427.9-11.811-7.1-.475-9.853,13.31-12.692,15.9-2.214.137,1.105,1.036,1.08.819-.489a32.576,32.576,0,0,0-3.4-12.121h9.338a32.563,32.563,0,0,0-3.4,12.121c-.217,1.569.682,1.594.819.489,2.588-10.478,16.373-7.639,15.9,2.214-.385,8-7.895,9.717-11.811,7.1-1.545-.961-1.458-.387-.614.614,5.817,6.858,2.295,15.691-5.56,15.861H131.2Z"/><path id="771af1e8-546f-465f-ba77-454895fad12d" data-name="path147-6-9-8-7-4-5-62-7-8-4" d="M14.269,40.475c-3.142.071-4.55,3.751-2.223,6.609.337.417.372.656-.246.256-1.567-1.09-4.571-.374-4.725,2.958-.189,4.106,5.324,5.289,6.36.923.054-.46.414-.45.327.2a14,14,0,0,1-1.359,5.05h3.735a14,14,0,0,1-1.359-5.05c-.087-.654.273-.664.328-.2,1.035,4.366,6.549,3.183,6.359-.923-.154-3.332-3.158-4.048-4.725-2.958-.618.4-.583.161-.245-.256,2.327-2.858.918-6.538-2.224-6.609h0Z"/><path id="588fca9d-4508-4ba2-98ae-452866b2e18f" data-name="path29-2-3-4" d="M6.9,32.878l2.415-.766a4.28,4.28,0,0,0,4.7,3c3.495-.279,4.657-4.186,4.918-7.639a6.945,6.945,0,0,1-5.151,2.1c-5.573-.3-7-4.759-7.051-9.428-.152-3.936,1.475-6.788,4.267-8.1a9.566,9.566,0,0,1,6.352.122c3.415,1.8,4.681,4.914,4.451,12.345,0,6.114-1.3,13.234-7.851,13.389A6.35,6.35,0,0,1,6.9,32.878Zm9.486-6.7a5.724,5.724,0,0,0,2.287-2.406,4.537,4.537,0,0,0,.442-2.983c-.31-4.432-2.632-6.948-6-6.449-1.88.283-2.908,1.334-3.5,3.29-1.089,3.617.293,7.848,2.881,8.822a5.043,5.043,0,0,0,3.892-.274Z"/><path id="7efad2c9-ce83-42a4-a919-d3deaa24da88" data-name="path29-6-1-3-7" d="M172.68,217.565l-2.415.765a4.282,4.282,0,0,0-4.7-3c-3.5.279-4.656,4.186-4.917,7.64a6.939,6.939,0,0,1,5.151-2.1c5.572.3,7,4.759,7.05,9.428.153,3.937-1.475,6.788-4.266,8.1a9.566,9.566,0,0,1-6.352-.122c-3.415-1.8-4.681-4.914-4.452-12.345,0-6.113,1.3-13.234,7.851-13.388a6.351,6.351,0,0,1,7.051,5.028Zm-9.487,6.7a5.715,5.715,0,0,0-2.286,2.406,4.52,4.52,0,0,0-.442,2.982c.309,4.432,2.632,6.948,6,6.45,1.881-.283,2.909-1.335,3.5-3.291,1.09-3.617-.293-7.848-2.881-8.822a5.043,5.043,0,0,0-3.892.275Z"/></g><rect id="1dd0e9a1-50dd-4aca-aab2-b152eeb7bb69" data-name="rect17704" x="0.496" y="0.496" width="178.583" height="249.449" rx="8.504" ry="8.504" opacity="0.08" fill="url(#e04fbab8-0e8f-4c54-96a6-15240ad23a2b)" style="isolation:isolate"/></g></g></g></svg>