<svg xmlns="http://www.w3.org/2000/svg" xmlns:xlink="http://www.w3.org/1999/xlink" viewBox="0 0 179.579 250.446"><defs><pattern id="ede4c052-97c6-4d01-9f68-37f0bbe0b991" data-name="pattern17602" width="595.276" height="841.89" patternTransform="matrix(0.8, 0, 0, -0.8, -615.4, 967.046)" patternUnits="userSpaceOnUse" viewBox="0 0 595.276 841.89"><rect width="595.276" height="841.89" fill="none"/></pattern></defs><title>9D</title><g id="d99965e5-0060-4aab-9d91-fde285834d45" data-name="Layer 2"><g id="a0361f04-a36b-452e-af39-36143b308902" data-name="Diamonds"><g id="e71227a9-1e46-4900-8d5c-198933892520" data-name="9D"><g id="01f430d7-1ef6-47cb-97ce-29badabec14d" data-name="g101062"><rect id="8bffd164-b0e0-417d-92e1-4c50e0419a49" data-name="rect6145" x="0.498" y="0.498" width="178.583" height="249.449" rx="8.504" ry="8.504" fill="#fff" stroke="#b3b0b0" stroke-width="0.997"/><path id="0a03b8aa-52d8-46ec-a958-4f0f6cb86684" data-name="path6994-9" d="M14.272,56.477a45.069,45.069,0,0,0-5.82-8,45.069,45.069,0,0,0,5.82-8,45.124,45.124,0,0,0,5.821,8A45.124,45.124,0,0,0,14.272,56.477Z" fill="#d40000"/><path id="2fdc95bf-bddc-4518-89d3-e88c66d63692" data-name="path6996-5" d="M131.2,65.054c-4.149-6.851-8.514-13.511-13.969-19.2,5.455-5.688,9.82-12.348,13.969-19.2,4.149,6.852,8.514,13.512,13.969,19.2C139.717,51.543,135.352,58.2,131.2,65.054Z" fill="#d40000"/><path id="6c6229f1-a840-499e-81d3-af23c83cb9cc" data-name="path6998-7" d="M165.308,209.969a45.119,45.119,0,0,0-5.82-8,45.119,45.119,0,0,0,5.82-8,45.169,45.169,0,0,0,5.82,8A45.169,45.169,0,0,0,165.308,209.969Z" fill="#d40000"/><path id="246be1ef-522b-4598-8ae9-d69bbbbdaa50" data-name="path7000-7" d="M48.377,65.054c-4.149-6.851-8.514-13.511-13.969-19.2,5.455-5.688,9.82-12.348,13.969-19.2,4.149,6.852,8.514,13.512,13.969,19.2C56.891,51.543,52.526,58.2,48.377,65.054Z" fill="#d40000"/><path id="e5b8dc46-ab09-4761-80fc-69cef6c742cd" data-name="path7002-0" d="M131.2,117.972c-4.149-6.851-8.514-13.511-13.969-19.2,5.455-5.688,9.82-12.348,13.969-19.2,4.149,6.852,8.514,13.512,13.969,19.2-5.455,5.689-9.82,12.349-13.969,19.2Z" fill="#d40000"/><path id="4a06f2e2-965f-4eed-b1b8-da2530dc1481" data-name="path7004-0" d="M48.377,117.972c-4.149-6.851-8.514-13.511-13.969-19.2,5.455-5.688,9.82-12.348,13.969-19.2,4.149,6.852,8.514,13.512,13.969,19.2-5.455,5.689-9.82,12.349-13.969,19.2Z" fill="#d40000"/><path id="19e72155-84de-4bb1-adb6-37c549b4fbff" data-name="path7008-2" d="M89.79,144.423c-4.149-6.852-8.514-13.511-13.969-19.2,5.455-5.689,9.82-12.348,13.969-19.2,4.149,6.852,8.514,13.511,13.969,19.2C98.3,130.912,93.939,137.571,89.79,144.423Z" fill="#d40000"/><path id="6be201a7-4227-4ae3-964b-fb094c071477" data-name="path7016-2" d="M48.377,223.8c-4.149-6.851-8.514-13.511-13.969-19.2,5.455-5.688,9.82-12.348,13.969-19.2,4.149,6.852,8.514,13.512,13.969,19.2C56.891,210.284,52.526,216.944,48.377,223.8Z" fill="#d40000"/><path id="3da1eb45-5bb0-4045-a679-68bd3f392ad9" data-name="path7018-0" d="M131.2,223.8c-4.149-6.852-8.514-13.511-13.969-19.2,5.455-5.689,9.82-12.348,13.969-19.2,4.149,6.852,8.514,13.511,13.969,19.2C139.717,210.29,135.352,216.949,131.2,223.8Z" fill="#d40000"/><path id="b62df690-49a2-43b6-9f02-6d9050e7e4be" data-name="path7020-7" d="M131.2,170.878c-4.149-6.852-8.514-13.511-13.969-19.2,5.455-5.689,9.82-12.348,13.969-19.2,4.149,6.852,8.514,13.511,13.969,19.2C139.717,157.367,135.352,164.026,131.2,170.878Z" fill="#d40000"/><path id="94545a2f-52cb-4c0e-97d4-00c024ece8a1" data-name="path7022-4" d="M48.377,170.852c-4.149-6.852-8.514-13.511-13.969-19.2,5.455-5.688,9.82-12.348,13.969-19.2,4.149,6.852,8.514,13.512,13.969,19.2C56.891,157.341,52.526,164,48.377,170.852Z" fill="#d40000"/><path id="1fb5b181-0765-4553-ac14-f4fcfc5de9e7" data-name="path29-5-3-7-8" d="M6.9,32.879l2.415-.765a4.28,4.28,0,0,0,4.7,3c3.5-.279,4.656-4.186,4.918-7.64a6.942,6.942,0,0,1-5.151,2.1c-5.573-.3-7-4.759-7.051-9.428-.152-3.937,1.475-6.788,4.266-8.1a9.569,9.569,0,0,1,6.353.122c3.414,1.8,4.681,4.914,4.451,12.345,0,6.114-1.3,13.234-7.851,13.389A6.353,6.353,0,0,1,6.9,32.879h0Zm9.486-6.7a5.723,5.723,0,0,0,2.286-2.407,4.525,4.525,0,0,0,.443-2.982c-.31-4.432-2.632-6.948-6-6.449-1.88.282-2.909,1.334-3.5,3.29-1.089,3.617.293,7.848,2.881,8.822a5.047,5.047,0,0,0,3.892-.274Z" fill="#d40000"/><path id="9f00ae02-a81e-4fde-82d5-c54d5bb2a40f" data-name="path29-6-2-9-2" d="M172.682,217.566l-2.415.766a4.282,4.282,0,0,0-4.7-3c-3.5.279-4.656,4.186-4.917,7.64a6.939,6.939,0,0,1,5.151-2.1c5.572.3,7,4.759,7.05,9.428.152,3.936-1.475,6.788-4.266,8.1a9.566,9.566,0,0,1-6.352-.122c-3.415-1.8-4.681-4.914-4.452-12.345,0-6.114,1.3-13.234,7.851-13.389a6.353,6.353,0,0,1,7.051,5.028Zm-9.487,6.7a5.727,5.727,0,0,0-2.286,2.406,4.525,4.525,0,0,0-.442,2.983c.309,4.432,2.632,6.948,6,6.449,1.88-.282,2.909-1.334,3.5-3.29,1.089-3.617-.293-7.848-2.881-8.822a5.047,5.047,0,0,0-3.892.274Z" fill="#d40000"/></g><rect id="c2fb3406-6927-4455-9507-65ba17e98591" data-name="rect16710" x="0.498" y="0.498" width="178.583" height="249.449" rx="8.504" ry="8.504" opacity="0.08" fill="url(#ede4c052-97c6-4d01-9f68-37f0bbe0b991)" style="isolation:isolate"/></g></g></g></svg>