<svg xmlns="http://www.w3.org/2000/svg" xmlns:xlink="http://www.w3.org/1999/xlink" viewBox="0 0 179.576 250.442"><defs><pattern id="d62e5281-7ad4-484f-b15d-5bcb61dcd40d" data-name="pattern17782" width="595.276" height="841.89" patternTransform="matrix(0.8, 0, 0, -0.8, -615.4, 1531.539)" patternUnits="userSpaceOnUse" viewBox="0 0 595.276 841.89"><rect width="595.276" height="841.89" fill="none"/></pattern></defs><title>9H</title><g id="5704a360-bd5f-48d9-968c-8078f4ef1a0a" data-name="Layer 2"><g id="4833a097-f276-420b-ad1d-938a3c1301ae" data-name="Hearts"><g id="299ad988-203a-48dd-9f5f-ee67a594b2ee" data-name="9H"><g id="c60f96a7-55e2-456b-b711-72f6314d5114" data-name="g101124"><rect id="50f1aec8-2cd3-453e-8825-b7c1bb967f71" data-name="rect5803" x="0.496" y="0.496" width="178.583" height="249.449" rx="8.504" ry="8.504" fill="#fff" stroke="#b3b0b0" stroke-width="0.993"/><path id="70adbac6-70f1-4c25-a700-8b2fbc147de4" data-name="path10240-7-9" d="M48.375,117.965s-3.733-6.125-8.769-13.325c-3.369-4.819-6.062-10.036-6.312-14.531-.288-5.133,2.431-10.284,7.353-10.534S47.562,83.534,48.375,87c.813-3.469,2.809-7.677,7.728-7.428s7.64,5.4,7.353,10.534c-.25,4.5-2.943,9.712-6.312,14.531-5.036,7.2-8.769,13.325-8.769,13.325Z" fill="#d40000"/><path id="48d0f66c-eaa5-4119-861c-2813a9989076" data-name="path10242-3-8" d="M14.271,56.475s-1.78-2.552-4.181-5.552c-1.606-2.008-2.89-4.182-3.009-6.054a3.878,3.878,0,0,1,3.505-4.389c2.345-.1,3.3,1.649,3.685,3.094.387-1.445,1.339-3.2,3.684-3.094a3.878,3.878,0,0,1,3.506,4.389c-.119,1.872-1.4,4.046-3.01,6.054-2.4,3-4.179,5.55-4.18,5.552Z" fill="#d40000"/><path id="34c32318-0129-468c-91ed-7a8837891226" data-name="path10244-4-5" d="M165.306,193.967s-1.78,2.552-4.18,5.552c-1.607,2.008-2.891,4.182-3.01,6.054a3.879,3.879,0,0,0,3.5,4.39c2.346.1,3.3-1.65,3.685-3.095.388,1.445,1.339,3.2,3.685,3.095a3.879,3.879,0,0,0,3.5-4.39c-.119-1.872-1.4-4.046-3.009-6.054C167.086,196.519,165.306,193.967,165.306,193.967Z" fill="#d40000"/><path id="95e39c77-7134-420d-bb22-1cf20f8d5677" data-name="path10250-9-0" d="M48.375,65.052s-3.733-6.124-8.769-13.325c-3.369-4.818-6.062-10.036-6.312-14.53-.288-5.134,2.431-10.284,7.353-10.534s6.915,3.959,7.728,7.428c.813-3.47,2.809-7.677,7.728-7.428s7.64,5.4,7.353,10.534c-.25,4.494-2.943,9.712-6.312,14.53-5.036,7.2-8.769,13.325-8.769,13.325Z" fill="#d40000"/><path id="e01501f2-8fa4-4283-ab75-c39c6fad1fe0" data-name="path10254-7-3" d="M131.2,117.965s-3.733-6.125-8.769-13.325c-3.368-4.819-6.062-10.036-6.312-14.531-.287-5.133,2.431-10.284,7.353-10.534S130.388,83.534,131.2,87c.813-3.469,2.809-7.677,7.728-7.428s7.641,5.4,7.353,10.534c-.25,4.5-2.943,9.712-6.312,14.531-5.036,7.2-8.769,13.325-8.769,13.325Z" fill="#d40000"/><path id="fabebf62-ae53-430c-be9f-f92a3a08a000" data-name="path10256-4-7" d="M131.2,65.052s-3.733-6.124-8.769-13.325c-3.368-4.818-6.062-10.036-6.312-14.53-.287-5.134,2.431-10.284,7.353-10.534s6.915,3.959,7.728,7.428c.813-3.47,2.809-7.677,7.728-7.428s7.641,5.4,7.353,10.534c-.25,4.494-2.943,9.712-6.312,14.53-5.036,7.2-8.769,13.325-8.769,13.325Z" fill="#d40000"/><path id="405564d7-6e60-42b3-91a8-7ff414eda2b6" data-name="path10258-5-9" d="M89.788,144.421S86.055,138.3,81.019,131.1c-3.368-4.819-6.062-10.036-6.312-14.53-.288-5.134,2.431-10.285,7.353-10.534s6.915,3.958,7.728,7.427c.813-3.469,2.809-7.677,7.728-7.427s7.64,5.4,7.353,10.534c-.25,4.494-2.943,9.711-6.312,14.53-5.036,7.2-8.769,13.325-8.769,13.325Z" fill="#d40000"/><path id="c1fb0320-b117-47e8-ad27-79936f9ad5c9" data-name="path10266-8-9" d="M131.2,132.477s-3.733,6.125-8.769,13.325c-3.368,4.819-6.062,10.036-6.312,14.531-.287,5.133,2.431,10.284,7.353,10.534s6.915-3.959,7.728-7.428c.813,3.469,2.809,7.677,7.728,7.428s7.641-5.4,7.353-10.534c-.25-4.5-2.943-9.712-6.312-14.531-5.036-7.2-8.769-13.325-8.769-13.325Z" fill="#d40000"/><path id="b5e6117c-3635-4e4a-ac10-18cfc7a352a7" data-name="path10268-2-7" d="M48.375,132.477S44.642,138.6,39.606,145.8c-3.369,4.819-6.062,10.036-6.312,14.531-.288,5.133,2.431,10.284,7.353,10.534s6.915-3.959,7.728-7.428c.813,3.469,2.809,7.677,7.728,7.428s7.64-5.4,7.353-10.534c-.25-4.5-2.943-9.712-6.312-14.531-5.036-7.2-8.769-13.325-8.769-13.325Z" fill="#d40000"/><path id="e76646aa-1b32-4ad4-94a3-223083e7e476" data-name="path10270-1-4" d="M131.2,185.39s-3.733,6.124-8.769,13.325c-3.368,4.818-6.062,10.036-6.312,14.53-.287,5.134,2.431,10.284,7.353,10.534s6.915-3.958,7.728-7.428c.813,3.469,2.809,7.677,7.728,7.428s7.641-5.4,7.353-10.534c-.25-4.494-2.943-9.712-6.312-14.53-5.036-7.2-8.769-13.325-8.769-13.325Z" fill="#d40000"/><path id="55822ce9-4d25-484e-8ae3-9138ea807eec" data-name="path10272-0-7" d="M48.375,185.39s-3.733,6.124-8.769,13.325c-3.369,4.818-6.062,10.036-6.312,14.53-.288,5.134,2.431,10.284,7.353,10.534s6.915-3.958,7.728-7.428c.813,3.469,2.809,7.677,7.728,7.428s7.64-5.4,7.353-10.534c-.25-4.494-2.943-9.712-6.312-14.53-5.036-7.2-8.769-13.325-8.769-13.325Z" fill="#d40000"/><path id="112460d1-73b7-4852-b48b-417f6e1b7479" data-name="path29-5-8-5-4" d="M6.9,32.878l2.415-.766a4.28,4.28,0,0,0,4.7,3c3.495-.279,4.657-4.186,4.918-7.64a6.942,6.942,0,0,1-5.151,2.1c-5.573-.3-7-4.759-7.051-9.428-.152-3.937,1.475-6.788,4.267-8.1a9.566,9.566,0,0,1,6.352.122c3.415,1.8,4.681,4.914,4.451,12.345,0,6.114-1.3,13.234-7.851,13.389A6.351,6.351,0,0,1,6.9,32.878Zm9.486-6.7a5.726,5.726,0,0,0,2.287-2.407,4.533,4.533,0,0,0,.442-2.982c-.31-4.432-2.632-6.948-6-6.449-1.88.282-2.908,1.334-3.5,3.29-1.089,3.617.293,7.848,2.881,8.822a5.047,5.047,0,0,0,3.892-.274Z" fill="#d40000"/><path id="5214f8ce-13e2-4fec-9153-9c24a135e11c" data-name="path29-6-2-3-6-6" d="M172.68,217.564l-2.415.766a4.282,4.282,0,0,0-4.7-3c-3.5.279-4.656,4.186-4.917,7.64a6.939,6.939,0,0,1,5.151-2.1c5.572.3,7,4.759,7.05,9.428.153,3.937-1.475,6.788-4.266,8.1a9.566,9.566,0,0,1-6.352-.122c-3.415-1.8-4.681-4.914-4.452-12.345,0-6.114,1.3-13.234,7.851-13.389a6.353,6.353,0,0,1,7.051,5.028Zm-9.487,6.7a5.723,5.723,0,0,0-2.286,2.407,4.52,4.52,0,0,0-.442,2.982c.309,4.432,2.632,6.948,6,6.449,1.881-.282,2.909-1.334,3.5-3.29,1.09-3.617-.293-7.848-2.881-8.822a5.047,5.047,0,0,0-3.892.274Z" fill="#d40000"/></g><rect id="04171a87-b7bf-4f7d-9d6c-daa89f6bfccc" data-name="rect17730" x="0.496" y="0.496" width="178.583" height="249.449" rx="8.504" ry="8.504" opacity="0.08" fill="url(#d62e5281-7ad4-484f-b15d-5bcb61dcd40d)" style="isolation:isolate"/></g></g></g></svg>