<svg xmlns="http://www.w3.org/2000/svg" xmlns:xlink="http://www.w3.org/1999/xlink" viewBox="0 0 179.576 250.442"><defs><pattern id="92a5cfe7-b898-476b-a83f-0e899e2208fd" data-name="pattern17652" width="595.276" height="841.89" patternTransform="matrix(0.8, 0, 0, -0.8, -615.4, 1249.292)" patternUnits="userSpaceOnUse" viewBox="0 0 595.276 841.89"><rect width="595.276" height="841.89" fill="none"/></pattern></defs><title>9S</title><g id="34b1cd36-ca54-4fa9-87d4-a155fd645b19" data-name="Layer 2"><g id="f314c93a-417c-45ad-8770-1e50a8b91fc3" data-name="Spades"><g id="05ee972c-8bd0-4787-85e9-5eabd93cb140" data-name="9S"><g id="eb8fe246-d874-465b-89f7-6154eac957d5" data-name="g101093"><rect id="e9703cb5-f688-407e-85e0-de386177cf0f" data-name="rect5440" x="0.496" y="0.496" width="178.583" height="249.449" rx="8.504" ry="8.504" fill="#fff" stroke="#b3b0b0" stroke-width="0.993"/><path id="ba325a30-fb15-423e-a194-da69f003a72a" data-name="path7225-5-2" d="M48.375,26.652C40.994,37.178,33.1,43.235,32.966,51.447c-.045,2.659,1.393,7.179,5.9,8.044,2.922.559,6.944-1.806,7.028-6.61-.013-.956,1.013-.932,1,.379A27.261,27.261,0,0,1,43.54,65.053h9.669A27.273,27.273,0,0,1,49.856,53.26c-.009-1.311,1.016-1.335,1-.379.084,4.8,4.107,7.169,7.028,6.61,4.5-.865,5.941-5.385,5.9-8.044-.131-8.212-8.028-14.269-15.409-24.795Z"/><path id="4aad0fba-58d3-4792-b782-e2acbe97860d" data-name="path7227-2-8" d="M14.271,40.475c-3.449,4.386-7.139,6.91-7.2,10.331a3.322,3.322,0,0,0,2.755,3.352A2.86,2.86,0,0,0,13.11,51.4c-.008-.4.473-.388.469.158a10.452,10.452,0,0,1-1.567,4.913H16.53a10.441,10.441,0,0,1-1.567-4.913c-.008-.546.475-.557.468-.158a2.861,2.861,0,0,0,3.284,2.754,3.322,3.322,0,0,0,2.755-3.352C21.408,47.385,17.719,44.861,14.271,40.475Z"/><path id="40eac1bd-f69e-42e5-88b8-94ec608bf4a0" data-name="path7229-4-8" d="M48.375,170.877c-7.381-10.526-15.278-16.583-15.409-24.8-.045-2.659,1.393-7.178,5.9-8.043,2.922-.559,6.944,1.806,7.028,6.61-.013.956,1.013.931,1-.379a27.253,27.253,0,0,0-3.354-11.793h9.669a27.265,27.265,0,0,0-3.353,11.793c-.009,1.31,1.016,1.335,1,.379.084-4.8,4.107-7.169,7.028-6.61,4.5.865,5.941,5.384,5.9,8.043-.131,8.212-8.028,14.269-15.409,24.8Z"/><path id="cb4ff216-db63-416f-ad02-9b9e47f6516f" data-name="path7231-7-8" d="M165.306,209.967c-3.448-4.386-7.138-6.91-7.2-10.331a3.322,3.322,0,0,1,2.755-3.352,2.86,2.86,0,0,1,3.283,2.754c-.008.4.473.389.469-.158a10.445,10.445,0,0,0-1.567-4.913h4.518A10.445,10.445,0,0,0,166,198.88c-.008.547.475.557.469.158a2.86,2.86,0,0,1,3.283-2.754,3.322,3.322,0,0,1,2.755,3.352c-.061,3.421-3.751,5.945-7.2,10.331Z"/><path id="ce4e7522-a2f0-4fb7-9bc5-118cccc53d33" data-name="path7233-8-9" d="M131.2,26.652c-7.381,10.526-15.278,16.583-15.409,24.8-.044,2.659,1.394,7.179,5.9,8.044,2.921.559,6.944-1.806,7.028-6.61-.013-.956,1.012-.932,1,.379a27.273,27.273,0,0,1-3.353,11.793h9.668a27.273,27.273,0,0,1-3.353-11.793c-.009-1.311,1.016-1.335,1-.379.083,4.8,4.106,7.169,7.028,6.61,4.5-.865,5.941-5.385,5.9-8.044-.131-8.212-8.028-14.269-15.409-24.795Z"/><path id="8cc23e2d-7286-41eb-9453-ef0968d92754" data-name="path7235-9-4" d="M48.375,79.565C40.994,90.091,33.1,96.148,32.966,104.359c-.045,2.66,1.393,7.179,5.9,8.044,2.922.559,6.944-1.806,7.028-6.61-.013-.956,1.013-.931,1,.379a27.253,27.253,0,0,1-3.354,11.793h9.669a27.265,27.265,0,0,1-3.353-11.793c-.009-1.31,1.016-1.335,1-.379.084,4.8,4.107,7.169,7.028,6.61,4.5-.865,5.941-5.384,5.9-8.044-.131-8.211-8.028-14.268-15.409-24.794Z"/><path id="5a1ea230-9168-41cd-bc09-6d0b96706e5a" data-name="path7241-7-2" d="M131.2,79.565c-7.381,10.526-15.278,16.583-15.409,24.794-.044,2.66,1.394,7.179,5.9,8.044,2.921.559,6.944-1.806,7.028-6.61-.013-.956,1.012-.931,1,.379a27.265,27.265,0,0,1-3.353,11.793h9.668a27.265,27.265,0,0,1-3.353-11.793c-.009-1.31,1.016-1.335,1-.379.083,4.8,4.106,7.169,7.028,6.61,4.5-.865,5.941-5.384,5.9-8.044-.131-8.211-8.028-14.268-15.409-24.794Z"/><path id="1dfbb01f-d23b-45e5-80a1-922ad803e85c" data-name="path7245-1-6" d="M48.375,223.79C40.994,213.264,33.1,207.207,32.966,199c-.045-2.659,1.393-7.179,5.9-8.044,2.922-.559,6.944,1.806,7.028,6.61-.013.956,1.013.932,1-.379A27.253,27.253,0,0,0,43.54,185.39h9.669a27.265,27.265,0,0,0-3.353,11.792c-.009,1.311,1.016,1.335,1,.379.084-4.8,4.107-7.169,7.028-6.61,4.5.865,5.941,5.385,5.9,8.044-.131,8.212-8.028,14.269-15.409,24.795Z"/><path id="a7074479-e435-4308-86cd-f9ac2e0cffb3" data-name="path7247-0-6" d="M131.2,223.79c-7.381-10.526-15.278-16.583-15.409-24.795-.044-2.659,1.394-7.179,5.9-8.044,2.921-.559,6.944,1.806,7.028,6.61-.013.956,1.012.932,1-.379a27.265,27.265,0,0,0-3.353-11.792h9.668a27.265,27.265,0,0,0-3.353,11.792c-.009,1.311,1.016,1.335,1,.379.083-4.8,4.106-7.169,7.028-6.61,4.5.865,5.941,5.385,5.9,8.044-.131,8.212-8.028,14.269-15.409,24.795Z"/><path id="20e76d81-b507-406c-bbea-538a7d1c52bf" data-name="path7251-3-6" d="M131.2,170.877c-7.381-10.526-15.278-16.583-15.409-24.8-.044-2.659,1.394-7.178,5.9-8.043,2.921-.559,6.944,1.806,7.028,6.61-.013.956,1.012.931,1-.379a27.265,27.265,0,0,0-3.353-11.793h9.668a27.265,27.265,0,0,0-3.353,11.793c-.009,1.31,1.016,1.335,1,.379.083-4.8,4.106-7.169,7.028-6.61,4.5.865,5.941,5.384,5.9,8.043-.131,8.212-8.028,14.269-15.409,24.8Z"/><path id="c3d92eee-7520-435f-94cf-66a29c1d48ce" data-name="path7255-7-8" d="M89.788,106.021c-7.381,10.526-15.278,16.583-15.409,24.8-.044,2.659,1.393,7.178,5.9,8.043,2.921.559,6.944-1.805,7.028-6.61-.013-.956,1.012-.931,1,.379a27.265,27.265,0,0,1-3.353,11.793h9.668a27.265,27.265,0,0,1-3.353-11.793c-.009-1.31,1.016-1.335,1-.379.084,4.805,4.107,7.169,7.028,6.61,4.5-.865,5.941-5.384,5.9-8.043-.131-8.212-8.028-14.269-15.409-24.795Z"/><path id="f3fdf006-99ea-4853-a585-bffe8a8d7813" data-name="path29-33-4-4" d="M6.9,32.878l2.415-.766a4.28,4.28,0,0,0,4.7,3c3.495-.279,4.657-4.186,4.918-7.64a6.942,6.942,0,0,1-5.151,2.1c-5.573-.3-7-4.759-7.051-9.428-.152-3.936,1.475-6.788,4.267-8.1a9.566,9.566,0,0,1,6.352.122c3.415,1.8,4.681,4.914,4.451,12.345,0,6.114-1.3,13.234-7.851,13.389A6.35,6.35,0,0,1,6.9,32.878Zm9.486-6.7a5.721,5.721,0,0,0,2.286-2.406,4.53,4.53,0,0,0,.443-2.983c-.31-4.432-2.632-6.948-6-6.449-1.88.283-2.909,1.334-3.5,3.29-1.089,3.617.293,7.848,2.881,8.822a5.047,5.047,0,0,0,3.892-.274Z"/><path id="e7e20419-5cb6-43f1-bc94-a5ea2f6842ac" data-name="path29-33-3-8-6" d="M172.68,217.565l-2.415.765a4.282,4.282,0,0,0-4.7-3c-3.5.279-4.656,4.186-4.918,7.64a6.943,6.943,0,0,1,5.152-2.1c5.572.3,7,4.759,7.05,9.428.153,3.937-1.475,6.788-4.266,8.1a9.553,9.553,0,0,1-6.352-.122c-3.415-1.8-4.681-4.914-4.452-12.345,0-6.113,1.3-13.234,7.851-13.389a6.353,6.353,0,0,1,7.051,5.029Zm-9.487,6.7a5.723,5.723,0,0,0-2.286,2.407,4.52,4.52,0,0,0-.442,2.982c.31,4.432,2.632,6.948,6,6.449,1.881-.282,2.909-1.334,3.5-3.29,1.089-3.617-.294-7.848-2.881-8.822a5.046,5.046,0,0,0-3.892.274h0Z"/></g><rect id="d85d7081-d5c2-49aa-8d6a-bf90224cf0d3" data-name="rect17626" x="0.496" y="0.496" width="178.583" height="249.449" rx="8.504" ry="8.504" opacity="0.08" fill="url(#92a5cfe7-b898-476b-a83f-0e899e2208fd)" style="isolation:isolate"/></g></g></g></svg>