<svg xmlns="http://www.w3.org/2000/svg" xmlns:xlink="http://www.w3.org/1999/xlink" viewBox="0 0 179.576 250.442"><defs><pattern id="33c0d330-7e19-4d8e-adaa-7dd69c84492c" data-name="pattern17742" width="595.276" height="841.89" patternTransform="matrix(0.8, 0, 0, -0.8, -615.4, 1813.785)" patternUnits="userSpaceOnUse" viewBox="0 0 595.276 841.89"><rect width="595.276" height="841.89" fill="none"/></pattern></defs><title>AC</title><g id="5eb1d7dd-ae9a-42a1-a1df-60180a375cd9" data-name="Layer 2"><g id="de137f14-bd30-4626-affe-884b8e61dbd2" data-name="Clubs"><g id="4684220f-f2b0-401a-afc3-6c00cd420662" data-name="AC"><g id="c827ea58-9e66-441f-8271-f6c8ce9d0182" data-name="g100739"><rect id="fef09f41-c8d8-46a2-ad3f-10b6a6159815" data-name="rect4926" x="0.496" y="0.496" width="178.583" height="249.449" rx="8.504" ry="8.504" fill="#fff" stroke="#b3b0b0" stroke-width="0.993"/><path id="ffd9fb2d-2290-4465-ba54-7284b420099e" data-name="path147-0-8-1-6-1-1-0-9-1-8" d="M89.784,106.354c-7.854.17-11.376,9-5.559,15.861.844,1,.931,1.575-.615.614-3.916-2.616-11.426-.9-11.811,7.1-.475,9.853,13.31,12.692,15.9,2.215.137-1.105,1.037-1.08.82.489a32.582,32.582,0,0,1-3.4,12.121h9.337a32.582,32.582,0,0,1-3.4-12.121c-.217-1.569.683-1.594.82-.489,2.588,10.477,16.373,7.638,15.9-2.215-.384-8-7.894-9.716-11.81-7.1-1.546.961-1.459.387-.615-.614,5.817-6.859,2.3-15.691-5.559-15.861h-.007Z"/><path id="3af64493-df95-4701-b8d5-54f6c591b996" data-name="path147-6-9-8-7-0-5-0-8-3" d="M165.307,209.967c3.142-.071,4.551-3.751,2.224-6.609-.338-.417-.373-.656.246-.256,1.566,1.09,4.57.374,4.724-2.958.19-4.106-5.324-5.289-6.359-.923-.055.461-.415.45-.328-.2a14.022,14.022,0,0,1,1.359-5.05h-3.735a14,14,0,0,1,1.359,5.05c.087.654-.273.665-.327.2-1.035-4.366-6.549-3.183-6.359.923.153,3.332,3.157,4.048,4.724,2.958.618-.4.583-.161.246.256-2.327,2.858-.918,6.538,2.224,6.609h0Z"/><path id="bbd06d4d-4b1d-4e0e-9a4f-d7e4ab2d81b3" data-name="path41-6-3-5-1" d="M6.2,37.967V35.709H8.349l4.589-24.142h2.611L20.6,35.709h1.74v2.258H16.416V35.709h1.6l-.639-3.7H11.4l-.462,3.7h1.6v2.258Zm10.672-8.593-2.6-12.922L11.833,29.374Z"/><path id="0b24f76f-24d9-4822-bb7b-8ee2d95db6e1" data-name="path41-6-4-0-2-8" d="M157.231,212.475v2.258h2.154l4.588,24.142h2.612l5.054-24.142h1.739v-2.258h-5.926v2.258h1.6l-.639,3.7h-5.979l-.461-3.7h1.6v-2.258Zm10.671,8.593-2.6,12.922-2.434-12.922Z"/><path id="9aadc7ca-7c5a-4a61-a131-9bd54a801e03" data-name="path147-6-9-8-7-4-5-6-8-9" d="M14.269,40.475c-3.142.071-4.551,3.751-2.224,6.609.338.417.372.656-.246.256-1.566-1.09-4.57-.374-4.724,2.958-.19,4.106,5.324,5.289,6.359.923.055-.46.415-.45.328.2a14,14,0,0,1-1.359,5.05h3.735a14,14,0,0,1-1.36-5.05c-.086-.654.274-.664.328-.2,1.035,4.366,6.549,3.183,6.359-.923-.153-3.332-3.157-4.048-4.724-2.958-.618.4-.583.161-.246-.256,2.327-2.858.918-6.538-2.224-6.609h0Z"/></g><rect id="df44f12f-f7ce-4019-b0ed-f48911887b7c" data-name="rect17690" x="0.496" y="0.496" width="178.583" height="249.449" rx="8.504" ry="8.504" opacity="0.08" fill="url(#33c0d330-7e19-4d8e-adaa-7dd69c84492c)" style="isolation:isolate"/></g></g></g></svg>