<svg xmlns="http://www.w3.org/2000/svg" xmlns:xlink="http://www.w3.org/1999/xlink" viewBox="0 0 179.579 250.446"><defs><pattern id="80ce20b0-3736-4dc6-a78b-9f6a607a8260" data-name="pattern17586" width="595.276" height="841.89" patternTransform="matrix(0.8, 0, 0, -0.8, -615.4, 967.046)" patternUnits="userSpaceOnUse" viewBox="0 0 595.276 841.89"><rect width="595.276" height="841.89" fill="none"/></pattern></defs><title>AD</title><g id="b8ba29bd-0cc2-481d-8845-1903c4ed8c5e" data-name="Layer 2"><g id="37a90a3b-3218-4980-9867-9046cdb84990" data-name="Diamonds"><g id="89a16236-af8c-4242-bc96-570b1c4068c5" data-name="AD"><g id="9690bf12-66e3-4fa9-a744-e4fa934182fe" data-name="g100790"><rect id="c082b089-7c4c-4672-927b-808f3d34cb32" data-name="rect5975" x="0.498" y="0.498" width="178.583" height="249.449" rx="8.504" ry="8.504" fill="#fff" stroke="#b3b0b0" stroke-width="0.997"/><path id="d68d11ff-dd83-4ce9-98e0-8c0920cda9f5" data-name="path6399-9" d="M14.273,56.477a45.124,45.124,0,0,0-5.821-8,45.124,45.124,0,0,0,5.821-8,45.069,45.069,0,0,0,5.82,8A45.069,45.069,0,0,0,14.273,56.477Z" fill="#d40000"/><path id="4e773d12-b047-4617-85d3-9c1a56968d55" data-name="path6403-1" d="M165.308,209.969a45.119,45.119,0,0,0-5.82-8,45.119,45.119,0,0,0,5.82-8,45.169,45.169,0,0,0,5.82,8A45.169,45.169,0,0,0,165.308,209.969Z" fill="#d40000"/><path id="330ab9d4-e0b4-4522-b86a-e9e9df9d13a7" data-name="path6413-1" d="M89.79,144.423c-4.149-6.852-8.514-13.511-13.969-19.2,5.455-5.689,9.82-12.348,13.969-19.2,4.149,6.852,8.514,13.511,13.969,19.2C98.3,130.912,93.939,137.571,89.79,144.423Z" fill="#d40000"/><path id="4c1db17d-b67b-401d-afde-98e379880a06" data-name="path41-87-9-4-8" d="M6.2,37.969V35.711H8.351L12.94,11.569h2.611l5.055,24.142h1.739v2.258H16.418V35.711h1.6l-.639-3.7H11.4l-.462,3.7h1.6v2.258Zm10.671-8.593-2.6-12.922L11.835,29.376Z" fill="#d40000"/><path id="5a6b3f4c-a73c-4bbc-ae9b-97dd02d8d03f" data-name="path41-8-5-6-1" d="M157.233,212.477v2.258h2.154l4.588,24.142h2.612l5.054-24.142h1.74v-2.258h-5.927v2.258h1.6l-.638,3.7h-5.979l-.462-3.7h1.6v-2.258Zm10.672,8.593-2.6,12.922-2.434-12.922h5.034Z" fill="#d40000"/></g><rect id="59cd68b1-9bfe-4b19-bd89-d7045d4ef367" data-name="rect5230-0" x="0.498" y="0.498" width="178.583" height="249.449" rx="8.504" ry="8.504" opacity="0.08" fill="url(#80ce20b0-3736-4dc6-a78b-9f6a607a8260)" style="isolation:isolate"/></g></g></g></svg>