<svg xmlns="http://www.w3.org/2000/svg" xmlns:xlink="http://www.w3.org/1999/xlink" viewBox="0 0 179.576 250.442"><defs><pattern id="238afdad-a4bf-4979-8ae0-9af061d8d096" data-name="pattern17768" width="595.276" height="841.89" patternTransform="matrix(0.8, 0, 0, -0.8, -615.4, 1531.539)" patternUnits="userSpaceOnUse" viewBox="0 0 595.276 841.89"><rect width="595.276" height="841.89" fill="none"/></pattern></defs><title>AH</title><g id="8467ac64-fdf3-496b-bd4d-b1b20d41cfd9" data-name="Layer 2"><g id="42209c6b-3d80-43da-beba-6d1541f3db00" data-name="Hearts"><g id="0ed60dac-a52c-495f-aace-936b5c0cde76" data-name="AH"><g id="3d2f4711-8858-40c2-a296-ec716c1e31a6" data-name="g100747"><rect id="094bc511-c04a-4f2d-9dd3-8f3f25ce88f4" data-name="rect5589" x="0.496" y="0.496" width="178.583" height="249.449" rx="8.504" ry="8.504" fill="#fff" stroke="#b3b0b0" stroke-width="0.993"/><path id="1416fcf4-9a93-41f3-836f-162a21b22201" data-name="path9698-0-0" d="M14.27,56.475s-1.78-2.552-4.18-5.552C8.483,48.915,7.2,46.741,7.08,44.869a3.878,3.878,0,0,1,3.506-4.389c2.345-.1,3.3,1.649,3.684,3.094.388-1.445,1.34-3.2,3.685-3.094a3.878,3.878,0,0,1,3.505,4.389c-.119,1.872-1.4,4.046-3.009,6.054-2.4,3-4.181,5.552-4.181,5.552Z" fill="#d40000"/><path id="199f800c-aec3-487f-87a0-8e92aff65e8f" data-name="path9700-3-2" d="M165.306,193.967s-1.78,2.552-4.181,5.552c-1.606,2.008-2.89,4.182-3.009,6.054a3.879,3.879,0,0,0,3.5,4.39c2.345.1,3.3-1.65,3.685-3.095.387,1.445,1.339,3.2,3.684,3.095a3.879,3.879,0,0,0,3.506-4.39c-.12-1.872-1.4-4.046-3.01-6.054-2.4-3-4.18-5.552-4.18-5.552Z" fill="#d40000"/><path id="23611b5e-b582-430c-9464-f3f6469c19cc" data-name="path9714-6-6" d="M89.788,144.421S86.055,138.3,81.019,131.1c-3.369-4.819-6.062-10.036-6.313-14.53-.287-5.134,2.432-10.285,7.354-10.534s6.915,3.958,7.728,7.427c.812-3.469,2.809-7.677,7.728-7.427s7.64,5.4,7.353,10.534c-.25,4.494-2.944,9.711-6.313,14.53-5.035,7.2-8.768,13.325-8.768,13.325Z" fill="#d40000"/><path id="011ebf27-f4b8-4b31-b736-714406d44c4b" data-name="path41-87-8-3-9" d="M6.2,37.967V35.709H8.349l4.589-24.142h2.611L20.6,35.709h1.74v2.258H16.416V35.709h1.6l-.639-3.7H11.4l-.462,3.7h1.6v2.258Zm10.672-8.593-2.6-12.922L11.833,29.374Z" fill="#d40000"/><path id="cda5b887-90df-48bd-9ce3-531bcb0568d1" data-name="path41-8-5-1-8-7" d="M157.231,212.475v2.258h2.154l4.588,24.142h2.612l5.054-24.142h1.739v-2.258h-5.926v2.258h1.6l-.639,3.7h-5.979l-.461-3.7h1.6v-2.258Zm10.671,8.593-2.6,12.922-2.434-12.922Z" fill="#d40000"/></g><rect id="ea688f95-68cf-4b63-ac7b-6292dd88e9e9" data-name="rect17716" x="0.496" y="0.496" width="178.583" height="249.449" rx="8.504" ry="8.504" opacity="0.08" fill="url(#238afdad-a4bf-4979-8ae0-9af061d8d096)" style="isolation:isolate"/></g></g></g></svg>