<svg xmlns="http://www.w3.org/2000/svg" xmlns:xlink="http://www.w3.org/1999/xlink" viewBox="0 0 179.576 250.442"><defs><pattern id="464fb4f8-5788-4e8c-badb-b4de85de91e0" data-name="pattern17638" width="595.276" height="841.89" patternTransform="matrix(0.8, 0, 0, -0.8, -615.4, 1249.292)" patternUnits="userSpaceOnUse" viewBox="0 0 595.276 841.89"><rect width="595.276" height="841.89" fill="none"/></pattern></defs><title>AS</title><g id="493281d7-b344-41eb-9e70-c0fe457f1ebd" data-name="Layer 2"><g id="c4586021-4619-434f-89ba-b4fa88b5895e" data-name="Spades"><g id="b49be31a-e4ef-4054-9806-603c70529bfd" data-name="AS"><g id="188ea419-ca4e-4d80-bb72-23b2bda8df06" data-name="g100755"><rect id="14bed3e2-97db-4d68-9c1f-f5be13ea0e7c" data-name="rect5268" x="0.496" y="0.496" width="178.583" height="249.449" rx="8.504" ry="8.504" fill="#fff" stroke="#b3b0b0" stroke-width="0.993"/><path id="dbc5761a-7e4e-40dd-a65b-cdfe623d1d37" data-name="path153-0-1-2-5-5-5-3-4" d="M14.27,40.475c-3.448,4.386-7.138,6.91-7.2,10.331a3.322,3.322,0,0,0,2.755,3.352A2.86,2.86,0,0,0,13.109,51.4c-.008-.4.474-.388.469.158a10.441,10.441,0,0,1-1.567,4.913h4.518a10.452,10.452,0,0,1-1.567-4.913c-.008-.546.475-.557.469-.158a2.86,2.86,0,0,0,3.284,2.754,3.323,3.323,0,0,0,2.755-3.352c-.062-3.421-3.751-5.945-7.2-10.331Z"/><path id="18092328-36b1-492d-b2af-301c5fb8c90d" data-name="path153-0-1-2-5-6-5-9-1-9" d="M165.306,209.967c-3.449-4.386-7.138-6.91-7.2-10.331a3.323,3.323,0,0,1,2.755-3.352,2.86,2.86,0,0,1,3.284,2.754c-.008.4.473.389.469-.158a10.445,10.445,0,0,0-1.567-4.913h4.518A10.445,10.445,0,0,0,166,198.88c-.008.547.475.557.469.158a2.86,2.86,0,0,1,3.283-2.754,3.322,3.322,0,0,1,2.755,3.352C172.444,203.057,168.754,205.581,165.306,209.967Z"/><path id="110dedc2-19b5-42c6-b767-fe020253ca88" data-name="path153-6-3-1-6-92-7-2-9-8" d="M89.788,106.021c-7.381,10.526-15.278,16.583-15.41,24.8-.044,2.659,1.394,7.178,5.9,8.043,2.922.559,6.944-1.805,7.028-6.61-.013-.956,1.013-.931,1,.379a27.252,27.252,0,0,1-3.353,11.793h9.669a27.252,27.252,0,0,1-3.353-11.793c-.01-1.31,1.016-1.335,1-.379.084,4.805,4.106,7.169,7.028,6.61,4.5-.865,5.941-5.384,5.9-8.043-.131-8.212-8.029-14.269-15.409-24.795Z"/><path id="05dd7652-ff5b-45a3-a9d5-f4aa6b0b4070" data-name="path41-4-9-2" d="M6.2,37.967V35.709H8.349l4.589-24.142h2.611L20.6,35.709h1.74v2.258H16.416V35.709h1.6l-.639-3.7H11.4l-.462,3.7h1.6v2.258Zm10.672-8.593-2.6-12.922L11.833,29.374Z"/><path id="57dd0a14-6d83-485b-8968-35fbea0f8a89" data-name="path41-4-2-4-0" d="M157.231,212.475v2.258h2.154l4.588,24.142h2.612l5.054-24.142h1.739v-2.258h-5.926v2.258h1.6l-.639,3.7h-5.979l-.461-3.7h1.6v-2.258Zm10.671,8.593-2.6,12.922-2.435-12.922Z"/></g><rect id="c5a39bfb-bf84-4a5e-af63-f9c74202b7a4" data-name="rect17612" x="0.496" y="0.496" width="178.583" height="249.449" rx="8.504" ry="8.504" opacity="0.08" fill="url(#464fb4f8-5788-4e8c-badb-b4de85de91e0)" style="isolation:isolate"/></g></g></g></svg>