<svg xmlns="http://www.w3.org/2000/svg" viewBox="0 0 179.572 250.438"><title>BackRed</title><g id="91c5c2bc-de40-4f44-9d9a-beda75f29723" data-name="Layer 2"><g id="4ef9e967-4f19-4d05-b7ed-7f0a985842bc" data-name="Backs"><g id="c108c05c-5450-4d8c-9e6f-8b11155d67a5" data-name="BackRed"><path id="a51b1b17-6007-4e64-8265-2af7520c5ace" data-name="path6318-7" d="M9,.5H170.573a8.486,8.486,0,0,1,8.5,8.5v232.44a8.486,8.486,0,0,1-8.5,8.5H9a8.486,8.486,0,0,1-8.5-8.5V9A8.486,8.486,0,0,1,9,.5Z" fill="#fff" stroke="#b3b0b0" stroke-width="0.989"/><path d="M165.765,13.9H14.961a1,1,0,0,0-1,1V236.344a1,1,0,0,0,1,1h150.8a1,1,0,0,0,1-1V14.9A1,1,0,0,0,165.765,13.9Zm0,222.446H14.961V14.9h150.8Z" fill="#d40000"/><path d="M67.067,161.642h-1v3.5h-3.5v1h3.5v3.5h1v-3.5h3.5v-1h-3.5Zm0,13.34h-1v3.5h-3.5v1h3.5v3.5h1v-3.5h3.5v-1h-3.5Zm0,13.341h-1v3.5h-3.5v1h3.5v3.5h1v-3.5h3.5v-1h-3.5Zm0,13.34h-1v3.5h-3.5v1h3.5v3.5h1v-3.5h3.5v-1h-3.5ZM82.936,14.9h-1v3.5h-3.5v1h3.5v3.5h1V19.4h3.5v-1h-3.5ZM51.2,121.621h-1v3.5H46.7v1h3.5v3.5h1v-3.5h3.5v-1H51.2ZM67.067,81.6h-1v3.5h-3.5v1h3.5v3.5h1V86.1h3.5v-1h-3.5Zm0,26.681h-1v3.5h-3.5v1h3.5v3.5h1v-3.5h3.5v-1h-3.5Zm0,26.68h-1v3.5h-3.5v1h3.5v3.5h1v-3.5h3.5v-1h-3.5Zm0-13.34h-1v3.5h-3.5v1h3.5v3.5h1v-3.5h3.5v-1h-3.5Zm0,93.382h-1v3.5h-3.5v1h3.5V223h1v-3.5h3.5v-1h-3.5ZM51.2,81.6h-1v3.5H46.7v1h3.5v3.5h1V86.1h3.5v-1H51.2Zm0-13.341h-1v3.5H46.7v1h3.5v3.5h1v-3.5h3.5v-1H51.2Zm0,26.681h-1v3.5H46.7v1h3.5v3.5h1v-3.5h3.5v-1H51.2Zm0,13.341h-1v3.5H46.7v1h3.5v3.5h1v-3.5h3.5v-1H51.2Zm0-66.7h-1v3.5H46.7v1h3.5v3.5h1v-3.5h3.5v-1H51.2Zm0-13.341h-1v3.5H46.7v1h3.5v3.5h1v-3.5h3.5v-1H51.2Zm0-13.34h-1v3.5H46.7v1h3.5v3.5h1V19.4h3.5v-1H51.2ZM67.067,228.344h-1v3.5h-3.5v1h3.5v3.5h1v-3.5h3.5v-1h-3.5ZM51.2,54.919h-1v3.5H46.7v1h3.5v3.5h1v-3.5h3.5v-1H51.2ZM67.067,94.94h-1v3.5h-3.5v1h3.5v3.5h1v-3.5h3.5v-1h-3.5Zm15.869,13.341h-1v3.5h-3.5v1h3.5v3.5h1v-3.5h3.5v-1h-3.5Zm0-26.681h-1v3.5h-3.5v1h3.5v3.5h1V86.1h3.5v-1h-3.5Zm0,13.34h-1v3.5h-3.5v1h3.5v3.5h1v-3.5h3.5v-1h-3.5Zm0,40.021h-1v3.5h-3.5v1h3.5v3.5h1v-3.5h3.5v-1h-3.5Zm0-13.34h-1v3.5h-3.5v1h3.5v3.5h1v-3.5h3.5v-1h-3.5Zm0-66.7h-1v3.5h-3.5v1h3.5v3.5h1v-3.5h3.5v-1h-3.5Zm0,13.34h-1v3.5h-3.5v1h3.5v3.5h1v-3.5h3.5v-1h-3.5Zm0-40.021h-1v3.5h-3.5v1h3.5v3.5h1v-3.5h3.5v-1h-3.5Zm0,13.341h-1v3.5h-3.5v1h3.5v3.5h1v-3.5h3.5v-1h-3.5Zm0,106.723h-1v3.5h-3.5v1h3.5v3.5h1v-3.5h3.5v-1h-3.5ZM67.067,28.238h-1v3.5h-3.5v1h3.5v3.5h1v-3.5h3.5v-1h-3.5Zm0-13.34h-1v3.5h-3.5v1h3.5v3.5h1V19.4h3.5v-1h-3.5ZM82.936,228.344h-1v3.5h-3.5v1h3.5v3.5h1v-3.5h3.5v-1h-3.5ZM67.067,68.259h-1v3.5h-3.5v1h3.5v3.5h1v-3.5h3.5v-1h-3.5Zm0-26.68h-1v3.5h-3.5v1h3.5v3.5h1v-3.5h3.5v-1h-3.5Zm0,13.34h-1v3.5h-3.5v1h3.5v3.5h1v-3.5h3.5v-1h-3.5ZM82.936,215h-1v3.5h-3.5v1h3.5V223h1v-3.5h3.5v-1h-3.5Zm0-40.021h-1v3.5h-3.5v1h3.5v3.5h1v-3.5h3.5v-1h-3.5Zm0,13.341h-1v3.5h-3.5v1h3.5v3.5h1v-3.5h3.5v-1h-3.5Zm0-26.681h-1v3.5h-3.5v1h3.5v3.5h1v-3.5h3.5v-1h-3.5Zm0,40.021h-1v3.5h-3.5v1h3.5v3.5h1v-3.5h3.5v-1h-3.5ZM67.067,148.3h-1v3.5h-3.5v1h3.5v3.5h1v-3.5h3.5v-1h-3.5ZM19.461,54.919h-1v3.5h-3.5v1h3.5v3.5h1v-3.5h3.5v-1h-3.5Zm0,13.34h-1v3.5h-3.5v1h3.5v3.5h1v-3.5h3.5v-1h-3.5Zm0-26.68h-1v3.5h-3.5v1h3.5v3.5h1v-3.5h3.5v-1h-3.5Zm0,40.021h-1v3.5h-3.5v1h3.5v3.5h1V86.1h3.5v-1h-3.5Zm0,13.34h-1v3.5h-3.5v1h3.5v3.5h1v-3.5h3.5v-1h-3.5Zm15.869,133.4h-1v3.5h-3.5v1h3.5v3.5h1v-3.5h3.5v-1h-3.5ZM19.461,108.281h-1v3.5h-3.5v1h3.5v3.5h1v-3.5h3.5v-1h-3.5ZM35.33,215h-1v3.5h-3.5v1h3.5V223h1v-3.5h3.5v-1h-3.5ZM19.461,28.238h-1v3.5h-3.5v1h3.5v3.5h1v-3.5h3.5v-1h-3.5Zm0-13.34h-1v3.5h-3.5v1h3.5v3.5h1V19.4h3.5v-1h-3.5Zm0,106.723h-1v3.5h-3.5v1h3.5v3.5h1v-3.5h3.5v-1h-3.5Zm0,66.7h-1v3.5h-3.5v1h3.5v3.5h1v-3.5h3.5v-1h-3.5Zm0,13.34h-1v3.5h-3.5v1h3.5v3.5h1v-3.5h3.5v-1h-3.5Zm15.869,0h-1v3.5h-3.5v1h3.5v3.5h1v-3.5h3.5v-1h-3.5ZM19.461,228.344h-1v3.5h-3.5v1h3.5v3.5h1v-3.5h3.5v-1h-3.5Zm0-13.341h-1v3.5h-3.5v1h3.5V223h1v-3.5h3.5v-1h-3.5Zm0-80.042h-1v3.5h-3.5v1h3.5v3.5h1v-3.5h3.5v-1h-3.5Zm0,40.021h-1v3.5h-3.5v1h3.5v3.5h1v-3.5h3.5v-1h-3.5Zm0-26.68h-1v3.5h-3.5v1h3.5v3.5h1v-3.5h3.5v-1h-3.5Zm0,13.34h-1v3.5h-3.5v1h3.5v3.5h1v-3.5h3.5v-1h-3.5ZM35.33,28.238h-1v3.5h-3.5v1h3.5v3.5h1v-3.5h3.5v-1h-3.5ZM51.2,215h-1v3.5H46.7v1h3.5V223h1v-3.5h3.5v-1H51.2ZM35.33,14.9h-1v3.5h-3.5v1h3.5v3.5h1V19.4h3.5v-1h-3.5ZM51.2,228.344h-1v3.5H46.7v1h3.5v3.5h1v-3.5h3.5v-1H51.2ZM35.33,41.579h-1v3.5h-3.5v1h3.5v3.5h1v-3.5h3.5v-1h-3.5ZM51.2,134.961h-1v3.5H46.7v1h3.5v3.5h1v-3.5h3.5v-1H51.2Zm0,53.362h-1v3.5H46.7v1h3.5v3.5h1v-3.5h3.5v-1H51.2Zm-15.869,0h-1v3.5h-3.5v1h3.5v3.5h1v-3.5h3.5v-1h-3.5ZM51.2,201.663h-1v3.5H46.7v1h3.5v3.5h1v-3.5h3.5v-1H51.2Zm0-26.681h-1v3.5H46.7v1h3.5v3.5h1v-3.5h3.5v-1H51.2ZM35.33,54.919h-1v3.5h-3.5v1h3.5v3.5h1v-3.5h3.5v-1h-3.5ZM51.2,148.3h-1v3.5H46.7v1h3.5v3.5h1v-3.5h3.5v-1H51.2ZM35.33,68.259h-1v3.5h-3.5v1h3.5v3.5h1v-3.5h3.5v-1h-3.5Zm0,93.383h-1v3.5h-3.5v1h3.5v3.5h1v-3.5h3.5v-1h-3.5Zm0,13.34h-1v3.5h-3.5v1h3.5v3.5h1v-3.5h3.5v-1h-3.5Zm0-40.021h-1v3.5h-3.5v1h3.5v3.5h1v-3.5h3.5v-1h-3.5Zm0,13.341h-1v3.5h-3.5v1h3.5v3.5h1v-3.5h3.5v-1h-3.5Zm0-53.362h-1v3.5h-3.5v1h3.5v3.5h1v-3.5h3.5v-1h-3.5Zm0-13.34h-1v3.5h-3.5v1h3.5v3.5h1V86.1h3.5v-1h-3.5Zm0,26.681h-1v3.5h-3.5v1h3.5v3.5h1v-3.5h3.5v-1h-3.5Zm0,13.34h-1v3.5h-3.5v1h3.5v3.5h1v-3.5h3.5v-1h-3.5ZM51.2,161.642h-1v3.5H46.7v1h3.5v3.5h1v-3.5h3.5v-1H51.2Zm95.212-13.34h-1v3.5h-3.5v1h3.5v3.5h1v-3.5h3.5v-1h-3.5Zm0-13.341h-1v3.5h-3.5v1h3.5v3.5h1v-3.5h3.5v-1h-3.5Zm0,40.021h-1v3.5h-3.5v1h3.5v3.5h1v-3.5h3.5v-1h-3.5Zm0-53.361h-1v3.5h-3.5v1h3.5v3.5h1v-3.5h3.5v-1h-3.5Zm0,40.021h-1v3.5h-3.5v1h3.5v3.5h1v-3.5h3.5v-1h-3.5Zm0,26.681h-1v3.5h-3.5v1h3.5v3.5h1v-3.5h3.5v-1h-3.5Zm0-106.723h-1v3.5h-3.5v1h3.5v3.5h1V86.1h3.5v-1h-3.5Zm0,26.681h-1v3.5h-3.5v1h3.5v3.5h1v-3.5h3.5v-1h-3.5Zm0-40.022h-1v3.5h-3.5v1h3.5v3.5h1v-3.5h3.5v-1h-3.5Zm0,26.681h-1v3.5h-3.5v1h3.5v3.5h1v-3.5h3.5v-1h-3.5Zm0-40.021h-1v3.5h-3.5v1h3.5v3.5h1v-3.5h3.5v-1h-3.5Zm-15.869,0h-1v3.5h-3.5v1h3.5v3.5h1v-3.5h3.5v-1h-3.5Zm0,13.34h-1v3.5h-3.5v1h3.5v3.5h1v-3.5h3.5v-1h-3.5Zm0,13.341h-1v3.5h-3.5v1h3.5v3.5h1V86.1h3.5v-1h-3.5Zm0-40.021h-1v3.5h-3.5v1h3.5v3.5h1v-3.5h3.5v-1h-3.5Zm0,53.361h-1v3.5h-3.5v1h3.5v3.5h1v-3.5h3.5v-1h-3.5Zm15.869,133.4h-1v3.5h-3.5v1h3.5v3.5h1v-3.5h3.5v-1h-3.5ZM130.542,28.238h-1v3.5h-3.5v1h3.5v3.5h1v-3.5h3.5v-1h-3.5Zm15.869,173.425h-1v3.5h-3.5v1h3.5v3.5h1v-3.5h3.5v-1h-3.5Zm0,13.34h-1v3.5h-3.5v1h3.5V223h1v-3.5h3.5v-1h-3.5ZM130.542,14.9h-1v3.5h-3.5v1h3.5v3.5h1V19.4h3.5v-1h-3.5ZM162.28,174.982h-1v3.5h-3.5v1h3.5v3.5h1v-3.5h3.5v-1h-3.5Zm0-93.382h-1v3.5h-3.5v1h3.5v3.5h1V86.1h3.5v-1h-3.5Zm0,13.34h-1v3.5h-3.5v1h3.5v3.5h1v-3.5h3.5v-1h-3.5Zm0,26.681h-1v3.5h-3.5v1h3.5v3.5h1v-3.5h3.5v-1h-3.5Zm0-53.362h-1v3.5h-3.5v1h3.5v3.5h1v-3.5h3.5v-1h-3.5Zm0,40.022h-1v3.5h-3.5v1h3.5v3.5h1v-3.5h3.5v-1h-3.5Zm0-89.883V14.9h-1v3.5h-3.5v1h3.5v3.5h1V19.4h3.5v-1Zm0,9.84h-1v3.5h-3.5v1h3.5v3.5h1v-3.5h3.5v-1h-3.5Zm0,26.681h-1v3.5h-3.5v1h3.5v3.5h1v-3.5h3.5v-1h-3.5Zm0,80.042h-1v3.5h-3.5v1h3.5v3.5h1v-3.5h3.5v-1h-3.5Zm0-93.382h-1v3.5h-3.5v1h3.5v3.5h1v-3.5h3.5v-1h-3.5Zm0,173.424h-1v3.5h-3.5v1h3.5V223h1v-3.5h3.5v-1h-3.5Zm0,13.341h-1v3.5h-3.5v1h3.5v3.5h1v-3.5h3.5v-1h-3.5Zm0-80.042h-1v3.5h-3.5v1h3.5v3.5h1v-3.5h3.5v-1h-3.5ZM146.411,14.9h-1v3.5h-3.5v1h3.5v3.5h1V19.4h3.5v-1h-3.5Zm0,13.34h-1v3.5h-3.5v1h3.5v3.5h1v-3.5h3.5v-1h-3.5Zm0,13.341h-1v3.5h-3.5v1h3.5v3.5h1v-3.5h3.5v-1h-3.5Zm-15.869,66.7h-1v3.5h-3.5v1h3.5v3.5h1v-3.5h3.5v-1h-3.5Zm31.738,93.382h-1v3.5h-3.5v1h3.5v3.5h1v-3.5h3.5v-1h-3.5Zm0-40.021h-1v3.5h-3.5v1h3.5v3.5h1v-3.5h3.5v-1h-3.5Zm0,26.681h-1v3.5h-3.5v1h3.5v3.5h1v-3.5h3.5v-1h-3.5ZM130.542,215h-1v3.5h-3.5v1h3.5V223h1v-3.5h3.5v-1h-3.5ZM98.805,81.6h-1v3.5h-3.5v1h3.5v3.5h1V86.1h3.5v-1h-3.5Zm0-53.362h-1v3.5h-3.5v1h3.5v3.5h1v-3.5h3.5v-1h-3.5Zm0,26.681h-1v3.5h-3.5v1h3.5v3.5h1v-3.5h3.5v-1h-3.5Zm0,13.34h-1v3.5h-3.5v1h3.5v3.5h1v-3.5h3.5v-1h-3.5Zm0-53.361h-1v3.5h-3.5v1h3.5v3.5h1V19.4h3.5v-1h-3.5Zm0,26.681h-1v3.5h-3.5v1h3.5v3.5h1v-3.5h3.5v-1h-3.5Zm15.869,160.084h-1v3.5h-3.5v1h3.5v3.5h1v-3.5h3.5v-1h-3.5Zm0-13.34h-1v3.5h-3.5v1h3.5v3.5h1v-3.5h3.5v-1h-3.5Zm0,26.68h-1v3.5h-3.5v1h3.5V223h1v-3.5h3.5v-1h-3.5Zm0,13.341h-1v3.5h-3.5v1h3.5v3.5h1v-3.5h3.5v-1h-3.5ZM98.805,201.663h-1v3.5h-3.5v1h3.5v3.5h1v-3.5h3.5v-1h-3.5Zm0-13.34h-1v3.5h-3.5v1h3.5v3.5h1v-3.5h3.5v-1h-3.5Zm0-13.341h-1v3.5h-3.5v1h3.5v3.5h1v-3.5h3.5v-1h-3.5Zm31.737-53.361h-1v3.5h-3.5v1h3.5v3.5h1v-3.5h3.5v-1h-3.5Zm-15.868,53.361h-1v3.5h-3.5v1h3.5v3.5h1v-3.5h3.5v-1h-3.5ZM98.805,215h-1v3.5h-3.5v1h3.5V223h1v-3.5h3.5v-1h-3.5Zm0-93.382h-1v3.5h-3.5v1h3.5v3.5h1v-3.5h3.5v-1h-3.5Zm0-26.681h-1v3.5h-3.5v1h3.5v3.5h1v-3.5h3.5v-1h-3.5Zm0,13.341h-1v3.5h-3.5v1h3.5v3.5h1v-3.5h3.5v-1h-3.5Zm0,40.021h-1v3.5h-3.5v1h3.5v3.5h1v-3.5h3.5v-1h-3.5Zm0-13.341h-1v3.5h-3.5v1h3.5v3.5h1v-3.5h3.5v-1h-3.5Zm0,26.681h-1v3.5h-3.5v1h3.5v3.5h1v-3.5h3.5v-1h-3.5Zm0,66.7h-1v3.5h-3.5v1h3.5v3.5h1v-3.5h3.5v-1h-3.5Zm31.737-26.681h-1v3.5h-3.5v1h3.5v3.5h1v-3.5h3.5v-1h-3.5ZM114.674,14.9h-1v3.5h-3.5v1h3.5v3.5h1V19.4h3.5v-1h-3.5Zm15.868,213.446h-1v3.5h-3.5v1h3.5v3.5h1v-3.5h3.5v-1h-3.5Zm0-40.021h-1v3.5h-3.5v1h3.5v3.5h1v-3.5h3.5v-1h-3.5Zm0-26.681h-1v3.5h-3.5v1h3.5v3.5h1v-3.5h3.5v-1h-3.5Zm0-13.34h-1v3.5h-3.5v1h3.5v3.5h1v-3.5h3.5v-1h-3.5Zm-15.868,13.34h-1v3.5h-3.5v1h3.5v3.5h1v-3.5h3.5v-1h-3.5Zm0-133.4h-1v3.5h-3.5v1h3.5v3.5h1v-3.5h3.5v-1h-3.5Zm15.868,146.744h-1v3.5h-3.5v1h3.5v3.5h1v-3.5h3.5v-1h-3.5Zm0-40.021h-1v3.5h-3.5v1h3.5v3.5h1v-3.5h3.5v-1h-3.5Zm-15.868,0h-1v3.5h-3.5v1h3.5v3.5h1v-3.5h3.5v-1h-3.5Zm0-13.34h-1v3.5h-3.5v1h3.5v3.5h1v-3.5h3.5v-1h-3.5Zm0-80.042h-1v3.5h-3.5v1h3.5v3.5h1v-3.5h3.5v-1h-3.5Zm0,66.7h-1v3.5h-3.5v1h3.5v3.5h1v-3.5h3.5v-1h-3.5Zm0,40.021h-1v3.5h-3.5v1h3.5v3.5h1v-3.5h3.5v-1h-3.5Zm0-93.383h-1v3.5h-3.5v1h3.5v3.5h1v-3.5h3.5v-1h-3.5Zm0,13.34h-1v3.5h-3.5v1h3.5v3.5h1v-3.5h3.5v-1h-3.5Zm0,13.341h-1v3.5h-3.5v1h3.5v3.5h1V86.1h3.5v-1h-3.5Zm0,13.34h-1v3.5h-3.5v1h3.5v3.5h1v-3.5h3.5v-1h-3.5Z" fill="#d40000"/></g></g></g></svg>