<svg xmlns="http://www.w3.org/2000/svg" xmlns:xlink="http://www.w3.org/1999/xlink" viewBox="0 0 179.576 250.442"><defs><pattern id="f17e8f2e-9e4e-4b34-8c27-65cdd090e34c" data-name="pattern17760" width="595.276" height="841.89" patternTransform="matrix(0.8, 0, 0, -0.8, -615.4, 1813.785)" patternUnits="userSpaceOnUse" viewBox="0 0 595.276 841.89"><rect width="595.276" height="841.89" fill="none"/></pattern></defs><title>JC</title><g id="383d36f9-41e5-4ce5-99aa-143e41205c4b" data-name="Layer 2"><g id="007d7862-e99e-497c-8d5b-8822c0e028df" data-name="Clubs"><g id="1edf4699-a30f-4f24-80b4-e8f469b5a055" data-name="JC"><g id="da22d54b-eec9-4074-9272-6574cac90773" data-name="g101434"><g id="61e6b602-0623-45f6-ac7e-f19513782429" data-name="g101190"><rect id="fed5b799-a8ca-4e78-b2bf-475c0dbdf563" data-name="rect5168" x="0.496" y="0.496" width="178.583" height="249.449" rx="8.504" ry="8.504" fill="#fff" stroke="#b3b0b0" stroke-width="0.993"/><path id="fb10b600-c717-4bb7-b3b2-aa299564dcca" data-name="path147-6-9-8-7-0-5-6-79-2-4" d="M165.307,209.967c3.142-.071,4.551-3.751,2.224-6.609-.337-.417-.372-.656.246-.256,1.567,1.09,4.57.374,4.724-2.958.19-4.106-5.323-5.289-6.359-.923-.054.461-.414.45-.327-.2a14,14,0,0,1,1.359-5.05h-3.735a14,14,0,0,1,1.359,5.05c.087.654-.273.665-.327.2-1.036-4.366-6.55-3.183-6.36.923.154,3.332,3.158,4.048,4.725,2.958.618-.4.583-.161.246.256-2.327,2.858-.918,6.538,2.223,6.609h0Z"/><path id="0242e0ac-d264-40c2-acbe-882856e4c7e5" data-name="path147-6-9-8-7-4-5-62-3-3-7" d="M14.269,40.475c-3.142.072-4.55,3.751-2.224,6.609.338.417.373.656-.245.256-1.567-1.09-4.571-.374-4.725,2.958-.189,4.106,5.324,5.289,6.359.923.055-.46.415-.45.328.2a14,14,0,0,1-1.359,5.05h3.735a14,14,0,0,1-1.359-5.05c-.087-.654.273-.664.327-.2,1.035,4.366,6.55,3.183,6.359-.923-.153-3.332-3.157-4.048-4.724-2.958-.618.4-.583.161-.246-.256,2.327-2.858.918-6.538-2.223-6.609h0Z"/><path id="a62e1826-c9c9-4dfa-9cd4-154bccbf1a66" data-name="path35-5-6-2" d="M14.184,11.567V14.33h2.683s.065,2.664.089,8.314c.021,5.487.133,8.209-.217,9.772-.94,3.6-6.159,3.621-7.2,1.032a10.481,10.481,0,0,1-.47-4.195H6.188s.017.764.021,1.7c.017,4.05,1.357,5.987,4.5,6.751,3.226.871,7-.458,8.34-3.215.8-1.571.708-1.679.727-11.18.012-6.339.108-8.977.108-8.977h2.471V11.567Z"/><path id="398d4b23-c54e-4c88-8c4c-830c403b06d4" data-name="path35-6-4-1-2" d="M165.39,238.875v-2.763h-2.683s-.065-2.664-.088-8.314c-.021-5.487-.133-8.209.217-9.772.94-3.6,6.158-3.621,7.195-1.031a10.474,10.474,0,0,1,.47,4.194h2.885s-.016-.764-.02-1.7c-.017-4.05-1.358-5.987-4.5-6.751-3.227-.871-7,.458-8.341,3.215-.8,1.572-.707,1.68-.727,11.181-.012,6.338-.108,8.976-.108,8.976h-2.47v2.763Z"/><g id="b38c53c5-c10b-49f0-a51a-87391d8c59ac" data-name="g5275-8-4-5"><g id="bc9db17d-82dd-4030-b28b-c073ed819574" data-name="layer1-1-8-4-5"><g id="7456b2ff-3c09-40aa-b375-8a19dba7018a" data-name="g3799-8-1-3"><path id="bfedb481-81ba-44da-a07a-1a0186d75e0a" data-name="path3306-4-9-5" d="M129.778,24.447c.683-.98,3.641,5.855,5.539,11.035.933,2.545,2.18,4.643,1.666,5.312-1.353,1.373-4.855.144-7.4-1.817a22.439,22.439,0,0,1-4.643-5.179Zm23.87,5.066.108,4.019a90.438,90.438,0,0,0-8.663,8.667l9.1.051c-.08,49.39.073,148.379.073,148.379s-10.111-10.272-9.865-10.31c.012,0-.288-59.806-.326-100.036-.08-.19,5.287-.2,5.628-2.832.225-1.74-5.627-1.5-5.72-1.615.012-18.084-.054-30.85-.054-30.85l-5.376-.177ZM122.061,48.131c.782,1.561,2.026,7.562,2.978,7.419,4.372-1.454,5.78,5.017,1.256,5.35-1.713.126-3.625-2.113-4.7-4.9-.516-1.46.015-8.455.464-7.871Zm-.986,9c1.29,2.112,2.524,9.829,4.874,9.392a2.718,2.718,0,0,1,3.308,3.046c-1.1,4.637-8.96.231-11.022-.837A52.828,52.828,0,0,0,121.075,57.131Zm16.587,21.757c-1.8,4.081-1.315,7.433.211,11.538-4.667,2-9.268,4.405-13.869,6.81-.027-.011-.228-16.09,1.3-23.432.525-1.117,2.416-.225,3.507.32a74.027,74.027,0,0,1,8.856,4.764ZM54.825,152.76c.952,7.6.26,19.424-1.091,24.1-.519,1.583-11.335-5.558-12.117-6.046,2.131-3.959-.782-13.157-.464-11.51.75-.526,13.423-7.315,13.672-6.547ZM59.473,184.3c-.2.487-1.012,6.176-1.262,6.2-.822.071-2.025-5.57-4.118-7.432-3.951.457-4.414-2.228-3.641-3.525-.191-.57,1.276-1.808,2.646-1.69C56.5,179.183,61.1,180.364,59.473,184.3Zm45.33,9.711s-2.969,16.724-2.983,16.7c-7.339,1.063-14.413,2.281-20.955,1.537,1.291-17.382,3.323-32.415,8.9-35.023l-11.553-9.317s-12.828,8.019-12.095,7.9c.316-.085.566-6.821.754-17.712-.326-28.427-16.646-57.2-17.28-56.915-.346-.232,13.9-1.348,24.147,3.075l.46-37.642S69.12,64.074,68.18,62.9c-1.875-6.549,3.18-8.223,6.21-6.585,1.416-4.977,3.571-17.281,3.649-17.277a95.424,95.424,0,0,1,20.912-1.614,110.279,110.279,0,0,0-2.294,16.018C95.773,62.125,94,70.35,89.442,72.305c.811-.322,11.4,8.947,11.4,8.947L113.7,73.321c-4.155,27.089,2.947,53.4,15.2,74.681-6.177.714-13.17.375-24.084-2.9,0,0,.613,37.715.618,37.506,12.073,4.77,5.484,14.057-.631,11.4Zm-46.956,3.376c-.045.384-.221,4.644-.221,4.644-1.708-2.011-3.086-7.906-3.426-7.806,0,0-2.194.345-2.876-.384-2.226-2.377-.038-5.185,2.186-4.66,2.213.571,4.646,4.369,4.337,8.206ZM35.152,69.516s.473,66.885.462,100.409c-8.441-.132-6.784,4.57.111,4.075l.023,30.909,4.572.16s-8.6,9.009-14.061,14.762l-.126-2.925,8.3-8.984-8.6.015-.03-148.312ZM49.51,224.865c-2.083.455-4.255-9.177-7.866-15.023,4.1-2.467,10.579,2.226,12.034,5.991C52.73,219.024,49.45,224.831,49.51,224.865Z" fill="#e2cf00"/><path id="8c84b473-ef89-48cb-8d51-81f248d76b1a" data-name="path3304-4-6-6" d="M155.388,230.821V19.621H24.188v211.2Zm-43.481-44.479c-.178-.34-.47-.83-.47-.83a2.129,2.129,0,0,0,.538-.227c15.205-5.648,31.471-18.23,31.755-18.6v13.927l10.063,10.64v37.741H114.234l-11.6-19.47c.7-5.1,2.5-14.973,2.5-14.973,1.065.258,4.656.6,6.595-2.2.926-1.332,1.42-3.148.172-6.012ZM37.779,142.906l-1.5,1.91,2.648-.121-1.819,1.98,2.93.068-2.284,1.947,3.083.036-2.292,1.916,3.375-.153L39.5,152.573l3.337-.014-2.489,2.1,3.264.045-2.121,1.883,2.849.034-3.22,2.27a13.914,13.914,0,0,0-5.076-.986l-.039-15.286Zm-2.31,26.507c-7.529-.026-9.138,4.013-.039,4.656-.171,10.164.41,30.492.41,30.492l4.957.127s-13.288,14.4-14.54,15.575c-1.135-48.414-1.085-160.82-1.085-160.82l10.153,10.2.112,31.783c3.4,3.458,5.346,8.5,7.368,11.766l5.553,2.709-1.3,4.48.558,1.273,1.733-6.338-6.074-2.9-.643-1.311,1.023-5.972-5.749-1.98-1-1.373.36-5.832-1.207-.366V94.429l1.2.1.426-6.548L36.059,87.5V86.026c0,.026.952-.006,1.416.035a8.778,8.778,0,0,1,1.7,1.727L38.6,95.059l7.287,1.467.542.77-1.34,7.267,7.651,2.35c-.785-1.94-1.826-3.755-2.693-5.664,1.051-.306,2.148-.374,3.212-.6.287-9.818-.045-20.034.259-29.268,6.158-.446,3.269.143,5.947.1a1.907,1.907,0,0,0,1.026-3.509l1.062-.381L63.406,69.7l-3.878,3.734.024,1.074,4.815-4.836-2.084-2.415,1.239-.646,1.9,2.011s4.094-4.206,3.839-4.283a1.4,1.4,0,0,1-.507-.467c-2.915-6.319,1.062-9.337,5.869-7.589,1.223-5.815,2.388-11.063,3.349-17.087,3.593-1.362,20.488-2.149,20.675-1.837,0,0,.428.411.446.615-.076.269.484-.56.484-.56,0-.359,14.728.368,21.992,1.758a6.626,6.626,0,0,1,.089,1.622c-.119,1.851.023,1.833-1.654,1.564-3.426-.23-6.083.95-7.14,3.976-.592,1.7-.314,3.223.589,7.758.878,4.4.887,3.929.783,4.524a4.988,4.988,0,0,1-1.953,2.358c-.813.662-.894,1.914-.24,1.221A4.769,4.769,0,0,1,114,60.929c1.667-.876,1.612-1.721.628-5.338-.462-1.7-.945-3.525-.961-3.738-.049-.665.189-.393,1.182.291a23.52,23.52,0,0,0,2.022,1.237c2,1.069,1.111-.1-.81-1.384-1.509-1.124-1.759-1.608-.457-1.07a7.076,7.076,0,0,0,4.777-.257c.3-.166.514-.147.561.124.067.424-.19,1.488-.3,3.945-.282,6.215-1.739,12.839-5.856,16.667-5.893,5.479-15.577,1.761-20.95-3.315l-.581.887c3.607,3.04,9.859,6.833,15.948,6.1-2.546,2.132-8.162,5.665-8.162,5.665-3.852-2.805-6.693-5.6-10.92-8.641l-.736.49,11.629,9.259,12.527-8.294s-.52,7.957-.716,10.866l5.435-4.824-4.192-6.233,4.444-4.59s-.751.106.069-1.311c1.251-2.547,2.007-6.651,2.584-10.819-.112-3.113.651-6.557.888-9.3a24.465,24.465,0,0,0,1.843,6.249c.87,2.245,1.209,2.228,2.19,1.9,5.315-.449,2.91,9.848-3.371,3.113-.277-.286-.731-.635-.752-.568a35.552,35.552,0,0,0,2.363,7.087c.735,1.321.741,1.507,1.832,1.394,2.043-.211,2.735.519,2.942,2.679-.272,4.082-4.672,2.357-7.489,1.1-.255-.2,1.322,1.442,1.886,2.019a3.3,3.3,0,0,1,.891,1.288l-.167,2.166-4.311,3.953,3.544,5.256-.147,1.879-3.788,4.563,4.036,4.4.051,1.568-3.281,4.385,4.4,3.54.213,1.412s-2.822,5.244-2.746,5.435c.064.16,4.765,3.42,4.765,3.42l.472,2.205-2.041,5.6,4.884,2.8.895,2.529-1.375,5.185,5.067,2.35,1.445,2.922-.941,5.45,5.679,1.689,1.506,2.4-.2,4.793,1.391.144-.02,1.183-1.549-.012a9.007,9.007,0,0,1-.051,2.544c-.29,4.026-.318,3.871.639,4.039,2.017.352,1.555,1.6-.507,1.365-.316-.035-.584-.062-.81-.1-.542-.1-.96-.809-.96-.809l.453-7.435-7.263-1.217-.69-.934,1.216-6.89-6.817-1.98-.918-1.669,1.933-7.166-6.873-3.035-.453-1.33,2.917-6.361-6.314-3.081-.395-1.525,3.506-6.559-7.279-5.318s.195.52.484,1.388l5.772,4.14-2.925,5.6s-.233-.409-.48-.323c.147.934.263,1.874.329,2.793l2.979,7.8-9.637,6.508c4.129,2.5,9.34,2.414,14.123,3.35a6.779,6.779,0,0,0,.569,1.268c1.392,2.242,2.644,5.092,4.2,8.033a9.371,9.371,0,0,1-2.868.713c-1.7,9.586-3.383,20.615-6.093,28.96a2.15,2.15,0,0,0-1.4,3.773c-.265.076-.545.151-.84.222-.391.006-1.972-1.747-1.972-1.747L119.8,175.8l.024-1.331c-1.621,1.695-5.183,5.353-5.183,5.353l2.146,2.265-1.062.5-1.739-1.922-3.9,4.026-1-.685a46.5,46.5,0,0,1,4.137-4.345c-1.028-1.221-5.009-5.073-5.009-5.073l.012,1.33,3.924,3.821-3.816,3.824-.221.253s-3.029-1.315-3.221-1.312c1.287,1.064,3.6,1.975,4.856,2.9,5.692,3.371.285,10.346-4.965,8.614-.15-.562-2.9,14.713-2.587,15.555-.278,2.366-.338,2.032.478,3.387,2.444,5.657,9.576,16.363,9.576,16.363l-64.176.412a25.87,25.87,0,0,0,1.848-3.9A22.747,22.747,0,0,1,45,217.1a15.594,15.594,0,0,0-3.648-7.2c-.029-.066.065-.148.178-.226,5.074-1.8,10.858,2.552,12.634,7.512l2.912-4.767c-1.315-.149,19.381,2.359,24.458,1.725-.45-.089-.981-.464-.681-1.894.516-2.466,1.437-11.38,1.437-11.38,1.02-8.672,1.807-19.57,7.506-23.174a10.507,10.507,0,0,0-1.626-1.409c-.018.012.671.712.694.794a.691.691,0,0,1-.314.544A14.2,14.2,0,0,0,85.92,180.7c-4.7-4.1-12.062-7.633-16.5-6.166-1.75.368-2.527,2.062-3.455.688a99.455,99.455,0,0,0,.654-22.113c-.725-14.367-3.884-22.6-7.014-32.778,1.609-.571,9.87-6.132,9.87-6.132.05-.708-9.965-3.016-13.894-2.607,0,0-.809-.79-.812-.623.023.043.051.1.078.155a1.906,1.906,0,0,0,1.484,3.49c.493,1.216.914,2.28.914,2.28l-5.563-2.432,1.813-6.111-.608-1.358-2.212,7.96,7.1,3.053.48,1.413-2.944,6.038,6.349,3.777.267,1.2-3.416,6.482,6.147,4.742-4.5,5.835,5.535,4.669-.062.774-4.586,5.3,4.741,4.894.132,1.98-5.168,4.614,4.463,6.509a19.694,19.694,0,0,0-4.118,4.112l-1.088-.479,3.963-3.015-4.234-6.143-4.467,4.05,2.421,3.964-1.476-.673-1.352-2.124.221-2.171,4.412-4.034-3.792-5.517-.031-1.011s2.358-2.722,4.075-4.746l-4.807-5.326,3.932-5.038-4.947-4.229.139,1.268,3.649,3.093-2.8,3.408c-.2,2.054.243,5.578-.8,7.126,1.688,1.659.806,5.657-.023,6.953,1.613,1.918.691,6.128-.339,6.3,1.232,1.55.742,4.693-.287,5.715-.33.176,4.4,1.888,7.377,3.944-2.48,4.636-1.9,9-2.684,10.569a78.642,78.642,0,0,0-3.634-8.8c-.125-.247-.388-.192-.782-.2-4.929-.44-4.46-4.521-.763-5.566,0,0-7.518-5.622-11.327-6.245-.04-.1-.012-.233.116-.5a14.009,14.009,0,0,0,.934-4.773,20.39,20.39,0,0,0-.949-6.443l1.561-.969c.31-1.342,2.055-1.37,2.223-2.326-.369-4.108-8.355-19.837-10.042-21.614-.639,11.224.582,23.407-.029,34.609Zm1.823-28.623L36,141.859l.031-1.7Zm-1.264-2.6.653.489-.657.732Zm80.321-20.032c-.122-.773-.265-1.54-.422-2.291a2.147,2.147,0,0,0-1.035-4.167c-.336-1.185-.659-2.206-.91-2.957l-.434-.311c1.171,4.092-1.1,6.292,2.255,9.691.05.17.3.122.546.035ZM47.143,229.13l-20.886-.137v-7.741l16.095-17.186-6.206-.077.066-29.477a28.881,28.881,0,0,0,4.893-2.875l9.789,5.439.7.362a3.656,3.656,0,0,0-.845.455,3.43,3.43,0,0,0-1.026,3.867c.822,2.2,2.521,1.8,3.936,1.809,1.175.911,2.18,3.96,3.006,6a13.022,13.022,0,0,1,.84,2.073,5.243,5.243,0,0,1,.085.888s-.19-.059-.468-.631c-1.56-3.3-5.2-4.893-7.14-1.774-.981,1.913-.3,4.1,1.345,4.708a8.447,8.447,0,0,0,2.22-.012c.1-.06,1.243,1.62,2.858,7.139.663,2.279.837,7.225.205,7.936-1.069,1.3-1.345,3.135-2.25,4.451-.411.826-.39.311-1.035-.611-2.2-3.142-6.062-5.577-9.6-5.423-2.511.109-3.286.969-2.692,1.7a11.805,11.805,0,0,1,2.731,5.135c1.052,4.045,2.168,7.652,5,10.8Zm10.6-19.2c-.265-.25-.056-.636-.008-1.334.121-1.773.159-1.793,1.174-1.346a5.937,5.937,0,0,0,6.356-1.7c2.093-2.28,2.159-4.627.853-9.26-1.493-5.21-1.457-5.9.333-6.963,1.076-.921,2.179-2.85,1.766-2.844a.806.806,0,0,0-.329.257,19.6,19.6,0,0,1-1.863,1.455c-2.078,1.427-2.729,2.156-1.774,4.793.942,2.6,1.7,5.144,1.309,5.3-.188.076-.9-.771-1.348-1.027a21.225,21.225,0,0,0-3.06-1.49c-.325,0,.022.236.956.852,2.5,1.649,3.526,3.143,1.112,2.2a5.207,5.207,0,0,0-3.432.043c-.9.3-1.369.593-1.464.253a34.471,34.471,0,0,1,.093-4.871c.029-.1.151-1.2.271-2.435.457-4.688,1.253-8.637,3.3-11.181,6.862-8.511,14.672-6.031,23.444.782-3.272,9.1-3.046,16.2-3.854,19.086a3.077,3.077,0,0,1-2.2-.529,9.1,9.1,0,0,0-3.947-1.191c-1.243-.067-1.459.11-1.348-.26.086-.285,2.089-.876,3.316-1.132,2.232-.467,2.068-.985.189-.815a12.685,12.685,0,0,0-5.911,2.32c-1.4.936-1.453.938-1.077,2.113.091.282.281.706-.387.953-.693.256-.595.54-.2.856.1.077.345.095.445.175.125.1-.009.539-.008.6,2.553,2.168,7.055,2.221,10.755,0a.53.53,0,0,1,.2.756c-.388.855-4.37,1.88-7.2,1.925-1.289.021-1.541-.143-3.482-.739-.8-.245-1.245-.308-1.318-.187-.165.278.123,1.1.736,1.545,2.073,1.492,5.092,1.373,9.212-.268,2.206-.879,1.976-1.181,1.263,3.19-.2,1.212-.425,2.138-.425,2.138S60.918,211.251,57.747,209.926Zm2.967-4.1a3.65,3.65,0,0,1-2.495-.794c-.794-.882.04-1.158,1.3-.677a5.59,5.59,0,0,0,4.873-.622c.913-.57,1.109-.265.341.552A5.669,5.669,0,0,1,60.714,205.822ZM75.376,204.3c-1.778.012-3.406-.308-4.075-1.062-.611-.689-.022-.759,1.5-.16a9.5,9.5,0,0,0,7.376-.6c1.214-.606,1.587-.729,1.425-.039C80.892,203.556,77.974,204.283,75.376,204.3Zm-14.221-.557c-1.694,0-3.133-.394-2.866-1.283.095-.317.179-.126,1.391.248a7.775,7.775,0,0,0,4.311-.221c1.45-.425,1.727-.521,1.077.109A6.057,6.057,0,0,1,61.155,203.744Zm-3.45-.855c-1.716-2.654-2.019-6.548-3.844-8.656-3.376.631-4.974-2.558-2.133-4.681,1.445-.806,3.2-.2,4.5,1.93a8.751,8.751,0,0,1,1.614,4.543C57.73,198.727,57.882,200.174,57.705,202.889Zm19.767-1.218-.748-.09c-.543-1.848-1.758-1.959-2.487-.023l-.565-.093C74.531,199.092,76.686,198.994,77.472,201.671Zm1.158-.035c-.312.017-.571-.312-.709-.747-.291-.984.04-.86.717-.444s1.212.695.817.864A2.92,2.92,0,0,1,78.63,201.636Zm-6.423-.63c-.258-.322-.316-.569.016-.8a6.5,6.5,0,0,1,.879-.393c.3-.092.487-.019.36.416a3.229,3.229,0,0,1-.488,1.117A.921.921,0,0,1,72.207,201.006Zm-9.068.225-.593-.043c-.621-1.689-2.074-1.64-2.634-.175l-.531,0C60.382,198.4,62.417,198.874,63.139,201.231Zm1.069-.222c-.568,0-1.121-.82-.81-1.241.315-.263,1.716.037,1.84.557C65.287,200.638,64.776,201.009,64.208,201.009Zm-5.485-.159a.3.3,0,0,1-.264-.307c-.144-.692.679-.934.864-.67C59.425,200.019,58.991,200.572,58.723,200.85Zm13.052-7.4a2.683,2.683,0,0,0,1.945-2.937,2.2,2.2,0,0,0-1.455-2.159c-1.656-.377-2.8.784-4.493,1.253-.731.191-.56,1.138-.092,1.55.6.528,1.524.2,2.761-.753,2.428-1.866,3.012,1.722.8,2.357C70.9,192.859,71.054,193.653,71.775,193.45Zm71.788-82.644-.944-.273.943-1.122s-.005.97,0,1.395Zm-2.63-3.839,1.945-2.2-2.642.2,1.792-1.869-2.749-.111,2.021-2.1-2.7.055,2-2.027-2.55-.073,1.685-1.854-2.8.216,2.048-2.218-3.005.053,2.277-2.068-3,.021.9-1.03-.8-.4c-.816.381-5.517,1.849-5.672,2.954,1.038.28,4.094-1.282,4.3-1.023,1.226,5.429,6.511,17.437,10,20.938l.244-33.932c.533-.5,1.384-.25,1.927-.47,1.768.092,4.722-2.874,3.178-3.463-.807-.179-5.275-.948-5.287-1.171-.548-9.835.337-19.722-.07-30.22-1.25-.187-5.334-.42-5.334-.42s14.98-15.7,15.274-15.383c-.35,16.826-.166,49.718.128,49.84a27.562,27.562,0,0,1-.346,3.065l.323,104.639a2.778,2.778,0,0,0,.267.767c.308.51.33.641.352,2.21a2.435,2.435,0,0,1-.019,1.221h0l-10.249-10.87-.013-30.418s-9.7-14.382-11.931-21.024c-4.895-9.889-4.365-24.3-7.333-29.82-.062,0-.121,0-.182.008-.072-.8-.081-1.127-.2-1.252-.223-1.8-.465-4.257-.465-4.257l1.073-1.711-1.2-1.541-.008-4.108,1.6-1.63-1.46-1.86.406-3.836,1.139-1.019-.647-.875a13.941,13.941,0,0,1,.151-2.965c.176-1.075,1.231-.93,3.425.191a49.372,49.372,0,0,1,8.747,4.9c-.147,2-2.61,6.551.817,11.574,1.267.953,4.946.6,5.268.747l-.028,15.469m0,1.786-1.659.291,1.674-1.683ZM64.545,185.825c.135-.015.3-.142.523-.389s.6-.189,1.53-.132a3.687,3.687,0,0,0,1.91-.206c.75-.273.766-.273,1.286-.051a2.694,2.694,0,0,0,2.068.175,2.623,2.623,0,0,1,2.061.09c.573.282.754.226.953-.3a12.406,12.406,0,0,1,.678-1.358c.612-.939.464-1.1-.817-.7a6.09,6.09,0,0,1-3.711-.058,4.19,4.19,0,0,0-3.32.311,2.947,2.947,0,0,1-3.378-.268c-.64-.541-.606-.132-.442.988C64.07,185.182,64.2,185.865,64.545,185.825Zm43.491-3.948a2.15,2.15,0,0,0,0-4.3C107.476,178.046,107.186,181.79,108.036,181.877Zm-41.341-.018a8.142,8.142,0,0,1,5.109-.445c1.585.485,1.206-.711-.515-.86-1.2-.1-1.115-.1-.182-.981.786-.738-.2-.685-.736-.225-.634.542-2.356.4-3.327-.043-.427-.195-.474.615.034.794,1.279.448.973.482-.423.938-.517.118-.536,1.019.04.822Zm41.341-.7c-.676-.256-.254-2.748,0-2.86a1.43,1.43,0,0,1,0,2.86Zm11.42-.09c-.547.188-.93-.724-.93-1.338a1.428,1.428,0,0,1,1.422-1.432c.961.943,1.136,1.992.024,2.584q-.241.092-.516.186Zm-5.629-2.1,4.575-4.645-4.49-4.568-4.5,4.669Zm-54.186-1.84a1.193,1.193,0,1,1,1.189-1.195A1.192,1.192,0,0,1,59.641,177.123Zm54.225-1.561a1.192,1.192,0,1,1,1.185-1.194A1.191,1.191,0,0,1,113.866,175.562Zm-48.628-1.139-3.277-4.432,4.017-3.618-.2,2.249a1.909,1.909,0,0,0-.337,3.657Zm54.574-.245.047-1.207-4.13-4.108,4.087-4.26-.035-1.178-5.086,5.438Zm-11.672,0,5.048-5.2-4.869-5.341-.062,1.354,3.823,3.968-3.9,3.886ZM35.3,173.341a2.206,2.206,0,0,1-2.177-1.011c-.211-.379-.324-.707-.632-.849-.6-.276-1.413-.086-1.452.117a4.424,4.424,0,0,1,1.131.257c.8.726.667,1.184-.473,1.093-.367-.016-1.393-.032-1.416-.435-.228-1.39,1.613-2.408,3.969-2.222,1.681.279,1.688-.372,1.8-1.272a6.119,6.119,0,0,1,.543-1.152c.594-1.07.79-.92.375-1.334a3.412,3.412,0,0,1-.914-1.794l.019-5.639s3.525.015,4.75.905c1.283,2.351,2.156,7.421.271,10.2a16.741,16.741,0,0,1-2.735,2.117A5.1,5.1,0,0,1,35.3,173.341Zm19.93-.634.128-1.63a1.9,1.9,0,0,0,.3-3.677l.112-1.416,2.615,3.77Zm10.266-1.1a1.272,1.272,0,0,1,.213-2.311Zm54.546-.595c1.81-.944,1.187-4.6,0-4.3a2.15,2.15,0,0,0,0,4.3Zm-11.815-.055a2.15,2.15,0,0,0,0-4.3C106.658,167.154,107.548,170.886,108.229,170.956Zm-52.814-.544.185-2.346a1.269,1.269,0,0,1-.185,2.346Zm64.629-.121a1.43,1.43,0,0,1,0-2.859C120.513,167.339,120.811,170.044,120.044,170.291Zm-11.815-.054c-.953-.078-.161-2.514,0-2.86a1.43,1.43,0,0,1,0,2.86Zm-47.992-1.358,4.723-4.727L60.3,158.99l-3.881,4.738Zm53.7-.9,4.529-4.684-4.281-4.443-4.516,4.789Zm29.791-2.564-1.686-1.762,1.686-.016Zm-83.125-.175a1.192,1.192,0,1,1,1.186-1.194A1.19,1.19,0,0,1,60.605,165.241Zm53.358-.645a1.193,1.193,0,1,1,1.185-1.191A1.191,1.191,0,0,1,113.963,164.6Zm-5.854-1.393,5.005-5.194-4.834-5.17-.066,1.225,3.874,3.914-3.928,4.038Zm11.769-.008-.05-1.315-4.018-4,4.223-4.264-.171-1.148-5.19,5.392Zm-54.024-1.424-3.622-3.618,3.611-4.038,0,2.1a1.907,1.907,0,0,0,0,3.6Zm-9.986-.187-.039-1.478a1.905,1.905,0,0,0-.1-3.707l-.031-1.171,2.867,3.174Zm83.735-.665s-1.209-1.3-1.619-1.824a2.146,2.146,0,0,0-1.623-3.545,2.11,2.11,0,0,0-.945.226c-.22-.327-1.186-1.669-1.186-1.669l5.7.918Zm-31.466-.86a2.15,2.15,0,0,0,0-4.3C105.987,156.2,106.411,159.956,108.137,160.059Zm11.923-.081c3.049-.336,2.258-4.23,0-4.3a2.15,2.15,0,0,0,0,4.3Zm-64.246-.533-.066-2.385a1.272,1.272,0,0,1,.066,2.385Zm52.323-.1c-1.385-.507-.963-2.955,0-2.86a1.43,1.43,0,0,1,0,2.86Zm11.923-.082a1.43,1.43,0,0,1,0-2.859A1.424,1.424,0,0,1,120.06,159.258Zm-54.21-.136a1.273,1.273,0,0,1,0-2.214Zm71.685-.611-1.666-2.151a1.382,1.382,0,0,1,.492-.09,1.431,1.431,0,0,1,1.174,2.241Zm-77.081-.976,3.913-4.723-4.808-4.284-3.408,4.241Zm53.466-.568,4.8-4.9-3.39-3.536,1.875.206,2.712,2.778.062-.922-1.476-1.7,1.574.054c.571-.887-2.978-.914-4.986-1.256-2.548-.434-8.1-2.481-6.877-.979l1.4.36-1.321,1.587.016,1.206,2.285-2.458.775.179-3.238,3.353.217,1.023,3.982-4.092,1.158.264-4.048,4.147ZM60.257,154.15a1.191,1.191,0,1,1,1.189-1.191A1.188,1.188,0,0,1,60.257,154.15Zm53.826-.619a1.191,1.191,0,1,1,1.185-1.19A1.187,1.187,0,0,1,114.083,153.531Zm26.884-.342s.307-3.916.48-5.8l-6.2-1.665-.771,6.256Zm2.7-.3-.864-.031.144-3.646.84.9ZM132.2,151.31s-.623-1.006-1.336-2.116a2.15,2.15,0,0,0-1.522-3.661,2.108,2.108,0,0,0-.624.093c-.279-.529-.8-1.369-.8-1.369l5.315,1.564Zm-66.539-.4L61.485,147.5l3.242-4.007.217,1.72a1.906,1.906,0,0,0,.461,3.688Zm72.172-.058a1.193,1.193,0,1,1,1.189-1.191A1.188,1.188,0,0,1,137.829,150.851Zm-83.391-.378a1.906,1.906,0,0,0,0-3.812C54.024,146.355,53.91,149.934,54.438,150.473Zm0-.638c-.112-.567-.25-2.67,0-2.536a1.268,1.268,0,0,1,0,2.536Zm76.019-1.268c-.474-.751-.967-1.56-1.383-2.291a1.428,1.428,0,0,1,1.689,1.408A1.415,1.415,0,0,1,130.457,148.567Zm-65.133-.327a1.268,1.268,0,0,1-.3-2.373Zm-5.652-1.116,3.525-4.75-5.35-4.19-3.029,5.2Zm80.47-1.934-3.987-1.171.752-4.1a6.268,6.268,0,0,0,.585,1.186,2.146,2.146,0,0,0,1.867,3.19c.057,0,.115,0,.171-.007C139.885,144.818,140.142,145.19,140.142,145.19Zm-5.908-1,1.3-6.532-6-2.423-1.46,6.9Zm-75.244-.05a1.191,1.191,0,1,1,1.189-1.191A1.188,1.188,0,0,1,58.99,144.144Zm80.036-.6a1.427,1.427,0,0,1-1.089-1.389,1.409,1.409,0,0,1,.028-.261C138.308,142.444,138.68,143.019,139.026,143.541ZM53.9,143.363l3.214-6.082-5.465-3.832.375,1.3,3.909,2.878-2.273,4.184Zm77.672-2.2a1.193,1.193,0,1,1,1.185-1.195A1.191,1.191,0,0,1,131.573,141.164Zm-5.66-.607-1.274-2.229a2.15,2.15,0,0,0-1.275-3.875,2.1,2.1,0,0,0-.511.066l-.922-1.965L127.5,135Zm-73.253-.02A1.512,1.512,0,0,0,53.979,140a1.909,1.909,0,0,0-1.319-3.278C51.227,137.073,52,140.383,52.66,140.537Zm11.517-.525-4.525-3.248,2.642-5.12s.266,1.034.6,2.424a1.907,1.907,0,0,0,.809,3.63h.024C63.906,138.531,64.064,139.335,64.177,140.012ZM52.66,139.9c-.786-.241-.52-2.454,0-2.536a1.206,1.206,0,0,1,1.263,1.268A1.265,1.265,0,0,1,52.66,139.9Zm71.665-2.24-1.158-2.471a1.416,1.416,0,0,1,.2-.015,1.43,1.43,0,0,1,.961,2.486Zm-60.741-.607a1.266,1.266,0,0,1-.534-2.342c.175.738.358,1.543.534,2.342Zm-5.969-.65,3.1-6.151-5.726-3.505-2.634,5.948Zm76.669-1.183-3.529-1.61,1-3.657.43.9a2.144,2.144,0,0,0,1.577,3.279Zm-5.574-1.735,1.732-6.15-5.5-2.875-2.51,6.189Zm4.633-.222a1.424,1.424,0,0,1-.779-1.272,1.479,1.479,0,0,1,.031-.284Zm-76.747-.5a1.193,1.193,0,1,1,1.185-1.195A1.194,1.194,0,0,1,56.6,132.765Zm-5.225-.34L54,125.987l-6.03-3.34.453,1.174,4.457,2.583-1.91,4.659Zm75.131-2.146a1.191,1.191,0,1,1,1.185-1.191A1.188,1.188,0,0,1,126.5,130.279Zm-77.026-.954a1.9,1.9,0,0,0,1.9-1.906,1.877,1.877,0,0,0-1.9-1.906C47.571,125.556,48.542,129.341,49.476,129.325Zm71.13-.214a13.442,13.442,0,0,1-.879-2.042,2.151,2.151,0,0,0-1.073-3.925c-.043,0-.24-.031-.24-.031l-.341-1.3,4.733,2.494A32.483,32.483,0,0,1,120.606,129.111Zm-71.13-.424c-.553-.232-.7-2.465,0-2.536a1.268,1.268,0,0,1,0,2.536Zm11.668-.739-4.653-2.676,2.336-5.062.694,2.319a1.907,1.907,0,0,0,1.042,3.482Zm58.331-1.595-.74-2.474a1.3,1.3,0,0,1,1.217,1.412A1.423,1.423,0,0,1,119.475,126.353Zm-59.11-1a1.267,1.267,0,0,1-.647-2.166Zm69.426-.163-3.6-2.112,1.623-4.218.473,1.522a2.147,2.147,0,0,0,1.088,3.478Zm-75.12-.086,2.181-5.87-6.311-3.33-1.576,6.006Zm74.423-2.151a1.417,1.417,0,0,1-.519-1.661Zm-4.715-.292,2.561-5.956-5.327-3.525-2.773,6.21Zm-71.688-.968a1.191,1.191,0,1,1,1.186-1.191A1.188,1.188,0,0,1,52.691,121.689Zm-6.242-2.618a2.009,2.009,0,0,0,.846-1.685,1.9,1.9,0,0,0-1.9-1.906,2.8,2.8,0,0,0-.63.069C44.22,116.285,45,119.105,46.449,119.071Zm76.338.171a1.193,1.193,0,1,1,1.185-1.191A1.188,1.188,0,0,1,122.787,119.242Zm-77.671-3.068a.531.531,0,0,1,.281-.056,1.287,1.287,0,0,1,1.263,1.268,1.266,1.266,0,0,1-.471.987C45.1,119.2,44.939,116.01,45.116,116.174Zm70.66-1.013c-.219-.977-.458-1.905-.694-2.77a1.4,1.4,0,0,1,.3-.035,1.431,1.431,0,0,1,.4,2.805Zm-66.133-.7,1.65-6.6-6.314-2.311L43.77,111.8Zm76.975-.089-3.351-2.323a31.6,31.6,0,0,1,2-4.022l.26,1.213a2.151,2.151,0,0,0,.825,3.875Zm-70.851-.315a1.259,1.259,0,0,1-1.259-1.265.859.859,0,0,1,.5-.871c.277.627.658,1.247,1,2.089A.735.735,0,0,1,55.767,114.056Zm70.414-1.743a1.434,1.434,0,0,1-.485-2.276Zm-5.033-.965,3.041-5.306-4.462-3.428-3.487,5.31Zm-73.628-.179a1.193,1.193,0,1,1,1.189-1.194A1.191,1.191,0,0,1,47.52,111.169Zm-5.462-1.649-.775-1.206a1.9,1.9,0,0,0-1.515-3.054,1.945,1.945,0,0,0-.414.042l-.624-.968,3.959,1.424Zm78.18-1.417a1.19,1.19,0,1,1,1.189-1.19A1.187,1.187,0,0,1,120.238,108.1ZM40.9,107.722,39.734,105.9h.034A1.2,1.2,0,0,1,40.9,107.722Zm73.645-.082,4.307-5.738-5.714-4.252.09,1.268,4.175,3-3.176,4.248ZM51.641,105.7l-5.686-1.793,1.216-5.665,1.34,2.237a1.9,1.9,0,0,0,1.91,3.187Zm61.95-.984a2.149,2.149,0,0,0-.217-4.287.367.367,0,1,0,0,.719,1.43,1.43,0,0,1,.093,2.856l.1.712C113.578,104.714,113.584,104.716,113.591,104.715ZM43.917,104.1l.988-6.555-6.442-1.381-.48,5.944Zm80.547-.159-3.04-2.257,2.308-3.244.124.929a2.151,2.151,0,0,0,.5,3.778Zm-74.651-.817a1.269,1.269,0,0,1-.961-2.086L50.08,103.1A1.3,1.3,0,0,1,49.813,103.128Zm20.326-.888c-.168-.038-.41-.077-.361-.178s1.081-1.241,1.081-1.241l-.116-1.059-1.828,2.082-.736-.272,2.568-2.623.12-.976-3.421,3.373-1.46-.405,3.978-3.933-4.582-4.664-4.587,4.7,3.258,3.575-1.611-.151a9.9,9.9,0,0,0-2.677-2.677l.124.934c.064-.044,1.516,1.372,1.286,1.6l-1.282-.094c-1.507.409,1.84.962,5.068,1.508,1.675.067,6.551,2.226,5.389.575-.07-.031-.146-.05-.211-.072Zm54.105.043a1.418,1.418,0,0,1-.581-1.147,1.435,1.435,0,0,1,.309-.891Zm-82.686-1.139a1.191,1.191,0,1,1,1.185-1.191A1.188,1.188,0,0,1,41.558,101.144Zm77.952-.117,3.7-4.727-4.195-4.042-4.3,5.057Zm-83.162-1.21-.289-.051V96.541l.455.1Zm28.91-1.5a1.191,1.191,0,1,1,1.189-1.19A1.187,1.187,0,0,1,65.258,98.319Zm53.679-.338a1.193,1.193,0,1,1,1.185-1.195A1.191,1.191,0,0,1,118.937,97.981Zm-5.718-.938L118,91.316l-5.137-5.325.016,1.19,3.99,4.2-3.738,4.376Zm-53.493-.525,4.924-5-4.908-5.108-.117,1.147,3.789,3.84-3.548,3.68ZM70.549,96l-.007-1.358-3.088-3.155,3.161-3.241L70.6,86.87l-4.482,4.641Zm-25.222-.6-5.8-1.1.357-5.5L41.279,90.5A1.906,1.906,0,0,0,42.8,93.542a1.883,1.883,0,0,0,.833-.2Zm78.153-.98-2.858-3.019,2.731-3.1.023,1.055a2.151,2.151,0,0,0,.081,3.979Zm-10.6-.763a2.151,2.151,0,0,0,0-4.19v.751a1.429,1.429,0,0,1,0,2.689Zm-42.019-.2c.88-.582.487-3.866,0-3.812a1.906,1.906,0,0,0,0,3.812Zm-11.23-.311a1.907,1.907,0,0,0,0-3.813C58.8,89.613,59.139,92.958,59.633,93.149ZM42.8,92.9a1.262,1.262,0,0,1-1.263-1.265,1.284,1.284,0,0,1,.17-.63l1.5,1.829A1.267,1.267,0,0,1,42.8,92.9Zm28.065-.082a1.268,1.268,0,0,1,0-2.536C70.8,90.739,71.1,92.875,70.863,92.822Zm52.579-.292a1.42,1.42,0,0,1-.643-1.194,1.436,1.436,0,0,1,.592-1.167Zm-63.809-.019c-.158-.514-.355-2.626,0-2.537a1.269,1.269,0,0,1,0,2.537Zm5.741-1.848L70,86.045,65.277,81.2l-4.462,4.781Zm53.311-.249,4.137-4.486-3.986-5.2-4.676,4.676Zm22.429-.163c-1.272,0-2.46-.221-2.944-1.07-1.949-2.621-1.389-8-.039-9.855,3.032-2.763,4.746-3.495,8.166-2.863-.393,1.553,1.25,2.39,1.487,2.046.031,0,.158-.277,0-.3a1.178,1.178,0,0,1-.946-1.563c1.3.04,2.149.018,2.282.6.082.359-.127.914-.887,1.538-.891.716-5,.7-5,.7a4.553,4.553,0,0,1-.4,1.848c-.362.593-.864,1.252-.519,1.525a2.093,2.093,0,0,1,1.077,1.711c.159,1.613-.093,5.5-.035,5.536C142.669,90.176,141.877,90.251,141.114,90.251Zm-75.732-3a1.191,1.191,0,1,1,1.185-1.191A1.19,1.19,0,0,1,65.382,87.255Zm53.272-.463a1.193,1.193,0,1,1,1.189-1.19A1.187,1.187,0,0,1,118.654,86.792ZM59.73,85.672l4.83-4.949-5.148-5.349.163,1.451,3.707,3.832-3.626,3.8Zm10.912-.094.132-1.369L67.353,80.6l3.107-3.206.047-1.556-4.571,4.839Zm52.889-1.867L120.8,79.863,124.05,77l-.085,1.093a2.151,2.151,0,0,0-.314,4.081ZM113.3,82.952c.063-.8.107-1.442.147-2.031a2.151,2.151,0,0,0,.291-4.011c.059-.616.135-1.3.244-2.155l3.265,4.8ZM36.08,82.727,35.968,69.27,26.235,59.151V21.26H66.16l10.285,17.4c.2.344.5.222.725.553L74.121,55.568c-4.8-2.22-8.838,3.522-6.217,8.174C53.108,69.168,36.08,82.727,36.08,82.727ZM59.7,82.653a1.907,1.907,0,0,0,0-3.813C58.337,79.469,59.029,82.626,59.7,82.653Zm11.052-.113c.527-.6.827-3.839,0-3.813a1.928,1.928,0,0,0-1.9,1.91A1.9,1.9,0,0,0,70.755,82.54ZM59.7,82.015c-1-.738-.092-2.364,0-2.537a1.269,1.269,0,0,1,0,2.537ZM70.755,81.9a1.267,1.267,0,0,1,0-2.533C70.68,79.58,71.072,81.816,70.755,81.9Zm52.954-.5a1.432,1.432,0,0,1,.2-2.533Zm-10.2-1.276c.059-.913.1-1.664.163-2.424a1.429,1.429,0,0,1-.163,2.424Zm-48.073-.44,4.5-4.524L65.25,70.266,60.791,75Zm53.59-1.175,4.718-3.8-3.037-4.677-1.058-.638L115.33,73.1Zm18.941-.315-11.105-5.952s2.881-1.211,2.8-3.143c-.114-2.161-1.4-3.927-3.963-3.264-.587.085-.855-.159-1.422-1.487-1.083-2.539-2.153-5.33-1.735-5.244a8.492,8.492,0,0,0,2.762,1.875,3.126,3.126,0,0,0,3.866-4.228c-.881-2.087-2.347-2.206-3.816-1.992-.215-.05-.4-.287-.542-.561a22.35,22.35,0,0,1-1.728-5.24c-.853-4.009-1.045-9.028-.422-10.29.861-1.745,2.049-4.108,2.049-4.108,2.316,4.434,7.364,8.319,13.036,6.944.191-.119.23-.745-.028-1.112-1.839-2.425-2.151-4.647-2.808-7.03-1.685-6.11-5.087-9.606-5.04-8.982l1.781-3.242s15.422-.077,21.734,0V28.58L136.854,45.587l6.549.278-.226,29.318C140.782,75.684,137.967,78.194,137.967,78.194ZM65.355,76.315a1.193,1.193,0,1,1,1.189-1.19A1.187,1.187,0,0,1,65.355,76.315Zm54.174-1.206a1.193,1.193,0,1,1,1.186-1.19A1.19,1.19,0,0,1,119.529,75.109ZM70.658,74.016l-.116-1.175-3.251-3.42,3.01-3.073c.439-.6,1.561-.472,1.914-.513-.243-.752-.917-.659-1.608-.95l-4.373,4.494Zm-.051-2.657c.789-.249.65-3.618,0-3.813a1.907,1.907,0,0,0,0,3.813Zm-11.144-.518a7.738,7.738,0,0,1,0-2.536,1.268,1.268,0,0,1,0,2.536Zm11.144-.12a1.269,1.269,0,0,1,0-2.537C70.778,68.477,71.059,70.679,70.607,70.721Zm39.079-.611a1.985,1.985,0,0,1,.655-.027c.659,0,1.477.466,1.658.381.206-.1.136-.531.125-.725s-.524-.24-.729-.376c-.332-.219-.242-.3.135-.385.334-.079.6-.1.817-.405.132-.189.144-.519-.082-.516-1.315.019-2.985.564-4.559.033-.9-.323-1.487-.524-1.63-.4-.3.259.754,1.27,1.762,1.459s1.381.113,1.052.417c-.17.158-.4.1-.416.21a.622.622,0,0,0,.46.687c.3.048.528-.263.752-.353Zm-5.66-3.174a.9.9,0,0,0,.469-.246c.6-.4,1.539-.935,3.8-.311a6.108,6.108,0,0,0,3.456-.178,3.437,3.437,0,0,1,2.27-.02c.71.343,1.488.863,1.344.327a12.785,12.785,0,0,1-.089-1.389c-.023-1.1-.1-2.013-.887-1.152-.342.373-.754.376-1.527.07-.55-.218-.937-.366-1.363-.085a2.2,2.2,0,0,1-2.243.116,1.916,1.916,0,0,0-1.755.218,1.483,1.483,0,0,1-2.247-.685c-.338-.557-.507.238-1.131,1.891C103.806,66.282,103.706,66.94,104.026,66.936Zm5.333-6.146c.607-.344,1.453-.448,2.068-.854,1.3-.9.081-1.651-.822-1.464a3.922,3.922,0,0,0-1.272.586c-1.628,1.085-2.53.926-2.684-.388-.166-1.42,2.012-2.061,1.809-2.721-.273-.429-1.33.161-1.985,1.053C104.531,59.645,106.668,62.316,109.359,60.79Zm-8.433-7.453a17.461,17.461,0,0,0,7.2-2.581c1.312-1.027,1.671-1.284,1.115-1.693-.508-.374-.9-.387-.2-1.105a3.715,3.715,0,0,0,.67-.894c-.007-.515-3.123-2.041-4.912-2.28a11.5,11.5,0,0,0-4.811.513c-1.584.643-1.638,1.081-.141.639a11.442,11.442,0,0,1,3.968-.5,12.779,12.779,0,0,1,3.25.751c1.914.687,1.581,1.489-.352.806a9.668,9.668,0,0,0-7.674.21c-1.034.468-1.323.836-1.511.677a1.859,1.859,0,0,1-.178-.366c-.065-.17-.072.437-.163,1.4-.076.8-.151,1.872-.151,1.872a2.957,2.957,0,0,0,.151-.666c-.02-1.4.656-1.406,2.569-.334,2.247,1.24,3.34,1.119,5.476,1.106.936-.006.978.265-.339.7-.627.208-1.589.543-3.022,1C100.687,52.975,100.367,53.4,100.926,53.337Zm16.941-2.823c-.814,0-1.542-.694-1.751-2.042l.81.058c.27,2.01,1.723,1.555,2.293.358l.713-.019A2.539,2.539,0,0,1,117.867,50.514ZM115.8,50.39a4.724,4.724,0,0,1-1.956-.946c-.1-.251.481-.522.991-.673.588-.173.468-.2.653.152C115.746,49.411,116.2,50.37,115.8,50.39Zm3.908-.1a1.8,1.8,0,0,1,.787-1.109.4.4,0,0,1,.383.677c-.293.152-1.109.741-1.17.432Zm-15.754-.106a2.263,2.263,0,0,1-2.069-2.236l.519.011c.481,2.571,2.448,1.989,2.89.156l.612.175c-.51,1.328-1.248,1.866-1.952,1.9Zm2.022-.182c-.282.018-.245-.211.093-.9.159-.323.274-.506.554-.494a1.058,1.058,0,0,1,.829.482c.132.3-.178.534-.837.743a3.362,3.362,0,0,1-.639.164Zm-4.327-.191a3.388,3.388,0,0,1-1.027-.346c-1.322-.585-1.478-.827-.786-1.16a6.784,6.784,0,0,1,.767-.326c.62-.208.6.14.767.572.095.243.208.464.329.723C101.866,49.639,101.873,49.816,101.648,49.814Zm19.373-2.179A15.569,15.569,0,0,1,119.367,47a6.86,6.86,0,0,0-4.587.273c-.753.241-1.01.392-.713-.047a6.139,6.139,0,0,1,2.565-1.245c1.96-.488,4.55.438,4.551,1.447-.014.146-.063.206-.162.206Zm-6.489-1.661c-.2,0,0-.3.411-.77a4.68,4.68,0,0,1,2.63-1.4c2.11-.375,3.857.2,3.874,1.389.012.855-.137.867-1.178.327a6.864,6.864,0,0,0-4.47-.051,7.921,7.921,0,0,0-1.158.487.422.422,0,0,1-.109.015ZM98.316,44.827c1.6-.425,3.3-.852,4.854-1.152a9.935,9.935,0,0,1,5.358.6c.935.463,1.263.19.852-.708a2.845,2.845,0,0,0-1.875-1.622c-1.744-.611-5.831.381-8.867,1.957-1.766.787-1.427,1.265-.322.926Zm26.361-12.08-2.732,4.661c-18.5-3.6-38.515-.985-44.641-.134,0,0-6.689-11.114-9.094-15.015-.227-.416-.849-1.821-.849-1.821l63.166.05c-.884,1.787-1.724,4.095-1.724,4.095,1.93.777,3.427,3.673,4.354,6.117.813,2.144,2.222,7.381,4.075,9.933C133.99,42.479,125.839,38.359,124.677,32.747Z" fill="#131f67"/><path id="3c79a72b-aa97-40a4-91b9-cc75e70d3734" data-name="path3302-0-9-2" d="M67.9,20.961h62.562l-8.152,16.363a145.562,145.562,0,0,0-45.021.331L67.9,20.961Zm85.528,13.26.131,7.845-8.1-.18ZM85.025,86.97l-.089,23.808a102.6,102.6,0,0,0-9.788-6.4l.129-24.635Zm27.27,5.209c.574,13.463,2.527,18.719,3.793,25.544l-11.6,7.531-.033-27.638ZM144.012,115.8l-.066,33.159c-10.664-15.4-17.4-31.049-19.26-52.17,2.9-1.174,5.728-2.47,8.7-3.518A137.381,137.381,0,0,0,144.012,115.8ZM36.029,102.143c9.855,12.574,15.728,29.327,18.83,49.965l-9.021,4.4c-2.995-7.287-6.034-15.027-9.822-21.074Zm38.506,22.239L74.5,152.109l-7.7,5.022A129.026,129.026,0,0,0,63,131.525Zm20.273,14.6a49.083,49.083,0,0,0,9.106,5.639l-.481,24.6-8.7-6.724ZM33.693,208.291s-5.423,5.531-7.434,7.327l-.045-7.51Zm68.287,3.581L112.092,229.2l-63.381.534,8.143-17.449C73.639,215.368,88,213.976,101.98,211.872Z" fill="#d40000"/><path id="bfc79d7a-e758-440c-bb90-12a851b68b00" data-name="path3300-3-9-0" d="M72.932,56.007a8,8,0,0,0-3.121,3.246c-1.1,2.167-.105,4.3-.431,4.3-2.023-.606-1.441-4.478-.737-5.677a4.2,4.2,0,0,1,2.92-1.948c1.167-.2,1.369.076,1.369.076Zm-3.3,8.465a.949.949,0,0,1,.853.343,1.666,1.666,0,0,0,1.057.614c.321-.046.466.012.469.183,0,.141-.14.164-.666.117-.321-.029-1,.479-1,.479l-.006,36.6a43.736,43.736,0,0,0-10.44-2.272l-.221-32.623s-4.828,2.54-6.582,3.555l-.063,29.2-3.42.376,5.4,11.022c.758-.586,11.39.412,14.045,2.147l-9.7,6.078c.986,3.018,1.881,5.9,2.706,8.959.025.094.2.084.229.178.2.746.342,1.081.529,1.832.035.14-.022.368.018.507a111.178,111.178,0,0,1,3.806,25.389c-.03.081-.339.011-.339.011l.062,5.24.344-.23-.033,2.371-.351.348c-.008.46-.04,1.327-.04,1.327l.449.282-.232,3.973-.463.068-.253,6.29,12.285-7.986s8.017,5.765,11.524,8.755c-3.859,2.635-4.882,7.772-5.838,12.035a71.7,71.7,0,0,0-1.577,11.232,110.34,110.34,0,0,1-1.46,11.317c-.31,1.481-.3,1.644.136,1.669.15.008-.005.057-.345.109-7.878.316-16.336-.862-23.848-1.843,0,0-1.859,3.477-2.5,4.759a17.7,17.7,0,0,0-.78-1.994,13.005,13.005,0,0,0-4.78-4.568,13.576,13.576,0,0,0-3.874-1.3,6.32,6.32,0,0,0-2.894.479c-.312.13-.556.294-.558.459s.243.334.558.634a4.594,4.594,0,0,1,.8,1.1,28.057,28.057,0,0,1,1.844,4.727c1.31,3.475,2.281,7.669,5.29,9.517L47.7,230.108l65.377-.017-10.116-17.112s-.306-.51-.407-.691c-.3-.54-.42-.463-.42-.463a176.3,176.3,0,0,1,2.834-17.662s.131.462,2.052.434c5.623-.081,7.592-6.356,2.89-9.134-.443-.265-1.2-.771-1.941-1.163-.213-.111-2.909-1.7-2.909-1.7l3.231,1.459.233-37.654s6.737,2.032,11.178,2.224l-.045,32.649,6.2-3.362.281-29.19,3.4-.22s-1.287-2.75-1.573-3.328c-.575-1.157-2.02-3.73-3.006-5.357-.35-.575-1.166-1.855-1.166-1.855a35.041,35.041,0,0,1-13.37-2.683l9.744-6.367c-4.07-11.515-9.145-28.366-6.317-55.563l-.683.435-.187,2.93L100.849,85.1,85.886,73s1.086.03,1.33.04c3.816.135,6.5-3.784,7.426-7.057,1.625-5.769,1.838-7.193,2.587-16.341a84.283,84.283,0,0,1,1.735-10.554,7.744,7.744,0,0,0,.326-1.906,91.372,91.372,0,0,0-21.521,1.887s-2.517,12-3.414,17.09a4.456,4.456,0,0,0-2.365-.685c-5.9.644-5.4,8.772-2.354,9ZM95.9,228.941l-3.094-10.9,7.577-.7,6.291,11.515Zm-46.58.152L57.113,212.5c16.341,2.3,25.772,2.522,44.739-.175l9.859,16.545-2.595.022-7.433-13.209-11.041,1.105,3.051,12.088-2.917.09L87.757,217.1l-17.089.091c-.553,3.974-1.626,11.748-1.626,11.748l-3.155-.036,2.1-12.01L57.9,215.626l-5.833,13.426Zm21.916-.153,1-10.09,14.135-.109,2.261,10.206Zm-17.127.193,4.8-11.975,6.993.938L64,228.967ZM45.491,217.4c-.31-1.023-.626-2.025-.7-2.229-1.141-3.1-1.61-4.131-2.355-5.163-.123-.17-.161-.15.02-.3,3.434-1.686,9.642,2.462,11.137,6.263-.187.367-1.018,1.909-1.018,1.909-.433-.849-.109-1.688-.393-2.451-.07-.325-.781,2.2-.781,2.2a7.262,7.262,0,0,1-.768-3.273c-.013-.332-.892,1.444-.892,1.444a7.818,7.818,0,0,1-1.043-4.085c-1.246,1.518-.469,2.388-2.393-1.481-.222.4-.114.829-.405.716a7.415,7.415,0,0,0-2.466-.8c.564.71,1.658,1.084,1.959,2.026a6.357,6.357,0,0,0-.925-.031,7.012,7.012,0,0,1,2.667,2.033c-.22.081-1.109-.072-1.071.023,1.331,1.207,3.329,2.183.44,1.911,1.878,1.326,3.971,2.243.709,2.144,2.326,1.1,2.954,1.785,2.521,1.972a5.468,5.468,0,0,0-2.05.041c1.87.766,2.64,1.116,2.715,1.368.09.306-.8.473-1.407,1.136,0,0,.753-.172,1.081.178,0,0-.365,1.058-.646,1.668-2.381-2.169-3.318-5.24-3.935-7.217Zm-20.054,4.212s10.518-11.381,15.726-17.028l-5.088-.076-.233-30.816c-1.773-.24-4.848,0-6.012-1.191-.722-1.073,2.074-3.185,3.648-2.742a6.363,6.363,0,0,0,2.348.059l-.106-34.338c3.358,6.26,5.925,10.222,9.642,21.092-1.077.752-2.185,1.332-2.369,1.46,1.428,3.46,2.417,8.9.422,13.645l-1.375-.823a16.115,16.115,0,0,0-.269-11.13l-.378.4a11.032,11.032,0,0,1,.67,1.66,9.918,9.918,0,0,1,.573,2.817,15.284,15.284,0,0,1-.422,4.894c-.149.481-.361,1.2-.472,1.42a2.372,2.372,0,0,0-.217.486c4.046,1.646,6.947,4.055,10.436,5.777.132.065.242.121.331.17.442.247.325.332-.366.608-1.457.582-2.05,1.289-2.019,2.708.046,2.019,1.121,2.805,3.471,2.673.854-.048.91-.036,1.062.257.355.685,1.583,3.408,1.584,3.516a13.253,13.253,0,0,0,.57,1.362,16.82,16.82,0,0,1,1.267,3.359c.115.567.442.79.526.2a33.251,33.251,0,0,1,2.313-9.252,10.537,10.537,0,0,0,.558-1.455c-.108-.095-1.979-.968-2.855-1.33-3.417-1.412-4.971-2.284-4.444-2.494.367-.146.5-.4.593-1.132.245-1.913.218-2.892-.1-3.5-.334-.636-.326-.681.221-1.039.475-.311.373-.312.5-1.91a20.8,20.8,0,0,0,.049-3.1l-.852-1.1.867-1.082.2-4.969-1.169-.891,1.093-1.083-.391-4.531a2.237,2.237,0,0,1,.333-.626c-1.851-19.163-9-38.475-19.715-51.638l-.107-31.48-10.5-10.55Zm.822-2.027V217.1l8.915-9.642-8.915-.156v-2.1l13.686.027Zm.137-4.212-.023-6.948,6.664-.009Zm61.141-3.5-1.39.058c.055-1.4.607-7.868,1.268-13.532.745-6.385,2.27-11.893,2.562-11.893l1.342.817c-2.222,7.325-2.814,16.752-3.782,24.55Zm-6.305.2c.2-3.954,1.021-6.718,1.273-11.393.312-5.709,1.289-12.817,3.847-18.713a8.756,8.756,0,0,1,4.686-4.729c3.915-1.542,7.238,3.332,4.591,6.916-2.091,2.833-5.366,2.8-6.36-.07-.822-2.369,1.818-5.343,3.924-4.42,1.464.643,1.09,3.291-.554,3.914-.681.258-1.258-.61-.922-1.389.265-.613.293-1-.066-.736-1.486,1.053-.367,3.561,1.479,2.623,2.462-1.252,2.047-4.93-.433-5.091-3.139-.309-5.561,3.573-7.112,10.946-1.7,8.251-1.278,15.638-2.908,22.116Zm4.012-.138-1.65.049c.131-.613.155-1.266.267-2.015.651-4.329,1.036-10.647,1.7-15.6.941-6.987,2.626-11.234,2.669-10.716a7.462,7.462,0,0,0,1.13,2.205,52.944,52.944,0,0,0-2.824,12.855C86.028,203.363,85.884,207.679,85.244,211.933Zm7.054-.4-1.449.075a155.365,155.365,0,0,1,2.715-21.267c.247-1.086.33-1.557.535-1.648.228-.1.607.267,1.53.782C94.225,189.275,93.1,205.224,92.3,211.532Zm-2.258.133-1.572.154c.233-3.348.8-8.613,1.426-13.36.763-5.74,1.761-10.825,2.258-10.75l1.31.457C92.586,187.89,90.426,205.012,90.04,211.665Zm2.982-.163c1.027-7.013,1.125-15.207,3.252-21.755l1.472.688c-.4-.132-1.449,4.26-1.8,9.23-.308,4.327-1.086,9.034-1.316,11.642Zm2.428-.258c.585-2.476.584-6.125,1.023-9.169.543-3.769,1.122-11.423,1.99-11.248l1.5.765c-.788-.238-2.164,14.264-3,19.415Zm3.957-.614-1.526.208c.735-5.662,2.064-18.864,2.85-18.963l1.43.763A173.746,173.746,0,0,0,99.407,210.63Zm.949-.22c.632-6.224,1.225-12.527,2.546-17.367l1.565.709s-1.086,5.323-1.6,9.062c-.509,3.69-.586,4.216-.748,5.178a10.139,10.139,0,0,1-.456,2.2ZM33.32,204.031l.151-29.887,1.735.066-.071,29.867Zm-4.1-.237a1.193,1.193,0,1,1,1.186-1.19A1.187,1.187,0,0,1,29.221,203.794Zm27.95-10.967c-1.228-2.256-2.171-3.084-3.253-3.515a2.915,2.915,0,0,0-3.666,3.824c.515,1.411,1.823,1.621,3.481,1.339,0,0,.715.51,1.555,3.067a52.653,52.653,0,0,0,2.556,6.143C57.943,199.887,58.833,195.933,57.171,192.827Zm-29.7,8.193a1.19,1.19,0,1,1,1.185-1.19A1.19,1.19,0,0,1,27.467,201.02Zm3.254-.046a1.193,1.193,0,1,1,1.189-1.191A1.188,1.188,0,0,1,30.721,200.974Zm26.592.285c-1.1-2.291-1.333-4.017-2.4-6.094-.467-.906-.887-1.683-.887-1.683-3.486,1.647-4.827-2.5-2-3.824,2.784-1.3,5.917,3.649,5.613,8.981a19.684,19.684,0,0,1-.325,2.62ZM29.16,198.165a1.193,1.193,0,1,1,1.185-1.191A1.188,1.188,0,0,1,29.16,198.165Zm-3.141-2.237v-2.547l6.2-6.039v2.463Zm81.487-1.961c-1.185-.016-1.753-.368-.968-.681,2.6-1.038,3.758-2.691,3.9-5.582.006-1.462-.168-1.653.728-.837C113.454,190.081,110.158,193.986,107.506,193.967Zm-2.175-1.045a2.514,2.514,0,0,1-.86-.117c-.7-.22-.442-.236.733-1.02,2.241-1.494,2.924-2.957,3.023-5.949.028-.45-.065-.824-.027-1.013.032-.143.2-.1.309-.091.428.071.691.526.815.909,1.421,2.849-1.206,7.174-3.993,7.281Zm-2.428-.99a1.085,1.085,0,0,1-.5-.1c-.548-.275-.346-.315.658-1.034a7.044,7.044,0,0,0,2.87-5.244c.133-1.343-.9-2.941.928-1.624,1.283,1.07,1.027,3.851-.335,5.76a5.684,5.684,0,0,1-3.622,2.239Zm-76.884.582v-2.9l6.2-5.913v2.969ZM100.913,191c-.7-.008-1.019-.461-.2-.981a6.971,6.971,0,0,0,3.1-6.2c-.114-1.523-.171-1.8.8-.79,1.561,1.622.461,6.025-2.565,7.672A2.424,2.424,0,0,1,100.913,191Zm-2.053-.844c-1.155.028-1.316-.559-.283-1.284a7.661,7.661,0,0,0,3.258-6.034c-.014-1.029.066-1.157.519-.809,2.279,1.747-.163,7.842-3.25,8.111C99.018,190.15,98.937,190.157,98.86,190.159ZM58.1,189.968c-.283-.02-.788-1.028-1.58-3.136a21.574,21.574,0,0,0-2.259-4.692,1.869,1.869,0,0,0-.77.273c-2.6,1.37-4.431-2.518-1.868-3.964,1.824-1.029,3.545.074,5.133,3.295,1.872,3.8,2.385,6.615,1.48,8.134a.147.147,0,0,1-.136.09Zm38.641-1.035a1.758,1.758,0,0,1-.9-.194c-.674-.35-.576-.61.457-1.218a5.253,5.253,0,0,0,2.095-1.949,5.441,5.441,0,0,0,1.116-3.875q0-2.283,1.356-.253c1.56,2.332-1.569,7.376-4.122,7.489Zm-2.595-1.365c-1.021.022-1.694-.4-.717-.915,3.108-1.649,4.414-4.018,3.82-6.932-.187-.914.852-.14,1.483,1.1.922,1.817-.778,5.33-3.1,6.4a3.839,3.839,0,0,1-1.487.339Zm-35.077-2.681c-.2-.014-.42-.533-.918-1.813-.325-.834-.759-1.832-.969-2.217a2.148,2.148,0,0,1-.321-.806c.175-.293,1.615.206,2.1.728a3.774,3.774,0,0,1,.481,3.641c-.149.3-.255.476-.372.467Zm-29.852-2.2a1.193,1.193,0,1,1,1.186-1.19A1.187,1.187,0,0,1,29.221,182.689Zm121.664-1.922a1.193,1.193,0,1,1,1.185-1.194A1.19,1.19,0,0,1,150.885,180.767Zm-49.015-.358c-1.3.046-1.7-.569-1.914-2.544-.149-1.356-.44-1.483-2.564-1.124-2.242.378-2.993-.233-3.153-2.564-.127-1.849-.111-1.835-2.661-1.852-2.511-.017-2.78-.272-3.069-2.855-.214-1.92-.142-1.866-2.61-1.833-2.735.037-2.981-.166-3.165-2.595-.15-1.968-.28-2.095-2.007-1.953a36.32,36.32,0,0,1-5.4.028c-1.455-.319-1.516-.259-1.828,1.711-.413,2.595-.924,2.92-4.1,2.6-1.561-.158-1.742-.126-1.963,1.254-.3,1.839-.663,2.378-.663.785,0-4.025.276-4.213,2.95-3.5,2.009.538,2.042.125,2.252-1.818.185-1.712.473-2.414,1.1-2.688a6.7,6.7,0,0,1,2.786.157,30.685,30.685,0,0,0,3.656.089c4.45-.047,4.5-.057,4.493,3.081,0,1.321.287,1.605,2.616,1.535,2.922-.088,2.768-.167,3.265,3.356.173,1.221.27,1.268,2.689,1.233,2.635-.038,3.234-.076,3.079,2.155-.141,2.027.351,2.559,2.549,2.045,2.342-.547,2.79.451,3.019,2.264.211,1.68.353,1.259,1.471,1.347,1.239.1,1.094,1.5-.221,1.626-.225.022-.427.052-.612.058ZM27.389,179.8a1.19,1.19,0,1,1,1.186-1.19A1.187,1.187,0,0,1,27.389,179.8Zm3.339-.066a1.192,1.192,0,1,1,1.186-1.194A1.19,1.19,0,0,1,30.728,179.732Zm118.379-1.984a1.191,1.191,0,1,1,1.185-1.19A1.19,1.19,0,0,1,149.107,177.748Zm3.331-.027a1.191,1.191,0,1,1,1.186-1.19A1.187,1.187,0,0,1,152.438,177.721Zm-61.99-1.014-12.334-9.243L66.44,175.31l.071-2.862,11.59-7.74s9.864,7.671,14.632,11.374Zm-61.381-.138a1.192,1.192,0,1,1,1.185-1.194A1.19,1.19,0,0,1,29.067,176.569Zm20.2-1.56-2.925-4.773,2.92-2.128L46.6,164.7l2.867-2.95-3.151-2.01,2.946-4.12,4.078-1.819-4.078,5.382,3.375,2.327-3.2,3.464,2.873,3.781-2.974,2.333,3.217,5.3-.21.256Zm54.072,1.054-21.671-16.28s-2-1.513-2.575-1.878c-1.216-.775-1.459-.465-2.674.372-2.738,1.633-9.366,6.163-9.366,6.163l.053-2.345s6.667-5.01,10.357-7.088a1.365,1.365,0,0,1,1.479.284c8.048,6.4,16.285,12.608,24.444,18.879ZM53.544,175.8c-.091-.164-.383-.223-.524-.442-.96-1.493-2.7-4.145-2.7-4.145l3.048-2.428-2.8-3.689,3.5-3.568-3.571-2.441a34.485,34.485,0,0,1,3.894-4.968l.041,2.648L53,158.506l1.644,1.135,0,3.642-1.671,1.768,1.531,1.554-.273,3.982-1.459,1.159,1.2,1.658Zm97.3-.812a1.191,1.191,0,1,1,1.185-1.19A1.19,1.19,0,0,1,150.844,174.992ZM26.255,170.649l6.028-5.595V167.6l-6.028,5.943ZM147.4,173.382v-3.066l6.437-5.97v2.961ZM26.255,169.865v-3.044l6.028-5.689v3.015Zm7.093-.478L33.223,70.43l-7-7.438,0-2.468,8.858,9.217.2,99.564Zm114.05.295v-3.445l6.437-5.9v3.242Zm-44.041-.632-8.514-6.657.035-23.2a54.67,54.67,0,0,0,8.832,5.476Zm-74.3-7.505a1.191,1.191,0,1,1,1.189-1.191A1.188,1.188,0,0,1,29.059,161.545Zm63.22-1.134-.031-23.678,1.677,1.539.1,23.482Zm58.145-.228a1.193,1.193,0,1,1,1.189-1.19A1.187,1.187,0,0,1,150.424,160.183ZM27.474,158.5A1.193,1.193,0,1,1,28.66,157.3,1.188,1.188,0,0,1,27.474,158.5Zm3.378-.148a1.191,1.191,0,1,1,1.186-1.19A1.187,1.187,0,0,1,30.852,158.347Zm60.476.115-5.193-4.877,5.349-5.1.044,2.352-2.978,2.883,2.993,3.116Zm-1.977-.431-4.33-3.21L85.7,154Zm59.318-.719a1.191,1.191,0,1,1,1.186-1.19A1.187,1.187,0,0,1,148.669,157.312Zm3.475-.058a1.193,1.193,0,1,1,1.185-1.195A1.191,1.191,0,0,1,152.144,157.254Zm-85.109-.432c-.834-9.473-1.413-16.03-3.849-24.962l11.2-7.193-.1,27.436ZM36.162,135.147l.044-32.534c10.572,15.108,16.272,32.767,18.107,49.5,0,0-5.675,2.626-8.431,4.237C42.963,149.483,44.223,149.492,36.162,135.147Zm-7.246,20.3A1.193,1.193,0,1,1,30.1,154.25,1.191,1.191,0,0,1,28.916,155.445Zm121.461-1.28a1.193,1.193,0,1,1,1.186-1.191A1.188,1.188,0,0,1,150.377,154.165Zm-66.094.11-4.114-3.154-.01-2.391,4.921,4.754Zm1.41-1.263-5.144-5.107,5.393-5.4,5.319,5.063Zm-38.733-.179,4.96-2.043c-1.9-17.264-6.82-30.2-13.458-40.695l-.151,24.215c3.427,5.447,6.021,12.007,8.649,18.523Zm-20.85-.357v-2.715l6.173-5.687v2.7ZM85.7,150.982l3.277-3.213-3.3-3.206L82.5,147.769Zm61.7.356V148.45l6.129-5.945v3.071ZM78.383,149.72l-.05-27.633,1.363-.647L79.6,150.307Zm7.376-.418-1.487-1.5,1.557-1.572,1.464,1.5Zm-59.649-.289v-3.132l6.173-5.79.1,2.987Zm68.311-11.744c-6.372-5.537-11.266-13.941-16.642-18.639a39.312,39.312,0,0,0-10.358-5.754,29.472,29.472,0,0,0-9.073-1.513c-2.584-.046-2.595-.061-2.595-.061l-1.095-1.954,1.809.025.119-6.9a32.746,32.746,0,0,0-5.644.243l-.669-1.255a45.525,45.525,0,0,1,33.809,9.63c3.533,2.917,6.4,6.479,9.9,11.664,6.727,10.537,18.575,15.625,29.61,15.743l.915,1.428-1.845-.062a30.981,30.981,0,0,0-.211,3.578c-.027,2.536-.012,2.982.186,3.055a24.877,24.877,0,0,0,5.248-.1l.83,1.489c-13.155,1.362-26.1-3.236-34.293-10.622Zm52.977,10.4v-2.833l6.129-5.807v2.837Zm-67.374-.241.162-2.533,2.922-2.9L80,138.962l.074-2.116,5.482,5.106Zm40.037-.9c.282,0,.453-.024.485-.078.072-.122.032-1.21.271-5.147.087-1.442.187-1.448-1.018-1.594-1.011-.035-3.273-.616-4.779-.795-1.268-.169-1,.219-1.361,1.237-.389,1.114-.6,2.1-1.085,3.691-.443,1.455-.239,1.5,2.617,2.038A35.638,35.638,0,0,0,120.061,146.527Zm-28.51.241L86.589,141.8l4.885-4.983.085,2.408a33.886,33.886,0,0,0-2.893,2.75l2.879,2.952Zm24.879-1.611-.533-.88-1.278-.211.223-.9-.65-.923.8-.6-.028-1.113,1,.036.87-.625.688.877,1,.033-.055,1.248.651.551-.777.7.1,1.106-1.234-.208Zm8.056-1.5-.789-.519.8-.555.036-.851.49-.42,1.8,3.538-1.171-.477-.894.6Zm-14.442.818c.629-.011.712-1.18,1.393-3.391.952-3.085,1.02-2.8-.8-3.443-.813-.286-2.367-.813-3.189-1.2-2-.945-2.014-.942-2.762.343-.333.569-.962,1.968-1.4,2.694-1.1,1.81-1.129,1.723.891,2.7,1.189.575,1.908.81,4.407,1.827a4.676,4.676,0,0,0,1.468.471Zm-2-2.046-.876-.551-.983.412-.2-1.063-1.076-.419.306-1.045-.473-.783.916-.178.665-1.448,1.006.708,1.067-.387.3.8,1.092.53-.4.877.545,1.184-1.25.1Zm-22-1.086-5.476-5.389,4.986-5.019,5.474,5.407Zm-57.128-.982a1.191,1.191,0,1,1,1.186-1.191A1.188,1.188,0,0,1,28.919,140.362Zm71.751-.262c.318,0,.5-.3.775-.864.116-.238.792-1.506,1.417-2.488,1.408-2.215,1.409-2.1,0-2.969a30.693,30.693,0,0,1-3.148-2.572c-1.091-.991-.973-.756-3.323,1.605-1.534,1.539-2.479,1.972-1.882,2.784,1.453,1.251,2.645,2.164,4.22,3.36,1.041.78,1.577,1.149,1.937,1.144Zm-14.88-.6,3.231-3.178-3.641-3.312-3.018,3.113Zm55.324,1.079-.036-24.86c-3.551-6.1-7.2-12.253-9.095-19.116l-5.21,2.564C129.265,119.475,135.062,130.736,141.114,140.577Zm9.275-1.561a1.191,1.191,0,1,1,1.185-1.191A1.188,1.188,0,0,1,150.389,139.016Zm-64.638-1.327-1.557-1.435,1.433-1.564,1.573,1.634Zm-58.284-.233a1.191,1.191,0,1,1,1.185-1.191A1.191,1.191,0,0,1,27.467,137.456Zm3.184-.121a1.191,1.191,0,1,1,1.185-1.19A1.19,1.19,0,0,1,30.651,137.335Zm69.287.078-.9-.67-1.058.456-.076-1.251-.963-.476.606-.886-.366-1.166,1.042-.034.81-1.067.727.7,1.418-.095.225,1.214.614.483-.477.8.349,1.071-1.213.083Zm52.194-1.327a1.191,1.191,0,1,1,1.186-1.19A1.187,1.187,0,0,1,152.132,136.086Zm-3.413-.035a1.193,1.193,0,1,1,1.186-1.194A1.19,1.19,0,0,1,148.719,136.051ZM80.062,133.21l2.828-2.651L80.1,127.641l.085-2.237,4.945,4.953-5.025,4.954Zm27.958.576,10.612-7.07.645,1.769-9.46,6.222Zm-78.946.577a1.193,1.193,0,1,1,1.186-1.195A1.191,1.191,0,0,1,29.074,134.363Zm63.625-.719c.491-.035.992-.618,1.945-1.634.934-1,2.036-2.168,2.272-2.335.737-.521.7-.647-.581-2.093-.39-.44-1.126-1.336-1.635-2s-1.322-1.485-1.483-1.655c-.52-.548-.806-.434-3.2,1.291-2.906,2.095-2.893,1.785-.22,5.249C91.334,132.464,92.069,133.689,92.7,133.644Zm57.725-.732a1.191,1.191,0,1,1,1.189-1.191A1.188,1.188,0,0,1,150.424,132.912ZM88.18,132.48l-1.917-2.066.171-.206Zm-62-.46v-3.58l5.908-5.481v3.275Zm66.16-1.046-.718-.993-1.218.079.18-1.169-.647-.475.631-.885.051-1.116,1.005.239.824-.995.81.954.954-.111-.032,1.16.974.556-.688.755-.021,1.3-1.418.053ZM63.115,130.9l-.59-1.805,14.769-9.652,1.291,1.489Zm38.666-1.209-1.176-.888,15.5-10.011.467,1.305Zm45.343.384V127.1l6.54-6.329v3.074Zm-61.389-.714-.189.157-5.068-4.888.957-1.023Zm14-1.434L99.6,99.054l1.351.939-.1,27.392Zm-.833-.667-1.1-.973,1.053-1.034Zm-72.721.246v-2.927l5.908-5.635v3.062ZM147.124,126.1v-2.752l6.54-6.277v2.78Zm-60.95-.375a1.091,1.091,0,0,0,.619-.319c.243-.191.838-.606,1.321-.922a26.438,26.438,0,0,0,3.355-2.41c.137-.332-1.648-2.672-4.126-5.477-.975-1.1-.948-1.315-1.925-.334-.777.886-3.626,3.313-3.543,3.962.157.743,1.136,1.589,3.566,4.889C85.765,125.529,85.956,125.721,86.174,125.724Zm10.983-.3-3.889-5.588.519-.519,4.77,4.727Zm7.6-.66-.008-26.937,7.3-5.206c-.133-.071.9,16.184,3.687,24.853ZM86.6,123.814l-.714-1.34-1.082.183.142-1.231-.916-.723.9-1.252-.119-.891,1.061.242.968-1.005.664,1.278,1.4-.023-.2,1.228.973.822-1.062.63-.148,1.119-.915-.079Zm-6.333-.208-.12-1.1.651.568Zm18.659-1.956.011,1.575-4.654-4.51,4.752-4.473-.033,2.124-2.7,2.588Zm-38.457.871-.66-2.008,9.559-5.911,1.927,1ZM28.977,119.2a1.193,1.193,0,1,1,1.186-1.19A1.19,1.19,0,0,1,28.977,119.2Zm60.846-3.875,3.359,3.377-.423.459Zm-8.654,3.035c1.139-.977,3.568-3.8,3.564-4.261s-3.364-3.381-5.385-4.675c-.634-.406-.886-.419-1.131-.051-3.491,5.238-3.639,5.062-2.258,6.084a38.277,38.277,0,0,0,4.169,3.236c.472.233.554.089,1.041-.333Zm12.588-.255-5.536-5.332,5.135-4.973,5.329,5.646Zm56.535-.4a1.191,1.191,0,1,1,1.186-1.19A1.187,1.187,0,0,1,150.292,117.7Zm-69.957-1.072L79.4,115.8l-1.111.291-.249-1.1-1.072-.4.575-1.121-.08-1.414,1.079.2.749-1.16,1.095,1.108,1.256-.106-.07,1.236,1.11.539-.7.812.441,1.112-1.329-.21Zm-52.934-.5a1.19,1.19,0,1,1,1.189-1.19A1.188,1.188,0,0,1,27.4,116.136Zm69.266-2.81-3.278-3.368-3.017,2.9,3.2,3.391Zm-66,2.764a1.193,1.193,0,1,1,1.186-1.191A1.188,1.188,0,0,1,30.67,116.09Zm121.257-1.241a1.193,1.193,0,1,1,1.185-1.2A1.191,1.191,0,0,1,151.927,114.849Zm-3.475-.012a1.193,1.193,0,1,1,1.186-1.194A1.19,1.19,0,0,1,148.452,114.837Zm-54.9-.266-1.491-1.544,1.38-1.462,1.542,1.594ZM73.3,113.512c.764-.55,2.838-4.5,3.194-5.363a5.986,5.986,0,0,0-2.251-1.432c-1.065-.5-4.521-1.892-4.839-1.97-.694-.169-.814.1-.93.55-.061.24-.336,1.158-.642,2.155-1.07,3.493-1.391,3.328.2,3.858.549.183,2.272.767,3.358,1.27S72.953,113.519,73.3,113.512Zm-44.225-.632a1.193,1.193,0,1,1,1.186-1.19A1.19,1.19,0,0,1,29.074,112.88Zm56.632-1.634L85.52,87.83l1.825,1.433.049,23.494Zm8.16-3.99,5.037-5.149.032,2.623-2.82,2.565,2.871,3.016-.059,2.027A62.88,62.88,0,0,1,93.866,107.256Zm56.449,4.492a1.193,1.193,0,1,1,1.19-1.19A1.187,1.187,0,0,1,150.315,111.748Zm-77.739.051-1.015-.851-.851.513-.49-.876L69,110.414l.548-1.338-.717-1.033,1.192-.221.3-1.428,1.168.7.888-.386.646,1.209,1.382.056-.754,1.313.711,1.039-1,.065Zm15.547-.093.009-2.065,2.192-2.231-2.2-2.405.011-2.4,4.556,4.658ZM64.754,110.35c.458-.014.462-.5.814-2.085.076-.343.32-1.264.539-2.046.663-2.371.747-2.415-1.3-2.824-1.186-.177-6.318-1.377-6.423-.556-.129,1.4-.212,4.681-.23,5.8-.045.374.042.727.415.772,2.34.28,4.942.9,6.186.941Zm19.992-.1a102.011,102.011,0,0,0-9.085-5.858L75.577,80.31l9.189,6.873Zm-58.491-.069v-2.952l6.125-5.874v2.82Zm35.886-1.024-.53-1.143-1.116.373.007-1.364-1-.63,1.2-.556.1-1.66,1.216.376,1-.622.886.934,1.085.021-.4,1.476.7.674-1.017.5-.083,1.318-1.089-.655Zm84.854.219v-2.846l6.669-6.164v2.488Zm-93.2-1.784-1.5-2.54.54-1.027,1,.491,1.1-.408-.168,1.358.85.679-.86.794.039,1Zm39.5-.838-5.114-5.321,5.21-5.4,5.112,5.4Zm-67.037-3.331,6.125-5.715v2.78l-6.125,5.833ZM147,105.746V102.97l6.669-6.276v2.573Zm-53.716-.993,3.321-3.3-3.293-3.319-3.327,3.238Zm-.044-1.891L91.812,101.4l1.36-1.418,1.466,1.432Zm5.7-2.028-5.07-5.228.582-.69,4.492,3.505Zm-10.883-.424-.135-2.359,2.766-2.371-2.526-2.661-.07-2.452L92.9,95.536ZM28.981,98.015a1.191,1.191,0,1,1,1.186-1.19A1.187,1.187,0,0,1,28.981,98.015Zm121.191-1.439a1.193,1.193,0,1,1,1.185-1.191A1.188,1.188,0,0,1,150.172,96.576Zm-24.273-.73,3.741-5.618-2.948-1.984,2.792-3.768-2.905-3.509,2.924-2.518-2.967-5.1A14.9,14.9,0,0,1,130,74.92l2.237,4.274-2.573,2.223,2.611,3.043-2.738,3.258,2.746,1.935-3,4.626ZM27.564,95.1a1.191,1.191,0,1,1,1.185-1.19A1.187,1.187,0,0,1,27.564,95.1Zm73.571.093L75.316,75.205l.105-2.652,25.824,19.931,10.965-7.775-.1,2.83Zm-70.41-.252a1.191,1.191,0,1,1,1.185-1.191A1.188,1.188,0,0,1,30.725,94.938ZM90.82,92.386l.272-.051L93.908,94.4l-.614.694S91.447,93.046,90.82,92.386Zm57.6,1.151a1.193,1.193,0,1,1,1.186-1.194A1.193,1.193,0,0,1,148.417,93.537Zm3.2-.015a1.191,1.191,0,1,1,1.186-1.191A1.191,1.191,0,0,1,151.613,93.522ZM28.981,91.95a1.193,1.193,0,1,1,1.186-1.194A1.19,1.19,0,0,1,28.981,91.95Zm121.2-1.319a1.193,1.193,0,1,1,1.185-1.194A1.191,1.191,0,0,1,150.184,90.631ZM26.255,88.413V85.784l5.79-5.636v2.539Zm78.152-.789c-.861.008-2.015-.036-3.567-.09-1.33-.045-2.8-.074-3.266-.062-1.841.05-2.442-.578-2.475-2.575-.03-1.776-.023-1.77-2.336-1.868-2.789-.117-3.526-.836-3.564-3.482-.015-1.03-.843-1.433-2.468-1.2-2.56.366-3.057.013-3.354-2.377-.247-1.994-.115-1.891-2.46-1.875-2.522.018-3.085-.407-3.115-2.357-.017-1.132-.291-1.472-1.266-1.56-1.042-.095-1.491-.632-.976-1.164a3.178,3.178,0,0,1,1.336-.167c1.607-.023,2.137.484,2.437,2.334.208,1.285.338,1.352,2.475,1.292,2.726-.076,2.939.089,3.235,2.478.252,2.051.6,2.262,2.94,1.817,1.7-.324,2.606.431,2.828,2.357.248,2.162.344,2.241,2.762,2.327s3.1.514,3.118,1.976c.032,2.266.318,2.471,3.3,2.381a32.832,32.832,0,0,1,3.777.07c1.805.188,1.8.2,1.976-1.544.27-2.6.649-2.841,4.075-2.587,1.431.105,1.533.039,1.631-1.055.123-1.369.627-2.213,1.015-1.7.2.27.2.3,0,2.3-.227,2.243-.253,2.26-3.165,2.035-1.972-.152-1.877-.224-2.088,1.576-.256,2.189-.217,2.694-2.8,2.719Zm42.491.2V84.943l6.766-6.309v2.8Zm-21.02-3.391-1.473-2.02.477-3.756,1.251-.946-.886-1.786.283-2.194.351-.2,2.457,4.789-2.907,2.569,2.979,3.648L125.6,88.352l2.921,2.062-3.51,5.19c-.608.742-.644-2.2-.644-2.2l1.454-2.211-1.626-1.409h0l0-3.5Zm-1.859,1.7-.158,4.71,1.268.986-.978,1.634.066,4.172.3.2c2.44,29.867,17,47.515,19.277,51.517a1.641,1.641,0,0,1,.414,1.435c-.041.445-.061,3.078-.043,5.851.092,14.157-.027,23.856-.027,23.856l10.7,11.456-.062-4.192-.526-.38,0-19.086.445-.025s.138-5.132.1-8.657l-.637-.018.039-13.115.542-.065-.031-8.5h-.59s-.138-8.909.073-13.241l.439-.027-.03-8.446-.5-.038-.033-12.081.613-.093-.166-7.975-.5-.028c-.18-4.927-.095-13.445-.095-13.445l.572-.026-.14-7.918-.411-.027.12-13.9.374-.045-.143-8.21-.4-.037.068-6.827.278-.048.066-2.553-.3-.676-.019-9.1.225-.1.066-4.569-16.6,16.854,6.11.184,0,5.447c0,8.989-.121,16.243.147,25.011a4.356,4.356,0,0,0,1.349.214c3.145.185,4,.441,4.009,1.2.013.938-1.412,2.1-2.6,2.117a2.021,2.021,0,0,0-.716.271l.38,99.736,7.427,7.811-.032,2.48-9.15-9.726-.344-99.684-.348.162-.025,33.477c-4.69-7.044-7.32-14.024-9.928-21,0,0-.923.319-.961.338-.008.008.329.118.329.118a81.188,81.188,0,0,0,10.4,22.141l-.063,32.444c-11.182-15.863-16.589-30.129-18.835-50.691l5.66-2.839.549-.737L135.31,91.7l.41.686,2.591-1.8c-2-3.508-1.928-8.549-.3-11.22l-.7-.438a13.026,13.026,0,0,0,.265,11.208l-1.931,1.195c-2.786-5.783-1.493-12.011-.181-13.616,0,0-2.016-1.29-3.465-2.08a26.963,26.963,0,0,0-4.862-2.255,1.911,1.911,0,0,0-1.9.1l-.566,3.227.9,1.231-1.047.846-.476,4.942,1.123,1.141ZM26.255,84.82V81.636l5.79-5.51v3.133ZM146.9,81.409l6.766-6.236v2.594L146.9,84.146ZM28.556,77.167a1.193,1.193,0,1,1,1.186-1.2A1.194,1.194,0,0,1,28.556,77.167ZM144.2,75.238l-.007-29.381,1.786,0L145.894,75.6Zm5.975.267a1.191,1.191,0,1,1,1.185-1.19A1.187,1.187,0,0,1,150.172,75.505ZM30.244,74.369a1.192,1.192,0,1,1,1.189-1.19A1.187,1.187,0,0,1,30.244,74.369Zm-3.2-.05a1.191,1.191,0,1,1,1.19-1.191A1.188,1.188,0,0,1,27.048,74.319Zm121.272-1.79a1.193,1.193,0,1,1,1.186-1.194A1.193,1.193,0,0,1,148.32,72.529Zm-61.081-.035c-6.181-.768-4.544-7.279-1.938-8.632,3.547-1.66,6.389,1.682,4.123,5.069-1.663,2.484-4.825.841-3.6-1.882.688-1.534,2.115-1.355,2.1.2-.51,1.475-.042.949.356.429,1.25-1.634-1.273-3.367-2.569-1.754a3.446,3.446,0,0,0-.691,3.1c.465,1.6,2.309,2.541,4.394,1.057,2.492-3,3.823-6.883,4.559-11.226,1.567-9.243,1.646-18.967,2.991-21.433l1.463.035c-2.128,10.578-2.138,19.632-4.41,27.971C92.892,69.562,90.023,72.5,87.239,72.494Zm64.324-.05a1.193,1.193,0,1,1,1.185-1.2A1.192,1.192,0,0,1,151.563,72.444Zm-25.079-.164a3.145,3.145,0,0,0,3.157-3.12c-.154-2.1-1.395-3.039-3.436-2.828-1.091.113-1.062.13-1.8-1.191a38.5,38.5,0,0,1-2.418-7.033c.839,1.117,2.8,3.191,4.6,3.1,1.939-.142,3.572-1.988,2.106-4.6a2.914,2.914,0,0,0-3.577-1.109c-2.11-3.3-2.508-6.6-3.179-10.431,0,0-.834,8.2-1.086,11.473-.48,5.014-1.162,8.262-3.094,12.237a35.914,35.914,0,0,0,5.071,2.338,9.507,9.507,0,0,1,2.1.719A2.649,2.649,0,0,0,126.484,72.28Zm-98.058-.668a1.193,1.193,0,1,1,1.186-1.191A1.188,1.188,0,0,1,28.426,71.612Zm94.719-2.631a17.458,17.458,0,0,1-2.517-6.681,24.462,24.462,0,0,1,.4-4.048c.1-.68.356-.016.819,1.454,1.921,6.1,2.429,7.269,3.765,6.964a3.114,3.114,0,0,1,2.069.084c1.692.938,1.847,4.081-.624,4.682-1.953.427-3.21-1.315-3.908-2.455Zm.044,1.517c-2.463-.974-4.035-2.443-3.586-4.832.2-.9.329-1.64.569-1.545.277.111.659,1.189,1.423,3.044C121.769,67.766,123.524,70.486,123.189,70.5Zm-40.758-.1c-.13.019-.334-.1-.612-.365-1.942-1.92-.889-6.248,1.7-7.494,1.065-.736,3.024-.615,3.034.1,0,.277-.058.351-.33.355-2.175-.017-4.488,3.02-3.848,6.253.08.486.226,1.132.059,1.155Zm67.691-1.051a1.193,1.193,0,1,1,1.189-1.19A1.188,1.188,0,0,1,150.122,69.343ZM80.39,68.977a1.513,1.513,0,0,1-.92-.561C77.64,66.2,79.126,62.431,82,61.138c1.1-.6,2.022-.185,1.79.429a5.876,5.876,0,0,0-3.614,5.816C80.252,68.4,80.589,68.947,80.39,68.977Zm38.775-.4-.665-.317.274-.578A3.27,3.27,0,0,0,119.165,68.575Zm-40.855-.24a.93.93,0,0,1-.781-.248c-1.182-1.155-1.37-4.391-.234-5.99a9.221,9.221,0,0,1,2.681-2.25,2.834,2.834,0,0,1,1.93.28c.32.01-.144.314-.747.664-2.142,1.241-3.562,3.457-3.19,5.536C78.2,67.614,78.588,68.329,78.31,68.335Zm-2.169-1.043a1.884,1.884,0,0,1-1.277-.975c-1.406-2.027-.238-6.293,2.639-7.177,1.917-.589,2.631-.032,1.079.877-2.228,1.3-3.385,3.857-2.741,5.884.309.969.6,1.37.3,1.391ZM73.82,65.807A1.675,1.675,0,0,1,72.4,64.75a5.391,5.391,0,0,1,.255-4.435A4.935,4.935,0,0,1,76.28,57.8a2.119,2.119,0,0,1,1.05.153c.673.292.442.335-.825,1a5.561,5.561,0,0,0-2.9,5.7C73.715,65.562,74.081,65.805,73.82,65.807Zm73.078.443V63.106l6.586-6.243v3.07Zm-55.957-.407a16.6,16.6,0,0,1-.962-2.282c1.542-2.228,1.978-5.885,2.217-8.655.87-7.851,1.775-17.332,2.17-17.419l1.715-.038c-.654-.438-1.492,13.019-2.821,21.544-.1.669-1.526,7.248-2.319,6.85ZM71.018,64.451c-2.263-1.537-1.054-6.335,2.091-7.522,1.142-.441,1.561-.5,2.078.008.326.318.637.425-.193.72a4.741,4.741,0,0,0-3.575,5.323c.046.616.624,2.243-.4,1.471Zm18.3-1.329-1.029-.664A57.56,57.56,0,0,0,90.26,51.426c.549-4.587,1.032-9.31,1.7-13.814l1.575-.057c-.822,2.784-1.2,10.558-2.015,17.072-.475,3.3-.992,7.831-2.2,8.495Zm-1.786-1.085L86.21,61.27A56.94,56.94,0,0,0,87.5,55.44c.6-4.323.843-9.566,2.237-17.635l1.426-.121c-.359,2.591-1.039,8.363-1.619,13.673C88.872,57.523,87.814,62.187,87.529,62.037Zm59.369.208V59.159l6.586-6.089v2.843ZM85.3,61.061s-1.134-.641-1.278-.716a86.13,86.13,0,0,0,1.7-9.66c.569-4.165.992-8.217,1.778-12.794l1.52-.1c-.756,3.511-1.623,11.758-2.3,17.574C86.316,58.744,85.5,61.127,85.3,61.061Zm36.256-6.932a51.335,51.335,0,0,1,.488-5.933c.2-.115.822,5.282,2.993,7.723a2.468,2.468,0,0,1,3.123,3.741C124.638,62.7,121.555,56.207,121.554,54.129ZM83.315,60.134l-1.841-.853c.227.039.661-1.235,1.084-3.221,1.29-6.052,2.569-17.979,2.778-17.974l1.42-.118c-.46,3.2-1.092,8.265-1.753,12.743-.748,5.072-1.447,9.4-1.688,9.423Zm-2.558-1.161-1.4-.844a7.851,7.851,0,0,0,.873-2.46c1.259-6.036,1.827-11.329,2.605-17.185l1.525-.2c.115-.169-1.315,11.524-2.5,17.429-.4,2.018-1,3.327-1.109,3.259Zm-2.18-1.05-1.5-.744c1.629-4.632,1.781-9.063,3.343-18.361L82,38.531a167.721,167.721,0,0,1-2.84,18.17A2.79,2.79,0,0,1,78.577,57.923Zm-2.143-1.087-1.687-.68,3.531-17.07,1.423-.194c-.886,4.921-1.345,10.612-2.54,15.1a26.906,26.906,0,0,1-.727,2.847Zm73.436-2.7a1.191,1.191,0,1,1,1.185-1.191A1.191,1.191,0,0,1,149.87,54.132Zm-1.55-2.794a1.192,1.192,0,1,1,1.186-1.194A1.193,1.193,0,0,1,148.32,51.338Zm3.088-.073a1.193,1.193,0,1,1,1.185-1.191A1.191,1.191,0,0,1,151.408,51.265Zm-1.48-2.747a1.193,1.193,0,1,1,1.189-1.194A1.19,1.19,0,0,1,149.928,48.518ZM139.2,44.54l14.225-14.471.044,2.892-9.75,9.615,9.825.15-.023,1.957Zm6.52-2.759,7.622-7.306.064,7.429Zm-8.141-.534s.041-.267-.675-1.525c-2.079-3.63-2.559-6.984-4.4-10.874a11.289,11.289,0,0,0-3.436-4.4l2.289-4.208-64.6.136L77.1,38.505a124,124,0,0,1,45.022-.077,50.02,50.02,0,0,0,2.5-4.832C126.692,39.191,133.313,42.8,137.579,41.247Zm-2.352-.486c-3.414.049-6.259-1.581-8.786-5.039-.8-1.1-1.116-1.6-1.113-2.061a12.413,12.413,0,0,1,1.144-2.244,22.178,22.178,0,0,1,.759,2.519c.918-3.395,1.284.539,1.637,1.577,1.12-3.28,1.724,1.228,1.667,2.444,1.524-2.1,1.426,1.351,2.169,1.993.018-1.823,1.085-.576,2.468-.187-.723-1.019-2.131-1.7-.333-1.928-1.793-1.243-2.692-1.053-.951-1.739-1.342-.744-3.55-1.638-1.108-2.127-1.492-.945-3.892-1.342-1.312-2.244-1.949-1.2-4.543-1.112-.894-2.073-1.322-.777-3.653-1.068-1.045-1.743a10.337,10.337,0,0,1-1.1-.651l1.127-1.788a1.174,1.174,0,0,1,.683.324c1.2,1.255,2.36,3.565,3.4,6.8a56.785,56.785,0,0,0,2.686,6.983c.544,1.1.493,1.16-1.1,1.183Zm-57.7-4.083L68.605,21.336l2.118-.033,7.883,13.135,10.635-1.206-3.5-11.743L88.9,21.4l3.138,11.552a141.533,141.533,0,0,1,16.539.091l1.673-11.719,3.016.1-1.911,11.6,9.98,1.283,5.414-13.01,3.117-.06c-2.012,3.409-7.037,14.417-7.976,15.5-21.739-3.494-33.027-1.61-44.356-.062Zm2.087-3.557-6.76-11.8,10.859-.05L87.366,32.2Zm40.629-.346a27.857,27.857,0,0,0-6.77-.849l1.974-10.56,9.622.02ZM93.163,31.533,90.61,21.278l18.113-.094-1.494,10.223C102.475,31.121,97.83,31.385,93.163,31.533Z"/></g></g></g><path id="e8203763-490b-44aa-9215-4c9fea44b1ff" data-name="path147-0-8-1-3-6-4-3-4" d="M131.2,223.789c7.855-.17,11.377-9,5.56-15.861-.844-1-.931-1.574.614-.613,3.917,2.615,11.427.9,11.811-7.1.475-9.853-13.31-12.692-15.9-2.215-.136,1.106-1.036,1.08-.819-.489a32.582,32.582,0,0,1,3.4-12.121h-9.338a32.563,32.563,0,0,1,3.4,12.121c.217,1.569-.682,1.594-.819.489-2.588-10.477-16.373-7.638-15.9,2.215.385,8,7.9,9.716,11.811,7.1,1.545-.961,1.458-.387.615.613-5.818,6.859-2.3,15.691,5.559,15.861h.006Z"/><path id="75381227-671b-4a01-90cc-196e512d779e" data-name="path147-0-8-1-0-3-83-9-4-0" d="M48.378,26.653c7.855.17,11.377,9,5.56,15.861-.844,1-.931,1.574.614.613,3.917-2.615,11.427-.9,11.811,7.1.475,9.853-13.31,12.692-15.9,2.215-.137-1.106-1.036-1.08-.819.489a32.577,32.577,0,0,0,3.4,12.12H43.706a32.558,32.558,0,0,0,3.4-12.12c.217-1.569-.682-1.595-.819-.489-2.588,10.477-16.373,7.638-15.9-2.215.385-8,7.894-9.716,11.811-7.1,1.545.961,1.458.387.614-.613-5.817-6.859-2.295-15.691,5.56-15.861h.006Z"/></g></g><rect id="5cf43607-cf45-4f6e-ac9d-716e99cc34d8" data-name="rect17708" x="0.496" y="0.496" width="178.583" height="249.449" rx="8.504" ry="8.504" opacity="0.08" fill="url(#f17e8f2e-9e4e-4b34-8c27-65cdd090e34c)" style="isolation:isolate"/></g></g></g></svg>