<svg xmlns="http://www.w3.org/2000/svg" xmlns:xlink="http://www.w3.org/1999/xlink" viewBox="0 0 179.579 250.446"><defs><pattern id="4a339010-a5a1-4858-9b76-b7a3bfa21278" data-name="pattern17606" width="595.276" height="841.89" patternTransform="matrix(0.8, 0, 0, -0.8, -615.4, 967.046)" patternUnits="userSpaceOnUse" viewBox="0 0 595.276 841.89"><rect width="595.276" height="841.89" fill="none"/></pattern></defs><title>JD</title><g id="c851ac05-f8fc-4b97-9cca-589458183951" data-name="Layer 2"><g id="0b304650-fb51-47b0-b301-23e7bcaf948c" data-name="Diamonds"><g id="d948f9a5-7943-497f-a43f-247c6965f48d" data-name="JD"><g id="21b7e67a-07b2-48c8-aa86-e8e39fc64f75" data-name="g101286"><rect id="61d8471e-27e0-4b6c-adfa-188c182cc6fa" data-name="rect6218" x="0.498" y="0.498" width="178.583" height="249.449" rx="8.504" ry="8.504" fill="#fff" stroke="#b3b0b0" stroke-width="0.997"/><path id="cb30e68b-772e-4bc9-8113-ab9ae1f1d5b9" data-name="path7130-4" d="M14.609,56.477a45.069,45.069,0,0,0-5.82-8,45.069,45.069,0,0,0,5.82-8,45.124,45.124,0,0,0,5.821,8A45.124,45.124,0,0,0,14.609,56.477Z" fill="#d40000"/><path id="ad834356-ffee-4508-8c87-a836269ec1c7" data-name="path7134-0" d="M164.971,209.969a45.119,45.119,0,0,0-5.82-8,45.119,45.119,0,0,0,5.82-8,45.119,45.119,0,0,0,5.82,8A45.119,45.119,0,0,0,164.971,209.969Z" fill="#d40000"/><path id="863e2c14-b78f-4ae5-a518-d0f3f96029e0" data-name="path7136-1" d="M48.562,65.054c-4.149-6.851-8.514-13.511-13.969-19.2,5.455-5.688,9.82-12.348,13.969-19.2,4.149,6.852,8.514,13.512,13.968,19.2C57.076,51.543,52.711,58.2,48.562,65.054Z" fill="#d40000"/><path id="078e08f3-476f-4715-bf97-3b33fbc43533" data-name="path7154-5" d="M131.018,223.8c-4.149-6.852-8.514-13.511-13.968-19.2,5.454-5.689,9.819-12.348,13.968-19.2,4.149,6.852,8.514,13.511,13.969,19.2C139.532,210.29,135.167,216.949,131.018,223.8Z" fill="#d40000"/><path id="a50063b9-051c-42d4-8d18-fbdd8461fa21" data-name="path6263-5" d="M24.483,230.485V19.961H155.1V230.485ZM71.5,54.967c-4.671-1.274-4.557,3.368-1.137,3.541,3.832.33,5.472-6.205,3.643-8.781C74.01,49.727,72.417,54.65,71.5,54.967ZM41.2,81.212l-5.61,2.5-.022,4.19A23,23,0,0,0,41.2,81.212Zm38.285,125.9c-1.1-.558-2.435-1.755-2.231-1.966.1-.1.7.085,1.242.329,4.384,1.848,7.786,1.729,13.013-.169.4-.144.986.611.766,1.025-2.314,3.426-9.8,2.208-12.79.781Zm-2.311-5.141c-1.007-1.513.328-.366.776.063,3.243,3.017,7.637,4.04,11.41,1.2a.491.491,0,0,0,.146-.511c-.106-.279-.109.018-1.721.578-3.62,1.356-6.672.242-9.647-2.036-1.226-.946-1.8-1.411-1.8-1.659,0-.226.229-.368.641-.3.256.044.969.192,1.49.235.905.074.836.036,1.764-.393a9.408,9.408,0,0,1,5.884-.879,11.638,11.638,0,0,0,1.165.218c.465-.155-.22-.768-1.977-2.162a4.589,4.589,0,0,1-.918-.747c-.222-.369.02-.467.27-.464.722.008,3.968,2.723,5.081,4.335.338.49.572.542.573,1.052a2.022,2.022,0,0,0,.423,1.778,7.459,7.459,0,0,1,.812,1.427c.008.047-.082.315-.458.067-.171-.032-.255-.216-.568-.17a5.627,5.627,0,0,0-1.2.485c-4.548,2.927-8.736,1.5-12.146-2.116Zm9.963-.2a4.916,4.916,0,0,0-.772-2.169,2.008,2.008,0,0,0-3.112-.156,9.228,9.228,0,0,0-.983,2.134,6.518,6.518,0,0,0,.933.215,2.533,2.533,0,0,1,.755-1.912,1.413,1.413,0,0,1,1.423-.039c.593.291.844,1.471.852,1.929a2.02,2.02,0,0,0,.9,0Zm-5.5-2.424c-.641.286-1.475.479-1.666.909-.252.566.638.737,1.1.928.64.309.655.2.862-.3.13-.309.3-.711.463-1.081C82.877,198.87,82.4,199,81.636,199.339Zm6.939,1.611c.369-.37.439-.614.109-1.033a2.563,2.563,0,0,0-1.037-.539c-.594-.2-.853-.443-.48.363l.532,1.15c.274.551.514.405.876.059ZM27.9,161.654a24.743,24.743,0,0,0,3.26-1.089c.79-.3.884-.293.57-.73a1.948,1.948,0,0,1-.155-1.132L31.63,158a4.855,4.855,0,0,0-4.148,1.449c-.5.617-.453,1.989.414,2.208Zm-.281,3.445c.419.419.535.434,1.793-.033a4.969,4.969,0,0,1,2.008-.706c1.515-.4,1.516-.244,1.087-1.215a2.1,2.1,0,0,1-.2-1.23c.074-.489.132-.556-.144-.643-.725-.227-4.1,1.035-4.7,2.017a1.322,1.322,0,0,0,.158,1.809Zm78.426,33.266c.064.775.081,1.979.083,2.626-.031,1.262.474,1.556,1.012.864.531-1.646.744-4.247,2.011-5.562.94-.273,2.095.208,2.767-.445a1.853,1.853,0,0,0-1.08-3.312C107.938,192.481,105.837,196,106.041,198.365Zm7.062-4.041a2.411,2.411,0,0,1-3.11,2.318c-.656-.165-.853-.015-1.293.922a33.636,33.636,0,0,0-1.585,6.835c-.109,1.517-.666,5.466-.263,6.725,4.614,5.705,9.471,11.648,14.789,17.521h31.726V191.373l-9.091-8.695.017-13.783c-9.833,4.637-19.638,9.338-29.453,14.015,2.138,6.864-5.114,8.3-6.7,3.7-1.376,1.263-2.5,8.078-2,8.414,0,0,.182.246.487-.3a5.458,5.458,0,0,1,1.859-1.985C110.53,191.48,112.963,192.105,113.1,194.324Zm-25.175-.7a2.134,2.134,0,0,1,.569-3.682,4.34,4.34,0,0,1,2.987.168,4.308,4.308,0,0,0,2.781.284c.721-.08.587,1.431-.166,1.821-.531.275-1.748.145-3.228-.7-2.554-1.455-3.676.431-2.094,2.134.877.938-.625.187-.849-.026ZM35.351,171.06a1.426,1.426,0,0,0-.474-2.689,1.457,1.457,0,0,0-.922,2.683c0,.239-.61.044-.939-.2-.51-.383-.044-1.879-.519-1.939a30.843,30.843,0,0,0-4.281,1.508c-1.589.9-.1,2.94.825,2.707,1.915-.484,4.519-.915,6.31-2.068Zm-7.9-2.91c.033.907.286,1.31.882,1.318a26.45,26.45,0,0,0,3.564-1.186c.908-.3,1.276-.632.584-1.2a1.388,1.388,0,0,1-.294-1.239c.238-.748.056-.786-.261-.822A11.966,11.966,0,0,0,29.03,166c-.975.374-1.163.536-1.415,1.073a3.121,3.121,0,0,0-.169,1.077Zm10.312,11.708a7.4,7.4,0,0,0,.689-2.224c-.1-.651-.58-.8-1.008-.378-.521.466-.381,1.171-.69,1.711a1.091,1.091,0,0,0-.19.553.737.737,0,0,0,1.2.338Zm4.057-8.608c15.851-16.893,25.67-40.269,8.493-72.509-1.051-1.034-2.522,2.313-2.706,2.441l-2.2,1.913c11.628,20.065,9.609,43.146-4.609,59.559l.015,1.041c.034,2.292.693,2.193,1.657,1.121,1.021-1.078.338-.2-.079.243-.36.381-.932,1.14-1.084,1.338.186,1.375,1.052,3.938.507,4.853Zm-1.052-5.076a13.222,13.222,0,0,1-.425-2.3c-.055-.522-.077-1.016-.1-1.526a18.59,18.59,0,0,0-.919-3.859,2.955,2.955,0,0,0-2.237-1.022c-.845-.054-.915-.039-1.1.236-.309.473-.1,2.859.217,3.733a3.651,3.651,0,0,1-.141,2.6c-.1.368-.137.393.044.419.791-.056,1.054-1.026,1.367-.737a3.947,3.947,0,0,1-.538,1.707,4.735,4.735,0,0,0-.042,3.459,1.945,1.945,0,0,1-.008,1.546,9.539,9.539,0,0,0-.294,2.311,2.633,2.633,0,0,1-.034,2.208,5.623,5.623,0,0,0-.582,3.284c.111.352.4.051.616-.552.332-1.19.721-1.455,1.7-1.455.712,0,.779.249,1.014-.069a14.21,14.21,0,0,0,1.863-4,8.853,8.853,0,0,0-.4-5.985Zm7.58,11.958a2.492,2.492,0,0,0,1.094-1.389c0-.347-2.657-2.933-3.764-3.647-.5-.323-.74-.094-1.626,1.1-.788,1.061-.891,1.07-.745,1.274a36.051,36.051,0,0,0,3.783,2.508,1.62,1.62,0,0,0,1.258.154Zm4.981-4.6c-.4-.305-3.577-3.834-4.521-4.009-.359-.067-1.51,1.244-1.51,1.542a25.486,25.486,0,0,0,3.394,3.457,2.843,2.843,0,0,0,.986.638C52.121,174.928,53.268,174,53.324,173.529ZM56.7,170.2c0-.209-.351-.64-1.207-1.481-2.182-2.144-3.4-3.126-3.78-3.122A3.515,3.515,0,0,0,50.5,167.45c.142.266,3.791,3.577,4.264,3.9.583.564,1.859-.749,1.941-1.148Zm3.422-3.42c.094-.315-.089-.583-.551-1.026-.327-.314-1.491-1.454-2.586-2.533-2.294-2.263-2.3-2.265-3.036-1.207-.759,1.088-.755,1.1,1.482,3.28,2.384,2.329,2.943,2.8,3.313,2.8A2.45,2.45,0,0,0,60.126,166.78Zm-25.575-2.042a1.131,1.131,0,0,0-1.081.2c-1.691,1.438.707,3.289,1.693,2.135a1.37,1.37,0,0,0-.612-2.337Zm29.087-1.506c0-.241-.493-.781-2.2-2.41-4.219-4.03-4.029-3.877-4.5-3.626a3.136,3.136,0,0,0-.858,1.642c0,.3.405.719,3.532,3.642,1.833,1.713,2.376,2.145,2.692,2.145.5-.247,1.307-.783,1.329-1.393Zm-28.98.152A1.237,1.237,0,1,0,33,162.3a1.226,1.226,0,0,0,1.661,1.081Zm32.447-3.536c0-.481-7.224-7.241-7.739-7.241-.349,0-.6.283-.927,1.048-.284.664-.255,1.057.1,1.4.522.5,1.914,1.787,3.238,2.986.784.71,1.684,1.557,2,1.883a4.615,4.615,0,0,0,1.874,1.354,3.159,3.159,0,0,0,1.45-1.432Zm-32.825-.872a1.041,1.041,0,0,0-.257-.755,1.011,1.011,0,0,0-1.649.45C32.163,160.317,34.212,160.39,34.28,158.976Zm5.35-52.615,1.413-4.323,4.317-.112.605-4.3,4.443-.64.071-4.439,4.251-.581-.263-4.755,3.941-.934-.2-4.4,3.581-1.1-.143-3.831.615-.483-1.549-1.576-1.334.433-.024,3.938-3.577,1.152.377,4.357-3.615.825L52.5,90.332l-4.154.467-.3,4.18-4.051.8-.6,4.095-3.933.267-1.2,3.6-2.6.03v2.409ZM86.6,183.7c-.135-.324.219-.276.836.115a4.851,4.851,0,0,0,2.255.749,16.2,16.2,0,0,0,2.213-.4,5.538,5.538,0,0,1,3.282-.184c.865.117,1.738.211,1.937.209a2.545,2.545,0,0,0,1.823-1.083c.712-1.219.543,1,.546,1.248.012,1.135.154,2.439-.658,1.832a2.013,2.013,0,0,0-1.989-.021,1.643,1.643,0,0,1-2.022.071c-.649-.256-.991-.31-1.476.141-.541.5-1.852.323-2.555.092-1.207-.2-1.883-.376-2.692.265-.432.247-.543.063-.868-.894s-.582-2.025-.632-2.145Zm3.074-.8c-.077-.124.571-.759,1.009-.985a8.205,8.205,0,0,1,5.661.039c.952.352,1.1.953.173.827-1.926-.405-4.342-.737-6.2.15a.976.976,0,0,1-.64-.031Zm1.629-3.01c-1.317-.489-1.963-1.01-1.963-1.176s.282-.145,1.317.138a6.839,6.839,0,0,0,4.47.312c1-.371,1.5-.6,1.5-.382a2.028,2.028,0,0,1-1.1,1.2,6.41,6.41,0,0,1-4.223-.094Zm28.586-3.66.977-.135-.339-4.081,3.6-1.069-.253-4.059,3.837-1.321L127.482,161l3.987-.786.52-4,3.764-.269.78-4.349,4.043-.14.833-3.615,2.691-.017-.012-2.03-4.191.013-.887,3.913-3.955.114-.84,4.3-4.147-.031-.53,4.633-3.9.64v4.989l-3.762.976.291,4.266-3.757,1.372.424,4.071ZM145.023,80.47a1.68,1.68,0,0,0-.575,1.761,1.393,1.393,0,0,0,2.614-.055,1.123,1.123,0,0,0-.691-1.253c-.089-.025-.406,0-.57-.166-.119-.122.622-.5,1.059-.358a1.711,1.711,0,0,1,.993,1.527c0,.242-.068.6.02.722a13.688,13.688,0,0,0,2.9-.786c1.633-.453,2.224-1.391,1.862-2.489-.3-.915-1.238-1.278-2.468-.815-1.688.635-3.669.939-5.145,1.912ZM75.272,180.664c5.533-3.889,8.79-6.112,15.891-6.5-2.533-1.042-2.947-2.412-3.659-3.723a35.959,35.959,0,0,0-17.646,6.267,14.726,14.726,0,0,1,5.414,3.952Zm30.838-5.394a28.5,28.5,0,0,0-9.187-3.93l-2.538,2.631a52.409,52.409,0,0,1,11.725,1.3ZM131.869,150.3c-17.3-26.606-5.68-50.018,6.352-64.936.386-.489.48-.514.393-.9a28.78,28.78,0,0,1-.169-4.593c-22.24,22.056-22.81,50.789-8.86,73.593,1-.892,3.008-2.079,2.284-3.161Zm2.595-2.276c-2.841-4.733-17.969-30.362,5.138-58.953a12.748,12.748,0,0,0-.252-2.006,3.018,3.018,0,0,0-.793-1.377c-9.7,14.578-23.809,32.819-6.193,64.5ZM121.233,99.792a3.39,3.39,0,0,0,.849-1.731c0-.377-.272-.693-2.879-3.339-3.475-3.528-4.075-4.068-4.52-4.068-.42,0-1.517,1.041-1.517,1.44,0,.191,1.023,1.294,3.436,3.7,4.479,4.474,4.267,4.292,4.632,3.994Zm3.2-6.5c0-.213-.322-.634-1.083-1.418a43.543,43.543,0,0,0-5.125-4.692,2.846,2.846,0,0,0-1.428,1.156.506.506,0,0,0,.032.681c.355.554,4.837,4.811,6.11,5.882.765.7,1.458-1.075,1.494-1.609Zm1.732-2.64a3.087,3.087,0,0,0,.947-1.771,26.625,26.625,0,0,0-2.526-2.721c-2.674-2.663-2.829-2.759-3.5-2.162-.6.54-.981,1.081-.907,1.3a67.091,67.091,0,0,0,4.911,5C125.742,90.817,125.818,90.842,126.166,90.655Zm20.4-.2a1.133,1.133,0,0,0-1.2-1.92A1.213,1.213,0,0,0,144.8,89.8,1.29,1.29,0,0,0,146.57,90.458Zm2.488-.308c2.127-.559,3.146-.932,3.591-1.6.308-.459.344-.741,0-1.49-.32-.691-.694-.9-2.026-.172-.915.5-2.953.742-3.665,1.163-.285.246-.146.243.083.389.513.326.763.548.708.979-.122.938-.025,1.082,1.313.727Zm-2.251-3.337c1.033-.528.824-1.8-.33-2.311a1.336,1.336,0,0,0-1.257,2.326,1.983,1.983,0,0,0,1.587-.015Zm3.432-.517c1.493-.512,2.067-.913,2.5-1.739a2.264,2.264,0,0,0,.151-1.579c-.069-.959-.551-.85-1.943-.348-.679.263-3.93,1.179-3.976,1.512,1.57.9,1.169,1.371,1.182,2.517.082.26.818.073,2.088-.363Zm-20.357-1.527c0-.433-4.172-4.523-4.614-4.523-.69,0-1.677,1.072-1.529,1.661a47.78,47.78,0,0,0,4.468,4.5C128.89,86.806,129.839,85.421,129.882,84.769Zm2.4-2.549a4.576,4.576,0,0,0,.71-.814c.449-.654.417-1.018-.121-1.364-.2-.126-1.071-.918-1.944-1.76a16.994,16.994,0,0,0-1.836-1.623c-.72-.1-2.02,1.057-1.885,1.647a31.4,31.4,0,0,0,3.989,3.931c.461.3.683.3,1.087-.017Zm5.65-6.092a7.125,7.125,0,0,0-1.888-1.215c-3.553-1.933-3.614-1.946-4.725-1.041-.381.311-.692.664-.692.786a11.271,11.271,0,0,0,1.752,1.88c2.038,1.929,2.539,2.346,2.823,2.346C135.787,78.452,137.84,76.663,137.93,76.128Zm4.974-1.816a4.358,4.358,0,0,0,.7-2.714.875.875,0,0,0-1.035.058,7.843,7.843,0,0,0-.846,2.809c.106.276.8.147,1.184-.153Zm-38.818,77.547a5.41,5.41,0,0,0,1.953-1.28c1.023-.88,4.266-2.837,4.618-3.624.158-.448.043-1.09-.3-1.139-.257-.037-.312.16-2.468,1.715-1.454,1.049-4.009,2.924-4.394,3.321A.809.809,0,0,0,104.086,151.859Zm-.3,12.532c2.22-1.541,4.017-3.138,6.911-4.922a1.17,1.17,0,0,0,.121-1.093c-.168-.443-.4-.268-1.277.341-2.132,1.437-4.326,3.131-6.163,4.386-.59.4-1.086.621-.962.845.165.3,1.076.389,1.37.443Zm2.158.945c1.46-1.2,3.207-2.335,4.766-3.491a1.264,1.264,0,0,0,.051-1.254c-.177-.238-.031-.194-.462.051-.631.359-4.406,2.934-5.11,3.517-.41.339-.751.508-.649.627a3.568,3.568,0,0,0,1.405.55Zm1.835.926c.3-.2,2.9-1.862,3.105-2.083.239-.253.17-1.382-.062-1.471-.656.521-4.116,2.631-4.123,2.971a1.962,1.962,0,0,0,1.08.583Zm2.774.231c.4-.366.478-.428.487-.837.015-.742-.169-.71-1.225.045-.738.478-1.187.814-1.055,1.1.524.821,1.268.174,1.794-.308Zm.287,1.515c.207-.077.208-.183.178-.443-.033-.288-.075-.276-.389-.276C109.787,167.321,110.545,168.083,110.838,168.008Zm-10.1-4.151a7.789,7.789,0,0,1,1.789-3.2c3.49-3.095,2.424-6.905.219-10.007,2.852-4,5.7-8.227,8.15-12.1l-.009-6.305.33.034c-.114,13.759.513,36.32.513,36.32l2.836,2.164-.382.189c.466-.073-8.255-5.537-13.446-7.089Zm2.562-1.572c2.415-1.822,4.763-3.256,7.157-5.2.255-.21.405-.221.412-.7.014-.908-.167-.917-1.062-.277-.4.284-1.848,1.3-3.226,2.231a31.729,31.729,0,0,0-3.038,2.145c-1.347,1.563-1.845,2.3-1.706,2.523s.417-.02,1.463-.726Zm2.634-4.418c1.24-.817,4.208-2.879,4.478-3.133.47-.443.553-1.148.128-1.229a29.069,29.069,0,0,0-4.446,2.966c-.945.717-1.156.883-1.156,1.558C104.935,158.439,105.183,158.36,105.931,157.867Zm1.236-3.211c3.8-2.706,3.707-2.477,3.624-3.485-.028-.34-.1-.5-.255-.523a8.191,8.191,0,0,0-1.547.993c-.757.533-1.659,1.249-2.112,1.563-1.322.918-1.759,1.165-1.759,1.691s.139.846.369.846A12.447,12.447,0,0,0,107.167,154.656Zm-.545-2.095a44.668,44.668,0,0,0,3.945-2.967c.319-.4.262-1.28-.145-1.28-1.759,1.176-3.875,2.721-5.362,3.941-.192.17-.437.332-.514.554a.849.849,0,0,0,.489.676c.29,0,.735-.323,1.587-.924Zm-1.141-4.191c1.338-.907,2.554-1.984,3.883-2.9,1-.683,1.28-.9,1.221-1.754-.034-.5-.47-.211-2.16.916a9.192,9.192,0,0,0-2.248,1.718c-.309.713-1.325,1.382-1.379,2.2,0,.3.2.159.683-.179Zm4.107-5.45c1.027-.681,1.125-.7,1.013-1.6-.14-1.132-.256-1.065-1.237.436-.646.986-.867,1.272-.769,1.456.168.313.352.134.993-.29Zm-3.742-8.331c-.109-.5-.263-.4-.781.06-.951.836-1.1,1.441-.508,1.759.314.168.558.149.745-.264A4.761,4.761,0,0,0,105.846,134.589Zm-5.331,7.915A2.614,2.614,0,0,0,99.4,141.2c-.424-.219-.681-.178-1.086.337-.373.475-.2.757.361,1.467.411.52.578.686.9.686.392-.154,1.018-.682.936-1.182ZM79.884,162.352c-.272-.525-.849-1.079-1.113-.987a.986.986,0,0,0-.556.753,1.088,1.088,0,0,0,.885.875C79.731,162.9,80.114,162.794,79.884,162.352Zm2.516-.8a15.431,15.431,0,0,0-1.794-1.839c-.275,0-.93.689-.93.972a4.275,4.275,0,0,0,1.3,1.814C81.8,162.423,83.312,162.515,82.4,161.552Zm3.1.161a25.209,25.209,0,0,0-3.341-3.531c-.292,0-.868.641-.868.936a10.523,10.523,0,0,0,1.9,2.481c.454.475.495.543,1.051.456.607-.095,1.4.037,1.257-.342Zm5.4-.727c0-.656-.343-1.017-1.724-2.512-.5-.543-1.348-1.485-1.882-2.095-1.032-1.179-1.474-1.54-1.885-1.541a1.1,1.1,0,0,0-.823.862,61.775,61.775,0,0,0,4.844,5.607c.511.55.74.71,1.23.448.282-.192.24-.517.24-.769Zm-3.98-7.812c-.516.425-.709.6-.711.882,0,.432,4.384,5.256,4.775,5.256.23,0,.194-.032.33-.55.271-1.574-.156-2.036-1.293-3.075-.762-.7-2.3-3.093-3.1-2.513Zm7.738-3.227c-1.225-1.466-1.9-2.14-2.151-2.14a1.191,1.191,0,0,0-.7.469c-.457.433-.414.418-.124.933a7.488,7.488,0,0,0,.936,1.172c.675.7,1.02.918,1.346.584.287-.3,1-.645.693-1.018Zm-.64-3.657a1.132,1.132,0,0,0-.8.829,7.636,7.636,0,0,0,1.687,2.115c.56.5.824.637,1.214.306a1,1,0,0,0,.044-1.134c-.5-.566-1.58-2.091-2.144-2.116Zm3.442.359a5.535,5.535,0,0,0-1.657-2.22c-.33,0-1.03.769-1.03,1.123a2.772,2.772,0,0,0,.723,1.142c.894,1.039,1.124,1.268,1.318,1.105A1.676,1.676,0,0,0,97.469,146.649Zm1.415-1.836c.082-.358-.139-.727-.64-1.356-.626-.786-.933-.839-1.522-.23a.969.969,0,0,0-.32.53,5.632,5.632,0,0,0,1.557,1.969c.563-.069.735-.48.925-.913Zm-2.309,4.135a1.472,1.472,0,0,1-.864,1.141c-4.008,2.89-3.879,7.6-4.734,11.946-6.491-.065-16.751,2.6-16.687,2.739l34.49-34.817s.428.106.166.411c-2.791,2.008-2.617,5.912-4.453,7.867-3.067,3.71-5.917,6.927-7.918,10.713ZM77.854,163.169c.056-.394-.3-.5-.622-.184s-.187.553.254.5c.232-.026.34-.12.368-.317Zm10.63-1.463c.126-.331-.176-.641-2.024-2.694-1.872-2.078-2.3-2.564-2.62-2.564a1.616,1.616,0,0,0-.945.959,2.77,2.77,0,0,0,.654.936c.359.387,1.042,1.146,1.517,1.688a11.922,11.922,0,0,0,1.517,1.6,1.519,1.519,0,0,0,1.025.2C88.28,161.834,88.426,161.856,88.484,161.706Zm3.2-6.534a7.88,7.88,0,0,0,.309-.923,17.553,17.553,0,0,0-2.76-2.954c-.478-.309-1.377.7-1.153,1.291a15.073,15.073,0,0,0,1.562,1.838c1.013,1.078,1.52,1.586,1.685,1.561s.191-.28.357-.813Zm.988-2.532a1.8,1.8,0,0,0,.314-.746,4.339,4.339,0,0,0-.961-1.292c-1.054-1.186-1.324-1.323-1.9-.77s-.38.806.63,1.951c1.265,1.434,1.408,1.608,1.918.857Zm9.032-11.318c.393-.467.4-.7.042-1.126-.153-.182-.376-.447-.494-.589-.325-.389-.753-.324-1.2.18a1.444,1.444,0,0,0-.351.567,2.66,2.66,0,0,0,.5.739c.624.727,1.009.806,1.494.229Zm1.384-1.786c.267-.409.147-.857-.353-1.314-.474-.433-.709-.451-1.042-.081-.445.494-.373.66.105,1.189.54.6.974.688,1.29.206Zm1.109-1.482a.714.714,0,0,0,.031-1.108c-.31-.4-.631-.5-.958-.327-.568.3-.508.826.051,1.416.34.358.5.4.876.019ZM77.8,212.321c7.064.792,14.652,1.345,28.03-.735l.067-4.543c-4.173,3.256-9.65,1.024-9.966-2.724a38.91,38.91,0,0,1,1.606-9.941c.559-2.042.719-2.83.2-3.227-1.154-.651-3.2-.733-3.725-2.09-.251-.716-.275-1.482.092-.936a6.791,6.791,0,0,0,2.541,1.1c1.811.4,2.1.54,2.308,1.284a9.937,9.937,0,0,1-.646,3.556,19.788,19.788,0,0,0-.74,3.057c0,.354.277.412.588.314a13.433,13.433,0,0,0,1.172-1.039c1.741-1.553,2.246-1.507.759.013-.591.6-1.407,1.439-1.407,1.5,0,.322.3.285.97.044a7.665,7.665,0,0,1,4.516.212c1.334.671,1.391.642,1.36-1.392a46.563,46.563,0,0,0-2.1-11.807c-1.888-5.352-5.807-10.319-11.6-10.095-7.059.368-11.319,3.181-16.121,6.55,2.9,6.439-1.292,11.371-2.81,12.022-.147.063,1.9,6.546,2.775,9.839.794,2.992,2.13,9.033,2.13,9.033Zm30.05-155.308c-.164-.424-4.091-13.229-5.189-18.584-10.616-.618-18.466-1.5-27.814,1.155,0,0-.2,3.608-.105,3.783.095.446.417.435.68.289,4.317-2.374,9-1.3,9.321,4.55.124,2.236-.627,3.811-.763,5.932-.12,1.852-1.576,4.321-.693,5.727a5.265,5.265,0,0,0,1.585.878c1.585.68,2.206,1.3,2.322,2.34.173.716-.265,1.2-.4.462-.083-.467-.165-.878-2.122-1.548-1.907-.654-2.422-1.412-2.612-1.811a2.248,2.248,0,0,1,.033-1.817,20.73,20.73,0,0,0,.989-4.669c-.016-.323-.375-.166-.832.223a24.159,24.159,0,0,1-3.139,2.064,5.226,5.226,0,0,1,1.107-1.359,13.313,13.313,0,0,0,1.9-1.967c0-.318-.123-.1-.942.147A6.674,6.674,0,0,1,77,52.656c-.939-.413-1.6-.653-1.736-.427-.347,5.7.5,11.581,2.891,16.167,2.141,4.167,6.593,9.384,13.288,8.214,6.917-1.21,13.646-6.777,13.4-6.784-2.581-5.849.36-10.2,3.007-12.813ZM53.022,212.7c-3.064-3.071-10.79-6.412-16.1-7.946-.425-.092-.843-.294-.846.21l-.063,10.541-9.548,8.9v4.241H46.824l13.364-19.6s.645-.116.716-.236a93.2,93.2,0,0,0-8.494-22.9,4.479,4.479,0,0,1-6.377-.607c-1.684-1.889-.65-5.207.948-6.423a24.117,24.117,0,0,0-5.974-3.312c-.381-.093-.949.678-1.135,1.376-.335,1.134-.891,2.148-1.265,3.292-.41.955-.806,1.1-1.419.831-.954-.283-1.207-.382-1.207-.382l.031,12.392A26.118,26.118,0,0,1,53.023,212.7ZM83.468,80.267l2.17-2.359a60.838,60.838,0,0,1-11.244-2.359,37.048,37.048,0,0,0,9.074,4.718ZM71.542,73.632c3.827,1.277,8.669,4.254,14.716,3.133-5.512-2.188-9.7-7.3-11.481-17.708-.39,2.02-1.2,6.221-2.466,6.676-1.783-6.907-8.954-2.89-6.079,2.743-7.268,5-16.006,7.816-23.932,11.67,0,0-1.193,3.664-7.13,8.683-1.12-5.884.215-14.615-.48-20.527l-9.308-8.8a32.951,32.951,0,0,1,0,4.676,3.008,3.008,0,0,0,.967.734c.6,33.9-.207,67.409-.2,98.2-.093,18.869.406,38.529.13,56.344l-.348.645.015,4.258,9.5-9.056a80.964,80.964,0,0,1,.056-11.335c6,1.209,11.591,4.029,16.606,7.122.632.175-3.077-12.336-16.565-17.893,0,0-.018-3.909-.018-12.4,0-8.195-.128-9.063-.31-9.2-.546.594-7.448,2.921-7.8,2.527.185.062-1.946-14.506-.1-16.719l6.6.139c1.889,1.526,1.13-.332,2.226-.638.658-.177,3.712,1.014,3.712,1.014,12.585-14.866,11.327-39.312,2.3-53.067-2.314,1.88-4.774,4.428-7.094,5.522-.028-.08-.042-7.584-.042-7.584,12.025-7.724,25.1-30.1,24.27-30.172A59.47,59.47,0,0,1,64.457,78.3l-11.871,17.2c2.72,5.479,5.47,10.447,7.254,15.264.242.652.985.633,1.173,1.319.16.586-.555,1.4-.456,2.046,2.5,9.587,3.073,19.76.6,28.976-.521,2.074.434,3.756,1.71,5.316.1.136-1.19-1.121-1.3-1.191-.444-.267-1.184.669-1.34,1.85.1.723.5.85,1.015,1.437.916.762,4.555,4.348,6.158,5.986,1.424,1.455,1.792,1.52,2.751.489.271-.253.552-.6.814-.812.049.08.4-.29.525-.408L92.922,134.84c2.49-2.432-21.4,21.968-21.4,21.968S59.93,168.191,57.087,171c-2.936,2.9-3.332,3.532-3.449,3.748-.21.384.947.374,1.472.295a4.054,4.054,0,0,1-.93.108c-3.018-.409-4.046,2.664-5.948,3.336-5.033,3.576-1.649,9.32,3.16,7.423l1.171-.564a108.186,108.186,0,0,1,9.091,23.861l-.8.368L48.18,228.606h71.907c-5.165-5.145-9.559-11.463-14.033-16.191-7.172,2.146-28.856,1.709-28.513.776,0,0-3.284-13.3-5.14-19.835,5.9-5.053,5.291-13.022-3.267-16.6a32.1,32.1,0,0,1,18.615-6.99c1.986,5.048,6.649,5.365,8.85.744.015-.052,8.268,2.538,11.311,5.342-4.512-.467-8.968-1.366-13.483-1.582a16.632,16.632,0,0,1,9.317,10.362c.634,1.675,1.605,7.2,1.862,7.225,0,0,1.506-6.387,2.673-6.035,2.978,6.219,8.113,1.541,5.95-3.413,7.585-3.623,16.119-7.669,23.1-11.027,2.036-3.073,7.043-8.909,7.372-8.934,0,0,9.21-52.8,9.208-70.448-.306-21.219.37-44.839-.544-64.686v-5.65H133.956L120.07,42.052a2.228,2.228,0,0,0-.1.465A97.689,97.689,0,0,0,128.11,65.4c5.265-3.979,9.7,2.574,5.753,6.379-.741.714-.543.894.2,1.391s5.728,3.006,5.961,3.006c.9-1.343,1.166-3.328,1.775-4.843.153-.578.589-.649,1.46-.546,1.119.131,1.113.6,1.076-6.529l-.032-6.12c-6.751-3.112-15.689-11.022-16.106-19.249,3.9,2.842,12.872,6.973,15.267,7.343,1.052.294.89-1.54.923-2.277.285.191.388,3.026.388,3.026-3.962-1.2-6.038-.954-15.928-6.689,1.7,8.092,9.795,14.474,15.667,17.385,0,0,.245,3.843.233,8.148-.038,13.129.093,13.707.093,13.707a38.7,38.7,0,0,0,4.129-1.269c1.6-1.284,4.169-.3,4.525.646.521,4.955.02,9.549-.09,14.281-2.737.195-4.236.772-5.586.827-.878-.118-1.411-.123-1.86-.623-1.307-2.825-1.222-1.033-1.381,1.088-.12.628-3.392-.465-3.719-.654-14.129,16.277-12.926,35.015-3.329,52.369a60.142,60.142,0,0,1,7.044-4.455c.066,2.208.1,6.752.1,6.752-11.062,8.122-24.309,29.637-23.861,29.7l-4.494-5.369s2.829-4.5,3.826-5.69a8.06,8.06,0,0,0,.19-1.532l6.868-9.937c-2.929-6.632-6.947-11.728-7.981-18.206-4.582-20.714.383-31.018.016-31.8,0,0-.06-.415-.158-.5-.15-.124.039-.244.208-.54.327-.574.847-1.75.67-2.1-.132-.258-3.847-3.975-7.033-7.036-1.676-1.611-1.609-1.8-2.475-.916-.32.326-1.11,1.255-1.11,1.255-11.509,10.655-20.643,20.358-32.193,31.7l-.554-.5c16.8-16.711,33.758-33.255,50.4-50.128l-2.926.049a.747.747,0,0,1,.374-.467,9.177,9.177,0,0,0,4.349-1.138c2.373-1.764,5.78-4.126,6.046-6.453-.17-4.478-3.945-5.127-6.671-2.937a83.657,83.657,0,0,1-8.395-22.652c-.076-.379-.61-1.034-.69-1.468.812-2.54,13.68-20.086,13.68-20.086H60.5L74.25,38.121c0-.654,19.6-2.969,28.576-.234l5.467,19.431c-4.966,4.805-6.434,12.7,2.7,16.818.178.386-.866,1.019-.866,1.019.146-.237.4-.482.3-.7a20.15,20.15,0,0,1-5.1-3.8c-5.494,4.3-10.63,6.687-15.661,6.9,0,0,2.656,1.8,3.169,3.782,0,0-.246-.03-.311-.11-.545-.667-1.8-2.824-2.855-3.459a4.615,4.615,0,0,0-4.264.858l-1.913,1.849c-4.39-1.336-9.266-3.521-11.952-6.839Zm-.735,47.558,2-1.978a10.2,10.2,0,0,1,2.32-5.368c1.878-2.256,3.955-4.376,5.483-6.384,1.836-2.412,2.833-4.595,2.35-5.607,2.736-.493,5.248-2.91,5.328-7.3a18.334,18.334,0,0,1,1.227-5.618s19.1-.65,32.239-13.184c0,0,.92.2.7.367a45.692,45.692,0,0,1-16.531,11.01l-34.514,34.5Zm3.821-3.958c.516-.516.632-.686.34-.928-.445-.37-1.3.393-1.3,1.159,0,.488.386.345.962-.231Zm1.787-1.758c.41-.393.395-.679.056-1.019-.467-.466-1.145-.18-1.373.573s.672,1.064,1.317.446Zm1.572-1.592a1.958,1.958,0,0,0,.385-.548c0-.267-.659-.872-.949-.872a1.412,1.412,0,0,0-1.032.97c0,.291.664.888.987.888a1.267,1.267,0,0,0,.609-.438Zm1.483-2.964c-.47-.4-.779-.4-1.166-.011-.45.451-.4.946.134,1.418.408.426.583.385,1.135.044.464-.474.547-.916-.1-1.451Zm1.74-.264c.508-.427.436-.779-.118-1.333-.583-.583-1.032-.587-1.447.03a1.075,1.075,0,0,0-.184.531,2.683,2.683,0,0,0,1.214,1.082,1.068,1.068,0,0,0,.535-.31ZM82.884,109c.431-.45.376-.773-.243-1.41-.52-.536-.883-.578-1.341-.152-.474.44-.376.9.159,1.439S82.4,109.5,82.884,109Zm1.895-1.92c.317-.335.232-.308.008-.672a4.363,4.363,0,0,0-1.648-1.494c-.363,0-.68.581-.677,1.152s.28.8,1,1.367c.479.377.332.411.7.195a2.482,2.482,0,0,0,.618-.548Zm1.505-1.375c.678-.774.55-.923-1.09-2.651-.555-.586-.671-.653-1.068-.619-.377.031-.4.124-.6.522-.358.734-.093,1.107.938,2.2,1.061,1.13,1.218,1.226,1.817.544Zm1.68-1.806a1.139,1.139,0,0,0,.437-.668,6.611,6.611,0,0,0-1.8-2.046c-.336-.192-.686-.084-1.121.291-.261.225-.255.279-.193.527a7.577,7.577,0,0,0,2.09,2.2A1.092,1.092,0,0,0,87.964,103.9Zm1.666-1.617a1.732,1.732,0,0,0,.505-.788,7.1,7.1,0,0,0-1.873-2.213c-.376-.2-.595-.115-.966.406-.428.6-.261.876.588,1.855.8.928,1.063,1.209,1.213,1.209A2.367,2.367,0,0,0,89.63,102.282Zm1.574-1.694c.361-.219.833-.683.641-1.061a29.535,29.535,0,0,0-2.977-3.187c-.528-.283-.513.125-.513,1.44v.683l1.153,1.129c1.68,1.646,1.3,1.245,1.7,1Zm2.036-1.87a1.417,1.417,0,0,0,.385-.66c-1.04-1.267-4.063-5.272-4.609-5.124-.057.016-.08.018-.119.133a4.989,4.989,0,0,0-.1,1.9c.954.918,3.2,3.906,3.713,4.091.3.117.439-.055.726-.343Zm1.625-1.706a1.094,1.094,0,0,0,.347-.551,3.793,3.793,0,0,0-.694-.962c-.358-.422-1.057-1.275-1.555-1.9-2.848-3.555-3.055-3.821-3.49-3.46a1.587,1.587,0,0,0-.211,1.388,50.151,50.151,0,0,0,4.361,5.263C94.26,97.41,94.386,97.471,94.865,97.012ZM96.5,95.441a1.376,1.376,0,0,0,.442-.676,5.6,5.6,0,0,0-.94-1.286c-.48-.566-1.282-1.53-1.78-2.143-1.278-1.573-1.288-1.63-2.242-1.728-1.445-.149-1.252.17.385,2.082.4.463,1.145,1.376,1.663,2.03,1.214,1.531,1.75,2.095,1.99,2.095.106,0,.239-.144.482-.374ZM98.174,93.8c.741-.624.594-.828-1.815-3.318-.79-.816-.846-.946-1.46-.946s-.816.128-.816.427a38.986,38.986,0,0,0,3.367,4.008c.309.124.345.148.724-.171ZM99.929,92a1.3,1.3,0,0,0,.36-.608,4.59,4.59,0,0,0-1.32-1.694,1.9,1.9,0,0,0-.918-.534,2.056,2.056,0,0,0-1.233.428,9.349,9.349,0,0,0,1.77,2.245c.607.64.845.7,1.341.163Zm1.541-1.53c.388-.388.385-.743-.011-1.264-.288-.377-.375-.414-.966-.414-1.121,0-1.153.287-.286,1.215C100.852,90.7,101.03,90.915,101.47,90.474Zm1.65-1.624c.436-.555.064-.859-.652-.533a.67.67,0,0,0-.3.372c-.221.576.529.694.948.161ZM75.568,93.537c-1.593,1.007-4.271,2.917-6.092,4.193a5.754,5.754,0,0,0,0,1.514c1.032-.7,4.35-2.823,5.855-4.018.076-.448.186-1.238.236-1.689Zm2.923-4.626c-.054-.271-.232-.1-.7.3-.618.523-5.857,4.407-7.248,5.384a6.233,6.233,0,0,0-1.084.816,2.9,2.9,0,0,0,.1,1.444c1.135-.867,6.522-4.482,6.6-4.607.556-.889,1.8-2.44,2.337-3.336Zm-.6,11.707s-6.426,7.73-8.493,11.581c0,0-.013,4.405-.073,6.941l-.351.1s-.029-6.8-.116-14.177c-.217-18.438-.4-22.915-.4-22.915l-2.087-1.529-.087-.725s9.26,6.488,13.778,7.523c-3.3,5.176-6.353,7.173-2.173,13.2Zm-7.626,9.245c.129-.311.041-.3-.224-.284a.362.362,0,0,0-.314.386c-.011.225.01.279.185.245A.632.632,0,0,0,70.264,109.863Zm1.546-2.291c.924-1.14,1.689-1.878,1.826-2.717a18.612,18.612,0,0,0-4.055,2.743c.033,1.266-.256,1.418.785.86.456-.248.826-.554,1.444-.886Zm.291-2.824c.994-.826,4.618-2.777,5.033-3.738a.7.7,0,0,0-.437-.815c.065.058-5.189,3.209-7.106,4.861a.946.946,0,0,0-.013.877c.21.554.63.1,2.523-1.185Zm-1.206-1.52c1.081-.721,3.637-2.489,4.273-2.931,1.081-.752,1.3-1,.907-1.561a.524.524,0,0,0-.724-.2c-3.13,2.181-3.4,2.55-5.775,4.077a1.4,1.4,0,0,0,.127,1.3c.181.011.483-.211,1.193-.685Zm-.011-2.353a50.412,50.412,0,0,0,4.489-3.335c.112-.251.145-1.232-.041-1.337-1.061.807-3.9,2.544-5.835,4.117-.05.324-.11,1.049.047,1.206.394.162.511-.051,1.34-.651Zm-.34-7.449c2.075-1.541,3.992-2.881,6.153-4.325,1.83-1.217,2.136-1.487,1.434-1.851a1.619,1.619,0,0,0-1.041-.217c-2.433,1.965-5.136,3.845-7.714,5.755a8.426,8.426,0,0,0-.015,1.1c-.025.39.489.057,1.183-.458Zm-.286-2.2c.171-.15,1.257-.87,2.415-1.709,3.1-2.248,3.47-2.467,3.47-2.705,0-.653-.895-.792-1.711-.127-1.5,1.219-5.07,3.442-5.078,3.757-.013.464-.091.922.044,1.126.172.258.423.042.86-.342Zm.9-3.045c3.159-2.205,3.034-2.1,3.034-2.5,0-.345-.308-.191-.791-.226-.455-.033-.464.095-1.33.75-1.844,1.394-2.518,1.775-2.712,2.187-.06.129-.1.641.009.753C69.586,89.372,69.843,89.1,71.154,88.183Zm.209-2.193a9.921,9.921,0,0,0,1.156-1c.09-.235-.377-.654-.729-.654-.381,0-.678.2-1.623,1.011-.833.718-1,.568-.937.973a4.133,4.133,0,0,0,.121.848c.2.244.633-.029,2.012-1.177Zm-1.279-1.424c.668-.562.808-.678.321-1.165-.441-.441-.954-.551-1.225-.28a6.518,6.518,0,0,0-.02,1.594c-.027.373.469.235.925-.149Zm14.3-12.132a3.733,3.733,0,0,1,2.034-1.286,5.628,5.628,0,0,1,3.483.369c.841.42,1.754,1.431.4.815a8.139,8.139,0,0,0-4.867-.113c-.715.363-1.052.456-1.052.215Zm-.864-4.26a8.115,8.115,0,0,1,1.892.378,8.59,8.59,0,0,0,4.922-.332c.421-.122.632.17.371.384a6.8,6.8,0,0,1-3.118,1.1c-2.247.21-4.665-.938-4.067-1.526ZM72.506,64.855c.959-.47,2.13-7.052,1.753-8.185-1.174,1.8-2.491,2.6-4.365,2.289-3.07-.509-3.184-4.29-.812-4.67.947-.152,2.107.472,2.3.326,1.011-.475,1.8-3.873,2.05-4.973.181-1.078.448-4.067.489-5.018.085-2.023.008-5.006.008-5.006L58.987,21.664H26.469s-.078,24.979,0,37.794l9.037,8.9.118,14.38C45.975,78.215,56,73.467,65.8,68.332c-1.138-1.36-1.105-4.787.969-6.084a3.656,3.656,0,0,1,5.737,2.607Zm8.2,3.048c.069-.811.672-1.478.714-2.3,0-.184.149-.4.635-.138.636.338.83.1,1.548-.231a2.561,2.561,0,0,1,2.62-.181,1.166,1.166,0,0,0,1.424.03,2.75,2.75,0,0,1,2.4-.462c1.068.372,1.44.578,2.049.283.307-.149.691-.706.758-.664.439.652.35,1.678.631,2.255.5.98.3,1.682-.282,1.2-1.229-1.013-2.185-1.038-3.947-.6a6.181,6.181,0,0,1-2.693.318c-3.54-.419-3.78-.313-4.5.168-.7.468-1.236.515-1.353.325Zm9.5-6.421c-1.022-.256-2.191-1.185-3.037-.936a1.2,1.2,0,0,1-1.1-1.835c.916-.892,2.338.007,2.891.426,1.2.912,1.37.984,1.855.984,1.991-.039,1.61-1.9.648-2.58-.571-.6-.628-.987-.506-1.133.2-.238.765-.038,1.387.618,1.192,1.12,1.221,3.353-.242,4.027a2.358,2.358,0,0,1-1.893.429Zm4.155-6.452a23.352,23.352,0,0,1-3.006-2.716,2.874,2.874,0,0,1-.929-2.217c.07-.567.157-.905-.207-1.092a1.836,1.836,0,0,1-.683-1.506c.021-.125.457-.05.721.28.335.054.265-.145.628-.386,3.786-2.542,6.824-2.052,10.416-.3,1.042.5,3.763,2.566,2.305,1.9-.086-.04-1.041-.454-2-.94-3.115-1.492-6.585-2.4-9.411-.478-.486.341-.78.6-.4.6,1.589-.31,3.159-.971,4.791-.868,2.432.032,3.9,1.233,5.728,2.063,1.98.885,2.362,1.188,1.64,1.919-.2.225-.367.219-1.323.145-1.028-.079-1.113-.049-1.692.322A8.751,8.751,0,0,1,95.7,53.105c-2.06-.173-2.281-.338-2.324-.041-.027.189.416.518,1.026,1.077a14.106,14.106,0,0,1,1.141,1.145C95.718,55.59,94.933,55.441,94.366,55.03Zm-.578-3.3a4.5,4.5,0,0,0-.73-1.58c-.26-.263-.464-.16-1.018.23-.416.294-.461.525-.077.866C92.777,51.97,93.8,52.151,93.788,51.73Zm3.1.146c.832-.4,1.679-1.831,1.294-2.295-.229-.275-.427-.014-.864.761a4.044,4.044,0,0,1-.722.948c-.68.476-1.577.032-1.955-1.019-.227-.635-.467-1.038-.733-.8-.479.435.064,2,1.017,2.409a2.554,2.554,0,0,0,1.963-.007Zm2.588-.235c.843-.26,1.246-.64,1.175-1.008-.058-.3-.666-.665-1.078-.665-.185,0-.547-.008-.677.165a8.139,8.139,0,0,0-.763,1.668c.1.256.383.137,1.342-.16Zm2.915-6.291c-4.207-1.61-7.53-2.256-11.531-.549-1.282.557-2.013.615-2.077.161-.055-.383.868-1.518,1.865-2.042a10.673,10.673,0,0,1,8.957-.049,22.919,22.919,0,0,1,4,2.8c0,.209-.267.046-1.212-.323Zm49.242,47.171c1-.529,1.463-1.568.849-2.182a.846.846,0,0,0-.64-.179,19.988,19.988,0,0,0-3.493.979c-.333.179-.212.49.106.777a1.148,1.148,0,0,1,.278.729c.03.4-.05.762.215.7a11.693,11.693,0,0,0,2.685-.824Zm-3.741.965a1.22,1.22,0,0,0-.585-1.671c-.392-.2-.7-.094-1.015.355-.745,1.36,1.106,1.944,1.6,1.316Zm-3.755.638c.161-1.738.083-6.872.083-6.872a3.773,3.773,0,0,1-1.524.817,10.839,10.839,0,0,1,.786-1.763,11.893,11.893,0,0,0,.246-2.946c-.059-.863-.667-.887-.04-2.438a3.221,3.221,0,0,0-.038-2.608,1.157,1.157,0,0,1,.23-1.377c.433-.571.262-.856.253-2.046-.011-1.649,0-1.917-.5-.587-.745,1.1-1.088.891-2.223.758-1.1,2.463-2.382,5.045-2.433,7.168-.032,1.331-.049,1.538.781,4.336a7.494,7.494,0,0,1,.433,2.649,7.485,7.485,0,0,0,.29,2.29c.325,1.181,1.648,3.135,3.657,2.619Zm-38.2,110.757.008-2.476s-3.958,1.222-5.967.47c-2.068-.56-2.062-.662-2.021-.438.073.4,1.608,1.211,3.029,1.544a10.248,10.248,0,0,0,3.983-.293c.557-.166.616-.01.393.161-2.426,1.9-5.5,1.024-7.438-.552-1.033-1.012-1.725-1.018-1.168.342,2.656,5.386,9.25,2.209,9.184,1.242Zm-2.672-3.68.9.018a5.371,5.371,0,0,0-.742-2.028,2.141,2.141,0,0,0-3.159.127,5.917,5.917,0,0,0-.691,1.911l.724.015c.268-.695,1.41-3.958,2.969-.043Zm-3.6-2.373a3.91,3.91,0,0,0-2.18.725c-.2.224-.2.256.037.574.525.691,1.326,1.021,1.383.763A8.335,8.335,0,0,0,99.668,198.828Zm5.948,1.745a1.656,1.656,0,0,0-1.046-1.6c-.306-.076-.609-.138-.519.2a9.333,9.333,0,0,0,.509,1.413c.144.311.236.468.538.35.238-.079.437-.153.518-.367ZM144.24,167.75l.008-4.194a55.36,55.36,0,0,0-5.72,7.1ZM79.6,52.172c.9-.385,1.555-1.557,1.328-2.15-.141-.367-.514-.073-.89.472-.606.876-.759.971-1.292.971-.567,0-.792-.146-1.18-.908-.268-.722-.458-.835-.708-.52-.117.142-.108.345.045.87A1.8,1.8,0,0,0,79.6,52.172Zm2.444-.434c.994-.342,1.2-.451,1.15-.783-.05-.347-.841-.81-1.289-.724A4.361,4.361,0,0,0,80.787,52C80.9,52.181,81.234,52.016,82.042,51.738Zm-5.736-.58a1.822,1.822,0,0,0-.162-.71.578.578,0,0,0-.993.376c0,.371.529.792.957.792C76.409,51.616,76.366,51.689,76.306,51.158Zm5.62-2.507c1.414.532,2.132.592,1.362-.132-1.058-1.174-5.907-2.515-8.509-.6-.185.265-.147,1.277.056,1.221a7.769,7.769,0,0,1,7.091-.49ZM77.083,44.6c-1.189.4-2.3,1.018-2.448,1.6-.23.933.187.943,1.741.453a7.479,7.479,0,0,1,5.949.628c1.3.943,1.679.631,1.46-.161-.724-2.623-4.775-3.095-6.7-2.517Z" fill="#131f67"/><path id="f18e6390-4073-4aa2-918c-cdb21936800d" data-name="path6265-7" d="M153.388,27.761l-8.743,8.668.123,10.259c.878,1.612-13.494-4.6-15.762-6.476.263,6.853,9.61,14.661,15.687,17.518l.167,21.936a23.656,23.656,0,0,1,7.82-2.266c1.193-14.917,2.211-34.325.708-49.639ZM104.761,38.5c-.851.014-1.362.245-1.35.794-.257-.043,3.23,12.808,4.817,18.175-3.089,3.123-6.313,8.549-1.7,13.571a22.144,22.144,0,0,0,4.5,3.009c.765.742-9.382,7.288-18.414,7.291-2.895-6.353-6.94-2.84-9.171-.624-1.742-.153-8.246-4.029-11.573-6.249a6.7,6.7,0,0,1-.012-1.123c.231,1.514,13.034,4.782,13.613,3.264-.37,0-5.744-3.637-7.287-7.225a70.215,70.215,0,0,1-3.548-9.607c-.716,2.056-.471,4.905-2.445,5.925-.591-6.691-10.139-3.279-5.387,3.264-2.67.784-4.953,2.166-7.545,3.318a44.418,44.418,0,0,0,20.771,15.19C79,89.688,72.856,94.677,77.9,100.558c.227.181-4.819,5.69-7.3,10-1.869,3.243-1.3,5.731-1.092,5.812a103.794,103.794,0,0,0,10.68-14.474c-.058.912,8.115.419,7.979-6.946a20.927,20.927,0,0,1,1.3-5.986c12.472.587,23.2-3.859,32.259-13.2,0,0,1.846.527,3.01.709a9.1,9.1,0,0,0,6.516-3.176c1.357-1.1,2.711-2.159,3.193-3.291,1.784-7.665-6.053-4.67-6.421-4.261-4.476-6.089-8.262-23.393-8.871-23.528-2.5-.5-11.054-3.778-14.395-3.721ZM74.038,50.253c-.334.023-1.534,5.378-2.6,5.336-4.5-2.9-4.6,3.1-.727,2.83,3.27-.23,5.1-5.511,3.339-8.162l-.015,0ZM25.922,60.44c.149,32.56.735,65.108,1.5,97.657,2.941-.727,5.079-1.281,7.963-.02.271-9.253-.542-32.6-.348-55.215,10.992-8.553,18.711-17.987,24.134-30.318L42.386,80.408S36.9,88.275,35.15,88.78c-.249-1.12-.529-14.436-.3-20.146ZM63.211,80.579l-3.3,4.774s.077,16.4.267,24.3c.137,1.573,1.565,3.016.422,4.426.7,0,3.745,21.272.848,29.9-.519,1.545-.033,2.636.777,2.99,4.137,4.584,6.409,8.979,11.86,6.381,5.949-5.445,14.4-14.985,14.4-14.985l-22.338-21.13c-1.916-5.125-2.937-36.648-2.937-36.648Zm81.409,68.38c-10.142,9.07-19.414,18.377-23.211,29.689,5.422-2.182,10.584-4.847,15.859-7.3,2.556-3.073,4.522-6.04,7.449-8.964,0,0,.316,13.341.058,20.034,2.64,1.964,8.907,8.1,8.907,8.1s1.731-94.786-2-97.192c-3.627.7-5.448,2.029-6.8-2.18-.957,19.3-.257,57.814-.257,57.814ZM109.5,95.613c-3.9,3.191-17.313,16.356-17.285,16.492,3.557,5.968,17.6,17.926,24.339,24.61l.975,34.055c.991-1.333,1.711-2.589,2.786-3.923,0,0-.175-17.243-.592-25.327-.123-2.39-.671-4.274-.5-4.491-1.9-9.812-2.681-20.651,0-31.171-6.361-5.482-8.382-9.127-9.725-10.245Zm1.045,38.9a.078.078,0,0,0-.032.024c-3.292,4.692-9.589,14.88-10.041,14.856-.133-.3-6.506-.02-7.711,3.993-1.012,2.986-1.089,5.736-1.827,8.816-12.788-.418-22.149,3.628-32.008,12.72-4.831-.031-8.419,1.086-10.095,3.124-2.5,1.815-3.18,3.363-3.057,5.259.223,3.434,6.287,3.922,6.6,1.5.308,0,5.935,12.863,6.482,15.054,1.327,3.543,2.748,10.173,2.917,10.184,2.266.145,14.983,3.714,15.029,2.42,1.2-.515-4.423-18.92-4.423-18.92,9.825-8.248-1.006-17.062-3.552-16.739a35.91,35.91,0,0,1,19.092-7.022c1.1,3.936,6.175,5.959,8.733.727,0,0,11,3.941,10.958,5.247-4.531-.684-8.255-1.041-12.792-1.475,8.692,4.721,8.959,10.943,10.734,17.137a63.645,63.645,0,0,1,2.534-5.889c2.948,6.542,8.555,2,6.242-3.28l6.976-3.237c.8-.408-10.428-13.05-20.643-14.841.514-.941.718-1.827,1.25-2.594,2.561-2.515,4.546-6.2.63-10.6,2.585-3.614,8.579-12.339,8.2-12.5,0,0,.116-4.078-.194-3.969ZM26.55,174.721c-.1,0-.28,30.255-.068,45.274a28.008,28.008,0,0,0-.414,3.945l9.3-8.743.279-11.3c2.429-.582,17.568,7.108,16.356,7.066,1.156-.487-6.988-15.876-16.487-17.583-.177-8.718-.266-18.588-.515-21.241A69.926,69.926,0,0,0,26.55,174.721Zm82.587,18.2c-2.605.777-3.691,6.255-2.848,8.913.156.492.058.6.472.116,1.015-1.491.7-4.46,2.489-6.029C113.985,197.352,113.516,191.19,109.137,192.922Z" fill="#e2cf00"/><path id="05aec671-5219-4a96-bbf5-61c79a11111f" data-name="path6267-4" d="M48.873,228.606l12.314-18.615c14.7,4.917,29.71,5.006,44.878,2.58l13.556,16.035h-5.543l-8.532-12.192c-3.092.715-6.305,1.027-9.507,1.467l3.993,10.725H95.686L92.549,218a100.628,100.628,0,0,1-17.48-.969l-1.841,11.578H68.806l2.985-11.955a86.475,86.475,0,0,1-9.9-2.144l-9.04,14.1Zm14.1-10.955,5.112,1.385-2.5,9.57H56.238Zm13.2,10.955,1.445-8.454a66.337,66.337,0,0,0,12.636.766l2.222,7.688Zm24.2-7.838,4.033-1.069,6.045,8.907h-7.348ZM41.545,166.974c19.671-22.893,17.054-46.925,6.187-66.309l2.311-2.378c12.566,20.663,15.24,50.043-7.918,72.812C41.881,169.726,41.545,166.974,41.545,166.974ZM119.984,141.3c2.826,4.813,4.554,9.686,7.54,14.526l-7.085,9.581ZM35.355,156.462c-.183-15.106.046-45.711.046-45.711l6.636-5.08c7.941,9.646,12.275,35.07-1.986,51.991-1.037-.756-3.861-.441-4.7-1.2Zm94.229-3.048c-18.2-30.723-8.858-53.165,8.685-73.058.051,1.533.078,3.1.217,4.625-15.062,17.256-21.085,42.778-6.318,65.867Zm-32.962-4.463,8.29-11.3s1.572-4.5,2.895-5.824l1.52-1.346c.507.489,1.547,1.519,1.547,1.519l-.92,3.486q-4.6,7.094-9.694,14.186S97.318,149.152,96.622,148.951Zm44.094-54.864c.262-.3,3.552,1.077,3.552,1.077l.211,46.449-6.588,4.236c-1.911.971-16.848-29.512,2.825-51.762Zm-69.4,19.566c3-4.088,6.159-7.628,9.066-11.383a13.772,13.772,0,0,0,2.726.3c.209.112-.664,3.115-2.815,5.185-5.9,7.066-7.244,8.375-7.46,11.289-.069.937-2.151,2.014-2.151,2.014l-1.5-1.58a19.448,19.448,0,0,1,2.132-5.828ZM52.607,95.836l6.776-8.869.484,23.068ZM74.213,38.081,61.143,21.734h6.329L75.255,33.3l9.322-1.065-3.28-10.5h3.862l2.728,10.335c5.718.135,11.307.58,16.733,1.124l2.789-11.459h3.934l-3.57,11.992L118.3,36.491l9.38-14.757h4.661l-13.3,19.052c-17.379-5.223-31.339-4.625-44.833-2.7Zm37.68-6.842,2.978-9.515,8.907.01L116.961,32.6ZM90.336,28.924l-1.882-7.19h15.7l-2.028,8.039a70.225,70.225,0,0,0-11.794-.849Zm-18.825-7.19h6.268l2.442,7.441-3.616.409Z" fill="#d40000"/><path id="cb5d5daf-0596-4cb3-8463-8f57b854593c" data-name="path6269-8" d="M59.1,20.681,74.23,38.8c3.153-1.129,19.046-2.944,28.581-.767,1.661,6.513,3.419,13.09,5.278,19.019,0,0-.6.7-1.026,1.139-6.088,7.021-1.779,13.8,3.793,16.015-1,2.088-11.682,7.287-18.184,6.669.011-.065-2-4.772-6.066-3.181-1.391.544-1.965,1.591-3.042,2.614-3.884-1.172-9.013-3.728-11.679-6.537,4.989,2.485,9.9,3.823,14.834,3.164a6.7,6.7,0,0,0-1.3-.828,21.939,21.939,0,0,1-2.233-1.344,15.36,15.36,0,0,1-5.386-6.6c-1.808-3.23-2.1-6.705-3.093-9.77-.524,1.571-.75,5.719-2.119,6.58-.355.232-.42.162-.685-.717-1.045-3.19-4.871-2.786-6.133-.515a5.188,5.188,0,0,0,.261,4.624l-2.32,1.289v.383l-1.428.682-.3-.2c-6.637,3.208-13.143,6.547-19.915,9.619,0,0-3.6,5.971-6.888,8.347l-.128-20.277L25.3,59.4l-.046,4.824s.467.49.7.736c.133,33.945.022,67.338.042,98.156l.045,28.369-.595.035-.03,3.309.671.15-.095,4.673-.348.023-.05,2.958.531.084-.009,16.7-.527.677.012,4.767,10.177-9.676.227-11c8.027,1.516,16.418,7.288,16.418,7.288-1.413-9.217-11.176-16.813-16.784-18.33l.017-21.84A35.793,35.793,0,0,1,29.43,173.3c-1.02.145-1.412-.01-1.9-.747-.355-.537-.363-1.027-.042-2.138a1.44,1.44,0,0,0-.043-1.177,3.556,3.556,0,0,1-.008-2.358,2.22,2.22,0,0,0-.131-1.87c-.3-.754-.327-.894-.2-1.328.341-1.144.361-1.329.182-1.839a2.885,2.885,0,0,1-.038-2.366c1.5-2.52,4.864-1.9,6.69-1.808.925,1.03,1.478,1.6,1.563.112.648-1.782,3.16.042,4.333.8,9.986-13.39,14.912-31.517,2.385-54.206l-6.969,5.58.016-6.985c9.24-5.942,19.637-19.453,24.139-30.106,1.5,1.756,3.216,3.481,4.836,5.251l-1.059,1.773-.312-.177A127.816,127.816,0,0,1,52.1,95.431a156.485,156.485,0,0,1,7.63,16.2l.571-.257.511,1.645-1.008.3c3.41,11.191,3.521,21.554.956,31.11l.6,2.539s3.607,3.5,4.581,4.525c2.541,2.462,5.374,5.212,5.374,5.212l3.293-3.226-.191-.274,28.864-28.677,1.8,1.722C87.4,144.068,56.7,174.828,56.7,174.828l-1.064.154a11.168,11.168,0,0,1-2.07.089,2.579,2.579,0,0,0-1.807.314,7.277,7.277,0,0,0-2.488,2.126,2.539,2.539,0,0,1-1.2.906c-6.018,3.591-.577,10.822,4.542,7.016a95.343,95.343,0,0,1,8.68,23.79,3.257,3.257,0,0,1-.673.29L47.126,229.528h5.189l.541-.922H48.968l12.409-17.935a100.7,100.7,0,0,0,44.982,2.354l12.8,15.581h-5.077l.724.922,6.57.1-15.045-17.767c-5.387,1.441-19.6,2.6-28.509,1.09-1.364-6.625-3.612-13.826-5.275-19.557,8.507-6.663,2.12-15.458-3.129-16.684-.255-.482,10.645-7.113,18.41-6.653,2.224,5.344,7.093,4.553,8.84.576,3.221,1.183,7.4,2.365,10.717,5a73.129,73.129,0,0,0-13.769-1.565c8.025,3.113,10.277,9.674,11.265,15.863a13.463,13.463,0,0,0,.723,2.351,22.106,22.106,0,0,1,2.589-6.455c.618,2.188,2.9,3.888,5.193,2.586,1.332-.965,1.8-2.623,1.374-4.913-.118-.637-.177-.986-.177-.986l1.783-.966.233.2s1.953-.835,2.924-1.307c.152-.074-.179-.378-.179-.378l18.029-8.508a69.663,69.663,0,0,1,7.194-8.771c.08,7.552.061,10.655.057,19.622l1.018.995c.9.882,2.872,2.712,7.309,6.791a14.478,14.478,0,0,0,1.7,1.373L154.511,59.5h-.148V56.96l.208-.011V50.341l-.186-.109V48.15l.247-.182.017-17.839-.286-.049-.018-4.279L144.3,36.437l.076,10.029c-4.485-.58-10.033-3.452-13.852-5.769-1.235-.753-1.923-.954-1.885-.523.537,5.972,9.176,15.1,15.815,17.494l.011,22.464c0,.012,1.568-.783,2.525-1.186l.144.4,2.14-.886.173-.462,1.856-.235c.02.379.084.327.084.327,1.653.463,2.385,1.591,1.719,2.858-.233.424-.278,1.026-.085,1.184.716,1.132.9,2.128.038,3.2a1.145,1.145,0,0,0,.011,1.436c.894,1.8.386,1.686-.286,2.761-.152.813.738,1.342.445,2.106A3.078,3.078,0,0,1,152.2,93c-.422.307-.77-.263-.77-.263a14.076,14.076,0,0,1-2.3.759c-.947.307-2.577.858-3.142-.418-.323-.731-.063-1.4-.085-2.215l-1.389-.151-.05,3.709c-.795.423-3.955-1.192-3.955-1.192-13.558,17.584-13.178,37.087-3.123,53.426.1.262,7.085-4.782,7.085-4.782s-.014,4.135.047,6.377a92.518,92.518,0,0,0-23.6,29.435l-3.8-4.507a2.719,2.719,0,0,0,.666-2.187l2.759-4.116.023-1.069,7.174-10.027c.112.6-7.4-13.462-8.4-18.04l.5-.135c-3.373-12.766-2.681-21.706-.245-32.119l-.7-.671-9.465-9.458q-1.152,1.065-2.3,2.139c-.117.11-.694.045-.812.155-4.981,4.673-9.769,9.364-14.508,14.237-.123.126.084.646-.039.772-4.747,4.892-9.669,9.536-14.473,14.42L75.542,125.4c17.012-17.018,49.06-48.629,49.06-48.629a.513.513,0,0,1,.36-.259,10.456,10.456,0,0,0,2.57-.492c1.056-.245,1.226-.323,1.671-.782a9.6,9.6,0,0,1,.991-.875q.7-.512,3.184-2.679A4.524,4.524,0,0,0,135,68.366a4.012,4.012,0,0,0-3.134-4.038,5.222,5.222,0,0,0-2.864.759c-.548.37-.806.539-1.041.374-3.472-7.046-6.851-15.908-8.284-23.219-.077-.461-.035-.6.341-1.177.233-.361.742-1.156,1.133-1.77,4.332-6.748,8.762-12.4,12.553-18.614h-5.354l-.66,1.053h4.406L118.984,40.612c-24.154-7.9-43.948-2.893-44.423-2.785L61.5,21.734h5.971l-.723-1.053Zm11.755,0,.665,1.053H77.78l-.356-1.053ZM81.3,21.734h3.862l-.222-1.053H80.976Zm6.911-1.053.245,1.053h15.7l.279-1.053Zm19.2,1.053h3.934l.3-1.053h-3.957Zm7.786-1.053-.337,1.053h8.92l.668-1.053Zm38.147,7.285.139,2.926-6.431,6.783.008,9.469-1.872-.434-.075-9.787Zm-1.8,6.238c.055,2.9-.414,5.681.353,8.638a25.088,25.088,0,0,1,1.238,4.883l-2.122-.05c-.268-.869-.373-1.827-.691-2.9a16.8,16.8,0,0,1-.84-8.209Zm-46.3,4.73c.077.144.331,1.37.565,2.506a109.607,109.607,0,0,0,4.129,15.581c1.934,5.937,4.8,13.411,7.583,16.875.37.431.551.924.418,1.138-.224.363-1.361-.144-2.124-.949a12.3,12.3,0,0,1-1.354-2.079c-.973-1.823-2.281-4.475-2.411-4.894-.053-.17-.566-1.481-1.141-2.912a73.877,73.877,0,0,1-2.446-7c-.667-2.209-1.282-4.52-2.027-6.846a84.32,84.32,0,0,1-2.6-10.331,5.185,5.185,0,0,1-.207-1.236A1.553,1.553,0,0,1,105.241,38.934Zm.681.237c-.121-.1,1.105-.119,1.5.21a6.321,6.321,0,0,1,.5,1.788,128.829,128.829,0,0,0,4.717,17.293,66.3,66.3,0,0,0,5.352,12.313,25.076,25.076,0,0,0,2.7,3.76c.639.754.691.86.519,1.068-.211.255-.58.222-1.292-.116a5.822,5.822,0,0,1-2.059-1.982c-.231-.334-.582-.836-.782-1.115A80.225,80.225,0,0,1,110.364,56.7a115.5,115.5,0,0,1-4.4-16.913q-.018-.309-.038-.62Zm3.907.809A4.178,4.178,0,0,1,110.5,41.9c1.3,5.323,2.356,10.078,3.885,14.447.823,2.35,1.536,4.7,2.419,6.911a37.744,37.744,0,0,0,5.254,9.44,12.529,12.529,0,0,0,3.034,2.606c.739.439.85.551.8.806-.065.228-.785.323-1.021.306a6.768,6.768,0,0,1-3.382-1.774c-3.566-3.855-6.116-10.165-7.973-15.342-3.191-8.913-5.765-20.046-5.276-19.7-.032-.259,1.277.038,1.593.383Zm1.533.322a1.59,1.59,0,0,1,.391.062c.666.182.753.275.913,1.011,1.14,5.089,2.348,9.577,3.7,13.846a79.466,79.466,0,0,0,4.98,12.739,14.094,14.094,0,0,0,5.847,6.4,13.773,13.773,0,0,1,1.25.674c.057.057.041.22-.035.364-.116.217-.249.261-.786.252a4.714,4.714,0,0,1-2.763-1.046c-2.8-1.934-5.252-6.313-6.334-8.8a99.525,99.525,0,0,1-3.625-9.614,108.174,108.174,0,0,1-4.083-15.438c0-.3.2-.459.55-.453Zm42,8.317-.019,1.8c-7.057.468-14.292-2.518-20.108-5.2,4.381,5.815,9.057,10.975,20.107,12.04l.02,1.863c-14.392-.2-24.529-14.789-23.995-18.424,5.919,3.827,16.613,8.252,23.995,7.92Zm-39.72-7.639a1.781,1.781,0,0,1,.995.344c1.176,4.394,2.033,9.272,3.977,14.168,2.39,6.016,3.715,11.326,8.146,16.282,1.377,1.417,4.078,1.374,4.078,1.374s-.341.767-.8.9a4.918,4.918,0,0,1-2.33-.037c-2.566-1.085-4.527-3.828-5.54-5.686-.949-1.393-3.265-7.132-5.174-12.983-2.078-6.37-3.79-12.993-3.595-14.326a.518.518,0,0,1,.244-.031Zm2.372.739a1.662,1.662,0,0,1,.666.194c.289.138.414.223.565.766.1.355.081.9.255,1.793a81.492,81.492,0,0,0,3.75,11.942,72.433,72.433,0,0,0,4.418,9.893,21.354,21.354,0,0,0,2.276,3.527c1.482,1.484,4,1.557,4.74.085a2.491,2.491,0,0,0-.487-2.849c-.631-.6-2.06-.348-2.1.379,0,.193.355.107.87.046,1.439-.166,1.889,2.382.039,2.807-2.342.539-3.968-2.63-1.9-4.572,3.5-2.378,6.179.871,5.351,4a4.257,4.257,0,0,1-3.912,2.853c-2.285.074-3.231-.633-5.575-4.042-2.687-4.316-3.853-8.527-5.746-13.246a57.647,57.647,0,0,1-3.545-13.378.319.319,0,0,1,.333-.194Zm2.223.737a1.511,1.511,0,0,1,1.114.464c3.151,11.507,5.779,18.4,8.454,23.264a3.505,3.505,0,0,1-.221,1.149c-.319.455-.475.343-.89-.376-1.683-3.26-3.285-6.86-4.779-10.571A61.6,61.6,0,0,1,117.936,43.2c.035-.554-.089-.709.3-.742Zm21.257,6.577a.808.808,0,1,1-.809.806A.807.807,0,0,1,139.493,49.033Zm-65.478-.147c-.935,1.273-1.7,5.834-2.673,5.89-1.069-.017-2.37-.631-3.209.337-1.019,1.175-.394,2.474.863,3.19a4.369,4.369,0,0,0,2.554.139c3.058-1.026,4.219-5.99,2.465-9.556Zm68.535,1.2a1.168,1.168,0,1,1-1.165,1.169A1.167,1.167,0,0,1,142.55,50.083Zm-68.481.553a6.687,6.687,0,0,1-1.385,6.835,3.231,3.231,0,0,1-4.063.151,1.54,1.54,0,0,1,1.145-2.653,2.354,2.354,0,0,1,1.571,1.046c1.063.109,2.287-5.283,2.732-5.378Zm72.544.643A1.317,1.317,0,1,1,145.3,52.6,1.316,1.316,0,0,1,146.613,51.279Zm4.658.93a1.344,1.344,0,1,1-1.342,1.343A1.343,1.343,0,0,1,151.271,52.209Zm-43.356,6.11c.2,0,.34.191.472.576.273.8.266.9-.159,1.433-4.13,5.72-.365,11.57,5.618,12.2.5.036.759.6,1.026,1.266-.037.313-.039.312-1.4.337a8.059,8.059,0,0,1-2.043-.159,10.931,10.931,0,0,1-5.715-4.217c-1.21-2.024-1.412-4.116-.666-6.907a8.466,8.466,0,0,1,2.028-3.95C107.454,58.514,107.714,58.32,107.915,58.319Zm39.15.635.07,19.627-2.09.763.086-20.874Zm3.954.757q3.9,9.7.367,17.786l-2.373.344c3.256-7.6,1.871-13.036.031-18.286ZM26.177,60.789l8.451,7.98.294,88.905-1.346-.476-.538-87.446-6.861-6.295Zm82.527.255c.014,0,.029,0,.042,0,.227.028.433.313.623.852a1.248,1.248,0,0,1-.031,1.286c-1.16,2.844-.213,5.55,2.651,6.4.679.215.793.326,1.192,1.169.259.549.375.747.274.868-.148.108-.512.159-1.59-.074A6.868,6.868,0,0,1,108,61.734c.241-.423.463-.653.665-.685a.212.212,0,0,1,.042,0Zm-33.927-.352a22.224,22.224,0,0,1,.8,3.86c-.226,1.38-2.184,3.583-3.9,4.387-1.588.609-3.988.3-4.991-.755-3.647-4.27,3.157-8.558,4.868-4.112,1.027,2.918-3.154,3.608-3.34,1.367,0-.578.186-.758.724-1.134.478-.335.423-.631.012-.631a1.812,1.812,0,0,0-.905,2.951c1.422,1.488,3.183.621,4.4-.471,1.634-1.472,1.954-3.584,2.328-5.462Zm35.283,3.246c.082,0,1.754,4,1.975,4.566-.055.4-.492.372-1.238-.149a2.931,2.931,0,0,1-1.3-2.13C109.4,65.789,109.235,64.2,110.06,63.938ZM76.135,65.625c.368,0,.75,1.352.577,2.044-.3,1.2-3.44,3.226-5.646,3.644l-1.052.2a1.866,1.866,0,0,1-1.544-.74c-.392-.4-.578-.8-.484-.89.077-.077,1.088.1,1.946.086,2.4.028,4.258-1.7,5.684-3.753.218-.324.451-.589.519-.589Zm-47.768,1s1.627,1.473,2.484,2.317c-.092,3.92-1.538,8.17-1.536,11.674.035,3.049,2.006,5.587,2.206,8.24a14.851,14.851,0,0,1-1.231,6.2,13.981,13.981,0,0,0-1.2,5.576c.1,4.331,3.209,9.066,2.116,13.351-1.026,4.025-2.194,6.349-1.884,8.487.6,4.124,2.788,7.779,2.2,11.21-.542,3.194-1.984,6.384-1.83,9.265.178,3.327,1.421,6.108,1.772,9.142a21.993,21.993,0,0,1-.329,5.051l-2.28.188c1.254-4.673-.614-8.9-1.33-13.389-.609-3.824,1.1-6.868,1.614-10.13a12.151,12.151,0,0,0-1.045-6.535c-1.982-4.765-1.27-7.87.159-12.019,1.766-4.419-.663-7.917-1.269-12.151a18.017,18.017,0,0,1,1.3-9.471c1.02-3.122,1.308-4.933-.213-7.929a10.1,10.1,0,0,1-1.215-5.506c.5-4.948,1.831-7.722,1.505-13.566ZM77.222,68.6c.355,0,.53.25.53.755,0,.923-1.375,2.092-3.807,3.237-1.261.593-1.994.682-2.732.333-.689-.326-.655-.612.1-.833A11.366,11.366,0,0,0,76.1,69.4a3.918,3.918,0,0,1,1.122-.8Zm-11,.636c6.274,6.72,12.427,10.179,17.13,11.8l-.74,1.757c-6.18-2.4-12.484-5.728-17.825-12.89Zm12.089,1.1a2.186,2.186,0,0,1,.808,1.026,2.642,2.642,0,0,1-.518.9,4.936,4.936,0,0,1-1.819,1.374c-1.405.77-2.254.958-2.863.635s-.4-.589,1.111-1.479a17.162,17.162,0,0,0,2.313-1.645A8.482,8.482,0,0,1,78.306,70.333Zm-16.619.992A38.192,38.192,0,0,0,81.226,85.533L80,87.188C72.894,84.737,65.943,80.3,59.592,72.5Zm17.95.867c.258,0,.839.656.839.949a1.173,1.173,0,0,1-.251.573A12.325,12.325,0,0,1,77.9,75.46a1.308,1.308,0,0,1-1.358-.016c-.619-.308-.513-.566.5-1.215A13.368,13.368,0,0,0,78.7,72.92a3.625,3.625,0,0,1,.937-.728Zm-20.677.513c-.147.184-7.568,17.193-23.291,29.253L35.6,99.134C44.3,92.222,50.636,82.759,55.412,74.5Zm22.17,1.222c.238-.007.406.155.573.472.2.38-.018.718-.9,1.382a1.618,1.618,0,0,1-1.207.488c-1.17-.021-1.141-.3.143-1.452.667-.6,1.083-.882,1.389-.89Zm30.364.84,3.277.252c.883.614-12.81,9.582-22.3,8.777l.251-2.149C101.053,81.885,111.722,75.155,111.494,74.767Zm-28.114.839c.753.423,1.691.922,1.457,1.085a6.7,6.7,0,0,1-3.084-.2c-.383-.2-.361-.313.167-.906.647-.727.759-.372,1.46.018Zm-29.216-.533c-5.193,9.168-11.379,17.537-18.539,22.99l-.1-4.85C42.344,87.964,47.5,78.375,47.516,78.341Zm65.051.584,1.588.929c-9.9,9.172-20.6,13.126-30.878,12.135l.826-1.858c16.68,1.319,27.756-11.029,28.464-11.206Zm2.407.325s.532-.067.475.042a77.622,77.622,0,0,1-10.759,8.588c-14,14.39-25.99,25.745-38.188,38.564l-1.95-2.042,1.766-1.87c.008-3.693,4.525-7.834,7.205-11.024,1.118-1.26,3.217-4.5,2.979-5.866a3.433,3.433,0,0,1-.093-.429c4.238-.847,5.253-4.286,5.344-7.326a19.559,19.559,0,0,1,1.153-5.549c19.181,1.538,31.54-12.592,32.068-13.088ZM88.2,78.105a3.86,3.86,0,0,1,3.815,4.158c-.018,1.022-.377,1.8-1.762,4.5-1.34,2.309-1.515,3.715-2.042,6.383L86.844,91.92l-2.48,2.236L84.4,90.9s.856-1.087,2.239-2.641c1.753-1.948,3.34-4.455,3.267-5.864a1.97,1.97,0,0,0-3.055-1.635c-1.322.925-1.932,2.6-2.71,7.6-.138.886-.267,1.929-.339,2.156a13.188,13.188,0,0,1-2.107,2.425,30.2,30.2,0,0,1-.918-3.67l-1.931.32a25.548,25.548,0,0,0,5.1-8.433c1.037-1.894,2.357-3.027,4.249-3.047Zm-42.026.778s-3.846,7.993-10.6,13.193l-.044-3.13a32.655,32.655,0,0,0,6.907-8.278Zm92.559.2c-13.349,13.831-30.771,39.3-9.15,75.08l2.857-3.3c-17.411-32.36-5.072-49.132,6.388-65.962Zm-72.182,1.14c3.908,2.781,7.988,5.542,13.263,7.3-.281.941-7.533,7.048-2.329,12.694.217.3-.336,1.015-1.183,2.034-2.487,3.4-4.969,5.822-7.047,9.65l-.085,7.19-2.078-1.836Zm71.669.663.089,4.1c-19.834,24.122-17.6,45.841-6.389,65.846l-2.148,2.18c-18.376-31.65-6.912-55.509,8.448-72.126ZM89.285,83.314c-.875,2.312-4.7,6.271-4.7,6.271s.507-3.856.826-5.072a7.78,7.78,0,0,1,1.335-2.784c1.544-1.7,3.085.23,2.54,1.585ZM62.969,81.146l.372,32.318-2.788-2.813-.41-24.713ZM59.2,87.471l.554,21.943a131.192,131.192,0,0,0-6.772-13.7S56.186,91.463,59.2,87.471Zm22.019,6.865a11.215,11.215,0,0,0,1.092-1.123c1.446-1.462,1.577-1.472,1.443.5-.051.758-.008,1.73-.008,1.73.846-.491,2.842-2.849,3.406-2.424a3.6,3.6,0,0,1,.8,2.591,6.056,6.056,0,1,1-10.12-4.366c.443-.468,1.707-1.333,2.315-1.162.751,1.374.725,2.9,1.075,4.254Zm63.766-2.331a3.574,3.574,0,0,0,2.154,2.494c-.2,31.422-.05,87.053-.05,87.053l6.315,5.929-.042,2.591L145,182.406S144.548,116.8,144.989,92.005Zm6.271,1.456c.225,3.039-.289,6.24.232,9.363.515,2.159,1.294,4.105,1.358,6.23a14.864,14.864,0,0,1-.9,5.761,13.244,13.244,0,0,0-.769,4.089c-.313,2.636.538,5.024,1.191,7.124.868,2.785.627,6.153-.762,10.594a8.7,8.7,0,0,0-.522,3.721c.191,3.041,1.278,5.932,1.83,8.918.3,1.71-.008,3.948-1.06,7.744a25.619,25.619,0,0,0-.805,4.8,13.93,13.93,0,0,0,.627,3.686c1.46,3.841,1.532,4.529,1.607,6.837a13.538,13.538,0,0,1-1.1,5.011c-1.024,2.438-.351,4.94,0,7.679l-2.517-2.152a9.32,9.32,0,0,1,.207-6.285c.979-2.738,1.224-2.992,1.211-4.567-.018-2.088-1.215-4.558-1.71-6.027a12.259,12.259,0,0,1-.008-7.922,41.558,41.558,0,0,0,1.188-5.088c.267-2.073.064-3.709-.975-7.868a17.036,17.036,0,0,1-.65-4.832,21.8,21.8,0,0,1,.839-6.072,14.078,14.078,0,0,0-.271-9.06,14.99,14.99,0,0,1-.932-6.8,10.687,10.687,0,0,1,1.064-3.647,11.35,11.35,0,0,0,.441-7.845,37.343,37.343,0,0,1-1.221-12.693Zm-7.073,1.723c-.22,21.534,0,46.187,0,46.187s-6.376,4.467-6.35,4.234c-8.214-13.553-11.345-33.52,3-51.528a18.784,18.784,0,0,0,3.343,1.107Zm-96.956,5.133c11.626,21.722,13.139,43.665-6.083,66.178a11.788,11.788,0,0,1,.209,5.66c3.748-2.919,33.8-32.956,8.49-74.779Zm59.244-1.768,5.71.335.385,4.915-1.846,1.832s-.034-1.016-.058-1.925a5.143,5.143,0,0,0-.291-2.048,14.065,14.065,0,0,0-.282,2.741l-.085,2.111-.639.639c-.851.851-1.023.784-1.056-.415-.071-2.606-.065-2.784-.255-2.594a8.55,8.55,0,0,0-.194,2.346,14.055,14.055,0,0,1-.166,2.277,3.776,3.776,0,0,1-1.5,1.344c-.265,0-.25-.377-.252-2,0-1.368-.144-2.119-.364-1.615a21.717,21.717,0,0,0-.162,2.583,12.834,12.834,0,0,1-.159,2.238c-.237.443-1.358,1.392-1.555,1.316-.283-.108-.354-.92-.345-2.276.008-.665.109-1.226-.147-1.406s-.3.588-.232,2.54l-.019,2.122-.716.782c-1.134,1.169-1.212,1.113-1.215-.906.05-1.6-.008-2.3-.321-2.172s-.19.9-.128,2.474a8.127,8.127,0,0,1-.058,2.292A6.41,6.41,0,0,1,99.7,117c-.372.363-.831.867-.886.867-.087-1.7-.232-5.347-.232-5.347l-5.955-.263a11.578,11.578,0,0,1,1.737-1.727c.269-.145.689-.162,2.182-.1a15.917,15.917,0,0,0,2.508-.089c.447-.172-.485-.326-1.8-.411a20.347,20.347,0,0,1-2.078-.182l.867-.894.65-.647,1.9.062a10.018,10.018,0,0,0,2.136-.042c1.125-.222.071-.478-1.211-.48-1.251,0-1.958,0-1.958-.279a4.82,4.82,0,0,1,1.8-1.634c.206-.043,1.224-.085,2.264-.093,1.785-.014,2.433-.04,2.333-.337s-1.283-.209-2.07-.244c-2.186,0-2.287-.086-.793-1.394l.723-.635,1.37.039c2.067.058,3.069-.025,3.069-.221a5.7,5.7,0,0,0-2.489-.348c-.683,0-1.238.011-1.238.011a17.557,17.557,0,0,1,1.656-1.8l1.846-.035c1.347.02,2.175.072,2.2-.174s-.483-.244-1.1-.248a6.115,6.115,0,0,1-1.966-.209c-.141-.142.123-.536.708-1.061l.6-.546Zm-56.532.064c15.973,26.11,10.207,54.324-7.6,71.885l-.523-3.426c16.814-20.461,19.75-41.587,6.148-66.444Zm29.706,3.506c-2.868,4.315-7.253,8.571-8.908,12.1-.339.4-.449,1.29-.975,1.468-.262,0-.348-.5-.282-1.649a4.046,4.046,0,0,1,.549-2.006c2.263-4.134,4.886-7.105,7.782-11.031Zm.672.418,2.65.168a13.647,13.647,0,0,1-2.322,4.433c-1.2,1.562-2.649,3.136-4.335,5.057-2.441,2.782-3.664,5.614-3.55,6.86a20.453,20.453,0,0,1-1.81,1.748l-1.546-1.423c1.146-5.883,6.7-11.289,10.913-16.843Zm32.43,2.389.859.05a28.205,28.205,0,0,1,4.88.48,3.338,3.338,0,0,1,.193,1,8.675,8.675,0,0,1-.375,2.9,12.371,12.371,0,0,1-.619,2.215c-.339.344-.473,0-.631-1.595-.1-.964-.133-1.666-.259-1.588a6.548,6.548,0,0,0-.155,1.843c.1,2.009.086,2.5-.538,3.106-1.092,1.06-1.152.953-1.234-.93a10.274,10.274,0,0,0-.275-1.974c-.237-.237-.315.845-.317,2.675v1.952l-.519.565c-.676.734-.9.846-1.145.6-.154-.154-.1-.488-.1-1.6,0-1.306-.228-2.059-.476-1.808-.046.047-.058,1.311-.061,2.412s-.018,2.076-.031,2.165a4.854,4.854,0,0,1-1.5,1.51c-.26,0-.468-1.438-.468-2.614,0-.785-.167-.923-.333-.491a20.921,20.921,0,0,0-.073,2.2v1.8l-.728.751c-.973,1.007-1.131.948-1.134-.43,0-1.188-.081-1.816-.321-1.816-.137,0-.17.563-.17,1.9a10.607,10.607,0,0,1-.132,2.014,3.886,3.886,0,0,1-.708.937,2.594,2.594,0,0,1-.723.588,3.28,3.28,0,0,1-.275-1.61c.01-.1.011-.811,0-1.576-.026-1.826.1-1.748-2.813-1.84-3.417-.107-3.466-.127-2.438-1.122.977-.946.839-.91,3.1-.759,1.819.121,2.039.113,2.222-.07.111-.112.173-.233.139-.267a11,11,0,0,0-1.54-.144c-2.25-.124-2.446-.286-1.494-1.239l.538-.542h2.3a10.809,10.809,0,0,0,2.669-.161c.149-.241-.467-.3-1.945-.388-.793-.047-1.541-.112-1.66-.148-.376-.111-.236-.49.4-1.084l.611-.573h2.032c1.886,0,2.809-.123,2.809-.372,0-.176-.375-.247-1.343-.259-1.37-.018-2.283-.15-2.345-.337a6.231,6.231,0,0,1,1.335-1.549l2.066.074c2.08.074,2.732,0,2.732-.364,0-.189-.89-.325-2.043-.256-.742.045-1.641-.132-1.641-.4a2.672,2.672,0,0,1,.666-.867l.669-.658,2.024.081a14.812,14.812,0,0,0,2.422-.027c.337-.23-.443-.41-1.714-.484-1.96-.114-2.088-.266-1.052-1.247ZM42.189,106.01C52.673,124.8,51.1,142.5,39.937,157.558a10.123,10.123,0,0,0-4.11-1.308l-.282-45.361Zm74.985,7.342c.21-.033.206.313.147,1.041a7.991,7.991,0,0,1-.2,1.363c-.12.317-.216.331-1.234.186-1.16-.166-1.143-.375.131-1.63.617-.608.968-.932,1.153-.96Zm-56.288.844s1.381-.009,2.071.016c0,0,.107,3.514.389,5.542l4.494.216L66.1,121.786l-3.408-.109s-1.036-4.989-1.8-7.481Zm53.549,2.125a7.545,7.545,0,0,1,2.488.469c.152.152.157.527.023,2.795-.048.818-.1,2.575-.109,3.9-.019,2.406-.019,2.416-.3,2.455-.367.052-.408-.076-.507-1.661a4.661,4.661,0,0,0-.283-1.707c-.119-.04-.108.747-.108,2.373v2.1a6.613,6.613,0,0,1-1.1.9c-.252,0-.386-.395-.511-1.5s-.244-1.862-.391-1.618a17.752,17.752,0,0,0,.051,2.222l.127,1.778-.789.793c-.81.818-.911.884-1.041.674-.3-.809.126-4.517-.6-4.987a18.893,18.893,0,0,0-2.209-.135c-1.9-.081-2.974-.112-3.239-.341-.16-.139.736-1.178,1.2-1.386.332-.15.707-.159,2.271-.055,1.811.122,2.725.108,2.485-.124a10.19,10.19,0,0,0-1.707-.267c-1.456-.144-1.969-.291-1.969-.561a6.986,6.986,0,0,1,1.253-1.471l.705.073c.387.039,1.3.137,2.035.221s2.21.1,1.614.046c.193-.194-.562-.393-1.61-.522-1.976-.245-2.155-.469-1.161-1.449l.611-.6c1.038.079,2.086.1,3.115.264.753.119,1.161.077,1.161-.179,0-.178-.375-.171-1.285-.352-.329-.065-2.03-.04-2.058-.542.4-.556,1.12-1.57,1.842-1.615Zm-46.047,4.263c.3-.016.317.719.349,2.661.034,2.126.068,2.493.251,2.675s.61.234,2.477.329c2.857.145,2.93.187,1.923,1.158-.7.675-.731.59-1.308.523a14.023,14.023,0,0,0-3.8,0c-.149.241.013.289,1.393.4,1.68.128,2.14.187,2.14.472a2.2,2.2,0,0,1-.635.821l-.634.592-1.769-.069c-1.861-.076-2.817-.1-2.817.151,0,.153,1.063.321,2.748.488.437.043.885.05.909.123.06.184-.791,1.239-1.316,1.631-.427.318-.571.141-2.437.1-1.906-.041-2.07.031-1.714.384.084.084.4.093,1.11.143,1.166.082,1.726.256,1.726.546a4.317,4.317,0,0,1-1.544,1.6c-.434.206-.621.216-1.582.081-.758-.106-.9-.264-.883-.976.009-.32.065-2.4.124-4.619.114-4.288.149-4.507.716-4.426.242.035.3.327.364,1.782.068,1.547.133,1.854.391,1.854.1,0,.11-.614.05-2.106-.094-2.315-.1-2.659.607-3.33.314-.3.564-.538.712-.321a12.853,12.853,0,0,1,.3,2.826c-.009.922.35,1.115.433.236-.041-1.393-.052-2.643-.061-4.131l.859-.852c.453-.45.74-.733.921-.743Zm-5.568,1.735a17.819,17.819,0,0,1,2.531.039,8.444,8.444,0,0,1-2.206,2.188,6.377,6.377,0,0,1-.325-2.227Zm54.16,4.209.407,2.861-3.123-.213Zm-42.076.465a.107.107,0,0,1,.055.008c.225.086.289.638.379,3.295a11.483,11.483,0,0,0,.205,2.323c.091.109.48.163,1.2.163.588,0,1.7.037,2.461.081,1.671.1,1.715.166.72,1.15l-.673.666-2.094-.085c-2.146-.088-2.5-.052-2.5.244,0,.2.366.3,1.053.278.272-.007.954.029,1.516.082,1.254.117,1.279.212.345,1.219l-.674.724-.654-.089a16.277,16.277,0,0,0-3.973.051c-.258.257.077.368,1.335.445,1.95.119,2.29.177,2.29.4a2.453,2.453,0,0,1-.611.809l-.608.608-2.476-.128c-1.736-.029-2.33,0-2.368.112-.068.2.217.257,2.008.442,1.719.178,1.969.355,1.315,1.169-.717.894-.987,1-2.341.864a11.376,11.376,0,0,0-3.231-.008c-.343.217.01.362,1.068.441,1.6.12,2.539.292,2.539.527a2.906,2.906,0,0,1-1.045,1.339l-.422.322-1.83-.194c-1.823-.194-2.756-.1-2.5.163a5.534,5.534,0,0,0,1.5.236c1.376.1,2.059.278,2.059.561a3.984,3.984,0,0,1-.778.926,5.218,5.218,0,0,1-.92.715l-5.634-.506a9.114,9.114,0,0,1,.278-3.74c.51-2.465.719-3.018.964-2.56a6.62,6.62,0,0,1,.178,1.135c.113.989.356,1.61.5,1.61.163,0,.162-.587-.051-1.97-.3-1.928-.331-2,.4-2.781.628-.665.984-.821,1.18-.518a15.3,15.3,0,0,1,.2,1.692c.131,1.289.207,1.585.375,1.417.108-.108.188-.477.07-2.389l-.151-1.859.824-.84c.753-.768.839-.821.99-.623a6.59,6.59,0,0,1,.275,1.885c.082,1.407.194,1.87.4,1.665a27.8,27.8,0,0,0-.055-4.03c-.067-.483-.033-.554.577-1.24.727-.816,1.109-1.153,1.308-1.157.261-.006.4.8.406,1.862a3.882,3.882,0,0,0,.2,1.731c.273.366.3-.918.24-2.188l-.074-2.315.751-.751c.71-.711.768-.742.967-.542.165.165.155.558.221,1.726.1,1.616.416,2.4.507,1.282a3.969,3.969,0,0,0-.015-1.1,14.318,14.318,0,0,1-.1-1.769c0-.946.048-1.2.279-1.572a4.2,4.2,0,0,1,1.625-1.413Zm32.546,1.761s1.258,1.076,1.258,1.383a5.559,5.559,0,0,1-1.173,1.39c-1.243,1.221-1.361,1.43-1.5,2.741a7.612,7.612,0,0,1-.875,2.292c-.44.886-1.075,1.921-1.075,1.921a111.243,111.243,0,0,0-7.338,9.557c-.2.46-.209.922-.412,1.3a1.6,1.6,0,0,1-.662.582,5.991,5.991,0,0,0-1.022.635,6.689,6.689,0,0,0-2.515,3.926c-.2.879-.326,1.669-.681,4.379-.146,1.114-.635,3.055-.635,3.055-7.477-.106-14.476,1.19-20.716,4.714Zm9.991,1.15,1.664,7.562-1.714-.034-.171-5.491-5.347-.511,1.911-1.851Zm-8.114.693c.458.468,1.028.98,1.443,1.487-1.43,4.783-5.958,10.989-10.455,17.146l-3.3-.36a94.66,94.66,0,0,1,6.779-9.034,16.906,16.906,0,0,0,2.169-3.5,21.2,21.2,0,0,0,1.113-3.424c.777-.938,2.253-2.305,2.248-2.32Zm1.776,1.677L113.6,134.8l.608,35.8a45.974,45.974,0,0,0-13.2-6.956l.843-1.924.929-1c3.285-3.557,2.553-7.388.054-10.095,3.045-4.442,5.8-7.752,8.122-12.088l-.031-2.974a12.356,12.356,0,0,1,.186-3.295Zm-29.814,1.5c.26-.026.294.635.36,2.513a10.82,10.82,0,0,0,.251,2.768c.156.245.306.266,2.376.329,2.185.067,2.639.13,2.639.364a3.287,3.287,0,0,1-.623.747l-.623.624-1.947-.031c-1.037.033-2.262.013-2.294.042-.172.16.475.378,1.424.38a10.485,10.485,0,0,1,1.637.147c.368.142.2.506-.608,1.278l-.8.774-1.768-.035a18.35,18.35,0,0,0-2.306.062c-.538.179-.271.325.619.337,1.487.021,2.513.144,2.557.376a2.293,2.293,0,0,1-.619.917l-.662.709-2.6-.108c-2.458.018-2.79.2-.739.406.783.078,2.019.272,2.063.279s.114.1.154.205c.087.225-.9,1.342-1.431,1.615a1.157,1.157,0,0,1-.933.042,11.97,11.97,0,0,0-3.192.051c-.215.128.252.277.913.29,1,.02,2.182.309,2.182.546a3.551,3.551,0,0,1-1.04,1.289c-.249.218-.839.023-2.485.078a5.767,5.767,0,0,0-1.876.217,2.5,2.5,0,0,0,1.277.34,8.23,8.23,0,0,1,1.753.287c.167.167-1.1,1.663-1.1,1.663l-5.407-.076-.5-5.73.461-.531c1.034-1.2,1.26-1.022,1.466,1.123.151,1.572.264,2.052.491,1.824a9.867,9.867,0,0,0-.035-2.3c-.069-1.086-.127-2.076-.127-2.2,0-.3,1.229-1.592,1.47-1.545s.368.58.5,2.048c.105,1.206.161,1.535.4,1.3a5.864,5.864,0,0,0,.015-2.269l-.147-1.994.522-.619c1.048-1.244,1.254-1.105,1.382.913.086,1.362.217,2.08.468,2.08a11.069,11.069,0,0,0,.034-2.556l-.077-2.308.654-.666a3.062,3.062,0,0,1,.812-.662c.255,0,.4.579.561,1.948.18,1.533.24,1.8.387,1.649a10.415,10.415,0,0,0-.035-2.183l-.182-2.285.8-.809a3.047,3.047,0,0,1,.979-.771c.24.047.4.738.414,1.716a3.733,3.733,0,0,0,.376,1.9c.1.1.129-.462.1-2.091-.039-2.509-.1-2.7,1.025-3.876.3-.314.5-.517.635-.53Zm29.19,1.025.024,3.5c-1.4,3-4.643,7.4-7.928,12.127l-1.715-.929a93.127,93.127,0,0,0,9.619-14.7Zm-46.928,1.1c.077,0,.163,0,.26.008.887.052.91.358.085,1.131a2.189,2.189,0,0,1-.89.581c-.255,0-.268-.038-.19-.705.1-.82.2-1.01.735-1.014Zm53.557,2.525,2.422,2.385.608,25.641-2.55,4.16Zm3.034,3.379a94.864,94.864,0,0,0,6.964,13.873l-6.475,9.149Zm-21.785,7.993c2.977-.041,5.719,2.316,6.063,4.712a5.771,5.771,0,0,1-3.089,6.625,4.852,4.852,0,0,1-1.284.311c-.282-1.659-.16-3.258-.537-4.942a20.873,20.873,0,0,1-2.178,2.483c-.406.225-.589.286-.536-.247.028-.931.1-3,.1-3l-3.44,3.562a5.947,5.947,0,0,1-.611-1.274,6.2,6.2,0,0,1,2.538-7.307,5.5,5.5,0,0,1,2.976-.925Zm45.767-.217.066,3.135c-5.4,4.188-13.1,13.014-19.7,24.517l-2.906,1.226c4.477-10.706,13.929-21.61,22.539-28.878Zm.059,4.122.057,4.672a71.1,71.1,0,0,0-12.5,15.411c-2.1,1.01-6,2.93-6,2.93-.488-.118,10.612-17.41,18.446-23.013Zm-48.054,4c.217,0,.206.418.138,1.027a4.351,4.351,0,0,1-.82,2.551c-1.745,2.062-4.517,4.866-4.895,7.473-.191,1.393.9,2.7,1.963,2.564,3.317-.415,3.674-6.313,3.953-9.223a8.434,8.434,0,0,1,.29-1.553,12.933,12.933,0,0,1,2.394-2.468l.406,4.508,1.869-.624c-5.27,7.167-3.756,7.616-6.536,10.552-2.583,2.729-7.595-.379-6.312-4.527,1.114-2.791,2.839-5.592,3.305-8.582.126-.888.2-1.5.2-1.5l1.2,2.5c.61-.6,2.389-2.59,2.847-2.695Zm48.25,1.546-.011,3.218a67.148,67.148,0,0,0-7.089,8.722L133.292,173c2.6-4.961,6.874-9.6,11.087-13.759Zm-48.718,2.839a12.257,12.257,0,0,1-.319,4.231c-.276,1.294-1.52,5.071-3.487,4.18-1.67-1.476.365-4.214,1.39-5.508.793-.93,1.654-1.934,2.416-2.9Zm-5.248.386L89.325,164.8c-9.769.036-19.256,3.532-27.7,10.671l-2.136-.7A43.329,43.329,0,0,1,90.413,162.468Zm10.269,1.789c11.01,3.688,16.093,9.071,20.257,14.716l-1.74.893c-4.364-5.651-9.75-10.822-19.778-13.812Zm-12.614,3.481-.468,1.994c-6.165.185-12.672,2.375-19,6.772l-2.283-.364A38.77,38.77,0,0,1,88.068,167.738Zm28.177,13.471-1.955.923c-5.835-7.575-11.111-9.731-17.106-11.66l.646-1.681a31.593,31.593,0,0,1,18.415,12.418Zm-81.363-8.932.169,20.214-1.407-.282-.2-19.548Zm-3.258,1.1c-2.682,10.055-.6,12.658.367,18.525l-2.22-.355a26.806,26.806,0,0,1-.561-17.663ZM99.1,174.917c.168.16-.135.653-.549.9s-.312.2-.952-.031c-.623-.225-1.416-.814-1.416-1.038a15.933,15.933,0,0,1,2.917.171Zm1.893.143c.367.044,1.43.024,1.5.357.025.2-.392.52-1.245,1.1-1.3.885-1.736,1.059-2.116.638-.361-.4-.255-.81.352-1.37A1.992,1.992,0,0,1,101,175.06Zm-44.224.221a4.887,4.887,0,0,1,2.871,1.982c.812,1.272,1.746,2.578,2.5,3.864a54.1,54.1,0,0,1,4.144,8.929A119.317,119.317,0,0,1,72.3,211.24c-.027.586-.535.575-.952.438a.849.849,0,0,1-.476-.326c-.6-1.7-.808-3.447-1.266-5.157a111.687,111.687,0,0,0-3.761-12.762A87.7,87.7,0,0,0,61.237,182.6a25.17,25.17,0,0,0-4.245-5.886,13.124,13.124,0,0,1-1.033-.968c0-.3.29-.46.813-.46Zm47.048.232c.688.169,2.348.364,1.718.914a13.072,13.072,0,0,0-4.326,2.861,2.567,2.567,0,0,1-.925-1.138A14.707,14.707,0,0,1,103.82,175.513Zm-43.674.008c.975-.035,1.93,1.226,2.38,2.021,3,4.417,5.568,10.716,7.681,16.89A99.17,99.17,0,0,1,74.552,212c-.053.141-.335.193-.658.191-.615,0-.7-.148-.859-.636a143.648,143.648,0,0,0-6.206-21.811A63.7,63.7,0,0,0,61.736,179.2c-1.485-2.178-2.328-3.322-2.263-3.492.044-.116.289-.174.576-.174.032,0,.066-.007.1-.008Zm-6.7.132c1.316,0,3.493,1.558,4.972,3.566,3.134,4.3,4.929,9.324,6.79,14.2A101.086,101.086,0,0,1,69.8,210.1c.157.7.413,1.007-.247,1.227-1-.285-.978-.257-1.262-1.475-.39-1.308-.509-2.631-.878-3.961-2.114-7.609-4.481-16.054-8.412-22.926-4.723-7.565-6.1-5.461-6.857-6.795.058-.3.585-.514,1.292-.515ZM64.805,177.5c4.059,7.066,5.848,11.405,7.083,15.673,1.871,6.469,4.086,11.634,5.059,19.186a5.522,5.522,0,0,1-1.493-.155,4.4,4.4,0,0,1-.476-1.548,125.794,125.794,0,0,0-4.249-16.615,70.45,70.45,0,0,0-7.178-15.883c-.838-1.37-1-1.909-.483-1.932.915.062,1.318.767,1.737,1.273Zm42.285-.756a1.342,1.342,0,0,1,.608.093c.537.186.708.3.739.515.044.31-.289.412-1.327.655a10.85,10.85,0,0,0-3.518,1.963,7.237,7.237,0,0,1-1.079.887c-.255,0-.863-.67-.863-.949a8.689,8.689,0,0,1,5.44-3.164Zm-55.925.175c3.436.1,6.125,4.1,7.534,6.791.549,1.054,1.261,2.2,1.8,3.4a115.534,115.534,0,0,1,6.311,19.062c.557,2.405,1.2,4.168.972,4.638a1.2,1.2,0,0,1-1.157-.189,6.422,6.422,0,0,1-.585-1.7c-.8-2.576-2.128-9.939-5.587-17.676a54.946,54.946,0,0,0-4.643-9.711,7.863,7.863,0,0,0-4.818-3.465c-.874-.143-1.133-.039-1.08-.511.035-.3.129-.383.6-.531a2.366,2.366,0,0,1,.658-.108Zm21.476,15.956c-.236,0-.443-.449-.6-1.185-.077-.362-.183-.619.5-1.045,4.263-4.536.6-11.2-4.759-11.775-.5-.076-1.137-.077-1.324-.147a6.205,6.205,0,0,1-.987-1.506c7.4-1.8,15.26,8.809,7.174,15.658Zm36.879-14.818c.441.111,1.4,1,1.281,1.2-.144.232-.974.24-2.171.453-2.546.451-3.637,2.111-4.821,3.345-.263.08-.5-.1-.731-.5a2.284,2.284,0,0,1-.314-.79c1.323-1.929,4.868-3.878,6.756-3.7Zm-60.1.569a6.912,6.912,0,0,1,5.545,2.761c4.443,6.655,9.435,21.446,10.625,28.742-.12.235-.436.26-1.052.081-.344-.1-.3-.209-.519-.886a151.449,151.449,0,0,0-4.724-15.21c-.928-2.439-2.018-4.824-3.045-6.965-.651-1.355-1.958-3.767-2.453-4.5a4.028,4.028,0,0,0-5.018-2.13,2.242,2.242,0,0,0-.561,3.707,2.146,2.146,0,0,0,3.071-.485.981.981,0,0,0,.008-.952.248.248,0,0,0-.383.042c.08,1.294-1.568,1.377-2.288.868-1.149-.86-.384-3.582,2.748-2.486a2.256,2.256,0,0,1,1.041,3.117,2.869,2.869,0,0,1-2.9,1.893,3.553,3.553,0,0,1-3.649-3.376,4.42,4.42,0,0,1,2.14-3.833,2.01,2.01,0,0,1,1.412-.384Zm18.33,1c5.252.242,7.665,6.428,4.9,10.16-.7.892-1.15.73-1.451-.422-.148-.473-.312-.544.113-.91,2.459-2.358.439-6.943-3.615-7.128a5.894,5.894,0,0,1-.831-1.688,2.673,2.673,0,0,1,.882-.012Zm43.8.426c.4.1,1.242.908,1.242,1.193,0,.336-.165.272-1.1.112-2.209-.395-4.422.884-6.269,3.675-.9,1.675-1.007,1.517-1.478.073-.242-.741-.246-.724.693-2.091a7.53,7.53,0,0,1,6.91-2.962Zm2.055,2.838c1.848,1.68.986,5.38-1.512,5.763-2.2.254-4.159-2.128-2.771-3.749.9-.979,2.03-1.079,2.724-.236.718.868.414,2.053-.608,2.176-.119.042-.216.135-.216.205,0,.217.906.157,1.215-.093a1.966,1.966,0,0,0,.077-2.482,2.2,2.2,0,0,0-2.38-.848c-1.481.531-2.99,2.541-3.853,5.072-.243.712-.385,1.381-.488,1.538-.211.322-.195.314-.391.189a6.485,6.485,0,0,1-.487-2.249,8.393,8.393,0,0,1,.9-2.649c1.6-2.983,5.212-4.984,7.793-2.637Zm-45.037-.751c2.151.13,3.853,3.178,2.917,5.3-.289.391-.706.656-.9.41-.069-.088-.4-1.085-.859-2.141s-.88-2.089-1.01-2.346C68.375,182.629,68.128,182.131,68.569,182.138Zm-14.614,1.77a89.2,89.2,0,0,1,6.2,14.183,77.789,77.789,0,0,1,3.034,10.787c.059.332.141.506,0,.651-.241.24-1.411-.358-1.411-.358-2.049-7.065-3.7-14.148-8.582-23.145a2.923,2.923,0,0,1-.268-.59,2.373,2.373,0,0,1,.442-1.675c.138-.147.325-.158.59.147Zm-27.492,8.2c11.587.779,20.55,5.664,25.337,18.57a49.383,49.383,0,0,0-25.206-8.464l-.024-1.789c10.665-.087,21.067,5.467,20.85,5.386-3.966-8.184-13.935-11.5-20.988-11.717Zm80.387,2.608a6.75,6.75,0,0,0-1.048,2.087c.041.321.1,2.322.147,3.489a7.661,7.661,0,0,0,.22,2.277.534.534,0,0,0,.778.062,2.719,2.719,0,0,0,.271-.713c.956-3.615,1.406-4.969,1.792-5.417.253-.327.34-.3,1.389-.178a2.116,2.116,0,0,0,1.621-3.74c-2.065-1.15-4.256.777-5.17,2.133Zm2.493.768c-1.687,1.39-1.738,3.391-2.249,5.234-.275,1.24-.661,1.893-.816.023-.288-2.594.074-4.531,1.2-6.054a3.979,3.979,0,0,1,2.864-1.947c2.211-.155,2.437,1.6,1.822,2.539a2.021,2.021,0,0,1-2.819.2Zm-79.815.835a1.511,1.511,0,1,1-1.509,1.51A1.51,1.51,0,0,1,29.528,196.321Zm4.809,1.034a1.35,1.35,0,1,1-1.346,1.348A1.349,1.349,0,0,1,34.337,197.355Zm4.384,1.479a1.1,1.1,0,1,1-1.1,1.1A1.1,1.1,0,0,1,38.721,198.834Zm3.112,1.971a.85.85,0,1,1-.852.852A.85.85,0,0,1,41.833,200.805Zm-10.9,2.71A9.318,9.318,0,0,0,31.238,208c.858,2.5.468,6.974.468,6.974l-2.515,2.52a52.968,52.968,0,0,0,.33-6.787c-.09-1.309-.681-2.532-.835-3.846a24.934,24.934,0,0,1,.073-3.649Zm4.076.754.088,10.673-8.61,8.348-.012-2.2,7.341-7.283-.156-9.89Zm21.23,24.337-.565.922h9.712l.206-.922Zm12.572,0-.228.922h4.5l.15-.922S70.864,228.608,68.81,228.606Zm7.367,0-.143.922H92.727l-.248-.922Zm19.51,0,.267.922H100.4l-.368-.922Zm7.433,0,.325.922h7.642l-.635-.922Z"/><path id="6c4d8602-c7de-428a-90d4-b55d10719c7c" data-name="path35-67-2-1-9" d="M14.524,11.569v2.763h2.684s.064,2.664.088,8.314c.021,5.487.133,8.209-.217,9.772-.94,3.6-6.159,3.621-7.2,1.032a10.5,10.5,0,0,1-.47-4.2H6.528s.017.764.021,1.7c.017,4.05,1.357,5.987,4.5,6.751,3.227.871,7-.458,8.341-3.215.8-1.572.708-1.68.727-11.181.012-6.338.108-8.976.108-8.976h2.471V11.569Z" fill="#d40000"/><path id="7509e02a-89d8-414c-8128-f2e0c111d3a6" data-name="path35-6-7-1-4" d="M165.057,238.877v-2.763h-2.684s-.065-2.664-.088-8.314c-.021-5.487-.133-8.209.216-9.772.941-3.6,6.159-3.621,7.2-1.032a10.463,10.463,0,0,1,.47,4.195h2.885s-.016-.764-.02-1.7c-.017-4.05-1.358-5.987-4.5-6.751-3.226-.871-7,.458-8.341,3.215-.8,1.572-.707,1.679-.727,11.181-.012,6.338-.108,8.976-.108,8.976h-2.47v2.763h8.167Z" fill="#d40000"/></g><rect id="75642f28-a5e2-4342-8b7c-e19946632efb" data-name="rect16718" x="0.498" y="0.498" width="178.583" height="249.449" rx="8.504" ry="8.504" opacity="0.08" fill="url(#4a339010-a5a1-4858-9b76-b7a3bfa21278)" style="isolation:isolate"/></g></g></g></svg>