<svg xmlns="http://www.w3.org/2000/svg" viewBox="0 0 179.576 250.442"><title>JH</title><g id="51ea3b3b-11b7-42b1-8400-5de784d393f2" data-name="Layer 2"><g id="c0f1367a-3e17-4ffd-a8b1-192cbe0ddd10" data-name="Hearts"><g id="9acef704-ffaf-44e2-bade-472a6254b586" data-name="JH"><g id="b5d9b156-868b-4c93-bb8b-912cb4ee6137" data-name="g101207"><rect id="ba4cbc73-7d86-46d5-9c4f-b6b7c2e12b1c" data-name="rect5889" x="0.496" y="0.496" width="178.583" height="249.449" rx="8.504" ry="8.504" fill="#fff" stroke="#b3b0b0" stroke-width="0.993"/><path id="3a2a3607-7329-479f-8707-29366e80dff9" data-name="path10378-7-1" d="M14.271,56.475s-1.78-2.552-4.181-5.552c-1.606-2.008-2.89-4.182-3.009-6.054a3.878,3.878,0,0,1,3.505-4.389c2.345-.1,3.3,1.649,3.685,3.094.387-1.445,1.339-3.2,3.684-3.094a3.878,3.878,0,0,1,3.506,4.389c-.119,1.872-1.4,4.046-3.01,6.054-2.4,3-4.18,5.552-4.18,5.552Z" fill="#d40000"/><path id="831a63a4-68ab-4a1e-ad63-1d56cf455009" data-name="path10380-5-9" d="M165.306,193.967s-1.78,2.552-4.18,5.552c-1.607,2.008-2.891,4.182-3.01,6.054a3.878,3.878,0,0,0,3.5,4.389c2.346.1,3.3-1.649,3.685-3.094.388,1.445,1.339,3.2,3.685,3.094a3.878,3.878,0,0,0,3.5-4.389c-.119-1.872-1.4-4.046-3.009-6.054C167.086,196.519,165.306,193.967,165.306,193.967Z" fill="#d40000"/><path id="3d72c9d8-b78d-4fe7-9e27-2bc94405a4f6" data-name="path35-67-2-8-6" d="M14.184,11.567V14.33h2.683s.065,2.664.089,8.314c.021,5.487.133,8.209-.217,9.772-.94,3.6-6.159,3.621-7.2,1.031a10.474,10.474,0,0,1-.47-4.194H6.188s.017.764.021,1.7c.017,4.05,1.357,5.987,4.5,6.75,3.226.872,7-.457,8.34-3.214.8-1.572.708-1.68.727-11.181.012-6.338.108-8.976.108-8.976h2.471V11.567Z" fill="#d40000"/><path id="4c48b873-554e-42d2-9827-5f30c6f98ee5" data-name="path35-6-7-4-8-8" d="M165.392,238.875v-2.763h-2.684s-.065-2.664-.088-8.314c-.021-5.487-.133-8.209.216-9.772.941-3.6,6.159-3.621,7.2-1.031a10.474,10.474,0,0,1,.47,4.194h2.885s-.016-.764-.02-1.7c-.017-4.05-1.358-5.987-4.5-6.75-3.227-.872-7,.457-8.341,3.214-.8,1.572-.707,1.68-.727,11.181-.012,6.338-.108,8.976-.108,8.976h-2.47v2.763h8.167Z" fill="#d40000"/><g id="2a9ed3e5-0562-4b74-b4cb-8f700c18c1b1" data-name="g3347-7-8-1"><g id="229e1a35-0635-40a7-80ae-97ae60d4809a" data-name="g3498-4-3-9"><g id="a96e4745-93c1-4434-8759-7c503fc26cd1" data-name="g2997-9-2-6"><g id="116489c6-8290-415c-baba-4c55961c8a30" data-name="g3884-5-1-3"><g id="e1f814c9-afc3-4da8-a7b0-29494b2811df" data-name="g3000-2-1-2"><path id="cf5f9978-7deb-4888-9a51-53dd98eb7bd8" data-name="path2993-7-5-1" d="M153.652,29.6l-9.209,6.013-.128,7.013C138.854,40,136.48,35.7,135.62,30.666c-1.545,1.952-1.238,11.806-1.238,11.806a11.072,11.072,0,0,0-2.813,2.538,30.3,30.3,0,0,0,3.374,3.938c-.017-.044-1.143,10.26.218,10.67,1.245-4.391,2.9-8.223,9-12.24,0,0,.092,16.358-.3,32.162-2.581-1.779-8.038-4.976-11.564-8.247,4.572-5.907-.089-13.606-6.912-8.492-4.422-2.4-5.1-13.722-6.195-19.654-.21-1.19-1.239-4.678-1.239-4.678s-14.571-4.037-20.828-3.709C102.382,48.478,101.362,65.2,78.1,68.328c-11.143,5.105-24.018,10.8-36.53,21.426-2.3,15.829-10.455,23.622-16.209,27.933.041,6.415-.043,12.764.22,19.238-.005.04,5.253-3.457,6.079-2.813,4.394,28.608,20.484,34.28,18.875,35.073-.259.128-5.273,5.29-5.273,5.29L25.628,161.516c-.673,19.78-.283,39.95,0,59.764,3.467-1.963,9.84-6.66,9.84-6.66l.1-6.729c-.029-.64,8.931,5.606,8.952,13.046.7.475,2.227-10.707.835-11.917l3.672-3.8-3.955-3.815s1-6.332-1.046-9.979a14.2,14.2,0,0,1-8.248,10.953s-.135-30.521-.314-30.547L47.8,179.664c-6.684,9.119,5.081,12.079,6.458,7.642,7.591,7.086,4.669,15.558,7.989,25.611l21.541,3.958c-8.878-16.5.755-35.3,18.189-33.955a42.14,42.14,0,0,0,6.222-3.33,66.145,66.145,0,0,0-4.905-6.842l-37.312-.617,17.393-32.67-11.44-.368s9.3-19.753,7.289-21.344c-.7-.559-.411-6.928-.411-6.928l10.219.381c.4-4.559-4.942-21.931-12.485-33.292l41.938.377L94.88,111.272l12.68.364-7.566,15.571,1.212,12.144-11.25.365c1.939,16.836,14.424,34.574,18.813,40.053,7.255-1.723,20.8-12.109,29.208-18.566,1.09-11.3,4.973-20.916,15.125-28.091l.032-18.6s-5.795,3.747-5.793,3.488c.023-4.025-2.072-12.4-5.936-19.874-4.146-8.016-10.953-15.275-12.518-15.73,3.6-5.456,5.136-5.945,5.085-6.032l19.61,12.6ZM54.809,69.259a22.916,22.916,0,0,1-7.129,1.409c-5.939.307-10.469.787-12.878,5.666-.489,1.486.583,2.033,1.372,2.422C40.651,73.188,52.548,80.543,54.809,69.259ZM28.445,94.812c0,.786.877,2.072,1.317.738a5.048,5.048,0,0,0,.031-3.447C28.6,91.431,28.459,94.042,28.445,94.812Zm64.316,26.942-5.8.028-.035,6.819,5.837,0Zm56.97,33.948c-.127.678-.753,3.724.662,3.194C152.064,157.608,150.642,151.685,149.731,155.7Zm-5.46,17.119c-.684-1-2.8,1.485-4.542,1.578-7.727.415-13.42-.621-14.382,7.477,4.456-2.85,10.7-1.551,14.722-2.472C142.976,178.437,146.312,175.8,144.271,172.821Z" fill="#e2cf00"/><path id="5dad4f14-47eb-45d3-9ea5-1d95d25dec8d" data-name="path3504-0-2-5" d="M24.188,230.821V19.621h131.2v211.2Zm6-136.874c.112-2.032-.722-2.873-1.445-1.476-.171.331-.733,3.861.6,3.979C30.223,96.527,30.143,94.818,30.192,93.947ZM28.075,96.33c-.008-.479-.3-.688.349-4.862-1.246-.481-2.325-2.508-1.418-3.789.354-.5.251-.61.106-1.029a1.986,1.986,0,0,1,.793-2.545c.615-.422.641-.535.445-1.091a2.416,2.416,0,0,1,1.337-3.31c.948-.33.765-.377.865-.98.224-1.348.968-2.164,2.318-2.027,1.256.126,1.339.127,1.446-.488.3-1.7,2.356-3.557,5.043-4.82,1.334-.626,3.546-1.07,7.783-1.059,2.427-.042,5.453-.367,7.151-1.861.28-.262.669-.95.8-.857.316.219.239,1.912-.381,3.455-1.806,4.5-4.252,5.738-11.165,5.7-2.061-.1-5.1.181-6.384,1.494-.384.407-.639.791-.495,1,2.863.407,5.8,1.7,7.515,7.362A177.528,177.528,0,0,1,67.924,72.178c-1.232-6.765,4.624-7.808,7.908-6.462a2.467,2.467,0,0,0-.043-.953,5.291,5.291,0,0,0-.912-1.991c-.153-.306-1.075-.888-.893-1.348.3-.753.165-.96-.464-1.654-.409-.45-.138-1.413-.038-1.8.129-.725.605-1.758.184-2.148-.65-.6-2.865-1.624-4.006-2.435-1.262-.919-1.286-1.746.562-4.768.842-1.757,1.638-3.644,2.309-4.906,1.015-1.909,1.12-3.167.5-4.262a5.761,5.761,0,0,1-.652-3.081S64.8,25.726,61.672,21.475H26.028v81l6.131-5.846L30.5,94.664c-.235,1.141-.022,2.258-1.428,2.323A.871.871,0,0,1,28.075,96.33Zm21.09,108.383c.2-3.214-1.333-8.476-3.647-12.121a40,40,0,0,1-.256,8.859Zm56.007,8.388c-.279-.09-2.609-.232-4.072-.31A12.194,12.194,0,0,1,91,206.978c-.517-.792-.3-.757.843.141,3.22,2.52,6.235,4.027,8.882,3.649,3.753-.535,5.777.842,5.257,2.448C105.888,213.5,105.857,213.323,105.172,213.1Zm-12.707-7.17c-.751-.652-.807-.945.084-.351,2.724,1.816,6.012,4.78,10.076,3.044.843-.542.067-.47-1.343-.32-2.157.23-4.784-.867-8.016-3.1-1.578-1.092-.883-2.013.894-1.158a4.618,4.618,0,0,0,1.459.481c1.749-1.163,5.426-1.15,5.34-1.143.419-.361-.955-.935-3-1.708-1.327-.5-1.649-.709-.66-.747a6.347,6.347,0,0,1,3.2,1.033,12.547,12.547,0,0,0,2.946,1.7c.8.063,1.621.179.244.818-.625.291-.57.365-.5,1.069a2.151,2.151,0,0,0,.684,1.708c.854.943,1.226,2.7.008,1.6-.262-.121-.289.112-1.007.4-4.211,1.191-7.349-.667-10.413-3.329Zm7.773.314a5.513,5.513,0,0,0,.636-1.323c-.081-.512-.536-.352-.766-.063-.394.483-.944,1.194-.491,1.437C99.831,206.411,100.04,206.507,100.238,206.245Zm-1.438-.333.936-1.672c-.231-.108-3.4.548-2.905,1A5.813,5.813,0,0,0,98.8,205.912Zm3.57-5.609a2.21,2.21,0,0,1-.786-3.549c.907-.931,2.445-.852,4.284.283.648.4,1.045.6,1.489.438.742-.274,1.025.143.964.726-.134,1.282-2.128,1.6-3.385.132-1.663-1.934-3.471-.584-2.941.815.27.712.794.823,1.395,1.09C103.39,200.378,102.79,200.528,102.37,200.3Zm-6.584-8.62c2.393-.646,5.95,1.889,7.879,1.544.837-.179.719,1.027-.15,1.465-1.015.511-2.457.167-5.518-1.432-2.521-1.364-4.561.9-2.876,2.584a2.047,2.047,0,0,0,1.535.516c.852-.04,1.1.193,0,.476a2.918,2.918,0,0,1-2.375-.67A2.617,2.617,0,0,1,95.786,191.683Zm-50.637-7.4a6.235,6.235,0,0,1,1.487-4.443l-10.754-7.308.16,29.19c5.328-3.389,7.077-7.66,7.383-13.173,10.52,11.8,7.236,26.172.666,34.354-.27-5.008-1.762-10.925-7.837-13.958l-.011,5.974-10.215,7.16v7.014H49.94l11.469-17.117c-2.075-7.61-1.763-13.941-3.166-17.423-1.053-2.862-3.053-6.559-4.345-5.986C49.527,192.029,45.234,187.985,45.149,184.279Zm9.05,3.369c3.725,2.687,4.719,7.078,5.482,10.981.026.033,1.956,13.23,2.017,13.407a1.72,1.72,0,0,1-.472,2c-3.44,4.726-10.165,14.863-10.165,14.863l65.911.388c-3.517-5.125-6.264-10.191-9.6-14.4a10.268,10.268,0,0,0-.818-4.033,2.139,2.139,0,0,1-.317-2.337c.964-2.159,1.953-4.5,2.844-6.481,1.7-3.8,1.9-3.828-.428-5.061-2.76-1.61-3.252-2.134-2.673-3.971.211-.669.237-.936-.617-1.111-.4-.081-1.359-.312-2-.491-1.863-.589-1.324-.223-2,.26-.519.256-.966-.729-1.574-1.894-.7-1.338-.876-1.37.281-.681,2.143,1.277,5.947.781,4.607-.7a3.011,3.011,0,0,1-1.191-2.723c.068-1.619.093-2.094-1-2.319a15.328,15.328,0,0,0-6.628.249c-6.221,1.555-11.212,6.961-13.1,10.978-.426.7.553.665.975.667,2.039-.182,3.485,3.073,2.151,4.532-.617.651-1.232.251-.574-.594a1.861,1.861,0,0,0-2.01-2.779c-2.066.593-2.125,3.269-2.381,5.133-.7,5.372,2.021,12.554,2.687,14.019,0,0,.146.219.1.218s-.377.3-.516.145c-.478-.544-1.686-4.939-2.34-8.079-1.269-8.683.973-16.668,8.186-21.2,6.388-4.617,9.606-3.623,13.233-3.836,1.238-.447,2.957-1.124,4.259-1.763,11.377-5.944,21.745-11.756,31.285-19.478,6.975-5.27,10.3-9.546,16.279-14.932l-.606-30.1s-.6-.5-.6-.98c.392-2.015-3.137,1.343-5.4,2.469-1.425-13.809-8.879-27.387-17.914-35.327l.371-.508s3.022,2,4.531,2.95V83.2l-3.639-2.283c-.162-.7-.071-.811.723-.814l2.916,2.154V80.5l-2.357-1.5.755-.952,1.262.82c-.535-1.391.222-1.342,1-.42a5.881,5.881,0,0,1,.918,1.477c.067.2.269.675.269.675l2.067,1.541a4.138,4.138,0,0,1-.006-.981c.348-1.092,2.843,2.431,2.53,2.513L143,85.193c.5-.766,2.387.759,2.464,1.511.167.327,7.3,4.921,7.3,4.921l.078-2.537.769-1,.345-58.624-9.466,6.063-.1,7.1c-4.471-1.449-8.345-7.938-8.911-11.986-.292-.159-1.587,7.983-.9,11.547a31.864,31.864,0,0,0-3.157,2.953L135,49.065a73.033,73.033,0,0,0-.549,9.01c.145,1.419.173,1.563.6,1.565a.731.731,0,0,0,.654-.694c.843-3.581,3.609-9.167,8.4-11.07.316-.01-.026,31.938-.026,31.938l-11.88-8.119c-.592-.509.776-.476,1.61-3.18,2.153-6.974-5.315-9.438-8.2-5.4-.474,0-2.457-2.457-2.753-3.482-2.2-4.435-2.618-9.462-3.045-13.493a52.144,52.144,0,0,0-1.486-6.649,2.544,2.544,0,0,1,.314-2.564c2.761-5.7,8.079-9.62,10.093-15.374l-66.084-.214C66.827,24.8,70.46,34.456,74.275,35.7c-1.828.236-1.207,1.837-.5,3.559.872,2.116.776,2.553-1.438,6.913C69.1,52.56,68.92,52,72.158,53.977c2,1.283,2.363,1.563,2.069,3.3s-.376,1.2,1.275,1.345a6.637,6.637,0,0,1,1.983.416c.452.2.788.49,1.368.3.978-.321,1-.084,1.041.634a4.078,4.078,0,0,0,.621,1.171c.377.619.2.722-.489.286-2.125-1.34-5.678-.767-4.371.69a8.132,8.132,0,0,1,1.126,3.59c.083,1.775,1.234,2.405,3.652,2.039,4.644-.346,15.115-6.121,17.554-12.607-5.363,1.83-4.261-4.764-2.349-4.556a6.778,6.778,0,0,0-.531,1.837c-.058,2.358,1.914,2.54,3.272.87.591-.877,1.308-4.136.955-7.815-.427-4.455-2.23-9.438-2.556-10.675,7.67,18.339.627,26.4-10.15,31.667C82.5,68.2,81.934,68.188,79.5,68.3c-1.664.134-3.166.963-4.763,1.489C65.517,74.2,54.184,79.7,44.047,87.9a127.445,127.445,0,0,0-18.795,16.485l-.024,32.359c1.728-.269,4.531-1.954,6.192-2.924,1.9,12.086,8.106,26.082,18.383,34.452,0,0-.242.457-.248.453-1.463-.974-2.926-1.943-4.344-2.689l-.075,1.54,3.459,2.382c.092.37-.593.886-.593.886l-2.855-1.975-.022,1.568,2.211,1.411c.6.6-.724.912-.724.912l-1.309-.951a5.544,5.544,0,0,1,.054.9c-.342,1.158-2.233-1.4-2.574-2.674l-1.861-1.1c.264.754-.4.86-.929.671-1.4-.71-1.32-1.9-1.612-2.61l-2.475-1.573c-.426,2.363-2.942-.965-2.545-1.761l-3.175-2.165a2.3,2.3,0,0,1-1.679.046c-.54-.353-.73-1.795-.73-1.795l-1.9-1.181v2.067l19.579,13.694-.282.532-20.424-14,.828,60.753,9.957-6.9c-.191-2.274.228-4.3.04-6.9,5.116,3.19,6.838,5.36,9.094,12.059a19.2,19.2,0,0,0,.548-10.858,9.749,9.749,0,0,0,3.239-3.73c-1.231-1.7-2.434-2.173-3.73-3.748-.1-1.919,1.02-7.635-.485-9.52,0,0-2.751,8.3-8.676,10.8-.18-8.768.024-30.81.024-30.81s6.09,4.21,9.2,5.921c1.459.78,2.476,1.27,2.5,1.825.01.283-.576.643-.833,1.041a10.292,10.292,0,0,0-.572,4.473,4.616,4.616,0,0,0,1.378,2.887C49.2,190.23,52.782,189.251,54.2,187.648Zm11.786-15.517,23.424-32.823a111.229,111.229,0,0,0,13.628,33.168Zm11.583-34.5s1.635-3.246,2.384-4.968H77.083l1.716-1.928h4.272l-2.285,4.878H82.6l2.507-4.878h6.655l-2.328,4.878h1.533l2.491-4.878h6.188l-2.176,4.878h1.449l1.272-2.461.31,4.479H94.352l2.43-4.968H94.8l-2.745,4.968H86.3l2.5-4.968H86.605l-2.743,4.968Zm18.968-17.479,2.483-5.255H97.054l-2.747,5.145H88.169l2.415-5.086-1.529,0c-1.037,1.6-2.691,4.862-2.691,4.862h-6.51s1.841-3.456,2.567-5.146H80.815l-1.307,2.088c-.46-.779-.157-2.85-.234-3.729H85.41l-2.465,5.044H84.9l2.687-5.044h6.48l-2.64,5.044h1.534l2.616-4.767h6.592l-2.31,4.767H101.9l-.9,2.072ZM90.471,111l-1.243.234c-1.59-13.619-9.113-27.5-12.3-33.237l37.433.528Zm43.953-78.634a22.487,22.487,0,0,0-3.809,12.313l3.4-2.72C133.8,34.126,134.424,32.361,134.424,32.361Zm-3.771,12.892A20.52,20.52,0,0,0,134,57.517a57.847,57.847,0,0,1,.623-8.421ZM37.978,155.077l-12.1-8.352v1.831l14.386,9.789ZM35.8,150.6c-3.242-1.631-9.923-6.679-9.923-6.679v1.67l10.636,7.485A.345.345,0,0,0,37.1,153C36.679,152.287,36.175,151.324,35.8,150.6Zm-2.97-7.251-6.953-4.861V140c1.782,1.6,7.65,5.407,7.65,5.407Zm-6.953-5.967,6.541,4.236-.407-1.875-4.646-3.161ZM143.427,78.662l.35-30.183c-6.816,3.229-8.167,12.645-7.94,12.938-6.785-7-9.342-22.107.174-32.263.716,3.257.956,7.982,7.688,12.3l.173-6.393,9.4-6.035V21.475H130.6c-3.51,4.453-7.018,9.632-10.489,14.357-1.3,1.772-1.628,2.6-1.379,3.531,2.283,8.217,1.826,18.334,6.617,23.118,6.426-6.054,12.447,3.06,7.452,8.68ZM45.678,209.177c.869,2.748.271,8.293.215,8.293,1.038-.565,3.86-8.594,3.154-11.611m32.742-147.4c-1.6-.455-2.805-1.143-4.494-.982-1.331.138-1.782-.3-.971-1.028,1.061-.9,2.089-1.272,4.055-.241,5.915,3.1,6.1-1.427,3.434-1.748-.756-.091-.721-.574.032-.452C87.978,54.17,86.719,59.655,81.789,58.456Zm-6.916-4.52a6.775,6.775,0,0,0-2.075-.671c-.878.236-.908-.248-.8-.82.253-1.383,1.664-1.132,3.529.057,2.672,1.7,3.7-.746,1.264-2.067-.818-.445-.565-.568-.087-.588,1.267-.052,2.459,1.675,2.123,3.087C77.971,55.2,75.9,54.312,74.873,53.936ZM82.7,49.752c-1.728-.3-4.233-2.629-5.395-2.789-.653-.074-1.42.005-1.629-.257-.639-.8,1.17-.8,1.293-1.1,0-.679.046-1.1.02-1.335-.32-.433-1.578-2.166-1.534-3,.03-.052.66.464.984.466,3.087-1.63,5.2-.907,7.8.245a14.99,14.99,0,0,1,3.89,2.976c.059.579-1.178-.507-2.145-1.157-2.383-1.659-4.527-2.839-7.518-1.855-.466.16-.386.246,1.146.153,1.5-.091,2.725.368,4.637,1.619.476.31,1.049.84,1.392,1,2.407,1.149,2.931,2.278,1.4,1.972-.328-.065-.963-.407-1.587-.629-1.1-.389-.711-.272-1.77.222a7.616,7.616,0,0,1-2,.627c-.563.093-2.388.078-1.581.851a10.239,10.239,0,0,0,3.255,1.885C84.065,49.962,83.523,49.894,82.7,49.752Zm.206-3.743c1.127-.418.245-1.365-1.191-1.574-.329-.048-1.032,1.507-1.047,1.834C80.659,46.513,82.29,46.238,82.908,46.009Zm-3.111.167a5.623,5.623,0,0,0,1.126-1.617c0-.8-1.024-.581-1.262.257C79.372,45.835,79.347,46.462,79.8,46.176Zm-3.6-6.485c-.927-.41-2.186-2.205-.746-1.9a26.569,26.569,0,0,0,2.97.16,13.448,13.448,0,0,1,9.344,3.973c1.253,1.3,1.334,2.27.063,1.371C83.324,39.243,80.56,40,76.2,39.691ZM111.279,179.3l-1.257.67c0,.7.254.589.811,1.083a7.243,7.243,0,0,1-1.335.089c-.919-.061-1.129-.046-.723.6.187.3.445.741.445.741a2.858,2.858,0,0,1-1.248-.1c-1.136-.312-1.718-.155-1.288.477.118.175.346.5.346.5a15.412,15.412,0,0,1-2.352-.93l-1.074.326c2.143,4.193,9.763,1.549,7.675-3.462Zm37.169-5.982c1.178-.991.606-2.205-1.115-3.095-.716-.37-.645-.375-1.806.308-1.432.842-1.533.885-.513,1.968C146.244,173.806,147.582,174.045,148.448,173.318Zm-4.372-2.8c1.083-.482.681-.4.608-1.535-.316-1.307.422-1.4.787-2.618.151-.667-.412-.421-1.506.6-.9.76-1.171.945-1.169.575.1-.308-.619-1.1-1.266-1.208-.547-.091-.5-.217.039-.909a3.923,3.923,0,0,0,.686-4.054c-.786-1.688-1.045-1.936-2.784-.462-.89.821-2.147,1.451-2.755,2.467-.434.747-.183,1.47.5,2.938,1.717,3.664,4.37,5.31,6.855,4.207Zm6.088.031c1.91-.75,1.139-2.815-1.846-4.9-1.8-1.255-2.31-1.242-.782.118.978.87,1.13,1.177.712,1.8-.35.522-.717,1.135-.37,1.613C148.425,169.939,149.358,170.866,150.164,170.55ZM42.616,167.115,40.534,165.8v1.8l2.082,1.246Zm104.058,1.628a2.379,2.379,0,0,0,.77-1.47c.094-.838-1.268-.637-1.918.29C144.794,168.605,145.659,169.458,146.674,168.743Zm4.662-2.836c.949-1,.487-2.056-1.461-3.32-.752-.493-1.135-.816-1.043.163.029.3-.3.693-.508.929-.675.757-.376.892,1.549,2.114C150.853,166.415,150.8,166.469,151.336,165.907Zm-108.72-1.914-2.082-1.26v1.635l2.082,1.407Zm-4.552,1.631.027-1.639-2.7-1.8-.038,1.828Zm106.082-.662c-.348.938,1.05.513,1.131.417.242-.474.028-.519-.091-.569C144.94,164.706,143.989,164.87,144.146,164.962Zm.61-1.186c.479-.154.535-.094.469-.96-.1-1.307.095-1.411.962-1.986.693-.46.7-.391.686-1.192-.013-.968.053-1.384,1.324-1.581.52-.081.817-.209.86-.62.073-.69-1.036-1.857-2.415-2.53a36.779,36.779,0,0,0-4.145,3.612l-.525.567.629,1.18c.98,1.84.819,2.518.243,4.958-.119.653.385.558.516-.228C143.533,164.262,143.634,164,144.756,163.776Zm4.7-6.51c-.238,1.482.529,2.394,1.253,1.658a8.911,8.911,0,0,0,.451-4.193C149.669,153.137,149.51,156.91,149.452,157.266Zm-23.941,24.546c5.526-3.241,12.627-.592,16.628-3.25,1.866-2.06,3.742-3.374,2.684-4.794-.823-1.107-1.359-1.276-1.359-1.276a9.17,9.17,0,0,1-7.23,2.007C129.041,174.251,125.642,176.513,125.511,181.812Zm9.443-7.717c3.519.123,6.38-.49,7.688-1.512.812-.635.935-.747-.338-.85-2.734-.22-5.5-3.394-6.368-6.473-.176-.633-.385-1.321-.385-1.321-7.281,5.821-23.308,14.991-23.308,14.991,1.063,4.956-2.521,7.912-7.375,6.152-.845-.076-.735,1.012-.576,1.459a4.166,4.166,0,0,0,.966,1.446c.723.62.857,1.03.749,1.624s-.1.567.313.787c.729.392.692.949.294,2.1-.429,1.617-.458,2.024.7,2.794,1.494.962,4.425,2.013,3.993,3.459-.981,3.277-2.592,6.1-4.008,9.164a3.157,3.157,0,0,0,0,2.9c.513,1,.454,2.2,1.119,3.121,3.681,5.473,6.85,10.207,10.2,15.15h34.648V148.446s-5.845,5.336-5.828,5.712c.021.45,1.271,1.152,1.808,1.241.022-.243,0-1.2.066-1.54.049-.489,1.611-.362,2.127.062.362.3.251,2.237-.115,3.817-.3,1.291-.258,1.309.3,2.055a3.639,3.639,0,0,1,.819,2.71,2.888,2.888,0,0,0,.115,1.381,3.134,3.134,0,0,1-.148,2.684c-.6.833-.608.96-.477,1.405.49,1.543.307,2.857-1.411,3.525a1.606,1.606,0,0,0-.6.8c-.749,2.469-2.154,2.466-4.076,1.755-1.36,5.312-6.893,6.646-10.879,6.489-4.152-.164-8.375.148-10.254,2.869.439-6.445,3.318-9.552,10.239-9.311Zm12.531-10.7a.807.807,0,0,0,.2-1.474c-.911-.726-1.956.013-1.529,1.063C146.4,163.571,146.8,163.65,147.485,163.393Zm-109.3-2.34-2.765-1.919.016,1.719,2.756,1.773Zm5.217,1.412-1.957-2.351c-5.769-3.534-10.769-7.487-15.566-10.669l-.037,2.179,1.372.692s.116-.479.21-.756c.176-.519,1.762.943,2.267,2.114.126.291.4.943.4.943l1.849,1.022s.027-.525.028-.671c.007-1.115,1.984.419,2.886,2.242.218.442.505.91.505.91l1.739,1.059c.687-.939,2.436.347,2.883,1.488.568,1.447,1.567,1.572,1.607,1.577Zm-10.413-.316,0-1.67-2.883-1.9-.037,1.693Zm118.7.136c.075-.438-.356-2.143-1-2.238-.405-.06-1.038.554-1.041.983C149.634,161.586,151.6,162.76,151.681,162.285Zm-2.345-2.025c.63-.689-.165-1.587-1.128-1.275-1.143.37-.748,1.408.532,1.43C149.026,160.42,149.2,160.411,149.336,160.26Zm-116.5-1.229.011-1.591-2.664-1.764-.055,1.556Zm-5.238-.562.027-1.531-1.75-1.222v1.835Zm.063-4.59-1.786-1.167v1.661l1.867,1.07Zm7.26-5.051c-.185-.491-.94-2.044-.94-2.044l-8.106-5.668v1.745l9.068,6.11Zm-3.794-13.469-.1-.71-.722.386Zm-1.717.177-1.134.614,3.425,2.232-.276-1.587Zm118.93-18.8.883-.641-1.56-1.059-.116,1.074Zm1.581-1.019,1.16-.96-3.881-2.741.275,1.7Zm2.75-1.435v-1.171l-6.294-4.258.435,2.14c1.11.643,2.466,1.581,3.883,2.579C151.593,114.207,151.6,114.451,152.67,114.282Zm0-2.169v-1.858l-7.281-4.843.592,2.18Zm0-2.791,0-1.948-8.814-5.833.965,2.577Zm0-4.893-11.111-7.448,1.422,2.855,9.689,6.486Zm0-2.845-13.944-9.292,1.566,2.6,12.378,8.384Zm0-3.021-.521,0c-.042,1.331-1.482.366-2.024-1.1-.409-.98-.5-1.227-.5-1.227l-2.808-1.9c.058.387.221,1.49.221,1.49l-1.892-1.157s-.546-1.831-.564-1.843l-3.232-2.2c.069.375.123.993-.087,1.035a3.844,3.844,0,0,1-1.432-1.075,3.278,3.278,0,0,1-.539-1.368l-2.637-1.709-.656.07s-.356-.241-.69-.512a4.068,4.068,0,0,0-2.233-1.745s1.856,2.17,2.848,3.452a12.361,12.361,0,0,0,2.015,2.029l14.731,9.846Zm0-3.037-1.138-.685.083,1.8,1.055.719ZM37.827,91.57c.07-.113-.221-.243-.541-.948a5.081,5.081,0,0,1-.447-4.19c.2-.875-.592-1.251-.957-.317-.283.726-.725,1.135-1.147,1.082-.4-.05-.483.117-.31.668a1.852,1.852,0,0,1-.886,2.027c-.645.166-.763.576-.582,1.169.3.984-.759,1.816-1.592,1.768-1.286-.073-.782,1.1.769,2.218.575.414.832.638,1.283.429C34.591,94.365,36.774,92.775,37.827,91.57Zm111.683,3.6-.065-1.714-3.237-2.19.4,2.293Zm3.16-.719V92.726l-1.332-.857.068,1.835ZM30.809,91.779c.31.314.618.343,1.111.046.568-.3.351-.747-.244-1.04C31.121,90.493,30.344,91.383,30.809,91.779Zm-.967-.757a.941.941,0,0,1,.7-.866c.666-.04.548-.4-.213-.857-.356-.217-.989-.722-1.22-.89-1.137-.827-2.236.449-1.391,1.528C28.425,90.841,29.469,91.377,29.842,91.022Zm119.348,1.07-.251-1.907-2.924-1.947.231,2.1ZM42.9,87.443a1.377,1.377,0,0,0,.192-.836,7.526,7.526,0,0,0-1.544-3.791,7.364,7.364,0,0,0-2.218-2.071c-2.237-1.152-5.221-.656-4.787.828.309,1,.237,1.843-.622,2.347-.584.343-.658.8-.04.806a3.1,3.1,0,0,0,2.134-1.194c.7-1.1,1.1-1.744.942.056-.066.753.029.7,1.194.637,1.58-.082,1.288.215.364.928a3.484,3.484,0,0,0-.933,4.29c.42.924.71,1.416,1.258,1.292A32.333,32.333,0,0,0,42.9,87.443Zm101.13,2.226-2.878-1.9.113,2.031,3.107,1.837ZM33.575,87.812c-1.055-1.334-2.293.37-1.493,1.114C32.663,89.438,34.129,88.914,33.575,87.812ZM31.081,88c-.131-.415.631-1.083.751-1.348.349-.773-2.774-2.922-3.746-1.648-.669.878-.2,1.756,1.6,2.957C30.775,88.682,31.3,88.682,31.081,88Zm112.664-1.286-2.66-1.66.047,1.753,2.825,1.706Zm-4.689,1.568v-1.79l-2.68-1.872-.044,1.854ZM34.863,86.163c.487-.482.322-.638-.618-.59-.594.031-.777-.068-.817.2C33.34,86.381,34.364,86.658,34.863,86.163Zm-2.23-.677c.049-.125-.288-.37-.836-.83-1.047-.88-1.166-1.427-.159-2.112,1.435-.977-.07-2.367-1.736-1.8a1.558,1.558,0,0,0-.55,2.688C30.448,84.161,32.436,86.271,32.633,85.486ZM139.056,83.7l-2.636-1.81v1.763l2.636,1.539Zm-105.927.115c1.174-.6,1.237-2.1.061-1.552-.485.227-1.12.842-1.121,1.121C32.065,83.922,32.53,84.117,33.129,83.811Zm.862-3.45c1.522-.819,1.289-1.58-.227-2.532-1.85-1.062-3.146.976-1.622,2.362C32.94,80.917,33.125,80.827,33.991,80.361Zm1.974-1.478c2.473-2.662,4.113-2.526,7.379-2.454,8.424.076,11.006-3.958,10.739-6.785-4.094,2.036-7.747.943-11.644,1.532-6.723,1.5-7.512,4.671-7.981,6.483Zm33.771-9.068c2.17.019,2.073.086,1.18-1.7,2.113.29,2.966,1.3,2.268-.8,1.121.4,1.793.709,2.95,1.09l.735-.426c-4.471-4.359-9.43-.666-8.123,3.731l1.66-.8Z" fill="#131f67"/><path id="1a59f261-26c4-44ea-a539-6f93cea42c8f" data-name="path3502-5-8-1" d="M80.647,229.141l1.04-5.046,9.279.452s1.078,3.168,1.514,4.594Zm-21.43-.122,4.924-8.145,6.991,1.9-1.609,6.367Zm13.6.122,2.118-8.694c-4-.882-7.772-1.462-12.186-2.656l-7.165,11.341-4.311-.115c3.714-4.957,10.5-14.968,10.5-14.968a92.08,92.08,0,0,0,47.04,3.435s5.818,7.689,7.9,11.859l-4.1-.2-5.1-8.553c-3.55.386-7.042.86-10.746,1.015l2.536,7.538H95.226l-2.312-7.517c-4.443-.172-8.177.175-13.5-.659l-1.878,8.172Zm29.364,0-1.4-5.346,5.007-.586s2.323,4.077,3.595,5.929ZM57.239,179.466c6.228-9.484,28.2-39.886,28.2-39.886l3.228.131S68.989,167.166,59.5,181.01ZM25.475,164.712l7.671,5.533.055,43.077-7.8,5.5ZM57.319,94.238l4.643,9.1c-19.728,18.725-15.858,40.7-5.289,56.37a30.959,30.959,0,0,1-4.344,7.229c-14.3-9.446-18.65-34-18.54-34.26C49.547,118.6,51.671,114.116,57.319,94.238Zm80.617,67.106c1.018-13.863,7.787-22.924,15.372-28.46l.387,14.1C148.73,151.758,143.48,156.687,137.936,161.344Zm-20.6-13.964c17.278-16.163,17.867-39.118,5.28-55.968l5.151-7.205c7.3,7.828,14.462,16.031,17.509,35.094-10.942,8.64-20.61,22.916-23.182,37.327ZM93.529,128.574l-.032-6.606,6.462-.033-.184,6.6Zm-13.662-.052-.092-6.583,6.389.046-.1,6.674ZM90.931,110.9s21.416-30.029,29.821-40.868l1.786,1.316-28.48,39.719ZM40.91,89.9c-.021,11.847-7.6,21.235-15.346,27.361l.106-13.489ZM153.426,32.725l.045,52.586-7.237-4.365.614-44.1Zm-34.495,3.114c-16.337-4.255-31.221-5.529-46.867-2.17-2.04-2.436-8.892-12.583-8.892-12.583l3.955.058,5.6,8.976,10.665-1.4-2.746-7.3,4.4.02,2.191,7.16c-.022-.056,8.677.086,13.511.66.768-2.659,2.2-7.943,2.2-7.943l4.844,0c-.623,2.539-2.294,8.579-2.294,8.579A112.818,112.818,0,0,1,116.883,32.4c2.581-3.655,4.981-7.31,7.316-10.965l4.719-.023C127.528,23.775,119.193,35.956,118.931,35.839Zm-3.014-6.3L108.7,27.85l1.885-6.372,10.088-.006Zm-41.446-2.3-3.356-5.913h6.457l2.138,5.208Zm14.658-1.2-.978-4.709H99.878l-1.2,5.016Z" fill="#d40000"/><path id="83e6a56a-9ce9-4800-8dd7-03eb785e3490" data-name="path3500-9-6-1" d="M62.317,20.92,72.746,36a83.654,83.654,0,0,1,11.542-1.437,82.1,82.1,0,0,1,12.474.248s1.783,5.392,2.388,8.039a21.7,21.7,0,0,1-.128,10.307c-1.234,3.958-1.886,5.146-4.641,7.864a25.168,25.168,0,0,1-7.913,5.3c-4.128,1.727-4.548,1.717-6.98,1.831a4.6,4.6,0,0,0-2.652.595c-.271.095-.448.378-.689.46a1.517,1.517,0,0,1-.59-.009,164.818,164.818,0,0,0-31.85,18.322c-.093.068-.152.373-.241.445-.649.532-1.247.935-1.88,1.422-.087.066-.282-.053-.368.014a188.11,188.11,0,0,0-16.564,14.729l.19,33.54s4.249-2.187,6.428-3.52A54.06,54.06,0,0,0,49.478,168.51l-4.429,6.116L24.64,160.55l.284,61.883,10.85-7.549v-6.527c3.234,2.181,6.39,3.031,8.687,12.966,1.835-3.49,1.674-8.687.852-12.16a16.657,16.657,0,0,0,3.595-4.008l-4.032-3.583s1.044-8.677-.857-10.425c-1.5,3.939-2.7,8.113-8.326,11.152l-.07-30.145c2.8,1.778,5.452,3.78,8.221,5.6l.382-.076,2.866,1.967s-.3.614-.582,1.036c-3.482,5.29,2.32,11.779,7.039,7.875,1.848-1.529,5.317,4.828,5.971,10.941.666,3.95,1.025,8.853,2.1,12.284a1.708,1.708,0,0,1-.5,2.169c-3.617,5.1-10.887,15.37-10.887,15.37h5.238l.379-.6H51.981c3.326-4.433,6.5-9.6,9.949-13.926,12.855,4.847,33.913,5.967,46.63,3.028,2.627,3.689,5.18,7.558,7.706,11.317h-3.658l.5.788h4.947l-10.421-15.37c-7.184,2.141-24.7,1.307-24.377,1.129,0,0-.049-.118-.655-1.862C79.6,204.1,79.321,195.472,86.863,188.5c4.006-3.569,8.482-5.923,13.479-5.477,2.234-.043,2.277-.165,3.209-.586a11.363,11.363,0,0,1,1.576-.474l5.062-2.812.668-.133,1.456-.769.3-.357,2.354-1.2.263.022,3.181-1.834.042-.258,1.252-.774.3.316a156.2,156.2,0,0,0,17.524-12.382l.313.118c5.9-4.786,13.929-12.33,16.31-15.2l-.128-14.356-.2-.175-.082-15.9h-.46l-.02-1.961c-2.61.969-5.483,3.4-5.676,3.3a55.964,55.964,0,0,0-17.956-34.96l4.3-5.954L153.918,90.17l.055-3.935h.248c.245-15.091.379-54.207.379-54.207l-.2-.019,0-3.124L144.183,35.42l-.143,6.6c-4.53-1.482-7.4-6.933-8.349-11.791-1.32.531-1.933,5.645-1.445,12.124a10.778,10.778,0,0,0-3.154,2.861,27.479,27.479,0,0,0,3.7,3.721c-.284.611-.883,9.256-.288,10.329.273.791,1.216.677,1.221-.155,1.378-6.743,7.761-11.167,8.12-10.759l-.157,31.089-11.34-7.964c2.381-2.694,2.882-7.236-.117-9.46A4.463,4.463,0,0,0,125.58,63.1c-3.683-2.4-4.922-11.312-5.459-14.8a42.951,42.951,0,0,0-1.071-6.078,20.363,20.363,0,0,1-.735-3.713,1.917,1.917,0,0,1,.542-1.476l11.027-15.67-5.629-.021-.055.1,4.427.013L118.683,35.6a96.708,96.708,0,0,0-47.068-2.861l-8.2-11.55,3.726-.015L67,20.92Zm8.652.133.157.283,6.444-.02-.1-.239Zm9.554.035.123.34,4.4.016-.134-.333-4.385-.024Zm22.445.12-.043.155,4.844.008.043-.155Zm-14.845,0,.046.2H99.857l.043-.186-11.777-.013Zm22.5.105-.045.164,10.087-.008.086-.156Zm42.566,8.62.031,2.128-6.776,4.315c-.169,9.1-.43,44.092-.43,44.092L144.4,79.405l.318-43.822s6-3.86,8.48-5.647Zm-17.783,1.712h.23l.068.492h-.394l.1-.492Zm.481,1.285.178.668-.991-.005.167-.644.646-.019ZM153,33.278v1.389l-5.848,3.66V36.949Zm-18.047,1.156,1.529.02.256.768h-1.925ZM97.4,34.847,98.424,35a47.22,47.22,0,0,1,3.355,15.413c.934,6.5,2.82,13.005,4.131,15.772l-1.5-.015a78.171,78.171,0,0,1-4-14.977,28.238,28.238,0,0,1-.162-3.139A47.982,47.982,0,0,0,97.4,34.847Zm1.921.225,1.306.134c.912,3.977,2.241,7.73,2.781,11.725.864,6.39,1.326,12.916,4.4,19.215l-1.22-.011a53.564,53.564,0,0,1-3.766-13.5c-.581-2.755-.588-4.822-.895-7.312a65.3,65.3,0,0,0-2.608-10.249Zm1.983.186,1.307.194c.858,3.949,2.333,8.294,2.723,11.864.8,7.269,1.934,14.043,4.223,18.85l-.915-.028c-3.536-6.861-3.592-12.974-4.583-19.4-.584-3.787-1.82-7.574-2.755-11.476Zm2.082.306,1.153.178c.8,3.929,2.242,8.376,2.577,12.362a50.8,50.8,0,0,0,4.463,18.089l-1.081.02c-3.165-5.547-3.589-12.355-4.574-19.251C105.381,43.154,104.154,39.322,103.388,35.564Zm49.61.008v1.72l-5.848,3.76v-1.7Zm-47.723.333,1.2.188c.776,3.789,2.22,7.832,2.561,11.521a59.045,59.045,0,0,0,4.335,18.54l-1.113.07A49.385,49.385,0,0,1,107.805,48.1C107.513,44.283,106.047,39.628,105.275,35.905Zm31.842.02.418,1.021-2.8.136.034-1.146,2.349-.011Zm-29.859.357,1.433.28c1.518,6.044,1.917,11.767,2.951,17.512,1.293,7.139,2.654,10.726,3.767,12.057l-1.186.039c-2.893-6.181-3.919-12.326-4.591-18.692-.4-3.755-1.625-7.456-2.374-11.2Zm2.185.408,1.093.22A106.048,106.048,0,0,1,113,50.943c1.042,8.492,3.867,14.952,4.468,15.25l-1.2-.055c-2.613-3.618-3.581-9.776-4.865-18.469-.565-3.821-1.127-7.416-1.953-10.979Zm1.759.353,1.224.3s1.1,4.347,1.938,10.115c.694,4.807,1.059,14.265,6.275,19.7,2.6,2.715,7.191,5.073,10.322,2.511a4.259,4.259,0,0,0,1.395-4.929c-1.352-3.277-5.929-2.716-4.406.722.171.824-.905.86-1.654.055a2.117,2.117,0,0,1-.033-2.743c1.177-1.9,4.328-2.1,6.177-.4,2.955,2.9,1.677,7.873-2.065,9.45-4.31,1.835-9.865-1.952-12.064-5.565-3.639-6.295-4.2-12.269-5.055-18.624-.434-3.432-1.27-7.036-2.054-10.6Zm1.845.508,1.242.3c0,.016,1.363,6.124,1.813,9.744.557,4.473,1.172,9.744,3.084,13.814a15.382,15.382,0,0,0,4.669,5.9c1.5,1.066,2.853,1.74,4.854,1.3,2.31-.5,2.41-4.086.206-4.095-1.127,0-.392-1.09.543-1.12,3.322-.11,3.418,5.136.29,6.306-3.582,1.34-7.454-1.186-9.852-4.359-4.2-6.527-4.03-12.48-4.952-17.743A99.009,99.009,0,0,0,113.047,37.551Zm25.139.183.759,1.016-4.219-.018.019-.968,3.441-.03Zm-23.288.338,1.189.414A90.236,90.236,0,0,1,118,48.834c.855,5.4,1.134,9.9,3.928,13.8,1.162,1.624,3.356,3.79,4.737,4.048.856.185,1.743,0,1.961-.655.356-1.068,1.27-.577,1.29.392a1.774,1.774,0,0,1-1.34,1.626c-4.107.712-7.863-4.452-9-7.071-1.545-3.809-2.2-8.067-2.875-13.367C116.417,45.368,115.06,38.215,114.9,38.072Zm38.1.189-.021,1.712-5.827,3.68V41.988Zm-36.311.335,1.333.364a80.287,80.287,0,0,1,1.775,9.322c.672,5.225,2.117,11.3,4.816,14.434a6.734,6.734,0,0,1,.519.691c.194.427-.037,1.148-.237,1.149-4.808-2.506-5.945-12.578-6.358-15.983A80.792,80.792,0,0,0,116.687,38.6Zm18.7.806,4.242.121,1.011,1-5.617-.05C134.428,39.857,134.8,39.927,135.385,39.4ZM153,40.792v1.42l-5.848,3.711V44.471Zm-17.466.45,6.206.108,2.177,1.3-9.484-.078,1.1-1.328ZM153,43.043v1.7l-5.848,3.671v-1.6Zm-19.764.322,10.547.113.026,1.144-11.437-.3Zm-1.375,1.959,11.93.031.029,1.267-10.847-.1-1.112-1.193Zm21.139.2V47.3l-5.848,3.629V49.24Zm-18.9,1.862,9.144.043-.993,1.059-6.895-.069L134.1,47.382Zm18.9.625v1.676l-5.848,3.683V51.714Zm-12.015,1.28-1.108,1.079-4.738-.066.162-.981ZM153,50.463v1.8l-5.848,3.578V54.282Zm-17.927.657,3.909.085-.6.823-3.421.015.109-.924ZM99.916,52.552c.589,4.52,3.864,13.633,3.862,13.63l-1.289.011a62.362,62.362,0,0,1-3.208-11.231c-.106-.524.252-2.291.635-2.41Zm34.9.259,3.011.055-.656,1.164-2.452,0,.1-1.215ZM153,53.088v1.571l-5.848,3.6V56.829Zm-18.28,1.59,2,.062-.471,1.079-1.547-.045Zm18.28.847V57.2l-5.848,3.633V59.216Zm-54.313.356a78.067,78.067,0,0,0,3.269,10.34l-1.1.014c-.05.151-2.591-5.928-2.862-8.529-.131-.545.158-1.623.7-1.825Zm36.013.7,1.183.055-.2.616-.958.023-.024-.694Zm.106,1.482.615.016-.147.586h-.383l-.085-.6ZM153,58.094v1.353l-5.848,3.707V61.871Zm-55.779.147c.887,2.639,1.774,5.329,2.825,7.9l-1.309-.031a55.29,55.29,0,0,1-2.154-5.989,1.848,1.848,0,0,1,.638-1.882ZM95.915,60,98.092,66.1H96.856c-.509-1.225-1.081-2.6-1.481-3.856C94.964,60.931,95,60.887,95.915,60ZM153,60.384v1.607l-5.848,3.624V64.23Zm-58.552,1.3c.285-.029.3.334.557,1.061L96.2,66.115l-1.526-.037a10.468,10.468,0,0,1-.834-3.026c-.041-.5-.132-1,.217-1.213a1.113,1.113,0,0,1,.392-.159Zm-1.623,1.272c.257.008.357.472.559,1.17l.633,1.979-1.424-.036a4.315,4.315,0,0,1-.455-2.586c.322-.372.533-.531.687-.527ZM153,62.96v1.681l-5.848,3.521V66.6Zm-61.64,1.207.6,1.948-1.287-.029a3.779,3.779,0,0,1-.084-1.529Zm-1.686,1a.061.061,0,0,1,.044.015c.184.862,0,.916.016.909l-1.8-.011a8.9,8.9,0,0,1,1.738-.913Zm63.326.5v1.343l-5.848,3.652V69.3ZM83.481,67.8l35.132.1,1.171,1.658s-3.418.093-14.614.023c-9.424.122-28.363-.2-28.363-.2l1.843-.869A22.129,22.129,0,0,0,83.481,67.8Zm69.517.2v1.479l-5.848,3.548V71.589Zm-98.859,1.42a15.534,15.534,0,0,1-7.431,1.4c-4.242-.344-10.732,1.433-12.037,5.516-.41,1.441-.415,1.481.364,2.215a2.457,2.457,0,0,0,.833.613A9.135,9.135,0,0,1,38.424,77.1a13.837,13.837,0,0,1,4.056-.531c4.5-.2,5.522-.389,6.642-.687,2.465-.653,4.951-3.083,5.1-5.79A2.532,2.532,0,0,0,54.139,69.414Zm-.121.369c-.476,5.646-6.581,6.383-9.262,6.222-5.438-.326-7.58,1.3-8.442,2.311-.283.27-.449.2-.4-.041.631-3.126,5.674-3.244,8.213-3.21,6.222.284,7.8-2.72,7.622-2.75-.472.212-.821.4-1.3.626-.2.086-.162-.04-.7-.352-.009.041-.623,1.438-1.417.113.02.066-.566,1.177-1.651.139.007.112-.656,1.064-1.717.09-1,.856-1.472.384-1.9-.217-.314.189-1.238,1.439-2.008.094-.822.523-1.165,1.091-1.871.749-1.649.3-3.076,1.99-3.657,3.542-.181.534-.548.618-.593.032-.2-1.62,2.466-4.427,5.138-5.2a20.3,20.3,0,0,1,8.058-.863A16.962,16.962,0,0,0,54.018,69.783Zm66.649.428,1.646,1.118L93.655,110.911l-2.53-.065,29.542-40.635Zm-45.972.027h3.259v5.395H75.145l-1-1.495a1.766,1.766,0,1,0-.844-1.253l-1.05-1.561a16.64,16.64,0,0,1,1.51-.741C74.033,70.46,74.695,70.238,74.695,70.238Zm10.043,0h5.519v5.395H84.738Zm12.094,0h5.715v5.429l-5.715-.034V70.238Zm12.34,0h5.71v5.395h-5.71Zm43.74.128L153,72.05l-5.848,3.559V73.944Zm-41.094.558a1.85,1.85,0,1,0,1.848,1.848A1.851,1.851,0,0,0,111.818,70.924Zm-24.307.1a1.85,1.85,0,1,0,1.848,1.848A1.848,1.848,0,0,0,87.511,71.021Zm12.041.036A1.85,1.85,0,1,0,101.4,72.9,1.845,1.845,0,0,0,99.552,71.057Zm6.222.22a1.553,1.553,0,1,1-1.549,1.553A1.551,1.551,0,0,1,105.774,71.277Zm-24.5.024a1.553,1.553,0,1,1-1.55,1.552A1.551,1.551,0,0,1,81.278,71.3ZM118,71.356a1.42,1.42,0,0,1,.956.369l-1.688,2.3A1.434,1.434,0,0,1,118,71.356Zm-24.259.008a1.552,1.552,0,1,1-1.55,1.552A1.55,1.55,0,0,1,93.738,71.364Zm-18.713.112a1.159,1.159,0,1,1-1.158,1.157A1.155,1.155,0,0,1,75.025,71.476Zm-3.546.063a83.7,83.7,0,0,1,17.38,39.171l-1.651-.079A85.6,85.6,0,0,0,69.96,72.146l1.519-.608Zm40.339.011a1.225,1.225,0,1,1-1.225,1.222A1.222,1.222,0,0,1,111.818,71.55Zm-24.307.1a1.225,1.225,0,1,1-1.224,1.222A1.224,1.224,0,0,1,87.511,71.647Zm12.041.034A1.225,1.225,0,1,1,98.327,72.9,1.223,1.223,0,0,1,99.552,71.681Zm30.638.879c.649,4.971-.632,8.179-4.417,8.7-4.825.663-5.452,1.027-5.479,5.6-.032,5.425-.832,6.992-4.668,7.421-4.315.483-5.318,1-4.931,6.369.282,3.922-1.261,5.59-4.584,6.318-2.6.569-4.848,1.44-5.811,4.063l-2.375.031c.616-4.131,4.762-6.1,7.419-6.241,2.864-.68,3.463-1.641,3-6.67-.349-3.787,1.037-4.937,5.478-5.8,3.55-.7,4.419-1.722,4.226-4.631-.415-6.236,0-7.174,3.534-7.932,1.8-.428,4.738-.62,5.857-2,1.273-1.569.949-2.905.834-4.833l1.918-.4ZM153,72.725v1.631l-5.848,3.613V76.382Zm-85.928.966c-1.25,5.407,3.049,6.583,5.665,7.5,3.043,1.062,3.782,2.6,3.437,7.972-.262,4.063.185,4.962,2.812,6.358,4.018,2.076,5.1,5.028,3.313,9.348-1.1,2.664-.524,3.411.173,5.736l-1.947-.018a6.457,6.457,0,0,1-.384-6.071c1.663-3.756,1.615-5.64-2.093-7.33-2.869-1.308-3.75-2.542-3.928-5.233a19.75,19.75,0,0,1,.2-4.16c.334-3.1-.771-4.441-5.354-6.147-2.042-.76-3.431-2.53-3.849-5.337a7.519,7.519,0,0,1-.011-1.692l1.968-.921Zm68.543.587L153.043,85.9l-.12,2.584L134.431,76.1Zm-11.232.256a1.529,1.529,0,1,1-1.526,1.529A1.529,1.529,0,0,1,124.381,74.534ZM69.547,75.2a1.388,1.388,0,1,1-1.387,1.385A1.382,1.382,0,0,1,69.547,75.2Zm83.4.162-.058,1.557-5.738,3.555V78.919l5.8-3.555ZM75.755,76.385h39.709l-1.019,1.374-37.936-.387Zm-13.768.067c5.271,6.882,10.452,13.972,14.447,27.334l-1.7.656A79.931,79.931,0,0,0,60.375,77.363l1.612-.911ZM153,77.678v1.7l-4.4,2.681-1.294-.846Zm-93.342.183.779,1.024s-.844.664-1.8,1.347c-2.6,1.863-2.939,2.074-3.112,3.287-.411,2.88,2.545,4.3,5.514,2.635,1.064-.487,3.4-1.968,3.4-1.968l.67.99s-3.345,2.507-5.308,3.078c-4.306,1.253-7.521-4.214-4.338-7.46A16.448,16.448,0,0,1,57.791,79.1C58.63,78.559,59.656,77.861,59.656,77.861Zm17.724.678,36.587.218L90.6,110.749l-1.037-.058C87.753,98.725,83.26,88.27,77.38,78.539ZM61.426,79.9l2.138,2.992a19.073,19.073,0,0,1-3.7,2.595c-1.846,1.011-3.842-.826-2.681-2.482C58.379,81.354,61.426,79.9,61.426,79.9ZM153,80.2v1.56l-2.535,1.556-1.158-.741ZM61.159,81.4a5.232,5.232,0,0,0-3.27,2.2.9.9,0,0,0,.069,1.08c.346.446.756.42,1.973-.23,2.484-1.326,2.949-2.113,1.855-2.89a.931.931,0,0,0-.535-.16c-.031,0-.06,0-.092,0Zm-.081.64c.16-.016.345.034.5.02.43.177.3.712-.151.838-.1-.156-.845-.178-.8.582-.181.43-.174.4-.721.458a.589.589,0,0,0-.674.322c-.377.2-.839.139-.925-.089s.226-.859.488-.857c.126.01.35-.179.581-.335-.008-.415.48-.475.621-.473a.819.819,0,0,0,.829-.346A.338.338,0,0,1,61.078,82.04Zm91.92.373v2.406l-1.837-1.175Zm-101.521.3A67.733,67.733,0,0,1,65.993,110.6l-1.335.924c-2.019-8.14-5.127-16.742-14.323-27.924Zm77.96.133a54.725,54.725,0,0,1,17.737,34.914l-1.655,1.016a55.96,55.96,0,0,0-17.151-34.537Zm-5.961.717a1.529,1.529,0,1,1-1.528,1.529A1.528,1.528,0,0,1,123.476,83.565Zm-73.855.6s1.4,1.442,1.4,1.785c-.005.68-.545,1.066-3.763,2.24-.543.2-2.92.748-2.92.748L44.25,87.78c1.213-.438,4.47-1.22,4.708-1.913.117-.273-.463-.962-.34-.962Zm22.2.294a1.39,1.39,0,1,1-1.387,1.389A1.385,1.385,0,0,1,71.822,84.457Zm56.086.4a56.139,56.139,0,0,1,16.911,34.612c-11.73,9.557-19.7,21.571-22.866,36.6-1.565-2.613-2.9-5.617-4.343-8.553,15.652-13.779,18.946-38.593,5.409-55.988l4.889-6.672Zm-61.6,1.879.706,1.094s-.149.134-2.341,1.5c-3.208,1.995-3.737,3.3-2.666,5.337,1.095,2.087,2.317,2.2,5.762.527,1.217-.59,2.25-1.21,2.25-1.21l.551,1.144a16.921,16.921,0,0,1-4.513,2.348c-2.794,1.027-5.436-.722-5.932-3.955-.361-2.35.662-3.61,4.738-5.926C65.321,87.346,66.307,86.733,66.307,86.733Zm47.994.519a1.53,1.53,0,1,1-1.526,1.53A1.529,1.529,0,0,1,114.3,87.252Zm-62.244.059.923.871a9.94,9.94,0,0,1-2.669,1.954c-2.042,1.231-2.253,1.031-1.236,1.892,1.9,1.6,4.525,5.156,4.51,6.073-.013.884-.8,1.7-2.319,2.383-.829.374-4.113,1.546-4.6,1.63-.958.106-1.229.49-.27,1.364,1.63,1.872,3.02,5.879,2.461,7.1-.629,1.376-1.385,1.609-7.419,1.886-.687.031-1.015-.164-.643.717a21.515,21.515,0,0,1,1.093,4.239c.479,2.423.4,3.513-.542,4.013-.54.287-4.736.186-6.47-.155-1.984-.391-2.2-.417-1.879.877.416,1.787.676,6.578-.674,7.5-.562.367-1.166.277-3.63-.555-1.572-.53-2.934-1.138-2.934-1.138l.028-1.485c1.281.528,4.793,2.046,5.792,1.567,1.184-1.7-.461-7.661-1.09-8.938-.758-1.524.035-1.857,1.782-.911.918.647,8.819,3.767,8.37.975-.482-2.649-1.341-5.665-3.007-7.559-1.542-1.751-.773-2.467.942-1.7,3.036,1.359,9.308,1.026,9-.383-.413-2.291-2.489-5.4-5.332-7.8-.791-.669-.822-.956.111-1.121,2.655-.211,10.256-.993,9.193-2.781a18.275,18.275,0,0,0-3.166-3.952A13.988,13.988,0,0,0,44.2,91.526l.048-1.1c3.461-.288,5.261-1.331,7.809-3.119ZM43.679,88.39c-1.241,13.033-6.684,23.772-17.919,31.262l-.062-1.46c9.876-7.432,14.618-17.994,15.9-28.215l2.077-1.587Zm9.538.616.924.83a9.029,9.029,0,0,1-1.569,1.426c-1.034.8-.673.483.032,1.432.627.753,1.743,2.267,1.743,2.267l-.333,2.013a33.825,33.825,0,0,0-3.874-4.665c-.882-.91-.831-.935.427-1.591.943-.523,1.711-1.157,2.65-1.712Zm14.4.2.008,0a38.757,38.757,0,0,1,1.8,3.552c-1.072,1-3.887,2.453-5.039,2.111-1.776-.567-2.055-2.466-.349-3.587a20.624,20.624,0,0,1,3.556-2.076l.021,0ZM78.438,90.3a1.388,1.388,0,1,1-1.388,1.386A1.382,1.382,0,0,1,78.438,90.3Zm-11.2.116a11.231,11.231,0,0,0-3.34,2.05c-.265.189-.056,1.139.2,1.466.326.42.927.35,1.647-.05.3-.168.847-.442,1.209-.61,1.014-.469,1.438-.818,1.4-1.21C68.186,91.539,67.771,90.381,67.233,90.419Zm-26.555.505c.285,1.463-.595,4.032-1.094,5.48-2.955,3.872-7.241,5.852-11.315,7.2a5.713,5.713,0,0,1-2.12.149A99.947,99.947,0,0,1,40.678,90.924Zm26.63.1a.627.627,0,0,1,.518.777c-.636.344-.989.052-.907.535,0,0,.063.751-.868.769a.814.814,0,0,0-.813.112c-.651.27-1.219-.3-.512-.625.192-.088.665-.236.8-.528.067-.362.367-.651.694-.451.174.013.562.041.688-.236-.048-.311.172-.338.33-.35a.463.463,0,0,1,.074,0Zm-38.2.65c-.159-.013-.278,0-.314.052-.274.258-.711,4.293-.426,4.584.4.4,1.488.515,1.592.034a37.017,37.017,0,0,0,.421-4.1c.03-.245-.8-.529-1.273-.57Zm.44.438c.14.032.257.225.345.561a11.9,11.9,0,0,1-.349,2.817c-.159.6-.622.464-.8-.089a5.527,5.527,0,0,1,.314-2.875C29.244,92.208,29.407,92.078,29.548,92.109Zm26.1.011.965,1.2c-2.044,19.446-15.909,36.27-30.714,42.94l-.044-1.289c16.937-8.911,27.129-23.747,29.793-42.85Zm67.005.081,1.836,2.53-2.63.081Zm-78.745.823c.908,0,5.732,2.974,5.087,4.455-.513,1.179-4.55,1.274-6.4,1.109l.278-1.135a7.915,7.915,0,0,0,2.715-.032c2.259-.151,2.093-.928-.5-2.57-1.114-.7-1.372-.871-1.372-.871l.189-.956Zm13.368,1.594a68.614,68.614,0,0,1,4.238,8.555c-18.237,17.24-16.822,40.717-5.323,56.127L51.233,166a56.929,56.929,0,0,1-17.124-33.493c14.462-10.423,21.257-25.977,23.164-37.888ZM125,95.383l1.089,2.085-2.616-.044Zm-11.293,1.044a1.528,1.528,0,1,1-1.528,1.529A1.528,1.528,0,0,1,113.705,96.427Zm-42.435.411.52,1.185c.024.149-3.691,1.323-4.887,2.833a3.265,3.265,0,0,0-.379,3.854c1.059,1.431,1.81,1.632,3.6,1.083A23.446,23.446,0,0,0,74.091,104l.228.6c0-.031-2.074,1.221-3.658,2.115a3.84,3.84,0,0,1-1.929.463,4.274,4.274,0,0,1-2.54-7.494,21.217,21.217,0,0,1,3.144-1.851C70.161,97.406,71.27,96.838,71.27,96.838Zm47.7.735c11.895,17.187,3.752,36.021-3.928,42.684l-.206-2.023a32.46,32.46,0,0,0,3.045-39.649l1.089-1.012Zm7.655.772.934,2.123-2.762-.292Zm-47.945.694a1.388,1.388,0,1,1-1.384,1.39A1.389,1.389,0,0,1,78.676,99.039Zm38.871.272c10.426,15.173,4.612,39.367-15.275,46.736l-.1-1.7c20.277-8.492,22.269-31.1,14.122-43.856l1.254-1.184ZM72.354,99.4l1.318,3.563a10.068,10.068,0,0,1-4.164,1.754c-1.463.334-2.6-2.2-1.481-3.171A11.875,11.875,0,0,1,72.354,99.4Zm-33.813.012c.245-.011-.013.6-.643,2.123-1.386,3.364-1.48,3.435-4.972,3.99a17.266,17.266,0,0,1-4.461.236c-1.949-.188-2.783-.739-1.52-1a31.491,31.491,0,0,0,10.34-4.545A4.986,4.986,0,0,1,38.541,99.416Zm66.266.414a1.718,1.718,0,1,1-1.712,1.719A1.719,1.719,0,0,1,104.807,99.83Zm-51.827.476-.147,1.322s-2.115,1.12-3.116,1.542c-.766.31-.819.379-.573,1.089a26.382,26.382,0,0,0,1.45,3.179l-.884,2a23.965,23.965,0,0,0-2.1-5.39c-.941-1.315-1.116-1.478.348-1.752A30.031,30.031,0,0,0,52.98,100.306Zm18.888.43c-1.035.045-3.2.916-3.41,1.749-.122.471.013,1.129.41,1.277a4.36,4.36,0,0,0,3.805-1.3c.177-.25-.092-.768-.283-1.091C72.245,101.128,72.273,100.718,71.868,100.736Zm.053.709h.054c.176-.015.814.794.1.726a.8.8,0,0,0-.674.28c-.025.388-.581.535-.849.4a.43.43,0,0,0-.507.225c-.4.291-.911.277-.976.07-.136-.144.269-.739.623-.717a1.626,1.626,0,0,0,.562-.369c.112-.406.54-.336.81-.314.3.123.585-.276.86-.3Zm56.009.063.765,2.126-2.733-.244Zm-12.66.467a1.321,1.321,0,0,1,.921,1.983,1.867,1.867,0,0,1-1.911.691,2.025,2.025,0,0,1,.316,2.634c-1,1.021-2.928-.545-2.785-.688Zm-74.232.779s4.207,3.629,4.237,5.256a.833.833,0,0,1-.682.985c-1.652.548-6.251-.862-6.251-.862l.591-1.124c.724.2,4.288,1.124,4.594.669.318-.472-2.976-3.692-2.984-3.695Zm20.879,1.516.5,1.756L60.7,105.6Zm67.176.315.449,2.426-2.754-.644Zm-52.511.039.41,1.424c-18.272,8.488-23.608,27.98-14.079,44.066L61.836,151.6C49.081,130.893,62,109.879,76.582,104.624Zm-41.608,1.433c.361,0,.43.2.429.414a16.293,16.293,0,0,1-2.444,3.182c-1.3.524-6.3-1.569-7.041-3.188-.147-.474.345-.266,1.453-.04,2.805.8,5.648-.3,7.6-.368Zm48.681.028a1.388,1.388,0,1,1-1.385,1.385A1.384,1.384,0,0,1,83.655,106.085Zm-23.536.03.249,2.161-2.123-.124ZM26.1,107.794a11.873,11.873,0,0,0,5.247,2.648c1.128.249.8.366-.245,1.448-.979,1.024-.9,1.155-1.895.649-1.662-.845-3.472-2.765-3.4-3.808C25.836,108.3,25.912,107.792,26.1,107.794Zm103.787.235.345,2.3-2.605-.9Zm-72.352.83.849,2.063-2.31-.065,1.461-2Zm57.161.492a1.4,1.4,0,0,1,1.519,1.479,7.65,7.65,0,0,1-.071.775c1.358-.865,3.161-.154,3.107,1.245-.075,1.972-1.037,1.99-2.61,1.729.861,1.431-.162,2.808-1.781,2.281-1.476-.481-1.191-2.04-.5-2.964a3.588,3.588,0,0,0-.392,7c-.808-1.253-1.009-2.75.745-3,1.629-.234,2.319,1,1.615,2.491,1.53-.532,2.972.347,2.511,1.841-.556,1.8-2.157,1.678-3.1.58a1.579,1.579,0,0,1-2.074,2.177c-1.866-1-.943-2.779.307-3.253-4.8-.5-5.92,6.161-2.378,7.11-.909-.571-1.012-3.192,1.064-2.833,2.039.411,1.553,2.308.245,3.171,1.579-.338,3.057,1.043,2.1,2.44-1.132,1.647-2.694.473-3.274-.647.183,1.5-.771,2.46-2,1.9-2.108-.967-.551-3.391,1.1-3.236-3.343-1.979-7.888,2.173-5.211,5.609-.1-1.561.673-2.842,1.744-2.665a1.767,1.767,0,0,1,1.5,2.027,2.549,2.549,0,0,1-1.928,1.448c2.557.284,2.775,2.1,1.716,2.989-1.8,1.516-2.634-.233-3.051-1.257-.366,2.544-3.361,1.679-3.465-.159-.1-2.014,2.218-1.972,2.647-1.859A6.893,6.893,0,0,0,101,133.606l.013-1.167A18.376,18.376,0,0,0,109,110.927l.468-.539c1.268.971,2.541,3.052,4.888,2.288a8.251,8.251,0,0,1-.817-.65c-1.207-1.192-.528-2.6,1.152-2.675Zm-51.26,1.474.8,1.185c-11.8,13.845-9.646,29.685-2.862,40.172l-.988,1.2c-6-7.711-10.907-26.407,3.045-42.553ZM26.043,111a20.725,20.725,0,0,1,2.534,2.158c.7.57.693.672.112,1.214-1.306,1.263-2.04-.566-2.462-1.313-.517-1-.57-2.021-.184-2.059Zm46.01.08a1.647,1.647,0,0,1,1.433,1.662,4.419,4.419,0,0,0,.006.556,5.172,5.172,0,0,0,.461-.694c1.007-1.687,3.174-.716,2.818,1.221-.167.909-1.7,1.264-2.111,1,.4,1.083,1.468,1.337,2.774,1.806.457.087,1.239.311,1.239.311l.032.733c-7.077,4.466-11.082,12.038-8.488,22.393l-.782,1.06c-1.428-3.439-2.73-3.364-5.077-3.5a5.973,5.973,0,0,1,.919.81c.712.843.395,2.311-.59,2.464-2.281.354-2.3-1.266-2-2.364,0,0-.409.344-.608.474a1.4,1.4,0,0,1-2.138-1.191c-.1-1.1.276-1.812,1.406-1.948a4.347,4.347,0,0,1,.964.05s-.224-.433-.348-.676c-.541-1.063.646-1.972,1.735-1.743,1.72.416,1.585,1.9.589,3.071,2.668.2,4.067-1.547,3.87-3.282a3.632,3.632,0,0,0-3.311-3.628s.338.532.483.789a1.462,1.462,0,0,1-1.364,2.12,1.51,1.51,0,0,1-1.453-2.12c.109-.255.544-.575.478-.6-.046-.02-.643.165-.807.191a1.533,1.533,0,0,1-1.7-2.232,1.954,1.954,0,0,1,2.558-.676c.143.053.318.254.345.21a4.006,4.006,0,0,0-.128-.527c-.286-1.121.251-1.721,1.464-1.643,1.7.109,2.329,1.5,1.189,2.745-.294.322-.746.8-.746.8.057.246,2.42.424,3.628-.843,1.4-1.466,1.619-4.523.214-5.522l-.7-.492c.669,1.344-.563,2.891-1.649,2.6-2.173-.525-1.985-2.305-.556-2.868a5.344,5.344,0,0,1-1.866-1.127,1.461,1.461,0,0,1,.317-2.169,1.961,1.961,0,0,1,2.77.64c.369-1.128.89-1.89,2.43-1.276,1.076.515,1.066,1.954-.119,2.737a5.95,5.95,0,0,1-1.055.485,5.183,5.183,0,0,0,2.258.6,3.713,3.713,0,0,0,3.321-4.956,5.323,5.323,0,0,0-.685-1,3.972,3.972,0,0,1-.2,1.044,1.615,1.615,0,0,1-2.575.416,1.331,1.331,0,0,1,.047-2,3.535,3.535,0,0,1,1.324-.772c-.637-.216-1.346-.372-1.655-1.032a1.473,1.473,0,0,1,.677-1.884,1.716,1.716,0,0,1,.964-.211Zm58.443.269.162,2.442-2.716-1.044Zm-74.843.144.977,2.22-2.522-.011,1.545-2.209Zm52.7,0c2.37,8.776-.964,15.076-7.288,20.011l-.7-.92c4.944-4.207,8.644-9.165,7.009-18Zm-72.672.03s3.663,4.75,2.933,6.358c-.97,1.533-6.746-1.768-6.67-1.942l.724-.7c.917.373,3.772,1.95,4.4,1.7.221-1.436-1.464-3.3-2.1-4.532Zm43.615.009,27.805.513-.831,1.466-2.166.013-4.3,7.607-19.983,0-.528-9.594ZM48.09,112.3l-.961,1.741c-.9.277-3.615.326-3.834.507a27.331,27.331,0,0,1,.688,3.514l-1.071,1.371c-.285-1.687-.761-3.819-1.182-5.383-.361-1.326-.26-1.034,2.56-1.253a25.22,25.22,0,0,0,3.8-.5Zm5.7,2.1,1.144,2.034-2.318.023Zm-27.844.136c.126-.052.844.754.967.987-.052.528-.87.817-1,.628a6.435,6.435,0,0,1,.014-1.591C25.937,114.543,25.941,114.536,25.949,114.532Zm104.887.028-.024,2.545-2.754-1.222Zm21.87.574-.038,1.649c-9.989,4.887-24.889,18.008-29.139,41.543l-.871-.961a61.989,61.989,0,0,1,30.048-42.231ZM52.229,117.4l1.242,1.874-2.242.246Zm78.661.719-.22,2.255-2.712-1.506Zm-52.181.469c.011.535.056.921.089,1.456-6.155,3.991-8.235,10.273-7.21,18.178l-.852,1.262A18.354,18.354,0,0,1,78.709,118.592Zm-50.386.31s2.344,5.288,1.418,6.534c-.9.736-2.979-.489-3.923-.988l-.027-1.264s.72.369,1.445.659c1.49.662,1.494-.126.678-2.335-.287-.777-.571-1.676-.571-1.676Zm121.749.156a19.523,19.523,0,0,0,2.66.969l-.022,1.5-4.188-1.506,1.549-.963Zm-99.3,1.634,1.6,1.68-2.235.513Zm97.293.189a2.52,2.52,0,0,1,.473.012,15.525,15.525,0,0,1,4.156,1.157l-.017,1.664a36.444,36.444,0,0,0-4.474-1.395c-1.161-.161-1.093.491-1.1,2.134a14.417,14.417,0,0,0,1.612,6.461c.88,1.844.421,2.337-1.016,1.514-2.586-1.778-8.1-3.119-8.945-2.084-.872,1.064.846,6.36,2.832,8.887.807,1.027.858,1.192.481,1.592-.305.324-.8.343-1.67.065-2.865-.913-7.011-1.119-8.205-.345s1.9,6.073,4.49,7.785c1.68,1.2,1.356,1.8-1.36,1.859-4.434.021-7.845,1.012-7.656,2.225.321,2.061,3.193,4.887,6.489,6.388,2.017.825,1.174,1.153-.167,1.63a43.789,43.789,0,0,0-6.508,3.108l-1.014-1.3s2.123-1.352,4.432-2.651c.541-.305.513-.416-.245-1.053-2.459-2.065-4.264-4.37-4.641-5.922-.367-1.507.384-2.46,2.619-3.311a18.251,18.251,0,0,1,3.107-.953c1.755-.395,1.785-.449,1.034-1.8-.336-.607-.887-1.608-1.223-2.225-2.616-4.481-1.237-6.1,4.834-6.189,1.491-.079,1.776-.084,1.694-.6-.323-2.111-1.256-4.535-1.124-6.324.278-2.7,3.049-3.349,7.915-2.132,1.127.282,1.2.224,1.007-.688-.883-3.85-.076-7.347,2.189-7.51Zm-17.388.3-.426,2.616-2.592-1.728Zm-96.929.618,7.149.469L39.757,123.6l-4.32-.082-.162,3.695L33.892,128.4Zm46.329.283h5.885l-.047,6.233H80.045l.028-6.233Zm7.012,0h5.477v6.233l-5.43.057-.047-6.29Zm6.559,0h5.872l-.053,6.233H93.647l0-6.233Zm51.295.5a37.475,37.475,0,0,0,.332,5.743c-.095.371-.352.318-1.89-.031a22.556,22.556,0,0,0-4.023-.463l1.239-1.314c1.013.12,1.812.111,2.861.242-.015-1.05.029-3.053.029-3.053l1.452-1.124Zm-95.1,1.233,1.643,1.657-2.1.54Zm80.27.54-.654,2.667-2.38-2.144Zm19.247.073a4.553,4.553,0,0,1,3.283,1.343l.009,1.362-2.339-1.056a13.582,13.582,0,0,0,1.345,4.356l-1.112.523a9.411,9.411,0,0,1-1.687-4.768c.012-.642-.077-1.73.5-1.76Zm-100.319,2.69,1.953,1.164-2.166.877Zm80.324.6-.956,2.743-2.088-2.374Zm-103.549.874,5.268,1.788-.937,1-4.378-1.385Zm73.923.725.434,9.722-27.841-.229.969-1.375,1.809-.015,4.766-8.048Zm-51.07.757,2.069,1.463-2.15.95Zm104.1.858,0,1.59c-6.722,4.975-13.99,13.549-15.226,28.709l-1.814,1.552c.885-14.8,7.039-25.007,17.036-31.851Zm-24.523.058-.977,2.468-1.933-2.3Zm8.009.455a38.662,38.662,0,0,0,1.146,6.022,23.185,23.185,0,0,0-5.589.436l.932-1.665s.861-.091,1.615-.241c1.558-.31,1.4-.121,1.035-1.479a12.22,12.22,0,0,1-.359-1.541A13.816,13.816,0,0,1,136.246,131.44Zm5.133.309c1.827.015,4.569,1.656,5.8,2.592l-.647.726c-.183.061-2.747-1.314-4.762-1.637a24.851,24.851,0,0,0,2.433,4.354l-.941.932c-.284-.064-3.937-5.468-2.97-6.688A1.889,1.889,0,0,1,141.379,131.749ZM33.5,133.014c2.405,14.6,8.153,24.618,17.221,33.637l-.923,1.207a56.291,56.291,0,0,1-18-33.9l1.7-.94Zm15,.613,1.96,1.072-2.013,1.176Zm104.233.044-.013,2.14-1.228-1.24a7.608,7.608,0,0,1,1.241-.9Zm-25.842.437-1.336,2.458-1.744-2.328Zm23.941,1.06c1.778.248,2.349,3.806,1.757,4.5a23.615,23.615,0,0,0-3.833-2.6A7.71,7.71,0,0,1,150.833,135.168Zm-28.579,1.826,2.845.271-1.511,2.351Zm-73.725,0,2.216,1.083-2.012,1.42ZM148.58,138.04a2.844,2.844,0,0,1,1.3.447c2,1.118,3.054,2.342,2.943,3.43-.051.5-.33.6-.654.238a9.646,9.646,0,0,0-4.254-1.84c-1.287-.252-1.405-.362-1.019-.958C147.484,138.452,147.965,138.036,148.58,138.04Zm-34.268,1.032a65,65,0,0,0,15.3,28.081l-1.41,1.2c-5.162-5.933-10.841-12.876-15.478-27.889Zm6.151.625,2.846.432-1.667,2.126Zm-40.139.125c.33.012-.979,4.985-5.5,5.328-2.862.476-3.184.958-3.227,5.422-.059,6.05-1.034,7.466-5.971,7.84-3.269.248-3.7.914-3.146,5.616.527,4.475-1.161,6.757-5.326,6.753-3.608.3-5.1,1.985-5.1,5.333,0,1.356.024,1.683.024,1.683l-2.332.183a28.911,28.911,0,0,1,.181-3.275c.711-4.331,2.565-6.066,6.467-6.047,3.017-.23,3.487-.72,3.382-5.3-.117-4.66-.179-4.63,1.035-5.85a4.724,4.724,0,0,1,3.258-1.288c4.935-.466,5.323-.8,5.311-5.864-.458-4.211.7-6.789,3.376-7,5.4-.429,5.274-3.367,5.036-3.489l2.514-.039.015,0Zm11.049,0c3.17,17.121,13.195,33.152,18.7,39.07l-1.074.57c-8.02-9.979-15.309-21.437-18.914-39.614l1.29-.026Zm-5.722.007,2.507.028L59.283,180.565l-1.522-1.149,27.89-39.587Zm3.5.028c2.713,9.868,4.847,19.518,13.377,32.427l-36.185-.238Zm9.991.039c.211-.1,1.061,4.993-.206,7.343-1.139,3.181-.582,4.972,1.9,6.131,4.255,1.991,5.328,3.977,4.788,8.865-.378,3.421.656,5.075,3.862,6.175,3.825,1.311,5.5,3.372,5.478,6.749a4.3,4.3,0,0,1-.2,1.11l-2.134,1.257s.026-.459.107-1.009c.557-3.743-.151-4.758-4.563-6.524-4.167-1.667-5.2-3.595-4.49-8.4a7.128,7.128,0,0,0-.736-4.346c-1.091-1.945-3.5-1.927-5.235-3.7-1.431-1.522-1.591-3.646-.371-7.284.756-2.255.87-3.108.283-4.987-.388-1.237-.539-1.347-.539-1.347Zm-50.256.542,2.455.681L49.5,143.04Zm97.489.51a9.273,9.273,0,0,1,3.806.938c3.06,1.527,3.617,2.78.935,2.1a12.844,12.844,0,0,0-5.785.225c-2.217.55-2.17.574-1.407-.769C144.894,141.747,145.146,140.982,146.378,140.948Zm-11.04.64a15.2,15.2,0,0,1,5.485,1.164l-.557.959a14.6,14.6,0,0,0-4.347-.652,15,15,0,0,0,2.868,3.492l-.451.963c-.108.13-3.528-2.728-4.214-4.649C133.813,142,134.093,141.619,135.338,141.588Zm-40.222.222a1.663,1.663,0,1,1-1.658,1.661A1.659,1.659,0,0,1,95.116,141.81Zm34.351.05s2.7,5.356,2.531,5.56c-1.675.74-3.5,1.123-5.345,1.8l.353-1.557a12.161,12.161,0,0,0,2.672-.829c.986-.376-1.075-3.122-1.075-3.122Zm-10.982.4,2.8.5-1.868,2.1Zm-52.39.02c.663-.053,1.687,1.235,1.684,1.237l-3.4,4.7a1.461,1.461,0,0,1,.209-2.853c.342,0,.966.061.966.061a2.606,2.606,0,0,1-.718-.6C63.848,143.627,64.787,142.384,66.1,142.28Zm44.673,1.163c3.944.033,3.994,4.881,3.238,6.485-.549,1.1-1.384,1.711-3.909,2.853a8.018,8.018,0,0,1-2.433.924l-.523-1.169s1.275-.563,2.647-1.118c2.837-1.147,3.526-2.024,3.215-4.079-.44-2.91-2.684-3.362-7.024-1.412-.5.227-1.139.454-1.139.454l-.3-.587a29.74,29.74,0,0,1,5.386-2.29A5.607,5.607,0,0,1,110.768,143.443Zm-61,.527,2.232.738-1.628,1.6Zm99.408.625c1.972,0,3.6.328,3.592,1.032,0,.334-.078.364-1.849.61-2.692.374-7.191,2.675-9.721,4.81-1.5,1.265-1.111.971-.479-.863s1.565-4,2.072-4.333C144.056,145.021,146.938,144.6,149.173,144.6Zm-32.245.252,1.9.416-1.234,1.2Zm-6.361,1.033c.68-.01,1.014.311,1.281.962.578,1.408.007,2.236-2.192,3.18a13.311,13.311,0,0,1-2.98,1.275l-1.382-3.717s.437-.161,1.875-.757A10.178,10.178,0,0,1,110.567,145.88Zm-6.416.451a82.283,82.283,0,0,0,15.45,27.221l-1.375.861a79.271,79.271,0,0,1-15.6-27.888Zm48.525.386c.191.02.286.09.253.225,0,.522-7.9,8.02-12.416,11.838-2.058,1.739-1.987,1.725-2.163,1.51a21.633,21.633,0,0,1,1.3-6.71,24.759,24.759,0,0,1,12.2-6.78A3.044,3.044,0,0,1,152.676,146.717Zm-42.435.056a9.282,9.282,0,0,0-2.394.749c-1.548.6-1.682,1.321-.988,2.215.3.39.615.305,2.1-.286,1.519-.6,2.174-.871,2.266-1.413C111.361,147.248,110.925,146.754,110.241,146.773Zm.14.419a.558.558,0,0,1,.526.571c0,.242-.351.476-.713.473a1.015,1.015,0,0,0-.638.276c-.2.283-.322.556-.675.489a1.072,1.072,0,0,0-.731.076c-.694.6-1.384.1-1.063-.5a.71.71,0,0,1,.59-.23c.2,0,.646-.045.711-.287.078-.29.522-.37.831-.36a.732.732,0,0,0,.692-.264.811.811,0,0,1,.411-.238.583.583,0,0,1,.059,0Zm-35.712.1a1.664,1.664,0,1,1-1.658,1.662A1.663,1.663,0,0,1,74.669,147.289Zm-24,.034,2.514.343L51.6,149.7Zm50.19,1.282a1.662,1.662,0,1,1-1.659,1.662A1.661,1.661,0,0,1,100.857,148.6Zm-49.066,1.878,2.728.175-1.563,2.092Zm14.4.4a1.661,1.661,0,1,1-1.659,1.66A1.658,1.658,0,0,1,66.192,150.883Zm68.139,1.037c1.138-.019,2.457.1,2.457.1l-.32,1.277c-1.387.132-3.167-.253-4.655.37.552.905,3.79,2.186,4.148,2.505a10.85,10.85,0,0,1-.267,1.354c.087.311-5.479-2.263-5.664-4.436C130.035,152.351,132.436,151.95,134.331,151.92Zm-19.143,1.327c3.163.029,4.724,4.453,3.5,6.411a9.147,9.147,0,0,1-3.033,2.86c-.7.444-2.542,1.35-2.542,1.35l-.829-1.283a15.2,15.2,0,0,0,1.429-.676c1.743-.985,5.276-3.087,3.568-5.947-.959-1.547-2.395-1.849-5.376-.333a16.308,16.308,0,0,1-2.733,1.239l-.565-1.026C108.75,155.927,113.046,153.337,115.188,153.247Zm10.189.166a18.79,18.79,0,0,0,4.8,5.67s-2.573,1.655-4.11,2.709l-.9-1.063,2.206-1.9-2.486-3.474Zm-71.935.295,2.483,0-1.062,2.242-1.421-2.247Zm96.166.411a40.008,40.008,0,0,0-.442,4.668,2.141,2.141,0,0,0,1.463.72,11.732,11.732,0,0,0,.6-5.02A2.927,2.927,0,0,0,149.608,154.119Zm.749.435a.3.3,0,0,1,.206.012c.31.151.284.373.29.652a7.951,7.951,0,0,1-.282,3.063c-.232.523-.761.327-.779-.385-.025-.962.171-1.77.226-2.646C150.042,154.875,150.169,154.613,150.357,154.554ZM115,155.873c1.631.122,2.259,1.488,1.657,2.469-1.473,1.885-2.98,2.228-4.912,3.319l-1.929-3.613S113.57,155.924,115,155.873Zm-.045.807a7.764,7.764,0,0,0-2.666,1.1c-1.11.544-1.471,1.388-.718,2.151.831.928,3.73-1.282,4.209-1.816a.823.823,0,0,0-.168-1.207A1.05,1.05,0,0,0,114.954,156.68Zm-59.476.153,2.43.027-1.314,1.859Zm59.423.286a.55.55,0,0,1,.274.094.514.514,0,0,1-.2.969c-.3.076-.8.079-.815.473-.008.293-.456.4-.711.361s-.7-.065-.788.262c-.224.446-.391.454-.7.143-.336-.34-.178-.77.477-.842a.82.82,0,0,0,.623-.45c-.015-.278.18-.44.488-.377a1.2,1.2,0,0,0,1.032-.573A.653.653,0,0,1,114.9,157.119Zm-13.938.143a1.663,1.663,0,1,1-1.657,1.66A1.659,1.659,0,0,1,100.963,157.262Zm-35.414,3.056a1.663,1.663,0,1,1-1.659,1.665A1.666,1.666,0,0,1,65.549,160.318Zm69.847,1.407.012,1.251c.042.056-2.582,1.216-4.12,1.913-.5.273-.3.8-.273,1.348l-.739.5s-1.024-.748-1.158-1.228c-.375-1.514,4.44-3.328,6.278-3.786Zm-109.531.067,19,13.013-1.3,1.9L25.919,164.684l-.054-2.892Zm95.372.424c1.236,0,2.188.713,3.11,2.149,1.831,2.853.913,5.1-2.878,7.4-1.761,1.068-1.774,1.081-1.774,1.081l-.9-1.107s1.283-.757,1.813-1.092c3.117-1.971,3.993-3.716,2.624-5.681-1.321-1.893-2.708-1.742-6.556.71a13.037,13.037,0,0,1-1.709.885l-.844-1.149s2.179-1.122,2.921-1.595A8.315,8.315,0,0,1,121.237,162.216Zm-13.265.853a1.664,1.664,0,1,1-1.659,1.662A1.663,1.663,0,0,1,107.972,163.069Zm-51.461.466a1.661,1.661,0,1,1-1.658,1.662A1.659,1.659,0,0,1,56.511,163.535Zm64.655,1.328a1.429,1.429,0,0,1,1.36,1.016c.659,1.607-.237,2.8-3.482,4.619-.272.153-.849.465-.849.465l-2.391-3.307s.842-.579,1.636-1.055C119.218,165.436,120.357,164.892,121.166,164.863Zm-.318.791a1.158,1.158,0,0,0-.534.183,9.374,9.374,0,0,0-2.882,1.874c-.384.533-.21,1.063.518,1.746.617.409,3.8-1.94,3.883-2.623C121.563,166.111,121.307,165.641,120.848,165.654ZM26,165.833l.531.357-.531.419Zm94.879.4a.674.674,0,0,1,.476.18.541.541,0,0,1-.406.861.82.82,0,0,0-.744.485.855.855,0,0,1-.782.445.462.462,0,0,0-.618.319.6.6,0,0,1-.96.074c-.226-.241.18-.934.447-.924.047.022.34.088.7-.388a.779.779,0,0,1,.765-.545c.3.1.469-.227.588-.408A1.094,1.094,0,0,1,120.879,166.232Zm-93.616.432.763.515L26,168.619v-1.16Zm1.479.969,1.04.695L26,171.041V169.57Zm1.939,1.238,1.095.727L26,173.506V172Zm2.08,1.057v1.257L26,175.912v-1.274Zm.763.9,1.456,1,.365,42.613-9.109,6.269.008-1.863,7.649-5.538-.369-42.479ZM143.4,171.984c-2.043,2.336-4.783,2.493-7.173,2.429-6.438.09-10.435.435-11.263,8.126,2.624-1.964,5.4-2.219,8.624-2.126,4.079-.006,5.913-.273,7.571-1.1,2.662-1.331,4.348-3.714,4.026-5.386C144.871,173.564,144.043,172.073,143.4,171.984Zm-110.641.373v1.474L26,178.368v-1.5Zm77.194.136a1.661,1.661,0,1,1-1.657,1.662A1.663,1.663,0,0,1,109.955,172.493Zm-44.132.171c11.945.372,37.312.228,37.312.228l1.353,1.952L64.6,174.425Zm77.852.07c.365-.024.414.468-.341,1.21-1.429,1.4-2.912,2.091-7.609,2.007-4.963-.089-6.9.7-8.182,2.91-.373.643-.365.894.175.408.453-.54,1.485-1.581,1.911-.6.843-.553,1.573-1.394,2.014-.33.244-.054,1.674-1.49,2.013-.219.683-.765,1.269-1,1.59.082.972-.462,1.488-1.336,2.04-.129.782-.561,1.375-1.262,1.832-.193.667-.2,1.348-1.423,1.734-.446a8.617,8.617,0,0,0,3.168-2.869c.56-1.269,1.075-.426.438.87-1.636,3.174-4.434,4.333-10.855,4.342-3.9,0-5.512.388-6.736,1.1-1.966,1.148-.906-1.743.472-3.5,1.736-2.21,3.715-2.863,9.138-2.665,2.965.017,4.859-.393,5.661-1.041A3.689,3.689,0,0,1,143.675,172.734Zm-88.105.672a1.664,1.664,0,1,1-1.659,1.665A1.665,1.665,0,0,1,55.57,173.406Zm-22.809,1.232v1.5L26,180.759v-1.533Zm32.686.719h5.245V180.9H65.447Zm11.755,0h5.644V180.9H77.2Zm12.564.178h5.446V180.9H89.766Zm11.8.108,3.625.125s2.014,2.566,2.864,3.749l-2.681,1.378-3.808.008v-5.259Zm-33.6.377a1.85,1.85,0,1,0,1.848,1.848A1.848,1.848,0,0,0,67.969,176.02Zm12.062.183a1.85,1.85,0,1,0,1.848,1.848A1.848,1.848,0,0,0,80.031,176.2Zm12.336.048a1.85,1.85,0,1,0,1.848,1.847A1.848,1.848,0,0,0,92.367,176.251Zm-29.442.376a1.432,1.432,0,0,1-1.588,2.382Zm5.044.018a1.225,1.225,0,1,1-1.223,1.223A1.224,1.224,0,0,1,67.969,176.645Zm30.428.047a1.486,1.486,0,1,1-1.479,1.487A1.486,1.486,0,0,1,98.4,176.692Zm6.249,0a1.85,1.85,0,1,0,1.849,1.848A1.848,1.848,0,0,0,104.646,176.7Zm-30.69.055a1.487,1.487,0,1,1-1.481,1.487A1.484,1.484,0,0,1,73.956,176.75Zm6.075.078a1.225,1.225,0,1,1-1.224,1.223A1.224,1.224,0,0,1,80.031,176.828Zm-47.27.022v1.492L26,183.072v-1.466Zm59.606.025a1.225,1.225,0,1,1-1.225,1.223A1.223,1.223,0,0,1,92.367,176.875Zm-6.184.155a1.486,1.486,0,1,1-1.484,1.487A1.484,1.484,0,0,1,86.183,177.03Zm18.463.291a1.224,1.224,0,1,1-1.223,1.222A1.223,1.223,0,0,1,104.646,177.321Zm-52.581,1.285a10.658,10.658,0,0,1,8.477,4.222c2.908,3.9,4.852,8.862,5.734,15.381.437,3.229,1.94,12.923,2.793,15.214L67.9,213.2c-.159.075-1.666-6.1-2.616-14.252a32.2,32.2,0,0,0-2.742-10.475c-2-4.063-5.392-8.368-9.919-8.71-2.639-.2-5.117,1.458-5.384,3.793a3.706,3.706,0,0,0,2.115,4.136c1.391.566,3.052.144,3.238-1.754a1.927,1.927,0,0,0-.115-.916,1.239,1.239,0,0,1,1.4.73c.136.017,0,2.753-2.143,3.291-2.592.85-5.584-1.719-5.816-4.338a6.049,6.049,0,0,1,3.611-5.67A7.97,7.97,0,0,1,52.065,178.606Zm-19.3.849v1.521L26,185.649v-1.532Zm19.453.966c3.781-.108,7.462,4.116,9.021,6.9a33.236,33.236,0,0,1,3.36,11.854c.755,7.379,2.167,13.414,2.464,13.688l-1.031-.225c-.216.145-1.636-6.518-2.5-13.934a30.912,30.912,0,0,0-3.859-11.461c-1.692-2.932-3.972-5.122-6.672-5.44-1.692-.171-3.432.318-3.773,2.1a1.736,1.736,0,0,0,1.607,2.167c.293.021.573.044.625.053.657.118-.375,1.186-1.054,1.092a3.113,3.113,0,0,1-1.631-5.31A5.288,5.288,0,0,1,52.214,180.421Zm8.1,1.083,42.465.432s.036.761-2.606.636a13.447,13.447,0,0,0-5.189.686l-33.364-.073ZM32.761,182v1.413L26,188.148v-1.56Zm19.735.6a4.551,4.551,0,0,1,2.274.563c5.26,3.052,7.269,10.628,7.962,15.4.945,7.063,2.035,13.624,2.339,13.786l-1.147-.26A93.906,93.906,0,0,1,61.736,199.1c-.631-5.546-2.526-11.117-6.281-13.46-2.41-1.643-2.883-1.808-4-.849-.963.827-1.941-.418-1.135-1.432A3.23,3.23,0,0,1,52.5,182.6Zm-19.735,1.914v1.16L26,190.384V189.01Zm30.907.03c.087-.081,3.655,5.985,4.782,15.547.593,5.035,2.292,13.619,2.564,13.689l-1.236-.132c-1.264-5.063-1.962-9.854-2.637-14.173-.764-4.886-1.378-9.227-4.417-14.892l.941-.032,0-.008Zm.81.051,1.105.016a46.193,46.193,0,0,1,4.591,14.806,73.034,73.034,0,0,0,2.936,14.9l-1.185-.327c-1.486-4.165-2.014-9.2-2.813-14.414-.884-5.766-2.271-10.787-4.634-14.985Zm6.815.008c1.932,5.013,3.189,7.4,4.072,13.572a89.862,89.862,0,0,0,3.854,17.118L78.1,215.24a67.649,67.649,0,0,1-3.453-15.874,48.375,48.375,0,0,0-4.239-14.749l.883-.019Zm-1.9.019c.1-.156,3.684,7.018,4.513,14.9a72.583,72.583,0,0,0,3.46,15.451l-1.142-.026c-1.32-1.529-2.309-8.775-3.4-15.538a50.827,50.827,0,0,0-4.416-14.779h.98a.017.017,0,0,1,0-.012Zm-2.886.008,1.015,0A47.821,47.821,0,0,1,72.1,199.521c1.035,7.108,2.028,13.521,3.126,15.191l-1.239-.082a75.9,75.9,0,0,1-3.088-15.366,44.317,44.317,0,0,0-4.389-14.639Zm5.6.047,1.207.019a44.883,44.883,0,0,1,4.411,15.2,73.2,73.2,0,0,0,3.3,15.581l-.964-.061a73.883,73.883,0,0,1-3.824-16.168,52.308,52.308,0,0,0-4.131-14.573Zm7.424.034a54.636,54.636,0,0,1,2.692,8.815l-.682,1.332a97.5,97.5,0,0,0-3.466-10.126Zm-5.5.005,1.469.035a68.805,68.805,0,0,1,4.173,14.146s.348,1.841.371,2.445c-.085,5.125.8,8.781,2.7,14.291l-.873-.063a69.594,69.594,0,0,1-3.369-15.3,44.612,44.612,0,0,0-4.476-15.555Zm3.391.046a113.974,113.974,0,0,1,3.691,11.01,4.1,4.1,0,0,1-.662,2.392c-1.225-4.436-2.259-9.047-4.152-13.395l1.123-.008Zm2.773.031,1.163.02,2.316,6.647-.907,1.006C82.088,190.26,81.391,187.84,80.2,184.788Zm6.784.047.849,2-.914.776a23.3,23.3,0,0,1-1.179-2.752Zm1.725,0,.426,1.152-.768.586-.6-1.715Zm-6.656.023,1.2.008c.483,1.4,1.769,4.817,1.769,4.817l-.859.9s-1.621-4.322-2.107-5.728Zm1.855,0,1.062.011c.319.908,1.314,3.421,1.314,3.421l-.734.7Zm5.551.047,1.051.05-.124.26-.655.326Zm-34.434,1.479c4.4,2.322,5.611,9.278,6.088,13.1a106.408,106.408,0,0,0,1.963,12.249l-.975-.156s-.722-3.429-1.221-6.691c-.415-2.714-.736-4.987-.849-6.027-.07-.65-.179-1.407-.24-1.681a18.564,18.564,0,0,0-1.6-5.037,11.109,11.109,0,0,0-2.293-3.431,8.489,8.489,0,0,1-1.123-1.3C54.53,186.911,55.021,186.384,55.021,186.384Zm-22.26.356v1.312L26,192.834v-1.5Zm0,2.3v1.51L26,195.018V193.68Zm0,2.573v1.4L26,197.735v-1.447Zm11.289,1.416h.6l.042.982-.92-.058.282-.924Zm-11.289,1.212v1.5L26,200.212v-1.4Zm10.592.571,1.429.015-.016,1.029L42.93,195.8l.423-.982Zm-.829,1.649,2.347.042v.979l-2.909-.047.562-.974Zm-9.763.212v1.573L26,202.751V201.17Zm8.566,1.636,3.436.037-.02.819-4.1-.026Zm-8.566.911v1.537L26,205.094v-1.382Zm7.132.73,4.719.066-.117.791-5.381-.024.779-.833Zm-7.132,1.673V203.1L26,207.513v-1.422Zm5.362,0,6.21.142,1.309,1.193-9.666.058,2.147-1.393Zm-1.879,2.181,10.676.131.744.691-11.456.042.036-.864Zm-3.483.338v1.568L26,210.147v-1.432Zm3.494,1.377,11.832.055-.856.95-10.992.031.016-1.036Zm-3.494,1.188v1.435L26,212.74v-1.649Zm3.2.749,10.228.034-1.2.943-7.068.164-1.96-1.141Zm-3.2,1.773V210.6L26,215.453v-1.537Zm6.191.175,6.005.026.112.809-5.164-.013Zm1.662,1.665,4.61.047.217,1.044-4.1-.055-.724-1.036Zm-7.853.73v1.272L26,217.8v-1.409Zm12.781,1.044.053.993-2.75.105-.775-1.04,3.472-.058Zm-.023,1.762-.024,1.044-1.918.03-.43-1.005,2.372-.069Zm-1.706,1.859,1.512.011-.128.8-1.17.016-.214-.83Zm.454,1.929H45l-.125.628H44.5Zm14.955,10.626-.353.453H69.438l.115-.453Zm13.626,0-.188.613h4.769l.133-.613Zm7.79.12-.147.579H92.683l-.2-.579Zm14.587,0,.248.7h4.1l-.272-.7Zm14.154,0-7.2,0,.259.784h7.447l-.506-.788Z"/></g></g></g></g></g><path id="32a60eef-52f1-42f3-b1c8-811cbb370603" data-name="path163-0-2-5-8-7-5-0-7-4" d="M48.375,65.052s-3.733-6.124-8.769-13.324c-3.369-4.819-6.062-10.037-6.313-14.531-.287-5.134,2.432-10.284,7.354-10.534s6.915,3.958,7.728,7.428c.812-3.47,2.809-7.677,7.728-7.428s7.64,5.4,7.353,10.534c-.25,4.494-2.944,9.712-6.313,14.531-5.035,7.2-8.768,13.324-8.768,13.324Z" fill="#d40000"/><path id="bff7decc-9012-4195-af96-f30fda746b04" data-name="path163-0-2-5-8-7-7-8-0-0-6" d="M131.2,185.39s-3.733,6.124-8.769,13.325c-3.369,4.818-6.062,10.036-6.312,14.53-.287,5.134,2.431,10.284,7.353,10.534s6.915-3.958,7.728-7.428c.813,3.47,2.809,7.677,7.728,7.428s7.641-5.4,7.353-10.534c-.25-4.494-2.943-9.712-6.312-14.53C134.934,191.514,131.2,185.39,131.2,185.39Z" fill="#d40000"/></g></g></g></g></svg>