<svg xmlns="http://www.w3.org/2000/svg" xmlns:xlink="http://www.w3.org/1999/xlink" viewBox="0 0 179.576 250.442"><defs><pattern id="72211bc5-5fea-486c-b2ef-15de2a65631e" data-name="pattern17656" width="595.276" height="841.89" patternTransform="matrix(0.8, 0, 0, -0.8, -615.4, 1249.292)" patternUnits="userSpaceOnUse" viewBox="0 0 595.276 841.89"><rect width="595.276" height="841.89" fill="none"/></pattern></defs><title>JS</title><g id="6e4b3bbf-c9d2-496e-ad36-b293f082639b" data-name="Layer 2"><g id="0f24d245-3c85-4b3c-a197-bd240cf969da" data-name="Spades"><g id="c569ce59-aef9-421e-921a-ebedeafd0b70" data-name="JS"><g id="71d2b2d9-d294-450f-b87b-20a105196908" data-name="g101251"><rect id="e49c3632-8f6b-495d-80dc-61ddcee21857" data-name="rect5511" x="0.496" y="0.496" width="178.583" height="249.449" rx="8.504" ry="8.504" fill="#fff" stroke="#b3b0b0" stroke-width="0.993"/><path id="444e977b-daed-4752-a7fb-95977e6c1f7a" data-name="path7363-8-9" d="M14.27,40.475c-3.448,4.386-7.138,6.91-7.2,10.331a3.322,3.322,0,0,0,2.755,3.352A2.861,2.861,0,0,0,13.11,51.4c-.008-.4.473-.388.468.158a10.44,10.44,0,0,1-1.566,4.913h4.517a10.452,10.452,0,0,1-1.567-4.913c-.008-.546.475-.557.469-.158a2.861,2.861,0,0,0,3.284,2.754,3.323,3.323,0,0,0,2.755-3.352c-.062-3.421-3.751-5.945-7.2-10.331Z"/><path id="c33ce3c8-29ae-4441-af6d-0685fe5a33e5" data-name="path7367-3-1" d="M165.306,209.967c-3.448-4.386-7.138-6.91-7.2-10.331a3.322,3.322,0,0,1,2.755-3.352,2.86,2.86,0,0,1,3.283,2.754c-.008.4.473.389.469-.158a10.445,10.445,0,0,0-1.567-4.913h4.518A10.445,10.445,0,0,0,166,198.88c-.008.547.475.557.469.158a2.86,2.86,0,0,1,3.283-2.754,3.322,3.322,0,0,1,2.755,3.352c-.062,3.421-3.751,5.945-7.2,10.331Z"/><path id="7be96e0a-a512-4d93-95a2-efa86e78dc6a" data-name="path35-7-9-2" d="M14.184,11.567V14.33h2.683s.065,2.664.089,8.314c.021,5.487.132,8.209-.217,9.772-.94,3.6-6.159,3.621-7.2,1.032a10.481,10.481,0,0,1-.47-4.195H6.188s.017.764.021,1.7C6.226,35,7.566,36.938,10.7,37.7c3.227.871,7-.458,8.341-3.215.8-1.572.708-1.68.727-11.181.012-6.338.108-8.976.108-8.976h2.471V11.567Z"/><path id="cfe00c64-2fda-497c-9ff2-c0eccebfb8be" data-name="path35-7-8-1-4" d="M165.39,238.875v-2.763h-2.683s-.065-2.664-.089-8.314c-.02-5.487-.132-8.209.217-9.772.94-3.6,6.159-3.621,7.2-1.032a10.481,10.481,0,0,1,.47,4.195h2.885s-.017-.764-.021-1.7c-.017-4.05-1.357-5.987-4.5-6.751-3.227-.871-7,.458-8.341,3.215-.8,1.572-.708,1.68-.727,11.181-.012,6.338-.108,8.976-.108,8.976h-2.471v2.763Z"/><g id="cfc4eadb-0942-4286-95b2-824f6d3ebe0e" data-name="g3851-4-2-7-4"><path id="b65e97d0-941a-47d1-8f4d-ab44592075d1" data-name="path4037-8-0-2" d="M24.188,19.621v211.2h131.2V19.621ZM65.867,20.78,125.3,21l-9.213,14.066c-12.013-3.8-31.5-1.333-41.548.585-2.641-4.4-6.471-9.927-8.673-14.869Zm-39.953.54H64.071l8.961,16.255c.325.453.015,1.388-.179,1.914a41.409,41.409,0,0,1-4.321,8.6c-2.119,3.5-2.88,6.712-2.128,8.869a2.167,2.167,0,0,1,.172,1.006,5.058,5.058,0,0,1-2.264,3.172c-.838.134-2.58.241-3.588,1.235a5.276,5.276,0,0,0-1.462,4.377,11.052,11.052,0,0,0,.156,1.332c-11.4,4.725-19.565,10.262-19.294,10.465-.107-.049-10.084-4.595-14.21-5.72Zm101.506,0h26.191V95.994l-9.889-6.5c.825-.572,1.335-.912,2.2-1.5.154-.047.446-.052.635-.094,1.751-.389,2.973-1.7,2.365-3.048-.413-.919.151-.863.659-1.612a2.075,2.075,0,0,0,.089-2.3c-.18-.352-.081-.492.222-1.142a2.287,2.287,0,0,0-.814-3.211c-.109-.16.113-.407.164-.637a2.2,2.2,0,0,0-1.411-2.823c-.6-.155-.8-.258-.588-.792.375-.948-.12-1.3-.9-1.608-1.314-.518-.942-.6.682-1.328,3.323-1.489,4.105-5.916,1.819-9.933-.291-.511-1.067-1.71-1.593-2.513-.616-.938-1.212-1.747-1.212-1.747l4.4-6.112a49.1,49.1,0,0,1-4.154-5.616c.257-.987,3.323-4.086,3.721-7.094.624-4.718-2.97-7.737-6.37-7.382-2.359.246-5.26,1.749-5.042,6.116a10.191,10.191,0,0,0,1.562,4.454c.674,1.269,1.546,2.613,2.381,3.9l-4.426,6.03,4.473,5.646s-.059.091-.156.245a45.229,45.229,0,0,0-2.3,4c-1.65,3.25-2.234,6.819,1.153,9.335a7.977,7.977,0,0,1,1.3.92c.332.329.125.579-.409.7a10.732,10.732,0,0,0-1.933.385,21.251,21.251,0,0,0-5.766,3.238,16.71,16.71,0,0,0-3.055,4.613c-.908,1.914-1.161,2.338-1.161,2.338L114.7,71.006s-.395-.311-.5-.431c-.289-.324-.185-.512.016-.87a4.4,4.4,0,0,0,.1-1.876,3.085,3.085,0,0,1,.74-2.5,1.771,1.771,0,0,0,.223-1.491c-.244-.73-.267-.5.2-1,.182-.223.4-.333.437-.575.047-.323.017-.887.023-1.941.011-2.112-.017-1.938,1.173-2.866,1.478-1.153,2.029-1.7,2.264-2.217.336-.747,0-1.311-.83-2.8-.38-.682-.967-1.6-1.251-2.116a17.942,17.942,0,0,1-1.664-3.3,3.716,3.716,0,0,1,.043-3.351c.643-1.142.822-1.832.8-4.14-.021-2.139-.177-1.94.37-2.656C120.929,31.476,127.42,21.32,127.42,21.32Zm16.653,8.019c.088,0,.177,0,.265.008a5.542,5.542,0,0,1,3.752,1.619c1.615,1.613,1.5,3.937.974,6.357a8.333,8.333,0,0,1-.923,2.151,5.355,5.355,0,0,0-.5.839,15.177,15.177,0,0,1-.884,1.421c-.476.715-1.021,1.712-1.021,1.712a25.6,25.6,0,0,0,2.108,3.06c1.017,1.507,1.676,2.819,1.753,2.742a5.474,5.474,0,0,1-.612,1.114,47.739,47.739,0,0,0-3.117,4.625c-.018.074-.222.149-.218.222.014.271.405.592.994,1.4,3.553,4.862,4.056,8.967,1.387,11.377a4.944,4.944,0,0,1-4.044,1.426,5.183,5.183,0,0,1-4.676-5.662,7.1,7.1,0,0,1,.916-3.612A21.634,21.634,0,0,1,142.09,56.7a15.634,15.634,0,0,0,1.064-1.445,50.714,50.714,0,0,0-3.589-4.667,4.757,4.757,0,0,1-.678-1.173l3.982-5.879a14.115,14.115,0,0,0-1.239-2.3c-1.592-2.367-2.619-4.884-2.609-6.3C139.045,31.412,141.36,29.344,144.073,29.339Zm9.916,83.99c-2.351,1.246-4.64,5.5-.166,2.534l.112,2.448c-2.327,3.291-6.877.878-5.72-2.53-3.142.406-3.632-2.773-3.472-4.285-4.132-.9-2.7-5.258-2.7-5.258-2.388-1.989-2.806-4.073-.872-6.269-1.956-1.212-2.507-1.988-4.656-2.868,1.648,14.6,9.557,22.189,17.881,28.949-.221,0-.245,4.7-.768,3.837-11.885-8.851-19.526-18.972-20.84-35.343-.1.257-5.636-4.27-6.551-4.029-1.918,26.509,19.258,43.935,28.064,47.369a30.384,30.384,0,0,1-.026,3.707c-13.347-5.8-28.187-22.832-31.046-43.092l-7.874,12.154L112.4,109.4,125.133,89.4l-8.611-5.378L102.5,106.16s-.372,1.846.642,1.818c19.679,2.1,48.944,25.661,39.139,64.01-.851-.335-2.2-.991-2.272-.963,1.538-3.3,5.829-24.714-7.079-42.008-5.914-7.923-15.086-16.356-29.8-18.845,1.216,2.5.686,8.174.686,8.174l3.428.691a10.35,10.35,0,0,1-2.583-3.545c-.642-2.06.3-3.28,2.587-2.055.909.509,1.138.489,2.022-.167,1.843-1.364,3.946.041,3.46,2.311-.071.335.018.547.893.625a8.064,8.064,0,0,1,5.271,2.711c.634.809.777.689,1.341.2,1.383-1.2,3.674.461,3.265,2.314-.234,1.059-.105,1.313.385,1.518,2.7,1.133,3.367,1.847,4.208,4.206.309.864.562,1.148.721,1.1.112-.035.556-.183.947-.33,2.018-.762,3.2,1.67,1.769,3.576-.293.391-.076.766.444,1.049a6.812,6.812,0,0,1,3.02,5.382c.075.87.167.871,1.04.835,2.234-.094,3.3,2.913,1.481,4.019-.633.385-.515.882-.024,1.464a5.372,5.372,0,0,1,1.493,4.407c-.153,2.337,0,2.291.744,2.575,2.171.824,1.766,4.281-.363,4.27,1.533,3.56-.486,7.9-.42,7.981,4.091,2.294.4,4.731-.791,4.3,0,0-.606,1.6.082,2.423-3.589,4.732-8.287,5.517-13.489,7.867l-.164-16.659c2.164,1.737,4.308,3.357,6.452,4.971,0,0,.544-.163.049-.618-.954-.879-3.352-2.425-4.023-3.04a89.43,89.43,0,0,1-7.7-7.351c-.423-.8-1.061-.336-1.044-.288a37.151,37.151,0,0,0,1.929,3.5c1.776,2.452,3.5,5.177,3.319,7.873a10.223,10.223,0,0,1-.943,3.825c-.249,1.035-1.905-.177-1.488-1.049.736-2.389,1.345-4.347-1.286-8.186a54.29,54.29,0,0,1-2.946-5.269l-1.063.256.039,21.734c-.893.037-3.155.621-2.689.637,7.051-1.4,9.208,8.651,2.4,8.978-1.293.046-2.63,2.265-2.766,3.468.058,2.919.488,6-1.656,8.8a27.806,27.806,0,0,0-1.344,2.827c-2.617,4.619-3.786,7.266-3.519,8.458.069.306.133.71.133.71a95.683,95.683,0,0,1-22.984,2.8,100.652,100.652,0,0,1,4.936-12.434c1.565-3.082,2.372-5.189,1.933-5.825-6.66.333-5.383-9.4.989-9.055,0,0,1.6-5.607,3.386-8.136,1.694-.94,5.1.34,7.014-.92,4.5-1.376,7.449,3.93,7.449,3.93l1.212-5.048-39.812-.191s-3.874,1.6-5.97.738a19.173,19.173,0,0,1-3.25-2.011S76.7,150.983,78.931,147.47c.182-.286-.4-.9-.4-.905-.084-.8-18.224,28.351-18.224,28.351C50.068,168.379,37.2,160.108,25.785,152.84l-.031-10.919c8.287-5.2,7.536-7.331-.132-1.658-.107.09-.164-4.1-.164-4.1,5.845-5.205.984-3.575-.17-1.772.028-1.3-.274-3.059.56-3.835,2.554-2.347,5.564-.193,5.716,3.276,3.332.651,2.918,3.57,3.777,4.742,3.4,1.912,1.608,4.812,2.451,5.8,3.579,2.249,1.083,5.864.325,5.782.451.3,4.9,3.274,5.28,3.165-.386-15.577-16-28.147-18.075-29.668l.366-3.359S47.2,134,47.009,156.005l6.857,4.062C53.257,137.493,43,122.186,25.707,112.494l-.225-4.182C40,115.046,53.463,128.676,56.6,151.015l8.038-12.434,2.833,1.367L54.562,160.586l8.059,5.283c6.251-8.2,11.465-18.262,14.642-23.047-.083-.438-.257-1.064-.257-1.064-30.73-5.052-48.039-33.752-39.789-63.739l2.135.936c-6.407,22.209,4.042,54.176,37.463,60.713-.066-2.361-.483-8.17-.483-8.17s-4.391-1.316-3.745-.788c1.076.916,3.493,4.867,2.471,6.271a5.264,5.264,0,0,1-3.308-1.289c-.507-.37-.521-.291-1.091.315-1.58,1.68-3.875.717-3.9-1.592-.009-.976-.046-1.183-1.434-1.193-2.106-.015-3.051-.375-4.313-2.058-.895-1.194-.813-1.2-1.867-.839a2.16,2.16,0,0,1-3-2.71c.312-.776-.02-1.025-.939-1.177-1.787-.294-3.809-2.53-4.181-4.357-.075-.373-.263-.467-1.316-.431-2.068.072-3.212-1.178-2.4-2.928.441-.946.565-1.328-.261-1.968a5.953,5.953,0,0,1-2.034-2.284,9.153,9.153,0,0,1-.654-2.846c-.085-.559-.272-.65-1.005-.746-2.138-.277-2.981-2.457-1.411-3.871.479-.432.478-.421-.249-1.359-1.4-1.8-1.923-4.16-1.313-5.728a.77.77,0,0,0-.495-1.068c-1.949-.484-1.983-2.638-.117-3.848.542-.352.569-.584.16-1.293-.718-1.242-.682-4.494.011-6.05.449-1.006.446-1.03-.249-1.472a2.264,2.264,0,0,1,.694-3.965c.85-.207.907-.318.678-1.347-.409-1.835-.479-2.312.607-3.037,2.988-1.934,10.641-5.631,10.641-5.631l2.529-1.2s.252,15.394.09,17.215c-.1.784.607,1.258,1.429,2.073,1.7,1.665,2.631,3.678,4.9,5.076,0,0,1.413-.783,2.287-1.344l.086-21.936c.179-.5.3-.553.884-.621.483-.093,1.7-.228,2.1-.346.977-.285,1.131-.678-.151-.548-.387.04-.966.2-1.614.334-4.007,1.2-6.97-5.02-3.919-8.154a9.55,9.55,0,0,1,3.768-1.5c.287,0,1.142-1.047,1.726-2.016a2.877,2.877,0,0,0,.494-2.671c-.706-2.053-.032-5.2,2.081-8.644A31.564,31.564,0,0,0,73.994,37.2c8.11-.974,14.989-2.984,22.318-2.539.287,2.469-8.013,17.025-6.28,17.878,6.53,1.559,4.3,9.276-.663,9.021-.743,0-.816.061-1.29,1.7-.9,2.394-1.483,4.22-2.45,6.447,0,.572-3.244.417-5.96.4-1.167.9-6.164,3.324-8.9-2.888l-.1,5.31s37.389-.592,44.038.239c.143-1.662,3.7,1.287,3.7,1.287l-18.249,28.611.853.831c2.633-3.184,18.516-28.714,18.516-28.714l34.357,22.1c-.283,3.286.047,10.652.047,10.652-9.43,4.99-6.549,7.533-.057,1.488ZM97.06,35.082a136.153,136.153,0,0,1,14.612.858c4.273.683,4.053.558,4.036,3.65-.012,2.2-.015,2.147-.58,3.2-1.043,1.942-.865,3.855.783,6.536a31.35,31.35,0,0,1,2.77,4.892c0,.575-.1,1.276-1.484,2.241-1.636,1.139-1.948,1.935-1.925,3.091.018.936-.16,1.242-.721,1.239a9.478,9.478,0,0,0-1.874.769,4.527,4.527,0,0,1-2.907.7c-.7-.006-1.043-.27-1.239-.194-.377.175-.72,1.434-.709,1.8.04.13.241.052.655-.089,2.324-.793,5.782-.436,5.879-.089.469.423.47,1.077-.238,1.755a2.475,2.475,0,0,0-.475,2.2c.26,1.511.066,2.11-.709,2.633-2.364,1.593-5.52,1.794-10.567.827-5.318-1.019-8.956-3.041-11.981-6.66-1.351-1.617-1.685-2.183-1.017-2.295a10.639,10.639,0,0,0,2.583-.66c3.738-1.6,3.672-8.426-1.363-9.137C88.534,52.274,94.83,42.621,97.06,35.082Zm4.8,4.7c-1.808,1.008-2.752,2.239-2.756,2.907,0,.274.06.224.923-.341,2.506-1.643,9.107-4.015,11.463-2.645,1.7,1.016,2.358.685,1.375-.682C110.558,35.813,104.332,38.44,101.862,39.782Zm6.455,1.074a4.334,4.334,0,0,0-.822.09c-1.743.387-3.66,1.818-5.249,3.079a12.477,12.477,0,0,0-2.065,2.175c-.392.728.474,1.532,1.652.889a1.553,1.553,0,0,1,1.407-.2,14.033,14.033,0,0,0,5.938.94c.249.057.231.115.144.349a8.525,8.525,0,0,1-2.349,2.159c-.64.472-1.2.858-1.243.928-.2.315.657.339,1.593-.19a13.818,13.818,0,0,0,3.8-3.747,1.505,1.505,0,0,0,.254-.369c.091-.309-.468-.182-.768-.264-.129-.036-.1-.36-.136-.509a5.871,5.871,0,0,1,.136-1.6c.058-.45.543-.808.861-1.138,1.4-1.452,1.292-2.111-.592-.994a1.957,1.957,0,0,1-.877.326c-2.78.088-4.387-.02-6.7,1.926-1.031.828-1.651.909-.733.028,1.4-1.13,3.153-2.737,5.093-3.161,1.17-.291,2.285.6,2.8.372,0-.638-.974-1.1-2.131-1.095Zm-.4,4.015a2.8,2.8,0,0,1,.6,1.659c-.035.424-.768.248-.869.046l-.4-1.2C107.076,44.966,107.6,44.736,107.914,44.871Zm-1.417.245a4.541,4.541,0,0,1,.612,1.658c-.123.432-2.86-.151-3.2-.634a3.547,3.547,0,0,1,2.592-1.024Zm4.8,7.774a.984.984,0,0,0-.725.338,2.586,2.586,0,0,0,.647,4.093c.722.338,1.815.09,3.424-.4a7.625,7.625,0,0,1,1.465-.341.873.873,0,0,0,.53-1.414c-.51-.515-1.718-.439-3.019.563a2.688,2.688,0,0,1-1.66.746c-1.3-.017-1.934-1.352-.6-2.753.443-.467.285-.805-.058-.828Zm-9.119,9.217c1.534,1.234,4.448.587,6.407-.7,1.75-1.154,2.476-1.5,3.88-1.254,1.722.3,1.658-.379.912-1.227-.845-.961-2.933-.665-4.679.489-3.873,2.559-5.273,2.987-6.4,1.6-1.208-1.488.23-3.4,1.651-2.354,1.166.79,1.148.2.667-.347-2.809-2.359-4.836,1.869-2.441,3.8ZM88.567,63.321A20.968,20.968,0,0,0,95.2,69.336l.031.466-9.086-.02A62.711,62.711,0,0,0,88.567,63.321ZM57.8,69.755c-.192,3.723.478,5.91,2.665,8.512,2.325,2.766,2.153,7.078.657,9.742-.662,1.179-2.008-.27-1.373-1.024.9-1.131.956-3.893.529-5.619-.957-2.853-3.129-4.25-4.009-7.265a18.022,18.022,0,0,1-.2-3.6Zm2.845.315c.159-.025.412.139.787.462,1.285,1.108,1.066,4.282-.405,6.318-.451.617-.824.441-1.255-.132-.582-.573-.38-.63.109-1.635a6.857,6.857,0,0,0,.569-3.608C60.38,70.547,60.413,70.106,60.646,70.07Zm83.345,1.087c1.134-.017,2.552.223,2.681.633.123.5-.146.9-.779,1.165-1.66.7-3.854-.279-3.3-1.472C142.731,71.27,143.311,71.167,143.991,71.157Zm-2.875.272a1.741,1.741,0,0,1,.779.163c.544.279-.311,2.188,2.4,2.151.647.095,1.126-.053,1.037.237-.135.44-1.3,1.1-2.556,1.285-3.772.556-3.608.369-3.437,3.025a9.508,9.508,0,0,1-.237,3.371c-.41,1.824-.572,3.585-.3,3.006a14.538,14.538,0,0,0,1.3-4.614c-.009-2.052.726-2.458,1.021-.97.126.984-.317,1.539.346,2.543.377.564.548.555.3,1.429a1.288,1.288,0,0,0,.2,1.39c.272.4.546.485.316,1.037a1.7,1.7,0,0,0,1.414,2.412c.523.044.668.271.511.47a2.314,2.314,0,0,1-1.286.6l-11.981-7.63s.888-1.777,1.153-2.252c1.721-3.762,3.086-5.475,8.12-7.445A2.424,2.424,0,0,1,141.116,71.429Zm6.366,2.47a1.021,1.021,0,0,1,.854.516c.735.942.093,2.12-1.715,3.134-1.545.876-2,.98-2.33-.4a1.837,1.837,0,0,0-.417-.676c-.357-.326-.276-.6.18-.839a13.275,13.275,0,0,0,1.469-.765A4.8,4.8,0,0,1,147.482,73.9Zm-5.1,2.733a2.054,2.054,0,0,1,1.056.284.861.861,0,0,1,0,1.4c-.962.391-2.481-.133-2.353-1.014C141.15,76.856,141.752,76.622,142.382,76.632Zm6.164.963a.9.9,0,0,1,.811.478c.564.869-.1,1.74-2,2.668-1.251.61-2.849.875-2.743.516a4.746,4.746,0,0,0-.561-1.941c-.077-.242.023-.024,1.6-.521a8.321,8.321,0,0,0,1.582-.675A2.837,2.837,0,0,1,148.546,77.6ZM58.662,79.848a7.4,7.4,0,0,0-.6,5.25c.349,1.843.752,2.767,2.65,5.491,1.444,2.072,1.906,2.879,1.558,3.533-.245.353-.8.682-1.139.343-.706-.919-1.13-2.036-1.818-3.061-2.652-3.877-2.836-4.864-3.175-7.926-.155-1.4.652-4.377,1.342-4.823C58.252,78.354,58.9,79.364,58.662,79.848Zm61.281-.971a6.533,6.533,0,0,0-1.55,2.4c.078.555.534.192,1.73-1.557C120.41,79.3,120.215,78.843,119.943,78.877Zm22.829.951c1.061.032,1.438.981.962,1.476a1.146,1.146,0,0,1-1.94-.835C141.794,80.04,141.994,79.819,142.772,79.828Zm5.887,1.352c.609.026.689.628.366,1.5-.4.812-.89.949-2.349,1.4-1.747.543-2.033.464-2.295-1.138-.1-.615-.051-.478,1.558-.9a16.8,16.8,0,0,0,1.929-.688A1.962,1.962,0,0,1,148.659,81.18ZM45.473,81.9l.429,3.235.7-2.422Zm97.509,1.088c.86,0,1.321.771.885,1.231a1.184,1.184,0,0,1-1.161.113C142.023,83.832,142.146,82.982,142.982,82.985Zm-26.261,1.689L118.4,85.7l-13.61,21.415-1.641-.035-.155-.341Zm30.882.206c1-.014,1.092.93-.124,1.8a2.986,2.986,0,0,1-1.493.416c-.6.026-1.013-.13-1.06-.548-.262-1.022-.412-1.276.523-1.215a2.816,2.816,0,0,0,1.1-.191A2.882,2.882,0,0,1,147.6,84.88Zm-4.161.936c.695,0,1.136.755.67,1.122-.576.455-1.293.174-1.29-.512C142.825,85.987,142.945,85.813,143.442,85.816Zm-97.93,1.515L41.81,90.6c1.357,1.6,2.5,3.2,3.671,4.878Zm74.872.209c1.607-.064,2.133.711,1.371,1.231a3.968,3.968,0,0,1-3.1.5c-1.555-.288-.317-1.528,1.387-1.7C120.161,87.552,120.277,87.545,120.384,87.54Zm-1.707,2.33a4.467,4.467,0,0,1,1.422.291c1.052.355,2.361,1.454,2.3,2.062-.1.986-1.961.477-3.46-.935C118,90.4,117.963,89.889,118.677,89.87Zm-1.422.016c.911.086,1.821,3.159,1.114,4.1-.692.927-1.912-1.067-1.691-2.633.088-.619.245-1.437.487-1.467A.391.391,0,0,1,117.255,89.886Zm-59.512.675c.513.123,1.171.83,1.029,1.367-.1.216-.32.153-.554.1a1.244,1.244,0,0,1-.666-1.25C57.592,90.643,57.648,90.569,57.743,90.561Zm69.058.529,2.677,1.809L126.8,93Zm-11.093,3.661c2.054.012,2.488.674.955,1.48a4.941,4.941,0,0,1-2.993.12C112.4,95.91,113.925,94.742,115.708,94.751Zm16.614,1.379.14,1.856-5.155.451-.265-1.934Zm-17.822.924a3.685,3.685,0,0,1,1.672.524c1.4.72,2.2,1.926,1.476,2.307-.655.345-1.824-.064-2.649-.928C113.907,97.814,113.819,97.1,114.5,97.054Zm-1.753,0c.936.056,1.747,2.614,1.13,3.879-.338.693-.765.541-1.379-.6-.594-1.1-.626-3.045.058-3.258A.544.544,0,0,1,112.747,97.058ZM45.7,97.78,43.447,102.3l4.083,3.553Zm87.256,3.48.362,1.786-4.948,1.215-.483-1.945Zm-21.609.349a2.418,2.418,0,0,1,1.5.439c.452.4.353.573-.713,1.006-1.9.77-4.236.3-2.879-.847A3.343,3.343,0,0,1,111.348,101.609Zm32.145-.1c-1.89,1.263-.07,1.958,1.281,1A2.118,2.118,0,0,0,143.493,101.5Zm-33.532,2.532c1.352.044,4,1.892,3.437,2.777-.308.484-2.082.071-2.786-.6-.926-.885-1.416-2.067-.9-2.159A1.206,1.206,0,0,1,109.961,104.036Zm-1.706.086c.7-.13,1.812,3.11.97,3.941-.315.311-.4.292-.932-.175a2.9,2.9,0,0,1-.241-3.611A.317.317,0,0,1,108.255,104.122Zm41.536,1.707a1.986,1.986,0,0,0-.666-.691C142.555,107.654,144.239,110.052,149.791,105.829Zm-15.568.223.655,1.809L129.9,109.83l-.733-1.981Zm-85.239,3.425L47.3,113.9a12.858,12.858,0,0,1,5.163,1.643Zm86.895,1.3,1.056,1.779-4.687,2.528-.935-1.876ZM26.986,114.241l1.92,1.352-2.82,3.494-.258-.493.032-2.9Zm111.453,1.1,1.134,1.631-4.512,3.126-1.107-1.775Zm-106.614,2.1,2.073,1.592-3.277,3.942-1.983-1.511Zm22.809.975-.1,4.741,4.878.187Zm56.382,2.137,5.545,3.182-.835-4.857A46.97,46.97,0,0,0,111.016,120.549Zm30.454-1,1.294,1.6-4.169,3.491-1.336-1.67ZM36.056,120.959l1.933,1.79-3.406,3.666L32.8,124.734Zm108.976,2.6,1.5,1.518-3.8,3.938-1.5-1.518Zm-104.585,1.93,1.5,1.74-3.888,3.079-1.442-1.747Zm22.408.408,1.091,4.644c-.08-.338,4.841-1.385,5.482-1.033Zm57.281.392,4.644,4.887.522-4.707Zm28.718.769,1.679,1.308-3.117,4.427-1.9-1.487Zm-105.06,2.951L45.177,132,41.1,134.422l-1.157-1.759Zm109.459.47.257.256,0,3.161-1.293,1.9-1.765-1.037Zm-26.271,3.55,4.108,7.443,1.158-5.55a11.959,11.959,0,0,1-5.266-1.893Zm-79.938.993.978,2.148-4.306,1.957-.982-2.136Zm2.326,5.126.787,2.155-4.578,1.515-.725-2.078Zm-20.468,3.9,1.426,1C37.755,141.158,35.441,140.009,28.9,144.053Zm41.979-2.474c.281-.029.6.358.865,1.212.4,1.29.185,2.891-.693,2.869-.592-.071-.812-1.584-.815-2.023-.007-1.295.282-2.021.643-2.058Zm4.072.773,1.769.19-.008.5L62.625,165.333l-1.707-1.08Zm-7.586.516a3.316,3.316,0,0,1,2.112,1.161,3.759,3.759,0,0,1,.993,1.783c-.012.22-.39.137-.756.085a4.221,4.221,0,0,1-2.751-1.573c-.539-.977-.235-1.461.4-1.456Zm64.771.794,1.879,9.13c.581-2.285,1.81-3.6,2.72-5.4A12.774,12.774,0,0,1,132.138,143.662Zm-80.949,1.847.441,2.361-4.746,1.095-.491-2.291Zm17.7.819a1.459,1.459,0,0,1,.2.008c1.735.193,1.981.578.814,1.359-.707.473-2.622.54-2.938.035-.336-.538.917-1.392,1.925-1.4Zm-34.435,1.387,1.473.858C38.451,146.755,35.7,146.391,34.455,147.715Zm31.938.8c.53.006.849.95,1.036,1.817a2.651,2.651,0,0,1-.082,2.019c-.4.517-.787.608-1.1.1C65.319,150.947,65.349,148.5,66.393,148.511Zm-3.912,1.37a2.49,2.49,0,0,1,.923.191c1.232.463,2.864,2.342,2.174,2.6-1.018.383-3.244-.73-3.662-1.856-.211-.567.02-.917.565-.936ZM52.327,151.4l.113,2.334-4.991.2-.148-2.323Zm12.227,1.965a3.322,3.322,0,0,1,1.379.221c.714.308.194.865-1.033,1.289a3.2,3.2,0,0,1-2.369.031C61.585,154.158,63.079,153.4,64.554,153.361Zm-38.64.272c3.419,2.069,10.508,6.679,10.508,6.679a2.789,2.789,0,0,0-1.02.582,3.307,3.307,0,0,1-.772.5,5.506,5.506,0,0,1-1.044.245c-2.2.477-3.283,1.72-2.595,3.265.27.608.34.51-.129,1.022-1.314,1.249-1.153,1.623-.685,3.223.006.226-1.565,2.148-.176,3.6.769.667.8.249.526,1.767-.1.912.153,1.661,1.485,1.922.74.338.73.22.467.846a1.223,1.223,0,0,0,.709,1.6c.574.358.807.455.4.769-4.437,2.264-5.8,6.2-1.617,12.007.493.684,1.734,2.615,1.734,2.615-1.41,2.087-2.757,3.805-4.195,5.669l4.187,5.836a42.668,42.668,0,0,0-3.238,5.339c-1.464,3.192-.5,7.666,3.713,9a5.49,5.49,0,0,0,5.692-1.631,7.282,7.282,0,0,0,.771-7.133A28.422,28.422,0,0,0,37,205.547l4.483-5.609s-3.089-4.428-4.321-6.037c8.407-10.256,1.539-13.124.222-14-.2-.137-.156-.793-.156-.793,7.551-.862,10.13-5,12.351-10.232,4.505,2.891,10.954,6.779,15.472,9.821.436.4.722.651.655.873a8.518,8.518,0,0,0-.238,1.868c.21,1.361.11,1.976-.44,2.5-.518.49-.414.713-.331,1.243.144.92.284,1.012-.129,1.475-.508.572-.679.839-.584,2.226a4.378,4.378,0,0,1-.055,1.926c-.281.632-1.051.952-2.061,1.743-1.768,1.384-1.529,1.807.912,6.831,2.08,4.281,2.318,5.26,1.519,6.78a6.948,6.948,0,0,0-.833,4.069c.02.466.06.97.058,1.216-.005.591,0,.523-.339.893A12.6,12.6,0,0,0,62.2,213.6c-2.9,4.34-10.539,15.488-10.539,15.488H25.914Zm36.056,2.019c.3-.022.664.515,1.076,1.6a2.512,2.512,0,0,1-.172,2.132c-.764.832-1.817-1.119-1.484-2.664C61.54,156.022,61.736,155.669,61.97,155.652Zm72.224-1.173c0,3.954-.081,9.086-1.447,12.87l1.549.7c-.5-3.884.12-7.073,3.7-8.754a12.509,12.509,0,0,1-3.8-4.815Zm-76.073,2.493a1.354,1.354,0,0,1,.425.078,4.076,4.076,0,0,1,1.714.932c.734.746,1.493,1.643,1.3,1.728-1.214.531-4.3-1.092-3.892-2.361A.464.464,0,0,1,58.121,156.972Zm-5.4.167.031,1.938-2.985-1.9Zm68.158.932c.483.042,1.23.673,1.114,1.111-.208.474-.463.43-.8-.068C120.781,158.493,120.613,158.1,120.879,158.071Zm-60.475,2.4c.725-.02,1.35.14,1.418.516,0,.357-.552.817-1.231,1.026-1.7.52-2.969.184-2.505-.645C58.377,160.815,59.472,160.492,60.4,160.467Zm59.1,2.2c-.717,1.281-.806,5.38.46,7.052,1.966,2.164,3.782,4.982,3.573,8.733l-1.89.843c.105-3.085-.019-5.09-2.435-7.751-2.877-3.116-2.2-8.516-1.208-10.1C118.856,159.87,120.083,162.09,119.5,162.665Zm-82.788-1.7c.6-.035,1.343.321,2.68,1.2,3.42,2.413,5.274,3.344,8.666,5.732.5.463.471.4.385.761a12.5,12.5,0,0,1-10.64,9.587c-.646.084-.313-.319-.7-1.095a2.1,2.1,0,0,0-1.96-1.153c-2.3-.021-.334-1.309,2.478-1.678a5.2,5.2,0,0,0,2.642-.827c.129.061-.488-3.867.144-5.25.323-1.243.018-1.844-.331-1.079a13.354,13.354,0,0,0-.689,3.033c-.139,1.091-.37,1.24-.628.71a1.871,1.871,0,0,1,.07-1.266c.21-1.028-1.092-1.8-.83-2.745a1.654,1.654,0,0,0-.452-1.942,2.144,2.144,0,0,1-.179-1.235,2.017,2.017,0,0,0-1.363-1.984c-.389-.2-.273-.408.132-.61a1.462,1.462,0,0,1,.577-.159Zm-2.8,1.41a2.432,2.432,0,0,1,.651.074c.453.274.817,1.837.311,1.9a8.326,8.326,0,0,0-1.219.226c-1.53.448-2.255.387-2.225-.49C31.466,163.184,32.721,162.39,33.917,162.37Zm2.034.159c.6,0,1.088.706.709,1.079a.683.683,0,0,1-1.142-.454c0-.3.139-.627.433-.625Zm.409,2.435a1.229,1.229,0,0,1,.569.124c.56.258.882,1.218.526,1.569a1.309,1.309,0,0,1-1.461-.179C35.253,165.85,35.612,164.993,36.36,164.964Zm-1.9.14c.346.007.6.118.662.357.057.2-.039.395.055.687.146.46.439.813.183,1-1.173-.07-3.609,1.4-4.314,1.328-.586-.078-.653-.617-.144-1.491a5.014,5.014,0,0,1,3.558-1.879Zm.709,2.838c.255-.016.3.125.2.5a2.472,2.472,0,0,0,.167,1.3c.193.436.544.695.362.866a21.8,21.8,0,0,0-2.154.6c-1.093.6-4.162,2.418-3.39-.485.246-.97,1.375-1.644,3.347-2.33A8.176,8.176,0,0,1,35.172,167.942Zm1.609.035a1.241,1.241,0,0,1,1.258.781c.712,1.412-1.33,1.614-1.983.438-.387-.7.115-1.175.725-1.219Zm.39,3.289c1.061.006,1.884,1.317,1.114,1.814a2.559,2.559,0,0,1-1.933.116c-.983-.43-.529-1.937.819-1.93Zm101.6.027a78.049,78.049,0,0,0,14.841,5.491v52.305H117.22l-9.967-17.329s-.33-.561-.436-.807a1.835,1.835,0,0,1,.008-1.34,29.033,29.033,0,0,1,2.252-5.118c2.407-4.405,5.826-9.236,3.974-13.467-.212-.484,1.913-3.108,1.913-3.108,3.272.266,5.977-1.86,5.009-6.879,6.83-2.784,12.458-5.046,18.8-9.748Zm-103.481.257c.092,0-.186,1.142.393,1.844.361.553.3.535-.923,1.018a6.764,6.764,0,0,0-1.177.854c-1.755,1.561-3.493-.48-1.8-2.12a6.318,6.318,0,0,1,3.479-1.581C35.275,171.554,35.282,171.55,35.289,171.55Zm83.461,1.078c.589.105,1.352.886,1.107,1.312a6.236,6.236,0,0,0-.942,3.566c-.083,1.6.192,1.838-.421,1.562-.4-.186-1.146-.506-1.313-.913C116.8,177.216,117.782,172.457,118.75,172.628Zm-84.034,4.02a2.13,2.13,0,0,1,1.722.695c.321.412.355.764.035.932-.76.4-3.275.192-3.4-.322C32.876,177.16,33.763,176.665,34.716,176.648Zm38.1,1.018a25.278,25.278,0,0,1,9.433,1.871,17.838,17.838,0,0,1,8.194,6.87c.238.49-.249.49-.671.536a5.094,5.094,0,0,0-2.294,9.277,4.022,4.022,0,0,0,2.244.691c1-.085-4.463,10.37-6.639,16.884-6.735-.275-11.823.759-18.407-1.5-.708-1.171-.539-3.758-.023-5.095.473-1.213,1.1-2.149.8-3.545-.524-2.432-2.747-5.6-3.491-7.607-.653-1.533-.611-2.105.526-2.983a8.837,8.837,0,0,0,2.038-1.774c.342-.487.2-.6.2-1.7.007-1.332-.024-1.125,1.079-1.32a8.511,8.511,0,0,0,1.988-.723,3.243,3.243,0,0,1,3.288-.26c.368.1.333-.281.487-.784a3.848,3.848,0,0,0,.21-.688c-.026-.225-.512-.16-1.048-.085a11.717,11.717,0,0,1-4.71.043c-.755-.28-.757-.787-.316-1.627a2.608,2.608,0,0,0,.511-2.3c-.2-1.961.071-2.374.989-3.017,1.145-.8,3.225-1.179,5.615-1.169Zm11.1,1.728H93.9a25.374,25.374,0,0,0-2.688,6.31c-.09.179-.2.356-.429.124A20.434,20.434,0,0,0,83.918,179.394ZM75.639,186.4a10.565,10.565,0,0,0-4.563,1.677,5.117,5.117,0,0,1-3.67.932c-.774-.142-.873-.032-.974.218-.456,1.126,1.234,2.334,2.941,1.542.5-.208,4.3-2.174,4.512-2.342a7.692,7.692,0,0,1,2.221-.641,1.84,1.84,0,0,1,1.882,2.14c-.2,1.52-2.368,1.6-2.509.245-.109-1.041-.544-.579-.585-.066a2.66,2.66,0,0,0,.69,1.658c1.827,1.137,4.236-1.077,3.082-3.355A3.118,3.118,0,0,0,75.639,186.4Zm-8.195,5.3a28.164,28.164,0,0,1-3.381.827c-1.1.242-1.021,1.117-.331,1.572.529.35,1.2.139,3.124-1.083a1.634,1.634,0,0,1,2,2.58c-.954.806-.3,1.018.354.532,1.678-1.248.715-4.9-1.769-4.428Zm5.865,6.434a1.549,1.549,0,0,0-.682.183,7.973,7.973,0,0,0-3.191,2.24c-.117.2-.053.531-.109.792-.045.206-.209.467-.18.606.026.122.427.251.487.365a5.443,5.443,0,0,1-.054,2.493c-.068.408-.676.534-.92.781-.8.81-.6,1.058.254.741.595-.22.342-.63,1.815-.345a6.911,6.911,0,0,0,4.921-.979c1.667-.923,2.271-1.434,2.338-1.324.111.182.024.278-1.165,1.262-2.979,2.468-5.194,3.041-6.865,2.116-.5-.339-.9-.477-.522.249a2.734,2.734,0,0,0,.736.52c1.717.773,3.869.119,6.608-2.038.6-.474,1.132-1,1.828-1.585,2.272-1.9,1.675-2.763-.893-1.84-.809.291-1.037-.023-2.131-.447a8.1,8.1,0,0,0-3.643-.652c-1.472-.026-1.692.111-1.691-.136a4.2,4.2,0,0,1,2.1-1.907C73.44,198.758,73.744,198.164,73.309,198.134Zm2.708,4.679c.274.277-.119.453-1.181.956a8.638,8.638,0,0,1-1.231.516c-.095.171-1.1-2.08-.822-2.19A7.669,7.669,0,0,1,76.017,202.813Zm-3.854-.236a6.486,6.486,0,0,1,.53,1.537c.022.152.131.371-.109.369-.189.027-.5.043-.612-.132a4.329,4.329,0,0,1-.417-1.9C71.74,202.2,72.064,202.374,72.163,202.577Zm8.736,4.046a1.352,1.352,0,0,0-.519.221c-4.225,2.487-9.292,3.782-12.55,2.555-1.1-.414-1.3-.268-.9.482a2.75,2.75,0,0,0,1.664,1.359c2.662.73,6.949-.333,10.247-2.489,1.343-.878,2.443-2.131,2.058-2.128Zm24.866,6.663c.008,0,8.2,15.34,8.918,16.061l-60.751-.258,10.236-14.432c.09.811,24.69,4.178,41.6-1.371Z" fill="#131f67"/><path id="a9a5c0b8-f7fd-4d85-b9b7-1cc582a60f65" data-name="path4035-6-4-6" d="M54.316,229.085l9.81-14.44c14.511,2.749,27.565,1.3,41.865-1.247l9.523,16.009Zm76.933-53.814-.063-8.573,3,1.11c-1.04-3.987,1.586-8.154,3.977-8.319-7.64-5.745-1.293-11.89-1.425-12.021-8.357-4.3-4.164-10.9-4.744-11.492-10.182-2.631-6.206-10.687-6.976-9.855-5.928,1.776-9.192-3.175-9.293-7.2-5.129,2.9-13.055-1.207-10.571-5.821,0,0,2.717,1.286,3.2,1.026,4.188-3.034,3.86,1.321,4.73,2.267,3.124-.451,4.968,1.932,5.746,3.09,4.608,0,4.418-1.1,4.458,3.357,3.472.878,3.333,2.749,5.345,5.305,4.376.048,3.639,1.467,2.649,3.881,3.154,2.5,3.41,4.463,3.93,6.739,3.441,1.243,4.059,1.749,1.813,4.641,3.037,4.538,1.575,7.166,2.037,7.413,3.787,2.724,1.894,3.709.24,4.755.575,3.618,1.035,4.15-.3,7.834,4.353,3.079-.691,4.467-.948,4.4l-.012,3.051Zm-105.4-22.353L25.76,142.3l36.9,23.765L58,173.355ZM74.87,168.552l8.721-18.2L80.457,130.5l25,.545c2.81,6.367,4.5,11.781,11.707,22.321l-7.609,2.363.265,12.759Zm21.379-4.786a2.186,2.186,0,0,1-.349-1.122c.093-.3.325-.289.624-.126,1.062.515,2.124.958,2.907-.015a1.39,1.39,0,0,0-.043-1.654c-.6-1.217-2.485-.336-3.119-.293-.588.013-.815-.48-.331-1.183a1.8,1.8,0,0,0,.516-1.04c.331-2.782-4.427-1.793-2.776.905.75,1,.313,1.6-.79.968a1.814,1.814,0,0,0-2.844,1.416,1.682,1.682,0,0,0,2.613,1.124c.272-.155.483-.322.675-.405.546-.237.938-.042.757.571-.488.766-1.062,1.866-.582,2.589a1.629,1.629,0,1,0,2.742-1.735Zm57.667-55.79L116.943,84.093a51.007,51.007,0,0,0,4.916-7.713l32.1,20.576ZM96.109,99.9,99.9,119.184l-25.812.366c-1.418-6.474-10.283-21.127-10.26-20.87l6.883-16.858,34.253-.041Zm-9.686-7.18c.654-.6.61-1.508-.111-2.533-.7-.994-.387-1.71.732-1.038a2.9,2.9,0,0,0,2.268.29,1.522,1.522,0,0,0,1.07-1.8c-.151-1.026-1.292-1.307-2.51-.859-.352.074-.567.36-.87.5-.657.288-.919-.5-.318-1.52a1.575,1.575,0,0,0-1.25-2.45,1.552,1.552,0,0,0-1.555,2.183c.766,1.169.211,1.983-.888,1.2-1.582-1.124-3.646.3-2.791,1.974.415.812,1.774,1.024,2.991.51,1.017-.43,1.32.065.7,1.1-1.267,2.135.815,4.012,2.529,2.446ZM48.973,73.792,48.7,84.066c-3.861-2.354-3.288-2.383-3.43-2.347A7.374,7.374,0,0,1,41.8,90.5c5.9,5.519,2.714,9.4,1.745,12.019a8.524,8.524,0,0,1,3.745,11.513c7.435.042,7.285,6.521,7.5,9.225,9.193-.576,7.961,6.745,9.173,7.375,4.456-1.988,9.662-1.306,11.042,4.664.894,3.387-2.384.123-3.811.265-5.082,3.154-4.1-1.659-4.39-2.329-4.209.4-4.775-1.6-6.619-3.021-4.545.872-4.171-.618-3.9-3.37-3.566-.72-4.341-2.938-5.763-5.109-4.923.158-2.915-3.307-2.9-3.989-.6-.533-3.425-3.305-3.564-6.48-5.054-1.423-1.881-3.965-1.7-4.837-1.912-2.374-2.414-4.125-1.775-7.116-4.487-2.092-.739-4.046-.421-5.234-1.463-3.9-.4-5.064.18-7.172-2.888-3.374-1.162-3.187.951-5.234.267-.369-.471-2.063-.43-3.06ZM74.9,35.712,66.806,21.276h57.8s-6.29,8.687-8.729,13.058C101.46,32.067,87.972,33.143,74.9,35.712Z" fill="#d40000"/><path id="6f32c126-52bd-4cd7-9cfe-90d44450da31" data-name="path4039-1-1-4" d="M34.555,219.709c-5.069-1.148-5.93-7.5-1.171-12.78a4.238,4.238,0,0,0,.647-1.088c-1.644-2.53-2.4-3.422-4.083-5.936,1.482-2.232,3.216-3.934,4.328-5.871-.068-.336-.562-.671-1.152-1.538-3.433-5.04-3.811-7.037-2.069-10.034a4.952,4.952,0,0,1,7.932-.66c2.573,2.684,2.454,5.123-.889,10.087-.734,1.089-1.263,2.073-1.263,2.073.923,1.856,2.492,3.582,4.09,5.917a54.362,54.362,0,0,0-4.3,5.652,2.306,2.306,0,0,0,.421.779c5.312,6,4.893,12.887-1.114,13.473A7.333,7.333,0,0,1,34.555,219.709Zm42.723-76.545c-.139-.228-19.114,30.377-19.114,30.377l2.166,1.384,18.151-28.29c.274.207.542.454.487.8,0,0-14.951,24.281-17.441,28.162a36.68,36.68,0,0,0,3.833,2.339c5.56-2.731,28.75-.367,44.148-1.307.061.047-.237,5.391-.237,5.391s-3.511-4.048-4.22-4.072c-3.5-.122-7.183,1.364-9.82,1.2-1.685.514-3.607,6.632-3.986,8.166-3.064-.355-6.024,2.841-5.316,5.817,1,3.307,2.723,3.058,4.585,3.112-.173,3.744-6.8,13.611-6.833,18.473,7.014-.553,14.6-.68,21.837-2.855a68.926,68.926,0,0,1,6.145-12.921,10.471,10.471,0,0,0,1.215-6.77c-.29-2.035.59-2.549,1.375-3.973.479-.89,2.247-.853,2.472-.918,4.6-1.329,2.958-7.259,1-8.314-2.443-1.316-5.895.723-7.222-1.945-1.405-2.824-.95-8.664-.95-8.664l-34.741.166s9.816-18.591,9.567-18.727c-2.684-1.469-7.068-6.573-7.1-6.626ZM54.041,160.085c.162-1.88.464-32.432-28.5-47.619l.154-4.017c.177-.207,26.349,11.774,30.838,42.894l8.076-12.615,2.97,1.162c-4.389,6.575-13.12,22.531-13.537,20.2ZM36.452,149.079c1.193-3.527-.764-1.656-2.549-1.8-1.22-.662-2.417-1.516-3.55-2.259,8.464-4.471,3.424-4.255-1.508-1.116-1.278-.691-2.895-2.2-3-2.076,9.552-6.124,5.969-6.248-.144-1.814.211-4.158.062-2.6.144-4,5.211-5.565.357-2.542,0-2.475-1.283-5.552,4.852-4.39,5.415-.192,1.08.8,3.2,1.79,3.828,5.234,2.946,1.87,2.637,3.419,2.5,5.659,1.152,1.134,4.126,3.529.657,5.741ZM25.465,123.745l.2-3.071c.4-1.252,22.738,14.632,21.128,35.043.263-.144-2.473-1.425-3.257-2.126C43.544,138.571,27.547,125.365,25.465,123.745Zm128.124,17.23c-14.9-6.809-29.058-23.124-29.8-44.345l-8.419,14.054-2.988-1.262c.279.231,6.658-11.57,13.226-19.726,1.852,26.775,12.388,39.225,28.348,48.269Zm-78.058-9.79C61.088,129.4,40.205,109.8,46.446,83.233c.885-2.7,14.814,12.249,14.815,12.249.088-.678,12.53,19.3,12.181,23.2,10.5,2.982,31,.155,31,.155,17.044,3.794,34.865,22.121,28.431,48.167a76.155,76.155,0,0,1-8.317-6.416c-11.5-11.082-15.153-20.189-19.229-30.234-14.728-1.329-28.535,1.3-29.8.828Zm78.2-22.126a32.777,32.777,0,0,1,.138,4.059c-3.838,4.166-4.237,4.242.575,2.9-.6,4-3.559,4.651-5.32,3.291-.649-.5-.655-3.254-.655-3.254-2.918-.728-3.92-1.6-3.506-4.732-3.361-.4-3.229-2.031-2.953-5.435-3.06-1.716-2.3-4.447-.487-5.613l1.514,1.039c-.486.433-.249,3.145,2.433,1.127,0,0,2.145,1.776,3.176,2.464-7.76,4.974-3.056,3.881,1.725.614.9.609,2.121,1.607,2.759,2.037C146.829,112.06,144.762,115.824,153.728,109.059Zm.377,16.912-.257,3.585c-15.323-9.344-19.471-21.667-20.61-34.792,0,0,2.057,1.51,3,2.137,1.367,16.931,16.923,28.364,17.869,29.07ZM70.156,81.541l36.746.234-9.745,18.577,5.144,6.057s12.765-19.828,19.183-30.214l-2.22-1.323-18.32,28.7-.728-.8,18.061-28.674c-1.083-.708-3.133-1.842-3.133-1.842s-31.294.5-44.9.447a34.024,34.024,0,0,0,.537-5.189c2.005,2.871,4.155,5.435,8.831,2.614,0,0,5.532.186,5.735-.077a75.49,75.49,0,0,0,3.275-8.4c5.336-.356,4.8-2.928,5.411-3.771-.409-7.558-4.662-3.488-4.3-6.236,1.2-4.9,7.347-15.981,6.571-16.953-1.586-1.049-17.3,2.036-21.877,2.6-.423-.163-2.656,7.113-5.011,10.223-2.562,3.384-3.476,7.013-2.168,10.435-1.356,3.762-3.953,3.376-6.04,4.442-2.367,2.555-1.715,6.468.541,7.982,1.571,1.054,3.983,1,6.441-.99Zm73.021-26.276-4.3-5.756,4.168-6.054c-1.645-2.6-4.358-6.579-3.872-9.733,1.062-6.253,9.525-5.336,10.262.647.4,2.776-1.63,6.181-3.692,9.079,1.361,2.473,1.947,2.877,3.926,5.712-1.177,2.069-4.039,6.118-4.039,6.118,1.785,2.994,4.269,6.293,4.089,9.339-.189,2.615-3.048,5.265-5.717,4.708C135.705,67.593,140.339,58.748,143.177,55.265Z" fill="#e2cf00"/><g id="2815cd84-dacc-44b8-8d32-3ccd30efc24b" data-name="g4049-4-4-2"><path id="61b3292e-6cfe-4418-b8ed-68a02fd47a28" data-name="path4033-2-3-3" d="M65.434,20.617C67.713,24.884,74.185,36.4,74.185,36.4c15.392-3.182,28.334-3.992,41.936-1.022l9.717-14.686Zm2.007.866h2.782l5.458,11.195L85.1,30.8l-1.605-9.3,2.665.016,1.348,8.939,13.836-.349,1.792-8.629,2.552.031-1.831,8.768,10.956,1.472,5.361-10.271h3.682L115.7,34.166a96.8,96.8,0,0,0-40.962,1.087Zm5.248,0h8.124l1.948,7.557a18.343,18.343,0,0,1-5.969,1.281C75.3,27.723,73.766,23.965,72.689,21.483Zm15.667,0h12.363l-1.056,6.434L89.3,28.248Zm19.6,0h9.526l-3.76,7.813-7.185-.975Zm36.27,7.821a7.394,7.394,0,0,0-1.543.143c-2.471.516-3.766,2.409-3.787,5.5-.009,1.416,1.038,3.92,2.63,6.287a20.768,20.768,0,0,1,1.294,2.217l-4.146,6.074,4.411,5.743s-.687.8-1.095,1.378c-2.023,2.852-2.959,5.518-2.829,7.7a5.471,5.471,0,0,0,4.111,5.029,5.3,5.3,0,0,0,4.808-1.336,5.033,5.033,0,0,0,1.675-3.8c.033-2.164-1.015-4.786-3.1-7.646a8.852,8.852,0,0,1-.846-1.386s2.925-4.152,4.029-6.05l-4-5.724c3.179-4.761,3.82-5.816,3.908-8.741A5.472,5.472,0,0,0,144.225,29.3Zm-.4.349c.137,0,.275,0,.413.012,3.63.279,5.547,2.968,5.065,6.419-.493,3.291-3.47,6.358-3.947,7.417a66.986,66.986,0,0,0,4.13,5.615c-1.145,2.075-4.1,6.1-4.1,6.1a5.872,5.872,0,0,0,.359.6c3.088,4.361,3.937,6.422,3.725,9.036a4.84,4.84,0,0,1-3.838,4.275,5.235,5.235,0,0,1-6.2-4.772c-.2-2.7,1.546-5.321,2.9-7.367.575-.857,1.068-1.677,1.068-1.677l-4.395-5.751c1.34-2.117,3.032-4.194,4.274-5.98,0,0-.655-1.051-1.262-2.008-2.41-3.8-3.083-5.739-2.712-7.836A4.711,4.711,0,0,1,143.828,29.653Zm.327,1.946a3.576,3.576,0,0,0-3.133,2.446c-.737,2.673,2.085,6.719,3.371,7.805,2.407-2.758,3.94-5.852,3.05-8.018A3.71,3.71,0,0,0,144.155,31.6Zm.331.866c2.431.05,3.341,2.926,1.465,6.2a20.532,20.532,0,0,1-1.6,2.284s-.891-1.107-1.426-1.942c-2.173-3.389-1.613-6.035,1.056-6.508A3.279,3.279,0,0,1,144.486,32.465ZM96.114,33.96a112.134,112.134,0,0,0-22.338,2.78,28.772,28.772,0,0,1-4.855,11.184c-2.113,3.44-2.876,6.436-2.17,8.488.662,1.922-1.144,4.791-3.129,4.971a4.139,4.139,0,0,0-4.005,4.372c-.07,3.905,2.634,6.3,6.3,4.971a.8.8,0,0,1,.616.194l-.214,22.348a14.953,14.953,0,0,0-5.2,1.7,56.179,56.179,0,0,0-8.49-8.174c-.072-4.974.133-9.977-.09-14.939a59.638,59.638,0,0,0-10.859,5.9c-1.086.725-1.2,1.128-.787,2.963.229,1.029.173,1.14-.678,1.347-1.751.427-2.3,3.208-.818,4.151.7.443.7.466.249,1.472a8.121,8.121,0,0,0,.051,5.774c.41.709.382.938-.16,1.29-1.865,1.21-1.739,3.8.211,4.283.5.123.628.336.463.761-.609,1.568-.054,3.95,1.345,5.755.726.938.724.927.245,1.359a2.435,2.435,0,0,0,1.418,4.225c.734.095.737.1.823.656a8.5,8.5,0,0,0,.713,2.811,6.074,6.074,0,0,0,2,2.381c.826.64.827.65.386,1.6-.815,1.749.481,3.485,2.548,3.413,1.054-.036,1.054-.039,1.13.334a6.3,6.3,0,0,0,4.337,4.264c.919.152,1.063.369.752,1.146a1.866,1.866,0,0,0,1.091,2.7,1.962,1.962,0,0,0,2.03.132c1.053-.36,1.064-.355,1.959.839a4.3,4.3,0,0,0,4.2,2.12c1.389.01,1.441.046,1.45,1.022a2.278,2.278,0,0,0,4.052,1.592c.57-.606.568-.6,1.075-.233,2.222,1.622,4.193,2.042,4.01.524a9.609,9.609,0,0,0-3.008-5.72l3.222.839c.141,3.751.276,8.274,1.06,11.4L62.7,165.748s-.871-.53-1.788-1.161c-1.351-.928-3-2.02-4.017-2.652a15.174,15.174,0,0,1-1.7-1.157c-.5-.416.309-.963.479-1.4,3.307-5.885,8.483-12.959,12.25-19.836l-3.647-1.405c-2.79,4.378-4.844,7.9-7.442,11.937C54.24,131.157,41,114.551,24.971,107.558l.055,4.951a52.043,52.043,0,0,1,28.509,47.154,18.719,18.719,0,0,1-3.222-1.926c-.957-.635-2.882-1.889-3.121-2.011.778-23.121-22.228-36.791-22.268-36.145,0,0-.144,2.987-.21,4.372,9.8,6.547,17.505,18.456,18.285,29.054.009.087-4.6-2.865-4.6-2.865a3.3,3.3,0,0,0,.012-5.845c-.619-.276-.655-.41-.347-1.242.632-1.709-.527-4.279-2.124-4.711-.7-.189-.815-.372-.849-1.351a3.321,3.321,0,0,0-2.848-3.355c-.495-.109-.5-.113-.526-.73-.151-3.469-3.556-4.882-6.11-2.536a4.212,4.212,0,0,0-.584.761L25,134.9c.872-.478,2.2-2.113,2.739-2.046.6.069.31.472-1.04,1.634-.875.755-1.726,1.55-1.726,1.55l.055,4.955c1.454-.941,2.911-2,4.274-2.951,1.175-.817,1.776-1.083,1.921-.847.162.265-.1.611-.768,1.01-1.791,1.189-3.874,2.584-5.381,3.759l0,3.413.288.423.086,2.99-.269.066,0,3.767,35.382,22.527,18.005-28.309.3.3L60.856,175.324a9.272,9.272,0,0,0,1.442,1c.714.4,1.608.93,2.373,1.437a1.893,1.893,0,0,0,1.667,1.033c.62-.675,3.325-1.388,3.585-1.7,10.073-.148,38.99.048,38.99.048l.164,4.61c-1.3-4.47-5.492-5.392-8.787-3.39l-5.411.007c-.042,0-3.2,5.741-3.667,8.738-2.274-.309-5.3,1.9-5.455,4.143-.368,3.19,1.735,5.517,4.485,5.064a14.9,14.9,0,0,1-1.987,5.615,86.034,86.034,0,0,0-4.387,10.45c-.853,2.322-.562,2.734-.417,2.792a77.147,77.147,0,0,0,23.163-3.359s-.142-.544-.21-.851c-.277-1.236.766-3.767,3.713-8.993,2.276-4.037,2.928-5.578,3.156-7.483a7.652,7.652,0,0,0-.242-3.014c-.021-.167-.152-.409-.117-.59a9.41,9.41,0,0,1,2.132-3.289s.671-.124.939-.148c4.174-.291,5.467-5.946,1.944-8.5a4.9,4.9,0,0,0-4.547-.652l-.031-21.929,2.537.095,2.789-1.372c4.481,3.813,7.4,7.711,12.227,10.647l-.078.195-3.585-2.451.008,14.368A66.474,66.474,0,0,0,139,170.7l-.752-.648.032-2.055c3.5.276,3.842-4.171.962-4.7a4.007,4.007,0,0,1,.343-.924,6.645,6.645,0,0,0,.35-5.39c-.392-1.147-.375-1.435.09-1.433,2.129.011,1.934-3.754-.238-4.578-.747-.284-.694-.048-.541-2.385a5.643,5.643,0,0,0-1.617-4.485c-.492-.581-.45-.861.183-1.246,1.817-1.106.5-4.3-1.734-4.206-.873.037-.871.035-.947-.835a6.933,6.933,0,0,0-3.16-5.382c-.52-.283-.6-.514-.3-.905,1.43-1.906.092-4.512-1.925-3.751-.391.148-.8.3-.916.33-.159.049-.288-.173-.6-1.037-.839-2.352-1.584-3.09-4.255-4.209-.525-.22-.556-.375-.319-1.448.409-1.853-2.151-3.578-3.534-2.381-.563.488-.582.483-1.216-.326a8.365,8.365,0,0,0-5.147-2.648c-.874-.079-1.006-.147-.935-.482a2.234,2.234,0,0,0-3.573-2.384c-.885.655-1.113.675-2.022.167-1.91-1.068-2.747-1.108-2.946-.144a6.663,6.663,0,0,0,.312,2.346,5.906,5.906,0,0,0,2.385,3.308s-2.187-.6-2.74-.714c.055-.058-.158-7.568-1.593-11.821l13.984-22.181,8.01,5.266-12.811,20.2,3.729,1.511s4.98-8.245,7.586-12.287c1.707,20.076,17.279,37.679,31.385,42.9-.048.024.045-2.886.105-4.295-14.882-6.531-29.038-24.78-28.147-46.684l5.977,3.814c1.735,17.555,9.408,27.842,22.2,36.541v-5.379c-8.807-6.5-16.126-14.982-18.067-28.561,0,0,2.987,1.881,4.325,2.773a5.253,5.253,0,0,0-.573.377c-1.6,1.325-1.117,4.044.99,5.584.342.25.346.25.024,1.106a3.225,3.225,0,0,0,2.01,4.183c.955.246.949.235.966,1.324.034,2.115.889,3.09,3.156,3.6.31.069.321.1.316,1.048a2.994,2.994,0,0,0,4.2,2.932,26.382,26.382,0,0,0,2.548-1.918V114.42s-.875.713-1.508,1.3c-1.107,1.028-1.456,1.156-1.453.528,0-.456.512-1.053,1.574-1.841a14.873,14.873,0,0,0,1.387-1.281v-4.384a3.378,3.378,0,0,1-.464-1.717,10.987,10.987,0,0,1,.16-1.281l.53.011-.008-5.075-.642-.5.027-3.363L119.176,74.256l-18.223,28.883-.456-.532,18.242-28.7-4.847-3.087-2.926,1.437s-20.25-.318-40-.066c0,0-.047-.543-.039-2.078.01-1.928.1-2.2.456-1.386a5.108,5.108,0,0,0,5.085,2.819,4.924,4.924,0,0,0,2.926-.889c.537-.289.635-.3,3.167-.279,2.716.019,3.2-.08,3.207-.653a56.289,56.289,0,0,0,2.416-6.5c.26-.907.375-1.306.588-1.492.165-.143.3-.111.69-.135a4.127,4.127,0,0,0,3.471-1.441c2.509-2.512,1.07-7.623-2.563-7.642-.963-.005-.3-2.558,1.729-6.7A67.648,67.648,0,0,0,95.588,38a17.927,17.927,0,0,0,1.137-4.042ZM95.923,35.2c.5.42-.754,3.514-3.02,8.2A50.615,50.615,0,0,0,89.8,50.6c-.115.4-.279.987-.367,1.294a1.519,1.519,0,0,1-.713.951c-.305.217-.73.538-.946.711-.613.489-.758.334-.608-.653.279-1.831,1.007-3.8,2.688-7.242A74.92,74.92,0,0,0,93.5,37c.228-.7.334-1.407.713-1.666a2.434,2.434,0,0,1,1.707-.135Zm-2.728.178c.347.239-1.3,4.477-4.145,10.361C85.5,53.079,85.308,58.222,88.5,59.48c2.52.992,5.058-1.775,3.5-3.794a1.806,1.806,0,0,0-2.918-.046c-.3.548.118,1.181.658.411.786-1.12,2.36.173,1.979,1.5a2.366,2.366,0,0,1-2.33,1.484c-3.491-.7-2.833-5.6.787-5.872,3.465-.258,5.041,4.379,2.525,7.033A4.089,4.089,0,0,1,89.35,61.48c-2.256,0-4.363-1.859-4.15-3.58a6.73,6.73,0,0,0-.191-4.089,3.005,3.005,0,0,1-.37-1.3c.032-1.4,1.185-3.562,3.756-8.912a50.422,50.422,0,0,0,2.611-7.339c.2-.614.1-.787.331-.872A2.884,2.884,0,0,1,93.2,35.377Zm-2.973.074c.528.023-.686,3.883-2.217,7.172-1.161,2.519-2.747,5.754-3.927,8.745-.378.635-.63.684-1.4.272-.851-.454-.6-1.176,1.411-5.161a61.652,61.652,0,0,0,3.993-9.9,1.365,1.365,0,0,1,.577-.971,3.347,3.347,0,0,1,1.566-.159Zm-2.828.435c.281.371-1.561,5.575-4.411,11.444-.609,1.246-1.02,2.385-1.632,3.658a5.812,5.812,0,0,1-2,.559c-.585-.078-.031-1.172,1.636-4.532,1.359-2.739,1.745-3.514,2.459-5.18.52-1.22,1.277-3.316,1.987-5.273.057-.158.112-.51.265-.591A2.213,2.213,0,0,1,87.394,35.886Zm-2.782.326c.046.125-.059.384-.1.583a44.063,44.063,0,0,1-2.221,6.046c-.089.273-.909,1.977-1.823,3.786s-1.752,3.536-1.862,3.84-.415,1.112-.674,1.794c-1.64,3.506.123,6.27,2.3,6.463,3.387.279,3.707-4.454,1.317-4.909a1.512,1.512,0,0,0-1.9,1.375c-.063.54.6,1.167.594.391-.036-1.41,1.942-1.345,2.185-.147.475,2.334-2.187,3.475-3.773,1.643a2.763,2.763,0,0,1-.526-2.389,3.112,3.112,0,0,1,4.984-2.023,4.285,4.285,0,0,1-1.952,7.7,4.46,4.46,0,0,1-4.126-1.192,5.206,5.206,0,0,1-1.3-3,8.8,8.8,0,0,1-.023-2.326c.32-2.449,2.113-6.026,3.686-9.055,1.213-2.514,2.167-5.833,3.272-8.5.312-.228,1.988-.439,1.941-.082Zm-2.989.334c.18.055-.745,2.957-2.065,6.093-1.452,3.18-3.337,6.819-4.406,9.949-.337.767-.582.745-1.539-.144-.506-.469-.221-1.168,1.55-4.773a77.95,77.95,0,0,0,4.146-9.23c.192-.621.346-1.382.756-1.623a2.176,2.176,0,0,1,1.558-.272Zm-2.723.7a51.535,51.535,0,0,1-2.848,6.978c-1.014,2.069-2,4.361-3,6.5-.559,1.318-.575,1.316-1.528,1.514-1.6.334-1.606.316-.187-2.551.422-.852,1.232-2.417,1.8-3.475a57.2,57.2,0,0,0,3.273-7.643,3.236,3.236,0,0,1,.635-1.242C77.21,37.231,78.475,36.855,78.9,37.241Zm-3.511.35a.8.8,0,0,1,.667.2c.071.651-1.694,4.815-2.779,6.745-.331.591-.659,1.358-1.032,2.042a37.2,37.2,0,0,0-3.472,8.151c-.68,2.777,2.505,4.876,4.156,2.857,1.048-1.222-.043-3.42-1.553-2.806-.527.214-.312.449.408.509,1.19.1,1.28,1.927.019,2.328a1.935,1.935,0,0,1-2.427-2.023A2.748,2.748,0,0,1,73.924,53.5a3.793,3.793,0,0,1-.619,6.217c-2.573,1.3-5.742-.462-6.379-3.542-.485-2.35.041-4.5,2.311-8.127a45.329,45.329,0,0,0,4.368-8.846,4.884,4.884,0,0,1,.569-1.2,2.046,2.046,0,0,1,1.215-.411Zm68.984,7.4-3.456,4.38c1,1.436,3.367,4.26,3.367,4.26l3.276-4.217Zm.031,2.45,1.43,1.849L144.2,51.213l-1.535-1.8Zm.129,9.522s-4.178,4.563-3.218,7.949c.857,3.016,5.41,3.749,6.518-.664a5.478,5.478,0,0,0-.031-1.417C147.707,61.03,144.533,56.96,144.533,56.96Zm0,.9s1.2,1.734,2.045,3.27c.947,1.461,1.2,5.544-2.166,5.417-1.822.187-3.561-2.207-2.112-5.134A40.8,40.8,0,0,1,144.533,57.861ZM75.568,58.6c.233-.036.466.464.612.827a3.933,3.933,0,0,1-.97,2.625,19.42,19.42,0,0,0-2.022.765,8.085,8.085,0,0,1,.538-2.217c.777-.766,1.437-1.679,1.745-1.95A.189.189,0,0,1,75.568,58.6Zm-8.326.256c.513.58,1.018,1.082,1,1.441-.031.525-.65,1.173-1.119,1.635-.588.579-1.761.234-1.757-.517A10.391,10.391,0,0,1,67.242,58.851Zm17.685.753a2.826,2.826,0,0,1,1.064,1.577,33.992,33.992,0,0,1-3.327,8.493,5.265,5.265,0,0,1-2.35-.062,29.858,29.858,0,0,0,3.85-8.311C84.517,60.175,84.678,59.608,84.927,59.6Zm-1.527.548c.277-.016.385.207.152.812-1.065,4.315-3.46,8.851-5.342,9.677a4.6,4.6,0,0,1-5.985-1.67c-1.142-2.007-.939-5.174,2.868-5.868,2.24-.229,4.534,1.531,3.339,4.361-1.33,2.1-4.905.929-3.857-1.778.792-.993,2.451-.132,1.909.99-.275.569-.009.919.4.524,1.3-1.265-.841-3.436-2.288-2.349-2.359,1.772.554,5.667,3.3,4,.837-.51,2.35-3.367,2.918-5.449a4.758,4.758,0,0,1,1.044-2.291A3.4,3.4,0,0,1,83.4,60.152Zm-6.254.171a1.393,1.393,0,0,1,.511.179c.275.135.6.381.561.7a2.857,2.857,0,0,1-.678,1.554c-.256-.087-.961-.368-1.442-.5-.3-.081.1-.729.285-1.088.3-.577.462-.819.7-.842A.369.369,0,0,1,77.146,60.323Zm-7.78.147c.355-.006.918.386,1.289.439.072.536-.612,1.683-1.726,3.037-.913,1.111-.909,1.113-1.515-.109-.4-.8-.406-.773.72-2.171.606-.751.9-1.095,1.161-1.188A.531.531,0,0,1,69.366,60.47Zm3.534.393a4.707,4.707,0,0,1-.254,1.285c-1.263,3.76-4.213,7.484-6.647,8.4-3.177,1.035-6.086-.633-6.16-4.477.081-4.53,5.492-5.785,7.126-1.654.739,1.865-1.273,4.669-3.011,4.2-1.755-.471-2.487-3.2-1.041-3.875a1.186,1.186,0,0,1,1.722,1.3c-.071.347-.051.395.152.357.9-.168.426-1.973-.639-2.423-2.011-.851-3.531,1.85-2.174,3.864,1.625,2.411,4.182,1.948,5.654-1.025A9.163,9.163,0,0,1,68.684,65.2a14.16,14.16,0,0,0,1.963-2.792,11.846,11.846,0,0,1,.889-1.468A5.571,5.571,0,0,0,72.9,60.863Zm7.126.2c.381,0,.675.25.666.776a10.344,10.344,0,0,1-.935,2.742c-.113.17-.378.767-.417.637a6.963,6.963,0,0,0-1.13-1.942c-.111-.38.225-.745.374-1.087A1.739,1.739,0,0,1,80.026,61.061Zm6.717.586c.461,0,1.112.207,1.247.548.42.735-2.425,7.582-2.529,7.6l-2.123-.093a66.427,66.427,0,0,0,3.222-8.042A1.144,1.144,0,0,1,86.743,61.647Zm28.49,10.838,2.7,1.6-17.8,28.188L97.547,100.3Zm-44.406.583c16.624.061,39.52.031,39.52.031l-.966,1.829s-25.007-.243-38.554-.218ZM48.384,74.221l-.035,9.265A63.837,63.837,0,0,0,41.4,78.765S45.883,75.777,48.384,74.221Zm71.181.92,1.672,1.053-18.7,29.667-1.041-2.035Zm-48.734.412h2.6v2.932h-2.6Zm5.961,0h3.16v2.932h-3.16Zm6.9.031h3.25v2.932H83.7Zm6.776.012h3.284v2.931H90.472Zm6.826.019h3.242v2.932H97.3Zm6.83.062h3.316v2.066l-.5.866h-2.813ZM122,76.632,153.72,97.085l-.019,2.823L120.68,78.64Zm-2.081,2.392.273.195-1.344,2.05-.277-.155Zm-49,.3h35.605l-1.072,1.8-34.533-.05Zm-29.23.917a3.7,3.7,0,0,1,1.434.6c1.751.979,2.853,3.044,2.1,3.79-.673.663-2.249-.758-3.226-2.788C41.476,80.771,41.34,80.266,41.69,80.244Zm63,1.77L93.2,100.312c-2.6-3.547-5.507-6.611-11.864-4.535-3.314-2.554-6.818-2.948-10.547-.781l.042-12.919Zm-59.13.008.9.773a9.848,9.848,0,0,0-.557,1.883,10.218,10.218,0,0,0-.339-2.656Zm72.818.191,35.39,23.206v2.151L117.142,84.053Zm-77.513.528a1.563,1.563,0,0,1,1.243.59,1.679,1.679,0,0,1-.436,2.318,1.564,1.564,0,0,1-2.1-2.268A1.794,1.794,0,0,1,40.864,82.741Zm5.86.275,1.933,1.542c-3.355,19.066,6.228,38.314,26.869,44.082l.233,2.443c.039.116-8.769-2.607-12.616-5.476a39.694,39.694,0,0,1-12.768-14.348,41.664,41.664,0,0,1-3.978-11.2A47.507,47.507,0,0,1,46.724,83.016ZM44.531,85.6c.74.03.821.562.226,1.584A7.224,7.224,0,0,1,40.985,90.2c-1.024.43-1.292.235-1.173-.854.179-1.637,1.321-2.836,3.3-3.468a5.4,5.4,0,0,1,1.419-.271Zm5.688.205.768.649a1.607,1.607,0,1,0,2.108,1.79c.289.247.56.477.771.66a2.533,2.533,0,1,1-3.647-3.1Zm1.29,1.266a.916.916,0,0,1,.253.039l.561.478a.885.885,0,0,1,.09.384.9.9,0,1,1-.9-.9Zm-6.09.583a66.729,66.729,0,0,0-.066,7.6,6.888,6.888,0,0,0-3.308-4.609,15.347,15.347,0,0,0,3.374-2.994Zm9.3,1.93,1.719,1.479c-1.478,20.183,16.27,27.842,16.746,27.5l.748,2.283C61.677,116.7,53.206,104.073,54.719,89.587Zm98.853,48.386-.089,2.542c-13.907-5.378-29.755-25.219-29.554-44.23-3.57,5.456-5.577,9.1-8.642,14.011l-2.439-1.158c4.012-5.957,7.826-12.329,11.85-18.182.458-.661.834-.964.855.481,0,6.541,2.033,33.452,28.019,46.536ZM40.5,91.163a3.372,3.372,0,0,1,1.893.726c1.272.85,2.7,3.476,2.206,4.062-.444.527-2.33-.1-3.265-1.087C39.481,92.907,39.359,91.236,40.5,91.163Zm10.843.264a2.526,2.526,0,1,1-2.536,2.524A2.531,2.531,0,0,1,51.345,91.427Zm5.677.241L58.678,93.6c.324,16.939,13.739,22.163,13.614,22.2l.405,1.821C71.949,117.732,56.1,110.54,57.022,91.668Zm-5.677.676a1.608,1.608,0,1,0,1.613,1.607A1.61,1.61,0,0,0,51.345,92.344Zm0,.707a.9.9,0,1,1-.9.9A.9.9,0,0,1,51.345,93.051Zm8.572,1.533c.2,0,1.161,1.387,1.161,1.387s-1.051.367-1.5-.09S59.367,94.581,59.917,94.584Zm73.457.626L135.86,96.9c1.16,11.428,7.729,21.853,17.634,29.085l-.062,2.831C141.367,120.694,134.668,109.654,133.374,95.21ZM40.237,95.4c.04,0,.081,0,.121,0a1.588,1.588,0,1,1-1.707,1.8,1.719,1.719,0,0,1,1.208-1.728A1.656,1.656,0,0,1,40.237,95.4ZM60.981,96.93a1.75,1.75,0,0,1,1.243.691c1.09,1.226,1.08,1.582-.07,2.047-1.618.654-2.963-.255-2.424-1.639C60.013,97.3,60.468,96.929,60.981,96.93Zm-16.563.058a.957.957,0,0,1,.366.058c1.193.464-1.393,5.184-3.1,5.662-1.085.3-1.313-.118-.958-1.775C41.118,99.092,43.148,97.014,44.418,96.988Zm7.605.109a2.526,2.526,0,1,1-2.536,2.524A2.531,2.531,0,0,1,52.023,97.1Zm0,.916a1.608,1.608,0,1,0,1.613,1.608A1.61,1.61,0,0,0,52.023,98.013Zm-6.339.136a28.022,28.022,0,0,0,1.648,7.378,10.894,10.894,0,0,0-3.7-3.211C44.563,100.927,45.646,99.538,45.684,98.149Zm6.339.571a.9.9,0,1,1-.9.9A.9.9,0,0,1,52.023,98.72ZM66.377,99a4.2,4.2,0,0,1,4.4,4.194,58.771,58.771,0,0,1-.035,6.962l-2.147-3.918c-.03-1.11.159-1.951.074-3.056a2.371,2.371,0,0,0-3.3-2.264l-.923-1.5A5.37,5.37,0,0,1,66.377,99Zm9.316.3a3.626,3.626,0,0,1,3.99,3.864c.145,4.739-.109,15.56-.109,15.56l-5.361,0-2.927-7.23a7.059,7.059,0,0,1-.093-1.2c.186-2.319.07-4.9.148-6.994A4.537,4.537,0,0,1,75.693,99.3Zm-12.406.749a1.22,1.22,0,0,1,.908.346c1.244,1.253,1.237,2.075-.023,2.64-1.667.748-2.533.607-3.1-.5C60.513,101.436,62.056,100.06,63.287,100.044Zm78.16.342,1.36.874s-.286.445-.44.71c-.772,1.324.54,2.1,2.357,1.4a3.828,3.828,0,0,0,.608-.307l1.122.762s-.809.435-1.691.866c-2.268,1.106-3.9.636-4.446-1.278a2.779,2.779,0,0,1,.425-2.268A9.588,9.588,0,0,1,141.447,100.386Zm-57.509.159a4.73,4.73,0,0,1,4.574,3.716c.2,1.017-.058,14.461-.058,14.461l-8.233,0,.144-14.1a3.6,3.6,0,0,1,.479-2.408A4.118,4.118,0,0,1,83.938,100.545Zm-8.549.618c-1.663.076-2.607,2.76-.9,4.026.715.529.73.629.347,2.416a9.54,9.54,0,0,0,1.036,6.4c.783,1.3.623.636.222-.524-.515-2.176-.262-3.774,1-6.3,1.126-2.13,2.217-5.405-1.364-6A1.677,1.677,0,0,0,75.389,101.163Zm68.326.613.744.5s-.112.093-.273.249c-.3.287-.89.333-1.071.112C142.814,102.273,143.715,101.776,143.715,101.776Zm-59.31,1.041c-1.787-.06-2.964,3.244-.678,4.042.52.335.607.772.285,1.39a9.536,9.536,0,0,0-.8,3.627,13.754,13.754,0,0,0,.639,3.262c.6,1.477.48.887.323-.819a8.348,8.348,0,0,1,1.438-5.1c1.322-2.184,3.141-5.736-1.032-6.384a1.511,1.511,0,0,0-.176-.015Zm-30.749.011a2.527,2.527,0,1,1-2.537,2.525A2.53,2.53,0,0,1,53.656,102.828Zm11.755.257c.437,0,.767.285,1.165.877,1.1,1.628.969,1.961-1.142,3.119-2.236,1.226-3.732-1.858-1.593-3.286a3.643,3.643,0,0,1,1.48-.706C65.351,103.086,65.382,103.085,65.411,103.085Zm-23.214.12c2.359.024,6.044,3.381,4.247,3.868a2.975,2.975,0,0,1-.717.109C42.763,107,39.367,103.176,42.2,103.205Zm11.459.54a1.608,1.608,0,1,0,1.613,1.608A1.61,1.61,0,0,0,53.656,103.745Zm93.433.474,1.177.8s-.72.329-1.567.78c-2.3,1.225-2.969,2.124-2.174,2.924a1.008,1.008,0,0,0,1.224.183,34.971,34.971,0,0,0,4.57-2.563l.884.606c-.02-.041-3.517,2.478-5.427,3.537-3,1.535-4.711-1.6-3.043-3.7C144.02,105.51,145.4,105.092,147.089,104.219Zm-93.433.233a.9.9,0,1,1-.9.9A.9.9,0,0,1,53.656,104.452Zm95.272.842.643.431s-.07.033-2.034,1.158c-2.138,1.223-2.231,1.245-2.349,1.052-.1-.058.04-.558.7-1A29.136,29.136,0,0,1,148.928,105.294Zm-55.612.062a4.217,4.217,0,0,1,3.787,2.136,8.666,8.666,0,0,1,.464,3.336l-.035,7.894H89.241a74.481,74.481,0,0,1,0-9.859A4.124,4.124,0,0,1,93.316,105.356Zm-25.751,1.169c.527-.038.915.477,1.415,1.592s.123,1.73-1.434,2.4a1.533,1.533,0,0,1-.5.14A1.761,1.761,0,0,1,65.96,107.6C66.661,106.92,67.156,106.555,67.565,106.525Zm84.27.808.72.447s-.369.333-3.047,2.279c-2.162,1.572-2.473,2-2.022,2.881.365.712,1.156.62,2.248-.217,1.516-1.161,3.9-3.126,3.9-3.126l.078,1.344c-1.57,1.256-3.464,3.4-4.972,4.217-2.91,1.428-5-2.494-2.338-4.427A61.941,61.941,0,0,1,151.835,107.333Zm-58.2,0c-2.168-.018-2.974,3.188-.643,3.868.671.358.615.542.167,2.139a7.143,7.143,0,0,0-.21,2.917c.174.965.389.943.3-.094a8.626,8.626,0,0,1,1.173-3.029c2.161-3,1.594-5.772-.787-5.8Zm-50.5.039a1.608,1.608,0,0,1,.989,2.85c-.878.606-2.717-.134-2.711-1.091a1.825,1.825,0,0,1,1.429-1.732,1.566,1.566,0,0,1,.293-.027Zm4.114.167c.45,0,.709.656.7,1.957a5.717,5.717,0,0,1-1.815,4.442c-1.659,1.376-2.029-2.374-.479-4.854C46.306,108.055,46.853,107.543,47.25,107.543Zm106.1.493c.409-.006.345.3-.128.633-.368.254-.992.764-2.923,2.388-.35.3-.853.68-1.114.854-.643.43-1.188.318-.877-.178A30.714,30.714,0,0,1,153.354,108.036Zm-97.166.085a2.526,2.526,0,1,1-2.536,2.524A2.531,2.531,0,0,1,56.188,108.121Zm0,.917a1.608,1.608,0,1,0,1.613,1.607A1.61,1.61,0,0,0,56.188,109.038Zm-30.332.046c17.154,8.644,27.849,24.817,30.488,43.24l8.334-13.176L66.93,140,54.786,159.721l-.526-.163c-.051-19.271-9.689-37.5-28.443-47.507Zm30.332.66a.9.9,0,1,1-.9.9A.9.9,0,0,1,56.188,109.744Zm-7.079.105a31.022,31.022,0,0,0,3.074,5.371c-1.431-1.34-2.994-1.282-4.543-1.484Zm20.4.358a.846.846,0,0,1,.74.384c.7.961.831,1.852.343,2.334a1.38,1.38,0,0,1-2.213-.54A1.559,1.559,0,0,1,69.506,110.207Zm84.129,1.335.027,1.5a8.76,8.76,0,0,1-.659.7,13.733,13.733,0,0,0-2.357,2.676c-.3,1.179.866,1.612,2.018.746.4-.3.971-.754.971-.754v1.841c-.973.824-1.942,1.634-3.269,1.367A2.226,2.226,0,0,1,148.772,118c-.554-2.319,1.7-3.613,3.448-5.164C152.784,112.331,153.635,111.542,153.635,111.542Zm-93.874,1.3c.043,0,.085,0,.129,0a2.473,2.473,0,1,1-.129,0Zm50.933.567a1.667,1.667,0,0,1,1,2.9,1.811,1.811,0,0,1-1.983.318C108.171,115.563,109.305,113.485,110.694,113.414Zm-2.759,1.472c.8.845,1.406,3.3.935,3.767-1.043,1.072-4.072-2.5-3.891-4.827C105.3,112.428,107.639,114.573,107.935,114.886Zm-37.069-1.34a.577.577,0,0,1,.557.827c-.125.291-.578.315-.939.167C69.871,114.289,70.158,113.542,70.866,113.546Zm-10.976.218a1.608,1.608,0,1,0,1.613,1.607A1.61,1.61,0,0,0,59.89,113.764Zm-12.075.706c3.059,0,6.286,2.405,3.48,2.882a5.293,5.293,0,0,1-5.058-1.534c-.825-.751-.531-1.149.97-1.317a5.588,5.588,0,0,1,.608-.031Zm12.075,0a.9.9,0,1,1-.9.9A.9.9,0,0,1,59.89,114.47Zm4.235,2.288c.043,0,.089,0,.133,0a2.471,2.471,0,1,1-.133,0Zm49.845.128a2.543,2.543,0,0,1,1.726.458c.449.409-.225,1.2-1.6,1.864-1.607.781-4.411.672-4.407-.171C109.694,117.915,112.121,116.917,113.97,116.886Zm-61.062.664c1.406.007,1.786,4.352.565,6.434-.634,1.08-1.487.358-2.1-1.774C50.876,120.46,51.836,117.544,52.908,117.55Zm11.35.124a1.608,1.608,0,1,0,1.613,1.608A1.611,1.611,0,0,0,64.258,117.674Zm52.557.283a1.251,1.251,0,0,1,.471.16c1.535.751,2.651,4.257,1.851,5.821-.842,1.646-2.736-1.523-2.72-4.552.006-.99.07-1.389.347-1.425A.421.421,0,0,1,116.815,117.957Zm-67.893.226a.785.785,0,0,1,.1,0c1.388.034,2.4,1.946,1.091,2.928a1.877,1.877,0,0,1-1.991.155,1.689,1.689,0,0,1,.1-2.889A1.663,1.663,0,0,1,48.922,118.183Zm15.336.2a.9.9,0,1,1-.9.9A.9.9,0,0,1,64.258,118.381Zm-9.476.3a33.266,33.266,0,0,0,4.262,4.357,9.313,9.313,0,0,0-4.157-.066A10.716,10.716,0,0,0,54.782,118.684Zm49.448.256c20.857,4.865,33.589,26.923,28.556,47.616a9.219,9.219,0,0,1-2.034-1.445,43.757,43.757,0,0,0,.269-14.954,36.944,36.944,0,0,0-26.671-28.736A12.448,12.448,0,0,1,104.23,118.94Zm11.239.151c.235,1.416.463,2.841.812,4.115a25.87,25.87,0,0,0-4.837-2.687A12.031,12.031,0,0,0,115.469,119.091Zm6.013.455a1.56,1.56,0,0,1,1.656,1.588,2.189,2.189,0,0,1-.861,1.444,1.588,1.588,0,0,1-2.2-2.073A1.529,1.529,0,0,1,121.482,119.546Zm-52.4.547a2.526,2.526,0,1,1-2.536,2.524A2.531,2.531,0,0,1,69.081,120.093Zm0,.917a1.608,1.608,0,1,0,1.613,1.607A1.61,1.61,0,0,0,69.081,121.01Zm-43.159.24c10.363,6.1,19.66,19.061,20.35,33.722l-2.509-1.635c-1.081-9.875-6.153-20.619-17.923-29.427C25.84,123.91,25.87,122.962,25.922,121.25Zm57.388,0h13.4v2.878l4.017-2.062v6.364l-4.017-2.423v2.777H83.31v-2.92l-4.1,1.976.046-6.333,4.056,2.271Zm-14.229.466a.9.9,0,1,1-.9.9A.9.9,0,0,1,69.081,121.716Zm5.268.505c.016,0,.034,0,.051,0l.159.917c-.026,0-.051,0-.078,0a1.608,1.608,0,1,0,.608,3.1l.156.92a2.528,2.528,0,1,1-.9-4.932Zm30.259.319c.044,0,.088,0,.132,0a2.522,2.522,0,0,1,.573,4.982l-.152-.909a1.606,1.606,0,0,0-.421-3.157c-.036,0-.073,0-.109,0l-.156-.909C104.518,122.547,104.563,122.541,104.608,122.54Zm17.786.854c3.128.017,4.426,1.807,1.863,2.567a6.454,6.454,0,0,1-4.279-.513C118.7,124.883,120.461,123.384,122.394,123.394Zm-65.384.171a4.87,4.87,0,0,1,2.03.369c1.308.617,1.278,1.037-.12,1.84-1.95,1.121-6.542-.013-5.155-1.273A5.276,5.276,0,0,1,57.01,123.565Zm17.471.276a.9.9,0,0,1,.2.023l.281,1.639a.9.9,0,1,1-.484-1.662Zm30.267.322a.9.9,0,0,1,.292,1.747Zm5.517.644a2.527,2.527,0,1,1-2.536,2.525A2.53,2.53,0,0,1,110.265,124.807Zm-49.378.637a.764.764,0,0,1,.5.21,5.879,5.879,0,0,1,1.679,5.809c-.571,1.86-2.94-1.443-2.926-4.077C60.15,126.171,60.436,125.469,60.887,125.444Zm65.672.222c.21,0,.432.16.651.524.944,1.566.9,4.8-.078,5.809-.555.572-.762.464-1.34-.7C124.8,129.3,125.549,125.658,126.559,125.666Zm-16.294.058a1.608,1.608,0,1,0,1.613,1.608A1.61,1.61,0,0,0,110.265,125.724Zm-47.363.431a48.188,48.188,0,0,0,5.914,3.219,6.037,6.037,0,0,0-4.773,1.049A5.777,5.777,0,0,0,62.9,126.155Zm57.548.34a13.121,13.121,0,0,0,4.5.124,13.9,13.9,0,0,0-.278,4.281,27.209,27.209,0,0,0-4.218-4.405Zm-10.185-.064a.9.9,0,1,1-.9.9A.9.9,0,0,1,110.265,126.431Zm-51.4.858a1.509,1.509,0,0,1,.066,2.734c-1.435.932-3.307-.7-2.411-2.109a1.775,1.775,0,0,1,2.345-.625Zm56.493.819a2.526,2.526,0,1,1-2.537,2.524A2.53,2.53,0,0,1,115.354,128.108Zm14.837.423a1.558,1.558,0,0,1,.752.183,1.509,1.509,0,1,1-2.038,2.066A1.506,1.506,0,0,1,130.191,128.531Zm-24.465.373c12.484,4.235,20.845,18.078,18.831,31.4L123,158.84c1.187-7.552-2.975-21.981-16.879-27.9Zm9.628.121a1.608,1.608,0,1,0,1.613,1.607A1.61,1.61,0,0,0,115.354,129.025Zm0,.706a.9.9,0,1,1-.9.9A.9.9,0,0,1,115.354,129.731Zm-47.469.16c.637.055,1.712-.059,1.964.539.283.757-1.274,2.066-3.25,2.323-.8.047-2.528.251-2.891-.327C63.368,131.706,65.693,129.913,67.885,129.891Zm-39.633.442c1.687-.074,3.59,2.176,1.882,4.012a35.506,35.506,0,0,1-4.165,3.331v-1.234s2.741-2,2.785-2.9a1.108,1.108,0,0,0-1.819-1.006c-.191.124-.943.734-.943.734l.062-2.07a3.28,3.28,0,0,1,2.2-.87Zm43.112.528c1.252.048,4.153,4.505,3.414,5.417-.586.723-2.942-.879-3.827-2.6-.475-.925-.332-2.572.242-2.788A.439.439,0,0,1,71.364,130.861Zm19.3.54s.129,10.372-.456,11.351c-2.345,4.23-7.407,2.029-7.839-1.142-.311-1.912-.125-10.189-.125-10.189Zm.74,0h8.089s-.036,14.6-.363,15.436a5.471,5.471,0,0,1-2.178,2.178c-2.375,1.035-4.915-.433-5.544-3.2-.453-2,0-14.411,0-14.411Zm8.767,0h5.369s.184.774.4,1.41c.373,1.109,1.639,4.291,1.785,4.485.656.872.688,10.415.039,11.5-2.368,3.539-6.309,2.509-7.75-1.41C99.645,146.132,100.166,131.4,100.166,131.4Zm6.261.361c9.63,4.559,17,14.224,16.076,26.627l-1.769-1.759c.646-8.56-5.893-19.26-13.524-22.441Zm13.259.292a2.526,2.526,0,1,1-2.536,2.524A2.53,2.53,0,0,1,119.686,132.054Zm9.5.256a4.937,4.937,0,0,1,2.954,1.044c1.028.846,1.172,1.514.374,1.759a4.732,4.732,0,0,1-4.555-1.126C126.878,132.927,127.809,132.29,129.185,132.31Zm-9.5.66a1.608,1.608,0,1,0,1.613,1.608A1.61,1.61,0,0,0,119.686,132.97Zm-50.737.2a1.658,1.658,0,0,1,.935,2.862,2.156,2.156,0,0,1-2.089.151A1.678,1.678,0,0,1,68.949,133.172Zm17.856.481a21.775,21.775,0,0,1-1.761,3.717c-1.594,2.649-1.387,4.426.3,5.324a2.025,2.025,0,1,0,1.832-3.608c-.855-.487-.855-.493-.546-1.806C87.012,135.642,87.079,133.688,86.805,133.653Zm32.881.024a.9.9,0,1,1-.9.9A.9.9,0,0,1,119.686,133.677Zm-24.211.52c-.113-.007-.027.652-.035,1.821-.014,1.888-.173,2.463-1.384,4.994-1.546,3.233-1.34,5.442.577,6.159a2.229,2.229,0,0,0,2.946-2.311,1.58,1.58,0,0,0-.932-1.638c-.512-.033-1.08-.272-1.04-.517C95.921,140.775,97.6,137.138,95.475,134.2Zm31.988.26a8.667,8.667,0,0,0,4.4,1.623,13.542,13.542,0,0,0-.845,4.8,30.152,30.152,0,0,0-3.558-6.419Zm-95.506.3a2,2,0,0,1,.3.02,2.508,2.508,0,0,1,1.886,2.85c-.281.993-.368,1.161-4.22,3.724a20.137,20.137,0,0,1-2.361,1.483l-1.145-.768s.969-.645,2.5-1.674c2.955-1.98,3.39-2.451,3.086-3.336-.331-.961-1.436-.759-3.183.583-2.587,1.985-2.856,2.116-2.856,2.116v-1.184s1.134-.9,1.624-1.321C28.793,136.4,30.449,134.768,31.957,134.752Zm76.527.517a.4.4,0,0,1,.413.524c-.048.123-.218.2-.444.2a.362.362,0,0,1-.027-.722.386.386,0,0,1,.058,0Zm25.969,1.378c.547,1.869-.629,4.984-1.349,5.382-.767.757-1.247.035-1.413-1.922C131.7,138.52,133.519,133.559,134.453,136.647ZM103.661,135.6c.235,2.692.32,4.928-.947,7.114-1.642,2.835-1.216,5.265.542,5.8a2.188,2.188,0,0,0,2.988-2.411,2.476,2.476,0,0,0-1.247-1.48c-.538-.137-.6-.47-.3-1.537a9.952,9.952,0,0,0-.5-6.578c-.082-.283-.411-.919-.537-.909Zm5.891.9a1.691,1.691,0,0,1,1.068,2.932c-.616.563-1.008.307-1.652-1.072C108.37,137.077,108.554,136.491,109.552,136.5Zm13.754.392a2.526,2.526,0,1,1-2.537,2.524A2.53,2.53,0,0,1,123.306,136.888Zm0,.917a1.608,1.608,0,1,0,1.613,1.607A1.61,1.61,0,0,0,123.306,137.805Zm0,.706a.9.9,0,1,1-.9.9A.9.9,0,0,1,123.306,138.511Zm-10.882.664a1.239,1.239,0,0,1,.6.117c1.336.644,1.19,2.487-.285,3.588-.933.7-1.327.455-2.2-1.344C110.066,140.56,111.305,139.222,112.424,139.175Zm-77.443.21a1.648,1.648,0,0,1,.385.058,2.774,2.774,0,0,1,1.906,3.2c-.76,1.876-3.331,2.508-5.284,3.293l-1.013-.738s1.432-.81,2.821-1.448c1.3-.6,1.512-.835,1.415-1.588-.19-1.472-.9-1.419-4.138.318-1.316.707-2.283,1.332-2.283,1.332l-.717-.586c1.07-.7,1.713-1.092,2.883-1.888,1.953-1.333,3.068-1.906,3.884-1.945.048,0,.095-.005.141,0Zm102.883,1.09c.471,1.426-.49,2.677-1.937,2.116a1.611,1.611,0,0,1-.854-2.231C135.723,139.343,137.548,139.519,137.864,140.475Zm-29.033-.5,2.28,4.081s.029,1.136.05,1.767c.087,2.65.656,3.527,2.213,3.27.112-.018.667-.179.667-.179l.989,1.662s-1.07.466-1.348.525c-1.833.383-4.371-.989-4.765-2.824-.382-1.775-.086-8.3-.086-8.3Zm-74.668,1.678c.688.05.4.574.077.745-1.338.68-2.6,1.419-4,2.221l-.935-.578s.721-.4,1.219-.707A12.145,12.145,0,0,1,34.163,141.657Zm91.6.524a2.526,2.526,0,1,1-2.536,2.524A2.531,2.531,0,0,1,125.764,142.181Zm-10.73.346a1.493,1.493,0,0,1,1.387.757c.677,1.12-.04,2.489-1.683,3.219-.918.407-1.071.323-2.05-1.122-.661-.977-.657-1.153.075-1.775a3.907,3.907,0,0,1,2.271-1.079Zm-89.019.221,36.326,23.443L61.3,167.946,26.086,144.969Zm107.936.3c2.207.042,5.088,2.589,4.067,3.6a.7.7,0,0,1-.467.178C134.4,146.64,130.921,142.993,133.951,143.051Zm-8.187.046a1.608,1.608,0,1,0,1.614,1.608A1.611,1.611,0,0,0,125.764,143.1Zm-48.512.447.962,2.493L60.135,174.722l-1.776-1.138Zm48.512.26a.9.9,0,1,1-.9.9A.9.9,0,0,1,125.764,143.8Zm6.64.3a7.711,7.711,0,0,0,4.036,3.351,5.855,5.855,0,0,0-2.318,4.757A44.066,44.066,0,0,0,132.4,144.1Zm-95.572.866a1.8,1.8,0,0,1,1.013.272c3.388,2.313.276,4.6-.012,4.423l-1.153-.726c.4-.656,1.3-1.544-.152-2.373a2.718,2.718,0,0,0-2.537.625l-1.212-.827a10.263,10.263,0,0,1,4.052-1.394Zm79.9,1.309a1.662,1.662,0,0,1,.374.027c1.912.368,1.78,2.391-.218,3.328-1.137.533-1.338.425-2.33-1.274C114.089,147.562,115.5,146.318,116.729,146.278Zm-80.509.741a.573.573,0,0,1,.5.35c.1.531-.889,1.064-.889,1.064l-1.134-.75A4.067,4.067,0,0,1,36.22,147.019Zm101.884.486a.5.5,0,0,1,.561.439c.388,1.571-1.364,4.485-2.981,4.958-.943.277-1.217-.166-.907-1.467.434-1.829,2.338-3.853,3.327-3.93Zm-58.592.12,2.941,2.128-17.65,27.8-3.055-1.81Zm48.029.225a2.526,2.526,0,1,1-2.536,2.525A2.531,2.531,0,0,1,127.541,147.85Zm0,.917a1.608,1.608,0,1,0,1.613,1.608A1.61,1.61,0,0,0,127.541,148.767Zm0,.707a.9.9,0,1,1-.9.9A.9.9,0,0,1,127.541,149.474Zm-40.556.093c1.914,2.152,4.067,6.965,11.579,4.695a8.889,8.889,0,0,0,10.45.955l.031,12.97-33.356.035Zm-60.923.33,32.85,21.548-1.029,1.809L26.031,152.965Zm92.222.019a.327.327,0,0,1,.081.008c1.68.41,1.869,2.082.308,2.722-.835.343-1.006.258-1.8-.912-.318-.467-.5-.854-.452-.971a3.434,3.434,0,0,1,1.867-.847Zm21.079,1.771a1.667,1.667,0,0,1,.771,3.118,1.638,1.638,0,0,1-2.244-2.213,1.6,1.6,0,0,1,1.473-.905Zm-20.569,1.759c.775,0,1.425.741,1.048,1.188-.25.3-.571.212-.982-.26-.482-.554-.51-.93-.066-.928Zm9.417.322a2.526,2.526,0,1,1-2.536,2.525A2.531,2.531,0,0,1,128.211,153.768Zm7.146.14c1.912.011,4.561,3.193,4.111,4.94-.147.569-1.219.262-2.494-.715C135.252,156.814,134.137,153.9,135.357,153.908Zm-7.146.777a1.608,1.608,0,1,0,1.613,1.608A1.61,1.61,0,0,0,128.211,154.685Zm6.145.326a6.11,6.11,0,0,0,3.452,4.26c-3.7,1.717-4.405,4.61-3.85,8.318l-.865-.528a44.834,44.834,0,0,0,1.263-12.05Zm-6.145.381a.9.9,0,1,1-.9.9A.9.9,0,0,1,128.211,155.392Zm-.471,4.058a2.524,2.524,0,0,1,1.395,4.636l-.818-.61a1.609,1.609,0,1,0-2.182-1.627l-.823-.613A2.54,2.54,0,0,1,127.74,159.45Zm11.541.322c1.207.006-.67,3.342-2.393,4.252-1.311.692-2.512.746-2.509.113C134.388,162.478,137.438,159.762,139.281,159.772Zm-11.541,1.3a.9.9,0,1,1,0,1.8.977.977,0,0,1-.9-.9A.9.9,0,0,1,127.74,161.073Zm11.151,3.04a1.591,1.591,0,0,1,1.434.765,1.425,1.425,0,0,1-.394,1.81,1.552,1.552,0,0,1-2.489-1.852,1.573,1.573,0,0,1,1.449-.723Zm-4.664,1.356a3.721,3.721,0,0,1,3.2,4.007c-.322.378-2.56-1.314-2.8-1.487A7.173,7.173,0,0,1,134.227,165.469Zm-2.77,1.561a67.231,67.231,0,0,0,6.367,3.813l-6.351,4.066Zm-56.691,1.887,34.2.124,0,1.433-35.137.019.935-1.576Zm-1.4,2.24h2.3v2.792H72.514v-1.541Zm32.861.066H109v2.792h-2.767Zm-27.145.02h3.148v2.792H79.087Zm6.549.023h3.4v2.792h-3.4Zm6.959,0h3.273v2.792H92.6Zm6.99.047H102.7v2.792H99.585Zm-28.474,3.44,37.931.09v1.673l-39.014-.089Zm32.363,3.526c3.861-.042,6.112,4.253,3.093,7.27-2.774,2.772-7.4-.769-5.092-3.887,1.29-1.742,4.462-.339,3.67,1.518a1.153,1.153,0,0,1-2.178-.672c0-.532-.391-.168-.436.4a1.559,1.559,0,0,0,1.539,1.511c2.241,0,2.577-2.956.417-4.043-1.93-.971-3.961.268-4.43,2.726a8.229,8.229,0,0,1-.612,1.414,13.944,13.944,0,0,0-1.3,3.883,3.928,3.928,0,0,1-1.013.7c-1.1.548-1.056.317-.643-1.468,1.187-5.141,3.126-8.452,5.5-9.126a5.691,5.691,0,0,1,1.489-.225Zm11.42.268a4.692,4.692,0,0,1,4.493,3.419c1.37,4.6-4.759,7.42-6.9,3.251-1.193-2.383,1.279-5.227,3.544-4.119,1.855.908,1.735,3.727-.159,3.717-1.029.048-1.655-.873-1.087-1.612.294-.291.647-.063.794-.551.062-.2-.229-.368-.931-.225-1.163.235-1.044,2.571.3,3.036,2.009.693,3.727-1.418,2.77-3.506-1.149-2.511-4.261-2.522-5.684.1a12.832,12.832,0,0,1-.709,1.169c-2.124,2.872-2.291,3.3-2.923,4.9a.34.34,0,0,1-.366.256,4.487,4.487,0,0,0-1.551.28c-.264-.07.088-1.077.113-1.153C108.053,183.063,111.767,178.655,114.894,178.547ZM96.418,179.8a31.846,31.846,0,0,0-3.067,7.91,10.6,10.6,0,0,0-1.558-.668c-.2-.071-.038-.306-.051-.66A19.406,19.406,0,0,1,94.7,179.5c.287-.211,2.133-.277,1.715.3Zm2.162.838c-1.3,1.648-2.648,6.027-2.93,8.287a8.156,8.156,0,0,1-.14.839c-.2.676-1.471-.776-1.465-1.674.01-1.525,1.706-6.173,2.918-7.949.422-.618.473-.721,1.375-.753,1.45-.036.813.523.242,1.25Zm-63.334-1.087a4.565,4.565,0,0,0-.951.124c-1.876.464-4.112,2.445-4.329,4.548a5.21,5.21,0,0,0-.2,2.279c.62,2.821,2.272,4.735,4.294,7.533a50.941,50.941,0,0,1-4.282,5.736l4.122,5.945c-1.14,2.244-3.122,3.941-3.619,6.71-.778,3.646,1.138,7.2,5.213,7.526,3.041.091,5.034-1.957,5.412-5.06.154-2.062-.7-4.649-3.76-8.737-.152-.2-.448-.621-.448-.621s.344-.4.526-.672c1.076-1.452,3.885-5,3.885-5l-4.2-5.914a5.347,5.347,0,0,1,.507-.839c3.425-4.655,4.063-7.022,3.456-9.335a5.391,5.391,0,0,0-1.578-2.392,5.548,5.548,0,0,0-4.056-1.829Zm-.1.571a5.2,5.2,0,0,1,3.838,1.681c2.573,2.684,2.346,4.954-1,9.918-.734,1.089-1.454,2.287-1.454,2.287l4.22,5.81c-1.383,1.95-2.958,3.679-4.4,5.735.731,1.119,1.919,2.314,2.665,3.658a11.427,11.427,0,0,1,1.6,4.431c.336,2.923-1.57,6.036-4.832,6.112a5.56,5.56,0,0,1-5.505-5.906,8.995,8.995,0,0,1,1.383-4.155c.759-1.348,2.537-3.969,2.537-3.969l-4.084-5.934,4.325-5.755s-3.145-3.838-4.11-6.6a5.871,5.871,0,0,1,.88-5.207,4.912,4.912,0,0,1,3.939-2.1Zm-2.675,8.336a11.437,11.437,0,0,0,2.805,4A18.239,18.239,0,0,0,38.2,188C41.362,180.453,29.155,179.838,32.473,188.456Zm2.759,3.26c-1.549-1.8-2.643-3.289-2.749-5.657a2.875,2.875,0,1,1,5.677.029C37.818,188.372,36.614,189.816,35.232,191.716Zm76.264-7.375c.119.66.765,1.779.709,2.042-.3.693-.736,1.038-1.344,2.179-.128.243-.068.293-.409.233a11.1,11.1,0,0,1-1.184-.307c-.172-.049-.37-.143-.289-.361.584-1.337,1.238-2.932,2.517-3.786Zm-10.2,2.019-.724,1.871c-.069.2-.076.235-.289.19a5.672,5.672,0,0,0-1.185-.053c-.9-.11.793-3.454,1.048-3.96.367.061.91,1.49,1.15,1.952Zm.682.431a.236.236,0,0,1,.046,0,5.775,5.775,0,0,1,1.325.424c.225.092.232.1.133.376-.208.412-.463,1.6-.737,2.015-.008.06-1.279-.753-1.641-.91C101.09,188.471,101.506,186.855,101.978,186.791Zm10.781.222a2.609,2.609,0,0,1,1.223.613c.133.263.012.528-.456,1.332-.414.712-.846,1.48-.951,1.4a5.839,5.839,0,0,1-1.184-.959c-.215-.295.194-1.048.471-1.46C112.3,187.286,112.511,187.052,112.759,187.013Zm-6.858-.095c.389.087-.227,2.082-.343,2.331a6.145,6.145,0,0,1-1.4,1.561c-.232.149-.947-.277-.931-.776a15.815,15.815,0,0,1,.919-2.618,6.375,6.375,0,0,1,1.75-.5Zm-15.862.762c.087,0,.174,0,.261,0a4.561,4.561,0,0,1,4.088,2.385c.467.793.473.827.366,1.568a7.022,7.022,0,0,0,.3,3.981c.525,1.215.446,1.633-.838,4.337-1.288,2.723-2.852,6.04-4.04,9.114a32.477,32.477,0,0,0-1.313,4.031c-.2.768-1.14.537-2.077.5-.476.1.687-3.092,2.412-6.912,1.38-3.058,3.258-6.5,4.007-9.924.61-2.79.415-3.937.08-5.108-1.292-3.409-5.789-2.573-5.778.567.1,2.034,2.458,3.124,3.323,1.13.145-.917-.309-.383-.689.062-.815.954-2.211-.107-1.991-1.515a2.175,2.175,0,0,1,3.841-.994c1.269,1.6.99,3.254-.841,4.493a2.967,2.967,0,0,1-4.547-.839,4.556,4.556,0,0,1,3.44-6.881Zm9.332,1.352c1.873.038,3.906,1.6,4.235,2.841.177.841-.095,1.83.207,2.642.251.651.492,1.025.311,1.6-1.541,4.943-5.18,10.216-6.978,16.068-.207.408-.4.459-.861.591-.719.2-1,.182-1.075-.191a6.755,6.755,0,0,1,.588-2.3,44.225,44.225,0,0,1,2.268-5.34c1.52-2.847,2.367-4.794,3.471-7.227.207-.454.265-.724.589-1.378,1.391-2.812-.181-5.584-3.063-5.6-2.283-.012-3.3,3.552-1.305,4.594,1.955,1.019,3.414-1.658,1.675-2.6-.419-.229-.527-.011-.191.392.774.927.08,2.173-1,1.677-1.668-.768-.809-3.6,1.138-3.436,3,.252,3.4,4.608.331,5.712-4.213,1.517-6.423-5.243-2.459-7.518a4.079,4.079,0,0,1,2.116-.528Zm8.876.136a4.484,4.484,0,0,1,3.23,1.281c2.356,2.255,1.728,5.735-2.252,12.465a45.126,45.126,0,0,0-3.269,6.944,1.454,1.454,0,0,1-.709.959c-.691.379-1.473.426-1.575.159-.258-.684,1.714-4.936,5.225-11.615.923-1.78,2.089-3.846,2.03-5.964a2.664,2.664,0,0,0-3.514-2.342,1.9,1.9,0,0,0-.85,3.044,1.7,1.7,0,0,0,1.177.54c.583.019,1.245-.555.117-.617a1.168,1.168,0,0,1-.592-2.175c1.447-.969,3.109.173,2.992,2.058-.242,3.791-5.8,3.225-5.942-.679a3.9,3.9,0,0,1,3.932-4.058Zm-15.691,6.069c.84-.064-.605,4.442-3.128,9.5a89.041,89.041,0,0,0-3.492,8.737c-.29.391-2.029.463-2.026.058,3.086-9.853,5.266-11.55,6.32-15.3.184-.648.318-1.585.343-1.666C91.353,196.338,92.01,195.407,92.556,195.237Zm-57.119.664-3.269,4.248,3.191,4.513,3.315-4.314Zm70.788,1.313a21.976,21.976,0,0,1-1.715,4.431c-3.2,6.44-4,8.177-4.551,9.894a.863.863,0,0,1-.463.59c-.4.149-1.509.361-1.6.21.677-3.764,5.86-12.328,6.866-16.081.4-.017,1.431.593,1.465.956Zm2.563-.392c.217-.016.3.072.242.361a24.792,24.792,0,0,1-1.633,3.471c-2.7,5.284-4.112,8.414-4.562,10.023-.106.377-.171.673-.351.769-.371.2-1.668.718-1.73.155.405-2.388,1.984-3.942,6.067-13.9.191-.327.358-.487.537-.516.5-.082.937-.32,1.43-.361Zm-11.065,1.635a29.281,29.281,0,0,1-1.98,4.283,60.912,60.912,0,0,0-3.966,9.525,2.284,2.284,0,0,1-.46.986,5.254,5.254,0,0,1-1.734.152c-.215-1.082,1.5-5.118,3.4-9.363,1.036-2.308,2.238-4.608,3.044-6.679C96.582,197.443,97.646,197.971,97.723,198.457Zm2.886-1.019c.576-.006.129.96-1.254,3.682a59.153,59.153,0,0,0-4.064,8.866c-.3.784-.655,1.758-.787,2.166-.169.528-.327.789-.545.9a2.064,2.064,0,0,1-1.6-.019c-.282-.342,1.211-4.348,2.665-7.425,1.283-2.585,2.187-4.661,3.3-7.052.3-.474.316-.507.625-.569a9.706,9.706,0,0,0,1.665-.546Zm-65.118.514,1.683,2.244-1.975,2.45-1.644-2.384Zm-.253,9.68a14.1,14.1,0,0,0-1.45,2.121c-2.15,3.568-2.209,6.2.328,7.766a3.1,3.1,0,0,0,3.347-.342c2.873-2.5.737-5.928-1.119-8.255A11.6,11.6,0,0,0,35.238,207.632Zm.105.913a14.786,14.786,0,0,1,2.583,3.809c.826,2.139.3,3.82-1.3,4.61C34.1,218.212,31.8,215.409,33,212.417A15,15,0,0,1,35.343,208.545Zm70.706,4.225c.237.45-24.032,6.045-41.936,1.243L53.219,229.724l62.894-.109Zm-.919,1.114s5.846,10.086,8.716,15.025h-4.033l-5.747-12.264a63.948,63.948,0,0,1-9.18,1.86l2.046,10.4h-3.02l-1.706-9.941a128.3,128.3,0,0,1-13.474.337l-1.975,9.6H73.6l2.026-9.538c-3.478-.467-6.94-.908-10.473-1.487l-5.926,11.025H54.762l9.3-13.836c13.884,2.776,26.688,2.123,41.067-1.189Zm-2.2,5.414,4.559,9.611H98.857l-1.59-8.575Zm-36.964.7,7.547.974-1.948,7.938H61.374Zm24.64,1.184,1.037,7.728H78.639l1.445-7.577Z"/></g></g><path id="bfaccd21-7b8b-4f69-a1b8-03adb1248b08" data-name="path153-6-3-1-9-5-1-4" d="M48.375,26.652C40.994,37.178,33.1,43.235,32.966,51.447c-.045,2.659,1.393,7.179,5.9,8.044,2.921.559,6.944-1.806,7.028-6.61-.013-.956,1.012-.932,1,.379a27.273,27.273,0,0,1-3.353,11.793h9.668A27.273,27.273,0,0,1,49.856,53.26c-.009-1.311,1.016-1.335,1-.379.084,4.8,4.107,7.169,7.029,6.61,4.5-.865,5.94-5.385,5.9-8.044C63.653,43.235,55.756,37.178,48.375,26.652Z"/><path id="18543acf-1572-4294-92db-232bb7f8ebc7" data-name="path153-6-3-1-8-6-9-9-4" d="M131.2,223.789c-7.381-10.525-15.278-16.582-15.409-24.794-.044-2.659,1.394-7.179,5.9-8.044,2.921-.559,6.944,1.806,7.028,6.61-.013.956,1.012.932,1-.379a27.273,27.273,0,0,0-3.353-11.793h9.668a27.273,27.273,0,0,0-3.353,11.793c-.009,1.311,1.016,1.335,1,.379.083-4.8,4.106-7.169,7.028-6.61,4.5.865,5.941,5.385,5.9,8.044C146.479,207.207,138.582,213.264,131.2,223.789Z"/></g><rect id="ea650ca1-2acc-42a7-a623-662bd59fe141" data-name="rect17630" x="0.496" y="0.496" width="178.583" height="249.449" rx="8.504" ry="8.504" opacity="0.08" fill="url(#72211bc5-5fea-486c-b2ef-15de2a65631e)" style="isolation:isolate"/></g></g></g></svg>