<svg xmlns="http://www.w3.org/2000/svg" xmlns:xlink="http://www.w3.org/1999/xlink" viewBox="0 0 179.58 250.446"><defs><pattern id="bf0105e0-8883-4ea7-8ea6-34d50cc0e731" data-name="pattern17764" width="595.276" height="841.89" patternTransform="matrix(0.8, 0, 0, -0.8, -617.114, 1814.928)" patternUnits="userSpaceOnUse" viewBox="0 0 595.276 841.89"><rect width="595.276" height="841.89" fill="none"/></pattern></defs><title>KC</title><g id="58dfd6c1-8097-4856-b004-848fd08153b8" data-name="Layer 2"><g id="991eda9e-b636-4097-9a9f-f0a78f4a8e2e" data-name="Clubs"><g id="1a186051-213f-40d4-919d-1c161447f8b8" data-name="KC"><g id="a4846050-ccf1-47f6-9d00-19db3c9e939e" data-name="g31993"><rect id="325b6e9c-2f2d-4107-bde6-51f4330bfca8" data-name="rect5230" x="0.498" y="0.498" width="178.583" height="249.449" rx="8.504" ry="8.504" fill="#fff" stroke="#b3b0b0" stroke-width="0.997"/><path id="dc9887e7-fe49-47cb-9c5d-eb4463c3ad9b" data-name="path147-6-9-8-7-0-5-6-9-6-3" d="M167.023,211.112c3.142-.071,4.551-3.751,2.224-6.609-.337-.417-.372-.656.246-.256,1.567,1.09,4.571.374,4.724-2.958.19-4.106-5.323-5.289-6.359-.923-.054.461-.414.45-.327-.2a13.981,13.981,0,0,1,1.359-5.05h-3.735a14.022,14.022,0,0,1,1.359,5.05c.087.654-.273.665-.328.2-1.035-4.366-6.549-3.183-6.359.923.154,3.332,3.158,4.048,4.724,2.958.619-.4.584-.161.246.256-2.327,2.858-.918,6.538,2.224,6.609h0Z"/><path id="7b7bc5c4-6fcc-467e-8362-c8000e666c1f" data-name="path147-6-9-8-7-4-5-62-08-0-2" d="M15.985,41.62c-3.141.07-4.55,3.751-2.223,6.609.337.417.372.656-.246.256-1.567-1.09-4.571-.374-4.725,2.958-.19,4.106,5.324,5.289,6.36.923.054-.461.414-.45.327.2a14,14,0,0,1-1.359,5.05h3.735A14,14,0,0,1,16.5,52.57c-.087-.654.273-.665.328-.2,1.035,4.366,6.549,3.183,6.359-.923-.154-3.332-3.158-4.048-4.725-2.958-.617.4-.583.161-.245-.256,2.327-2.858.918-6.538-2.224-6.609h0Z"/><path id="3dab496a-ad89-4f94-83d4-203043fac062" data-name="path39-7-2-1" d="M16.623,36.2h2.656l-3.9-9.748L12.4,30.574l.02,5.63h2.094v2.9H7.134V36.2h2.43V15.24l-2.43.01V12.712h7.485v2.624H12.553l-.044,10.217,6.534-10.3H16.737V12.712H24.7V15.25H22.6l-5.38,8.42,5.268,12.538h2.337l.012,2.9H16.648L16.623,36.2Z"/><path id="2b047e46-7bd8-40c8-ad6c-c9100d862969" data-name="path39-3-8-1-1" d="M166.383,216.528h-2.656l3.9,9.748,2.98-4.118-.02-5.63H168.5v-2.9h7.377v2.9h-2.43v20.964l2.43-.01v2.538h-7.485V237.4h2.066l.044-10.217-6.534,10.3h2.306v2.538h-7.963v-2.538h2.1l5.38-8.42-5.268-12.538h-2.337l-.012-2.9h8.188l.025,2.908Z"/><g id="32351df8-42e8-48ec-a3e6-7bd6f5d36284" data-name="g3440-6-4-8"><g id="6d3c06ad-9a59-4f79-9827-b5e125c1deaf" data-name="g3454-7-1-1"><path id="81810caa-e4ea-4349-bd90-da9d17dce99c" data-name="path3450-5-0-3" d="M130.983,22.4l-65.657.321,8.337,15.923c17.065-1.547,32.019-.171,47.6.341ZM86.141,78.383c-.068.092-2.731.785-2.46,1.4,6.953,15,10.059,27.213,12.962,42.634a6.747,6.747,0,0,1,3.842-1.152c-1.171-5.727,5.991-6.441,6.038-.45,1.375.322,2.789.327,4.03,1.726a96.263,96.263,0,0,1,14.305-46.369c-8.829,3.522-21.784,12.3-21.784,12.3S92.294,83.98,86.141,78.383Zm53.668,1.794c-11.751,11.243-16.35,42.452-15.507,42.883-15.147-.51-19.738,16.319-6.608,25.394-.519,1.76-1.8,3.192-2.8,4.747a10.631,10.631,0,0,0,4.309,1.112c1.121,1.339,2.223,2.884,3.441,3.011a22.483,22.483,0,0,0,3.359-3.127,23.567,23.567,0,0,0,4.037-1.341c-1.154-1.622-2.521-3.262-2.557-4.782,11.416-8.111,9.85-19.14-.442-24.786,3.066-18.573,7.538-30.438,12.728-38.876Zm-80.93,14.35c-1.493.734-2.307,2.283-3.391,3.5a12.033,12.033,0,0,0-4.336,1.217s3.406,4.74,3.2,5C43.305,111.525,43.4,122.177,54,129.194c1.8,15.16-10.987,39.151-11.632,38.453l-.023,4.961c9.1-10.02,14.293-28.118,14.811-42.732,18.168-1.219,18.811-18.907,6.3-25.561-.961-.888,3.145-5,3.145-5-1.043-1.034-2.786-1.151-4.313-1.279A18.263,18.263,0,0,0,58.879,94.527Zm76.84,12.241c2.569,5.758,11.953-1.258,13.581,1.806,1.321,1.738,4.2,1.916,4.044-1.011-.541-2.9-2.435-3.542-9.949-2.279-2.85.479-4.019.763-4-.546C137.422,102.339,135.731,105.6,135.719,106.768Zm8.715,8.4c-2.106,0-2.465,8.3-2.434,10.791-6.1,9.707,12.512,8.6,4.463-1.971.281-1.382-1.026-3.635-.99-4.631C144.814,119.276,144.524,115.528,144.434,115.171ZM35.5,127.69c-.193,2.511,1.633,10.131,2.311,9.872,2.385-3.87,2.1-7.181,1.855-10.961C45.345,115.586,25.944,120.107,35.5,127.69Zm35.412,1.771c-.848,16.213-4.789,32.121-13.721,45.915,7.688-3.611,15.15-8.27,22.37-12.259l16.873,10.525a6.651,6.651,0,0,0,2.3-1.282C90.959,160.9,88.553,144.4,85.165,129.481a11.7,11.7,0,0,1-3.713,1.383c-.174,5.176-5.561,6.853-6.661.1ZM30.187,142.11c-1.8.115-3.154,4.6,1.945,5.27,3.6.513,8.205-1.272,10.49-.445,2.657,4.271,5.043-2.017,1.492-3.042-3.815-1.1-11.584,1.772-12.444-.671C31.229,142.388,30.691,142.078,30.187,142.11Zm30.6,70.226L50.61,230.456l65.081-.395-8.507-17.283C107.329,212.586,78.76,216.2,60.789,212.336Z" fill="#e2cf00"/><path id="46f871a7-593f-4d97-bd05-a0232b55fada" data-name="path3446-6-3-4" d="M74.68,40.376l1.29,2.358c15.244-2.531,27.248-2.926,43.018.145l1.44-2.457C106.033,37.808,91.352,36.728,74.68,40.376ZM89.059,75.894l13.3,8.674s6.37-4.538,9.086-6.457L109.8,75.67c-5.626,12.5-15.515,2.615-19.223-3.267C90.576,72.4,89.569,74.681,89.059,75.894Zm35.729,4.2a1.852,1.852,0,0,1,1.9,1.284c.523,1.068.722.805.386-.527-.53-2.1,1.682-3.466,3.767-2.064,1.5,1.012,1.439,3.462-.206,3.916-1.328.366-1.363.718-.2.66,2.094-.1,2.651,2.713,1.161,4.09a2.37,2.37,0,0,1-4.1-1.524c-.091-.562-.209-.554-.393-.236a5.446,5.446,0,0,0-.474,3.185L123.54,86.94a7.919,7.919,0,0,0,2.569-1.715c.1-.109.182-.188.181-.236,0-.085-.344.029-.975.095-1.868.2-3.307-1.025-2.923-2.8.326-1.509,1.1-2.167,2.4-2.2Zm-13.64,48.929c3.365-3.88,7.543-6.37,13.351-6.022.738-16.257,6.331-30.713,15.288-43.737l-9.854-5.971-3.953,2.4C116.873,89.343,110.652,106.536,111.148,129.019ZM37.29,91.031s-6.671,5.036-9.77,7.468l.15,44.827.862.3c.061.1-.076-.664.319-1.012a4.45,4.45,0,0,1,1.14-.718c.857-.315.895-.891.095-1.389a1.885,1.885,0,0,1-.786-1.977,1.683,1.683,0,0,0-.269-1.329,2.336,2.336,0,0,1-.084-2.115c.142-.36.128-.457-.125-.943a2.472,2.472,0,0,1-.121-2.006,5.012,5.012,0,0,0,.149-1.34c-.032-1.785,1.43-2.969,4.131-3.343,1.056-.146,1.088-.19.6-1.082-2.736-5.036,3.409-7.66,3.869-6.853Zm84.157,2.5a4.556,4.556,0,1,1-4.455,4.619A4.535,4.535,0,0,1,121.447,93.531Zm.042.814a3.648,3.648,0,1,0,3.673,3.593A3.631,3.631,0,0,0,121.489,94.345Zm.094,1.157a2.474,2.474,0,1,1-2.417,2.508A2.463,2.463,0,0,1,121.583,95.5ZM31.86,97.374a1.791,1.791,0,0,1,.578.088,1.463,1.463,0,0,1,.909,2.308c-.479.745-.424.808.415.494a1.183,1.183,0,0,1,1.516.35c1.56,1.556-.762,4.173-2.289,2.588-.756-.785-.828-.554-.3.8.169.436.45,1.115.45,1.115l-2.239-.033s.348-.9.509-1.323c.387-1.023.4-1.172-.408-.529a1.727,1.727,0,1,1-2.21-2.654c.341-.33.888-.344,1.649-.043q.831.33.2-.46A1.647,1.647,0,0,1,31.86,97.374Zm46.388,4.017c-.91,6.007-.116,14.438-.135,18.942,2.427.467,2.454,2.133,2.827,4.2,1.179-.414,3.758,1.342,4.111,1.188C85.32,119.63,82.176,101.937,78.248,101.391Zm40.267,6.021c3.445.278,2.785,2.96,1.759,4.062-.486.565-.4.819.137.494,1.455-.886,2.61-.246,3.079,1.28.8,2.608-2.6,4.855-4.116,2.514-.514-.793-.828-.614-.7.216a11.34,11.34,0,0,0,.852,2.457l-3.38-.306s1.033-1.732,1.214-2.2c.376-.968.178-1.226-.544-.445-2.114,1.95-5.044-.547-3.679-3.132a1.993,1.993,0,0,1,3.255-.672c.9.595,1.1.337.29-.384-1.509-1.347-.194-4.05,1.835-3.886Zm-86.492,2.129c.039,0,.077,0,.116,0a1.892,1.892,0,0,1,.895.258,1.514,1.514,0,0,1,.544,2.232c-.3.47-.215.767.137.46a1.455,1.455,0,0,1,1.918.5c1.043,1.646-.994,3.8-2.3,2.429-.574-.605-.793-.629-.727-.232.187.746.674,2.018.674,2.018l-2.341.04a15.352,15.352,0,0,0,.618-2.016c.086-.537-.127-.459-.684.176a1.132,1.132,0,0,1-1.727.219c-1.706-1.14-.34-4.066,1.439-3.083.613.339.7.143.22-.5a1.549,1.549,0,0,1,1.213-2.506ZM153.564,108.5c-3.789,3.947-2.6,1.613-.844,4.622.006,1.984,1.155,3.536.245,6.668a1.809,1.809,0,0,0-.158,1.518c-.278,3.459-3.026,3.414-5.7,3.951.443-.029,4.234,7.031-2.839,7.584l.081,28.7,11.09-8.243-.048-44.8ZM70.338,123.65c-3.144,2.043-7.561,7.147-13.117,6.038A78.918,78.918,0,0,1,42.4,173.376a94.127,94.127,0,0,0,8.969,5.082,28.226,28.226,0,0,0,6.313-3.85C67.682,159.039,70.853,142.02,70.338,123.65Zm26.108,3.275c.561,9.2,2.046,17.908,6.792,24.895l.321-19.546c-1.691-.408-3.077-1.51-3.57-4.635Zm-34.3,5.426,3.171.076s-.719,1.445-1.031,2.253c-.378.987-.2,1.188.525.5A2.387,2.387,0,0,1,68.04,135c2.1,2.117-.1,5.566-2.575,4.053-1.061-.648-1.239-.431-.4.486,1.638,1.533-.073,3.739-1.987,3.749a2.45,2.45,0,0,1-2.39-2.351,2.064,2.064,0,0,1,1-1.926c.694-.393.2-.648-.557-.24-2.462,1.336-4.109-2.093-2.251-4.045,1.071-1.125,2.2-1.02,3.293.054q1.142,1.125.818-.2a11.183,11.183,0,0,0-.847-2.228Zm85.608,2.692,2.272,0c-.223.566-.512,1.144-.693,1.705-.2.61-.053.688.549.1,1.566-1.061,3.237,0,2.9,1.679a1.563,1.563,0,0,1-2.308,1.224c-.98-.444-.666-.254-.108.422a1.524,1.524,0,0,1-.382,2.364,1.773,1.773,0,0,1-2.573-2.321c.6-.947.328-.844-.223-.386-.827.61-2.076-.253-2.1-1.45-.095-1.721,1.628-2.689,2.843-1.472.579.492.723.432.462-.283A12.753,12.753,0,0,0,147.753,135.043Zm.122,12.516,2.381-.027a4.238,4.238,0,0,1-.4.878c-.431.817-.365,1.662.085,1.088a1.741,1.741,0,0,1,2.9.485c.616,1.378-.585,2.9-1.831,2.321-.811-.376-.866-.3-.328.489a1.55,1.55,0,0,1-.559,2.249c-1.673,1.076-3.678-1.072-2.285-2.447.373-.368.256-.548-.2-.3-1.847,1.012-3.208-1.5-1.612-2.976.68-.627,1.2-.584,2.318.2.347.242.414-.008.164-.623A7.266,7.266,0,0,0,147.875,147.559Zm-88.4,1.506a4.839,4.839,0,1,1-4.731,4.906A4.814,4.814,0,0,1,59.47,149.065Zm.055.864a3.974,3.974,0,1,0,4,3.914A3.959,3.959,0,0,0,59.525,149.929Zm.045,1.526a2.447,2.447,0,1,1-2.394,2.481A2.433,2.433,0,0,1,59.57,151.455Zm-6.033,11.722,2.77,1.365s-1.31,1.075-1.831,1.629c-.667.713-.62,1.047.279.706A2.411,2.411,0,0,1,58.222,169c.043,2.4-2.768,3.549-4.118,1.735-.4-.539-.881-.764-.693-.323a2.558,2.558,0,0,1-.619,2.978,2.739,2.739,0,0,1-2.391.267c-2.022-1.057-2.127-3.406-.193-4.334.972-.466,1.005-.9.048-.663-1.991.5-3.153-1.93-1.716-3.6,1.524-1.771,4.01-1.405,4.285,1.216.048.467.364.129.5-.585A16.536,16.536,0,0,0,53.537,163.177Zm25.825,3.941s-10.145,5.82-9.836,6.065c.06.036,2.248,3.141,2.248,3.141,5.034-11.5,17.088-1.976,19.019,3.894a5.491,5.491,0,0,0,.945.392c.043-.415.879-4.492.879-4.492Zm-16.63,42.453L61.1,211.918c-.565.241,25.292,4.655,45.687.171l-1.411-2.7c-16.61,4.271-42.9.483-42.642.182Z" fill="#d40000"/><path id="afece956-59b2-4e6b-a77d-4c824e84e58b" data-name="path3444-9-5-7" d="M25.9,20.766v211.2H157.1V20.766ZM65.241,22.4l65.872-.256L118.938,43.155c.116-1.108-23.671-4.5-43.113-.36Zm-37.483.491H63.58l12.079,21.8a4.13,4.13,0,0,1,.285,2.787,14.024,14.024,0,0,1-1.276,3.039c.042-.453-3.48-.9-3.186,2.138a2.8,2.8,0,0,0,4.707,1.62c.307-.026.305.262.238.764-.178,1.179-1.42,4.92-2.271,5.168-4.337-3.584-5.884,2.962-2.96,4.267a4.562,4.562,0,0,0,5.512-1.92c.93-1.569.827-1.31,1.121.594.109.708.263,1.529.342,1.9.249,1.154,0,1.378-1.926,1.9a30.381,30.381,0,0,1-4.722,1.294,5.236,5.236,0,0,0-4.489,5.41c-.016.584,0,.855-.12,1.029A137.145,137.145,0,0,0,27.758,97.335Zm82.23,51.846a42.507,42.507,0,0,1-2.376-6.445c-1.073-8.11-1.277-17.737-2.424-25.285l1.511.17a63.638,63.638,0,0,1,1.179,8.091c.3,2.927.619,9.012.871,11.81.382,4.157,2.245,10.8,3.4,12.481,1.883,2.737,5.666.967,4.4-2.282-.657-1.686-3.2-1.413-2.846.336.006.312.241-.223.613-.552a1.449,1.449,0,0,1,1.69,2.121c-.8,1.772-3.171.964-3.957-1.27-.94-2.668,2.225-4.668,4.592-3.041,2.637,1.813,2.643,6.408.519,7.859-3.575,1.314-6-1.311-7.172-3.993Zm8.837,3.38c-.144-.085,0-.365.182-1.028a6.239,6.239,0,0,0-1.347-6.239c-.887-1.016-1.221-1.2-.756-1.379.984-.391,3.16,1.2,3.758,2.767a5.83,5.83,0,0,1-.094,4.865C119.991,77.475,119.092,78.223,118.825,78.116Zm2.694-1.651c0-.29.191-1.206.235-1.653a6.066,6.066,0,0,0-2.05-4.861c-1.192-1.153-1.3-1.272-.174-1.291,2.91-.049,4.765,4.692,3.423,7.028C122.607,76.059,121.553,76.816,121.519,76.465Zm2.463-1.605c.857-4.043-3.022-6.737-3.1-6.611.194-.906,1.734-.385,2.259-.032,1.96,1.327,3.088,4.8,1.884,6.767a1.282,1.282,0,0,1-.5.511c-.4.256-.643.462-.725.283-.063-.136.162-.725.185-.918ZM89.86,61.745c.405-.4.526-.412,1.305-.116,2.441.929,4.389-.836,3.814-2.691a2.511,2.511,0,0,0-1.686-1.46c-.92-.1-.938.393.053.767a1.242,1.242,0,0,1,.269,2.348c-1.259.857-3.321-1.318-4.834-1.134a1.172,1.172,0,0,0-.773,1.732C88.331,61.775,89.419,62.128,89.86,61.745Zm-2.707-.266c-.846-.4-1.169-.388-1.007-1.319.107-.613.973-4.736,1.385-6.33,1.234-4.773.075-7.418-3.419-8.485a8.294,8.294,0,0,0-6.82.937l-.434-1.35c10.115-2.667,27.377-2.076,27.316-1.972a28.215,28.215,0,0,1,.6,4.117,49.64,49.64,0,0,0-4.921-2.132c-2.6-.8-6.708.078-7.436,1.582-.413.853-.2,1.421,1.549.473,2.858-1.551,8.7-.369,10.753,1.276.474.379.45.462.459.906.014.678.054.718-.882.213-4.906-2.528-9.1-2.235-10.545,1.085-.333-.1-1.605-.323-1.605-.323l1.366,2.036.26,2.132s2.232,1.248,3.462,1.776c1.211.518.514-.033-.972-1.076-1.092-.765-.224-1.011.5-.717a7.348,7.348,0,0,0,6.152-.827,2.948,2.948,0,0,1,2.587.16s.237,1.863.473,5.752c.111,1.84.336,4.243.463,5.229.386,2.98.5,3.15-1.059,1.721a17.614,17.614,0,0,0-1.4-1.227c-.2.924,2.1,2.547,2.632,3.1.811.846,1.462,3.01,1.138,3.138-.206.082-2.386-1.782-4.1-3.459a17.046,17.046,0,0,0-1.628-1.441c-.355.238,1.086,1.878,2.436,3.1,1.575,1.43,1.757,1.558,1.227,1.774-.977.4-1.857-.1-4.23-2.075a6.984,6.984,0,0,0-1.173-.789c-.216.291,1.973,2.38,2.471,2.56.923.334,1.189,1.233.461,1.586-.486.236-2.3-.765-3.751-2.034a3.1,3.1,0,0,0-1.031-.562c-.288.187,1.336,1.6,2.886,2.543,1.517.921,1.76,1.148,1.373,1.914-.36.788-3.69-1.038-5.355-2.918-.355-.4-.634-.572-.564-.437.725,2.026,3.112,3.478,4.888,4.057a3.8,3.8,0,0,1,.983.4c.506.405.394.826-.154,1.064-1.893.535-4.88-1.776-7.016-4.2-.247-.1-.1.214-.034.318,1.781,2.867,5.193,5.047,7.248,4.64,1.2-.238,2.166.127,2.175.533.008.333-.654.864-1.946.956-2.923.21-7.489-3.013-10.16-7.118-.083-.128-.182-.175-.188-.1-.073.87,1.588,3,2.862,4.225,3.785,3.626,7.362,4.852,10.153,2.809,1.574-1.23,3.1-3.917.751-4.815-1.242-.476-2.027,1.247-.965.755,1.4-.169,1.711.576,1.53,1.278a1.635,1.635,0,0,1-2.5.889c-1.674-.914-1.319-4.048.849-4.595A3.333,3.333,0,0,1,109.122,75c.347,2.46-2.405,5.121-4.613,5.784-7.53,2.258-13.41-8.289-13.445-8.528-.377-.732-.832-1.12-1.118-.266-.309,1.237-2.008,4.865-2.917,4.843.283-1.28,1.475-3.431,1.185-5.316-.5,1.548-1.562,4.85-3.589,6.608-.525.483-2.068,1.051-1.006-.19,1.281-1.816,2.958-4.3,2.611-6.631-.34.524-.526,1.85-.914,2.726-.974,2.193-3.1,4.8-4.5,5.217-1.037.311-.94-.042.122-1.168,1.137-1.208,3.152-4.755,3.019-6.284-.057-.676-2.09,5.84-5.91,7.624a1.677,1.677,0,0,1-1.619-.1c1.5-.872,5.651-4.994,5.259-9.678,0,0-.221.694-.548,1.734-1.406,4.47-4.428,7.409-6.784,7.652-1.88.195-3.192-.57-2.726-.908A6.57,6.57,0,0,0,77.631,74.9c1.591-2.435,2.184-6.346,1.22-10.486a71.369,71.369,0,0,1-1.364-10.68c2.671.919,5.359,1.531,7.959.507-.261,1.069-.695,1.2-1.381,2.009-.5.591-.328.731,1.615-.652.566-.4.77-.725.872-.618.166.175-.092,1.276-.657,3.471-.846,3.282-.626,3.517,2.5,4.753a2.156,2.156,0,0,1,1,.7c.1.115.609,1.046.658,1.079.114.077.084-.95.021-1.209a2.379,2.379,0,0,0-.861-1.411,6.4,6.4,0,0,0-2.067-.883ZM146.2,104.287l.031-3.408,3.284,2.349-.04,1.124Zm-5.613.74L140.468,42s2.52-1.688,3.78-2.524c.787,2.5.782,7.857.487,10.243-.494,1.554-.714,8.47-.154,11.989a35.865,35.865,0,0,1-.057,9.665,61.922,61.922,0,0,0,.272,8.695,26.026,26.026,0,0,1-.176,6.984,28.722,28.722,0,0,0,.132,7.024,60.023,60.023,0,0,1,.329,10.458C144.54,105.151,140.3,105.238,140.588,105.027Zm4.994-65.959s2.538,1.691,3.763,2.536l.016,2.715-3.668-2.414Zm-37.893,4.388,1.57.1A92.264,92.264,0,0,1,110.4,54.308c.08,5.767.786,11.85,2.13,15.837l-1.155,1.22c-1.965-4.569-2.12-11.776-2.558-16.654a93.042,93.042,0,0,0-1.132-11.255Zm38.2-.575,3.414,2.33.035,2.953-3.44-2.3Zm-35.933.792,1.379.151c.42,3.9,1.063,6.541,1.307,10.834.317,5.552,1.272,10.111,1.865,14.447l-1.032.346c-.692.321-1.838-4.8-2.348-15.192-.154-3.144-.682-6.681-1.171-10.586Zm2.086.146,1.647.3a190.423,190.423,0,0,0,3.083,24.436l-1.432.095c-1.775-7.587-1.891-16.365-3.3-24.829Zm2.379.35,1.513.265c1.82,22.557,2.943,22.266,3.294,23.153l-1.638.669c-1.77-6.482-2.127-15.62-3.169-24.087Zm6.87,22.157c-.259.759-.872.689-1.542.767a33.95,33.95,0,0,1-1.5-6.964c-.69-5.314-.939-10.3-1.659-15.542l1.805.186c-.059.04,1.281,18.5,2.9,21.553ZM82.451,46.5c2.379.116,4.353,1.193,4.543,2.768.043.355-.236.182-.558-.066a7.046,7.046,0,0,0-7.187-1.054c-.613.222-1.114.572-1.388.524a.64.64,0,0,1-.134-.86C78.383,46.705,81.273,46.441,82.451,46.5Zm-5.517,3.164c.051,2.485-.549,3.854-1.842,4.429-1.561.692-3.562-.791-2.59-2.451.735-1.255,2-.877,2.24.442l1.983-4.452s.2,1.41.209,2.032Zm72.432-.4-.022,2.56-3.659-2.465.244-2.462ZM84.451,48.93c1.8.72,2.464,1.6,2.531,1.99-.1.291-.284.092-1.6-.624a6.268,6.268,0,0,0-6.991.134c-.578.115-.638-.216-.058-.844A6.248,6.248,0,0,1,84.451,48.93Zm13.691-.479a10.992,10.992,0,0,1,5.083,1.165,8.548,8.548,0,0,1,1.806.994c.369.194.4,1.038.128,1.1-.242.034-.637-.156-1.227-.571-3.806-2.491-6.544-2.185-8.744-.651a1.517,1.517,0,0,1-.65.16c-.42-.031-.441-.2-.266-.434a5.487,5.487,0,0,1,3.87-1.765ZM145.7,50.244l3.667,2.583,0,2.54-3.9-2.733ZM79.5,51.276l.536.015c1.248,3.049,2.813,1.478,3.464.257l.652.107c-1.021,4.083-5.175,1.947-4.652-.379Zm-.911.406c.606.074.585.765.774,1.268.424,1.124-1.184.173-1.459-.1C77.437,52.354,78.1,51.733,78.589,51.682Zm18.151-.119c1.58,2.425,2.492.99,3.394-.066l.429.138c-.113,1.741-3.02,3.6-4.4-.029Zm4.861.275a3.118,3.118,0,0,1,.822.252c.864.352.819.61-.139,1.04-1.531.686-2.064.775-1.605-.2.264-.443.438-1.031.923-1.1Zm-6.007.369a1.466,1.466,0,0,1,.683,1.116c.032.362-1.164-.056-1.162-.633C95.153,52.324,95.35,52.026,95.594,52.207ZM85,52.345c.786.294.692.671.145,1.013-.983.553-1.4.444-.768-.424C84.668,52.533,84.731,52.354,85,52.345Zm60.452,1.279,3.971,2.814-.035,2.583L145.418,56.3a10.344,10.344,0,0,1,.032-2.671Zm-68.633,4c.189.005.263.633.307,1.55.074,1.525-1.467,3.649-3.024,4.381-1.875.881-3.883-.354-3.547-2.186.31-1.687,2.689-1.757,2.779-.2-.232.41.092.754.225.718A5.852,5.852,0,0,0,76.2,58.949a5.792,5.792,0,0,1,.532-1.29A.138.138,0,0,1,76.817,57.622Zm68.526-.476,3.969,2.919.017,2.567L145.394,59.9a13.5,13.5,0,0,1-.051-2.757ZM97.189,61.211c-.3.508-.054,1.419.561.643A1.641,1.641,0,0,1,100.4,63.8c-1.112,1.339-2.48.908-5.369-.2-2.106-.81-2.437-.534-2.956.051-.427.481-.21,1.452.344,1.44,1.7.391,3.183.771,4.948,1.141,3.733.772,6.009-4.075,2.6-5.855A2.47,2.47,0,0,0,97.189,61.211Zm-16.472.559c-1.455,1.315-.262,4.772,1.881,5.081a4.605,4.605,0,0,0,1.879-.175c1.5-.436,3.151-1.33,3.219-1.851.307-2.367-3.188-.245-3.65.036a2.08,2.08,0,0,1-2.856-.214c-1.324-1.805,1.049-3.877,2.49-1.668.364.557.236-.387-.161-1.029A1.954,1.954,0,0,0,80.717,61.77Zm64.889-.746,3.73,2.657-.021,2.472L145.7,63.525Zm.279,3.619,3.533,2.561.06,2.569-3.707-2.46c.072-.925.09-1.794.114-2.67Zm-19.8,1.475c3.105.052,4.858,4.678,3.22,6.6-.487.573-.876.726-1.1.513a7.9,7.9,0,0,1,.062-1.148,5.435,5.435,0,0,0-1.645-4.558C125.605,66.465,125.221,66.136,126.08,66.118Zm-38.246.738c-.586.21-1.207.637-1.687.532s-.7.133-.888.508c-.711,1.435-.491,1.9.918,1.084.669-.386.9-.248,2.693.093A6.71,6.71,0,0,0,92.144,69c1.4-.366,2.233-.4,2.941-.005s1.192.928,1.21.49c-.078-.512-.522-1.822-.624-2.258-.049-.209-.4-.025-.727,0-1.159.085-2.543-.966-3.439-.411-.717.445-.812.562-1.8-.02C88.977,66.36,88.469,66.628,87.834,66.856Zm37.411.321c2.1,1.771,2.642,3.341,2.438,4.63-.105.938-.174,1.973-1.085,2.538a2.455,2.455,0,0,1-.652.165c.707-2.663-.126-5.048-3.1-7.592A2.131,2.131,0,0,1,125.245,67.177Zm-47.436,0a.947.947,0,0,1,.3.05c.365.121.423,1.084.135,1.385s-.519.053-.852-.712C77.145,67.479,77.4,67.174,77.809,67.173Zm-1.943.749c.768-.016,1.059.693,1.191,1.258.112.481-.029,1.918-.437,1.417a4.523,4.523,0,0,0-.849-1.542C75.028,68.487,75.1,67.938,75.866,67.922Zm-2.162.714a2.375,2.375,0,0,1,.432.04c1.2.2,2.116,2.126,1.838,3.217-.635,1.174-.87.382-1.079-.682a6.526,6.526,0,0,0-.956-1.489C73.315,68.98,73.218,68.65,73.7,68.636Zm72.079-.559,3.65,2.637.006,2.823-3.821-2.589c.085-.987.129-1.933.165-2.871Zm-74.45,1.144c1.788-.031,3.314,2.1,2.751,4.118-.7,2.107-4.179,1.657-3.6-.443a.96.96,0,0,1,1.416-.668c.883.546.786-.343.225-.658a1.557,1.557,0,0,0-2.318.793c-.923,3.437,3.459,4.608,5.844,1.058.871-1.3,1.82-2.686,2.344-3.278.47-.532.571-.476.5.21-.3,3.192-2.513,7.183-6.655,6.965-4.025-.386-5.284-4.691-2.244-7.378A2.965,2.965,0,0,1,71.333,69.221Zm21.33.174a4.762,4.762,0,0,1-4.257.355c-1.072-.471-1.056.04-.59.459,1.347,1.156,3.8.633,4.845-.017.341-.212.453-.823,0-.8Zm56.781,5.1.012,2.567-4.075-2.752a11.717,11.717,0,0,1,.138-2.512Zm-3.928.857,3.881,2.576.1,2.544-3.77-2.356Zm.271,3.568,3.707,2.584.053,2.778-3.672-2.435ZM55.4,81.845,53.13,88.753l1.486.091,1,1.822L56.649,88.8l1.563-.119Zm90.542.921,3.573,2.475.054,2.565-3.711-2.586Zm-.145,3.141,3.663,2.666.073,2.725-4.151-2.787ZM63.857,87.449l-2.246,7.4,1.266-.173,1.185,1.978,1.2-1.777,1.135.065ZM46.949,88,44.81,95.351l1.434,0,1.21,1.854,1.063-1.791,1.625-.043Zm98.37,1.353,4.3,3.04.035,2.893-4.166-2.813Zm4.249,6.873.048,2.534L146,96.165l-.393-2.814Zm-76.725.436-2.625,7.472,1.761.017,1.067,1.794.855-1.8,1.415.014Zm73.4.745,3.355,2.318-.026,2.6-3.3-2.23ZM82.65,127.641l-1.912-1.852a2.747,2.747,0,0,1,2.54-.433,2.471,2.471,0,1,1-2.43,4.274Zm-1.7-3.054a3.909,3.909,0,0,0-2.7-4.174s-.207-18.128-.18-18.67c0,.079-.317-1.963-.353-2.084h0l-.3-.076c.052,1.838.171,20.674.142,20.8-2.313.269-2.959,1.848-3.169,3.967a3.492,3.492,0,0,0-3.014,1.14c-.667-.922-.17-2.281-.7-3.244-1.6,5.637,1.51,9.009,4.225,8.7.435,5.412,6.348,6.391,6.147-.174C88.212,130.34,85.789,123.71,80.949,124.587ZM47.337,101.829l-2.59,7.32,1.815-.209.662,1.351c2.908-2.583,4.376,1.405,2.9-2.015Zm98.455,13.025a.913.913,0,0,1,.862.692c.063,1.236-1.585.959-1.637.178A.845.845,0,0,1,145.792,114.854Zm1.077,8.037a1.1,1.1,0,0,1,1.859.63c.016.785-.876,1.043-1.575.6a.807.807,0,0,1-.284-1.232Zm.1,2.178c3.9.3,6.792-2.368,5.551-4.282,1.046-1.326.193-2.087.479-2.847a2.4,2.4,0,0,0-.072-2.7c-.17-2.466-.88-2.782-1.938-4.095-.317-.381.741-.753,1.148-1.408-1.245.332-1.911-.3-2.586-1.145-7.213.339-13.689.846-13.444,10.7-1.038,4.184.72,7.911,5.754,6.76,1.1-.993.376-2.431.241-3.122a8.584,8.584,0,0,1,.2-4.028c.428-2.756,2.431-5.313,2.649-.994.351-.543.186-.623.765-.848,1.383-.5,1.381.906,1.1,1.474-.181.292-.456.268-.737.235-.4-.049-.927-.2-.936-.347-.108.448.731,1.282.643,1.7-.111.4-.181.367.185.1,1.735-1.25,2.822,1.544.311,1.225C147.521,122.123,145.691,124.071,146.969,125.069ZM144.4,110.024c1.368-.07,1.695-.082,1.632.641.259,1.335.591,1.954,2.318,1.814,1.74-.228,2.292-.338.54.722a3.415,3.415,0,0,1-2.22.374c-1.056-.095-.976-.2-1.579.161a3.726,3.726,0,0,1-.98.5c-.406.074-1.122.232-1.122.232a7.937,7.937,0,0,1-1.878,4.1c-1.2,1.381-1.817,1.623-.339,1.519.547.035.264-.241.5,1.993a11.883,11.883,0,0,0,.343,2c.385,1.019.436,1.525-1.025,1.6-3.647.278-4.5-3.3-4.013-5.128.042-.287.208-1.239.244-1.994.02-.413-.063-.762-.052-1.184.083-3.409.885-4.308,3.887-6.524A7.071,7.071,0,0,1,144.4,110.024Zm3.2.184c1.684-.035,3.31.78,2.5,1.309a4.175,4.175,0,0,1-2.944-.177C146.48,110.853,146.735,110.226,147.6,110.208ZM72.53,113.1l-.667,1.192a12.409,12.409,0,0,1-.572,6.675l1.377,1.82,1.09-1.888,1.714.03Zm78.717-.553a1.237,1.237,0,0,1,.856,1.841c-.609,1.358-4.688,2.015-4.688,2.016a3.12,3.12,0,0,0-.377-1.8,13.9,13.9,0,0,0,3.291-1.244c.384-.353.617-.8.918-.811Zm.807,3.09c.4.005.6.293.712.881a1.194,1.194,0,0,1-.321.927,7.021,7.021,0,0,1-5,1.631,10.069,10.069,0,0,1,.18-1.824C149.028,117.3,151.385,116.045,152.054,115.639Zm-41.491,6.984c-1.391-2.022-4.476-1.726-4.146-1.584.023-1.732-.272-4.111-2.879-4.364-2.63-.2-3.982,3.3-2.984,4.777-1.623-.679-4.057,1.023-4.057,1.183-.208.007-2.068,4.963,3.561,5.218a5.712,5.712,0,0,0,3.19,4.433l.044,19.1.636.866.056-20.01c2.881-.128,3.236-3.451,3.022-4.218a5.049,5.049,0,0,0,3.421-.955l.337,3.261s.675-1.15.526-1.761c-1.253-18.753,5.476-39.039,14.311-52.189.473-.552.617-1.211.851-1.216,2.154-1.17,3.515-1.957,3.515-1.957,3.553,1.721,9.9,5.875,9.9,5.875l.1,26.722c-.1-.263,11.821-1.34,11.642-1.016,0,0-1.045-.412-1.061-1.115l-.31-62.531L145.023,37.7s-4.287,2.824-5.486,3.789l.131,36.815-9.237-5.454s.148-1.3.162-1.725c-.148-5.023-2.595-6.709-7.253-5.219-.624.2-1.058.375-1.364.118-1.961-5.78-2.843-20.967-2.841-20.967l13.146-22.449,22.3-.124.385,85.771.807,44.958-11.382,8.356-.166-28.8a14.418,14.418,0,0,0-2.058-.839.292.292,0,0,0-.077.535,10.54,10.54,0,0,0,1.447.646l.242,28.544s-4.425,3-6.4,4.252c-3.7,2.042-7.339,3.985-11.157,5.692-3.764,1.63-12.061,5.109-12.061,5.109-.72-2.4-7.836-8-15.837-4.04a10.564,10.564,0,0,0-2.251.94c-3.048.562-4.053,3.847-4.514,7.042-.016.125.241.1.25.11.033.046.727-3.066,1-3.655a4.2,4.2,0,0,1,1.72-2.128c.178-.031.334.249.092.692a13.568,13.568,0,0,0-.992,3.6c-.1.778-.125,1.4.019,1.43.025.025.708-2.357,1.015-3.2.8-2.192,1.307-3.1,2.078-3.568.791-.48.979-.412.823.1a16.372,16.372,0,0,0-1.893,6.53c-.035.491.211.5.406-.309.645-2.588,1.53-6.088,3.621-7.133.893-.406,1.289-.387,1.193-.1a14.17,14.17,0,0,0-3.083,7.828c.01.38.162.3.481-.517.844-3.125,2.094-5.783,3.578-7.087a3.312,3.312,0,0,1,1.852-.716c1.759-.22,1.818.437.288,1.335-1.744,1.024-3.76,4.748-3.984,7.544-.078.967.262,1.072.5-.218,1.034-5.557,5.76-9.231,9.549-7.53,1.7.766,2.013,1.83.53,1.357-3-.958-6.339,1.187-7.714,4.181-1.243,2.707-1.217,4.128-.343,7.753.6,3.347,1.758,7.625,1.375,10.9-.413.637-1.717-.262-3.257-.453a5.723,5.723,0,0,0-3.034.154c-.846.326-1.326.408-1.482-.051-.051-.148.652-.869.965-1.268.5-.638.213-.74-.492-.047a8.057,8.057,0,0,1-1.29,1.174c-.445.09-.464-.416-.1-1.7,1.261-5,.924-5.086-1.24-6.1-2.143-.823-1.465-1.238-2.415-2.056-.669.527.874,2.944,2.62,3.472,1.428.432,1.254,1.168.628,3.148-.634,2.771-1.716,6.438-1.09,8.9,1.315,5.17,6.523,5.064,10.511,2.975l.487,1.318c-3.372,1.376-21.146,2.552-27.136,1.858a16.866,16.866,0,0,1-.7-3.972,31.825,31.825,0,0,0,5.547,1.977c2.306.364,5.857.381,6.767-1.759.278-.628-.008-1.158-.8-.795a13.04,13.04,0,0,1-11.139-.388,1.183,1.183,0,0,1-.526-1.632c.344-.077.8.307,1.066.446,3.059,1.556,4.737,1.858,6.732,1.262,1.513-.453,3.552-2.1,3.049-2.566-.511.179-2.207,1.615-3.376,1.928-2.407.645-4.974-.343-7.474-1.975-.771-.675-.419-1.167.526-.627,3.745,1.9,5.307,3.161,8.89.494.8-.6,1.248-.522,1.718-.16,1.861,1.68,1.855.737.492-1.008a5.025,5.025,0,0,1-.776-1.543,3.3,3.3,0,0,0-.416-1.162,5.979,5.979,0,0,0-2.054-1.113c-1.256-.557-1.673-.288-.746.167,1.623.8,2.414,1.653.4,1.192a7.678,7.678,0,0,0-6.614.846c-1.357.667-1.955,1.381-2.275-.128-.672-3.149-.018-7.422-.917-12.919-.172-1.047-.381-1.712-.164-1.855.279-.184.976.494,1.84,1.717.394.557,1.176,1.629,1.171,1.406.03-1.164-1.766-3.348-3.248-4.208-.814-.473-1.367-2.658-.436-2.177a27.548,27.548,0,0,1,5.174,4.85c.331.549.61.2.26-.447a14.455,14.455,0,0,0-1.944-2.366c-1.516-1.492-1.692-1.422-1.4-1.728.576-.6,1.809.175,4.006,2.179.564.717,1.31,1.365,1.218,1.009.225-.558-1.975-2.942-3.28-3.581-.244-.154-.278-.317-.255-.613.124-1.126,2.65.527,4.746,2.458.785.723.134-.637-.775-1.562a9.63,9.63,0,0,0-2.649-1.94c-.776-.323-.824-1-.215-1.291,2.1-.089,4.269,2.075,5.562,3.776.357.468.684.828.313-.057a7.931,7.931,0,0,0-5.413-4.469c-1.4-.247-1.37-1.522-.054-1.378,1.449.159,3.822,1.477,5.833,3.517.585.594,1.569,1.941,1.366,1.15a7.055,7.055,0,0,0-1.335-1.871,12.061,12.061,0,0,0-5.585-3.537c-.948-.27-3.762.277-3.779-.215-.007-.363.294-.58,1.19-.881,3.478-1.167,8.569,1.845,11.354,6.476.2.331.576.472.6.4-1.344-3.784-5.521-7.215-8.843-7.8-2.26-.366-4.538.215-5.621,1.75-1.219,1.728-.742,4.038,1.088,3.853.961-.09.884-.639.866-.657-.065-.065-.623.2-.968.131a1.206,1.206,0,0,1,.711-2.3c2.107.259,2.4,3.608.05,4.312-2.173.65-2.969-.35-3.564-1.537-.87-1.738.064-4.54,1.6-5.615,4.3-3.007,9.731-.487,12.8,2.5a13.742,13.742,0,0,1,3.327,5.121c.179.44.562.394.386-.058-4.323-11.126-17.231-12.424-19.119-3.785-3.125-4.938-5.86-5.283-10.046-3.128-4.271,1.781-6.372,3.232-10.322,5.1L42.45,173.53c-.528-8.969-.226-17.966-.191-26.946.026-.21-1.941.142-5.215.66-8.707,1.752-7.96-2.952-9.1-3.189-.608-.123-.563.14-.729-16.415-.048-4.808-.143-13.261-.213-18.785s-.089-10.126-.04-10.224a6.507,6.507,0,0,1,1.1-.923c2.122-1.515,3.313-2.432,7.956-6a12.633,12.633,0,0,1,1.317-.946c.533,9.947.055,20.392.317,28.943l.392,0L37.9,90.991c-.8-.211,18.307-11.483,28.779-15.14.2-.068.686.152.686.152,6.01,7.425,21.824,5.177,23.1-3.863,2.62,5.511,14.131,16.218,19.391,3.311,0,0,1.906,3.708,3.542,3.953,3.676.492,4.083-.093,12.174-4.049a88.928,88.928,0,0,0-15,47.268Zm-4.917-3.527a3.875,3.875,0,0,1,.1,2.07c-.236.5-.588.491-.588.491l-1.792-1.544-1.752,1.639a2.451,2.451,0,1,1,4.035-2.656Zm46.29-.249c1.147-.073.554,1.257-1.143,2.158a3.071,3.071,0,0,1-2.33.521,1.937,1.937,0,0,1,.1-1.448,30.117,30.117,0,0,1,3.374-1.231Zm-74.043,2.505a2.36,2.36,0,0,1,2.418,2.5,3.145,3.145,0,0,1-.319,1.315l-2.128-1.581-1.625,1.747c-.278.1-1.273-1.154-.589-2.516A2.543,2.543,0,0,1,77.893,121.352Zm30.765.744a2.43,2.43,0,0,1,.36,4.313c-.828.461-2.129.719-2.739-.216l1.76-1.933-2.02-1.713a3.012,3.012,0,0,1,2.639-.451Zm42.964-.663c.308,0,.386.118.475.409.251.824-.387,1.653-1.489,1.915-1.018.242-.921.362-1.4-.555-.378-.718-.479-.688.112-.915C150.032,122.053,150.8,121.78,151.622,121.433Zm-50.908,1.237s-1.27,1.3-1.826,1.845l1.912,2.01c.092.245-2.2,1.293-3.413-.288a2.763,2.763,0,0,1,.771-3.649C99.3,121.9,100.926,122.473,100.714,122.67Zm2.738-.227a2.06,2.06,0,1,1-2.015,2.088A2.048,2.048,0,0,1,103.452,122.443Zm-27.927,3.466-1.833,1.934,1.982,2.174a10.094,10.094,0,0,1-2.125.153c-2.7-.509-2.434-3.7-.347-4.542A2.42,2.42,0,0,1,75.525,125.909Zm-35.971.657s.361,4.1.69,5.5c-.217,1.6-1.241,2.683-1.7,4.323-.245.729-1.169,1.71-1.347.682-.667-1.27-.03-2.839-.581-3.743-.421-.852-.2-1.331-.382-2.215-.518-.731-.764-1.062-.678-1.711-.109-2.9-.827-2.322-2.1-2.085-4.947.429-4.945,3.3-4.64,6.947-.7,3.418.592,2.609.55,3.224-.067.975.091,2.34.382,2.49,1.764,2.039,1.851,3.452,4.147,3.1,3.884.306,10.056-.276,11.39-5.05C46.113,131.295,46.37,124.9,39.554,126.566Zm38.616-.66a1.988,1.988,0,1,1-1.943,2.017A1.979,1.979,0,0,1,78.17,125.906ZM41.255,126.95a3.148,3.148,0,0,1,2.311.835c1.525,1.473,1.591,2.809.914,8.478a5.448,5.448,0,0,1-1.487,3.513,13.367,13.367,0,0,1-4.8,2.373,7.77,7.77,0,0,1-2.012.2c-.577,0-.914-.273-.957-.761.127-1.32-1.21-1.449-1.984-1.374-1.381.055-1.522.2-.661-.471.983-.768,3.249-.779,3.679-.329a4.277,4.277,0,0,1,2.932-1.128,2.5,2.5,0,0,1-.3-1.871c.585-1.035,1.567-2.861,2.6-3.546,1.02-1.345.154-.737-.479-.714-.362.013-.331-.107-.39-.351A22.61,22.61,0,0,1,40,127.628C40,127.066,40.521,126.959,41.255,126.95Zm-6.5,1.452a.768.768,0,0,1-.026,1.227.878.878,0,0,1-1.453-.608A.906.906,0,0,1,34.756,128.4Zm68.831,2.838a2.576,2.576,0,0,1-2.394-3.481c.341-.481.489-.412.489-.412l1.884,1.7,1.808-1.906A2.451,2.451,0,0,1,103.587,131.24Zm-70.848-2.763a3.237,3.237,0,0,0,.065,1.292c-.328.236-1.725.648-2.474,1.019a.649.649,0,0,1-.826-.763c.2-.838,1.421-1.386,2.31-1.646A1.135,1.135,0,0,1,32.739,128.477Zm.307,2.4c.5-.061.356,1.045.166,1.611-.187.405-.742.388-1.241.417-.882.052-1.993,1.077-2.47.912-.158-.074-.271-.5-.288-.763.1-1.477,2.538-2.019,3.833-2.177Zm2.663,1.539a1.173,1.173,0,0,1-1.161.242.917.917,0,0,1-.2-1.645C35.491,130.63,36.18,131.715,35.709,132.415Zm73.149-2.439-1,1.541-1.527-.028,2.467,7.63,1.141-2.981c.153-1.371.334-2.739.475-4.112Zm-32.471.643,1.952,1.6,1.674-1.725c1.245,2.8-.19,4.08-1.717,4.046C76.612,134.507,74.817,132.9,76.387,130.619Zm-42.849,2.893c.618-.118.353,1.567.267,1.615a8.892,8.892,0,0,0-2.814.981c-1.526,1.2-2.178.47-1.471-.975C30.19,134.293,32.651,133.528,33.538,133.512Zm1.942.08a.887.887,0,0,1,.742,1.418.923.923,0,0,1-1.549-.607A.821.821,0,0,1,35.48,133.592Zm-1,4.274c.093.394-.043.272-.758.484a11.139,11.139,0,0,0-1.659.711c-.945.481-1.211.74-1.547.685-.266-.059-.574-.175-.656-.447-.33-1.089.55-2.2,2.6-2.961a8.011,8.011,0,0,1,1.449-.316C34.6,136.024,33.857,137.1,34.477,137.866Zm1.21-1.637c.991-.015,1.176,1.31.435,1.543C34.387,138.225,34.534,136.227,35.687,136.229Zm-1.221,4.881a.611.611,0,0,1,.006.942c-.572.285-2.77.042-2.784-.579-.009-.41.726-.549,1.409-.563S34.243,140.9,34.466,141.11Zm99.194.68-1.81,2.441,2.429,6.13,2.219-7.423-1.743.7Zm-102.427,6.3c.419,18.881.348,62.146.348,62.146l5.33,3.652,5.613-4.065c-.058-13.618-.112-23.012-.165-35.62l8.223,4.554a4.331,4.331,0,0,1,.215,2.07c-.569,4.705,3.945,7.759,6.939,5.9,1.156-.49,1.25-.577,1.5-.209.673,1.012,1.432,5.346,1.559,8.112.191,4.166,1.279,12.66,1.541,12.717L48.945,230.1H27.758v-84.81a7.246,7.246,0,0,0,3.475,2.8Zm77.668-1.82-1,1.546-1.211,0,2.125,7.9,2.572-7.727-1.417-.176ZM41.88,209.282s-2.605,1.885-3.437,2.426c-.437.166-.649.2-.753-.225a14.094,14.094,0,0,1,.259-3.12,11.379,11.379,0,0,0-.08-3.719,19.2,19.2,0,0,1-.08-5.27,48.2,48.2,0,0,0,.02-8.449,55.946,55.946,0,0,1-.054-8.549,30.487,30.487,0,0,0-.225-7.616c-.677-3.785-.789-5.088-.083-7.936a9.964,9.964,0,0,0,.34-3.417,42.435,42.435,0,0,0-.8-7.025c-.406-2.529-.437-2.876-.057-6.878.077-.808.1-1.348.408-1.6.357-.3,4.072-.517,4.072-.517ZM32.111,148.16l4.046-.045a14.652,14.652,0,0,0-.414,3.173l-3.594-2.381Zm.059,1.632,3.558,2.342a20.594,20.594,0,0,0,.073,2.917L32.2,152.639Zm.007,3.715,3.808,2.625c.148,1.022.459,2.055.578,2.974l-4.318-2.945Zm123.141,1.034.2,75.555h-37.9L105.6,206.832a21.545,21.545,0,0,1,.42-3.233c.359-1.32.455-1.608.958-1.67a2.521,2.521,0,0,0,3.312-1.263c.567-1.268-.58-3.189-2.341-3.6a3.056,3.056,0,0,0-2.482.825c-.5.419-.61.466-.709.1-.224-.821.5-3.054,1.793-4.97.72-1.066.914-1.372,1.147-.967a2.312,2.312,0,0,0,3.727.374,2.857,2.857,0,0,0-1.367-4.355c-4.108-1.325-5.994,2.831-5.943,2.821l-.879-4.983c4.945-1.221,7.8-1.653,9.371-3.165a6.55,6.55,0,0,0,1.673-5.076s13.739-5.625,20.168-9.118a154.472,154.472,0,0,0,20.873-14.008Zm-20.92.547-1.016,1.8-1.442,0,2.916,7.608,2.227-7.943-1.39.125ZM32.355,157.272l4.363,3.032a12.848,12.848,0,0,1,.09,2.978l-4.593-3.063Zm85.126-.933-1.087,1.454-1.251-.133,2.454,7.533c.746-2.177,1.425-5.133,2.162-7.314l-1.16.056Zm-85.2,4.805,4.514,3.015a5.638,5.638,0,0,1-.26,2.465l-4.261-2.755Zm93.662.435-1.1,2.125-1.46-.2L126,170.725l2.853-7.154-1.767.1Zm-93.654,3.077,3.914,2.9c.057.042-.218,1.322-.156,2.047l-3.724-2.313Zm.105,3.583,3.651,2.528a15.654,15.654,0,0,0,.223,2.674L32.3,170.849Zm-.062,3.652,4.219,3.028.224,2.433L32.3,174.519Zm34.738,1.014c4.05,1.522,7.847,9.285,7.73,19.335-.081,6.978,2.01,16.937,1.971,16.822,0,0-1.174.159-1.506-.1a65.6,65.6,0,0,1-2.275-15,81.346,81.346,0,0,0-.644-8.231c-.665-3-1.386-6.506-3.29-8.788-1.484-1.721-3.175-2.021-4.186-.088-.827,1.583.916,4.2,2.363,3.332.35-.2.559-.534.1-.524a1.811,1.811,0,0,1-1.56-2.869c1.674-1.758,4.6,2.159,3.244,4.315-.6.932-2.164,1.1-3.416.753a5.444,5.444,0,0,1-2.553-6.872,3.216,3.216,0,0,1,4.022-2.079Zm-4.9,1c.329.016.105.627-.2,1.581-.717,2.287.627,5.84,2.488,6.548.559.383.529.528.156.739-1.215.689-3.42-1.375-4-3.675-.421-1.663-.318-3.627.476-4.46a2.191,2.191,0,0,1,1.012-.728.415.415,0,0,1,.069,0Zm-29.883,1.348,4.506,2.969a8.124,8.124,0,0,1-.023,2.911l-4.511-3.168Zm27.191-.037c.335-.011.21.554.117,1.584a6.056,6.056,0,0,0,2.19,5.561c.7.607.9.8.595,1.117-.431.452-1.666-.154-2.635-1.172-1.774-1.864-2.361-5.382-.979-6.657a1.338,1.338,0,0,1,.712-.433Zm50.121.414c1.925-.076,3.55.677,3.729,3.049.262,3.473-2.948,5.372-5.187,3.378-2.007-2,.027-5.135,2.353-3.667,1.17.744-.226,2.439-1.172,1.563-.427-.4-.614-.15-.311.307.916,1.378,2.719.232,2.59-.982-.254-2.387-3.163-2.356-4.258-1.421a25.765,25.765,0,0,0-3.8,4.534c-.807,1.19-.98,1.159-.861-.312a7.347,7.347,0,0,1,6.921-6.449Zm-52.437.759c.306-.011.185.432.208,1.575a6.842,6.842,0,0,0,2.907,5.782c.521.581-.146.993-1.128.712-2.235-.694-4.518-5.536-2.623-7.618C56.791,176.546,57,176.393,57.161,176.387Zm-2.174.962c.31-.02.135.629.164,1.852a6.215,6.215,0,0,0,2.752,5.385c.619.513.7.455.452.739-.651.756-2.855-.314-3.795-1.857-1.119-1.836-1.284-4.6-.243-5.652.291-.292.508-.456.67-.467Zm-2.162,1.241c.257,0,.114.467.153,1.579.1,2.7.707,4.032,2.405,5.28,1.067.784,1.326.549,1,.859-.572.543-2.135.076-3.307-.921-1.758-1.5-2.251-5.184-.823-6.448C52.508,178.714,52.691,178.589,52.825,178.59Zm-20.463.381L36.693,182l-.123,2.555-4.308-2.939Zm75.71,4.79a2.573,2.573,0,0,1-2.215-3.1c.071-.486.353-.763.655-.129.259,1.007.926,2.4,1.837,2.674.367.11.06.624-.277.554Zm-37.909-3.016c1.988,5.044,1.953,10.557,2.282,15.765.438,6.923,1.653,11.585,2.05,12.371,0,0-1.941.023-2.039-.261,0,0-1.832-9.18-1.556-13.72a42.749,42.749,0,0,0-1.561-11.553c-.634-1.779-.661-.6.824-2.6Zm-37.824,1.97L36.5,185.46c-.059.939-.067,1.879-.055,2.818l-4.084-2.912Zm56.016-.235c0,.153.6.282,1.541.053a5.875,5.875,0,0,1,2.883.013c.852.235.946-.041.175-.38a3.913,3.913,0,0,0-1.868-.526C90.191,181.656,88.348,182.147,88.355,182.48Zm16.874-.106a7.362,7.362,0,0,0,.7.943c.536.627.687.632.443.888-.561.59-1.741-.266-1.868-1.356C104.4,182.053,104.79,181.55,105.229,182.374Zm-37.3.215c1.946,2.795,2.233,9.35,2.273,14.009a70.684,70.684,0,0,0,1.558,11.851,1.693,1.693,0,0,1-1.447-.042c-.5-.657-.806-2.5-1.387-7.485-.15-1.287-.444-5.379-.51-8.675-.059-2.907-1.67-9.2-1.67-9.2a2.578,2.578,0,0,1,1.183-.46Zm-2.165.7c1.773,3.988,2.061,7.948,2.141,12.754a88.626,88.626,0,0,0,1.456,12.221c-.6.062-1.23.113-1.481-.159a2.512,2.512,0,0,1-.365-1.011,87.537,87.537,0,0,1-1.231-11.822c-.346-5.6-.436-6.99-1.224-9.784-.447-1.584-.6-1.551-.266-1.856a1.688,1.688,0,0,1,.97-.343Zm19.935.917c.049,1.856.286,1.1.936.8.49-.042.889.228,1.8.565,1.159.429,1.054.572,1.869.17.5-.249.9-.335,1.143-.138a2.211,2.211,0,0,0,2.874-.291,2.674,2.674,0,0,1,1.586-.087c.659.061.487-.362.568-1.2.073-.745-.21-.81-.974-.559a3.705,3.705,0,0,1-2.239.085,7.492,7.492,0,0,0-3.87-.051c-2.033.322-2.142.116-2.6-.178a4.019,4.019,0,0,0-1.107-.611c-.2.012-.131.684.017,1.493Zm18.042-.853c.194-.1.283.166.552.519.45.592.582.87.2.925-1,.146-1.247.041-1.212-.585.028-.5.137-.694.456-.859Zm-40.067.881c1.466,1.489,1.838,9.841,2,11.64.528,9.743,1.446,11.143.974,11.874-.555-.009-.748.2-1.111-.291-1.254-3.569-1.182-7.237-1.385-10.961a44.185,44.185,0,0,0-1.46-10.046c-.458-1.625-.452-1.652.373-2.1a1.6,1.6,0,0,1,.6-.117ZM61.7,185.407a45.97,45.97,0,0,1,1.694,11.207,88.005,88.005,0,0,0,1.148,10.937,1.553,1.553,0,0,1-1.433-.468c-1.6-7.108-1.09-14-2.938-21.146a1.085,1.085,0,0,1,1.529-.53Zm-29.3.877,4.32,3.122.092,2.665L32.4,188.918Zm64.211-.336c-2.439.954-3.071,1.737-2.687,2.425.323.579,1.294.376,3.892-.717,1.942-.817,2.551-.46,2.945.773-.019,1.821-1.771,2.033-2.76,1.782-.425-.016-.362.023.091.594,2.011,1.59,4.477-1.519,3.248-3.491C100.377,185.513,98.713,185,96.61,185.948Zm-15.311.738c-2.012,1.592-1.293,4.461.382,4.891a1.669,1.669,0,0,0,1.433-.056c.251-.168.249-.441-.265-.527-1.555-.26-2.438-1.41-1.687-2.576.73-1.131,2.081-.914,4.678.215,2.246.975,3.231.674,3.495-.5.117-.517-.025-1-1.1-1.042C85.236,186.982,83.249,185.144,81.3,186.686Zm26.935,4.391c-.133-.825-1.465.022-2.347,1.484-.868,1.439-.958,1.645-1.134.151-.264-2.228,2.03-3.971,3.461-4.027,1.724-.2,2.856.772,2.9,1.892a1.462,1.462,0,1,1-2.88.5ZM32.3,189.761l4.575,3.167a18.032,18.032,0,0,1,.056,2.61l-4.595-2.963Zm54.934,1.064a2.3,2.3,0,0,0,.571,4.122c1.467.295,1.57-.737.112-1.042a1.148,1.148,0,0,1-.675-1.635c.695-1.147,1.982-.405,2.73-.047,1.66.8,2.521,1.087,3.045.537.931-.979.1-2.723-1.13-2.108a1.484,1.484,0,0,1-1.288.148,5.373,5.373,0,0,0-3.365.025Zm-54.9,2.7,4.5,3.105-.137,2.746-4.226-3.125Zm.093,3.774,4.233,3.041a16.579,16.579,0,0,0,.013,2.362L32.4,199.918Zm74.854.585c3.4.335,2.27,4.265-.1,3.2-.633-.479-.823-.44-1.525,1.284-.9,2.205-1.118,2.026-.994-.522C104.759,199.357,105.9,197.906,107.288,197.886Zm-26.743.6a.315.315,0,0,1,.185.047c.229.26-.459,1.286-1.043,1.888-.43.284-1.476-.484-1.222-.859a4.771,4.771,0,0,1,2.08-1.076Zm4.529,2.024-.607.088c-.916-2.058-2.819-1.586-3.407.324l-.837-.1c.845-2.342,3.859-3.779,4.851-.316Zm17.09.47-1.026.062c-.921-2.232-2.226-2.566-3.331-.361l-.8-.231c1.368-2.819,3.656-3.045,5.152.53Zm-5.132-2.546c.525-.032.457.212-.09.965-.475.655-.591.758-1.068.4C95.09,199.212,96.392,198.476,97.032,198.433Zm4.864.066a1.87,1.87,0,0,1,.351.049c1.058.263,1.544.769,1.025,1.417-.324.4-.639.563-.852.292-.714-1.187-1.11-1.794-.524-1.758Zm-15.986.7c.11.442-.237.756-.623.388a.832.832,0,0,1-.275-.593.661.661,0,0,1,.9.2Zm-53.519,1.518,4.352,3.15a19.015,19.015,0,0,1,.166,2.711l-4.48-2.992Zm63.438.954c2.507,1.732,5.447,1.709,7.285.188.411-.34.77-.354.777-.028-.262,1.214-3.459,2.771-5.956,1.888a6.119,6.119,0,0,1-3.4-2.256C94,200.624,95.1,201.166,95.829,201.673Zm-1.061.844c3.664,3.186,6.577,2.3,8.785.695.326-.082.331.214.4.764.093.7-.488,1.052-2.075,1.532-3.069.926-6.67-.089-7.318-2.163-.076-.408-.232-.938.2-.828Zm-62.393,1.909,4.413,3.051-.141,2.331-4.3-2.929ZM32.446,208l4.165,2.846-.013,1.93-4.052-2.91ZM62.7,208.9c17.77,4.052,30.364,2.128,42.723-.068l10.95,21.648-65.984.089C54.7,223.538,58.283,215.845,62.7,208.9Z" fill="#131f67"/><path id="f60d5f0b-5deb-44ed-b33a-e276565f9b39" data-name="path3442-2-7-0" d="M64.361,21.681c1.9,3.293,3.4,6.7,5.112,10.065l.275.178.409.779.046.379,1.015,1.636-.007.352,4.305,8.072c3.551-1.337,32.716-3.742,43.515.193l1.573-2.687.377,0,2.773-4.9-.044-.413.934-1.073.135-.489,3.061-4.828.01-.778,3.829-6.433Zm66.037.926s-2,3.869-3.025,5.433c-.832-.662-3.246-.213-3.1,2.352-3.935-1.5-4.884,3.229-1.841,4.294-1.562,1.374-3.054-.18-4.237-1.234-1.158.289-3.562,1.147-4.923-1.377,0,0,.569.31,1.137.646,3.218.986,3.478-3.391,1.084-4.108a5.978,5.978,0,0,0-.869-.112c.805-3.366-4.361-4.541-4.459-.5a3.789,3.789,0,0,0-1.08-.015c-2.739.5-2.111,4.573.688,4.379a3.078,3.078,0,0,1,.73.042c-.045.652-3.433,1.9-5.873-.345-1.158.889-2.99,2-5.378-.213,1.571-.064,3.077-.515,3.06-2.309a2.467,2.467,0,0,0-2.557-2.267,2.76,2.76,0,0,0-2.3-2.647,2.485,2.485,0,0,0-2.322,2.647,2.369,2.369,0,0,0-2.237,2.615c.381,1.808,1.763,2.03,3.34,1.686-1.918,3.109-5.042,1.487-6,.5-1.147,1.078-3.146,2.539-5.609.543,1.312-.227,2.772-1,2.526-2.849a2.347,2.347,0,0,0-2.518-1.809,2.294,2.294,0,0,0-2.422-2.384c-1.855.179-1.744,2.543-1.722,2.562a2.284,2.284,0,0,0-2.207,2.848c.532,1.411,1.645,1.85,3.691,1.469-2.387,2.257-3.9,1.381-5.2.907a3.083,3.083,0,0,1-4.271.53c3.53.17,2.969-6.121-1.219-3.84-2.978-3.532-2.924-1.962-5.593-7.157Zm-32.9,6.2a1.063,1.063,0,0,1,.53.12c.552.284.656.778.319,1.508a1.748,1.748,0,0,0-.261.821c3.888,7.227,12.459,4,13.266.64a1.065,1.065,0,0,0-.158-.675.978.978,0,0,1,.143-1.383,1.059,1.059,0,0,1,1.691,1.232,1.335,1.335,0,0,0-.181.985c2.2,5.036,6.583,5.415,10.26,3.421-1.694,3.058-8.26,4.932-11.017-2.429-4.4,6-11.384,5.884-14.554-.888-2.85,6.926-11.45,7.09-14.58,1.337-2.85,6.582-9.457,5.088-11.329.969,6.138,4.478,10.183-.2,10.91-2.189a2.594,2.594,0,0,0-.339-.427c-.785-.777-.764-1.691.05-2.054a1.11,1.11,0,0,1,1.484,1.535c-.15.277-.283.338-.184.577,1.91,4.488,11.318,5.792,13.223-.5a1.378,1.378,0,0,0-.134-.965A1.078,1.078,0,0,1,97.5,28.807ZM70.035,31.349c1.483.085,1.07,1.371.772,1.469Zm55.1.8c.01.024-.915,1.666-.915,1.666C123.731,33.029,123.858,32.048,125.136,32.152Zm-5.017,8.3a11.988,11.988,0,0,1-1.261,2.291c-17.576-4.539-42.1-.593-42.7-.155l-1.08-2.05C90.485,37.43,105.851,38.093,120.119,40.448Zm-29.692,31.4c-1.7,6.6-5.805,7.27-10.767,8.072-6.146.994-10.151-1.263-12.024-4.712,0,0-8.79,3.348-12,5.293,6.67,3.08,15.481,9.9,20.489,17.644,1.785,2.361,1.7,1.827,1.692,7.006-.007,11.232.019,15.408.019,15.408,2.752.416,2.9,2.323,2.752,4.466,2.209-.984,4.334.22,4.325,2.32-.018,3.862-3.782,2.813-4.563,2.387,1.224,3.4-.213,4.813-1.68,4.98-1.808.206-3.882-.67-3.278-4.565a3.7,3.7,0,0,1-4.814-2.977l-.1-3.972c4.876-9.248-1.245-16.767-6.992-19.24,0,0,1.626-3.389,3.729-4.34.213-.065-1.276-2.267-3.779-1.787-1.152.024-.884.016-1.968-1.4-2.143-2.8-3.152-3-5.24,0-.919,1.321-1.139,1.357-2.226,1.38-1.2.025-3.035.892-3.429,1.666-.09.177.38.358,1,1.093.9,1.057,2.282,2.509,2.064,3.988-4.733,1.941-12.584,10.458-4.328,21.363l-5.97.078-.285-38.822L38.913,89.5l.184,30.409-1.184-.395c.091-9.7-.054-19.393-.357-29.088L26.608,98.471l.488,45.6,1.165.248c.864,6.212,13.072,1.868,13.785,2.406l.146,25.336-.535,1.256,9.714,5.352,8.911-4.658a8.5,8.5,0,0,0,1.653-.458c3.695-1.962,6.448-1.522,8.457,1.357,1.239,1.776,1.449,2.038,1.449,2.038.751-5.124,5.258-7.012,9.63-5.673,3.215.984,7.608,4.214,8.953,8.157a3.841,3.841,0,0,0,.48.86l.185.082c-.012-.1-.213-.594-.289-.833C86.292,169.1,73.586,167.5,71.626,176.026l-1.8-2.543,9.46-5.847,12.928,8.576s-.608,3.014-.677,4.317l.223.1a11.646,11.646,0,0,1,1.3-4.716,4.707,4.707,0,0,1,1.057-1.333c.772-.452,1.488-.406,2.272-1.147L94.5,172.015l-.042-4.565,3.794,5.355c1.193-.278,5.839-1.676,8.595-.128.312.1,4.353-1.064,6.87,4.62l12.116-5.073s.773-.438.781-.554c-12.082-4.494-24.281-20.407-23.107-20.663,0,0-.036-1.632.057-5.638.1-4.465.045-9.023.12-13.5-4.112-1.323-3.09-4.664-3.09-4.664-2.471.547-2.866.063-3.491-.376l-.427-4.228a3.952,3.952,0,0,1,4.2-.984,4.128,4.128,0,0,1-.08-3.348,2.979,2.979,0,0,1,3.94-1.108c1.87,1.284,1.274,3.975,1.007,4.351a3.6,3.6,0,0,1,4.905,2.039,107.17,107.17,0,0,1,1.926-17.144,97.734,97.734,0,0,1,9.86-25.9c.706-1.241,1.606-2.484,2.333-3.646a16.635,16.635,0,0,0,1-1.706,10.139,10.139,0,0,1-1.9.787,11.531,11.531,0,0,0-2.622.911,14.382,14.382,0,0,1-3.475,2c-3.88,1.523-6.489-.748-8.1-4.215-.9,4.4-4.9,8.13-10.805,5.814-3.335-1.784-4.384-2.926-7.5-7.582a4.616,4.616,0,0,0-.938-1.023Zm.129.72c2.208,4.4,5.512,7.517,8.725,8.763a8.024,8.024,0,0,0,10.586-5.207l1.107,1.889-8.685,6.215-13.1-8.4a23.089,23.089,0,0,0,1.371-3.263Zm39.435.3-3.89,2.31s-2.584,4.2-3.452,5.785a89.446,89.446,0,0,0-9.722,25.592,118.378,118.378,0,0,0-1.734,11.831,70.786,70.786,0,0,0-.269,10.413l.3.333s-.477.843-.819,1.554a9.56,9.56,0,0,0-1.1,5.262,13.893,13.893,0,0,0,7.626,12.1c.248.113.577.26.577.26a11.675,11.675,0,0,1-2.118,3.5c-.911.963-1.106,1.01-.784,1.484.448.659,1.894,1.232,3.69,1.2.636-.009.632-.011,1.807,1.279,2.294,2.518,2.983,2.467,5.07-.387a1.974,1.974,0,0,1,1.88-1.074c1.333-.032,3.766-1.116,3.756-1.624-1.642-.732-3.543-4.509-3.241-4.549,8.976-4.787,10.877-14.711,4.322-22.007l6.261-.1.23,39.585c1.226-.82,4-2.585,4-2.585l-.091-30.8a15.155,15.155,0,0,0,1.706.53l.246,29.332s8.044-5.716,11.87-8.7l-.234-44.886h-.915l.146,44.863-10.629,7.824-.069-27.882s.84-.127,1.153-.171c3.111-.439,4.552-4.438,2.487-7.049-.733-.927-.212-.861,1.346-1.162,2.764-.246,4.294-2.352,3.49-3.852-.345-.644.1-.575.4-1.186a2.977,2.977,0,0,0,.073-1.55,1.945,1.945,0,0,1,.3-1.291,2.071,2.071,0,0,0-.4-1.9,2.605,2.605,0,0,1-.315-1.682c-.019-.912-.346-1.042-1.3-1.922-.724-.666-.143-.812.923-1.364,1.676-.87,1.791-3.948-.439-5.259-1.192-.7-3.36-.644-8.061.1-1.782.283-3.875.472-3.875.472s-.015-17.549-.138-26.595Zm0,.62s9.543,5.628,9.468,5.786c-3.205,4.425-15.159,22.057-15.246,43.379-8.766-1.109-12.355,5.8-12.781,5.774A87.344,87.344,0,0,1,126.17,75.732Zm-6.02,3.434-.031.639-1.891,2.848L122,77.561Zm-2.921.992.069,4.588-3.875,2.984-.227-4.786Zm-35.916,1.05,1.991,1.387L87.056,84.9l-3-5.5ZM139.643,80.5l.016,3.294c-7.64,10.863-11.649,23.271-12.874,38.985l-1.861-.062A74.739,74.739,0,0,1,139.643,80.5ZM87.9,80.836l4.713,3.1-.2,5.192-4.278-2.767-.4-1.061Zm28.531.22-.019,4.829-3.641,2.724-.169-4.793ZM72.31,82.32c.54.006.972.4,1.073,1.155.4,3.209,2.822,2.282,3.4,3.247.218.329-.3.615-1.957.48-3.04-.229-5.255-2.707-3.7-4.34A1.775,1.775,0,0,1,72.31,82.32Zm21.008,2.069,4.025,2.585-.012,5.332L93.387,89.88Zm18.364.016.311,4.716-4.405,2.953-.158-4.686Zm8.383.019-2.529,5.429-14.757,10.7L90.531,92.562l-2.272-5.239,14.289,9.4Zm-39.8,2.155c3.921-.049,6.931,4.147,7.961,7.824.749,2.431.862,3.3.941,7.165.081,3.931.2,4.61.935,5.165.45.342.581.25.638-.445.127-1.545,1.959-.593,1.991,1.034.035,1.808-1.939,2.389-3.4,1-.777-.739-.788-.732-1.03.721-.162.973-1.288,7.067,1.587,8.584.541.051.671-.386.269-.9-.806-1.021.8-2.2,2.118-1.55,1.588.786,1.427,3.365-.269,4.282-1.94,1.049-4.448-.143-5.62-2.67-.86-1.855-.856-4.426.016-8.246a25.055,25.055,0,0,0,.668-4.232,10.4,10.4,0,0,1,.116-1.073c.093-.412-.108-.431-.8-.078-1.9.965-3.968.279-4.478-1.484-.61-2.108,1.721-4.286,3.16-2.953.546.506.48,1.009-.173,1.333-1.132.562-.745,2.041.457,1.748,3.965-1.2.34-12.411-4.124-13.187-2.952-.514-5.27,2.876-3.133,4.689.836.71,1.686.329,1.5-.675-.255-1.4,1.589-1.248,2.272.186,1.109,2.335-1.756,4.235-4.433,2.942C72.635,92.887,75.918,86.667,80.268,86.579Zm17.778.891L102,90.148l.035,5.2L98.108,93Zm8.715.449.019,4.778-3.817,2.8V90.411Zm10.283,3.131-1.953,5.484-12.32,8.494L92.607,98.6l-1.749-5.072,11.974,7.82Zm-79.961.4,0,27.758c-3.992.171-6.284,4.151-3.294,7.913l-1.13.155c-2.7.373-4.51,1.816-4.152,3.565a2.114,2.114,0,0,1-.154,1.345,2.2,2.2,0,0,0,.146,1.887,1,1,0,0,1,.069,1.042,2.032,2.032,0,0,0,.127,1.965c.445.439.321.793.262,1.5-.072.993.105,1.392.726,1.778.8.5,1.1,1.315.189,1.248-.452-.033-2.042,1.512-2.042,1.512l-.15-44.546Zm21.646,3.561c.714,0,1.45.9,2.506,2.43.639,1.093.65.945,2.111.887a4.152,4.152,0,0,1,2.791.961c.147.172-.244.217-1.188,1.182a9.4,9.4,0,0,0-1.765,2.519.565.565,0,0,1-.984.074c-.193-.3.3-1.268,1.23-2.411,1.31-1.274,1.035-1.4-.868-1.2-1.337.141-1.48.074-1.988-.744-1.514-3.034-2.318-2.931-3.767.093-.4.846-.238.792-1.953.659-1.35-.1-1.684.238-.922.953a6,6,0,0,1,1.587,3.278l-.919.086a9.2,9.2,0,0,1-.4-.853,8.9,8.9,0,0,0-1.645-2.461c-1.03-1.121-.464-1.734,1.833-1.984,1.281-.139,1.31-.157,1.9-1.027C57.322,95.92,58.015,95.013,58.729,95.011Zm55.886,2.763-1.327,4.735-10.509,7.429-8.55-5.751L93.1,99.735l9.822,6.27ZM78.38,101.525a72.244,72.244,0,0,1,4.14,9.831c.959,3.363,2.292,13.1,1.941,13.7-.746-1.033-3.214-.8-3.248-.79a3.762,3.762,0,0,0-2.81-3.895Zm34.578,2.182-1.05,4.662-8.949,6.522-7.384-5.085-.969-4.506,8.173,5.5Zm-52.026.259,1.161.407.219,8.421,8.953,1.5.2,1.441L61.1,114.05C60.992,110.459,60.932,103.966,60.932,103.966Zm-4.544.252.25,9.793c-.1-.033-7.464,1.026-10.283,1.771l.165-1.341s5.121-1.123,8.83-1.554c0-2.738-.021-5.618-.027-8.409Zm83.294,1.8a16.135,16.135,0,0,0,3.825-.348c6.72-1.186,8.54-.7,9.4,1.383.938,3.238-2.584,3.317-3.211,1.261-.4-1.332-1.842-1.041-6.661.111-4.121.985-6.732.2-6.682-2.157C136.4,103.85,139.138,103.636,139.682,106.02Zm-55.224-1.771a1.518,1.518,0,1,1-1.48,1.543A1.516,1.516,0,0,1,84.458,104.249Zm-21.831.268,1.061.321s.156,6.388.188,6.4c2.283.508,7.077,1.415,7.077,1.415l.254,1.263c-2.007-.475-8.4-1.531-8.4-1.531C62.6,109.613,62.627,104.517,62.627,104.517Zm-7.746.12s0,5.1-.081,7.836c.036-.024-5.428.876-8.2,1.457l.215-1.023c2.2-.5,4.583-1,7-1.512-.048-2-.046-6.4-.046-6.4Zm3.9,1.1a1.219,1.219,0,0,1,.034,2.437,1.219,1.219,0,0,1-.034-2.437Zm90.921,3.181a1.788,1.788,0,0,0,2.1.969c-.184.055-1.049.57-1,.74.025.085-.365,1.489.227,1.546,2.23.217,1.1,2.552,1.368,2.911.6.692,1.044,1.132.631,1.995-.367.767-.894.743-.485,1.4.889,1.347-.339,1.626-.23,2.542a3.765,3.765,0,0,1,.065,1.74c-.61,1.3-2.766,2.038-5.163,2.139-.341.016-.082-.547-.242-.9-.592-.377-.268-1.013-.069-1.429.2-.553.2-.554-.169-.834-1.023-.64-.97-.936-.888-1.4.224-1.368.013-1.5-.4-1.7-.524-.259-.453-.837-.219-1.577.161-.512.047-.64-.2-1.1a1.234,1.234,0,0,1-.192-.6c.073-.707-.555-.7-1.434-.012a33.3,33.3,0,0,0-1.469,4.069c-.361.825-.418,1.687.012,3.589.825,2.906.212,3.391-3.033,2.77-2.441-.6-3.162-3.23-2.483-6.444a4.4,4.4,0,0,0,.03-1.43A6.689,6.689,0,0,1,138.3,112.1c2.557-2.424,3.821-2.793,9.107-2.453a7.91,7.91,0,0,1,2.226.279,5.436,5.436,0,0,1,.073-1.012Zm-38.069.667-.615,4.506-4.962,3.531c-2.337-1.86-4.141-1.24-5.786.752-1.3-.666-3.905-2.481-3.905-2.481l-.665-5.111,7.215,5.046ZM58.89,110.651a1.219,1.219,0,1,1-1.2,1.24A1.212,1.212,0,0,1,58.89,110.651Zm51.915,4.616-.273,4.34-1.764,1.337-1.776-.182-.419-2.69ZM58.86,115.3a1.219,1.219,0,0,1,.034,2.438,1.219,1.219,0,0,1-.034-2.438Zm4.866.136a1.217,1.217,0,1,1-1.191,1.232A1.208,1.208,0,0,1,63.726,115.437Zm-9.675.233a1.219,1.219,0,1,1-1.192,1.236A1.214,1.214,0,0,1,54.051,115.67Zm89.871.2c.34-.028.845.481.6,1.244-.328.871-.1,1.166.449,1.872.464.6.382.679.312,1.062-.107,2.5,1.5,1.422.8,3.243a3.238,3.238,0,0,0,.12,1.43c-.157-.428-3.1-.389-3.353.047-.419-.063-.95-2.853-.526-3.221a3.833,3.833,0,0,1,.519.748c.395.677.481.652.357-.132C142.71,119.051,143,115.886,143.922,115.867Zm-75.317.217a1.217,1.217,0,1,1-1.188,1.236A1.215,1.215,0,0,1,68.605,116.084Zm-19.575.225a1.217,1.217,0,1,1-1.2,1.236A1.211,1.211,0,0,1,49.03,116.309Zm47.39.353,3.622,2.367a7.2,7.2,0,0,0,.207,2.178,4.294,4.294,0,0,0-3.559,1.136Zm-25.793,3.786-.281,1.286a45.078,45.078,0,0,0-22.73.085l-.592-1.352A39.8,39.8,0,0,1,70.627,120.448Zm-33.782-.082a3.489,3.489,0,0,1,1.591,6.681,3.587,3.587,0,0,1-4.8-4.677A3.476,3.476,0,0,1,36.845,120.366Zm73.541.376-.046,1.291-.9-.76Zm-18.909.058a2.393,2.393,0,1,1-2.337,2.43A2.384,2.384,0,0,1,91.477,120.8Zm-54.567.078a1.932,1.932,0,0,0-1.092.36c-.632.588,0,.605.838.76,1.483.274,1.892,1.562,1.757,2.953-.123,1.264.3,1.244.638.775A3.046,3.046,0,0,0,36.91,120.878Zm68.836.635c-.03.016-.065.039-.065.039C105.7,121.566,105.72,121.548,105.746,121.513Zm-46.875.752c1.775-.037,1.961,2.905.392,6.193-.471.988-.712.865-1.23-.628C56.757,124.15,57.034,122.3,58.871,122.265Zm4.106.085a1.149,1.149,0,0,1,.945.427c.955,1.1.221,2.871-2.321,5.6-.618.664-.938.918-1.165.922-.637.014-.634-.093.088-2.464.319-1.046.633-2.194.7-2.55A2.185,2.185,0,0,1,62.977,122.35Zm-6.424,2.632c.174.815.478,1.947.673,2.519a4.317,4.317,0,0,1,.292,1.2c-.157.438-1.29-.158-2.1-1.1-1.629-1.906-2.278-3.565-1.942-4.455a1.66,1.66,0,0,1,2.341-.406A4.605,4.605,0,0,1,56.553,124.982Zm11.229-1.9c1.717,1.021-.261,3.352-4.109,5.286-1.647.827-1.529.454-.281-1.179a17.272,17.272,0,0,0,1.43-2.263C65.513,123.554,66.2,122.18,67.782,123.083Zm-17.145.008c.545,0,1.1.583,2.138,2.092a23.544,23.544,0,0,0,1.664,2.128,3.61,3.61,0,0,1,.8,1.1c-.178,1.058-5.535-2.294-5.92-3.7A1.386,1.386,0,0,1,50.637,123.091Zm76.675,3.069c.966,2,1.049,3.248.249,3.7a1.863,1.863,0,0,1-2.625-1.763,14.806,14.806,0,0,0-.946-3.235c-.368-.894-.418-1.445-.115-1.49A6.632,6.632,0,0,1,127.312,126.16Zm-6.412-1.519a17.411,17.411,0,0,0-.765,3.452,2.728,2.728,0,0,1-.269.93c-.981,2.037-3.3.376-2.449-1.751.77-1.918,2.729-3.914,3.5-3.98C121.446,123.246,120.953,124.473,120.9,124.641Zm1.563-1.1c.387-.039.712.814,1.212,2.25.676,1.939.648,3.452-.081,4.1-1.56,1.38-3.2-.624-2.567-3.143C121.531,124.732,122.025,123.585,122.463,123.542ZM70.1,123.9c1.943,28.826-12.716,51-13.76,51.608l-4.988,2.75L42.6,173.45a75.923,75.923,0,0,0,14.9-43.578A13.547,13.547,0,0,0,70.1,123.9Zm48.067.091c.612-.169.185.37-.422,1.252-.647.941-1.488,3.5-2.155,3.911-1.5.725-3.188-.657-2.281-1.857A12.077,12.077,0,0,1,118.163,123.988Zm8.9.2a3.777,3.777,0,0,1,1.311.469c3.114,1.533,4.65,3.556,3.317,4.523-.936.679-1.936.152-2.871-1.636a16.326,16.326,0,0,0-1.284-2.007C126.834,124.628,126.671,124.185,127.062,124.183Zm17.51,1.027a3.653,3.653,0,1,1-3.572,3.7A3.634,3.634,0,0,1,144.572,125.21Zm-1.1.949c-2.355,1.051-1.646,4.779.384,5.317.857.242,1.9-.117,1.47-.533-2.681-.848-2.7-2.841-1.618-4.3C143.878,126.41,143.645,126.08,143.469,126.159Zm-98.1,5.127c-.091,2.106.361,4.549-.637,6.836-1.513,3.515-6.372,5.121-8.968,4.809a2.281,2.281,0,0,0-1.7-.208,1.322,1.322,0,0,1-1.065-.041c-.332-.155-.65.049-.972-.068-.376-.257-.991-.838-.919-1.271.118-.611.071-1.063-.638-1.264-.982-.277-1.181-.812-.891-2.379.062-.339.137-.492-.081-.639a1.748,1.748,0,0,1-.523-2.345c.31-.548.549-.936-.008-1.372-.22-.5-.181-.692.293-1.333.5-.608.592-.678.269-1.2-.728-1.168.1-2.03,1.076-2.511a13.628,13.628,0,0,1,3.844-.985c.515.03.493.486.8.927.457.715-.187,1.749.185,2.115a1.2,1.2,0,0,1,.738,1.175,2.694,2.694,0,0,0,.308,1.747,2.156,2.156,0,0,1,.13,1.88c-.245.512-.219.477.1.779a3.008,3.008,0,0,1,.363,1.766l1.347-.124a13.194,13.194,0,0,1,2.042-5.079c-.085-1.786-.76-3.428-.7-5.787,3.328-1.2,5.731,1.65,5.6,4.569Zm51.685-4.014a10.285,10.285,0,0,0,2.952.973,4.226,4.226,0,0,0,3.106,4.134c.03,3.209,0,18.024,0,18.024-3.462-5.848-5.608-13.4-6.062-23.131Zm-57.915.523a9.25,9.25,0,0,1,.253,1.252c.213,1.685-.016,1.915-.461.763-.52-1.349-.547-.3.039,2.79a2.078,2.078,0,0,1-.047,1.426c-.114.317-.317,1.052-.476,1.628-.469,1.695-.742,2.182-1.223.833-.245-.688-.45-.795-.275-1.334a1.876,1.876,0,0,0-.274-1.836,1.838,1.838,0,0,1-.258-1.05c.135-1.566-.556-1.58-.692-1.985.023-.612-.26-2.1.158-2.057a6.773,6.773,0,0,0,2.179-.151c.262-.1,1.077-.279,1.077-.279Zm51.611.194a2.347,2.347,0,1,1-2.3,2.383A2.336,2.336,0,0,1,90.747,127.989Zm-35.95,1.43,1.764.337c.393.132.107,24.656-14.016,42.356l-.123-4.1C49.142,158.208,53.981,146.184,54.8,129.419Zm29.918.515.323,5.859c-.993-.851-3.517-2.446-3.5-2.48l.012-2.166s2.168.168,3.163-1.213Zm-13.6.081a5.5,5.5,0,0,1,1.161.9l-1.154.782Zm40.424.3a43.757,43.757,0,0,0,22.538.546l.508,1.434a41.244,41.244,0,0,1-24-.484Zm-36.895,1.1.407,2.526-4.3,2.806.209-3.836,2.241-1.465Zm38.06,2.1a1.269,1.269,0,1,1-1.238,1.286A1.264,1.264,0,0,1,112.7,133.511Zm19.574.105a1.269,1.269,0,1,1-1.238,1.286A1.263,1.263,0,0,1,132.278,133.616Zm-36.661,3.942c.563,2,.441,6.525-.284,9.594a40.808,40.808,0,0,0-.35,4.192c-.135.171,4.315-3.712,5.746,1.38a2.468,2.468,0,0,1-2.846,2.925c-.261-.095-.182-.962.067-1.472.743-1.523-1.373-2.314-2.579-.965-2.786,3.119.08,11.014,4.448,11.781,3.625.637,6.532-3,4.113-5.17-1.058-.948-2.751.359-1.976,1.566.827,1.289-.7,1.8-1.849.608-2.01-2.084.247-5.221,3.283-4.5,4.853,1.113,3.855,8.761-1.234,9.192A7.871,7.871,0,0,1,94,162.284c-1.546-2.912-1.661-5.232-.954-10.339.42-3.031.075-5.586-.761-5.568a.829.829,0,0,0-.888.775c-.148,1.11-.275,1.318-.965.914a1.972,1.972,0,0,1,.069-3.278c1.469-1.145,3.373.641,3.3.949a5.475,5.475,0,0,0,.38-1.647c.642-4.23-.783-8.7-2.544-7.983-.387.157-.34.334.165.62,1.173.665.139,2.37-1.334,2.2-2.086-.245-2.561-3.179-.723-4.476,2.895-1.574,5.253.89,5.878,3.109Zm-14.242-3.524s3.7,2.276,3.9,2.86c.126.375.276,3.639.276,3.639l-6.423-4.054-9.209,5.739c.15-1.259.813-4.5.813-4.5l4.9-3.123C75.652,134.78,79.015,137.018,81.375,134.034Zm45.987.217a1.269,1.269,0,1,1-1.238,1.291A1.265,1.265,0,0,1,127.362,134.251Zm-9.8.019a1.27,1.27,0,1,1-1.238,1.287A1.265,1.265,0,0,1,117.559,134.27Zm4.928.287a1.269,1.269,0,1,1-1.238,1.287A1.268,1.268,0,0,1,122.487,134.557Zm-12.339,1.8c3.335.7,6.678,1.419,9.875,1.771l.131,9.894-.934-.055-.135-8.839a48.28,48.28,0,0,1-8.737-1.6Zm24.8.322-.173,1.163s-5.77,1.006-8.784,1.4c-.048,1.992-.042,8.646-.042,8.646l-1.153.213,0-10.071c3.422-.375,6.839-.763,10.156-1.349Zm-55.832.558,6.793,4.526.8,4.8-7.918-5.305s-7.179,4.87-9.864,6.676l.818-4.522Zm31.357.895a67.62,67.62,0,0,0,8.2,1.426l.115,7.96-1.257-.337-.1-6.46a54.646,54.646,0,0,1-6.535-1.074Zm24.191.237-.231,1.081s-4.377.665-6.635,1.073c-.2.046-.127,7.006-.127,7.006l-1.08.167-.127-8.126Zm-12.259.891a1.269,1.269,0,1,1-1.242,1.29A1.261,1.261,0,0,1,122.4,139.258Zm-43.392,2.871,8.03,5.464a32.86,32.86,0,0,1,1.13,4.422L78.93,146l-11.563,7.727,1.337-4.774Zm-48.674.167a1.338,1.338,0,0,1,1.2,1.066c.348,1.038,1,1.345,2.71,1.313,3.36-.18,6.881-1.772,10.052-.577,1.541.572,2.09,2.864.8,3.46-1.4.648-2,.241-2.483-.868-.449-.471-1.007-.4-4.018.124-1.328.218-2.888.413-4.2.52-3.357.273-5.21-.793-5.628-2.806A1.824,1.824,0,0,1,30.337,142.3Zm92,1.848a1.27,1.27,0,1,1-1.242,1.287A1.263,1.263,0,0,1,122.334,144.144Zm-24.6,1.547a1.651,1.651,0,1,1-1.61,1.674A1.644,1.644,0,0,1,97.731,145.691Zm-18.709,1.154s6.609,4.451,9.668,6.507l1.691,4.9-11.255-7.378-13.773,9.033,1.652-5.038Zm47.713,1.531a12.748,12.748,0,0,0,2.837,4.127s-.641,1.224-2.925,1.151c-1.249-.039-1.315.158-1.742,1.012a9.178,9.178,0,0,1-1.722,2.139c-.8.621-2.3-.307-3.537-2.194-.45-.687-.637-.85-2-.821-2.085.043-2.839-.54-1.756-1.484.944-1.16,1.623-2.436,2.468-3.655l.938.109a7.86,7.86,0,0,1-1.811,3.433c-.549.625.219.851,1.561.566.85-.258,1.068-.157,1.7,1.155,1.313,2.5,2,2.381,3.552-.155.543-1.132.523-1.245,2.018-.919,1.605.163,2.089-.04,1.43-.6a9.345,9.345,0,0,1-2.068-3.829ZM79.08,151.728s11.951,7.891,11.92,7.72l2.395,5.688-14.027-9.405L62.231,166.965l2.564-5.63Zm.461,5.181,4.167,2.763-.012,4.972-4.255-2.883Zm-1.069.144.077,4.906L74.813,164.2l-.208-4.6Zm-4.739,3.162-.035.19.088.046.031,0,.135,4.422-4.3,3,.015-5Zm11,.054,3.917,2.635.162,5.263-4.252-2.806Zm4.836,3.213,3.929,2.751.138,5.255-4.013-2.725Zm-20.793.019-.019,4.856-3.909,2.751-.185-4.96Zm41.347,6.266c-.775.815-1.062.714-1.726-.631a3.254,3.254,0,0,0-3.221-2.023c-1.89.033-.654-1.217,1.349-1.364C110,165.6,111.753,167.938,110.128,169.767Zm-46.34-2.848.1,4.871L60,173.828l-.119-2.309,2-3.531Zm-5.017,6.51.135.888-.719.279Zm46.818,35.109c-16.372,3.531-32.067,2.284-43.331.183l-5.147,8.866-.354-.016-1.326,2.3.142.263S51.3,228.4,49.5,231.011c21.04-.2,67.221-.307,67.221-.307L113.9,225l.154-.155-2.779-5.956-.9-1.031a21.229,21.229,0,0,1-.965-2.232c-.38-1.064-2.011-3.976-2.011-3.976l-.23.02ZM62.85,209.786c.217.174,20.97,4.116,42.481.066l1.176,1.984c-18.826,4.368-46.066.2-44.991-.209Zm.357,3.9a6.317,6.317,0,0,1,5.117,2.673,15.288,15.288,0,0,1,1.088,2.155,11.26,11.26,0,0,1,1.8-2.275,7.846,7.846,0,0,1,5.624-2.015c2.328.084,4.891,1.354,7.2,5.026.583-2.118,8.233-9.318,14.534-.341.721-2.385,4.093-7.15,9.553-3.821.373.8.757,1.69.757,1.69-3.222-2.275-8.535-.749-9.791,2.8a1.5,1.5,0,0,0,.2,1.077c1.661,2.393-2.66,2.335-1.38.4a1.157,1.157,0,0,0-.123-1.379,9.012,9.012,0,0,0-6.3-3.387,8.658,8.658,0,0,0-6.405,3.356,1.538,1.538,0,0,0-.123,1.666.973.973,0,0,1-.23,1.252,1.006,1.006,0,0,1-1.58-1.2c.281-.479.238-1.067-.339-1.883a8.435,8.435,0,0,0-6.212-3.317c-3.365.078-6.765,2.522-6.55,4.534.095.884-.145,1.214-.861,1.112-.871-.124-.969-.953-.354-1.628a1.2,1.2,0,0,0-.042-1.123c-3.554-4.846-8.875-3.434-10.095-2.349a5.432,5.432,0,0,1,4.513-3.022Zm-3.163,3.363a4.294,4.294,0,0,1,3.225,1.822c.329-.344,3.346-1.795,4.813.279-3.841-.292-3.888,3.816-1.05,4.212-1.294,3.963,4.508,4.2,4.14.48,4.335.646,3.8-4.894-.28-4.309,2.138-1.569,3.592-1.063,6.162.736.864-1.133,4.386-2.193,5.251-.213-4.037-.251-3.35,4.462-.335,4.5-.895,3.267,5.036,4.468,4.121-.41,3.765.266,3.22-4.862-.388-4.438.267-.932,3.929-1.336,5.547.446,1.487-1.368,3.128-2.305,6.093-.349-4.042-.679-4.093,4.611-.338,4.294-.351,3.5,4.957,3.562,4.071-.484,4.041-1.1,1.819-5.46-1.15-4.259,1.322-1.584,3.565-.837,4.456-.516,2.75-3.173,5.147-.519,5.147-.519-4.787-.5-3.746,6.374.919,3.879a2.55,2.55,0,0,0,2.5,2.841l2.264,4.724-64.161.426,3.54-6.277a2.327,2.327,0,0,0,2.844-2.117c4.217,1.348,4.5-3.6,1.35-4.383a2.129,2.129,0,0,1,1.257-.368Zm-2.5,1.791c.419.679.068,1.121-.653,1.139A8.221,8.221,0,0,0,57.541,218.843Zm52.784.875.415.88C110.29,220.414,110.235,220.22,110.325,219.718Z"/></g></g><path id="2c58e72b-c54b-4b0f-b697-3b7cddd00860" data-name="path147-0-8-1-3-6-2-4-7" d="M132.92,224.934c7.855-.17,11.377-9,5.56-15.861-.844-1-.931-1.574.614-.613,3.917,2.615,11.427.9,11.811-7.1.475-9.853-13.309-12.692-15.9-2.215-.136,1.106-1.036,1.08-.819-.489a32.587,32.587,0,0,1,3.4-12.121h-9.338a32.568,32.568,0,0,1,3.4,12.121c.217,1.569-.682,1.595-.819.489-2.588-10.477-16.373-7.638-15.9,2.215.385,8,7.895,9.716,11.811,7.1,1.545-.961,1.458-.387.614.613-5.817,6.859-2.3,15.691,5.56,15.861h.006Z"/><path id="d3a101bb-511f-4276-92f2-67eb3f4701d0" data-name="path147-0-8-1-0-3-83-7-5-7" d="M50.094,27.8c7.855.17,11.377,9,5.56,15.861-.844,1-.931,1.574.614.613,3.916-2.615,11.426-.9,11.811,7.1.475,9.853-13.31,12.692-15.9,2.215-.137-1.106-1.036-1.08-.819.489a32.577,32.577,0,0,0,3.4,12.12H45.422a32.577,32.577,0,0,0,3.4-12.12c.217-1.569-.682-1.595-.819-.489-2.588,10.477-16.373,7.638-15.9-2.215.384-8,7.894-9.716,11.811-7.1,1.545.961,1.458.387.614-.613-5.817-6.859-2.3-15.691,5.56-15.862h.006Z"/></g><rect id="661f0fe2-fda9-4aea-ad0c-0679215160c2" data-name="rect17712" x="0.498" y="0.498" width="178.583" height="249.449" rx="8.504" ry="8.504" opacity="0.08" fill="url(#bf0105e0-8883-4ea7-8ea6-34d50cc0e731)" style="isolation:isolate"/></g></g></g></svg>