<svg xmlns="http://www.w3.org/2000/svg" xmlns:xlink="http://www.w3.org/1999/xlink" viewBox="0 0 179.579 250.446"><defs><pattern id="be0d5642-5289-4e2e-aaf2-4cc1a9b175b6" data-name="pattern17610" width="595.276" height="841.89" patternTransform="matrix(0.8, 0, 0, -0.8, -615.4, 967.046)" patternUnits="userSpaceOnUse" viewBox="0 0 595.276 841.89"><rect width="595.276" height="841.89" fill="none"/></pattern></defs><title>KD</title><g id="ef0a6e80-56e2-49b3-9ca8-383e86b35510" data-name="Layer 2"><g id="3d391e57-a7b3-4f9c-892a-49d31b534703" data-name="Diamonds"><g id="fcb88a2f-4819-4bbf-af06-35e8581a6c23" data-name="KQ"><g id="cdc0b690-1c18-483b-afb4-c1e91fa09c0e" data-name="g101320"><rect id="78d7e2a1-bd20-4037-9f99-57cceac38f31" data-name="rect6266" x="0.498" y="0.498" width="178.583" height="249.449" rx="8.504" ry="8.504" fill="#fff" stroke="#000" stroke-width="0.997"/><path id="95e16c2a-f6ba-47b2-af36-0b0b0f566680" data-name="path6351-0" d="M24.494,19.961c.068,63.5-.047,141.365,0,210.524H155.1V19.961Zm38.225,1.2c22.54.615,45.219-.05,67.926.128,0,0-8.249,14.451-10.75,19-.547,1-.6,1.708-.308,2.123a2.1,2.1,0,0,1-.093,2.355,1.258,1.258,0,0,0-.335.6c-.016.161.127.337.243.628.4,1.385-.638,2.344-1.729,2.789a10.458,10.458,0,0,1-3.563.437c-7.536-.359-22.314-6.763-28.4-7.262-4.226-1.187-9.686-.772-14.187-.516-.849.052-.7-1.94-.7-1.94-.709-6.579-5.343-12.307-8.1-18.345Zm69.151.724h21.559v3.358L144.3,34.477c-.844.864-1.51,1.58-1.51,1.58l-.053,8.336c-6.11-3.3-7.328-7.246-8.444-11.586-10.213,7.578-10.691,24.16.459,32.7.091-3.708,2.9-11,7.881-11.536l.069,28.885-6.124-6.015-13.316.174c2.195-3.582,2.245-6.427.824-9.785-2.394-5.485-6.088-18.007-5.8-17.965a.6.6,0,0,1,.408-.337,2.044,2.044,0,0,0,1.491-2.607c-.06-.415-.058-.317.223-.856a4.017,4.017,0,0,0-.208-3.877Zm-70.646,0,7.993,14.58a5.263,5.263,0,0,0-.062,1.057,3.775,3.775,0,0,0,.57,1.589,3.214,3.214,0,0,1,.416,1.259c.08.721.08.721,1.129,1.673.22.2.263.323.181.531-.347.882-.144,2.687.543,4.841.868,2.722,1.092,2.686-.524,6.326-.337.76-.744,1.775-1.182,2.708-1.995,4.119-2.3,5.237,1.121,7.433a1.909,1.909,0,0,1,1,2.386c-.19.969-.228,1.588.235,2.134.3.354.572.413.5.686a4.909,4.909,0,0,0-.2,1.669c.2,1.826-1.895,4.516-3.809,5.458-.383.273-.492-.06-.709-.441-1.983-3.492-6.917-2.077-7.245,2.087-.087,1.1-.053,1.579-.335,1.813a4.1,4.1,0,0,1-.385.244s-7.386,4.831-12.084,7.313a5.1,5.1,0,0,1-.8.473.589.589,0,0,1-.589-.151c-1.734-3.317-.773-7.234-.624-8.622-.038-.492-.456-.582-1.086-.589a3.67,3.67,0,0,0-2.939,2.091c-.284.863-.467,1.422-.725,1.418s-.385-.352-1.028-1.6a17.746,17.746,0,0,0-2.8-4.419c-1-1.2-1.849-1.359-2.827-.465-.68.621-.657.081-1.236-.233-1-.684-2.5-.071-2.538.891-.032.808-.038,1.415-.852,1.468-.906.06-1.3,1.236-1.043,2.913.134.883.16,1.025-.108,1.348a2.836,2.836,0,0,0-.509,3.258c1.374,4.2,3.365,7.027,5.235,10.846,0,0-4.617,2.712-7.438,4.288V21.88Zm92.347,4.2.112,67.88-10.2-10.083s-.2-13.008-.189-18.326.087-10.635.065-11.624.053-5.2.085-9.518c.067-9.05-.756-7.932.917-9.668Zm-19.933,8.138.563,1.639c-4.275,2.464-9.5,16.187.1,26.262L134.1,64.2C124.042,55.02,125.9,41.858,133.638,34.221Zm.732,1.937c1.467,3.044,3.136,5.74,5.412,7.391a11.92,11.92,0,0,0,.323,10.563c-1.456.8-3.479,2.936-5.573,7.305-7.575-7.695-5.889-18.853-.162-25.259ZM78.014,41.91a44.418,44.418,0,0,1,12.6,1.914C93.147,56.7,97.6,65.361,97.577,70.4a3.17,3.17,0,0,1-1.1-.6,4.019,4.019,0,0,0-5.52,1.1c-1.22,1.6.009,3.833-.616,4.769-1.184,1.743-4.228,4.968-4.738,4.861-.371-.078-.311-.241.994-2.255,1.359-2.1,2.4-4,1.953-4.462-.191-.2-.292.22-1.306,1.991-2.381,4.158-4.475,6.73-5.3,6.395-.388-.156-.187-.5,1.575-2.843,1.992-2.645,2.544-4.3,2.346-5.032-.152-.562-.46.347-1.286,1.972a55.116,55.116,0,0,1-3.76,5.477,3.379,3.379,0,0,1-1.6,1.356,4.37,4.37,0,0,1-1.749.511c-.236-.03-.073-.17.251-.488a30.356,30.356,0,0,0,5.962-8.378c.192-.369-.083-.9-.4-.508-1.9,3.363-4.546,7.558-7.419,9.409a4.093,4.093,0,0,1-2.38.663c-1.415-.041-.915-.358.373-1.19,2.757-1.78,6.625-6.9,7.249-8.711.148-.428-.017-.673-.289-.643-2.268,3.648-5.264,7.663-8.747,9.343-1.877.905-4.244,1.083-5.408.511-.853-.419-.639-.564.874-.662,3.642-.361,7.909-3.8,10.023-7.437,1.237-2.015.369-1.552-1.044.391-2.412,3.316-7.2,6.495-10.169,6.244-3-.179-4.73-2.519-4.345-4.524a3.465,3.465,0,0,1,2.77-2.805c2.876-.607,4.758,3.974,2.126,4.838-.9.294-1.237.071-.913-.29a1.806,1.806,0,0,0-.562-3.459,2.039,2.039,0,0,0-2.288,2.165c.03,1.2,1.016,2.381,2.993,2.409,2.344.034,5.941-1.663,8.123-4.787,1.549-2.388.123-1.582-1.032.011a13.741,13.741,0,0,1-4.56,3.3l.111-1.619c.051.28,5.067-3.174,4.773-5.744-.188-1.866.083-2.437,2.014-2.413,1.444.017,3.28.526,3.813,1.193.55.659,1.167.867.894-.244-.443-1.8.088-2.1-.951-1.759-.717.236-1.354-.343-2.073-.856a4.706,4.706,0,0,0-2.985-.763c-.892.032-1.294-.022-1.152-.868a2.943,2.943,0,0,0,.043-1.53c-.28-.636-1.4-1.293-2.658-2.227-1.49-1.1-1.214-1.168,1.961-8.526,1.332-3.089,1.338-3.723.539-6-1.263-3.6-1.462-5.047.905-5.55a35.5,35.5,0,0,1,4.121-.229ZM91.453,44l1.229.352c.009,0,3.836,13.173,6.028,19.6a27.785,27.785,0,0,1,1.306,7.1c-.06,3.43-1.981,5.89-4.322,6.159a4.17,4.17,0,0,1-4.279-2.529,3.328,3.328,0,0,1,1.829-4.563c3.464-1.243,6,3.2,2.6,4.571-1.757.707-3.426-.568-2.635-2.053a1.371,1.371,0,0,1,2.485.147c.3,1.144.8.6.585-.171a2.053,2.053,0,0,0-4.052.388c0,2.818,3.069,3.481,4.9,1.9,1.418-1.265,1.567-3.552,1.213-5.536-.487-4.12-2.806-9.464-4.453-15.563A83.981,83.981,0,0,1,91.453,44Zm48.891.147,2.307.918-.053,7.646-1.957.678c-2.56-3.934-.431-9.238-.3-9.242Zm-46.765.5,1.691.655c.926,5.4,5.293,15.715,6.833,23.415.43,4.628.5,5.986-2.619,8.452v-.035H97.8s-.008-.1.732-.658c4.083-3.071,1.646-9.837.1-15.037-2.686-8.306-5.087-16.8-5.054-16.792Zm-15.8.538c-.214,0-.431.012-.651.024-2.55.137-2.969.3-2.977.859-.015,1.051.413,1.517,2.785,1.259a15.683,15.683,0,0,1,7.076.984c2.337,1.012,2.892,1.25,3.732,1.685,2.109,1.092,1.741.006-.165-1.255-3.895-2.575-6.586-3.595-9.8-3.556Zm18.4.372,1.587.608s.42,1.244.57,1.956c1.545,6.891,5.745,14.639,6.236,22.7.111,2.642-.339,5.1-2.264,6.3h-1.453c1.553-1.553,2.588-2,2.154-7.4C102.318,62.779,97.771,54.118,96.175,45.551Zm2.816,1.12,1.464.542c1.685,9.305,10.041,23.207,4.722,29.915h-1.329a8.891,8.891,0,0,0,1.5-6.008c-.517-8.454-4.806-16.66-6.355-24.449Zm2.453.856,1.576.484c2.139,9.427,10.358,24.876,4.5,29.148l-1.156-.031c4.415-8.3-2.277-16.886-4.919-29.6Zm2.747.879a8.6,8.6,0,0,0,1.7.554c1.658,7.128,4.688,14.138,6.067,20.778.464,3.634-.329,6.356-2.6,7.39h-.485c2.037-3.094,1.653-7,.566-11.214-1.463-5.671-4.3-11.911-5.25-17.508ZM79.37,48.53a7.3,7.3,0,0,0-2.308.364c-.829.315-.727.973.043.837.261-.046.722-.129,1.028-.182,1.89-.332,4.219.353,7.042,2.072.681.415,1.422.815,1.606.953.518.389,1.071.387.882-.109a8.656,8.656,0,0,0-2.126-1.588c-2.058-1.251-3.971-2.326-6.167-2.347Zm27.5.62,1.587.244c2.985,13.8,9.537,22.367,3.932,27.486h-1.4a7.814,7.814,0,0,0,1.718-6.957c-.519-2.975-2.048-7.7-3.316-11.853-1.47-4.815-2.654-8.886-2.519-8.92Zm2.276.387,1.344.252c1.575,5.608,4.249,12.559,5.859,18.349.99,3.56.592,7.946-1.618,8.754l-1.136.019c1.876-2.52,2.143-5.146,1.286-8.541C113.121,61.4,110.459,55.319,109.144,49.537Zm8.3.008A170.163,170.163,0,0,0,123.23,67.29c1.559,3.127,1.091,7.758-1.252,9.591l-1.109.023c1.34-1.26,1.8-3.382,1.587-5.582-.6-6.216-4.979-14.837-6.563-21.459Zm-5.9.275,1.387.128c1.388,6.081,4.089,11.992,5.843,18.074a14.788,14.788,0,0,1,.5,4.284c-.24,2.588-1.306,4.629-2.242,4.629h-.955c1.951-2.338,1.855-5.526,1.02-8.952C115.714,62.32,112.376,55.493,111.544,49.82Zm-36.1.031c-.578,0-.588.535.335,1.348.565.5.521.332.489.647-.137,1.347.074,2.579.624,1.193.147-.37.362-.788.578-.736.407.126.2.878.4,1.259.332.671-.021.835-.829.627-.581-.149-.614.167-.974.57-.631.7-.528,1.125.443.906a.882.882,0,0,1,.42.039,3.872,3.872,0,0,1,1.3.817,9.494,9.494,0,0,0,3.093,1.8c1.364.232,1.06-.425-.058-.856a4.564,4.564,0,0,1-2.142-1.677c0-.218.3-.089,2.03-.566a17.377,17.377,0,0,0,2.246-.875,2.914,2.914,0,0,1,1.914-.3c1.954.059,2.252-.008.882-1.03-2.768-2.066-6.461-3.41-8.42-2.553-.593.26-.58.1-1.009-.147a2.9,2.9,0,0,0-1.321-.469Zm39.619.186c1.919,7.432,5.631,14.092,6.533,21.142a6.664,6.664,0,0,1-1.8,5.69l-1.124.019c-.165,0,1.57-2.7,1.421-5a13.176,13.176,0,0,0-.439-3.858c-2.18-6.268-4.327-11.949-5.993-17.923ZM80.535,52.494c.437.08.441.292.3.549-.225.406-.624,1.185-.624,1.185s-.53.1-.639-.031c-.18-.263.432-1.523.783-1.7a.254.254,0,0,1,.182,0Zm1.208.223a.767.767,0,0,1,.242.074c.5.2,1.375.609,1,.926a3.457,3.457,0,0,1-2.092.387l.578-1.073c.123-.228.177-.312.274-.313Zm-5.3,6.5a.251.251,0,0,0-.111.031c-.1.061.126.465.458.922,1.53,2.076-.588,2.692-2.088,1.581-1.424-1.114-3.622-1.009-3.3.158.112.412,0,.612.8.624a2.077,2.077,0,0,1,1.525.488c2.435,1.675,5.581-.567,4.044-2.971a2.034,2.034,0,0,0-1.321-.833Zm6.009,3.243c-.884,0-1.442.663-.335.861,3.955.714,1.3,4.839-1.487,2.714-2.514-2.282-5.876-2.266-5.916-.647-.008.407.013.421.608.534a21.621,21.621,0,0,1,4.3,1.314,9.293,9.293,0,0,0,1.1.5c1.675.613,3.823-.183,4.249-1.6.389-1.3.075-3.669-2.516-3.669ZM32.84,75.726a2.031,2.031,0,0,1,1.495,1.155c.928,1.576,2.057,4.225,2.777,5.686a1.726,1.726,0,0,1,.177.871c.057.857.342,1.18.847.8s1.187-1.014.378-1.116c-.814-.616-1.267-1.521-.763-2.072.371-.406.225-.669-.073-.686-1.14-.017-2.838-3.426-2.038-4.16,1.08-.991,2.276.236,4.819,5.31,1.121,2.241,1.173,4.694.212,3.479-.327-.306-.261-.148-.644.817a5.255,5.255,0,0,1-1.621,2.131,10.924,10.924,0,0,0-2.177,2.537c-.057.428.722.028,1.291-.717,1.27-1.247,1.317-1.58,1.306.074-.011,1.5-.087,1.769.181,1.758.417-.015.64-1.2.836-2.626a3.726,3.726,0,0,1,2-2.649c.3-.2.309-.332.251-.9-.2-1.816.823-5.2,1.29-4.365.066.188.269.629.378.937.087.478.386,1.017.843,1.054.568.427.566.658.763,2.223a8.651,8.651,0,0,0,.447,1.685c.293.759.556,1.2.393,1.429-.1.112-.324.322-.324.322l-9.26,5.52s-.727.4-.99.515a1.081,1.081,0,0,1-1.54-.465,63.566,63.566,0,0,1-4.688-9.285c-.828-1.807-.017-3,1.052-1.545.415.566.2.927,0,2.022-.038.2.145.122.489.178.541-.059.8.427.782,1.251-.342,1.181.13.543.354.484.428.006.523.265.763.755.15.692.452.492.894.035.364-.377.366-.368-.37-1.251a18.627,18.627,0,0,1-3.49-6.414,2.224,2.224,0,0,1,.015-1.224c.574-1.3,1.374-1.305,2.246.511a9.989,9.989,0,0,0,.647,1.108,2.547,2.547,0,0,1,.531,1.681c-.258.649-.3.662-.077.751a3.01,3.01,0,0,1,1.58,2.123c.044.913.2,1.4.913.856.814-.618.467-.866-.336-1.658-.841-1.007-.891-1.88-.392-2.607.081-.244.047-.313-.262-.283A1.379,1.379,0,0,1,33.5,79.662c.312-.555.276-.7-.166-.713a2.121,2.121,0,0,1-.8-.07,5.037,5.037,0,0,1-.886-1.929c.285-.876.726-1.229,1.194-1.224Zm58.035.047a18.869,18.869,0,0,0,5,2.49A27.589,27.589,0,0,1,79.347,91.476a3.359,3.359,0,0,0,1.259,2.529,10.911,10.911,0,0,1-.354-2.219C88,89.8,94.823,82.161,96.568,78.225l34.058-.372c-25.248,24.356-26.255,58.635-5.655,87.367l-2.369,1.391c-15.873-23.911-15.712-46.948-10.951-62.376a61.959,61.959,0,0,1,14.036-24.07s-18.465-.255-27.656.086a39.456,39.456,0,0,1-4.371,5.67s4.669-4.535,4.549-5.322c8.517-.005,17.3-.5,25.807.1-9.954,11.98-14.86,24.347-15.712,35.981-.032,1.513-.122.668-.62,1.224l-1.571,2.452-1.26-2.549c-.856-.278-2.54.171-3.255-.089-3.5,15.711.037,34.674,4.646,47.048a5.019,5.019,0,0,1-2.581.543c-1.558-.348-1.939.084-3.289.36-1.553.3-2.095.3-2.439.689a3.62,3.62,0,0,1-.928.74c-3.782,1.382-8.22,6.562-8.22,6.488l-4.164-1.878c3.837-7.577,8.34-10.3,16.255-13.666l-.736-3.386c-8.43,3.158-13.8,6.939-18.026,14.286-5.134-.073-25.928-.221-25.95-.155,8.482-9.7,15.169-24.33,15.9-35.737.18-2.222-.129-1.154.848-1.817l1.537-1.84,1.205,1.813s.873,1.118,1.426.186c1.546-15.907-.09-34.045-7.712-46.688a6.521,6.521,0,0,1,3.995.643,81.131,81.131,0,0,1,5.5,21.463,103.424,103.424,0,0,1-.154,24.555l.508.07a103.054,103.054,0,0,0-.381-29.648A75.912,75.912,0,0,0,74.335,86c-.428-.958-.76-1.206-.354-1.348,9.288-.786,13.557-3.9,16.894-8.878Zm-25.753.836A1.294,1.294,0,1,1,63.835,77.9,1.291,1.291,0,0,1,65.122,76.609Zm69.81.659a76.914,76.914,0,0,0-7.2,7.774c6.792,9.393,14.341,19.576,20.688,27.711a16.543,16.543,0,0,0,2.188-1.472c-.008-.085-.175-.518-.216-.422a11.035,11.035,0,0,1-1.779,1.174L128.527,85.522s1.089-1.311,1.425-1.723c1.561-.516,5.9-5.926,6.117-5.814,3.4,2.621,13.665,13.733,17.618,17.14l.05,30.845c-.409,1.234-11.35,5.99-19.078,23.733-3.885,2.19-8.191,3.368-12.194,5.272a15.207,15.207,0,0,0,1.517,2.053c-.612-1.329-.72-1.583.667-2.15l28.915-11.853-.054,2.394c-2.9,2.255-22.074,16.2-27.972,19.5-27.667-38.791-10.03-71.962,6.094-87.473Zm-90.1,2.1c.754.012.564,1.773.284,2.382-.557.44-1.113.049-1.1-.775a.948.948,0,0,0-.116-.566c-.418-.268.282-1.051.933-1.041Zm16.9,1.1a3.508,3.508,0,0,1,1.106,1.778c-.858-.136-3.153-.8-2.076-1.314Zm-4.179,2.289c19.955,30.348,19.062,62.582-3.209,87.015l28.176-.043c3.587-7.117,9.562-11.454,17.206-14.127l.667,2.235c-8.786,2.837-13.232,7.539-16.767,14.054h-33.6c12.91-13.97,18.825-25.77,19.756-41.734.886-15.2-2.96-29.087-14.641-45.793Zm5.624.348,4.707,2.235-.7,4.858-4.93-2.286Zm-8.486,1.364c25.167,38.285,14.373,65.215-5.72,87.627l-3.7.062-8.628-8.061.158,48.981s-8.413,8.287-9.38,9.281c-.954.924-1.671-.5-1.671-.5l.023-64.932.374-2.545.115-13.991,5.362-2.843,20.106,26.5a7.292,7.292,0,0,1-1.182,1.409c.429.965,1.854-1.44,1.976-1.828-7.294-9.087-20.854-26.878-20.854-26.878l-5.646,2.963s.163-11.616.061-16.075c.217-1.052,1-.77,1.529-1.24,7.344-4.8,13.4-11.688,18.547-23.446,3.912-1.281,8.019-3.1,11.948-4.734L52.45,85.681Zm-15.423.488a3.054,3.054,0,0,0-1.483.91c-1.348,1.231-3.125,3.253-3.131,3.637.362.132.682-.077.971-.371,1.128-1.675,2.872-2.33,3.894-3.8.159-.272-.009-.383-.25-.38Zm12.677,1.778s3.9,5.72,4.9,7.24c-10.289,4.1-21.055,9.507-30.591,13.007v-2.293S44.166,91.182,51.945,86.731Zm15.307,3.78,3.848,2-1.087,4.366-3.882-2.185Zm3.174,7.263,3.162,2.317-1.445,3.7-3.185-2.2Zm-25.8,2.716a18.913,18.913,0,0,1-1.3,3.253c-3.914,6.838-7.743,12.914-15.654,18.191a14.182,14.182,0,0,1-1.163-1.786l-.077-2.026c4.194-3.388,7.814-5.876,13.369-15.819l1.61-.659,1.372.6.928-1.666Zm16.459.015c-3.646,7.779-7.233,15.8-13.042,21.862l15.9,22.316c5.231-15.756,3.289-30.523-2.854-44.178Zm-20,1.7-.763,1.328,1.321.767.763-1.328Zm-2.157.143a33.383,33.383,0,0,1-12.877,15.041l-.219-9.5Zm1.013,1.933-.763,1.329,1.321.767.763-1.329Zm32.49.279,2.865,2.735-1.7,3.017-2.939-2.444Zm43.9,1.344-.008.008c-5.036,15.742-3.524,30.779,3.386,43.868A91.437,91.437,0,0,1,132.5,126.582c-4.076-5.366-15.76-20.851-16.17-20.681Zm-77.517.252-.8,1.3,1.3.806.8-1.3Zm21.975,1.836a43.246,43.246,0,0,1,1.725,29.284L51.17,122.867A104.353,104.353,0,0,0,60.785,107.989Zm-23.146.039-.859,1.266,1.26.868.859-1.271Zm-1.267,1.812-.94,1.213,1.2.945.94-1.212Zm37.358,1.29,2.57,2.452-1.622,3.18-2.608-2.4Zm-38.841.6-.986,1.166,1.159.991.986-1.166Zm82.829.345,11.44,14.843a77.744,77.744,0,0,0-9.849,15.792C116.122,132.664,114.683,122.8,117.718,112.072Zm-84.435,1.5-1.056,1.108,1.1,1.062,1.055-1.108Zm26.724,1.484-5.235,7.612,6,7.7A37.393,37.393,0,0,0,60.007,115.058Zm-28.431.248-1.124,1.038,1.032,1.131,1.125-1.038Zm-1.652,1.484-1.186.968.963,1.193,1.182-.968Zm44.708.786,2.149,2.525-2.18,2.6-2.041-2.309Zm27.325.453,1.46.054c-2.395,23.749,2.311,35.765,6.474,46.215,0,0-.009.419-.15.543a3.159,3.159,0,0,1-3.151-.485c-5.6-14.478-6.823-32.312-4.633-46.327ZM28,118.335l-1.236.9.893,1.243,1.237-.9Zm91.5.844c-.372,0-.694,9.771.7,14.542l5.265-7.174Zm-13.613,1.612,1.761,2.378-1.869,2.561-1.91-2.425Zm-79.312.647c.088-.014.233.233.516.43.263.276.225.256-.07.492-.46.369-.6.309-.589-.268.039-.474.074-.643.143-.654Zm48.163,1.785,1.945,2.8-2.153,2.785-1.841-2.932Zm30.995,3.549,2.049,2.51-1.76,2.754-2.238-2.63Zm47.447.53.181,2.894-.709-1.058-1.3,1,.909,1.212,1.137-.891.069,1.166c-7.217,5.245-10.329,11.269-13.258,15.788l-1.3.554-1.483-.472-.724,1.29-1.259.3a59.824,59.824,0,0,1,6.921-11.167,78.313,78.313,0,0,1,10.82-10.618Zm.836,4.528.061,10.289-12.915,5.017C144.512,141.392,148.465,136.062,154.014,131.83Zm-3.209-1.251-1.179.973,1.017,1.173,1.175-.972Zm-1.814,1.55-1.136,1.018,1.059,1.135,1.136-1.026Zm-43.129.569,2.435,2.607-1.784,3.079-2.534-2.444Zm41.3,1.1-1.067,1.1,1.168,1.127,1.067-1.1Zm-1.679,1.732-1.025,1.139,1.241,1.08,1.024-1.138Zm-1.687,1.94-.951,1.2,1.29,1,.951-1.2ZM106.7,139.31l3.043,1.987-1.487,3.641-3.039-2.328Zm35.621.016-.893,1.247,1.375.945.905-1.29Zm-1.375,1.967-.828,1.29,1.391.9.824-1.332Zm-1.228,1.949-.763,1.328,1.44.826.763-1.345Zm-1.11,2.014-.763,1.329,1.595.693.632-1.267Zm-30.26.821,3.117,2.123-1.379,3.815-3.29-2.339Zm45.082,3.754v78.638h-34.05s-1.6-2.848-4.961-9.407c-1.422-2.776-2.623-3.956-2.747-6.155a3.549,3.549,0,0,0-1.517-3.346c-.354-.2-.945.041-.748-.512.218-.608-.449-1.544-.631-1.743-.208-.352-.079-.437-.1-1.747a8.968,8.968,0,0,0-.359-2.75c-.681-2.414-.833-3.621-.443-4.873a70.034,70.034,0,0,1,3.436-8.572c.795-1.733.674-2.41-1.764-3.668-1.825-.942-2.067-.933-1.837-2.309a2.708,2.708,0,0,0,.073-1.363,2.407,2.407,0,0,0-.562-.608c-.239-.2-.167-.628.076-.942s.241-.748,0-1.483c-.5-1.546.63-3.594,2.762-5.009.942-.625.916-.5,1.9.543,2.873,3.034,7.141,1.127,7.149-3.15,0-1.333-.449-1.253.805-1.882,4.25-2.72,12.973-7.666,12.915-7.53a19,19,0,0,1,1.117,3.412c.31,1.075.27,1.158.154,3.25-.1,1.891-.161,2.331.281,2.452,2.518.279,3.092-.617,3.575-2.25.208-.722.61-.576.859-.272.958,1.753,2.169,3.577,2.966,4.823.994,1.591,2.67,2.383,3.547,1.631.185-.619.337-.638,1.448-.384a1.678,1.678,0,0,0,2.246-1.448c.052-.4-.237-.382.485-.775,1.791-1.333,1.108-3.153.84-4.249a1.628,1.628,0,0,0,.782-1.48c.085-5.328-4.506-13-4.4-12.8ZM110.215,152.9l3.643,1.77L113,159.046l-3.744-1.693Zm35.455,1.626c2.1,2.447,3.617,6.527,4.4,9.185.387,1.323.434,2.834.089,3.044s-.5-.015-.436-.8c.054-.659.073-1.17-.208-1.163-.814.212-.846-1.029-.762-1.32a2.918,2.918,0,0,1,.2-.438c.2-.481-.323-.416-.867-.422-.48.011-.6-.282-.581-.74-.014-.508-.683-.409-1.063-.023-.348.352-.275.767.2,1.057.677.417,1.316,1.441,2.893,4.974.915,2.05.644,3.506-.447,3.49-.756-.023-1.638-2.106-2.35-3.641-.184-.4.277-.84.439-1.054.419-.552.355-.727-.265-.736-.582-.009-.829.043-1.179-.678a1.814,1.814,0,0,1-.181-.949c.3-.8-.316-.987-.913-.682-.753.316-.747.991.4,2.1.739,1.219.546,1.135-.155,1.956-.146.29-.058.468.251.473.888-.273,1.855,1.335,1.591,1.886-.272.237-1.016,1.095-.3.93,1.462-.4,2.352,1.753,1.491,2.483-1.285.647-1.589.445-3.567-3.529-.614-1.234-1.354-2.56-1.444-2.7a1.819,1.819,0,0,1-.128-.794c.087-.719-.218-.882-.839-.6-.467.113-.887.5-.3.864.69,1.2.934,1.389.555,1.693-.862.69-.488.663.478.856a1.226,1.226,0,0,1,.843.682c.5,1.127,1.384,2.716,1.471,3.04.293.827-.236,1.2-.959,1.162-.757.019-1.1-.583-1.471-1.1-1.376-1.923-2.367-3.828-3.771-6.012l.189-2.041a1.124,1.124,0,0,0,.574-.019c.4-.2.644-.833.874-1.681.369-.738,2.548-2.415,3.382-3.316a.617.617,0,0,0,.285-.372c-.008-.33-.945-.109-1.564.6-.909.812-1.3.533-1.267-.5-.09-1.28-.866-.639-.905.612a2.839,2.839,0,0,1-1.129,2.142c-1.3,1.043-1.081.779-1.021,2.227.1,2.526-.864,4.6-1.5,3.227-.225-.489-.489-1.045-1.055-1.069-.4-.018-.6-.414-.821-1.391-.328-1.581-.787-2.6-1.2-4.056Zm-32.3,5.443,4.2,1.681-.786,4.416-4.16-1.6Zm32.012.406a.312.312,0,0,0-.1.024,40.33,40.33,0,0,1-3.563,2.68,2.812,2.812,0,0,0-1.051,1.228c0,.194.574.189,1.136-.058a20.923,20.923,0,0,0,3.582-3.374c.21-.232.19-.512-.008-.5Zm-38.552,5.361c.993,0,.413.294-1.753,1.806-2.114,1.475-5.6,6.14-6,7.871-.183.786.312.847.871-.233,2.567-4.963,7.424-9.5,11.871-9.3,2.179.1,3.355.689,1.552.949-4.943.61-8.637,3.445-11.871,9.095,0,.126.293.12.632-.1,2.96-3.639,6.294-8.459,12.152-8.069,4.226.256,5.427,5.31,1.919,7.035-3.058,1.5-5.878-2.159-3.344-4.331.823-.705,1.337-.4.547.325-1.7,1.548.383,4.305,2.45,3.258a2.365,2.365,0,0,0,.658-3.707c-2.465-3.04-7.777-.728-11.478,4.184-.388.516-.724,1.639-.4,1.518a2.87,2.87,0,0,0,1.26-1.2,11.148,11.148,0,0,1,4.125-3.757c1.382-.765,1.467-.622.952.7a1.872,1.872,0,0,1-.929,1.092c-2.253,1.548-3.653,3.622-3.709,4.943-.041.964.661,2.224-.1,2.483-1.291.613-4.812.113-5.763-1.108-.683-.878-.948-.37-.435,1.057.339.943.324,1.475.836,1.379.647-.344,1.091-.263,2.346.426a10.793,10.793,0,0,0,2.33.794c1.191.277,1.44.16,1.414.678-.008.159.046.606.011.887-.194,1.562,1.1,2.092,2.869,3.119,1.033.6.625,1.216-.57,4.187-.621,1.344-1.151,3.152-1.918,4.516a7.54,7.54,0,0,0-.316,5.125c.857,3.551,1.474,5.355-.054,5.675-3.931.6-12.615.574-17.356-1.259-1.212-9.151-7.638-22.729-6.813-26.239,1.644,2.493,8.54,1.833,6.463-5.137a15.33,15.33,0,0,1,1.687-1.995c2.894-2.952,3.608-3.44,2.234-.84a35.389,35.389,0,0,0-2.434,5.113c-.024.4.288.5.531.174a8.067,8.067,0,0,0,.582-1.259c1.724-4.061,4.673-7.721,6.706-8.6.523-.227.5.015.134.461a31.61,31.61,0,0,0-5.515,9.37.333.333,0,0,0,.635.175c2.243-4.727,2.914-5.8,5.67-9.13,1.083-1.309,2.091-1.97,2.9-1.9.7.062.49.177-.155.867a36.3,36.3,0,0,0-2.395,2.751c-2.075,2.625-4.162,6.9-3.394,6.674.133.355.787-.78,1.341-1.864,1.516-2.56,3.126-5.943,6.728-8.167a6.367,6.367,0,0,1,2.3-.5Zm-69.648.826,6.413,6.445,12.9-.166c-2.127,3.324-.991,8.477.181,11.488,2.3,5.9,5.667,15.651,5.42,15.793,0,0-1.876.485-2.045,1.681-.252,1.773.513,1.641-.59,3.242a1.793,1.793,0,0,0,.177,1.58,1.5,1.5,0,0,1,.016,1.457L48.277,228.469h-21.8v-3.953L37.5,213.508l-.131-8.1c5.9,1.763,7.922,7.882,8.428,12.415,10.652-9.776,10.389-24.494.323-33.727-1.962,9.759-8.99,11.787-8.836,11.593Zm80.221,1.158a6.024,6.024,0,0,1,2.253.5,4.379,4.379,0,0,0-1.016.88A6.257,6.257,0,0,0,117.406,167.719Zm17.88.069c.574,0,1.279,1.689.874,2.084a1.379,1.379,0,0,1-1.232.14C134.589,169.759,134.762,167.79,135.286,167.788Zm-20.345,2.933a1.348,1.348,0,1,1-1.34,1.348A1.344,1.344,0,0,1,114.941,170.721Zm-56.733,1.921.967.023c-1.758,2.363-1.995,4.4-1.372,7.344.7,3.317,6.045,15.784,6.39,19.217.016.155.032.593.032.593l-1.314.089s-.1-.355-.138-.492c-1.838-6.216-3.668-10.957-4.946-14.58-1.274-3.908-3.224-9.7.381-12.194Zm7.064.023a.053.053,0,0,1,.023,0l.929.008a16.343,16.343,0,0,0-1.483,4.7,18.769,18.769,0,0,0,1.032,6.341c1.56,4.66,3.843,9.851,5.111,15.734.015.068.154.639.154.639l-1.375-.186s-.135-.6-.15-.685c-.95-5.175-3.6-10.549-5.177-15.642a17.366,17.366,0,0,1-1.082-7.336,6.757,6.757,0,0,1,2.018-3.579Zm11.228.012a11.275,11.275,0,0,0-1.941,4.954,22.3,22.3,0,0,0,1.564,7.635A141.55,141.55,0,0,1,81.072,203l-1.325-.57s-.051-.343-.081-.441c-.708-3.824-.752-3.49-4.911-16.35-.974-3.087-1.9-5.793-1.721-8.363.041-1.464,1.311-4.363,2.65-4.594Zm1.591,0h1.236s-.681.725-.878,1c-2.16,3.013-1.535,6.245-.462,10.1,1.475,5.3,4.2,11.231,5.631,19.313.026.15,0,.93,0,.93l-1.471-.6c-1.337-7.41-4.635-15.093-6.225-21.757-.934-3.914-.669-6.387,1.491-8.518a3.355,3.355,0,0,1,.678-.465ZM63,172.72h.925s-1.546,2.552-1.545,4.055c-.258,2.69.71,5.663,1.822,8.778,1.709,4.787,3.967,10.576,4.661,13.623.027.119.119.666.119.666l-1.614-.085a9.74,9.74,0,0,0-.181-1.077c-1.863-6.552-3.677-10.79-5.816-16.772a15.579,15.579,0,0,1-.231-6.806A3.535,3.535,0,0,1,63,172.72Zm-2.477,0,1,.027s-.15.272-.531.929c-1.821,3.315-1.005,6.34.123,9.711,1.505,4.5,3.867,9.991,5.342,15.188.083.293.2,1.178.2,1.178l-1.441-.019s-.293-1.059-.312-1.174c-.81-4.818-5.189-12.849-6.328-18.961C57.949,176.324,58.486,174.294,60.526,172.724Zm13.362,0A15.352,15.352,0,0,0,72.17,177c-.282,3,.664,5.478,1.745,8.859,1.866,5.832,4.5,12.676,4.734,15.8.008.1.047.484.047.484l-1.622-.581s-.073-.326-.1-.442c-1.413-5.66-3.084-11.3-5.331-17.651-.554-2.144-1.281-4.3-1.217-6.144a6.186,6.186,0,0,1,2.2-4.582Zm7.134,0,1.306.027a6.7,6.7,0,0,0-1.321,1.208c-5.152,4.734,3.206,18.1,5.134,30.268.021.13.081.589.081.589l-1.437-.519c-.136-.606-.238-1.344-.4-2.007-1.562-6.22-3.646-12.617-5.558-18.418-1.073-4.228-1.465-7.951.462-10.033a4.618,4.618,0,0,1,1.737-1.115Zm-13.431.008,1.39.038a8.93,8.93,0,0,0-1.648,5A19.012,19.012,0,0,0,68.511,184c1.4,4.381,3.386,9.144,4.753,15.056.077.392.142.643.178.813a6.768,6.768,0,0,0,.211.7l-1.467-.295s-.152-.383-.251-.585a6.275,6.275,0,0,1-.4-1.15c-.711-3.084-3.326-10.083-4.919-14.991-1.263-3.092-1.607-8.5.979-10.818Zm17.36.054a4.061,4.061,0,0,1,3.767,2.878,3.476,3.476,0,0,1-1.76,4.067c-2.687,1.368-5.58-2.272-3.459-4.276,1.607-1.519,3.984-.4,3.466,1.549a1.335,1.335,0,0,1-2.557.07c-.087-.425-.3-.85-.451-.616-.988,2.333,2.334,3.426,3.713,1.255a2.633,2.633,0,0,0-3.031-3.556c-3.143.584-3.5,4.595-2.2,9.273,1.821,7.4,6.163,17.34,6.156,21.905,0,.06.015.248.015.248l-1.379-.415-.019-.143c-.827-6.376-5.536-16.932-6.887-25.046-.585-3.7.848-6.385,4.071-7.12a3.05,3.05,0,0,1,.555-.073Zm-13.635.058a8.985,8.985,0,0,0-1.63,4.648,22.115,22.115,0,0,0,1.3,6.159c1.524,5.253,5.084,14.952,4.954,16.769.036.195.134.8.134.8l-1.375-.41a2.718,2.718,0,0,1-.158-.337c-.458-1.8-2.638-9.528-5.08-16.207a18.452,18.452,0,0,1-1.333-6.558,7.664,7.664,0,0,1,1.968-4.85ZM97.5,181.556c-3.564.2-3.221,4.574-1.013,5.314.79.219,1.254.03,1.379-.143.143-.2-.017-.5-.535-.574-1.5-.494-2.034-2.268-.681-3.012.739-.39,1.919-.139,3.342.921,2.543,1.894,5.661,2.013,5.254.1-.1-.465-.3-.528-2.161-.783a6.921,6.921,0,0,1-2.854-1.046A5.477,5.477,0,0,0,97.5,181.556Zm-51.029,4.063c9.209,9.044,7.844,23.218-.023,30.314-.162-.573-.505-1.976-.543-1.937,5.916-6.19,8.7-16.338.139-26.739a16.642,16.642,0,0,0,.427-1.638Zm57.712.24a.773.773,0,0,0-.231.035c-2.385.656-2.879,3.026-1.333,4,.948.6,1.676.232.5-.492a1.222,1.222,0,0,1,.712-2.231c.536.008.9.242,2.262,1.251,1.12.831,2.175.9,2.415-.228.143-.672-.081-.97-.794-.794-.315.078-.5-.108-.928-.407a5.51,5.51,0,0,0-2.6-1.135ZM45.52,187.633c8.3,9.688,5.636,19.793.038,25.713a17.188,17.188,0,0,0-5.3-7.406c1.42-3.168,2.266-6.475-.389-10.653A20.57,20.57,0,0,0,45.52,187.633Zm53.929,3.537c-.389-.007-.263.37.655,1.015,2.188,1.5,2.375,1.766.254,1.731a6.188,6.188,0,0,0-1.857.511c-2.767.929-2.9.855-4.225.543-.441-.1-.889-.29-1.082-.113-.3.274-.635.456-.258.864a6.706,6.706,0,0,0,1.406.883c3.213,1.852,3.5,2.295,7.284,2.394.432.012.654-.214.909-.217a1.962,1.962,0,0,1,1.563.717c1.142,1.048,1.2.286.516-1.089-.356-.721-.667-.892-.493-1.441.4-1.25-.169-1.5-.912-.391-.558.867-.621.847-1.148-.267-.7-1.392-.371-2.034.689-1.127.8.687,1.009.176,1.321-.368.411-.716.349-1.358-.385-1.3a1.41,1.41,0,0,1-1.148-.527,6.155,6.155,0,0,0-3.089-1.816Zm.909,3.765a.175.175,0,0,1,.177.132,5.343,5.343,0,0,1-.562,1.886c-.082.219-.223.246-.42.287-.662.123-.709-.083-.589-.5.243-.637.443-1.544,1.3-1.805a.535.535,0,0,1,.1,0Zm-1.683.317c.268-.019.277.093.169.337a6.331,6.331,0,0,1-.778,1.128c-.531.345-1.395-.711-1.013-.984a4.639,4.639,0,0,1,1.491-.465c.049-.008.092-.013.131-.016Zm-59.461.69a1.108,1.108,0,0,1,.439.093,8.556,8.556,0,0,1,.312,9.172.317.317,0,0,1-.431.136,11.946,11.946,0,0,0-2.161-.779v-7.983c.656-.14,1.222-.641,1.841-.639Zm52.932.651c-.154.007-.217.112-.023.313,2.928,2.132,6.959,4.6,10.677,3.645.341-.074.616-.262.551-.615-.041-.221-.419-.411-.829-.3a10.254,10.254,0,0,1-3.158.148c-2.557-.422-4.815-2.067-6.779-3.029a.726.726,0,0,0-.439-.159Zm-.855,2.033c-.131-.006-.121.126-.039.372.413,1.235,4.557,4.112,7.831,5.063,2.811.817,6.848.013,6.614-1.329-.123-.7-.634-.867-2.427-.639-3.949.772-7.75-.852-10.635-2.657A7.043,7.043,0,0,0,91.291,198.626ZM65.43,200.315a29.344,29.344,0,0,1,5.284.43,46.4,46.4,0,0,1,11.3,3.382c6,2.263,13.535,4.009,19.933,3.773a28.449,28.449,0,0,0,4.93-.272c1.426-.321,1.82-.016,2.161,1.763.06.387.179.5.674.837.758.515.631,1.026.539,2.165-.077.958.5,1.5,2.808,5.783,2.629,4.879,5.193,10.548,5.193,10.548-23.041-.016-45.023-.876-68.6-.14,2.12-5.055,7.9-14.172,11.523-21.489-.876-2.252.206-2.634-.248-3.168a2.288,2.288,0,0,1,1.347-3.4A30.67,30.67,0,0,1,65.43,200.315Z" fill="#131f67"/><path id="fff51fc7-894f-4a4d-ab51-61461545ae2f" data-name="path6353-8" d="M49.923,228.741s7.55-15.35,10.731-19.949c4.577-5.835,25.236,2.536,35.511,4.627,4.176.81,13.855.43,13.855.43l8.091,14.666ZM34.244,211.3l-.32-47.787L36.288,165l.542,48-10.217,9.838-.056-2.882Zm6.184-5.453c2.434-4.926-.283-10.941-.282-10.939,1.411.35,5.345-7.157,5.694-6.94,6.021,7.425,7.064,18.488-.292,25.344a19.459,19.459,0,0,0-5.12-7.465Zm4.494-33.8c4.574-4.7,8.2-8.363,11.828-13.624.3-.428-19.3-25.459-18.995-25.9,3.023-3.36,7.075-5.829,10.228-9.886,0,0,16.071,21.156,16.44,20.97,1.629-6.62,2.821-12.614,2.51-19.535-.991-17.7-8.515-28.544-8.574-28.331-2.544,16.267-27.548,40.907-32.471,39.151L25.86,123.53c.3.569,15.841-10.057,19.939-24.1.294-1.009,12.355-4.89,12.27-5.039-.51-1.318-5.786-8.824-5.786-8.824a23.177,23.177,0,0,1,2.368-1,68.706,68.706,0,0,1,13.756,30.546c2.131,11.555,3.508,33.277-19.532,57Zm69.071-29.893a64.113,64.113,0,0,1-1.849-31.038c2.53-14.74,11.793-25.295,19.223-33.343l3.223,0-5.255,5.469a81.829,81.829,0,0,0-5.892,8.568l19.228,25.274,10.959-2.382s-.33,11.306.01,11.306C145.122,133.1,139,139.52,134.607,149.85c-2.694,1-11.623,4.873-11.623,4.873-4.244-1.043,12.631-27.649,9.421-28.1-1.322-1.1-15.959-20.954-16.245-20.912-6.747,20.774-.165,42.591,11.706,57.828a8.344,8.344,0,0,1-2.455,1.356c-5.085-7.094-9.54-15.564-11.417-22.738ZM78.867,131.741c.761,1.184,4.182-25.353-4.809-46.6.855-.652,8.273-2.079,8.273-2.079l2,6.361-5.06,2.154.934,2.982c3.928-1.916,12.434-4.745,17.667-13.486,0,0,25.424-.219,25.965-.173s-5.185,5.549-10.6,16.7a50.665,50.665,0,0,0-4.854,19.406c-.081,1.527-5.817-7.18-5.817-7.18,1.43-7.356,5.253-14.6,9.064-21.841,0,0-5.847-.334-9.931-.214C95.34,94.75,91.357,98.43,81.78,101.763c3.493,11.251,24.856,16.659,20.105,15.63-.97-.23-2.2,10.343-1.172,22.257.2,9.526,5.3,25.405,5.474,25.277,0,0-3.4.77-3.67.222.573-.138-5.054,1.294-5.054,1.294l-2.013-5.918,5.446-2.52-.881-3.34c-.022,0-12.017,3.65-17.893,14.173l-26.276.031c10.134-11.058,14.267-22,16.468-36.454,2.15.387,6.553-.674,6.553-.674ZM143.49,36.274c3.3-2.78,9.935-10.02,9.935-10.02l.087,3.71-7.526,7.87.076,48.593-2.546-2.454ZM140.012,54.06c-1.355.649-4.057,3.843-5.344,7.432-8.719-7.834-5.129-22.229-.356-25.226,1.385,3.143,5.4,7.31,5.3,7.223-.922,3.291-1.628,6.63.4,10.571ZM62.817,21.439l67.243.118c-3.836,7.6-7.355,13.734-11.432,21.211-2.121,2.573-48.04-8.31-48.256-7.226Z" fill="#e2cf00"/><path id="a7d74882-3967-4f5b-b904-c641a1973a3e" data-name="path6355-9" d="M26.469,219.068l-.448-63.805,7.643,7.467.454,49ZM61.542,206.7c-1.582.242-.687-1.23-.4-2.63.161-.78-.589-1.514-.586-1.752.02-1.385,1.052-1.97,5.728-1.915,11.023.769,16.721,4.317,23.044,5.967,6.055,1.58,12.058,1.548,18.74,1.393.489.284,2.28,4.923,1.947,5.387-15.115,3-34.4-8.164-48.475-6.45Zm27.242-33.039a9.692,9.692,0,0,0-4.565-1.628c2.593-4.585,5.732-8.764,10.975-11.378l2.44,6.07a25.482,25.482,0,0,0-8.85,6.936ZM56.941,157.9a28.035,28.035,0,0,1-4.4,5.528C46.2,154.87,32,136.646,32,136.646l-6.023,3.067a36.634,36.634,0,0,1,.113-3.775c16.268-8.43,27.431-24.364,32.346-39.284,0,0,2.619,2.688,2.275,3.825A75.2,75.2,0,0,1,37.73,132.9Zm20.29-17.363,20.538.029.909,7.18c-7.864,2.65-14.354,8.063-20.423,14.325l-9.742-.17c3.194-7.037,7.631-14.176,8.718-21.364Zm76.038-30.249c.664,2.024-.008,4.208.25,4.116-24.6,12.235-31.63,39.089-31.63,39.089s-2.336-3.719-2.229-4.294c12.733-28.46,21.252-29.308,22.889-32.4L123.182,91.6l4.381-5.991,20.772,27.182c2.064-.956,3.241-1.757,4.934-2.5Zm-12.13,36.819c4.172-7.544,8.475-11.93,12.762-14.947l-.208,9.956ZM26.126,117.5l.108-9.66,12.671-5.484C35.4,110.033,30.645,114.149,26.126,117.5Zm56.454-8.685-.749-6.794a56.525,56.525,0,0,0,19.975-14.064c5.894-.285,9.92.117,9.887.037a81.192,81.192,0,0,0-9.325,21.315Zm63.734-71.369,7-7.115.22,63.618L146.5,87.09Zm-61.538,51.7-2.221-6.3c3.494-1.317,6.14-4.185,8.6-7.026a12.777,12.777,0,0,0,4.575,2.322C96.76,78.384,88.651,88.175,84.776,89.143ZM71.649,41.468s-.874-.508-.778-1.225c.289-.928-.933-3.029-.934-3.029,14.911-4.549,36.624,8.252,49.511,5.56a10.413,10.413,0,0,1-.324,2.837c.406,1.813.692,1.872-1.068,2.979-9.054,2.576-18.6-2.917-27.439-5.543-7.215-2.285-13.075-1.7-18.968-1.579Z" fill="#d40000"/><path id="c1acc02f-291b-468e-9c06-4590a617a4c5" data-name="path6357-5" d="M62.049,20.543,64.772,25.7l-.471.322c.742,1.242,1.372,2.64,2.13,3.872l.548-.063c.894,1.724,1.257,2.361,2.427,4.4l-.528,0c.272.908.97,1.511.984,2.163.008.811-.2,1.634.3,2.182.587.65.657.83.536,1.211A1.6,1.6,0,0,0,72.21,41.82a46.489,46.489,0,0,1,19.8,1.886c4.776,1.514,9.015,3.21,13.028,4.4a31.964,31.964,0,0,0,6.024,1.141c6.106.45,9.533-.8,8.5-3.355-.082-.205-.265-.355-.282-.46-.029-.194,0-.4.347-.69,1-1.029.443-1.778-.168-2.917,0,0,7.842-14.087,11.758-21.107Zm67.895,1.266-5.723,9.936a3.062,3.062,0,0,0-3.825,2.394c-3.973-1.024-3.363,4.157-1.37,4.507.129.751-3.266,1.685-5.055-.075,2.749.37,3.723-3.288.365-4.1,4.427-3.309-3.879-8.265-3.978-1.418-3.906-.692-3.4,4.5-.921,4.9-1.267,1.405-4.993,1.444-6.94-1.518,3.313,1.731,5.105-2.735,1.664-3.986,4.247-3.745-4.07-7.2-3.875-1.146C97.151,29.436,95,34.2,99.18,34.93c-.238.857-5.719.863-7.11-1.352,3.886.891,4.065-3.866.635-4.253,3.443-4.394-5.3-6.615-3.828-.62-3.376-1.343-4.651,2.89-1.364,4.249.183.674-5.324,1.247-7.251-1.183,4.232-.639,2.751-4.763.009-4.434,0,0,.04-.118.194-.519,1.3-4.141-5.664-4.487-4.7-.1.154.4.325.942.325.942-1.919-.393-3.091.393-2.952,2.2.478,2.4,1.74,2.225,3.355,1.747.677.712-3.9,3.091-6.768.966,3.517-1.016,1.735-5.16-1.207-4.6C68.4,26.657,66.967,24.8,65.1,25.707l-1.972-3.9Zm5.751,55.2-4.131.061c-2.9,2.979-23.914,22.444-20.375,51.845,1.513,12.575,5.005,23.454,14.341,36.307l2.5-1.473.382.257,25.871-14.967.014-4.545-30.031,12.67a13.8,13.8,0,0,1-1.448-2.134l12.034-5.143s.289-.736.382-1.074c3.956-10.067,11.994-17.354,18.992-22.985-.037-9.911-.084-30.661-.084-30.661L136.043,77.048a80.072,80.072,0,0,0-6.436,6.708l20.775,27.5-1.842,1.2L127.984,85.1a106.016,106.016,0,0,1,7.711-8.093ZM154.152,94.89s-.1-47.213-.237-70.011h0L143.134,36l.041,47.856Zm-.917-65.516-7.618,7.9.085,48.644-1.957-1.941V36.647l9.516-10.027ZM79.1,28.2a1.3,1.3,0,0,1-.236,1.42c-1.558,1.943,3.335,5.32,6.856,4.733,2.679-.446,4.964-2.065,3.979-3.3-.8-1-.279-2.017.685-2.011.992.008,1.788.8.929,1.887-1.912,2.416,1,5.252,5.461,5.31,3.153.042,4.2-.739,4.033-3-.08-1.057.127-1.35.859-1.51,1.169-.257,1.759,1.091.79,2.119-2.093,2.219.285,5.483,4.245,5.694,1.448.077,1.734,0,3.351-.918,1.263-.717,1.709-1.8,1.09-2.642a1.218,1.218,0,0,1,1.517-1.844c.887.381,1.324,1.065.343,2.224-1.288,1.522-.678,2.778,1.8,3.625,1.932.66,3.271.578,4.175-.252.282-.258.908-.8.9-.633-.608,1.057-1.147,2.037-1.147,2.037a6.065,6.065,0,0,1-7.1-1.71c-4.17,2.42-7.868,1.91-10.992-2.155a10.564,10.564,0,0,1-10.828-3.116c-4.236,2.138-8.175,1.241-11.675-1.149-2.586,2.455-5.313,2.843-8.145,1.664l-.84-1.7c.212-.08,1.125,1.7,5.559.872,1.488-.279,4.049-2.795,2.615-4.021-.657-.934-.676-1.355-.1-1.921A1.264,1.264,0,0,1,79.1,28.2Zm-10.86,2.225c.248.482.281,1.283.008.8-.143-.253-.894-1.387-.859-1.421.35-.03.7.333.852.619Zm85,.387.05,62.775L146.8,87.118l-.312-49.177Zm-75.124,3.04,2.043,1.292L76.5,35.125ZM89.6,34.936l1.715,1.675-3.606-.761Zm32.131.869-.766,1.58C120.52,36.888,120.391,35.833,121.728,35.805Zm12.963,26.1c1.3-2.94,3.044-6.683,5.863-7.873-2.1-4.195-1.826-8.387-.337-10.686a21.344,21.344,0,0,1-5.672-7.816C127.817,41.5,126.735,53.773,134.691,61.9Zm-.2-25.227.463,1.148c-5.992,7.375-4.142,17.056.2,22.222l-.624,1.3C129.223,55.721,126.9,43.828,134.489,36.675ZM98.667,40.847c6.943,2.049,12.5,5.243,20.532,2.4l.037,1.572c-5.109,3.3-15.288-.187-22.165-2.739a57.334,57.334,0,0,0-25.8-3.395c-.541-.106-.971-1.527-.1-1.537,11.492-.127,9.635-1.569,27.5,3.7Zm1.568-2.78,2.281,2.433a37.143,37.143,0,0,1-4.927-1.887Zm34.8.6.447.62c.193.268-1.261.408-1.017.093ZM95.86,43.119c8.289,3.13,17.415,6.254,23.4,3.452,0,0,.038,1.193-.647,1.531a6.129,6.129,0,0,1-2.745.806c-9.691.8-15.982-3.235-23.8-5.619a53.167,53.167,0,0,0-12.628-2.2,67.074,67.074,0,0,0-7.354.286c-.968-.081-.954-.656-.962-1.22A48.5,48.5,0,0,1,95.86,43.119Zm40.08-3a1.607,1.607,0,0,1,.324.019l.847,1.088-1,1.608a8.106,8.106,0,0,1-1.337-1.627C134.522,40.685,135.192,40.154,135.94,40.119Zm-24.42.306,2.625,1.992a14.727,14.727,0,0,1-6.393-.707Zm22.231,1.014c.207,0,.424.215.678.651.489.839.424,1-.524,1.306-1.245.4-1.343.314-.94-.81.275-.765.52-1.14.786-1.147Zm3.987.514,1.774,1.5a13.014,13.014,0,0,0,.347,10.49c-.218.014-1.494,1.28-1.894,1.5-1.124-.474-3.6-9.73-.227-13.484Zm-2.019,1.962-.45,2.835c-.037.233-1.963-1.343-1.784-2.13.343-.936,1.516-.737,2.234-.7Zm-3.184.995c.233,0,.6.568,1.048,1.309.35.578.278.8-.5,1.5-1.142,1.161-1.366.782-1.113-1.193.125-.976.3-1.617.562-1.615Zm2.361,2.569a.633.633,0,0,1,.389.121l.132,2.761c.011.25-2.144-.1-2.427-1.15-.358-.674,1.07-1.749,1.907-1.732Zm-2.845,2.335a3.982,3.982,0,0,1,1.094.573c.794.474.811.682.127,1.565-.8,1.038-1.2.871-1.325-.933C131.9,50.356,131.853,49.842,132.051,49.814Zm3.164,1.056a.275.275,0,0,1,.185.066,6.693,6.693,0,0,1,.72,3.385c-.35.412-2.189-.135-2.6-.786C133.129,52.916,134.544,50.871,135.215,50.87Zm-2.252,3.259a3.082,3.082,0,0,1,1.167.411,2.681,2.681,0,0,1,1.051.752c.225.473-.149,1.175-.631,1.758-.319.385-.618.1-1.237-1.193-.5-1.039-.7-1.7-.35-1.728Zm3.714,1.238a.228.228,0,0,1,.116.027c.626.35.521,1.387-.22,2.154-.889.921-1.662.227-1.048-.941.389-.74.855-1.233,1.152-1.24ZM84.986,81.121a2.922,2.922,0,0,0-1.756,1,1.261,1.261,0,0,1-1.391.48,6.631,6.631,0,0,0-2.819.709,4.541,4.541,0,0,1-2.1.457,6.377,6.377,0,0,0-1.529.209,8.732,8.732,0,0,1-1.1.388c-.92.271-.592.533-.065,1.726a89.529,89.529,0,0,1,5.311,21.559,101.4,101.4,0,0,1-.5,23.657c-2.57.017-4.184-.115-6.891-.069-1.846,15.1-6.856,27.081-16.868,37.861l27.066.069c3.1-8.317,17.253-14.661,17.718-14.193l.745,3.035s-10.18,1.463-17.036,14.454c.7-.427,3.255-.131,4.941,1.629a28.016,28.016,0,0,1,8.925-7.032l.185-.518a16.749,16.749,0,0,1,1.9-.517,9.821,9.821,0,0,0,1.259-.3,3.344,3.344,0,0,1,1.826-.356,10.847,10.847,0,0,0,3.826-.388c-5.746-15.935-7.1-30.319-4.859-47.029,2.117.017,6.758.1,6.758.1a66.1,66.1,0,0,1,2.492-13.826A53.613,53.613,0,0,1,118.666,88.4c2.019-3.038,3.782-5.2,5.869-8.047l-26.5.061C94.533,86.339,87.777,91.288,82.348,93.35c-1.848.7-2.109.595-2.415-.279-.547-1.561-.521-1.5.924-1.909.483-.139,2.027-.957,4.437-2.092,5.115-2.611,8.632-7.391,10.7-10.617.823-1.275.27-.987-1.136-1a4.345,4.345,0,0,1-3.036-1.588c-.426-.4-.61-.686-.8-.662-1.512,2.184-4.051,5.065-6.032,5.918ZM91.2,76.076a7.046,7.046,0,0,0,4.464,2.277A29.734,29.734,0,0,1,84.892,88.941l-2.121-6C87.971,80.505,89.361,78.066,91.2,76.076Zm43.186,1.909c-28.021,26.052-26.372,58.9-6.75,85.574l-2.056,1.243c-18.429-24.836-21.764-61.575,6.4-86.928Zm-17.665,3.178,6.869-.015-4.676,6.1-6.275-.023Zm-1.076.05-3.82,6.057-10.3.134a43.325,43.325,0,0,1-19.532,13.918L80.676,94.8A31.643,31.643,0,0,0,98.266,81.13Zm-10.472.5-2.388,2.657,2.481,2.537,2.265-2.575Zm5.408-.062-2.418,2.529,1.887,2.545,2.507-2.471Zm-11.929.461-.412,3.978,3.113,1.027.454-3.4Zm18.933.148-2.258,3.551,3.4.055,2.378-3.536Zm-35.555.908,2.2,6.144-1.936.939-1.963-6.417Zm-2.61.985L81.7,90.511l-1.9.631-2.087-6.616Zm2.724,25.1c.253,8.84.379,14.169-1.09,21.94-.077.406-1.656.046-1.656.046.2.067.89-8.781.835-14.339a87.278,87.278,0,0,0-6.019-31.543,9.58,9.58,0,0,1,2.729-.731c2.606,7.954,4.917,16.51,5.2,24.627ZM54.636,84.741c9.046,12.069,15.512,28.443,14.43,44.6-1.036,18.787-8.118,29.614-20.557,42.623l-3.209.075c14.724-14.2,21.239-26.348,21.752-42.379.591-18.437-5.008-30.7-14.439-43.766ZM25.7,101.332l.031,4.4L56.552,92.436l-4.445-6.585Zm72.23-14.4-3.355.17.112,3.405,3.5-.085Zm29.906-.647,19.971,26.336-4.941,3.691-19.04-24.748Zm-15.654,1.8,5.978.093-2.311,3.856-5.778-.046Zm-1.1.095c-2.748,5.14-6.539,11-8.668,20.474l-19.679.017a50.173,50.173,0,0,0-.636-6.488c8.48-3.121,15.049-7.786,19.879-13.953Zm3.639.271-2.565,1.487,1.568,1.813,2.827-1.088ZM91.3,90.344,90.448,93.7l3.19,1.235.589-3.985Zm18.35,2.506,5.735.035-2.415,4.85-5.681-.085Zm13.655-.634,18.9,24.636-1.772,1.409L121.959,94.18Zm-11.479,1.026-2.585,2.165,1.946,2.258,2.384-1.913c.05-.041-1.745-2.51-1.745-2.51Zm-25.083.178-.794,3.261,3.317.887.593-3.5Zm-4.588,2.169L81.477,98.8l3.124.849.659-3.095ZM56.36,95.267c.16-.032-.522,3.822-1.527,4.517-.48.331-.729.258-1.145-.194-.287-.311-1.586-2.443-1.586-2.443l1.11-.561c1.347,2.166,1.346,1.119,1.855-.727Zm-5.18,2.22c.44,0,.973.546,1.576,1.611.871,1.54.842,1.641-.59,2.084-2.577.686-3.535.85-2.742-.86.853-1.841,1.191-2.831,1.756-2.835Zm7.671-.306,1.764,3.036q-10.607,27.159-34.176,38.954l-.036-3.009C44.912,125.567,52.5,113.052,58.851,97.181ZM106.93,98.49l5.566.1-1.487,4.28-5.916-.042ZM49.508,98.3c-4.53,10.857-10.72,20.33-23.1,28.327l-.05-2.885c13.9-8.423,19.908-24.2,19.907-24.206Zm70.349-.018c3.3.091,6.761,3.7,6.409,6.682-.248,2.1.152,3.656.72,2.8,1.256-1.9,4.955-.637,4.921,1.643-.017,1.213-.823,1.413-1.286.318-.684-1.619-2.6-1.659-2.887.037-.266,1.59,1.075,2.758,4.657,4.06,4.2.99,6.724,4.774,5.231,6.949-.518.575-.831.716-.928.418-.028-.086-.131-.534-.228-1-.476-2.279-1.562-3.237-2.882-2.454-.662.392-.577.912-.192,1.6.514.912.193,1.267-.728.8-1.452-.734-1.932-2.473-.524-3.276,1.675-.673,1.108-.818-1.032-1.545-4.555-1.565-6.509-4.436-6.748-9.9.087-2.493-.252-3.382-1.418-3.722-1.067-.312-2.276,1.052-1.51,1.77.416.39.756.745.536.961-.708.691-2.479-.431-2.462-1.635.011-.787.308-.949,1.479-1.875.325-.256.048-.74-.427-.747C118.767,100.744,118.894,98.363,119.857,98.285Zm-10.318.631-2.782,1.608,1.449,2.037,3.081-1.456ZM55.4,100.5a.583.583,0,1,1-.578.581A.582.582,0,0,1,55.4,100.5Zm5.7.252A61.586,61.586,0,0,1,64.288,143.1L48.429,122.355a68.7,68.7,0,0,0,12.677-21.606Zm-21.447.946-14.151,5.979-.079,10.67C33.335,112.918,36.688,107.364,39.658,101.7Zm13.6-.089c1.394-.043.706,3.742-1.1,5.033-.664.513-1.112.451-1.33-.575a8.126,8.126,0,0,0-1.372-2.563c-.816-1.054-.807-1.08.385-1.155,1.316.02,2.395-.615,3.421-.74Zm-1.379,1.609c-1.029-.016-1.337.468-.724,1.131.516.557.925.438,1.271-.368.211-.492.023-.755-.547-.763ZM26.358,117.056,26.393,108l12.1-5.124a36.993,36.993,0,0,1-12.136,14.18Zm107.506,7.316L132.251,126l-15.622-20.48.979-2.586ZM48.245,103.656c.524.008,1.712,1.834,2.046,3.146.247.972-.015,1.178-1.849,1.452-.76.209-2.813.007-2.646-.542a23.512,23.512,0,0,1,2.449-4.056Zm56.6.209,5.7.062-1.306,4.7-5.97-.089Zm2.519.287L104.708,106l2.1,2.08,2.811-1.747Zm8.943,2.023,15.8,20.627c-4.715,6.031-9.418,12.959-12.509,22.117-5.627-13.235-7.687-26.118-3.3-42.744ZM52.118,107.93a.583.583,0,1,1-.578.581A.582.582,0,0,1,52.118,107.93Zm-1.818.786c.986.071.055,3.23-1.43,4.383-1.171.908-1.674.487-1.944-1.175a8.141,8.141,0,0,0-1.279-2.428c-.618-.9-.363-1.043,1.2-.681A14.969,14.969,0,0,0,50.3,108.716Zm52.818.772,5.976.037-.92,7.141Zm-58.238.331c.942.883,2.132,3.981,1.522,4.2a9.4,9.4,0,0,1-4.284-.488c-.247-.257-.248-.258.278-.965.289-.388.839-1.163,1.225-1.723C43.968,110.438,44.352,109.329,44.88,109.819Zm3.328.106c-.91.031-.971.156-.539,1.143.352.8.6.876,1.2.348C49.713,110.682,49.36,109.886,48.208,109.925Zm104.913.62.216,3.521c-22.976,11.46-31.58,38.519-31.7,38.518l-1.668-3.122c10.543-26.126,24.565-33.691,33.156-38.917ZM44.855,114.709c1.368-.029,1.768-.123,1.76.387a5.2,5.2,0,0,1-2.815,4.052c-1.049.494-1.072.506-1.191-.736a9.564,9.564,0,0,0-.893-3.165c-.155-.363-.749-1.2,0-.959a12.587,12.587,0,0,0,3.141.421Zm3.069-.319a.581.581,0,1,1-.578.581A.579.579,0,0,1,47.924,114.39Zm-7.322.8c.249-.007.485.5.767,1.259.613,1.639.8,2.527.62,2.913-.28.594-4.051.21-4.692-.453A39,39,0,0,1,40.6,115.193Zm2.716.407c-.541.037-.255.364.146,1.313.278.657.653.762,1.082.3.575-.616.652-1.105.29-1.368A3.643,3.643,0,0,0,43.318,115.6Zm109.964,3.561.02,1.18c-.895-.269-1.449-.65-2.469-.991-.626-.211-1-.361-.443-1.024A10.7,10.7,0,0,1,153.238,116l.008,1.336c-1.686.752-1.522,1.445.038,1.828Zm-66.416-1.2h6.348v4.214h4.965l-.385,4.8h-4.58V131.2H86.866V126.98H82.333l.366-4.8h4.168Zm14.336.014c-3.214,16.017-.265,33.022,4.694,46.876l-2.5.277c-3.865-11.079-6.938-26.852-3.812-47.144,0,0,1.12-.02,1.622-.009Zm47.116.311a.581.581,0,1,1-.578.581A.579.579,0,0,1,148.318,118.288ZM36.65,119.632a13.4,13.4,0,0,1,1.429.434,8.758,8.758,0,0,0,2.327.36c1.578.031,1.784.016,1.105,1.321a6.967,6.967,0,0,1-2.361,2.56c-1.091.586-1.509.507-1.444-.573a8.246,8.246,0,0,0-.721-2.913c-.32-.706-.685-1.178-.335-1.189Zm6.676.514a.583.583,0,1,1-.578.581A.582.582,0,0,1,43.326,120.146Zm106.806-.076a5.15,5.15,0,0,1,1.914.608c1.856.907,1.806,1.115-.709,2.909-1.825,1.393-2.257,1.549-2.322-.647-.066-1.851.133-2.849,1.117-2.87ZM35.7,120.6c.736.011,1.552,3.867.89,4.211-1.031.535-4.223-.508-4.21-1.387A14.756,14.756,0,0,1,35.7,120.6Zm112.214-.158c.441-.02.5.327.459,1.557a21.035,21.035,0,0,0,.135,2.208c.093,1.027.008,1.1-.8.639a7.067,7.067,0,0,0-2.7-.876c-.931-.081-1-.466-.71-1.083a5.088,5.088,0,0,1,3.622-2.445Zm-109.479.581c-.643,0-.484.339-.085,1.305.282.685.772.75,1.275.167.7-.818.566-1.25-.459-1.407a6.913,6.913,0,0,0-.731-.065Zm108.628.918a2.2,2.2,0,0,0-.809.352c-.6.381-.849.655.028.957.779.268,1.194.385,1.132-.291-.038-.407-.008-1-.35-1.018Zm-59.579.5v4.2h5.053v-4.2Zm55.065.364a.581.581,0,1,1-.578.581A.579.579,0,0,1,142.548,122.8Zm-94.6.655L63.89,144.037l-1.059,2.683L46.411,125Zm105.435-.1.035,2.689c-1.8,1.326-13.239,9.661-19.156,23.69l-3.1,1.326a57.3,57.3,0,0,1,22.219-27.705ZM32.1,124.5a22.9,22.9,0,0,0,3.008,1.174c1.126.138,1.515.066,1.21.651a6.586,6.586,0,0,1-3.332,3.129c-.973.321-1.432.2-1.279-.406a10.429,10.429,0,0,0,.3-3.107c.153-.565-.326-1.356.1-1.441Zm-1.217.24c.662.569.53,4.165-.208,4.939-.386.405-1.506.035-3.186-.922-1.1-.626-1.3-1.007-.754-1.391.928-.567,3.648-2.76,4.148-2.626Zm113.9.078a5.38,5.38,0,0,1,1.282.17c1.987.449,2.43.905.736,2.258a13.208,13.208,0,0,0-1.483,1.36c-.911,1.124-1.545.309-1.745-1.732-.14-1.428.075-2.241,1.209-2.056Zm-2.489.193c.323,0,.53.17.524.574a20.031,20.031,0,0,0,.566,3.362c.358,1.045.1,1.281-.762.825a7.8,7.8,0,0,0-3.186-.527c-1.022.081-.992-.194-.693-1.057.53-1.53,2.583-3.176,3.551-3.177Zm-109.221.744c-.389,0-.405.525-.139,1.732.085.383.413.36,1.032-.078.733-.517.7-.843-.123-1.34a1.764,1.764,0,0,0-.77-.314Zm4.518.132a.581.581,0,1,1-.578.581A.578.578,0,0,1,37.594,125.888Zm102.816,2.258a1.783,1.783,0,0,0,1.479.1,1.706,1.706,0,0,0-.081-1.557c-.577-.2-1.744,1.03-1.4,1.46Zm-95.686,2.22c.348,1.662,2.673,1.57,2.411-.163-.153-1.012-.189-.991.316-.969,2.4.119,1.984,3.924-.782,3.63-.577.069-.654.307-.166.511a16.642,16.642,0,0,0,2.631.682c3.01-.01,7.352,4.643,7.245,8.774-.069,2.7.841,4.645,1.772,4.865.74.175,1.815-.5,1.722-1.329-.129-1.141.794-.785,1.325.035.81,1.132-.235,2.766-2.165,2.638-.821.161.6.685,1.659.992.958.055.148,1.241-.03,1.452-.541.632-2.314.149-3.7-.98-1.708-1.387-2.441-3.245-2.643-6.895-.129-2.346-.3-2.823-.982-1.855-1.22,2.158-4.142,1.1-4.506-1.178-.2-1.207.852-2.078,1.193-.984.906,2.274,3.123,1.728,2.762-.53-.238-1.49-1.72-2.312-4.649-3.142-3.521-1-4.568-2.209-5.254-5.113-.3-1.285-.255-1.958.42-2.63.334-.332.759-.67.759-.67s.47,1.954.666,2.859Zm92.1-1.843a.581.581,0,1,1-.578.581A.578.578,0,0,1,136.822,128.523Zm-110.51.552c1.048.381,1.949.947,3.03,1.317.7.24.51.8-.216,1.606a7.24,7.24,0,0,1-2.729,1.97l.012-1.625c1.364-.479,2.233-1.622-.059-1.989Zm113.238.907a8.1,8.1,0,0,1,1.619.155c1.671.347,1.866.5.863,1.677-.372.438-.926,1.1-1.229,1.468-.988,1.384-1.52.909-1.98-.879C138.252,130.536,138.122,129.819,139.55,129.982Zm-108,.666a.581.581,0,1,1-.578.581A.579.579,0,0,1,31.551,130.648Zm106.315,1.265c.159.59.4,1.342.586,1.874.906,2.011.333,1.233-1.292,1.056-1.092-.119-2.83.064-3.26-.24-.188-.245-.015-.89.336-1.619a5.815,5.815,0,0,1,2.058-2.3c1.693-.787,1.3.213,1.572,1.225ZM40.258,131.2l18.21,24.213-1.428,2.047-18.731-24.9Zm114.124.091a46.581,46.581,0,0,0-13.84,16.319l13.878-5.385Zm-18.074.789c-.519.143-1.264,1.111-.944,1.491a1.752,1.752,0,0,0,1.321.089c.564-.208.179-1.583-.377-1.58Zm-79.8,26.185-3.878,4.915L32.417,136.889l5.1-3.7Zm96.866-25.552.143,9.036-11.87,4.977A48.9,48.9,0,0,1,153.372,132.711Zm-81.165.766,4.755,6.225-5.81-.133Zm60.116.51a.581.581,0,1,1-.578.581A.578.578,0,0,1,132.323,133.987Zm3.484,1.472c2.175.03,2.9.149,2.268,1.223-.844,1.049-1.342,2.046-2.262,3.016-.531.544-1.2-.578-1.751-2.372-.448-1.448-.221-1.813.631-1.826S135.689,135.458,135.807,135.459Zm-2.511,1.96a12.56,12.56,0,0,0,.924,2.088,6.544,6.544,0,0,1,.679,1.324c-.056.27-.31.29-.882.074-1.24-.562-4.152.032-4.229-.245-.432-.62.217-2.31,1.439-3.481a3.037,3.037,0,0,1,1.461-.949c.316-.006.373.434.608,1.189Zm-101.577-.445,20.565,26.857-1.423,1.742L30.066,138.2s-3.284,1.617-4.25,2.157l.13,13.891-.562-.027.084,70.357,11.475-11.507-.149-47.739c2.435,2.3,4.518,4.76,7.305,7.018l4.772-.038c12.458-12.743,19.282-23.648,20.779-43.177,1-13.065-3.314-29.494-14.762-45.415l-2.8,1.707,5.524,8.37-11.7,5.215c-4.659,9.879-10.184,19-20.288,24.219l-.057,12.787-.176.265.133,4.015Zm100.546.917c-.546.042-1.4,1.226-1.009,1.631a1.273,1.273,0,0,0,1.469-.192A1.075,1.075,0,0,0,132.265,137.891Zm-61.347,2.766,6.04.035-1.579,5.21L69.5,145.79Zm57.371-.023a.581.581,0,1,1-.578.581A.579.579,0,0,1,128.289,140.634Zm-30.769.159.781,6.766a45.516,45.516,0,0,0-19.9,14.008c-1.062-.07-9.532.074-9.532.074.212.03,7.849-14.461,8.728-20.751Zm-23.92.63-2.769,1.914L73,145.657l2.866-1.952Zm57.639.029a12.194,12.194,0,0,1,2.011.181c1.021.2,1.171.219.827,1.066a16.405,16.405,0,0,1-1.756,3.313c-.936.583-3.014-3.6-2.305-4.322a2.172,2.172,0,0,1,1.223-.238Zm-2.648,1.285c.267-.023.624.5.73.951a9.572,9.572,0,0,0,1.665,2.589c.747.832.708.948-.362,1.034a13.652,13.652,0,0,0-3.237.617c-1.112.406-1.263.316-1.121-.992.215-1.968,1.522-4.129,2.325-4.2Zm-.977,4.072c.139.381,1.864-.319,1.961-.776-.016-.206-.694-1.393-1.1-1.447-.69.109-.979,1.683-.86,2.223Zm-58.278-.268,5.709.055-1.872,4.729-5.643-.015Zm2.556.634-2.735,1.74,2.13,2.072,2.619-1.817Zm58.049.858c.484,0,1,.042,1.1.22.3.5-.932,3.309-.932,3.309l-2.012.8a12.39,12.39,0,0,1-1.351-2.8c-.072-.424.141-.579.607-.841a6.03,6.03,0,0,1,2.583-.694Zm-5.39.229a.581.581,0,1,1-.578.581A.579.579,0,0,1,124.551,148.262Zm-26.031.081s1.234,7.008,1.3,6.236c-9.52,3.606-15.088,8.926-17.727,14.117l-17.861-.013,3.986-6.221,10.574-.054A43.276,43.276,0,0,1,98.52,148.343Zm-2.286,1.65-.883,2.831,2.67,1.712,1-3.04Zm29.258.055c.226-.022.45.362.909,1.181.339.6.785,1.485.785,1.485l-.8.3c-.644-2.213-1.235-1.39-1.3.563l-1.094.439a8.526,8.526,0,0,1,.744-2.984c.359-.632.559-.965.759-.983Zm-58.22,1.936,5.535.069-2.315,4.823-5.628-.155Zm24.143.387-.439,3.579,2.981.635.409-3.4Zm-21.79.043-2.734,1.778,1.794,2.374,2.631-1.778Zm17.515,3.133-.567,3.3,2.8.639.635-3.316Zm-60.774.194,7,6.976.386,48.671-6.96,7.019Zm38.077,1.782c-.025.039,5.583.161,5.583.161l-2.244,4.074-1.917-.087,2.523-1.731-1.618-2.08-2.592,1.7,1.444,2.1-3.787-.082Zm36.1,1.205,1.9,6.315-2.285.4L98.444,159.5a13.139,13.139,0,0,1,2.1-.772Zm-17.954.395.038,3.788,3.051.26.119-3.553Zm15.164.6,1.739,6-1.45.415-2.077-5.695A5.911,5.911,0,0,1,97.755,159.727Zm-2.646,1.239,2.234,5.874a26.058,26.058,0,0,0-8.7,6.641,9.284,9.284,0,0,0-3.938-1.756,24.853,24.853,0,0,1,10.4-10.759Zm-33.722,1.472,5.871.179-4.083,6.131-6.641-.008Zm17.475.229-.381,3.587,3.143,1.867.477-3.684Zm-3.786.5-2.234,2.374,2.372,2.723,2.177-2.843Zm-5,.123-2.654,2.449,2.111,2.769,2.426-2.785Zm-33.813,2.284.26,47.548-9.751,9.5-.073-2.557,7.752-8.141q.014-24.124-.095-48.249Zm25.944-1.536-2.693,3.691,3.193.008,2.315-3.575Zm-16.6,23.009c-1.062,3.842-5.957,8.009-6.044,7.938,2.423,3.493,2.341,8.472.2,10.926.01-.055,3.9,3.188,4.441,4.873a22.6,22.6,0,0,0,.821,2.154c.1.176.432.614.432.614C54.951,203.877,50.431,192.534,45.606,187.051Zm.142,1c9.216,11.5,3.14,22.023-.075,24.958l-.614-1.02c6.848-8,3.946-17.836-.044-22.491Zm-1,2.238c.061.187.42.728.154.693l-.463-.093Zm-.07,1.282a.517.517,0,0,1,.458.2c.188.313-.764,2.957-1.353,2.341-.177-.349-.386-.652-.549-1.013-.192-.432-.066-.64.373-1.069a1.648,1.648,0,0,1,1.071-.461Zm1.325.717c.466.036,1.129,1.511,1.19,2.564a3.631,3.631,0,0,1-2-.74A4.043,4.043,0,0,1,46.006,192.292Zm-3.6,1.2c2.775,5.611,2.6,9.993.158,14.022l-1.914-1.647a11.3,11.3,0,0,0-.243-10.5Zm1.872,1.4a4.624,4.624,0,0,1,1.309.24c1.857.6,1.927,1.819.139,2.715-.74.371-.971.207-1.4-1.662-.211-.924-.371-1.265-.051-1.293Zm3.586,2.149c.358,0,.522.679.566,1.852.042,1.114-.194,1.2-1.086.407-.965-.859-1.131-1.064-.247-1.771.259-.207.6-.487.767-.488Zm-2.531,1.84a3.326,3.326,0,0,1,1.19.7c1.27.972.988,1.64-.454,2.111-1,.326-.95.367-.925-1.372C45.152,199.466,45.1,198.908,45.328,198.888Zm16.809,1.583a2.225,2.225,0,0,0-1.686,3.037c.234.569.589.574.172.921-.465.54-.712,1.79-.2,2.246.6.348.759-.252.123.923L48.871,229.163l70.077-.131-8.423-15.863c.019-.023.674-2.618-.674-2.93a1.116,1.116,0,0,1-.768-.892,2.659,2.659,0,0,0-.808-2.143,47.433,47.433,0,0,1-17.228-.607c-6.885-1.557-11.806-4.254-15.006-5.1a36.416,36.416,0,0,0-13.9-1.025Zm3.775.149a41.818,41.818,0,0,1,15.762,3.49,58.722,58.722,0,0,0,13.812,3.9A55.905,55.905,0,0,0,107,207.958a1.233,1.233,0,0,1,1.134.32c.772.863.246,1.4-1.687,1.584a47.234,47.234,0,0,1-10.369-.368,61.638,61.638,0,0,1-16.086-4.331c-6.18-2.332-11.857-3.113-16.343-2.424-2.463.377-2.825.437-2.815-.229.019-1.3,1.087-1.891,5.076-1.89Zm-17.791,3.764c-.239.55-1.928-1.25-1.911-1.758a9.988,9.988,0,0,1,1.946-1.485c.262-.2.245-.1.248.14A13.064,13.064,0,0,1,48.121,204.384Zm-2.6-1.328c.779.106,2.06,2.221.932,2.549-1,.29-1.908.477-2.03-.2.515-1.655.708-2.31,1-2.348a.731.731,0,0,1,.093,0Zm45.315,7.225a72.494,72.494,0,0,0,15.771,1.048c2.446-.248,2.961-.169,2.946.857-.009.643.061.627-3.1.624a60.926,60.926,0,0,1-7.526-.239,51.221,51.221,0,0,1-14.444-2.709c-4.9-1.277-9.138-3.731-13.928-4.238-4.394-.433-8.346.349-9.175.812-.277,0-.421-.416-.405-.8a1.136,1.136,0,0,1,.463-.908C74.034,201.538,80.776,208.38,90.836,210.281Zm-43.67-4.231c.419,0,.286.63-.4,1.953-.584,1.125-.814,1.119-1.144-.035-.353-1.233-.319-1.369.381-1.55a11.805,11.805,0,0,1,1.164-.368Zm-2.939.628c.492.007,1.19,2.247.832,2.669-.283.333-1.308.107-1.606-.287C42.972,208.427,43.587,206.669,44.227,206.678Zm22.016.6a31.946,31.946,0,0,1,5.69.5,19.128,19.128,0,0,0-3.127,1.358A18.835,18.835,0,0,0,66.243,207.283ZM68.781,210c6.9-3.871,9.818,1.473,10.815,2.335,6.036-1.343,7.217-.682,10.585,2.977,6.043-2.972,8.973-.446,11.5,1.152,2.96-2.781,6.712-2.858,8.667-1.462a11.618,11.618,0,0,1,.916,1.629c.033.182-.244-.03-.924-.519-3.549-2.554-9.439.626-7.865,3.994.423.907.356,1.3-.278,1.661a1.011,1.011,0,0,1-1.379-1.441c1.047-1.731.259-3.181-2.288-4.52-3.589-1.887-9.453.227-8.246,3.01.772.888.056,1.515-.963,1.483-1.154-.036-1.545-.812-.805-1.642.923-1.06.681-2.134-.395-3.358-3.223-4.617-9.744-2.786-8.881,1.259.379,1-.7,1.411-1.817.964-.713-.284-.606-1.391.173-1.782.9-.091,1.024-1.4.917-2.235-.156-1.219-1.945-2.421-3.714-3.059a8.005,8.005,0,0,0-3.408-.474,2.848,2.848,0,0,0-2.762,3.564c.192,1.2-.14,2.437-1.537,1.779-.764-.36-.572-1.229.208-2.031,2.744-2.694-2.781-5.974-6.117-3.714a2.489,2.489,0,0,1-.978.548C62.292,204.884,68.842,209.788,68.781,210Zm9.092-.705,4.168,1.578a12.225,12.225,0,0,0-2.319.735ZM66.986,211c-3.847-.733-4.056,3.589-1.549,4.295-3.449,4.765,5.582,6.614,3.925.734,4.577.829,3.749-4.408.346-4.36.8-1.951,7.078-.472,6.807.977-4.247.453-2.55,4.344-.712,4.349-4.441,4.228,4.446,8.126,4.21,1.752,3.565.754,3.985-4.006.557-4.319,1.256-1.776,5.738-.656,6.981,1.375-3.538.472-3.316,3.6-.548,4.1-3.509,4.493,5.128,6.154,4.23.93,3.095,1.07,4.793-3.082.784-4.269,4.107-2.46,8.566,1.207,8.083,1.282-4.687-.279-3.754,4.444-.362,4.188-2.158,4.9,6.394,5.177,4.225.091,3.846.071,3.509-4.411-.176-4.711,2.32-1.7,4.936-1.85,6.62-.258-3.507.927-2.05,5.026,1.478,3.892.326,3.429,3.1,2.7,3.161,2.6l2.481,4.656-67.237.108,5.738-10.651a2.734,2.734,0,0,0,3.123-3.189c2.255,1.62,4.681-2.406,1.381-3.56,2.7-2.837,6.693-.216,6.454-.012ZM45.1,210.7c-.14.144-.177.23-.408.015C44.1,210.044,45.7,209.987,45.1,210.7ZM59,212.487c.3.244.092.911-.148,1.139-.606.653-.811.6-.277-.526.157-.341.306-.617.425-.613Zm29.458.3,3.495.85-1.66.941A21.051,21.051,0,0,0,88.459,212.789ZM99.385,214.2l3.8.244a9.436,9.436,0,0,0-1.61,1.29A12.694,12.694,0,0,0,99.385,214.2Zm12.666,3.9a18.909,18.909,0,0,1,.972,2.026C111.793,220.345,111.464,218.505,112.051,218.1Z" fill="#100f08"/><path id="05e83604-41ad-4506-b531-a58fd8015054" data-name="path12536" d="M48.561,65.054c-4.149-6.851-8.514-13.511-13.969-19.2,5.455-5.688,9.82-12.348,13.969-19.2,4.149,6.852,8.514,13.512,13.969,19.2C57.075,51.543,52.71,58.2,48.561,65.054Z" fill="#d40000"/><path id="974dd930-b0d9-4312-b7d5-156617901831" data-name="path12538" d="M14.609,56.477a45.169,45.169,0,0,0-5.82-8,45.169,45.169,0,0,0,5.82-8,45.119,45.119,0,0,0,5.82,8A45.119,45.119,0,0,0,14.609,56.477Z" fill="#d40000"/><path id="84ede84a-0821-4ec8-9808-a977a4ad6390" data-name="path12540" d="M131.018,185.4c-4.149,6.852-8.514,13.511-13.969,19.2,5.455,5.689,9.82,12.348,13.969,19.2,4.149-6.852,8.514-13.511,13.968-19.2C139.532,198.912,135.167,192.253,131.018,185.4Z" fill="#d40000"/><path id="5fcf80ce-4470-4711-bd1e-68166966e7b1" data-name="path12542" d="M164.971,193.969a45.124,45.124,0,0,1-5.821,8,45.124,45.124,0,0,1,5.821,8,45.069,45.069,0,0,1,5.82-8A45.069,45.069,0,0,1,164.971,193.969Z" fill="#d40000"/><path id="55eaa71f-11d3-478b-933a-be374a94d7a9" data-name="path12544" d="M15.247,35.061H17.9L14,25.313,11.02,29.43l.021,5.631h2.093v2.9H5.757v-2.9H8.188V14.1l-2.431.01V11.569h7.485v2.624H11.177L11.133,24.41l6.534-10.3H15.36V11.569h7.964v2.538h-2.1l-5.379,8.419L21.11,35.065h2.338l.012,2.9H15.272l-.025-2.908Z" fill="#d40000"/><path id="cdb362ec-0f01-4878-916c-5f6b3a109ce2" data-name="path12546" d="M164.333,215.385h-2.656l3.9,9.748,2.981-4.118-.021-5.63h-2.093v-2.9h7.377v2.9h-2.43v20.964l2.43-.01v2.538h-7.485v-2.624H168.4l.044-10.217-6.534,10.3h2.306v2.538h-7.963v-2.538h2.1l5.38-8.42-5.268-12.538h-2.338l-.012-2.9h8.189l.025,2.908Z" fill="#d40000"/></g><rect id="e7365dfe-4aec-4b3f-bf99-e786c0d3718e" data-name="rect16726" x="0.498" y="0.498" width="178.583" height="249.449" rx="8.504" ry="8.504" opacity="0.08" fill="url(#be0d5642-5289-4e2e-aaf2-4cc1a9b175b6)" style="isolation:isolate"/></g></g></g></svg>