<svg xmlns="http://www.w3.org/2000/svg" xmlns:xlink="http://www.w3.org/1999/xlink" viewBox="0 0 179.576 250.442"><defs><pattern id="379b6bc7-acaa-45c3-96bc-e32b86bf5445" data-name="pattern17790" width="595.276" height="841.89" patternTransform="matrix(0.8, 0, 0, -0.8, -615.4, 1531.539)" patternUnits="userSpaceOnUse" viewBox="0 0 595.276 841.89"><rect width="595.276" height="841.89" fill="none"/></pattern></defs><title>KH</title><g id="c5a1333c-f57e-409f-bd5d-feb52c3c2da1" data-name="Layer 2"><g id="d7703559-8286-4f00-beb6-9bbe3df32a77" data-name="Hearts"><g id="92ed6eae-a5f0-493d-9c17-f14c809ea630" data-name="KH"><g id="60d6d5c6-6ae1-4485-b54e-d2c22d68a9dc" data-name="g101372"><rect id="e1446e12-d352-40b2-b466-1ddd42321c5f" data-name="rect5951" x="0.496" y="0.496" width="178.583" height="249.449" rx="8.504" ry="8.504" fill="#fff" stroke="#b3b0b0" stroke-width="0.993"/><path id="473cefba-b076-4ab1-8d64-53cfe3c14d62" data-name="path163-0-2-7-7-1-8-7-00-1-2" d="M14.27,56.475s-1.78-2.552-4.181-5.552C8.483,48.915,7.2,46.741,7.08,44.869a3.878,3.878,0,0,1,3.505-4.389c2.345-.1,3.3,1.649,3.685,3.094.387-1.445,1.339-3.2,3.684-3.094a3.878,3.878,0,0,1,3.506,4.389c-.119,1.872-1.4,4.046-3.009,6.054C16.05,53.923,14.27,56.475,14.27,56.475Z" fill="#d40000"/><path id="690d6762-a59e-4e31-94ea-880662ddf697" data-name="path163-0-2-7-7-1-8-1-9-4-6-8" d="M165.306,193.967s-1.78,2.552-4.181,5.552c-1.606,2.008-2.89,4.182-3.009,6.054a3.879,3.879,0,0,0,3.5,4.39c2.346.1,3.3-1.65,3.685-3.095.387,1.445,1.339,3.2,3.684,3.095a3.879,3.879,0,0,0,3.506-4.39c-.119-1.872-1.4-4.046-3.01-6.054-2.4-3-4.18-5.552-4.18-5.552Z" fill="#d40000"/><path id="e2d7a6c4-f6e3-4a80-9e1e-ad9a3b9e6e8a" data-name="path39-51-8-0-0" d="M16.208,36.067h2.656l-3.9-9.748-2.981,4.118.02,5.63H14.1v2.9H6.719v-2.9h2.43V15.1l-2.43.009V12.575H14.2V15.2H12.138l-.044,10.217,6.534-10.3H16.322V12.575h7.963v2.538h-2.1L16.8,23.533l5.267,12.539h2.338l.012,2.9H16.233l-.025-2.907Z" fill="#d40000"/><path id="3df65f47-fde3-4fe2-9eb9-9e8d16dfe080" data-name="path39-3-9-6-0-8" d="M164.667,215.383h-2.656l3.9,9.748,2.981-4.117-.021-5.631h-2.093v-2.9h7.377v2.9h-2.43v20.964l2.43-.01v2.538h-7.485v-2.624h2.066l.044-10.217-6.534,10.3h2.307v2.538H156.59v-2.538h2.1l5.379-8.42L158.8,215.379h-2.338l-.012-2.9h8.188l.025,2.908Z" fill="#d40000"/><path id="420cb314-ba65-4bab-a525-c7f7acd0d288" data-name="path3876-2-1-7" d="M65.326,212.113a229.036,229.036,0,0,0,43.167.934c3.823,5.321,11.5,16.171,11.5,16.171l-69.563.568Zm-18.065,3.7c1.865-3.791,2.226-7.444,1.871-12.71-.28-4.04,2.229-7.187,4.817-5.981,2,.933,1.078,4.755-.991,3.946-.792-.309-1.487-.028-1.382,1.788.185,4.474,1.368,9.515.351,13.8-.709,4.168-6.4,2.248-4.666-.848Zm-17.476-5.845a3.329,3.329,0,0,1,4.206-4.9c1.169.551,1,1.751-.47,1.111-2.056-.892-4.27,2.265-2.481,3.533.824.584,1.138.506.511-.225-1.667-1.954,2.6-2.818,2.475-1.531a23.188,23.188,0,0,1-.47,2.537C32.687,211.863,31.017,211.165,29.785,209.972ZM35.914,196a3.663,3.663,0,0,1,.312-5.248c.7-.769-5.656-12.715-4.852-12.793,8.033-.861,16.15-.211,24.2.042,0,0-4.291,7.777-6,11.626-.689,1.551.922,3.376.255,4.528-2.072,2.282-.783,4.81-2.076,4.924a26.36,26.36,0,0,0-11.117-.047c-.325-.028-.274-2.019-.719-3.032Zm34.769-83c4.061,20.832-1.926,42.915-15.654,57.484-1.937-1.876-3.423-5.437-5.356-7.76-5.365-1.624-9.224.287-12.986,2.158a21.217,21.217,0,0,0-10.777-3.034l-.118-3.221c3.713-.081,7.634.264,10.941,2.326l5.173-2.115L25.774,141.974l.219-2.882L45.567,159l2.521.09c-5.54-14.841-.694-38.412,22.6-46.085Zm27.294,26.131,2.829,13.6S84.936,168.589,76.6,176.687l-6.97-.64c3.481-5.219,5.462-10.5,7.775-15.762ZM154.22,157.79c-6.644,7.5-14.583,12.265-23.4,17.518-3.525-3.968-7.8-8.333-10.273-12.246,7.691-4.142,15.024-7.351,22.555-14.6-.412.468-9.607,3.613-9.578,3.251-.331,1.547-.132,2.5-1.628,2.909-1.771-2.493-3.484-4.517-6.277-5.631a6.323,6.323,0,0,1-2.726-.674c.782-.161.437-9.729,0-9.839.858-.281,1.724-.945,2.906.372.546.369,5.845-5.009,7.65-6.847,7.084-.587,13.359.116,20.337-.074-.053,8.516.434,17.345.432,25.862Zm-44.983-21.568c-.178-.362-1.966-14.473-.268-23.321,4.663-14.892,3.474-19.04,15.527-33.687.793-.782,3.565,1.74,5.636,6.1,6.015,3.82,13.728-1.11,13.728-1.11s2.994,2.464,9.763,3.81l-.116,2.651c-.033.771-7.614-.821-9.245-2.359,0,0-5.678,1.908-5.677,2.256,0,1.486,15.121,15.572,15.121,15.572l-.085,3.3c.1,0-20.733-21.781-21-19.5,5.9,25.585-4.134,38.546-23.38,46.286Zm-25.05-4.5-.336-13.533,12.759.153.525,13.674ZM25.809,117.1c.341-.481-.5-25.224-.444-25.224,8.12-8.148,16.062-12.7,24.023-17.655,3.6,3.6,6.66,6.632,9.313,10.989L47.716,92.031c.418,1.663-.666,2.263,6.415,8.739.12-.444,2.453-1.762,2.86.21-.959,4.163.426,7.7.608,9.939-.967,1.311-3.128-.1-3.128-.1-1.4-1.471-6.881,5.791-8.446,6.6-6.828-.257-20.6.21-20.216-.329ZM102.558,73.1c.048.085,7.026.012,6.96.175-1.269,3.138-4.161,9.382-7.061,16.292-2.421,4.023-19.744,20.774-19.744,20.774-.821-4.86-2.055-9.6-3.341-14.326Zm30.1-23.326c2.511,1.08,9.566.515,10.685.028,1.435.983.539,2.293.358,3.02,1.473,1.881,2.28,2.549.607,5.581-.382,0,5.141,12.551,5.29,12.56,0,0-5.838-2.8-7.9-4.684l-4.026,5.4L133,65.582c-.017.551-9.013,6.575-9.122,6.284-.283-.286,8.215-9.519,6.529-14.94-.406-1.306.524-2.634,1.159-3.785.437-.79-.15-2.317,1.095-3.367Zm-4.67-1.125c.381-.441-2.181-11.79.6-16.371,1.176-1.666,3.3-1.751,4.194-.387.68,1.9-1.346,4.536-1.752,5.825-1.317,3.593.639,8.331-.316,11.726-2.859,7.416-7.924-.73-2.723-.793Zm19.035-5.04c-1.507.067-.455-4.479-.207-5.781-.008-.258,2.759-.909,3.755.878,1.609,2.672-.325,6.042-3.548,4.9ZM129.054,20.692l-14.2,17.427C100.5,36.452,86.1,35.392,71.417,37.66l-11.8-16.623Z" fill="#e2cf00"/><path id="cc21507c-6b58-4fac-be60-4513399cd7f6" data-name="path3874-3-1-4" d="M155.388,19.621H24.188v211.2h131.2Zm-26.47,1.1L113.192,40.244l-.387.131a91.671,91.671,0,0,0,3.972,9.9c2.275,4.741,7.992,13.455,4.425,20.425-.349.6-.674.888-1.112.886-.606,0-.594-.362-.234-1.061a15.117,15.117,0,0,0,1.016-7.122,27.854,27.854,0,0,0-2.17-6.006c-5.976-11.14-7.843-17.078-7.5-17.078a1.353,1.353,0,0,0-.43-.171l-.586-.2c2.07,7.042,5.436,12.963,8.1,18.445,2.185,5.095,2.419,7.071,1.277,10.78-.442,1.436-1.241,2.356-2.028,2.352-.589,0-.555-.123-.153-.852,2.093-3.793,1.609-7.934-.993-12.751-3.78-7.955-6.047-12.988-7.394-18.092-.033,0-.689-.224-.925-.281,1.121,5.312,4.253,11.439,7.168,17.709,2.41,4.828,3.105,8.347,2.236,11.126-.285,1.2-1.194,3-2.343,3.051-.45,0-.521-.238-.1-.859,1.786-3.092,2.1-5.944-1.093-12.436-2.939-5.969-5.887-12.649-6.9-18.485-.063-.479-1.341-1.046-1.066-.253,1.577,6.894,4.72,13.952,8.057,20.834,1.878,4.271,2.073,7.005.663,9.4-.788,1.336-.989,1.64-1.58,1.653-.7.015-.685.042-.3-.771,1.7-3.593,1.425-6.758-.854-11.95-3.124-7.12-5.755-13.012-6.879-19.278-.2-.059-1.26-.473-1.108-.159a102.308,102.308,0,0,0,6.139,17.112,57.458,57.458,0,0,1,2.822,7.62c.891,3.607-1.118,8.559-3.746,8.809-.98.093-.858-.4.234-1.427,1.88-1.767,2.244-4.586,1.606-7.857a41.4,41.4,0,0,0-2.438-7.965c-2.294-5.552-4.79-11.362-5.58-16.487.026-.459-1.025-.46-.728.019a58.775,58.775,0,0,0,3.405,11.519c1.623,4.17,4.038,8.843,4.829,13.96.647,4.188-1.939,8.141-5.076,8.377-3.779.285-4.524-3.5-3.615-5.267,1.483-2.645,5.79-1.134,4.51,1.571a1.49,1.49,0,0,1-2.891-.56c-.026-.156.216-.624.172-.649-.078-.046-.408.259-.513.451-.765,1.382,1.532,3.237,3.129,2.126,5.35-2.929,1.737-11.862-.595-17.319a56.542,56.542,0,0,1-4.632-14.384c-.195-.137-1.078-.363-.955-.2.648,2.512.947,4.631,1.592,6.741,1.01,3.31,2.823,7.015,4.3,10.726,1.344,3.652,2.693,6.754,2.078,10.562a2.082,2.082,0,0,1-.437,1.03c-.24.255-.439.216-.51-.754-.024-.132-.193-.306-.218-.474a11.871,11.871,0,0,0-.33-4.2,20.418,20.418,0,0,0-2.167-4.466c-.5-.816-1.794-3.308-1.338-1.586a23.686,23.686,0,0,0,2.078,4.707,9.683,9.683,0,0,1,1,4.144c-.189.5-.628.531-.832.358-.184-.156-.183-.867-.23-1.306a13.715,13.715,0,0,0-3.29-6.193c-.911-1.028,2.146,4.369,2.37,5.808.095.609.282,1.1.076,1.4-.136.2-.41.2-.679.129s-.247-.248-.521-1.174a9.313,9.313,0,0,0-2.251-3.814c-.412-.49-.687.123-.031.917a9.185,9.185,0,0,1,1.822,4.242c-.589.844-.878.68-2.109-1.458-.813-1.413-1.3-1.776-1.515-1.765-.54.026-.031.7,1.484,3.114.784,1.287.8,2.088-.088,2.083a9.57,9.57,0,0,1-2.42-2.7c-.351-.678-.788-1.2-.79-.37a10.806,10.806,0,0,0,1.768,2.9c1.134,1.327,1.459,1.594,1.6,2.181.069.28.206.77.3,1.089.291.955.143,1.227-.445.723-.266-.708-.482-.781-1.212-1.326a12.123,12.123,0,0,1-2.028-2.488c-.211-.317-.393-.719-.609-1.041-.549-1.038-1.279-1.128-.751-.081a15.667,15.667,0,0,0,1.08,1.872c.712,1.025.565,1.559-.28,1.555-.361,0-1.373-1.342-2.006-2.39-.412-.684-1.056-1.168-.977-.49A7.918,7.918,0,0,0,94.809,69.1c.812,1.02.919,1.563.13,1.559-.538,0-1-.521-1.687-1.579-.652-1-1.058-1.358-1.242-1.244-.234.145.934,2.136,1.894,3.223.908,1.028.242,1.614-.8.7a11.629,11.629,0,0,1-2.017-2.679c-.569-1.257-.935-.914-.568.082a9.112,9.112,0,0,0,1.8,3.079c.4.409,1.223.729,1.625,1.081,1.14,1,1.861,1.915,1.768,2.079-3.248.186-5.915-3.317-6.645-5.438-.519-1.395-1.11-1.6-.549.369,1.584,4.892,6.522,7.433,9.936,5.24,2.06-1.323.24-4.768-1.446-3.658-.458.3-.479,1.158.1.7,1.095-.86,2.2,1.262,1,1.889-1.68.883-3.543-.844-2.4-2.938,1.129-2.151,5.656-.92,4.77,2.554a6.2,6.2,0,0,1-4.9,3.545c-3.744.071-6.328-2.828-7.769-5.691-.185-.369-.516-1.093-.79-1.683a7.429,7.429,0,0,0-.443-.886c.417,3.477,3.7,7.775,6.647,8.485,4.891,1.162,6.229-1.783,9.429-4.828,0,0,2.338.307,2.42.257a28.932,28.932,0,0,1,4.678-.206,106.6,106.6,0,0,0-1.12,99.057c1,2.115,1.169,1.714-.479,1.283-1.7-.449-3.248.241-4.632-.082-2.863-.59-3.473,1.384-5.672,2.438-2.743,1.047-2.122,2.974-2.776,4.836-.206.288-.356.524-.243.486a1.737,1.737,0,0,0,.811-1.089,4.49,4.49,0,0,1,1.043-2.7c.472-.467.8-.7.916-.5a1.7,1.7,0,0,1-.211,1.154c-.665,1.271.217,5.519.272,2.5a7.555,7.555,0,0,1,3.5-6.17c1.612-.8,2.111-.716.8.511a8.69,8.69,0,0,0-2.565,5.807c-.025.966.355,1.771.491.905-.057-4.435,4.329-9.375,9.032-6.919.234.17.432.492.363.673-4.555-.771-8.518,1.743-7.934,7.7a19.45,19.45,0,0,0,.638-2.331c.718-3.645,4.8-5.24,7.662-4.241.538.229.961,1,.885,1.1-3.5-1.11-7.342,2.233-7.565,5.855-.073,1.178-.045,2.187.552.062,2.261-8.047,9.234-4.4,8.377-3.74-5.4-.651-7.351,3.019-7.227,7.262.077.388.275.517.437.879a13.23,13.23,0,0,1,1.105,5.87c-.055.747.556,5.5-.06,5.3-1.96-.732-3.45-1.6-6.847-.054-.306.017-.406-.154-.3-.422a10.266,10.266,0,0,1,1.6-2.123c2.087-2.248.888-1.645-.828-.087-1.108,1.007-.866.319.177-3.119.423-1.393.159-1.562-1.661-2.5-1.874-.961-3.17-1.108-1.58-.1a13.47,13.47,0,0,0,2,1.075c.83.458.735.65.123,2.659-1.189,3.9-1.6,5.328-1.54,7.952.151,6.383,6.172,5.75,9.6,4.315l.142,4.2,12.909,18.368s-45.123-.047-69.264.354c1.379-3.345,15.973-17.51,16.841-20.044.083.012-1.618-5.179-2.511-7.437-4.221-10.663-9.769-15.146-6.556-22.151.691-1.389.811-1.857,1.337-1.854.713,0,.941.482.139,1.84-3.45,5.844,3.911,15.929,6.4,22.36a72.924,72.924,0,0,1,2.357,7.483c.028.5,1.2.666.87.085-.917-3.286-2.068-6.875-2.6-8.167-1.965-4.749-4.033-7.99-5.948-12.631-1.071-2.933-1.64-6.32.02-9.361.6-1.107.777-1.722,1.176-1.78.343,0,.545.119.567.4a3.34,3.34,0,0,1-.617,1.6c-2.9,4.988,2.255,13.046,4.809,18.792A45.606,45.606,0,0,1,70.62,209.91a.587.587,0,0,0,.968.452c-1.1-6.637-4.352-13.073-7.2-19.274-2.43-4.845-3.342-9.068-.095-13.056.283-.275.889-.23.932.179a5.269,5.269,0,0,1-.694,1.866c-2.861,6.044,1.568,10.953,3.646,16.716,2.028,4.818,3.913,8.866,4.671,14,.573.22.857.5.919-.232-1.483-7.254-4.68-13.775-7.453-20.057-1.281-2.729-1.735-4.038-1.822-5.866-.119-2.514,1.133-5.695,2.256-6.533.291-.218.473-.257.739-.111.365.2.291.334-.429,1.711a9.989,9.989,0,0,0-.219,8.712c2.2,4.8,4.062,8.74,5.378,12.269A42.333,42.333,0,0,1,74.8,210.923s.981.44.835-.218a55.594,55.594,0,0,0-3.489-12.342c-1.41-3.509-3.177-6.885-4.61-10.363A8.874,8.874,0,0,1,70.8,176.992l1.639.036c-.095-.043-3.737,1.418-3.927,6.676-.182,5.011,2.166,8.091,3.865,12.335,2.07,5.12,3.923,9.609,4.364,15.08a1.538,1.538,0,0,0,1.044.15,53.1,53.1,0,0,0-3.023-11.478c-1.614-4.57-3.219-6.6-4.717-11.4-1.013-3.246-.876-7.643,1.381-9.652,3.378-3.449,8.091-.993,6.91,2.954-.911,2.779-4.677,2.226-4.657-.377a1.465,1.465,0,0,1,2.72-.867c.158.247.264,1.328.334,1.369a3,3,0,0,0,.284-1.05,2.312,2.312,0,0,0-3.229-1.843c-1.891.96-3.119,3.168-3,6.123.132,3.143.7,5.177,3.241,10.106,2.966,5.743,3.95,11.962,4.583,16.152.273-.116.6.033.708,0a48.087,48.087,0,0,0-4.606-16.458c-2.807-5.909-3.593-9.524-2.656-12.171.137-.389.268-.682.437-.708.313-.047.41.46.7,1.52a3.423,3.423,0,0,1-.088,1.233c-.244,2.423,1.436,7.463,3,9.7.457.639,1.042.617.537-.517a19.255,19.255,0,0,1-2.719-9.143c-.038-1.047,1.168-.577,1.195-.052a12.222,12.222,0,0,0,1.06,5.129c1.632,2.82,2.54,2.943.87-.206-.37-.731-1.432-3.821-1-4.883.238-.217.527-.255.671-.039A12.166,12.166,0,0,0,79,189.54c.606.7.706.384.388-.49-.532-1.011-2.2-4.393-1.431-5.155.248-.206.1-.094.775,1.015a12.518,12.518,0,0,0,1.9,2.6c.605.6.752.2.126-.859-1.249-2.108-1.96-3.86-1.521-4.3s.539-.233,1.525,1.463c.439.755,1.075,1.868,1.293,2.131s.413.328.418.112a8.3,8.3,0,0,0-2.673-4.789,11.537,11.537,0,0,1-.065-1.808c2.616,1.361,2.722,2.9,4.456,5.26.178.176.432-.039.356-.365a14.185,14.185,0,0,0-1.729-3.274c-.506-.678-.529-1.067-.1-1.263.693-.316,1.661.724,2.692,2.581.479.862,1.118,1.362,1.12.91a10.325,10.325,0,0,0-1.5-3.114c-1.024-1.07-.518-1.818.667-.828a5.343,5.343,0,0,1,2.017,2.422c.438.955.815,1.077.817.315a6.517,6.517,0,0,0-2.382-3.526c-.742-.449-1.163-.949-.955-1.283.651-.965,3.282,1.5,4.18,3.786.265.676.73,1.021.844.723.2-.151-.331-1.8-.878-2.565-.9-1.747-3.038-3.435-4.3-3.231-.244.04-.916-1.392-.916-1.392,3.226-.525,6.36,3.374,6.917,4.833,1.058,2.768,1.6,2.443.671.015-1.807-4.745-7.424-7.4-10.541-5.108-1.775,1.307-.713,4.434,1.112,3.9.726-.275,1.429-1.021.153-.775a1.268,1.268,0,0,1-.425-2.476c2.329-.7,2.863,3.042.981,3.876a2.537,2.537,0,0,1-3.711-2.577c.345-4.088,5.321-5.27,10.234-1.964,1.382.93,3.082,3.962,3.666,5.882.193.635.844.857.923.777.187-.188-1.364-3.562-1.874-4.419-2.139-4.943-9.873-5.187-9.873-4.932a28.494,28.494,0,0,0-5.719,5.093L69.72,176.1c17.611-28.538,19-70.5.932-100.2.231.151,3.472,1,4.59.109a1.923,1.923,0,0,1,1.971-.206,3.1,3.1,0,0,0,3.221-.987c.841-.777.858-1.016,1.4-.945,1.6.21,2.669-.737,3-3.071.13-.917.219-1.87.088-1.73a9.259,9.259,0,0,0-.379,1.372,3.715,3.715,0,0,1-1.155,2.321c-.872.737-1.376.325-1.012-.793a4.9,4.9,0,0,0,.157-3.421c-.083-.152-.1.423-.222.882-.952,3.657-1.95,5.514-3.675,5.942-.81.2-1.185.077-.923-.394,3.044-3.273,2.841-6.9,2.612-6.589-.647,2.1-1.849,5.225-3.824,6.511a5.527,5.527,0,0,1-5.59.284c-.789-.529.4-.686,2.188-.71,3.007-.041,5.817-4.093,5.35-7.508-.11-.631-.281.046-.525,1.084-1.109,3.7-3.012,6.3-7.359,5.521a1.843,1.843,0,0,1-.751-.416c-.708-.5-.447-.835.958-.65,3.144.415,5.88-2.559,5.863-6.154-.008-1.724-.253-1.7-.525-.419-.382,1.81-1.779,7.365-6.864,5.551-.915-.5-1.415-1.142-1.089-1.236,2.966.6,5.683-.054,6.739-3.985a8.258,8.258,0,0,0-.116-4.743c-.148-.943-.462-1.662-.568-2.62a53.589,53.589,0,0,1-.568-8.21c.244-.245.286-.191,1.139.381,1.676,1.123,2.944.864,4.648.2,2.192-.8,1.993-.655-.3,1.959a13.08,13.08,0,0,0-1.016,1.314c-.584,1.1.51.293,1.33-.746,1.14-1.445,1.378-1.778,1.6-1.777a18.994,18.994,0,0,1-.771,4.739c-.378,1.419-.374,1.747.522,2.111.388.158,1.137.468,1.553.669,1.875.9,1.7.168.207-.685C80.539,57.7,80.522,57.76,81.1,55.848a47.818,47.818,0,0,0,1.376-6.4c.907-5.488-3.2-8.506-8.643-6.59-.311.159-.672-2.884-.621-3.689.048-.29-.823-.227-1.538-1.112.218-.2-8.033-10.629-11.875-16.957,23.916.06,47.481-.439,69.118-.381Zm-17.72,19.6a.639.639,0,0,1,.084.063C111.247,40.334,111.218,40.314,111.2,40.314Zm18.674-19.107h23.74v50.46l-2.346.05s-3.858-6.7-4.874-9.862c-.254-.791-.7-1.878-.871-2.3-.392-.969-.667-1.088-.145-1.68a4.024,4.024,0,0,0-.177-4.735c-.314-.375-.476-.248-.46-1.158a3.836,3.836,0,0,0-.119-1.687c-.343-.675-.575-.723-.084-1.466a12.856,12.856,0,0,0,1.484-3.032c.465-1.6.137-1.9,1.173-1.524a3.54,3.54,0,0,0,4.71-3.684,3.72,3.72,0,0,0-4.522-3.605c-.553.14-.663.092-1.514-.447a6.128,6.128,0,0,0-.932-.6c-.4-.152-.722-.139-.886-.424a3.032,3.032,0,0,0-2.55-1.391,5.12,5.12,0,0,1-1.975-.374c-.426-.224-1.623-.041-3.144-.272a5.546,5.546,0,0,0-1.549.167c-.937.012-.555-.1-.733-.824-1.174-3.746-4.6-3.3-6.173-.482a14.074,14.074,0,0,0-1.212,4.44l-9.234-.14Zm-71.461.109c3.45,4.43,6.75,9.4,10.227,13.917,4.279,5.478,4.42,6.107,3.271,11.62-.643,3.116-.918,3.835-2.22,3.6a2.157,2.157,0,0,0-2.424,1.979c-.313,2.307,1.89,3.727,4.1,2.573,1.167-.608,1.206-.674.817,1.337-.557,2.883-1.674,5.365-2.393,5.284-1.855-3.976-6.369-1.147-4.87,2.986-.469.721.147,1.636.383,2.392a12.893,12.893,0,0,1-2.569.95C50.077,71.738,34.622,81.615,26.061,90.887V21.507Zm72.642,9.466a2.056,2.056,0,0,1,1.465.54c1.1,1,.845,2.4-.682,5.035-1.6,3.67-1.165,6.561-.8,10.414-.01,2.238-.759,4.364-1.952,5.283a2.122,2.122,0,0,1-3.313-2.526c.513-1,1.6-.419,1.86-1.369.354-3.5-.509-7.077-.568-10.515a12.865,12.865,0,0,1,1.212-4.926,3.479,3.479,0,0,1,2.776-1.936ZM134.1,36.77c-.439.369-1.169.377-1.255-.084a5.209,5.209,0,0,1,.634-2.191C135.06,34.121,134.556,36.372,134.1,36.77Zm2.366-2.4c1.308-.051,2.17,3.329,1.035,5.307-.215.041-1.8.03-1.809.062a9.213,9.213,0,0,1,.195-1.734,3.321,3.321,0,0,0-.011-1.636c-.429-1.549-.709-1.84.591-2Zm2.492.047c.048,0,.1,0,.154,0,1.328.008,2.084,2.6,1.668,5.431-.06.406-.094.833-.242.929a6.276,6.276,0,0,0-2.124.4,2.967,2.967,0,0,1,.111-1.682,5.689,5.689,0,0,0,.039-3.627c-.307-1.2-.318-1.43.395-1.45Zm3.31.746c1.459.248,1.554,4.333.955,5.66-.143.2-.694.149-.89.222-1.241.359-.965.546-.821-1.45a13.818,13.818,0,0,0-.08-3.565c-.1-.5-.138-.842.219-.874a1.488,1.488,0,0,1,.617.008Zm-7.282,1.6c.581.8.113,2.668-.33,3.36-.506.763-.71.827-.433,1.161a1.653,1.653,0,0,1,.211,1.166c-.278.561.436.662,1.085,1,1.053.557,1.563,1.584,2.349,3.453.274.65.836.445.564-.256-.234-.6-.324-1.483-.486-2.073-.168-.606.016-.909.707-.731,1.039.267.9.017,1.276-.124.833-.467,1.393.194.889.559a6.325,6.325,0,0,1-1.588.528c-.579.161-.445.725.138.723a17.588,17.588,0,0,0,3.088-.749c2.884-.883,2.981-1.353,2.711.307a5.055,5.055,0,0,1-3.5,4.4,17.529,17.529,0,0,1-7.389-.175c-1.664-.763-1.775-1.3-2.278-2.78-.689-2.03-1.095-5.466-.3-7.464.7-1.686.627-1.509,1.3-1.424a1.428,1.428,0,0,0,1.572-.393c.09-.176.316-.5.418-.492Zm11.047,1.217a4.5,4.5,0,0,1-.13,2.531c-.179.327-1.19.31-1.58.314-.231.055-.213-3.051.035-3.389.587-.893,1.346-.176,1.675.544Zm-29.269-.537,2.857.036v.7l-3.371-.023Zm10,.121v.913l-4.3.008v5.723l4.813.015.026,1.19-6.442-.024.019-7.821,5.883-.008Zm21.868-.183c4.411.982,2.443,5.921.79,6.22-2.061.373-3.807.138-3.236-1.7.573-1.244.175-2.8.337-3.926A2.873,2.873,0,0,1,148.627,37.379Zm-33.253,1.734,4.245.042V40.1l-4.851-.011Zm9.429.871a1.244,1.244,0,1,1-1.227,1.244A1.235,1.235,0,0,1,124.8,39.984Zm11.975.493c.79.088.858,1.312.536,1.67a.882.882,0,0,1-1.421-.4.97.97,0,0,1,.885-1.271Zm-22.589.533,5.43.015v.766l-5.484.047-.146-.494Zm30.565.33c.753-.018,1.215.624.744,1.171C144.789,43.308,143.343,42.088,144.754,41.34ZM86.9,43.013c-1.215,1.04-.241,2.062,1.373,1.077,3.472-2.117,8.594-.439,11.932,1.325.654.339.744-.452.1-1-3.084-2.752-9.657-4.33-13.4-1.4Zm52.615-1.446c.848,0,.836,1.075.291,1.457a.941.941,0,0,1-1,.03c-.5-.2-.125-1.483.71-1.488Zm3,.016c1,.05.893,2.1-.625,1.36A.78.78,0,0,1,142.514,41.583ZM114.45,42.639l5.276.046v.871l-4.935-.05Zm-34.1,2.049c1.442,1.159.995,1.23-1.4.377a7.267,7.267,0,0,0-4.095.264c-1.157.464-1.425.33-.924-.455,1.346-1.531,5.054-1.221,6.415-.186Zm6.933,1.92c-.145.362-.639-.29-1.308-.163-.954.18-.678.225.33,1.387s1.338,1.438,1.277,1.886c-.091.659.092,1.021.74.948.312-.035.681.331,1.158.77A16.749,16.749,0,0,0,92.5,53.948c2.186.956,1.2-.123-.2-1.1-2.329-1.629-3.139-2.715-1.484-2.134a8.224,8.224,0,0,0,5.932-.574c.678-.415,1.107-1.05,2.063-.74,1.343.435,1.857-.367,1.484-.816-.609-.4-2-.869-3.32-1.769a8.207,8.207,0,0,0-7.777-.241c-1.167.689-1.573.2-.429-.478,4.587-2.507,8.217-.106,11.154,1.7.509.313.866.287.867.065-.078-.727-1.385-1.174-1.913-1.5-4.092-2.525-8.393-3.33-11.6.253Zm27.858-2.22h4.586v.918l-4.249-.02Zm-37.314,1.17c1.27-.008,4.033,1.15,3.987,2.107-.053.364-.745.038-1.345-.334a6.81,6.81,0,0,0-4.625-.6c-1.289.244-1.7.459-1.883.3C73.514,46.025,76.646,45.564,77.826,45.558Zm49.588.684.008,1.645c-2.489.184-3,2.988-1.4,4.55,1.309,1.28,3.473.775,4.56-1.04.191-.323.213-.517.33-.357a2.586,2.586,0,0,1,.2.7c.173.863-.072,1.084-.636,1.824A3.64,3.64,0,0,0,130,57.388c.157.309.486.749.429.952.319-.009-2.826,8.914-7.421,13.411-.769.518-1.327-.091-.93-.928,3.743-8.671-3.418-16.726-6.2-24.475l11.531-.1Zm-33.272,1.5.655.059c-.527,3.995-4.351,3.351-4.5.1l.552-.019c.745,3.027,3.3,1.787,3.294-.136Zm-21.6.082a1.937,1.937,0,0,1,.276.7c0,.929-.015,2.274-.038,2.682-.222,3.844-5.033,4.557-4.667,1.267a1.263,1.263,0,0,1,2.454-.287c.625,1.589.736-.383.744-1a18.066,18.066,0,0,0,1.231-3.359Zm23.184.272a1.437,1.437,0,0,1,.829.482c.316.345.2.516-.541.9-.8.417-1.162.381-.874-.463C95.318,48.49,95.472,48.086,95.725,48.093Zm35.992.2c.108.008.387.15.322.568-.109.7-.7,1.093-.859.929C131.279,49.424,131.4,48.441,131.717,48.3ZM89.981,49.644c-.094.282-.259.16-.678-.2-.464-.4-.439-.654.038-.941.686-.419.728.883.641,1.143ZM75.414,48.6c.8,2.572,2.439,2.245,3.171.125l.7-.012c-.155,3.312-4.29,3.253-4.326.051Zm-1.45.319c.245-.039.069.82.069.82s-.679-.355-.28-.731A.548.548,0,0,1,73.964,48.921Zm6.074.218a.825.825,0,0,1,.414.175c.4.269.333.428-.126.816-.707.6-1.026.265-.645-.536.143-.3.249-.449.357-.455Zm52.814.559a6.785,6.785,0,0,1,1.606.358,17.109,17.109,0,0,0,8.509-.144c.88-.246,1.534,1.319,1.059,2.457-.21.5-.173.565.468,1.24a3.441,3.441,0,0,1,.364,3.907c-.5,1.023-.469.932.126,2.679A61.973,61.973,0,0,0,150.12,71l-2.636-1s-11.9,10.374-20.3,10.767l3.041,4.805a14.261,14.261,0,0,0,13.732-1.337c-.108.4,5.322,3.093,9.782,3.386l.026,3.234c-3.308-.376-6.661-.453-9.735-2.414,0,0-2.826,1.2-5.657,2.1l15.853,16.624.008,2.778s-6.767-6.4-13.731-13.622l.149,35.5,13.716.272c-.431,9.239-.257,15.112-.164,25.693a90.619,90.619,0,0,1-23.64,17.536,68.714,68.714,0,0,1-9.913-12.323c-.059-.093.284-.271.225-.364-.086-.136-.573-.187-.662-.32-1.714-2.587-5.7-9.761-5.066-9.929,1.219.085,6.867-.623,7.992-4.055a5.618,5.618,0,0,1,.03-1.547,13.263,13.263,0,0,0-.073-6.48c-1.214-3.237,2.438-2.2,2.562-1.983V126.088c-4.752,3.862-9.546,7.662-15.9,9.252-3.95-20.19,2.315-45.3,20.178-62.328l-.979-.085c-18.353,19.251-23.166,40.421-20.035,62.716,0,0,.117.7.135.933.042.554-.089.766-.576,1.167-.463.309-.885.641-.843,1.022.078.716-.6.739-1.488.735-.409-.363-.959.094-1.288.26-.461.069-.69-1.836-1.277-.439-.224.882-.649.948-1.63.509-.617-.182-.631.128-.039.851.819.893,1.511,2.228,1.377,2.628a1.676,1.676,0,0,0,1.081,2.317c-.071.006-.755,2.738,1.185,2.659a18.352,18.352,0,0,1,2.182.327,1.031,1.031,0,0,1-.307,1.05l-1.35-.685-.352,1.629-1.8-.128,4.375,5.477.51-4.272,5.116.657c.821,2.16,5.989,14.135,15.867,23.075-.108.293-6.8,3.089-6.8,3.089l-1.058-3.325-.848,1.236-1.51-.392-.177,1.4-1.346.439,2.426,1.6-6.15,1.78C97.113,153.06,89.355,114.2,110.814,72.814l5.422.07-1.058,1.834,1.542-.248.435,1.337,1.132-.542,1.138,1.446,1.3-3.862s3.841.088,4.32.038c.376-.043,8.12-6.629,7.953-6.88-.12-.182-8.432,5.977-8.712,5.741,0,0-.834.2-.184-.587a29.663,29.663,0,0,0,3.175-4.525,21.638,21.638,0,0,0,3.3-8.226,1.612,1.612,0,0,0-.08-.777c-.747-1.5-.582-2.482.759-4.253.469-.62.5-.774.364-1.155a1.944,1.944,0,0,1,.606-2.173,1,1,0,0,1,.636-.354ZM87.164,55.693c3.4,1.417.67,4.555-1.857,1.819-1.325-1.433-2.371-1.342-3.091-.3-.325.472.148,1.3.568,1.038.389-.244.789-.534,1.357,0,4.3,4.017,7.394-1.606,3.685-3.005-.459-.214-1.111.26-.662.447Zm-14.017-.136a.233.233,0,0,1,.119.046,4.509,4.509,0,0,1,.011,2.119c-.537,3.025-2.664,10.053-7.028,6.613-1.733-1.366-.157-4.8,1.917-3.631,1.62.91.526,3.081-1.227,1.835-.851-.605-.581.642.138,1,1.219.646,3.425-.461,4.46-2.434a18.963,18.963,0,0,0,1.235-4.179c.218-1.007.236-1.361.375-1.368Zm.368,5.236c.36,2.187-1.282,6.017-3.619,6.582-1.79.433-4-.749-3.843-1.843.046-.317.174.1,1.8.373,2.264.38,3.7-.859,5.008-3.712a9.308,9.308,0,0,1,.659-1.4Zm5.633,1.046a8.588,8.588,0,0,1-.218,1.33c-.241,1.025-.393,1.413.713.905a3.064,3.064,0,0,1,2.907-.058,3.986,3.986,0,0,0,3.823-.058c1.248-.421,1.857-.426,2.554-.02,1.272.742.835.269.671-1.6-.114-1.317-.468-1.143-.924-.645a1.292,1.292,0,0,1-1.58.031,2.42,2.42,0,0,0-2.3.081c-.377.311-.922.354-1.66-.151-.49-.335-.762-.16-1.362.112a1.488,1.488,0,0,1-1.9-.213c-.487-.361-.715-.247-.721.287Zm-4.9,1.571c.129,0,.143.5.054,1.52-.412,3.75-3.309,5.838-6.718,4.023-1.494-.864-1.291-1.473.18-.933,2.344.862,4.712-.343,5.87-3.425C73.931,63.805,74.134,63.411,74.248,63.41Zm8.321,2.674c1.686.707,3.555.483,4.031-.144.534-.7-.286-.587-.714-.482a4.875,4.875,0,0,1-3.087-.042C81.051,64.732,81.162,65.473,82.569,66.084Zm-17.589,2.1a42.95,42.95,0,0,1,4.356,6.325C83.1,98.2,87.507,128.131,78.458,155.306a97.859,97.859,0,0,1-9.912,21.28l-4.713.051,1.619-1.87-2.194.163-.134-1.236-1.664.544-.8-1.866-1.506,4.273-8.736.023c20.459-20.155,24.489-44.581,20.673-64.19,0,0,1.71-1.084,1.948-1.719a4.059,4.059,0,0,1,.3-.905c.761-.5,1.266-1,1.642-.9a.762.762,0,0,1,.483.388c.721,1.071.876,1.238,1.269.16.283-.774.161-1.054,1.089-.906.543.292,1.266.284,1.2.175-.049-.081-.819-1-1.185-1.52-.863-1.232-1.111-1.455-1.031-1.994a2.209,2.209,0,0,0-.928-1.933c.116-2.214-.723-2.436-3.1-2.931A2.075,2.075,0,0,1,73,99.361l1.4,1.128L74.9,98.4l1.894.1L71.3,93.114a41.2,41.2,0,0,1-.039,4.521c-2.574-.142-5.113-.984-5.152-.824a69.8,69.8,0,0,0-15.62-22.606l6.074-2.958,1.722,3.328.422-1.886,1.507.268.253-1.209,1.664-.237L60.3,69.742Zm36.171,3.892c.232.3.419.317.729.587l-.621.447a2.768,2.768,0,0,0-.108-1.034ZM60.739,73.191a.947.947,0,1,0,.931.948A.944.944,0,0,0,60.739,73.191Zm5.067.15a.949.949,0,1,0,.936.948A.942.942,0,0,0,65.806,73.341Zm-16.326.693c3.008,2.534,5.773,5.836,9.127,11l-.07.7,1.024.385s5.579,7.444,5.285,10.752c-1.916.406-3.666-.121-7.09,3.126-1.617-.882-2.575-.6-4.249-.105a1.177,1.177,0,0,0,.605.983,2.166,2.166,0,0,1,2.988-.38c-.237.1-.841,7.5.333,9.073.885,2.511-1.439,2.034-3.052,1.415l.464,11.744c5.306-6.137,16.513-10.229,15.718-9.785,5.625,30.122-7.748,50.216-21.746,64.945l7.335.043s-6.324,10.284-6.794,13.128c.359.944,1.354,2.9-.326,4.276-.569.632-.629,3.5-.629,3.5-3.858.134-7.2-1.223-11.65.357-.46.157-.56-2.455-.583-2.927-2.485-2.234-.209-6.071.128-5.789a91.631,91.631,0,0,0-6.04-13.105s-2.431-.131-3.912-.217c-.308-.262-.508-7.226-.2-7.394,10.994.884,28.2-.128,28.2-.128l-4.617-6.539c-5.686-2.248-13.5,1.59-13.125,1.793.019.022-6.245-3.464-10.591-2.968l.143-3.415a19.954,19.954,0,0,1,10.53,2.572l5.282-1.994L25.783,141.859l.187-2.838c5.277,4.95,13.931,14.524,13.931,14.524l.012-36.146-13.92-.035-.372-7.3-.36-.637-.165-5.237.387-.532-.134-2.239-.131-.319-.176-5.349.3-.451.046-3.367c6.727-6.675,24.093-17.9,24.093-17.9Zm11.891,1.015,1.622,7.207,1.089-1.368,1.672.532.115-1.66,1.523-.536Zm55.315,1.2a.949.949,0,1,0,.936.949A.942.942,0,0,0,116.686,76.247Zm-4.379.594a.949.949,0,1,0,.936.948A.942.942,0,0,0,112.307,76.841Zm-53.635.84a.949.949,0,1,0,.935.948A.942.942,0,0,0,58.672,77.681Zm56.993.571-6.511,6.208,1.825-.077.327,1.811,1.634-.758,1.322,1.236Zm2.771,2.086a.949.949,0,1,0,.935.949A.943.943,0,0,0,118.436,80.338ZM66.655,81.56a.949.949,0,1,0,.936.949A.942.942,0,0,0,66.655,81.56Zm4.049.793a.949.949,0,1,0,.936.949A.942.942,0,0,0,70.7,82.353Zm-3.673,1.412c.179,2.536.471,5.544.537,8.086L68.8,90.618l1.426.587.506-1.559,1.553-.077Zm40.09,2.116a.949.949,0,1,0,.936.948A.942.942,0,0,0,107.121,85.881Zm-42.774.166a.949.949,0,1,0,.936.948A.942.942,0,0,0,64.347,86.047Zm46.484.23a.943.943,0,0,0-.936.949.936.936,0,1,0,1.871,0A.942.942,0,0,0,110.831,86.277Zm-.555,2.049-5.4,5.628,1.768.167.556,1.6,1.131-.971,1.373,1.018Zm2.964,1.206a.949.949,0,1,0,.936.949A.942.942,0,0,0,113.24,89.532ZM70.682,91.287a.949.949,0,0,0,0,1.9.949.949,0,0,0,0-1.9Zm-23.061.769-1.364,1.057a4.132,4.132,0,0,1,1.756,1.4,22.37,22.37,0,0,1-.392-2.455Zm27.486.638a.949.949,0,1,0,.935.949A.943.943,0,0,0,75.107,92.694Zm-6.7,1.353a.949.949,0,1,0,.935.949A.943.943,0,0,0,68.4,94.047Zm38.652,1.911a.949.949,0,1,0,.936.949A.942.942,0,0,0,107.056,95.958Zm-3.693,1.392a.949.949,0,1,0,.936.949A.942.942,0,0,0,103.363,97.35Zm37.694.235L143,99.727v31.341l-1.9.038Zm-75.683.221c1.584,0,3.35.234,3.912,1.209.874,1.095-.985.671-2.55.91-1.446.179-.608.478,1.434.6,2.813.168,3.919.242,4.338.9a5.071,5.071,0,0,1,.114,1.685l-3.195-.152a18.76,18.76,0,0,0-3.121.1c-.391.1-.279.42-.146.556a23.813,23.813,0,0,0,2.826.129c4,.106,4.882.243,5.165,1.547.215,1.195-.747,1.013-4.854.56a5.785,5.785,0,0,0-3.075.416c-.451.224,1.305.444,1.879.349a29.755,29.755,0,0,1,3.965.416c.816.126.1.1-.315.607-.273.417-.186.9-.613,1.131-.524.281-1.562.276-3.425.276-2.129,0-3.122.524-.2.653,1.888.083,2,.05,2.155.6.427,1.362-.482,1.6-2.408,1.912a15.583,15.583,0,0,1-3.317,0c-4.073-.293-5.485-1.278-6.036-3.1-2.054-6.79.482-10.936,6.416-11.27.329-.017.685-.031,1.05-.031Zm41.173.3-4.6,6.784,1.773-.7.844,1.839,1.419-1.026,1.417.886Zm-34.416.825c.238.3.134.516-.261.734a1.66,1.66,0,0,1-1.277-.116c-.494-.217-.544-1.113-.138-1.209a1.883,1.883,0,0,1,1.676.591Zm-33.319-.346L36.7,100.92s1.944-.7,2.986-1.12Zm70.6,1.041a.949.949,0,1,0,.936.949A.943.943,0,0,0,109.416,99.629Zm34.249.821s2.343,2.346,3.305,3.331l-.87,0,.023,1.851,2.773.031,1.522,1.512-4.234-.019v1.889l5.242,0-.026-.809,2.071,1.9.245,21.016-9.989-.031c-.037-10.348-.009-20.324-.061-30.672Zm-68.528,2.278c-.143.454-.464.455-1.012.229-.811-.334-.695-1.241-.08-1.337,1.159-.134,1.373.408,1.093,1.108Zm3.145.4a.949.949,0,1,0,.935.949A.943.943,0,0,0,78.282,103.124Zm-3.294.727a1.551,1.551,0,0,1,.935.42c.512.524.331,1.012-.241,1.314-.642.339-1.094-.123-1.281-.894A.615.615,0,0,1,74.988,103.851Zm29.371,2.488a.953.953,0,1,0,.939.952A.945.945,0,0,0,104.359,106.339Zm-30.921,1.155a.787.787,0,0,1,.629,1.31,1,1,0,0,1-1.676-.233A1.012,1.012,0,0,1,73.438,107.494Zm27.568.385a.949.949,0,1,0,.936.948A.942.942,0,0,0,101.006,107.879Zm3.324.629-4.188,7.122,1.7-.68,1.028,1.372,1.058-.937,1.6.793ZM71.471,109.7c.749,0,.959.6.414,1.147a.822.822,0,0,1-1.215.039C70.022,110.362,70.519,109.693,71.471,109.7Zm35.792.088a.949.949,0,1,0,.936.948A.942.942,0,0,0,107.263,109.786Zm-30.485.748a.91.91,0,0,0-.9.948.936.936,0,1,0,1.871,0,.975.975,0,0,0-.974-.948Zm69.372.21v2.013l5.276,0v-2.013Zm-69.3,1.788-2.02,7.483,1.691-.975,1.054,1.092.982-1.225,1.764.467Zm3.593.812a.949.949,0,1,0,.936.949A.942.942,0,0,0,80.44,113.344Zm-6.587.381a.949.949,0,1,0,.935.949A.943.943,0,0,0,73.853,113.725Zm72.293.591v1.808h5.276v-1.8Zm-43.42,2.364a.949.949,0,1,0,.935.948A.942.942,0,0,0,102.726,116.68Zm43.424,1.011v1.947h5.276v-1.947Zm-108.8.237,1.856.035.031,33.949-1.81-1.94Zm-.774.066-.092,31.03-3.517-3.748.936-.011V143.15l-3.045-.023-1.3-1.283,4.341,0v-2.076l-5.15-.02v1.256l-2.531-2.737.043-20.261Zm66.283.948-2.817,7.383,1.771-1.023.917.914.947-.867,1.61.8Zm-74.1.354-.027,1.987h5.2V119.3Zm77.288.4a.949.949,0,1,0,.936.949A.942.942,0,0,0,106.054,119.7Zm-6.368.107a.949.949,0,1,0,.936.948A.941.941,0,0,0,99.686,119.8Zm-22.018.352a.949.949,0,1,0,.936.949A.942.942,0,0,0,77.668,120.155Zm68.482.766v2.088h5.276v-2.088Zm-68.6,1.178-.782,1.225-1.791-.618,2.443,7.491,3.064-7.814-1.76,1.018Zm-48.787.544v1.983h5.173v-1.983ZM146.15,124.42v2.068h5.272V124.42H146.15ZM28.766,126.15v1.986h5.173V126.15Zm74.03.373a.953.953,0,1,0,.94.952A.945.945,0,0,0,102.8,126.523Zm-28.169.991a.953.953,0,1,0,.94.953A.947.947,0,0,0,74.627,127.514Zm6.005.179a.953.953,0,1,0,.94.953A.947.947,0,0,0,80.632,127.693Zm65.518.132v1.866h5.272v-1.866H146.15Zm-43.362.871-1.119,1.194-1.607-.463,3.643,6.889,1.84-7.41-1.606,1.038Zm-74.022.7v2.255h5.173V129.4Zm48.822,1.022a.953.953,0,1,0,.939.953A.947.947,0,0,0,77.588,130.418Zm-.061,1.963c-.4.288-.576.794-.994,1.054l-1.71-.739,1.028,9.381,4.747-8.864-2.17.37Zm-48.761.308v2.344h5.173v-2.344Zm77.694,1.087a.953.953,0,1,0,.939.952A.946.946,0,0,0,106.46,133.776Zm-6.074.109a.952.952,0,1,0,.939.952A.946.946,0,0,0,100.386,133.885Zm-71.62,2.205v2.348h5.173V136.09Zm75.008.524a.953.953,0,1,0,.939.952A.945.945,0,0,0,103.774,136.614Zm13.262.075c5.031.162,5.768,1.8,5.8,7.467.025,4.521-1.3,6.288-4.551,7.16a22.014,22.014,0,0,1-6.859-.384c-.021-.387-.646-1.286-.787-1.976a18.791,18.791,0,0,1,3.243.235c1.551.149,1.951-.1,1.461-.412-2.92-.7-4.907-.508-7.712-1.054a4.388,4.388,0,0,0-.717-1.84c.152-.062,4.323.394,6.524.323.969-.041.385-.5-.008-.587-2.567-.372-4.234-.313-6.948-.66a2.615,2.615,0,0,0-.717-1.881s1.373-.013,4.2.031c1.489.023,2.786.086,3.437.063,1.093,0,.994-.518.046-.589-1.157-.131-5.707-.158-5.707-.158a4,4,0,0,0,.606-2.247s1.179.024,1.929,0c3.646-.138,4.276-.08,4.344-.218.479-.444-.815-.618-2.163-.614-.581,0-1.428.13-1.422-.191a3.366,3.366,0,0,0-.3-1.522,15.3,15.3,0,0,1,6.3-.942Zm-43.375,1.162a.953.953,0,1,0,.94.953A.947.947,0,0,0,73.661,137.851Zm35.888.2c.62,0,.816,1.134.234,1.311-.893.27-1.381.057-1.35-.479.018-.3.715-.833,1.116-.832Zm-29.752.984a.953.953,0,1,0,.939.952A.946.946,0,0,0,79.8,139.033Zm26.754,1.069c2.126-.019,1.025,2.912-.61,1.854C105.13,141.432,105.7,140.108,106.551,140.1Zm-33.622,2.344c-.043,0-.066.04-.061.148l.491,8.91,5.115-8.323-2.032.766-.874-1.345-1.1.874c-.452.361-1.306-1.008-1.541-1.03Zm31.651.912c.954.135,1.59,1.1.928,1.568C104.017,145.589,103.219,143.423,104.58,143.358Zm-2.291,1.956a.953.953,0,1,0,.94.952A.945.945,0,0,0,102.289,145.314Zm3.614.806a.83.83,0,0,1,.391,1.559,1.154,1.154,0,0,1-.905-.031c-.949-.71-.457-1.453.514-1.528Zm-35.176,1.469a.953.953,0,1,0,.939.953A.947.947,0,0,0,70.727,147.589Zm71.761,1.194-3.481,1.185v1.67c1.52-.491,2.388-1.743,3.482-2.855Zm-32.628.806c.6.256.768,1.086.248,1.364a1.925,1.925,0,0,1-1.788-.177c-.7-1.143.808-1.467,1.54-1.187Zm-32.824.329a.953.953,0,1,0,.94.952A.945.945,0,0,0,77.036,149.918Zm-3.849,1.646a.84.84,0,1,0,.829.839A.833.833,0,0,0,73.187,151.564Zm39.053,1.416a.953.953,0,1,0,.94.952A.946.946,0,0,0,112.24,152.98Zm-42.079.052-.046,8.416,5.537-6.888-1.921.423-.821-1.706-1.184.781Zm35.146,1.938a.953.953,0,1,0,.94.953A.946.946,0,0,0,105.307,154.97Zm27.71.033-.908,1.57,2.576-1.45Zm-23.96,1.118a.953.953,0,1,0,.94.952A.946.946,0,0,0,109.057,156.121Zm3.165,1.028-1.123,1.625-1.48-.482-.437,1.547-1.776-.066,5.771,5.092Zm-44.98.65a.953.953,0,1,0,.939.952A.946.946,0,0,0,67.242,157.8Zm86.371,2.287v69.207h-32.18l-13.509-18.97a25.132,25.132,0,0,1,1.148-10.262c1.321.927,4.215.421,4.117-3.175-.065-2.354-3.645-3.559-5.429-1.788.092-2.275,1-5.7,2.316-6.705.9.831,1.1,2.059,3.139,1.716a2.811,2.811,0,0,0,1.968-3.8,5.085,5.085,0,0,1-.246-1.47,9.745,9.745,0,0,0-.038-1.489,10.088,10.088,0,0,1-.139-1.08c15.041-3.47,28.153-12.7,38.852-22.188Zm-79.794.279a.953.953,0,1,0,.94.952A.945.945,0,0,0,73.819,160.365Zm-4.43.93a.953.953,0,1,0,.94.953A.947.947,0,0,0,69.389,161.295Zm46.488.459a.953.953,0,1,0,.939.952A.946.946,0,0,0,115.877,161.754ZM66.02,162.77l-1.465,8.867,6.4-6.628-1.737-.039-.345-1.512-1.626.533Zm43.488,1.892a.953.953,0,1,0,.939.952A.946.946,0,0,0,109.508,164.662Zm4.145,1.034a.953.953,0,1,0,.939.952A.946.946,0,0,0,113.653,165.7Zm-51.617,1.156a.953.953,0,1,0,.939.952A.946.946,0,0,0,62.036,166.852Zm55.356.719-1.53,1.178-1.408-.872-.329,1.883-1.2.637,5.035,3.577Zm3.72,2.536a.953.953,0,1,0,.94.952A.945.945,0,0,0,121.112,170.107Zm-53.125.321a.953.953,0,1,0,.939.953A.947.947,0,0,0,67.987,170.428Zm-4.172,1.244a.953.953,0,1,0,.939.953A.947.947,0,0,0,63.815,171.672Zm54.89,2.518a.953.953,0,1,0,.94.953A.946.946,0,0,0,118.705,174.19Zm-3.938.853a.953.953,0,1,0,.94.952A.945.945,0,0,0,114.767,175.043ZM78.4,176.4a.021.021,0,0,1,.016.008,1.647,1.647,0,0,1,.142,1.423c-.15-.071-.825-.708-.652-.925.079-.1.407-.506.494-.5Zm-21.318,1.494a6.466,6.466,0,0,1,1.108.136,5.314,5.314,0,0,1-.464,1.326,11.889,11.889,0,0,0-.169,9.213c1.954,4.221,7.473,14.2,7.063,15.119l-12.194.05.053-1.88c3.427-.136,3.965-2.26,3.111-4.016a2.949,2.949,0,0,0-3.77-1.273c-2.191.921-2.327,2.019-3.109,3.721l-.349-.449a3.913,3.913,0,0,0,.824-2.71c-.053-.953-.081-.69.248-1.213a4.6,4.6,0,0,0,.659-4.784c-.228-1.662,5.71-12.266,6.989-13.24Zm-27.885.272c3.468,2.8,6.47,12.221,6.288,12.367a4.115,4.115,0,0,0,.042,5.971,5.535,5.535,0,0,0,.372,2.678c-1.253,2.635-1.474,2.834-1.58,5a13.346,13.346,0,0,0-1.38-.032c-5.747-.027-6.015,7.381-.273,7.787.787.056,1.057-.125,1.53.35.481.6.912,1.212,1.733.9a1.579,1.579,0,0,1,.84.5,2.413,2.413,0,0,0,2.5,1.088,5.149,5.149,0,0,1,1.257.319,2.16,2.16,0,0,0,2.06.4,1.221,1.221,0,0,1,.912.027,2.09,2.09,0,0,0,1.986-.1c.771-.405.942.245.905.844a2.655,2.655,0,0,0,1.78,3.16c2.758.865,4.15-.855,4.743-4.268.147-.748.276-1.637.276-1.637l9.237.245L49.155,229.293H26.061V178.141c.992-.059,2.138.024,3.131.024Zm83.06,2.78c1.685.658,1.82,1.865.142,1.341a5.016,5.016,0,0,0-6.269,3.25,3.353,3.353,0,0,1-.3.867c-.381.468-.363.041-.25-1.3a4.675,4.675,0,0,1,4.4-4.56,7.221,7.221,0,0,1,2.281.4Zm-.836,1.839a3.038,3.038,0,0,1,2.008.7c.632.7.444,1.169-.042,1.145-2.282-.966-5.185.2-6.321,3.125-.7,1.793-.824.832-.515-.556a5.27,5.27,0,0,1,4.87-4.414Zm-15.875.692a3.712,3.712,0,0,0-2.423.664c-.915.877-.154.891,1.5.308a6.156,6.156,0,0,1,3.348.194c.831.291,1.124.414,1.077.152-.043-.789-1.845-1.325-3.5-1.318Zm18.609,2.932c.421.975.149,2.692-1.319,2.866-1.73.205-2.624-2.736.536-2.221-.41-1.176-1.827-.851-2.526-.553-1.426.631-2.4,2.052-3.271,4.661-.259.774-.449,1.178-.548,1.1a4.788,4.788,0,0,1,.138-2.779c.687-2.61,2.363-4.187,4.138-4.238A2.763,2.763,0,0,1,114.151,186.407ZM89.4,185.275c-.153.035.117.583.537,1.434a4.46,4.46,0,0,1,.391,1.2c0,.463.349.577.863.28.594-.343.689-.6,1.53-.221a2.28,2.28,0,0,0,2.3.26c.392-.232.652-.222,1.411-.019.906.242,1.026.279,1.7-.008a2.308,2.308,0,0,1,2.109.131c.208.234.087-.091.556-1.195.218-.511.53-1.133.445-1.308-.116-.236-.9.025-1.76.253a3.175,3.175,0,0,1-1.8-.167,5.436,5.436,0,0,0-4.229.182c-.656.316-2.3-.12-3.961-.8a.178.178,0,0,0-.1-.02Zm3.688,5.088a2.19,2.19,0,0,0-1.963,1.268c-.408,1.028.286,2.884,1.342,3.044.939.141.9-.441.431-.6-.716-.238-1.559-1.278-1.014-2.181.374-.621,1.506-.617,2.294.148,1.585,1.542,3.4,1.644,3.747.306.1-.535-.3-1.248-.918-1.054a3.156,3.156,0,0,1-2.516-.443,2.549,2.549,0,0,0-1.4-.49Zm16.746,4.9c4.048-.246,2.307,5.359-.03,3.92-.834-.514-.464-2.4,1.754-2.368-2.176-1.718-3.659.374-3.127,2.722a19.058,19.058,0,0,0-.944,3.052c-.492.943-.879-1.528-.382-3.915.481-2.311,1.3-3.324,2.728-3.411Zm-22.9.194c-.835.01.024.922.154,1.03,2.521,2.006,3.753,3.246,1.725,2.585-3.294-.795-4.144.15-6.653,1.272-.46.224-.591.084-1.146-.082-2.2-.661-2.043.741.261,2.006,3.478,1.91,6.35,2.341,9.053.909,1.738-.92,1.826-.317.211.7-2.766,1.635-5.677,1.387-10.146-1.434-1.444-.912-1.646-.3-.169.657,3.375,2.066,7.919,3.94,11.63.89.73-.658.877-1,1.438-.715,1.484.75,1-.557-.015-1.789-.357-.435-.622-.787-.6-1.084.084-1.069-.5-1.065-1.032-1.038-.636.031-.566-.185-1.346-1.054-1.139-1.268-2.529-2.626-3.366-2.853Zm-33.686,5.683c-1.4.113-1.723.177-1.381,3.087.065.548.3,2.187.372,2.8.831,7.622.158,10.994-1.936,11.927a2.581,2.581,0,0,1-2.048-.012c-1.326-.537-1.872-2.169-.909-4.113a11.765,11.765,0,0,0,.7-1.8c.125-.467.408-1.492.625-2.278a21.633,21.633,0,0,0,.5-7.6,5.142,5.142,0,0,1,.3-3.316c1.018-1.88,1.675-2.842,3.818-2.865,2.4.254,3.068,3.931-.041,4.163Zm51.51-.167-.656.031c-.79-2.664-2.439-1.8-2.713.068l-.557,0c.1-3.558,4.486-2.593,3.926-.093Zm-61.572-1.989c4.474.449,5.29,1.576,5.642,7.055.033,2.651-.14,4.252-.541,4.856-.671.326-1.312-.285-2.267.33-.525.325-.425.359-.651.005a5.936,5.936,0,0,1,.379-2.848c.328-1.065-.233-1.685-1.715-3.051a5.347,5.347,0,0,1-1.112-1.617c-.77-2.1-1.161-1.174-.52.634.318.779.392,1.163-.572.828a1.806,1.806,0,0,0-1.5.271c-1.228.317-2.286-.363-1.221-.772a10.223,10.223,0,0,1,2.17-.607c.261,0,.388-.059.388-.183,0-.525-2.367-.467-4.173.163-2.219,1.035-2.346.851-2.141-.759.519-4.085,4.269-4.583,7.835-4.305Zm43.76.357a2.144,2.144,0,0,1,1.986,2.406l-.544-.035c-.256-2.124-2.237-2.215-2.765.163l-.786.02C85.34,200.058,86.166,199.375,86.949,199.34Zm13.3.042c.452.272.138,1.007-.343,1.155-.182.046-.758-.361-.62-.609a2.027,2.027,0,0,1,.963-.546Zm5.128.361a.732.732,0,0,1,.779.592c.017.628-.454.5-.61.442-.312-.294-.43-1.011-.169-1.034Zm-15.686.5c.839.1,1.143,1.169.192,1.237C89.462,201.57,89.442,200.5,89.694,200.245Zm-5.1.117c.1,0-.055.878-.265,1.007-.414.255-.943-.023-.924-.288.047-.632.8-.723,1.189-.719Zm14.636,2.13a8.232,8.232,0,0,0,5.629.517c.713-.272,1.284-.6,1.282-.29s-.566.809-1.587,1.1a5.252,5.252,0,0,1-5.073-.734c-.409-.311-.551-.6-.251-.592Zm-.659.915c2.591,1.533,4.931,1.685,7.037.568.853-.3.88-.025.878.529C102.688,207.885,97.946,204.376,98.568,203.407Zm-63.616,2.335c-.643,1.314-.988,4.551-2.037,5.51C25.755,210.835,30.36,201.26,34.952,205.742Zm44.374-1.073c-.4.216-.047,1.246.59,1.524,5.477,2.389,8.286,2.674,11.4,1.575a3.134,3.134,0,0,0,2.06-2.045c.075-.619-.758-.679-2.217-.024-4.44,1.766-7.227.389-10.812-.978a1.459,1.459,0,0,0-1.021-.052Zm-20.972.074-.019,8.094-5.215-.093.061-1.2,3.9.117-.061-5.781-4.529-.043-.008-1.073,5.867-.023Zm1.212.02,5.2.008.26.824H59.566v-.832Zm-20.994,2.57a.961.961,0,0,1-1.185.128c-.551-.564.008-1.6.885-1.593s.956.868.3,1.465Zm2.4-1.316c.787,0,1.047.747.449,1.349-.406.374-.613.4-.978.124a.882.882,0,0,1,.529-1.473Zm-5.135.2a.51.51,0,0,1,.521.222c.479.992-1.091,1.679-1.419.94C34.7,206.78,35.305,206.237,35.834,206.217Zm29.426.108.3,1.042-6,.027v-1.042Zm-21.467.3c.894.109.756,1.021.341,1.427-.713.668-1.405.452-1.223-.447C43.025,207.042,43.384,206.636,43.793,206.625ZM38.97,209.61c-.315,1.14.358,3.446.157,3.687-.437.525-1.141.256-1.453.076-1.083-.7-1.151-4.841-.1-5.089.673.343,1.126-.27,1.434-.359s.1.474-.035,1.685Zm15.852-1.7A1.085,1.085,0,1,1,53.753,209,1.078,1.078,0,0,1,54.822,207.911Zm4.744.14H65.7a1.255,1.255,0,0,1,.226,1.229l-6.361.008v-1.236Zm-18.018.141c.281,0,.42.6.233,1.3a8.2,8.2,0,0,0-.088,3.7c.156.51.309.861.219,1.006-.318.509-1.29.162-1.7-.509-1.008-1.894-.847-5.429.356-5.155.453.23.712-.13.983-.341Zm-5.408.477c-.3.48-.085,3.172-.115,3.394-.038.281-.8.136-1.219-.058-1.041-.5-.758-1.753-.556-2.768.227-.8.728-.857,1.346-.93C35.937,208.268,36.388,208.3,36.14,208.669Zm8.346.149c.331-.012.377.235.3,1.232a8.61,8.61,0,0,0,.038,2.18c.267,1.564.3,1.988-.088,2.294a1.193,1.193,0,0,1-1.56-.175c-.985-.791-1.05-4.671-.276-5.007.719.182,1.172-.4,1.585-.524Zm21.188,1.173-.882,1.229h-5.23V210l6.108,0Zm-18.651,1.644c.817.009.682,1.472.243,2.391-.373.555-.645.611-1.2.09C45.427,213.525,46.181,211.631,47.023,211.635Zm17.125.409-.736.684-3.835,0v-.68l4.571-.008Z" fill="#131f67"/><path id="d3ff141a-4477-4cd6-bc82-a78902c5eea5" data-name="path3872-3-7-5" d="M38.474,182.841l-6.358-5.055c7.562-.167,15.122.01,22.683.141l-7.552,5.454c-1.546-1.712-2.459-4.013-4.653-5.123C40.961,178.942,39.844,181.3,38.474,182.841ZM93.931,181c-.173-.11-.286-.357-.413-1.169-1.887-8.923-11.163-8.291-11.1-8.029-.069-.352,11.529-10.969,18.348-19.3,2.06,6.366,8.307,20.91,8.047,20.858,0,0-1.808.015-6.494-.1-4.265,1.952-7.232,3.853-7.093,6.606-.024.969-.254,1.372-.573,1.289A7.2,7.2,0,0,1,93.931,181Zm21.139-28.641c6.034-.095,7.172-3.083,7.859-3.444,3.964-.66,6.413,1.955,8.15,4.753,2.218,1.354,1.94.1,2.4-2L139,150.022l-.008,1.784a28.249,28.249,0,0,0-4.236,3.316l-1.68-.1-.964,1.3c-3.837,2.1-7.6,4.611-11.645,6.237,0,0-4.847-6.354-5.4-10.2Zm-75.183.56-.062-35.278c2.5-.178,7.091-.155,7.091-.155,1.921-3.438,4.541-5.055,7.242-7.052a118.452,118.452,0,0,1,.437,12.853c-7.151,8.849-11.123,19.74-6.713,36.016l-2.646-.3ZM79.4,154.9a123.552,123.552,0,0,0,4.273-22.532l13.614-.205.272,4.726Zm46.356-16.064-.253-13.2c9.935-12.033,10.523-22.527,6.838-35.795,3.282.766,4.972,3.359,8.1,6.934v34.419c-2.173.328-7.56.649-7.56.649-.163,1.613-4.716,5.469-7.126,6.992Zm-42.069-20.8-.606-5.82,17.69-17.129c-1.46,7.422-3.227,15.044-3.742,22.945ZM54.338,99.851c-1.262.839-5.916-4.064-6.678-7.36,1.167-1.6,11.41-6.685,11.41-6.685s5.985,7.788,5.741,11.037c-2.659.716-4.965.92-6.983,3.118-1.155.1-1.561-1.213-3.49-.11ZM46.26,93.265c1.425.232.511,2.181.293,3.608l-7.528,2.262c2.588-2.238,4.423-4.143,7.235-5.87ZM70.77,76.044c1.547-.048,3.16.6,4.353.112a4.282,4.282,0,0,1,2.315-.262c2.25.7,3.039-1.807,4.473-1.818,1.856.005,2.886-1.312,2.9-3.948.008-1.14.1-1.269.311-1.382a.966.966,0,0,1,1.394.762c1.331,4.856,4.692,9.222,9.993,8.874-4.221,4.362-17.06,17.769-17.06,17.769A130.5,130.5,0,0,0,70.77,76.044Zm54.62-4.185,7.733-5.689,4.628,5.711,4-5.437c2.353,1.708,7.7,5.516,7.7,5.516s-16.04.24-24.066-.1Z" fill="#d40000"/><path id="befb2c63-0921-4bd5-954b-70882e737c9a" data-name="path3870-4-7-1" d="M129.776,20.278l-71.093.463L72.5,39.447c14.678-3.029,27.455-1.061,40.716,1.287Zm-1.817.949-4.732,5.959c-1.309-1.2-4.231-.767-3.818,1.859-3.626-1.911-4.4,3.336-1.317,3.121-.386,1.03-3.494,1.3-4.371-.568-3.192,1.814-4.167.055-5.012-1.088,4.056,2.791,6.03-2.946,1.565-3.27,1.754-3.6-4.5-5.229-4.134-.548-4.126-.948-3.18,4.939-.149,3.732-1.969,3-5.2.985-5.852.4-1.66,1.262-4.8,1.3-5.679-.716,4.592.937,4.09-5.194.011-3.782,2.174-4.708-5.058-4.075-3.3-.218-4.115-.159-3.2,4.985.41,4.109-3.211,3.068-5.616.209-6.124.148-1.9,2.126-5.239.961-5.7-.295,3.275,1.311,4.349-4.267.22-3.932,1.058-3.593-4.883-4.029-3.572.052-3.274-.751-3.452,4.563.215,3.736.227,1.455-2.658,2.849-4.432,1.442-1.3.722-2.727,1.847-4.422.183,2.581-.422,3.005-4.843-1.161-3.888.2-2.714-1.339-2.862-3.238-2.173l-3.044-4.179ZM78.915,27.894c-.226.505-.608.85-.519,1.235a4.775,4.775,0,0,0,.841,1.35c3.557,4.7,10.768,4.543,12.937-.3.443-.9.352-1.1-.18-1.87a1.123,1.123,0,1,1,1.684.073c-1.228,1.567,2.144,5.111,5.51,5.668,4.315.715,8.407-2.362,7.837-5.119-.033-.158-.112-.306-.145-.471-.459-2.308,3.152-1.2,1.852.269-.488.531-.752.69-.686,1.275,1.048,4.885,6.907,5.4,9.7,3.891-3.6,5.953-9.3,1.365-10.307-2.8-5.055,7.4-11.129,5.862-14.514-.642.4.406-6.667,11.657-14.69.121-3.4,9.285-9.588,3.009-9.165,2.628,2.845,1.607,8.011,1.025,8.509-3.942.069-.613-.39-.651-.655-1.135C75.576,25.672,79.915,25.655,78.915,27.894Zm-13.368.61c.644.061.751.332.645.995Zm55.168,1.745-.932,1.186C119.562,30.855,119.555,30.323,120.715,30.249Zm10.135.393c-2.211.095-3.92,3.193-3.808,7.324.054,2,.4,7.031.537,7.779.189,1.045-.017,2.463-.379,2.613-.957.394-1.318.648-1.576,1.111a2.218,2.218,0,0,0,1.3,3.173c1.011.435,2.292-.166,3.159-1.478a7.02,7.02,0,0,0,1.02-2.884,10,10,0,0,0-.046-3.526c-.509-2.919-.13-6.554.859-8.261,1.775-3.062,1.742-5.067-.092-5.7a2.634,2.634,0,0,0-.974-.152Zm-.115.467a1.812,1.812,0,0,1,1.077,3.413,1.887,1.887,0,0,1-1.905-.14c-.76-.445-.657.062.13.641.924.68,1.317.638.82,2.232a19.414,19.414,0,0,0-.452,6.515c.693,4.987.107,7.473-1.963,8.339a1.836,1.836,0,0,1-2.405-1.006c-.443-1.3.346-2.416,2.294-2.1,0,0,.138-.414-.368-4.743-.7-6.021-.428-10.224.663-11.693A3.01,3.01,0,0,1,130.735,31.109Zm17.459,6.208a3.939,3.939,0,0,0-1.91.548s-.071,2.708-.149,3.118c-.438,2.29-.31,2.563.744,2.888a3.4,3.4,0,0,0,4.559-3.623,3.188,3.188,0,0,0-3.244-2.931Zm.345.361c1.4-.042,2.664,1.613,2.527,3.173a2.78,2.78,0,0,1-3.413,2.558c-.467-.072-.95-.162-1.1-.517-.316-.5.193-.674,1.254-.669,1.163.008,1.378-.156,1.764-.816.765-1.308-.213-2.967-1.461-2.656-.425.106-.487.3.011.444,1.529.7.96,1.673.43,2.068-.63.47-1.674-.174-1.852-.564l.107-2.527a2.642,2.642,0,0,1,1.734-.494Zm-15.745,11.71a4.475,4.475,0,0,0-.863.544,2.112,2.112,0,0,0-.445,2.313c.134.381.113.445-.356,1.065-1.337,1.766-1.51,2.649-.825,4.241.311.724.314.724.02,1.68a37.641,37.641,0,0,1-6.4,11.969,3.414,3.414,0,0,0-.575,1.007,3.066,3.066,0,0,0,.966-.206c2.744-1.384,5.642-4.065,8.336-5.823-4.261,3.5-8.8,6.64-8.8,6.64l5.8.314c-1.456,1.514-26.879,23.353-20.128,62.523,7.936-2,11.629-5.32,15.86-9.159.039,3.156.107,11.651.134,11.651.081-.14-3.672-1.433-2.78,1.7.531,1.718.8,6.067-.142,8.521-.04.1.405.269.36.366s-.6.112-.6.112c-1.441,2.725-5.152,3.322-6.981,3.24-.675-.065-.4.873-.313,1.212.34,1.4,1.935,4.407,4.913,9.232l.782.1-.452.424a20.22,20.22,0,0,0,1.291,1.871l.041.415s1.634,2.305,2.511,3.388c.059.074.2-.1.257-.028.486.593,1.07,1.257,1.564,1.848.039.046-.076.215-.037.258.931,1.029,2.762,3.109,2.762,3.109l.364-.089,1.439,1.645c11.944-5.506,24.426-17.688,24.3-17.661l.1-26.216-14.141-.043-.061-34.728,14.127,14.158-.092-4.062c-3.2-3.089-16.082-16.262-16.082-16.262a15.816,15.816,0,0,0,5.449-1.85,15.882,15.882,0,0,0,10.119,2.235l-.015-3.852a12.415,12.415,0,0,1-8.839-3.177l-2.638-.089c-4.873,3.757-8.319,2.014-12.025,1.275l-2.561-3.74,26.239-.136-.187-9.077-3.985.089L147.607,70.4l3,1.286a3.832,3.832,0,0,0-.648-1.45,61.462,61.462,0,0,1-4.9-10.061c-.6-1.746-.595-1.674-.092-2.7a3.7,3.7,0,0,0-.368-4.067c-.641-.675-.62-.819-.41-1.321a1.776,1.776,0,0,0-1.212-2.6c-4.4,1.717-10.291-.052-10.185-.105Zm10.223.723c.877-.008.973.383.97,1.045-.075,1.215-1.634,1.655-2.339,1.824-3.372.782-9.25.319-9.632-1.276-.282-1.171.439-1.821,2.833-1.24,3.849.839,6.23-.063,8.168-.353Zm-10.883,3.382a1.074,1.074,0,0,1,.89.948,3.772,3.772,0,0,1-.847,2.329c-1.072.846-2.039-.47-1.323-1.9C131.267,54.044,131.685,53.5,132.134,53.493Zm11.5.167a1.2,1.2,0,0,1,.633.171c.849.609.928,2.716.134,3.021s-1.559-.545-1.553-1.886C142.852,54.145,143.158,53.648,143.638,53.66Zm-2.695.435a1.155,1.155,0,0,1,.544.117c.707.331,1.051,2.541.349,3.246a1.228,1.228,0,0,1-2.055-.618c-.408-1.357.229-2.7,1.162-2.745Zm-5.979.062c1.036.008,1.272,2.343.257,3.3-.848.8-2.143.013-1.737-1.582C133.687,55.082,134.153,54.213,134.964,54.157Zm2.945.373c1.517.263,1.388,4.026-.6,3.651C136.18,57.381,136.211,54.586,137.909,54.53Zm-6.63,4.032,2.144.2c-.056-.034-3.411,7.189-6.411,9.1A57.636,57.636,0,0,0,131.279,58.562Zm12.85.038a105.089,105.089,0,0,0,4.245,10.279c-2.6-2.537-4.9-6.438-7.017-10.1Zm-10.077.327,1.419.015a10.858,10.858,0,0,0,2.251,4.789,21.653,21.653,0,0,0,1.867-4.657l1.127-.015c.432.261-1.326,6.867-3.048,7.67C135.844,65.228,134.307,61.17,134.052,58.927Zm-.6,1.563c-.119.157,2.2,5.816,4.168,7.631a15.41,15.41,0,0,0,3.827-7.083l6.093,8.669-5.94-4.121a30.335,30.335,0,0,1-3.957,5.489,71.743,71.743,0,0,1-4.521-5.924c-2.292,1.721-3.9,3.56-6.875,5.166.013.067,5.83-6.361,7.205-9.828Zm-.571,6.161,4.145,5.136-11.036-.16Zm8.976.082,6.964,4.859-10.376.109ZM86.377,69.124a3.945,3.945,0,0,0,.126.493c1.236,5.112,4.645,9.361,9.775,8.856L79.417,95.559a99.6,99.6,0,0,0-8.425-19.395s1.03.215,1.833.373a4.389,4.389,0,0,0,1.891-.07c.431-.064.761-.351,1.146-.435a3.9,3.9,0,0,1,1.9.252c1.158.223,1.947-.435,3.4-1.733.386-.346.534-.262,1.02-.261,1.817,0,2.976-1.576,2.772-4.027l-.092-1.089-.23,1.225c-.433,2.308-.737,3.3-2.991,3.4-.546.024-.751.4-1.614,1.147-1.209,1.052-2.062,1.142-2.918.731-.874-.42-.955-.173-1.779.226a5.289,5.289,0,0,1-3.559.042c-1.73-.5-1.518-.334-1.518-.334,10.019,18.079,13.539,35.419,13.317,50.821a99.514,99.514,0,0,1-14.533,50.339s1.14-.117,2.155-.268a2.057,2.057,0,0,1,1.35.167,2.457,2.457,0,0,0,1.235.1,9.15,9.15,0,0,1,1.733.086c1.233.179,1.315.016,2.658-1.306,3.81-3.752,3.562-3.613,6.323-3.522,4.142.136,7.454,2.906,8.835,7.4.174.567.4,1.364.434,1.364l-.269-1.189c-1.213-6.023-6.293-8.225-10.534-8.145l17.9-18.193c-.091.017,4.149,13.843,7.842,20.005a7.111,7.111,0,0,0-3.18-.221,11,11,0,0,1-3.075-.125c-.906-.023-1.457.248-2.584,1.189a5.976,5.976,0,0,1-1.806,1.244c-2.177.932-3.045,1.9-3.056,4.316,0,.439-.069,1-.061,1.22a.552.552,0,0,0,.011.162c.037,0,.087-.091.13-.154a4.276,4.276,0,0,0,.5-1.613c.3-1.809.678-2.442,2.368-3.244a14.044,14.044,0,0,0,2.049-1.28c1.558-1.259,2.077-1.547,3.342-1.249a5.845,5.845,0,0,0,2.3.139,4.454,4.454,0,0,1,2.444.121c.833.218,1.865.429,1.865.429-17.349-35.318-16.776-68.06.346-101.278,0,0-5.068.06-5.284.194a4.816,4.816,0,0,1-1.369-.128c-1.379-.253-1.077-.083-4.333,3.234-4.024,4.1-10.462.83-12.4-6.053a3.069,3.069,0,0,0-.341-.832,1.882,1.882,0,0,0-.176-.217Zm16.4,4.039c.745.08,1.3.279,1.208.987L80.092,97.868,79.72,96.34Zm5.038.144c-.294.588-1.092,1.326-1.442,1.881l1.3,1.641-.721,1.322-2-1.7-3.8,3.806,3.172,3.607-3,3.071-1-1.146,1.588-1.684-2.466-2.34L95.1,86.042l3.539,3.647-2.6,2.523-1.035-1,1.361-1.524-2.308-2.418-4.046,4.183,3.2,3.611-2.473,2.488-1.1-1.127,1.189-1.256-2.289-2.43-4.122,4.121,3.343,3.678-2.458,2.227-.866-.929,1.188-1.294-2.247-2.438-2.558,2.352L80.4,98.848l25.3-25.479Zm1.457.377-1.066,2.169-.824-.917,1.073-1.12Zm-59.674.14c-.655.162-15.72,8.669-24.3,18.007l-.026,3.479-.318.416.153,5.384.215.288.073,2.2-.341.579v6.03l.456.078.073,7.378,14.088.039-.015,35.252s-8.273-9.219-14.23-14.66l.023,4.121,15.76,16.506a12.174,12.174,0,0,0-4.62,1.61,17.358,17.358,0,0,0-11.025-2.247l.024,4.2a15.484,15.484,0,0,1,11.1,2.85c3.252-2.235,7.171-3.595,13.014-1.82a39.575,39.575,0,0,0,3.858,5.579l-27.9.21.034,8.5c1.238.025,4.333,0,4.333,0,1.57,3.117,4.655,7.372,5.935,12.726-1.758,2.141-1.617,3.865.093,6.021-.015.972-.3,2.046.774,3.13,3.55-1.76,7.559-.979,10.542-.08,1.011.3,1.393-.863,1.357-2.333-.09-.841-.085-1.2.552-1.761,1.518-1.334.576-4.075.338-4.136-.088-2.4,7.51-14.444,7.515-14.223l-1.514.556-6.5.03c17.086-16.7,24.227-35.752,22.731-57.263a34.382,34.382,0,0,0-1.165-7.9c-6.018,2.71-10.964,4.681-15.768,9.9l-.318-11.211a2.391,2.391,0,0,0,2.849.342c.546-.363.6-.75.095-2.111-.733-1.975-.907-6.212-.36-7.651a6.148,6.148,0,0,0,.165-1.053c.062-.59-.065-.624-.119-.615.14-.034.727.087.8.024a10.919,10.919,0,0,1,6.956-3.095l.069-1.337c-2-5.128-3.7-7.139-5.514-10.006a2.062,2.062,0,0,0-.839-.105l.418-.447c-2.546-4.095-6.168-7.822-9.5-11.36.01-.012,0-.017-.019-.011Zm-.111.7,1.806,1.691a95.913,95.913,0,0,0-25.5,18.7l.115-3.067A108.463,108.463,0,0,1,49.488,74.52Zm55.352,3.067,1.085,1.1-1.5,1.769.978,1.011-.545,1.349-2.5-2.632Zm-53.807.14a1.042,1.042,0,1,1-1.027,1.042A1.035,1.035,0,0,1,51.033,77.727Zm73.755,1.438c17.569,19.825,8.547,48.635-14.9,55.556l-.261-1.628c23.661-8.08,29.212-35.111,13.858-52.1Zm-70.71.132,1.12,1.314c-10.017,4.848-19.787,12.114-29.231,22.6l-.092-2.647A100.46,100.46,0,0,1,54.078,79.3Zm-6.461.405a1.042,1.042,0,1,1-1.028,1.041A1.035,1.035,0,0,1,47.617,79.7Zm-3.129,1.959A1.042,1.042,0,1,1,43.46,82.7,1.035,1.035,0,0,1,44.488,81.661Zm10.418.684a1.042,1.042,0,1,1-1.027,1.042A1.035,1.035,0,0,1,54.906,82.345Zm44.631.719,1.028,1.1-1.63,1.657,2.32,2.456,2.231-2.177-1.119,3.243L82.692,109.278l-.41-2.092,1.549-1.578-2.374-2.4-.418-1.6,2.335-2.216.978,1.018L82.987,102l2.2,2.193,3.992-3.724-3.294-3.666L88.6,94.14l.939.929-1.3,1.357,2.29,2.515,4.095-3.977-3.363-3.6,2.7-2.7,1.024.992-1.361,1.656,2.327,2.282,4.011-4.016-3.3-3.514Zm-58.117.7a1.042,1.042,0,1,1-1.027,1.042A1.035,1.035,0,0,1,41.42,83.764Zm16.2.2.782,1.318c-11.924,6.107-20.171,12.224-32.375,26.28V109.8A95.4,95.4,0,0,1,57.625,83.966Zm-5.989.156a1.042,1.042,0,1,1-1.028,1.042A1.034,1.034,0,0,1,51.636,84.122Zm92.263.4c2.1,1.9,6.521,3.789,9.368,3.588l.077,2.282c-4.966.478-9.3-2.744-9.3-2.744a14.536,14.536,0,0,1-11.776,1.636l-1.561-3.39c6.019,2.829,11.663.13,13.195-1.372Zm-23.763.618a3.532,3.532,0,0,0,.963.89c4.632-1.222,6.075,3.618,3.915,6.384l.617,2.029a5.4,5.4,0,0,1,2.14.859,3.918,3.918,0,0,1,1.607,3.6c.157,1.56-2.145,3.012-2.27,2.9l-.031,2.231A8.91,8.91,0,0,1,129,105.892a3.517,3.517,0,0,1-1.039,4.976,3.588,3.588,0,0,1-2.163.715l-1.07,2.535a2.978,2.978,0,0,1,1.354,2.111,4.049,4.049,0,0,1-1.9,3.953,5.133,5.133,0,0,1-3.682.1l-1.518,1.54a5.262,5.262,0,0,1,.291,2.912,3.775,3.775,0,0,1-4.122,2.55,4.058,4.058,0,0,1-2.212-1.05l-1.684.653c.048,0,.025,2.161-.824,2.823a11.165,11.165,0,0,1-1.216.9L109,129.12a2.923,2.923,0,0,0,.947-2.531l3.635-1.8a3.576,3.576,0,0,0,1.676,1.252,2.394,2.394,0,0,0,2.857-2.115,8.109,8.109,0,0,0-.553-1.886l3.087-3.238c1.277.445,2.174.521,2.746.187a2.56,2.56,0,0,0,1.162-2.718,3.71,3.71,0,0,0-1.116-1.613l1.721-4.412a3.106,3.106,0,0,0,1.925-.544,2.4,2.4,0,0,0,.568-3.285,2.483,2.483,0,0,0-1.7-1.108l.127-4.584c0,.038,1.741-.848,1.929-1.87.276-1.5-.351-2.462-2.175-2.888-1.011-.236-.958-.039-.958-.039l-1.442-4.148c2.285-1.412,1.561-3.659.4-4.412a3.554,3.554,0,0,0-2.944-.059s-.786-.79-1.381-1.426Zm-61.146.84A48.686,48.686,0,0,1,64.455,95.8a5.549,5.549,0,0,1,.03.972c-4.054.357-5.446,1.968-6.887,3.1-1.117-.582-1.588-1.263-3.608.019-.008.061-5.151-3.154-6.136-7.518A115.323,115.323,0,0,1,58.99,85.98Zm-20.58.027a1.042,1.042,0,1,1-1.027,1.042A1.035,1.035,0,0,1,38.41,86.007Zm9.744.206a1.042,1.042,0,1,1-1.028,1.042A1.035,1.035,0,0,1,48.154,86.213Zm70.326,1.279c1.772,2.364,4.442,6.833,5.077,10.792.893,5.567.3,11.408-2.22,15.491-4.569,8.724-12.492,10.582-12.5,10.886l-.081-1.789c.075.4,6.056-2.152,10.127-7.919a23.055,23.055,0,0,0,3.455-13.851c-.3-6.28-4.7-12.072-4.736-12.094ZM35.2,88.343a1.042,1.042,0,1,1-1.027,1.042A1.035,1.035,0,0,1,35.2,88.343Zm9.733.016A1.042,1.042,0,1,1,43.909,89.4,1.035,1.035,0,0,1,44.937,88.359Zm87.742,1.757c2.281.251,5.07,4.442,7.608,6.834l.027,34.172-7.581.155c-.987,2.4-3.277,4.78-6.925,7.126V125.6c12.44-13.511,9.055-28.3,6.875-35.481Zm-100.266.389a1.042,1.042,0,1,1-1.028,1.042A1.035,1.035,0,0,1,32.413,90.505Zm9.368.187a1.042,1.042,0,1,1-1.028,1.041A1.034,1.034,0,0,1,41.781,90.692Zm96.244.081,15.5,15.842-.054,2.324L136,90.948ZM47.464,92.262l.41,1.99c-.5-.8-.52-1.092-1.388-1.232Zm-8.391.579a1.042,1.042,0,1,1-1.027,1.042A1.035,1.035,0,0,1,39.073,92.841Zm-9.283.292a1.042,1.042,0,1,1-1.028,1.042A1.035,1.035,0,0,1,29.79,93.133Zm87.2,0,3.06,2.2-1,3.962-3.133-2.854Zm-70.713.323.544.326-.633,2.71-7.044,2.577a53.048,53.048,0,0,1,7.132-5.613Zm1.154,1.259a36.438,36.438,0,0,0,2.919,7.493c-.9.474-4.155,2.338-4.146,3.2.458,1.572,3.892,3.013,3.892,3.013a39.732,39.732,0,0,0-3.551,7.561c-.587-1.012-.654-5.006.61-6.667a16.118,16.118,0,0,1-4.249-2.814c.836-3,4.4-4.79,4.556-4.813-.063.151-1.053-6.265-.031-6.978ZM36,95.22a1.042,1.042,0,1,1-1.027,1.042A1.035,1.035,0,0,1,36,95.22Zm78.456.086c4.572,8.636,1.853,16.138-5.442,21.513l.169-2.037c5.033-3.7,8.292-10.988,4.617-17.937Zm-87.137.249A1.042,1.042,0,1,1,26.289,96.6,1.034,1.034,0,0,1,27.317,95.555Zm73.144.054a105.5,105.5,0,0,0-3.662,21.93l-13.026.112-.506-4.571Zm-52.039.35s2.826,2.659,5.361,4.98l-.3.606-2.466.335A48.849,48.849,0,0,1,48.422,95.959Zm-2.339,1.392.019,0,.157,1.889c-.846-.032-10.007,3.847-17.044,10.041a22.068,22.068,0,0,1,4.528-5.2c3.639-3.621,12.34-6.733,12.34-6.733Zm-13.022.431a1.042,1.042,0,1,1-1.028,1.042A1.036,1.036,0,0,1,33.061,97.782Zm5.767,1.186.522.544-2.432,1.275Zm16.949.556a.523.523,0,0,1,.1,0,1.269,1.269,0,0,1,.747.412,5.353,5.353,0,0,0-1.388-.132.76.76,0,0,1,.537-.284Zm-9.3.393.223,1.411c-5.271,3.038-11.541,5.909-20.665,14.653v-2.909A65.616,65.616,0,0,1,46.474,99.917Zm7.091.132a1.841,1.841,0,0,0,.92.011s-.191.384-.418.393-.5-.4-.5-.4Zm2.235.081c.663-.041,1.115.573.982,1.365a16.806,16.806,0,0,0,.058,7.3c.426,1.479.534,2,.18,2.247-3.107,2.172-4.811-7.622-2.216-10.4a1.636,1.636,0,0,1,1-.51Zm-25.373.342a1.042,1.042,0,1,1-1.028,1.042A1.035,1.035,0,0,1,30.427,100.472Zm89.295.241L121.655,104l-2.692,3.056-1.637-3.549ZM53.215,102.5l-.1,1.134a9.9,9.9,0,0,0-3.638,1.929c-.2.175,3.215,1.738,3.574,1.376l-.009,1.209c-.047.4-5.649-1.406-6.028-2.752.635-.9,4.18-2.977,6.2-2.9Zm-25.492.6a1.042,1.042,0,1,1-1.027,1.042A1.035,1.035,0,0,1,27.723,103.1ZM43,104.3a8.275,8.275,0,0,0-1.1,2.894c-3.843,2.363-7.784,4.57-12.58,9.99l-2.584-.016-.058-.688A70.843,70.843,0,0,1,43,104.3Zm9.9.327.026,1.427a3.851,3.851,0,0,1-2.047-.626,3.735,3.735,0,0,1,2.021-.8Zm28.917.152.721.766-.449.427Zm-38.937,2.966,1.423.9a39.532,39.532,0,0,0-10.856,8.541H30.63c3.559-3.911,7.393-7.42,12.251-9.439Zm75.894,1.03.284,3.88-3.574,1.987.069-4.094Zm-67.964.016,2.458.272.253,1.053a38.78,38.78,0,0,0-5.572,4.51,22.146,22.146,0,0,1,2.861-5.835Zm-5.893.416,1.054.494-.418,1.823a27.64,27.64,0,0,0-7.98,5.66H34.683A41.265,41.265,0,0,1,44.918,109.2Zm9.145,1.714c.009,0,.012,0,.011,0l.384,11.958c-10.617,12.6-10.04,24.785-6.945,35.835l-2.024-.093a72.169,72.169,0,0,0-5.484-5.983L40,117.854l7.32.027c1.727-4.049,6.474-6.93,6.745-6.963ZM45.42,112.6l.088,1.593a21.234,21.234,0,0,0-3.9,2.99h-2.75C40.756,115.388,42.642,113.583,45.42,112.6Zm24.959.781.4,1.882C46.14,124.3,41.687,150.567,56.23,168.6l-.99,1.12C38.541,151.541,45.871,121.843,70.379,113.379Zm-24.763,1.882s.134,1.441.176,1.92H43.031A4.824,4.824,0,0,1,45.616,115.261Zm69.344.6-1.588,3.752-4.237.066,1.925-3.752Zm-26.823,2.57H92v3.74H88.137Zm-16.711.369.065,1.644c-1.715.886-1.282,2.293-1.714,2.271a29.345,29.345,0,0,0-3.835,1.765,2.419,2.419,0,0,0-2.933-.237,2.9,2.9,0,0,0-.8,3.012l-2.949,3.5c-1.425-.617-2.813-.578-3.505.385-.78,1.087-.485,2.435.8,3.946l-1.606,4.179c-.185-.25-2.874.55-2.911,2.169-.039,1.714,2.223,2.832,2.22,2.962L54.155,149c-.1-.222-2.308.691-2.009,2.9.275,2.034,3.006,1.786,3.064,1.956l1.484,4.412c-.1-.135-2.012,1.762-.84,3.557.976,1.5,3.812.528,3.788.431l.786,1.124-.87.956s-.376-.457-.587-.416a4.226,4.226,0,0,1-4.379-1.4c-1.2-1.885.14-4.83.568-4.805l-1.02-2.543a3.751,3.751,0,0,1-3.517-3.129,4.393,4.393,0,0,1,2.221-4.167l.069-2.753A4,4,0,0,1,50.6,141.87a4.5,4.5,0,0,1,2.516-3.541c.4-.189,1.012-.486,1.012-.486l.924-2.255a6,6,0,0,1-.97-3.848c.63-2.926,4.391-2.725,4.985-2.442l1.745-2.216a3.6,3.6,0,0,1,2.565-4.75,13.936,13.936,0,0,1,3.279.439L68.9,121.6c-.038-1.239,1.3-2.045,2.531-2.8ZM84.138,122.9h3.309v3.739H84.138Zm8.815,0h3.731v3.739H92.953Zm-21.259.936-.042,1.431c-21.364,10.5-12.627,32.244-9.579,34.774l-.686,1.535c-3.749-2.311-13.414-27.4,10.307-37.74Zm16.443,3.787h4.015l.034,3.845H88.172Zm-17.371,1.87-1.273,3.5-3.922.335,1.449-3.5Zm80.158,2.562,2.685.015c-5.019,5.951-10.434,10.006-15.78,12.226a2.775,2.775,0,0,1,.146-.948,2.912,2.912,0,0,0-.08-1.17,38.2,38.2,0,0,0,13.03-10.123Zm-13.755.05a8.682,8.682,0,0,1-2.457,2.133l-.388-2.168C135.145,132.057,137.169,132.1,137.169,132.1Zm4.725-.046c.271.692-7.045,4.7-7.071,4.356l.019-1.332,3.948-2.97Zm1.58,0h.015l2.059.011c-1.86,2.974-11.7,8.374-11.288,7.614l.4-2.175a44.513,44.513,0,0,0,8.817-5.45Zm3.47,0,2.71.011c-4.077,5.248-8.212,7.164-12.179,9.422a1.855,1.855,0,0,0-.873-.1l-1.357-1.073C135.5,140.547,144.361,135.28,146.944,132.055Zm-75.813.186-.092,1.586c-5.7,4.972-7.991,11.325-5.024,18.7l-.7,1.575c-3.191-7.869-2.249-15.514,5.821-21.86Zm25.967.249.3,4.28L79.7,154.241a129.177,129.177,0,0,0,4.164-21.728Zm56.694,1.007.008,2.375c-6.979,7.795-14.014,11.288-20.093,12.7l-.138-.914,2.815-1.757c9.069-4,13.041-8.037,17.409-12.4Zm-21.183.064c.122,1.716-1.385,4.957-3.109,6.786l-2.952-.008-.326-1.3a19,19,0,0,0,6.387-5.48Zm.891.511c1.084,1.769-.543,6.347-.61,6.166-.13.315,9.276,2.331-.387,7.048.21,1.386,1.116,4.345.418,6.173-.218-.7-1.9-5.448-3.2-6.663,3.016-.871,5.189-2.742,4.954-3.359-.491-.877-1.842-1.955-4.114-2.744a16.885,16.885,0,0,0,2.937-6.621Zm-69.08.867.3,3.608-3.436,2.095-.265-3.961Zm59.773,3.351a.915.915,0,0,1,.644.21c1.7.7,1.82,9.09.28,9.944a1.218,1.218,0,0,1-1.867-.637,25.266,25.266,0,0,0-.031-8.949c.033-.393.527-.574.974-.568Zm29.6.125V141.4c-9.978,10.485-20.728,18.75-31.7,23.391l-1-1.722A99.718,99.718,0,0,0,153.792,138.415Zm-1.752.272c-4.622,6.521-10.252,10.779-17.965,12.712l-.146-1.851C143.535,147.336,152.289,138.687,152.04,138.687ZM26.266,139.744c6.019,6.238,12.186,12.421,18.314,18.823l-2.435.129L26.193,141.917Zm71.653.311.214,1.539-1.752,1.948,2.769,3.017.141.711-2.377,2.519-1.074-1.077,1.316-1.5-2.232-2.379-4.138,4.035,3.409,3.751-2.573,2.48-1.012-1.061,1.315-1.539-2.285-2.445-4.218,4.252,3.19,3.573-2.128,2.387-1.008-1.077,1.093-1.271-2.313-2.414L80.2,159.465l3.336,3.74-2.711,2.737-1.05-1.034,1.522-1.68-2.5-2.414-2.006,1.921s.757-1.906.867-2.228c.162-.473.826-.848,5.042-5.065,5.033-5.079,10.194-9.838,15.216-15.387Zm28.866,1.026a14.216,14.216,0,0,1,5.189,1.034c2.254,1.206,1.545,2.154.08,2.862a11.721,11.721,0,0,1-5.165,1.317l.058-.983a13.354,13.354,0,0,0,3.355-1.135,2.353,2.353,0,0,0,.878-.708,5.171,5.171,0,0,0-1.764-1.1,13.788,13.788,0,0,0-2.542-.393Zm-65.832,1.3,1.852,2.814-2.193,3.728-2.105-3.215Zm37.361.3c.065.53.727,2.592.379,2.193l-1.231-1.4Zm28.586.276a8.662,8.662,0,0,1,2.849.486,5.861,5.861,0,0,1-2.829,1Zm25.7,1.407a1.136,1.136,0,1,1-1.12,1.135A1.128,1.128,0,0,1,152.6,144.366Zm-57.787,1.967.955.937-1.235,1.458,2.239,2.391,2.773-2.632.368,1.672-25.976,25.91-1.442-.1,1.653-1.979-1.879-1.948.771-1.4,2.216,2,4.061-3.938-3.29-3.51,2.814-2.928,1.063.93-1.615,1.772,2.351,2.434,4.249-4.238-3.325-3.666,2.653-2.565.974.937-1.235,1.325,2.424,2.558,3.581-3.778L86.7,154.33l2.9-2.857.89.9-1.335,1.509,2.435,2.554,3.907-4.07-3.217-3.538ZM150,147.01a1.135,1.135,0,1,1-1.12,1.135A1.128,1.128,0,0,1,150,147.01Zm-21.113.05a12.37,12.37,0,0,1,3.037,6.951,21.036,21.036,0,0,0-5.553-5.761l.4-1.054Zm24.909.171v2.535a85.329,85.329,0,0,1-27.229,20.592L124.9,168.3C136.5,163.052,144.889,156.532,153.792,147.231ZM142.216,149l-3.191,2.512v-1.089L142.219,149Zm-16.443.187a12.972,12.972,0,0,1,6.35,6.982,119.842,119.842,0,0,1-11.657,6.173,54.433,54.433,0,0,1-5.207-9.8c5.982-.045,7.623-3.358,7.665-3.383,1.441.552,1.744.618,2.849.031Zm21.493.494a1.149,1.149,0,0,1,1.135,1.092,1.12,1.12,0,1,1-2.239,0c.121-.783.612-1.1,1.1-1.092Zm-8.279.746.008,1.1c-1.527,1.357-4.494,3.553-4.494,3.553l-1.227-.066.4-3.11a47.832,47.832,0,0,0,5.314-1.473Zm-78.137.128L63.779,153l-.9,3.786L60,154.563Zm39.343.715.272,1.1L76.4,176.489l-1.369-.226Zm44.4.933a1.136,1.136,0,1,1-1.12,1.136A1.129,1.129,0,0,1,144.6,152.2Zm8.888-.008c.132,0,.288-.009.288.117V154.4a1.113,1.113,0,0,1-.376.066,1.056,1.056,0,0,1-1.031-1.135A1.128,1.128,0,0,1,153.485,152.2Zm-2.716,2.531a1.135,1.135,0,1,1-1.119,1.135A1.127,1.127,0,0,1,150.769,154.726Zm-9.409.012a1.135,1.135,0,1,1-1.119,1.135A1.127,1.127,0,0,1,141.36,154.738Zm-8.1.35,1.151.039-2.14,1.29a9.009,9.009,0,0,0,.99-1.329Zm20.523.531.015,2.334A89.646,89.646,0,0,1,130.715,174.9l-1.354-1.39a86.72,86.72,0,0,0,24.427-17.889Zm-15.634,1.273a1.135,1.135,0,1,1-1.119,1.135A1.127,1.127,0,0,1,138.154,156.892Zm9.955.085a1.135,1.135,0,1,1-1.12,1.135A1.128,1.128,0,0,1,148.109,156.977ZM36.6,161.533c3.8-2.235,6.852-2.5,11.2-1.823l1.3,2.6c-4.237-.762-8.7-.694-12.52,2.293-3.956-2.534-6.961-3.265-10.21-2.853l-.059-2.742A14.423,14.423,0,0,1,36.6,161.533Zm98.468-2.472a1.135,1.135,0,1,1-1.12,1.135A1.127,1.127,0,0,1,135.068,159.061Zm10.238.466a1.136,1.136,0,1,1-1.12,1.135A1.128,1.128,0,0,1,145.306,159.527Zm-13.605,1.7a1.136,1.136,0,1,1-1.12,1.135A1.128,1.128,0,0,1,131.7,161.222Zm10.439.658a1.136,1.136,0,1,1-1.12,1.136A1.128,1.128,0,0,1,142.14,161.88Zm-13.89,1.348a1.151,1.151,0,1,1-1.135,1.151A1.143,1.143,0,0,1,128.25,163.228Zm10.9.952a1.136,1.136,0,1,1-1.119,1.136A1.128,1.128,0,0,1,139.147,164.18Zm-14.214.786a1.135,1.135,0,1,1-1.12,1.135A1.127,1.127,0,0,1,124.933,164.966Zm-49.5,1.026,2.784,2.585-2.88,2.931-1.054-1.026,1.6-1.7L74.8,167.3Zm60.626.251a1.136,1.136,0,1,1-1.12,1.135A1.128,1.128,0,0,1,136.058,166.243Zm-3.224,1.922a1.135,1.135,0,1,1-1.119,1.135A1.127,1.127,0,0,1,132.834,168.165Zm-3.5,1.928a1.136,1.136,0,1,1-1.12,1.135A1.128,1.128,0,0,1,129.331,170.093ZM71.747,173.3l.909.751L71.229,175.8l-1.089-.015ZM54.158,178a27.492,27.492,0,0,0-6.9,4.552l-3.171-4.459Zm-21.593.031,8.452.12-2.811,4.032a17.1,17.1,0,0,0-5.641-4.152Zm10.066.439c.916.3,3.313,3.758,4.441,5.649,2.4-1.938,4.757-4.1,7.324-5.268a57.565,57.565,0,0,0-7.639,9.917c-.541-1.474-2.045-5.693-3.949-7.526a17.567,17.567,0,0,0-4.192,6.274,54.5,54.5,0,0,0-5.813-8.2c-.373-.51,2.74,1.451,5.821,4.49C39.491,181.589,41.814,178.558,42.631,178.471Zm-10.15,2.177c1.451,1.169,5.4,6.3,5.852,9.388l-1.891.121c-1.005-3.17-2.694-6.339-3.961-9.509Zm21.017.525c-1.429,2.971-3.2,6.006-4.475,9.295l-1.867-.082C49.2,185.854,49.947,185.025,53.5,181.173ZM42.788,182.5a.063.063,0,0,1,.046.011,17.853,17.853,0,0,1,3.141,7.748L44.6,190.2a26.61,26.61,0,0,0-1.615-3.946c-.425-.629-.766-.549-1.065-.027a17.1,17.1,0,0,0-1.312,3.809l-1.58-.116c-.292-2.2,3.2-7.369,3.758-7.425Zm-.249,8.463c.642.009,1.313.713,1.308,1.952.049.581-.4,1.869-.878,1.935-.9.481-1.954-1.015-1.688-2.262.227-1.064.692-1.632,1.258-1.625Zm-3.109.234c1.269.114,1.542,3,1.028,3.588a1.511,1.511,0,0,1-2.3-.855C37.649,192.617,38.578,191.205,39.43,191.192Zm6.253-.017c1.382.2,1.034,3.363.32,3.828-1.112.6-1.958-.4-1.583-1.888C44.722,191.916,45.172,191.2,45.683,191.175Zm3.2.525c1.582.179.668,2.967-.024,3.535-1,.793-1.973-.393-1.491-1.809.373-1.1.994-1.734,1.514-1.726Zm-12.772.086c1.151.186,1.818,2.827,1.132,3.581-.357.433-1.4-.2-1.873-.922C34.794,193.576,35.328,191.782,36.106,191.786Zm12.252,5.751c.137,1.386-.894,1.386-3.867.71a17.2,17.2,0,0,0-5.522.124c-2.288.421-2.612.26-2.607-.684.008-1.1,1.287-1.717,4.256-1.81C42.742,195.81,48.029,195.789,48.358,197.537Zm4.623-.814c-3.54.338-4.482,4.835-4.092,6.5a21.976,21.976,0,0,1-.349,7.6,23.626,23.626,0,0,1-1.323,4.078c-.931,1.879-.691,3.275.691,4.024a2.792,2.792,0,0,0,3.405-.549c1.581-1.722,1.77-5.379.8-13.676-.342-2.927-.158-3.511,1.243-3.347,2.94-.023,2.823-4.618-.376-4.622Zm-.426,3.779c-.792-.31-1.328.418-1.223,2.235a24.4,24.4,0,0,0,.268,2.433c1.145,7.961.717,13.293-1.7,13.556-2.1.341-3.52-1.225-2.5-2.845.58-.918,1.08-1.042,2.209-.56,1.551.975,1.162-.445-.234-1.493-.9-.642-.964-.643-.483-2.651a23.38,23.38,0,0,0,.629-8.071c-.335-2.424.464-5.64,3.509-5.83a1.7,1.7,0,1,1-.484,3.226Zm-21.73,10.484a3.383,3.383,0,0,0,2.929.008,18.707,18.707,0,0,1,1.518-5.4,3.719,3.719,0,0,0-5.908.838,3.345,3.345,0,0,0,1.461,4.556Zm3-5.875c1.134.244.964,1.452-.1,1.059-2.544-1.215-4.619,2.441-2.565,3.817,1.048.594,1.511.253.472-.564-.426-.5-.319-.7-.061-1.2.533-1,2.472-.842,2.335-.113-.441,2.316-.733,2.984-1.419,2.99-3.952.206-4.7-7.293,1.342-5.992ZM67.4,209.276S55.626,222.77,49.955,229.681l71.074-.334L107.505,210.43C95.9,213.145,82.271,212.361,67.4,209.276Zm-.353,4.311c1.775.019,3.795,1.327,5.541,5.683.094.042,7.817-11.888,14.5.463,1.091-2.772,7.389-10,14.668-.723,2.585-6.211,8.548-4.11,9.107-1.944-.126-.466-5.682-1.8-8.088,2.313a1.822,1.822,0,0,0,.043,2.189,1.191,1.191,0,1,1-1.668.176c1.209-.913-1.266-3.753-3.3-4.775-2.793-1.4-6.688-.784-8.561,1.229a6.491,6.491,0,0,0-1.77,2.831.764.764,0,0,0,.181.79c.812.994.276,2.354-.823,2.189-1.44-.216-1.247-1.581-.284-2.327.3-.147.183-.323.094-.577-2.629-7.506-12.428-6.076-13.487-.879a1.432,1.432,0,0,0-.08.581c.11.5.4.916.286,1.307a1.268,1.268,0,0,1-2.508-.184c-.04-.6.6-.782.913-1.331a1.265,1.265,0,0,0,.094-1.148c-2.655-5.639-7.213-4.459-9.475-3.185-.047.027,2.023-2.707,4.617-2.678ZM64.1,216.856a3.364,3.364,0,0,1,2.68,1.419c2.783-1.492,4.762,1.092,4.433,1.341-3.941-2.593-5.22,3.449-1.337,3.22-1.707,3.578,4.388,5.112,3.7.538,3.761,1.331,4.382-3.9.572-3.825,1.231-2.16,4.426-1.566,5.778-.213,1.589-1.967,5.491-.091,5.878,1.59-4.376-2.272-4.817,4.674-.579,3.2-1.255,4.421,5.483,3.792,3.62-.019,4.2,1.4,3.625-4.96-.5-3.67-.25-.33,3.261-4.006,5.814-.552.345-.608,4.33-2.6,6.511.528-4.725-1.62-3.831,4.828-.445,3.546-.906,4.272,5.2,3.578,3.643-.062,4.733,1.213,2.637-6.1-.69-3.4.543-2.938,4.521-1.72,4.478-1.267,0,0,2.113-2.317,4.479-.622-3.7.315-2.439,5.369,1.054,3.93a2.324,2.324,0,0,0,3.271,2.27l2.987,4.234-68.132.435,5.442-6.577c1.821,1.526,3.708.8,3.941-1.588,3.962,2.463,4.991-3.388,1.273-3.641a4.038,4.038,0,0,1,2.125-.813Zm-3.808,1.9c.236.169-.084.982-.606.747Zm53.124,1.7c.2.294.347.483.549.778C114.063,221.5,112.9,221.094,113.417,220.456Z"/><path id="f4178c8b-c645-4c09-b452-edeb1284d7f2" data-name="path163-0-2-5-8-7-5-6-5-5" d="M48.375,65.052s-3.734-6.124-8.769-13.325c-3.369-4.818-6.062-10.036-6.313-14.53-.287-5.134,2.432-10.284,7.353-10.534s6.916,3.959,7.728,7.428c.813-3.47,2.81-7.677,7.729-7.428s7.64,5.4,7.353,10.534c-.251,4.494-2.944,9.712-6.313,14.53-5.036,7.2-8.769,13.325-8.769,13.325Z" fill="#d40000"/><path id="423d095b-b945-42ef-95c6-fceb0df14403" data-name="path163-0-2-5-8-7-7-8-9-1-8" d="M131.2,185.39s-3.733,6.124-8.769,13.325c-3.369,4.818-6.062,10.036-6.313,14.53-.287,5.134,2.432,10.284,7.354,10.534s6.915-3.958,7.728-7.428c.812,3.47,2.809,7.677,7.728,7.428s7.64-5.4,7.353-10.534c-.25-4.494-2.944-9.712-6.313-14.53-5.035-7.2-8.768-13.325-8.768-13.325Z" fill="#d40000"/></g><rect id="1ebc77ed-b806-4528-9db4-96ffc8a754b8" data-name="rect17738" x="0.497" y="0.496" width="178.583" height="249.449" rx="8.504" ry="8.504" opacity="0.08" fill="url(#379b6bc7-acaa-45c3-96bc-e32b86bf5445)" style="isolation:isolate"/></g></g></g></svg>