<svg xmlns="http://www.w3.org/2000/svg" xmlns:xlink="http://www.w3.org/1999/xlink" viewBox="0 0 179.576 250.442"><defs><pattern id="2e54d96e-577c-443c-a34f-d676b3bb650f" data-name="pattern17660" width="595.276" height="841.89" patternTransform="matrix(0.8, 0, 0, -0.8, -615.4, 1249.292)" patternUnits="userSpaceOnUse" viewBox="0 0 595.276 841.89"><rect width="595.276" height="841.89" fill="none"/></pattern></defs><title>KS</title><g id="35750b2c-e69b-4fa1-8e0d-57c6087aebb7" data-name="Layer 2"><g id="1f0f797a-f594-41c7-b021-754f39d2ec68" data-name="Spades"><g id="9f4207e1-d733-4c1f-aa96-45d1be702b52" data-name="JK"><g id="7bb8ac99-bfda-4c22-b2cf-d02b19d0d962" data-name="g101346"><rect id="9c713a4a-ce98-4f45-a484-a6ff2ed69b3b" data-name="rect5563" x="0.496" y="0.496" width="178.583" height="249.449" rx="8.504" ry="8.504" fill="#fff" stroke="#b3b0b0" stroke-width="0.993"/><path id="2cb42740-5f52-48f6-ac93-f74440d14d9a" data-name="path7499-2-5" d="M14.27,40.475c-3.448,4.386-7.138,6.91-7.2,10.331a3.322,3.322,0,0,0,2.755,3.352A2.86,2.86,0,0,0,13.109,51.4c-.008-.4.473-.388.469.158a10.441,10.441,0,0,1-1.567,4.913h4.518a10.441,10.441,0,0,1-1.567-4.913c-.008-.546.475-.557.469-.158a2.86,2.86,0,0,0,3.283,2.754,3.322,3.322,0,0,0,2.755-3.352c-.061-3.421-3.751-5.945-7.2-10.331Z"/><path id="831af7f9-41f0-410c-a3e7-9503d7475508" data-name="path7503-7-0" d="M165.306,209.967c-3.449-4.386-7.139-6.91-7.2-10.331a3.322,3.322,0,0,1,2.755-3.352,2.86,2.86,0,0,1,3.284,2.754c-.008.4.473.389.469-.158a10.456,10.456,0,0,0-1.567-4.913h4.517A10.454,10.454,0,0,0,166,198.88c-.008.547.474.557.468.158a2.861,2.861,0,0,1,3.284-2.754,3.322,3.322,0,0,1,2.755,3.352c-.062,3.421-3.751,5.945-7.2,10.331Z"/><path id="b4f2006a-18bb-47d2-b97c-aa5c692b9b4f" data-name="path39-5-1-0" d="M14.907,35.059h2.656l-3.9-9.748L10.68,29.428l.021,5.631h2.093v2.9H5.417v-2.9H7.848V14.1l-2.431.01V11.567H12.9v2.624H10.837l-.044,10.217,6.533-10.3H15.02V11.567h7.963v2.538h-2.1l-5.38,8.42L20.77,35.063h2.338l.012,2.9H14.931l-.025-2.908Z"/><path id="8182963b-8584-4cc7-80be-4b7a2ea61765" data-name="path39-5-7-0-0" d="M164.667,215.383h-2.656l3.9,9.748,2.981-4.117-.021-5.631h-2.093v-2.9h7.377v2.9h-2.431v20.964l2.431-.01v2.538h-7.485v-2.624h2.065l.044-10.217-6.533,10.3h2.306v2.538H156.59v-2.538h2.1l5.38-8.419L158.8,215.379h-2.338l-.011-2.9h8.188l.025,2.908Z"/><path id="dac93363-edeb-49d7-9888-4f87b9551266" data-name="path4096-2-4-0" d="M24.188,19.621h131.2v211.2H24.188ZM117.31,229.476c-4.879-8.885-12.591-23.359-12.819-23.474-2.852,1.525-31.926,5.435-45.911,1.649-4.783,7.217-9.479,14.365-13.643,21.518ZM72.657,202.9c-.732.016-1.547.464-1.4.074.087-.225.294-2.5.384-3.318.219-.363.527.588.492,1.47-.02.507.222.145,1.878.232a23.314,23.314,0,0,1,3.865.564c2.119.46,6.216.13,7.972-1.153.951-.694,1.31.055.33.8-4.425,3.365-7.933,2.081-11.778,1.518a10.446,10.446,0,0,0-1.746-.188Zm1.881-3.193a.69.69,0,0,0-.808-.033c-1.358.636-1-.277-.025-1.2.447-.419.434-.633.095-1.074-.172-.224-.459-.251-.39-.586.294-1.442,2.311-3.624,4.567-4.6.938-.406,1.086.038-.1.737-1.824,1.076-2.415,1.994-1.383,1.62,2-.724,3.826-.213,6.386,1.069a2.557,2.557,0,0,0,1.689.371c.46-.383.871.077,1.156.318.179.144.218.213.421.165,1.457-.343.584.588-1.407,2.046-3.566,2.529-7.456,3.721-10.2,1.161Zm5.487.622a12.829,12.829,0,0,0,4.325-2.321c1.325-1.166.576-.989-.947-.254a11.906,11.906,0,0,1-6.226,1.315c-2.075-.048-2.01-.132-2.085.128-.266.91,2.59,1.84,4.933,1.132ZM76,196.774a1.943,1.943,0,0,0,.1-1.084c-.192-.308-.605-.081-1.129.584-.325.411-.281.467.038.792.159.109.282.19.378.246.443.189.514-.223.61-.538Zm.907.537c.638-2.178,2.067-2.135,3.086-.051l.719,0c-1.478-4.055-4.339-2-4.435.016A1.186,1.186,0,0,0,76.906,197.311Zm5.338-.367c.674-.377.575-.633-.284-1.078-.611-.315-.934-.379-1.045-.175a2.8,2.8,0,0,0,.286,1.448c.269.164.639,0,1.043-.2Zm-9.456-6.2c-.123-.2-.1-.579.368-.8,2.893-1.342.785-4.177-1.449-2.051a2.634,2.634,0,0,1-2.576.506c-.765-.334-.779-1.271.237-1.472a5.431,5.431,0,0,0,1.506-.467c3.883-2.083,5.946,2.446,3.19,3.953-.566.331-1.167.517-1.276.328Zm-10.879-4.112a2.476,2.476,0,0,1-.315-4.169c.94-.644,1.9-.82,4.492.464,1.829.907,2.876-.069,2.829.986-.029.642-.067,1.289-1.131,1.444-1.728.251-2.908-2.1-5.129-1.878a1.261,1.261,0,0,0-.241,2.471c1.543.52.607,1.136-.505.682Zm28.979.361c-.289.136-.425-.5-.3-.837.788-1.872,1.513-3.361,2.226-5.115.57-1.4.952-2,1.208-2s.382.206-.055,1.066c-.66,1.736-3.075,7.03-3.079,6.882Zm-12.94-.485c-.7-.5-.579-1.236.214-.677,1.02.718,2.691-.6,2.35-1.837-.412-1.5-2.4-1.862-4.063-.52-2.625,2.119-5.5,2.226-5.5.571.008-.474-.061-.581,1.031-.655a8.548,8.548,0,0,0,3.414-1.1c3.194-1.951,6.591-.6,5.887,2.65a2.343,2.343,0,0,1-3.328,1.572Zm-11.709-4.8c-.259-.008-.733.254-.868.152-.266-.2-.228-.776-.446-1.394-.388-1.1-.01-.755.673-.458a3.656,3.656,0,0,0,2.588.018,8.233,8.233,0,0,1,3.559,0,7.108,7.108,0,0,0,3.366-.228c1.343-.421.987-.27.763.561a5.3,5.3,0,0,1-.5,1.45,2.055,2.055,0,0,0-2.243.035,3.358,3.358,0,0,1-2.533.272,1.545,1.545,0,0,0-1.851-.024c-1.069.519-1.543-.339-2.508-.388Zm20.02-2.281c.188-.331.462-.787.718-1.3,2.075-4.129,2.216-5.278.752-6.669-1.967-1.87-3.644-1.059-5.529,2.675-.458.906-.731,1.587-.916,1.867-.213.322-.462.074-.585-.052-.233-.237,1.859-4.2,2.679-5.066a3.458,3.458,0,0,1,5.88,2.627c-.128,1.551-.422,2.4-1.837,5.245-.35.7-.654,1.3-.84,1.587-.664.446-.512-.576-.322-.915Zm-19.55-.164c.327-1.471,5.031-2.152,6.27-.223.121.188.05.181-.482.034-2.391-.792-2.865-.749-5.157.159-.344.133-.589.188-.631.03Zm17.945-.28a4.422,4.422,0,0,1,.441-1.208c1.568-3.107,2-3.857,1.522-4.438-.932-1.132-2.183-.148-3.334,3.1-.43,1.213-.723.954-.933.763-.4-.367,1.377-4.143,2.235-4.7,1.944-1.24,3.474.195,2.615,2.73-.67,1.145-1.224,2.906-1.85,3.833-.3.416-.7.293-.695-.072Zm-7.032-5.047c-.095-.156.089-.367.762-1.814.926-1.99,1.213-2.727.837-3.863a2.944,2.944,0,0,0-4.734-1.192,4.363,4.363,0,0,0-1.08,1.555,26.312,26.312,0,0,1-1.346,3.164c-.288.29-.689.349-.663-.158a16.836,16.836,0,0,1,1.4-3.481c2.152-4.688,8.354-2.517,6.9,2.418a12.9,12.9,0,0,1-1.528,3.589.32.32,0,0,1-.551-.218Zm-1.44-.861a8.579,8.579,0,0,1,.481-1.206c1.049-2.6,1.055-3.4-.474-3.433-.914.118-1.05.494-1.853,2.547a8.244,8.244,0,0,1-.559,1.344c-.166.219-.478.089-.606-.042-.328-.335,1.1-3.7,1.86-4.335,1.74-1.519,3.994.638,2.938,2.574a13.842,13.842,0,0,1-1.212,2.689c-.256.371-.578.318-.575-.138Zm-37.04-30.33-5.285-.364a47.56,47.56,0,0,1,.038,16.344,31.993,31.993,0,0,0-.576,9.856c.28,3.819,1.892,7.057,2.3,11.111a31.034,31.034,0,0,1-.932,8.923c-.967,4.88-.768,5.389-.625,11.116.132,5.309-.362,5.119-.665,4.809a13.367,13.367,0,0,1-.082-2.1c.008-1.116-.061-3.847-.125-5.743a38.958,38.958,0,0,1,.6-8.511c.619-2.8,1.314-5.675.886-8.777-.87-3.916-2.1-7.827-2.527-11.6-.53-4.654.774-9.323,1.2-12.7.416-3.264-.025-8.909-.877-11.259a6.135,6.135,0,0,0-.842-1.8,16.783,16.783,0,0,0-2.715-.22c-.062,22.411,0,44.832.017,67.246l4.928,4.593,5.064-4.835Zm.356,25.709s7.52,4.348,15.811,8.621c-.789-4.889,1.715-5.626,4.066-6.194-.564-9.445,8.052-7.507,9.372.7l.849,0c1.493-4.091,2.969-6.915,6.368-7.589,2.634-.522,5.232,1.154,5.891,5.1-.116-.277,8.734-5.217,8.978,5.22,4.019-2.506,6.887-.341,8.046,2.841,1.7-2.6,5.945-2.712,7.3-2.9.473-.547,1.307-.86,2.823-.85,1.3-.067,3.046-1.045,3.945.146,1.366.217,2.408-.031,3.576.875.929.71,1.966,2.292,3.513,1.2,2.95-1.427,6.266-2.071,8.9-3.791,0,0-.7-.905-.5-.775a2.968,2.968,0,0,0,.9.674,9.392,9.392,0,0,0,1.8-.9c-10.988-12.715-20.026-37.539-14.058-60.506.165-.391-.5-.541-.824-.68.1-.176,1.713.06,1.028,1.52-.69,4.4-1.471,9.169-1.645,12.818,0,.444.037.842.037.842,24.637,11.415,21.616,36.139,15.287,44.745l1,1.335c.441.3,19.381-10.8,18.757-11.253l3.584-1.792-.581-48.482-14.174-1.089s.151-.407.33-.512c.13-2.96-.134-7.338.008-11,.055-10.471.16-14.032.025-14.322-4.372-2.891-10.891-7.12-16.377-9.17a18.466,18.466,0,0,1-.256,4.583c-5.133,1.645-2.75,3.748-4.647,6.006a4.075,4.075,0,0,1-5.7-.013c-1.721-1.672-2.528-5.51-2.528-5.51-2.715,2.917-2.158,6.44-5.794,7.767-5.844,2.912-7.7-5.794-7.36-5.593-2.24,2.169-8.524,3.933-9.2-5.225-2.826,2.613-5.993,1.316-7.337-1.9-1.725.062-3.659,1.419-5.4,2.153a13.382,13.382,0,0,1-5.23,1.111,12.193,12.193,0,0,1-5.243-.294,3.451,3.451,0,0,1-3.218-1.667,2.205,2.205,0,0,0-2.447-.9c-2.808,1.486-5.819,1.844-9.133,3.4-.207.144.291.416.123.362-.07-.022-1.741.824-1.741.824,16.79,22.173,17.7,44.559,14.184,60.426a1.356,1.356,0,0,0,.149,1.382c-.533-.092-.542.064-.641-.279l1.746-13.318c.051-1.608.252-1.489-1.155-2.089A27.241,27.241,0,0,1,59.1,122.75c-4.094-3.047-8.721-6.8-10.976-11.478-6.433-10.059-4.311-22.061.508-31.57l-1.2-1.251A106.977,106.977,0,0,0,25.052,93.17l.061,47.573,14.461,1.675Zm-6.976-31.768a1.869,1.869,0,0,0-2.137-.214c-.113.1-.356.6-.428.582-.655-.169-1.108-.306-1.2-.861l.7-1.055c.55-.836,1.344-1.132,2.68-1.446.475-.112,1.191-.214,1.444-.322,1-.436,1.354-1.38.337-.957-.743.2-1.782.137-1.919-.545a.922.922,0,0,0-1.119-.715,10.144,10.144,0,0,0-2.742,1.268c-.385.233-1.114.76-1.114.76-.115.182-.54-1.14-.144-1.526a2.645,2.645,0,0,0,1.393-.128c1.2-.478,2.347-1.056,3.553-1.519.769-.3.839-.278.637-.825a2.131,2.131,0,0,1-.057-1.225c.141-.373.125-.561-.113-.721-.543-.363-1.845-.025-3.677.859a6.306,6.306,0,0,0-1.278.663c.228-.582.095-.689.089-1.3a3.411,3.411,0,0,0,2.018-.52,6.185,6.185,0,0,1,2.4-.687c.37-.048.2-1.407-.22-1.8a2.468,2.468,0,0,0-2.246-.08,3.84,3.84,0,0,0-2.649,1.395c-.785.746.019-1.236,1.449-2.027a17.443,17.443,0,0,0,2.335-.384c.552-.123.64-1.424-.162-1.981-.5-.44,1.825-.452,1.78-.318-.03.077-.051.633.127.775a1.551,1.551,0,0,1,1.081,1.473c1.151,1.9,1.717.707,2.509.053-.167,4.133,1.272,4.6,1.462,4.865-1.976,3.7-.486,3.794,1.367,4.645a3.457,3.457,0,0,1-1.173.258,5.757,5.757,0,0,0-2.765,1.35c-.341.286-.351.048-1.712.008a3.142,3.142,0,0,0-1.961.319c-1.154.514-1.148,1-.021.807a2.116,2.116,0,0,1,2.514,1.526.7.7,0,0,1-.008.511c-.251-.047-.816.048-.807-.073a1.558,1.558,0,0,0-.222-.889Zm1.752-5.008a.716.716,0,0,0,.1-1.044,1.992,1.992,0,0,0-1.663.177c-.7.554.579,1.48,1.565.867Zm.7-2.488a1.154,1.154,0,0,0,.1-1.515,1.342,1.342,0,0,0-2.222.642C32.767,129.314,34.133,129.843,34.975,129.183Zm-.5-3.414a.985.985,0,0,0-1.486-.955c-.931.487-.366,1.513.8,1.453.646-.034.646-.034.687-.5Zm-2.724-3.344a.6.6,0,0,0-.045,1.059C33.336,124.389,32.839,121.964,31.748,122.425Zm114,4.927c-.717-2.654-2.692-.023-2.7.013-.07-2.719.442-3.929-1.587-4.858,2.036-3.1,1.612-3.526-.547-4.715.2.017,2.866-.584,3.322-2.115.1.072,4.186,1.083,4.7-1.157-1.233.564-3.657.649-3.684-1.76.229-.069.8.049.755.126-.322,1.545,2.479,1.927,2.937.707a6.882,6.882,0,0,0,1.354.731,5.438,5.438,0,0,1-2.477,2.148c-2.17.722-2.918.917-2.921,1.35,0,.168.354.195,1,.328,1.347.093,1.319.384,1.5.832.156.4.308.477.758.436a7.041,7.041,0,0,0,3.381-1.861c.131-.026.282,1.133.365,1.172.013-.184-1.089.138-2.781,1.133-1.381.812-1.921.93-2.1,1.149-.131.163.205.675.24,1.231.03.468-.283.695-.053.841a1.622,1.622,0,0,0,1.219,0,10.158,10.158,0,0,0,3.145-1.427c-.228.434.154,1.534.154,1.534a1.14,1.14,0,0,0-.965-.18,24.762,24.762,0,0,1-2.564.962,1.433,1.433,0,0,0-.648.248c-.171.146-.142.5-.145,1.01,0,.361-.1.694.121.8a4.6,4.6,0,0,0,2.543-.251c.439-.192,1.371-.7,1.371-.7l-.292,1.521c-.391-.442-1.513-.116-2.264.181a.843.843,0,0,0-.588.691.937.937,0,0,0,.605,1.146,1.6,1.6,0,0,0,.7.073c-1.946.745-1.559,1.019-2.694.454a4.508,4.508,0,0,1-1.159-1.79Zm2.036,0a1.208,1.208,0,0,0-1.212-.442c-.292.156-.187.482-.094.73C146.724,128.329,148.433,128.107,147.783,127.352Zm-1.135-1.9c.456-.6-.046-1.41-.889-1.415a.8.8,0,0,0-.892.824c.012.872,1.4,1.092,1.781.591Zm-.937-2.291a.954.954,0,0,0,.521-1.651,1.925,1.925,0,0,0-2.068-.093c-.89.98.107,2.138,1.547,1.744Zm.7-3.012c.5-.255.592-.68.154-1.163-.8-.681-2.185-.15-1.736.843a1.166,1.166,0,0,0,1.582.32ZM44.706,97.29a15.849,15.849,0,0,0,2.07-1.3c.53-.291.371-.245-.307-.643-.534-.247-1.6-1.334-1.7-1.075a7.972,7.972,0,0,0-.061,3.019Zm18.869,26.545c.03-.518.092-1.3.077-1.868.1-1.089-.093-.771-.679-.415-.434.281-1.13.708-1.4.845-1.076.54-.947.568.567,1.3,1.272.573,1.415.517,1.437.138ZM62.1,121.286c1.028-.651,1.369-.987,1.419-1.718.008-.841-.092-1.147-.825-.565-2.5,1.986-5.079-1.91-2.788-4.075a4.788,4.788,0,0,0,1.066-1.307c.038-1.256-1.369-.037-2.518,1.687-1.272,1.568-2.065,3.529-.949,5.413.893,1.378,2.881,1.65,4.595.565Zm-5.686-2.536a4.166,4.166,0,0,1,.207-1.506c.281-.719.269-.808-1.006-.21a5.923,5.923,0,0,1-1.35.3c-1.041-.007-.781.322.712,1.573s1.55,1.37,1.437-.162Zm3.547-6.019c.159-.379-.171-.524-.488-.453-.025.006-.571.415-1.212.923-1.946,1.538-3.372,1.718-4.337.546-.978-1.189-.569-2.6,1.618-4.212.964-.713,1.2-.761.732-1.072-.353-.237-.374-.2-1.761.743-2.8,1.9-3.632,3.2-3.351,5.091a1.941,1.941,0,0,0,.854,1.487c2.665,2.372,6.361-.9,7.945-3.053Zm2.821,1.122-.169-2.618a22.752,22.752,0,0,1-6.467-10.147c-.95-3.1-.193-9.556-.05-9.077l-1.535-2.922a19.1,19.1,0,0,0-.466,12.648c1.233,4.089,3.7,9.043,8.687,12.116Zm-11.968-1.525c.9-1.742.931-1.553-.813-1.569-1.991-.017-1.768-.26-.646,1.448.9,1.372.749,1.491,1.459.121Zm1.2-2.387a6.483,6.483,0,0,0,2.407-1.279c1.746-1.141,1.819-1.766.066-.886-2.252,1.129-4.229.84-4.963-.633-.654-1.314.712-2.952,2.959-3.593.768-.219,1.173-.4,1.175-.742.008-1.03-3.82.345-5.4,1.9-3.044,3-.381,6.566,3.752,5.233Zm-4.92-4.675c.1-.157.376-.532.628-.921,1.078-1.259.172-.883-.785-1.227a3.491,3.491,0,0,0-1.32-.328c-.573.087.193,1.2.377,1.915C46.5,106.3,46.444,106.253,47.088,105.266Zm4.074-2.878c1.929-.189,2.125-.377,2.128-.778s-.236-.322-1.2-.187c-2.565.358-4.263-.3-4.63-1.672-.378-1.418,1.359-2.76,3.674-2.681,1.253.043,2.088-.392,1.325-.811a16.2,16.2,0,0,0-4.632.058c-2.294.671-3.229,1.953-3.02,3.728.318,2.192,1.509,2.82,4.413,2.665.556-.03,1.266-.255,1.946-.322Zm1.492-7.14c0-.342-.549-.391-2.369-.663-2.424-.362-3.508-2.616-2.046-3.972a3.675,3.675,0,0,1,2.609-.6c1.6.292,2.576.623,2.592.078,0-.487-.461-.521-3.462-1.158-4.534-.964-7.023,3.508-3.4,5.695,1.377.83,6.07,1.3,6.074.62Zm1.124-6.4c0-.171-.146-.3-.489-.438a6.737,6.737,0,0,1-1.959-.994c-1.5-1.014-1.951-2.99-.953-4.091.97-1.028-.775-2.242-2.164-1.082-1.444,1.206-1.323,3.1.34,4.6C50.084,88.221,53.773,89.655,53.778,88.851Zm-7.346-.268c1.576-.742,2.708-.315,1.5-1.34-.677-.63-1.254-2.422-1.725-.9A14.24,14.24,0,0,0,45.575,89C45.681,89.109,45.657,88.924,46.432,88.583Zm55.737-3.855a3.846,3.846,0,0,1-2.564-4.556,19.507,19.507,0,0,1,1.533-3.983c.792-.631.683.208-.044,1.667-.662,1.488-1.179,2.685-.974,3.571a2.89,2.89,0,0,0,2.1,2.543,2.949,2.949,0,0,0,2.367-.574c.774-.55,1.506-1.959,2.382-3.911.279-.549.655-2.234,1.121-1.206.224.533-1.643,4.074-2.341,4.971a3.691,3.691,0,0,1-3.585,1.478Zm10.82-1.185a3.744,3.744,0,0,0,3.317.963c2.367-.838,3.442-3.085,2.546-6.7-.453-2.025-.842-3.284-1.234-3.534-.191-.122-.4.1-.585.387-.165.251.088.6.356,1.558,1.132,4.014.836,5.829-.545,6.6-2,1.113-3.719-.169-4.3-3.033-.093-.442-.368-1.345-.368-1.345-.153-.4-1.394-.31-.943,1.023a9.956,9.956,0,0,0,1.756,4.082ZM123.144,73.03c-.032-1.412-2.988-7.54-3.189-6.889a14.642,14.642,0,0,0,.1,1.995,2.551,2.551,0,0,0,.323.637c2.57,4.6,2.173,7.846-.055,8.556-.759.346-.924.687-.585,1.044.687.75,2.409-.733,2.744-1.272C123.328,75.893,123.211,73.69,123.144,73.03ZM80.119,71.988a28.742,28.742,0,0,0,3.747-6.8C85.88,59.332,88,52.6,88.582,46.375c.066-.786.106-1.981.145-2.083a2.283,2.283,0,0,0-1.493.09c-.16.211-.052.677-.11,1.284a85.426,85.426,0,0,1-5.033,19.86,31.5,31.5,0,0,1-3.381,6.636c-.227.342-.516.694-.629.893-.329.477-.087.788.293.587a8.167,8.167,0,0,0,1.746-1.654Zm-3.3,1.7A48.377,48.377,0,0,0,83.809,58.24a94.724,94.724,0,0,0,2.6-11.92c.117-.862.211-1.439.043-1.7a2.21,2.21,0,0,0-1.465.166c-.165.252-.056.754-.208,1.917a84.3,84.3,0,0,1-1.985,9.975c-2.637,8.745-5.059,13.641-8.242,17.925-.257.361-.486.595-.463.748.034.224.343.206.848-.112a12.16,12.16,0,0,0,1.883-1.551Zm-4.706,2.27c1.511-.862,4.172-4.613,6.052-8.652a94.068,94.068,0,0,0,5.03-14.819A53.593,53.593,0,0,0,84.306,45c-.121-.4-1.6-.066-1.393.209a109.551,109.551,0,0,1-3.046,12.73c-2.931,8.4-5.465,14.094-8.193,16.834-.358.359-1.062,1.061-1.062,1.061s.015.313.243.361a1.791,1.791,0,0,0,1.257-.238ZM69.8,75.626c3.41-1.918,7.4-10.877,10.663-22.125.558-1.924,1.577-8.367,1.577-8.367s-1.358.05-1.62.338c-.264.389-.222,1.38-.6,3.735a75.9,75.9,0,0,1-7,20.019c-1.437,2.842-3.825,5.519-5.333,6.281-.843.426-1.09.9-.472.93,1.039.037,1.132.256,1.887-.152Zm46.723,100.187c-2.556-.009-4.729,2.46-6.663,5.562-4.117,6.357-6.883,16.981-7.557,22.627l1.553-.3c-.233.108,2.9-15.028,7.681-21.508,2.583-4.089,2.474-4.151,3.924-4.526,1.833-.474,3.3,1.522,2.394,2.724-.329.407-.69.108-.589-.472.325-1.85-2.358-2.206-3.108-.388-.862,2.092,1.431,3.958,3.671,3.135,2-.711,2.84-3.528,1.435-5.609A3.866,3.866,0,0,0,116.522,175.813Zm-13.46-.259C100,179.423,98.483,183.4,96.6,188.829a70.679,70.679,0,0,0-3.813,16.819l1.652-.214c-.06-3.914,4.2-22.551,10.19-29.532a2.859,2.859,0,0,0,.578-.911C104.878,174.048,103.458,175.183,103.062,175.554Zm6.764-1.445c-3.968,3.272-7.138,10.422-9.229,17.03-2.259,7.144-3.273,13.69-3.1,13.69l1.577-.233c-.118-.415,4.429-25.586,12.867-30.169.731-.367.885-.738.268-.9a3.516,3.516,0,0,0-2.38.58Zm4.443.016c-8.665,1.149-14.327,27.906-14.516,30.128,0,.034-.032.207-.032.207l1.725-.358s.015-.086.023-.128a70.191,70.191,0,0,1,5.046-17.809c2.106-4.58,5.009-10.435,9.349-11,.352-.046.686.1.563-.317-.264-.656-1.561-.74-2.157-.72ZM62.628,165.7c-3.132.811-3.234,4.59-1.148,9.419.157.365.129.564.289.705.356.314.636-.124.676-.413a4.36,4.36,0,0,0-.457-1.888c-1.291-3.342-.981-5.268.3-6.12,3.276-1.7,4.157,1.79,4.652,3.4.122.391.163.929.377.958a1.309,1.309,0,0,0,.956-.143,43.39,43.39,0,0,0-1.4-4.135,3.521,3.521,0,0,0-4.245-1.779Zm-22.721,3.568L39.875,209.1l-5.995,5.671c-2.573-2.221-5.953-5.7-5.953-5.7l.106-67.341-1.929-.156c-.472,28.933-.008,58.45-.031,87.44h17.6l14.67-23.1a3.367,3.367,0,0,0,.245-.42c.18-.446.159-1.11.07-3.565a8.98,8.98,0,0,0-.07-2c-.148-.237-.461-.068-.753.064s-.475.087-.315-.266c.091-.2.385-.641.638-1.06.824-1.362,1.026-1.8.747-3.309a3.711,3.711,0,0,0-.7-1.123c-2.469-3.672-3.474-9.115-2.248-13.1a3.5,3.5,0,0,0-.594-3.493Zm77.6-42.831c-1.612-.834-1.581-.816-1.591.763.009,1.18.032,1.465.471,1.306.636-.325,1.412-.624,2-.874C119.5,127.243,118.082,126.746,117.505,126.436Zm6.38,4.1c-1.251-1.006-.789-.891-1.143,1.378-.214,1.37-.49,1.406.917.952.8-.278,2.441-.1,1.7-1.047C125.371,131.838,124.131,130.749,123.885,130.539ZM73.627,165.366c-1.919,1.17-3.879,6.84-3.879,6.84-6.705.805-9.512,7.452-9.812,13-.236,4.375-.531,9.484-.093,9.932,4.4-1.993,6.09.307,6.507-.313.19-.271-.975-1.168-2.439-1.974a8.9,8.9,0,0,1-1.066-.69c-.534-.446,1.066-.062,2.077.632,1.289.885,1.506.7.946-1.885-.608-2.811-.708-3.155,1.435-4.269a5.99,5.99,0,0,0,1.959-1.518c.491-.555.617-.69.436.125-.314,1.413-1.56,2.029-2.683,2.6a1.53,1.53,0,0,0-.792,1.368,31.277,31.277,0,0,0,.844,4.132c.249.834.34,1.67.532,2.52a8.43,8.43,0,0,1,.282,4.24,8.1,8.1,0,0,0-.173,2.041c.047.516.117,1.217.117,1.217,0-.024-1.2-1.24-3.822-.2a4.994,4.994,0,0,1-4.449-.587,9.438,9.438,0,0,0-.16,2.809,95.967,95.967,0,0,0,28.089.914,91.349,91.349,0,0,1,3.271-16.49,43.686,43.686,0,0,1,2.946-7.7,8.427,8.427,0,0,1,1.791-2.4c.085-.052.093-.079.09-.115v-.209a2.085,2.085,0,0,0-.5-1.408c-.905-.728-2.351.21-2.826,1.835a52.845,52.845,0,0,1-2.452,5.113c-.112-.07-.375-.076-.28-.4.728-1.707,1.727-3.511,2.29-5.043.777-2.206,2.467-3.371,3.73-1.98.433.477.607.916.806,1.068.15.114.352.036.476-.152.476-.724-.628-2.367-1.813-2.7-1.71-.476-2.984.782-4.923,4.86-1.12,2.355-1.32,2.946-1.5,2.765-.039.016-.336.015-.229-.441a33.34,33.34,0,0,1,2.793-5.637c1.593-2.675,4.55-2.891,5.794-.57.19.317.2.731.411,1.013.382.5,1.01.4,1.165-.419-.169-.541-1.209-2.495-1.931-2.835a4.164,4.164,0,0,0-5.381.6c-.385.347-.787,1.052-1.914,3.358-1.66,3.7-1.7,3.713-2.157,3.117.667-1.8,2.423-4.722,3.131-6.517a1.665,1.665,0,0,0,.152-.831c-.041-1.3.17-3.609-2.565-5.247A4.8,4.8,0,0,0,81.4,171.5c-.8,1.911-1.39,3.224-1.8,3.494-.568.381-.462-.149-.406-.342.808-1.729,1.945-3.476,2.125-5.217a4.708,4.708,0,0,0-7.693-4.073ZM49.192,77.117a63.417,63.417,0,0,1,9.985-3.723c.509-.225.59-.276.05-1.354-2.384-4.762,4.159-8.558,6.382-3.884.3.624.366.968.658.67A29.98,29.98,0,0,0,68.139,65.9c2.5-3.913,3.635-8.376,4.97-12.315a50.227,50.227,0,0,0,1.545-7.215c-4.966-8.72-13.695-24.7-13.695-24.7H26.073v69.9c9.719-8.181,16.332-11.141,23.119-14.457Zm39.126-2.575c.422-.45.787-1.2,2.3-4.324.27-.558.7-1.424.876-1.827.227-.736,1.076-1.2.662.122a9.1,9.1,0,0,1-.512,1.179c-.5.912-.98,2.029-1.338,2.758-1.933,3.908-1.841,6.185.318,7.881a4.629,4.629,0,0,0,6.8-.781,7.35,7.35,0,0,0,.589-1.116,17.036,17.036,0,0,1,1.51-3.068c.8-1.027.931.246-.268,2.2a5.813,5.813,0,0,0-.21,6.389,4.649,4.649,0,0,0,7.2.574h0a14.921,14.921,0,0,0,2.655-5.026c.155-.464.315-.809.428-1.082.174-.42.426-.576,1.077-.7,4.465-.862,8.211-5.486,8.743-10.533.07-.683.262-1.891.333-2.608.14-1.43.143-8.839,0-9.282a.454.454,0,0,0-.5-.361,3.378,3.378,0,0,0-.993.245,4.3,4.3,0,0,1-3.571.154,2.6,2.6,0,0,0-.982-.209c-.623.054.206.957,2.024,1.954.779.428,1.4,1,.764.961a28.792,28.792,0,0,1-2.682-1.344c-1-.618-.739.16-.224,2.209.692,2.752.294,3.524-1.86,4.6a5.665,5.665,0,0,0-1.206.891c-1.141,1.7-.846.448-.271-.458.982-1.038.38-1.392-1.634-.673-2.3.82-3.335.222-3.977-1.067-.727-1.456.64-3.33,1.78-3.293.369.012.3.146-.241.52a2.037,2.037,0,0,0-1.037,1.662c-.139,1.575.978,2.244,2.539,1.188a5.978,5.978,0,0,1,1.876-.972c.553-.127,1.384.081,1.381.527a4.438,4.438,0,0,0,.013.736c.146.5.937-.208,1.281-.458,1.176-.887,1.138-1.062.817-2.5-.525-2.013-.79-3.853-1.291-5.894a8.87,8.87,0,0,1-.149-3.366c.081-.546.292-1.668.334-2.436s-.008-1.867.024-1.867c1.167.9,1.642,1.059,2.781.623a4.64,4.64,0,0,1,4.362.064c.55.265,1.05.452,1.05.452l.068-2.311s-1.375-.286-3.916-.622c-7.65-1.014-23.346-1.228-23.931-.3-.148.237-.3,1.888-.713,4.183-.926,4.768-1.963,9.521-3.352,14.174-.284.948-.556,1.33-.411,1.358.059.012.343-.355.475-.509.745-.866.174,1.191-.949,3.669a2.2,2.2,0,0,0-.185.544A27.816,27.816,0,0,1,85.782,70.3c-.3.649-.553.845-.55.43.341-1.428,1.244-3.275,1.374-4.547-.791,1.152-1.942,3.054-2.813,4.189-.161.3.009.4.149.778.524,1.41,1.792,1.537,2.525.259.409-.712,1.678-3.395,2.12-4.57a5.917,5.917,0,0,1,.925-1.924c.3-.158.362.529-.177,1.671C87.7,70.055,87,72,86.2,72.715a1.48,1.48,0,0,1-2.293-.469c-1.012-1.678-1.876-1.123-.947.6a2.465,2.465,0,0,0,4.3.342,51.289,51.289,0,0,0,2.715-5.346,4.643,4.643,0,0,1,.757-1.426c.6-.232-.084,1.543-1.8,5.1-.556,1.373-1.448,2.813-2.657,3.259-2.935.649-3.332-.918-4.354-2.7-.5-.444-.945.266-.756,1.05a3.693,3.693,0,0,0,1.774,2.411,4.214,4.214,0,0,0,5.378-.988Zm13.1,7.437a2.666,2.666,0,0,1-.092-1.761,14.5,14.5,0,0,1,1.413-3.572c.964-.46.227,1.37.107,1.642-1.163,2.446-1.273,3.392-.188,3.674.93.242,1.43-.332,2.309-2.524.451-1.126.631-1.624.791-1.689.338-.137.5,0,.481.344a16.056,16.056,0,0,1-1.99,4.149c-.935.789-2.342.793-2.831-.263ZM92.694,80.1a4.608,4.608,0,0,1-1.58-1.052c-1.643-1.517-1.371-3.615.665-7.559.159-.306.751-1.5.941-1.89.341-.7.677-.427.674.037a18.171,18.171,0,0,1-1.024,2.231c-2.249,4.435-2.172,6.244.014,7.3,2.134,1.03,3.09.437,4.791-2.949.984-2.542,1.469-2.584,1.415-1.618a18.234,18.234,0,0,1-1.961,3.93C95.514,80.173,94.549,80.465,92.694,80.1Zm.162-2.141a2.325,2.325,0,0,1-.684-2.887c.45-.878,1.6-4.243,2.146-4.432.872-.031.406.706-.674,2.775-1.277,2.741-1.231,3.474-.245,3.894.912.388,1.345-.408,2.691-3.614.212-.5.507-1.026.68-.917.214-.016.585.146-.122,1.6-.168.348-.453,1.076-.768,1.755-.92,1.983-1.964,2.489-3.024,1.827Zm15.12-5.818c-.369-.191-2.1-.876-1.84-1.443.031-.053.132-.011.183.023a4.58,4.58,0,0,0,5.6-.143c.345-.307.6-.1.41.286C111.709,72.106,108.943,72.638,107.976,72.141Zm-5.081-1.8a8.22,8.22,0,0,0,.316-.952c.19-.718.145-1.246.313-1.155a3.1,3.1,0,0,0,2.626.014,3.177,3.177,0,0,1,2.591-.219,1.135,1.135,0,0,0,1.605-.145c.575-.452.585-.259,1.623.1.767.268,1.068.452,1.394.392.125-.022.378-.309.459-.3.249.046.277.759.507,1.573.2.72.087.894-.553.462a4.565,4.565,0,0,0-3.268-.032,3.235,3.235,0,0,1-2.071.063c-1.928-.329-3.32-.583-4.757.256-.767.448-1.046.681-.785-.066Zm-4.8-3.557c-.935-1.89,1.215-4.392,3.1-3.508.626.293,1.183,1.4.257.893-4.3-.874-3.224,5.469,1.39,2.118,3.067-2.052,5.236-2.369,5.417-.384-.086.73-.729.613-1.216.68a10.112,10.112,0,0,0-3.213,1.023c-2.241.712-4.431,1.293-5.739-.822Zm16.812.873c-1.048-.272-1.959-.689-3.052-.889s-1.571-.759-1.376-1.526c.2-.8,1.288-.881,2.917.122,1.806,1.111,3.116,1.381,3.777.962,1.336-.848.615-2.228-.66-2.581-.958-.269-.253-.644.776-.334,1.661.634,1.7,3.66-.012,4.288a4.722,4.722,0,0,1-2.37-.042ZM100.276,57.64a19.277,19.277,0,0,0,2.817-1.893c.22-.238.833-1.037.357-.793-2.487,1.506-5.375.255-7.468-.775-1-.474-.758-.264-1.529-.213-.524.036-.944.146-1.037-.231-.042-.166-.335-.1-.522-.115-.773-.077-.284-1.109,1.34-2.246A14.887,14.887,0,0,1,99.479,48.8a5.059,5.059,0,0,1,4.769,1.087c.495.481.451.8.9.506,1.032-.673,1.041.22.17,1.047-.6.568-.379.723.352,1.263.35.258.063.5-.132.879a4.038,4.038,0,0,0-.05.656c-.163.808-3.811,3.661-5.131,4.149-.909.17-.432-.519-.085-.744Zm2.532-5.244-.605.008c-.689,2.122-1.962,2.845-3.021.3l-.482.049C98.678,54.909,102.355,56.261,102.808,52.4Zm-3.982,1.99c-.25-.423-.531-1.392-.792-1.406-.711-.031-1.694.1-1.461.542.367.7,2.543,1.353,2.253.864Zm4.874-.379c.655-.4.8-.672.367-1.109-.552-.564-.84-.276-1.014.625C102.9,54.3,103.012,54.425,103.7,54.007Zm-8.888-1.491c4.391-2,6.056-2.261,7.84-1.766a5.682,5.682,0,0,0,1.01.334c.855-.052.31-1.016-1.224-1.569-1.751-.63-2.861-.344-6.228,1.425-1.97,1.035-3.572,2.567-1.4,1.576Zm12.726-2.431c-.062-.12-.328-.916-.4-1.207s-.143-.591-.225-.592a11.5,11.5,0,0,1-4.31-.172,14.135,14.135,0,0,0-8.281.287,8.778,8.778,0,0,0-1.28.622c-.176.165-.436-.023-.434-.229a6.7,6.7,0,0,1,2.225-1.76,11.4,11.4,0,0,1,8.405-.707,5.363,5.363,0,0,0,4.508.082c.62-.273.181.4-.016,1.3a4.473,4.473,0,0,0,.039,1.5c.078.849-.018,1.274-.227.872Zm45.886,178.931V158.93c-9.74,5.942-17.077,12.047-33.386,17.546,2.751,5.65-3.31,10.485-6.787,4.748-3.577,4.048-8.506,18.226-8.68,22.933,0,0,9.516,16.592,14.16,24.859ZM89.81,206.041a71.8,71.8,0,0,1,3.4-16.463,55.341,55.341,0,0,1,3.822-9.265c.665-1.048.711-1.454,0-1.077a16.387,16.387,0,0,0-2.759,3.136c-3.124,6.641-4.569,14.62-5.712,20.712a26,26,0,0,0-.336,3.072Zm2.285-.289c.743-8.567,3.871-20.134,8.571-27.672.441-.719.986-1.342.965-1.591-.061-.733-1.871.534-3.275,2.7a73.022,73.022,0,0,0-4.339,10.171A65.809,65.809,0,0,0,90.6,205.948Zm4.516-.716c.471-4.936,1.992-9.466,3.266-14a45.648,45.648,0,0,1,6.065-13.307c.777-1.18,1.7-2.283,2.567-3.408a.8.8,0,0,0,.2-.48,2.071,2.071,0,0,0-1.439.321A8.294,8.294,0,0,0,105.316,176c-3.454,4.438-5.312,9.62-7.037,14.855A56.258,56.258,0,0,0,95.2,205.271Zm-31.018-3.784c.694-.055,1.142.077,1.343-.109s.135-.682.2-1.317c.135-1.359-.008-1.284-.847-.406-1.4,1.453-3.94,2.013-5.454,1.135-.764-.444-1.3-.751-1.367-.382a.9.9,0,0,0,.359.989c1.834.842,3.575.263,5.768.09Zm-1.64-1.041a4.907,4.907,0,0,0,2.5-1.636c.527-.757.519-.865.12-.721-1.964.973-3.254,1.467-5.008,1.2-2.376-.364-2.475-.058-.9.933a3.456,3.456,0,0,0,3.292.226Zm-3.488-3.035c.368-.274.462-1.387.166-1.451s-.738.489-.845.939c-.12.6.32.75.679.512Zm3.678-.048.632-.058c-.323-2.792-3.332-2.913-3.888.28l.477.071c.621-2.545,2.441-2.475,2.779-.293Zm1.984-.45c.921-.517.6-1.158-.639-1.4-.815-.193-.77.479-.348,1.389.21.453.357.368.987.014Zm-7.087-3.423a3.242,3.242,0,0,0-.281-1.115,16.487,16.487,0,0,1-1.526-7.991c.086-2.305.115-3.017-.361-3.02-.664.322-1.056,4.609-.211,8.179.6,2.519,2.423,5.645,2.379,3.947Zm-.025-3.489c-.066-1.2.2-3.9.067-4.491a3.3,3.3,0,0,0-.884-1.659c-.4-.289-.5.265-.36,1.711.324,3.394.865,5.963,1.177,4.439Zm.335-6.178c.262-.475.16-.98-.418-2.115-2.274-4.471-2.57-7.525-.193-8.635.266-.125.433-.148.611-.247.749-.419.463-1.178-.657-.865-3.1.867-3.706,3.785-1.1,9.186,1.33,2.695,1.536,3.072,1.754,2.676Zm.564-2.535c.041-.187.121-.918.151-1.067a12.126,12.126,0,0,0-.616-1.442c-.875-2.251-.893-3.185.059-3.837.309-.182.627-.191.675-.4.075-.327.069-.864-.125-1.019a2.18,2.18,0,0,0-2.236,1.574c-.36,1.207.016,2.975,1.088,5.165.519.683.791,1.932,1,1.027Zm1.043-2.912c.731-1.484.038-3.408-.967-2.752-.652.426-.685.876-.285,2.112.487,1.5.776,1.61,1.252.64Zm2.561-3.971c.292-.291.033-.71-.507-2.35-.463-1.4-.251-2.364.63-2.641,1.264-.314,1.711,1.767,1.977,2.645.138.678.58.865.973.394.109-.132.141-.242-.046-.981-.816-3.228-1.883-4.255-3.6-3.451-1.593.746-1.384,2.413-.229,5.918.154.469.257.817.369.866.091.04.272-.238.434-.4Zm1.411-1.1c.377-.377.355-.207-.077-1.553-.493-1.535-.752-1.856-1.281-1.328-.325.324-.161.681.21,1.937.431,1.46.547,1.543,1.148.944Zm66.035-5.257c2.514-1.746,1.477-4.879-1.831-6.041-.391-.137-.821-.3-.956-.368-1.52-.736-2.7-.964-2.706-.388,0,.338.454.509,1.911,1.224,2.156,1.057,2.643,2.279,1.579,3.819C128.194,167.173,129.631,168.445,130.964,167.817ZM133.245,164c.218-.9.543-1.665.7-2.187.213-.817-.062-.627-.6-.5-1.386.723-2.377.33-1.7,1.325C132.387,163.967,133.005,164.989,133.245,164Zm-.172-3.132a3.19,3.19,0,0,0,.5-5.045,5.786,5.786,0,0,0-1.855-.964,11.5,11.5,0,0,0-4.861-.467c-.185.221-.193.568-.008.669a6.389,6.389,0,0,0,1.305.214c2.4.245,3.589.965,3.474,2.682-.119,1.769-1.524,2.449-4.061,1.89-1.364-.3-2-.156-1.452.166a12.858,12.858,0,0,0,3.429,1.156,5.3,5.3,0,0,0,3.525-.3Zm-8.288-.446c1.943-4.391,2.967-15.908-8.139-24.233l.367,2.3a20.239,20.239,0,0,1,6.76,19.862Zm9.916-7.872a14.574,14.574,0,0,1-2.17,1.326c-.534.241-.548.3.178.7a5.79,5.79,0,0,1,1.151.788c.385.417.838.577,1.008.426-.018-.654.2-2.814-.167-3.238Zm-3.287.833c2.249-.716,3.453-1.805,3.2-3.627-.377-2.674-2.6-3.239-6.759-2.194-2,.5-2.181,1.448-.281.961,2.4-.616,4.282.315,4.027,2.082-.148,1.525-1.367,2.413-3.505,2.413-1.13,0-1.479.1-1.326.511C126.871,153.811,130.486,153.681,131.414,153.387Zm-3.715-6.351c3.678-1.268,5.388-3.24,4.548-5.449-.99-2.6-4.2-2.627-7.424-.206-1.506,1.11-1.275,1.521.184.956,1.893-.875,3.11-1.01,3.885-.315,1.4,1.256.455,3.447-1.667,4.233-1.028.429-1.358.667-1.36.977,0,.491.185.373,1.835-.2Zm6.2-.041c.094-.769-.77-3.439-1.143-2.825a5.32,5.32,0,0,1-.877,1.308c-1.265,1.141-1.026.709.231,1.058.7.194,1.685.689,1.789.459Zm-9.727-5.705c3.718-2.168,5.137-5.262,3.211-7.319-1.732-1.849-4.6-.772-7.27,2.589-1.222,1.542-.3,1.348,1.344-.118,1.92-1.707,4.362-.883,4.349,1.248-.008.911-1.286,2.442-2.5,3.153a.569.569,0,0,0-.3.78c.143.238.445.085,1.16-.333Zm6.517-2.261c-.194-.583-1.592-3.084-1.893-3-.317.641-.34,1.485-.721,2.165-.518,1.022-.452.862,1.2.857,1.229,0,1.377.169,1.415-.024ZM119.767,136.2c3.123-3.261,3.4-7.08.472-7.959-1.621-.487-4.213.692-4.22,1.91-.008.758.136.9.793.623,2.76-1.033,4.948,1.637,2.412,4.707-.616.888-.7,1.111-.519,1.295C118.915,136.992,119.086,136.912,119.767,136.2Zm33.657-27.889V21.672H135.13L120.611,44.691l-.022,5.648c0,.2.33.316.543.071.825-.642.507.032-.442,1.485-.959,1.47-.666,2.68.384,4.249,2.223,3.326,3.382,9.43,2.436,12.657a3.536,3.536,0,0,0-.2,2.393,2.633,2.633,0,0,0,1.2,1.7A131.35,131.35,0,0,1,139.6,81.284l-.044-40.612,5.6-5.4,5.921,5.7.207,67.049c0,.709,2.138,1.348,2.138.3ZM150.2,41.158l-4.957-4.645-4.9,4.576c-.025,21.84.125,66.663.125,66.663l4.87.352a8.339,8.339,0,0,0-.1-3.666c-.685-3.966-.642-8.811.457-16.179a30.555,30.555,0,0,0-1.034-12.568,19.783,19.783,0,0,1-.77-7.756c.346-3.923,1.419-6.885,1.551-12.529.075-3.218-.078-6.368.039-10.337.049-.532.272-.466.311.082.149,3.593.288,7,.32,10.512-.107,4.562-1.215,9.257-1.337,13.432a15.705,15.705,0,0,0,1.076,7.415c1.908,5.535.652,14.038.63,14.189-.808,5.448-1.4,12.417,1.332,17.63l2.645.238ZM116.1,82.358c1.463-.677,1.752-1.871.965-4.747-.141-.513-.3-1.123-.356-1.355-.169-.71-.486-.788-.909-.224-.253.338-.02.416.368,2,.587,2.39.246,3.181-.637,3.175-.782,0-1.392-.654-1.615-2.2a3.149,3.149,0,0,0-.315-1.1c-.213-.355-.469-.291-.676.1-.267.508.235,2.6.9,3.613C114.547,82.633,115.046,82.843,116.1,82.358Zm-.4-2.146c.311-.589-.075-2.038-.276-2.986-.186-.53-.4-.659-.745-.573-.518.128-.493.7-.306,1.638C114.754,80.2,114.96,80.446,115.7,80.212Zm4.446-3.452c1.673-.96,1.833-2.616.709-5.628-.461-1.234-1.035-2.1-1.351-2.113-.125.786-.24,1.2-.1,1.512.131.287.351.724.508,1.091.952,2.221.695,3.5-.224,4.2-.858.648-.315,1.193.459.941ZM65.373,75.6c3.925-.845,7.465-7.193,9.695-12.853,2.031-5.7,4.19-11.969,4.532-17.194,0,0-1.485.069-1.667.378a8.452,8.452,0,0,0-.4,1.893A74.714,74.714,0,0,1,73.912,60.8a48.536,48.536,0,0,1-5.947,11.455,6.137,6.137,0,0,1-3.95,2.381,6.13,6.13,0,0,0-1.253.1c-.3.213-.03.7.746.893a4.3,4.3,0,0,0,1.865-.031Zm54.082-.742c.6-.641.658-1.4-.014-3.012-.188-.451-.274-.706-.5-.644-.473.133-1.026,1.385-.7,2.445.426,1.381.674,1.785,1.211,1.211ZM64,73.851a6.029,6.029,0,0,0,3.659-2.516,42.115,42.115,0,0,0,4.762-8.6c.886-2.028,2.486-6.408,2.921-7.994a80.715,80.715,0,0,0,1.849-7.954,1.538,1.538,0,0,0,.01-.691,2.42,2.42,0,0,0-1.76.259,80.309,80.309,0,0,1-2.769,10.973C71.1,62.812,66.594,71.589,64.14,72c-1.32.222-2.832-.932-2.589-2.116.15-.728.249-1,.6-1.187.856-.3,1.354.283.415.666-1.088.951.87,2.405,2.072,1.389,2.037-1.723-.956-5.022-3.407-3.5-2.715,1.679-2.017,4.589-.31,5.971a3.758,3.758,0,0,0,3.079.63Zm19.225-3.938a17.187,17.187,0,0,0,3.853-6.777A105.508,105.508,0,0,0,91.31,43.971s-1.433-.149-1.751.156c-.226.215-.01.42-.62,4.551a80.433,80.433,0,0,1-4.673,17.181A21.076,21.076,0,0,1,82.507,69.3c-.872,1.536-.549,1.927.721.616ZM120.44,56.789c-.155-.081-.142-.028-.208.018-.229.159-.08.964.44,2.2,1.367,2.22,1.527,6.53,1.438,8.149a2.762,2.762,0,0,0,.069,1.2c.145.424.4.917.81.09a17.179,17.179,0,0,0-1.119-9.235,7.484,7.484,0,0,0-1.43-2.425Zm1.053,9.409a13.849,13.849,0,0,0-.752-5.459c-.221-.482-.621-.52-.573.028.008,1.18-.122,3.423,0,4.087.6,1.387,1.063,2.27,1.321,1.344Zm-3.1-13.753h-.645c.022,2.226-1.94,2.845-2.664.171l-.581.135c.772,3.774,4.263,2.044,3.891-.307Zm-3.923,1.678c-.335-.988-.2-1.349-1.047-.9-.65.339-1.04.7-.125,1.143.814.347,1.384.386,1.172-.239Zm4.916-.568c.269-.548.237-1.043-.169-1.045-.313,0-.4.249-.489.78-.159.95.235,1.125.658.265Zm.341-3.7c.249-.079.178-.432.111-.88-1.063-1.488-3.694-1.032-4.639-.737a2.184,2.184,0,0,1-2.108-.118c-.614-.115-.7.035-.849.33a5.091,5.091,0,0,0-.2,1.613c-.036.727-.01,1.064.241.837a6.062,6.062,0,0,1,3.747-2.047,7.5,7.5,0,0,1,3.695,1Zm-7.243,2.014c0,.3.252.113.9-.3a5.8,5.8,0,0,1,5.751-.539c.45.15.728-.324.24-.727C116.979,48.32,114.022,49.586,112.488,51.869Zm8.556-9.144,12.81-21.316-71.367-.053L74.605,43.988a107.972,107.972,0,0,1,46.439-1.263Z" fill="#131f67"/><path id="a769e7ba-b5dc-4793-add5-6e9f22afc756" data-name="path4098-7-2-7" d="M57.751,209.474c1.512-2.269,9,1.774,9.394,3.376,4.43-3.51,9.809-3.766,14.139.627,4.451-4.9,9.216-4.562,14.173-1.725-.554-1.107,6.338-5.993,10.527-2.888l11.329,20.305-72.574.236c4.287-6.477,8.084-14.212,13.012-19.931Zm-31.7-105.9c-.394-1.1-1.987-12.379,2.053-12.66,6.53,2.913,14.866,13.335,18.728,19.7,4.787,7.892,9.623,26.04,6.952,25.248-.385-.115,8.243,8.579,8.838,9.429.978,1.4-14.545,27.414-17.11,26.48-.775-.282-5.944-3.388-5.944-3.388l.148-8.681.125-17.516-14.226-1.248.5-3.814c4.771.394,9.668,1.294,14.086.265,2.908-5.358,1.8-13.352-1.7-16.573-1.85-1.133-3.6-.771-5.474-.531-7.617-1.28-3.67-14.2-6.977-16.715Zm127.388,5.794.046,3.2c-5.015,1.1-13.879-3.175-16.562,3.712.333,7.439,1.989,10.774,3.145,13.021.869,2.018,6.967-.284,9.115,1.751,6.162,7.634,4.708,17.8,4.762,26.96l-2.673,1.359C132.8,148.4,118.609,114.33,116.643,104.631c-.125-6.228,16.95-26.24,16.95-26.24.039-.044,6.221,3.788,6.221,3.788.15.06-.131,26.265-.13,26.144,4.883.252,9.616.732,13.755,1.04ZM116.805,85.412c-21.547,37.943-12.735,66.014,3.12,90.238,0,0-1.371.314-1.522.179-3.472-3.109-5.9-2.564-7.673-2.592-3.394-.054-4.332.964-6.28,1.159-4.972.5-4.569.623-8.786-.977a56.827,56.827,0,0,0-18.126-9.48c-4.548.412-11.483,2.575-14.1.823,18.243-33.891,15.511-55.586-3.376-91.109,1.566.465,1.81,1.937,2.982,2.3,3.882,1.509,9.231.937,12.438-.471,5.094-2.335,10.537,3.938,26.187,10.841,1.276.663,2.888-.383,4.3-.67,2.886-.588,5.359-1.831,7.513-1.1.691.233,3.332.862,3.332.862ZM73.314,41.062c-.929-1.739-10.428-19.931-10.428-19.931l70.66.428-10.6,17.551c-1,.953-5.98,3.608-11.06-2.405-.095.864-7.537,6.208-13.934-.227C94.1,40,90.175,42.04,83.7,38.076c-.144,1.1-5.2,6.064-10.384,2.986Z" fill="#e2cf00"/><path id="0cf8a6f6-e152-45a1-9893-d7ac5572f2cc" data-name="path4094-0-9-9" d="M81.045,213.071c-6.846-6.462-13.974-.629-13.811-.26-2.709-2.773-5.359-5.044-8.931-3.929,0,0,0-.973.027-1,10.649,1.964,26.96,2.472,46.026-1.547l.978,2.062c-5.113-1.831-7.748.639-10.014,3.522C87.113,206.766,85.111,211.291,81.045,213.071Zm15.967-75.152,4.844-.1c.912,14.2,12.68,35.929,12.964,35.929-.82-1.147-8.589-.242-8.532-.1C102.016,162.165,97.325,150.687,97.012,137.919ZM68.764,171.605s-1.558-4.071-2.491-5.812c5.085-8.754,9.256-17.815,11.4-27.89l3.464.031C80.106,151.844,69.063,172.969,68.764,171.605Zm62.308-1.862c7.629-13.877,6.312-33.878-15.33-44.931,0,0,.564-14.661,2.173-14.694.363.113,9.8-.123,9.8-.123,2.471-6.113,6.449-13.507,12.005-18.5l.139,16.387c-4.112.409-6.62,1.732-7.866,4.975l-5.7,1.279c.418,16.462,6.563,31.672,24.787,45.334-4.355,3.773-19.24,11.433-19.183,11.3ZM39.757,159.4l.162-17.064c2.764-.6,4.942.2,7.224-4.788,0,0,3.829,1.832,5.1,2.508C48.665,146.511,45.575,153.411,39.757,159.4Zm36.282-30.213.188-8.663,8.159.237a16.3,16.3,0,0,0,.017,8.813Zm18.615-.105c.557-2.834.955-5.685-.2-8.693l8.835.152-.208,8.628Zm-16.8-16.94c-1.47-16.993-13.019-36.225-13.181-35.816,1.361.219,3.757.9,5.076.269a6.115,6.115,0,0,0,3.056-.063c.106-.595,10.735,24.671,9.317,35.571-.169.368-3.921.393-4.268.039Zm20.421.149c1.246-7.85,4.465-22.209,12.065-33.854a43.211,43.211,0,0,0,2.775,6.126c-5.731,8.406-9.262,18.014-11.4,27.821Zm-52.829-4.232C41.966,100.906,27.5,89.645,28.239,90.783c5.989-5.412,12.668-8.849,19.335-12.322,0,0,1.185,1.134,1.006,1.42-4.1,6.513-6.086,20.312-2.118,28.22,3.814,8.448,10.579,13.442,17.476,17.362a93.277,93.277,0,0,1-2.083,14.351s-4.334-2.3-7.885-3.778c-.565-9.973-2.613-18.894-8.526-27.978ZM83.761,37.97c5.1,3.135,9.666,2.8,14.093-1.449a10.286,10.286,0,0,0,14.109.424,9.678,9.678,0,0,0,9.891,3.269l-1.11,2.347c.266-1.247-30.885-3.283-45.956.972a13.138,13.138,0,0,1-.783-1.787c1.311-.08,5.677,1.551,9.756-3.776Z" fill="#d40000"/><path id="90c01dca-d380-410c-9b7f-60051b7edd72" data-name="path4092-7-7-9" d="M61.848,20.567,74.44,44.218l.554-.105c17.451-3.44,31.274-3.91,46.12-1.277l13.2-22.019c-24.02-.275-72.464-.25-72.464-.25Zm1.4,1.007,70.019.078-3.939,6.514c-2.358-.734-3.673.357-4,2.636a3.165,3.165,0,0,0-.839-.187,2.408,2.408,0,1,0-.665,4.764c.822.141.961-.024.961-.024-2.873,2.435-4.5.792-5.857-.011a3.412,3.412,0,0,1-4.969-.094c3.428.346,3.962-3.119,2.323-4.437a7.889,7.889,0,0,0-.692-.605,2.124,2.124,0,0,0,.465-2.729c-1.04-2.169-4.3-2.042-4.8.326a10.143,10.143,0,0,0-.2,1.083,2.641,2.641,0,0,0-2.261,4.068,2.944,2.944,0,0,0,2.688.909c-1.407,2.01-4.627,1.325-6.061-.33-2.279,2.7-4.876,2.372-6.173.923a2.815,2.815,0,0,0,2.3-.776,2.537,2.537,0,0,0-1.25-4.216,3.258,3.258,0,0,0-.673-.151,4.1,4.1,0,0,0,.135-.835c.486-3.988-5.437-3.594-4.865.33a2.55,2.55,0,0,0,.188.7,2.608,2.608,0,0,0-.988.132c-3.29,1.53-1.023,5.742,1.519,4.658a9.082,9.082,0,0,1,.992-.423c-3.148,3.938-5.791,1.147-6.488.718-2.126,3.182-5.819,1.011-5.9.788a3.043,3.043,0,0,0,1.581-.419,2.529,2.529,0,0,0-.131-4.522A4.378,4.378,0,0,0,83.9,30.3a4.686,4.686,0,0,0-.015-.959,2.414,2.414,0,1,0-4.588,1.32,1.977,1.977,0,0,0,.377.571,8.333,8.333,0,0,0-.927.652,2.422,2.422,0,0,0,2.677,4.021c.34-.181.67-.562.765-.539-1.241,2.286-3.123,3.084-5.807,1.192a2.936,2.936,0,0,1-5.119.221c2.524.233,4.163-4.647-.689-4.806-.377-1.325-.358-3.345-3.434-3Zm34.194,8.374a1.017,1.017,0,1,1-1.008,1.017A1.011,1.011,0,0,1,97.446,29.948Zm15.645.12a1.078,1.078,0,1,1-1.065,1.079A1.073,1.073,0,0,1,113.091,30.068ZM82.424,31.244a1.039,1.039,0,1,1-1.031,1.037A1.032,1.032,0,0,1,82.424,31.244Zm43.932,1.277-.893,1.6C124.479,33.25,125.158,32.108,126.356,32.521Zm-56.182,2.2-.887-1.653C70.876,33.181,70.407,34.328,70.174,34.726Zm27.141-.9c6.009,6.911,11.4,4.866,14.922.271,1.512,3.917,4.88,6.625,10.676,3.991a18.291,18.291,0,0,1-1.23,1.732c-5.123,1.392-7.666-1.041-9.642-3.358-5.211,4.367-10.119,3.308-14.168-.544-3.456,4.392-9.053,5.336-14.234,1.751C81.271,41.2,77.873,42.622,73.6,40.856c0,0-.906-1.438-.984-1.53.619.525,8.486,3.821,10.407-4.107,2.739,4.692,11.718,4.941,14.291-1.393Zm.6,2.841c6.759,6.38,13.853.863,14.034.474.106.355,3.964,5,9.526,3.257l-.9,1.564c-10.467-1.787-20.094-2.935-42.143.338a10.5,10.5,0,0,0,5.3-3.886c.991.65,8.64,4.959,14.188-1.747ZM74.228,41.955s2.942.348,3.173.407c.258.2-2.477.96-2.488.905Zm5.965,30.438c-.178.006-.4.208-.769.575-.8.793-.98.9-1.754,1.009a6.659,6.659,0,0,0-2.565,1.491,2.194,2.194,0,0,1-1.05.423l-1.227.213a2.622,2.622,0,0,0-.661.19,2.4,2.4,0,0,1-1.75.105,2.119,2.119,0,0,0-1.566.074,2.793,2.793,0,0,1-2.384,0,2.628,2.628,0,0,0-1.965-.3c-.815.266-2.924-1.009-2.919-1.762a3.684,3.684,0,0,0-1.5-1.08c-1.069-.16-10.463,3.584-10.415,3.8,11.535,14.38,21.244,36.288,13.93,63.1l-1.292-.625a97.218,97.218,0,0,0,1.85-14.759c-21.65-9.434-23.514-31.374-15.111-45.225l-1.427-1.533c-5.092,2.743-10.266,4.3-22.852,14.957L24.8,110.3c.031,15.6.023,30.792.023,30.792,4.555.509,9.571.925,14.518,1.355,0,0-.063,15.423-.177,21.456-.1,5.1.093,4.782.093,4.782L55.641,177.4c-1.151-4.592,1.691-6.416,4.069-6.226-1.051-4.427,1.558-6.454,4.538-5.886,2.013.384,2.718,1.5,3.869,5.206.188.6.445,1.406.445,1.406l1.148-.042c1.437-3.116,2.4-7.08,5.779-7.594,4.426-.673,6.075,2.4,6.073,5.466,4.288-3.815,9.425-.862,9.091,4.836,2.158-1.4,5.814-2.666,8.118,2.733.866-.184,1.307-1.158,2.525-1.463a8.807,8.807,0,0,0,1.489-.656L102.8,175a14.862,14.862,0,0,1,2.242-.547c1.1.415.78.4,1.373-.338a5.223,5.223,0,0,1,2.561-.493,3.248,3.248,0,0,0,1.761-.081c.792-.349,1.532-.438,2,.089.337.379.824.2,1.346.175a3.109,3.109,0,0,1,2.873,1.339A9.043,9.043,0,0,0,119,176.469l1.134-.264.131-.424,9.28-3.575c-18.923-20.914-18.43-48.66-13.972-62.7l1.711.831a56.267,56.267,0,0,0-1.8,14.642c17.04,7.669,25.518,27.492,15.187,44.794l1.092,1.425c4.3-1.821,15.109-7.948,18.845-11.277l.8.066s2.266-1.481,3.266-2.271L154.8,111.8l-.792.21-.142-2.683-14.05-1.126c.179-.134.314-.189.354-.458l-.081-25.419c-.522-.805-12.288-7.763-16.664-9.39-.175,0-.055.3.008,1.025.215,2.493-1.453,4.712-3.384,4.716-.7,0-.816.3-.781,1.732a3.834,3.834,0,0,1-2.8,4.177c-2.517.917-4.222-.413-5.623-5.641-.368-1.373-1.087-1.03-1.776.846a45.209,45.209,0,0,1-2.112,4.383,4.481,4.481,0,0,1-2.411,1.809,5.109,5.109,0,0,1-3.769-.194c-1.932-.991-2.682-2.18-3.238-5.128-.074-.385-.324-.352-.95.124-3.411,2.594-8.208-.088-8.181-4.573.008-1.317-.045-1.369-.811-.737-2.313,1.906-5.457.939-6.715-2.066-.294-.7-.452-1.017-.681-1.009ZM60.587,73.985c.241-.011.992,1,.992,1a10.223,10.223,0,0,0,2.592,1.739c.09-.136,11.294,15.041,13.2,35.967l5.211.027c-.971-20.333-6.527-30.106-9.076-36.378l1.869-.6c4.191,8.106,9.3,24.557,9.13,38.96H75.9A79.4,79.4,0,0,0,61.352,75.538c-.541-.82-.965-1.392-.808-1.538a.064.064,0,0,1,.043-.015Zm-3.3,2.146.873,2.764a1.929,1.929,0,0,1,.373-.889c1.7-1.547,3.328.49,2.561,3.253-.175.851-.515,2.528-.515,2.528a25.645,25.645,0,0,0-2.569-1.169c-2.372-1.017-3.162-3.021-1.35-3.249.3-.038.927-.066.927-.066-.754-.6-2.416-1.964-2.416-1.964Zm7.961.311a5.389,5.389,0,0,0,3.627.45,4.858,4.858,0,0,1,2.4-.07,7.108,7.108,0,0,0,1.531-.182A97.823,97.823,0,0,1,82,112.04l-4.007.023A85.182,85.182,0,0,0,65.625,77.521c-.269-.409-.626-1.064-.373-1.079Zm16.741.186c1.552.019,3.175,1.58,4.058,4.135.491,1.422.683,1.336,1.342,1.106,1.693-.585,3.5,1.29,1.227,1.6-2.227.372-.956,4.768-1.146,5.155-.9.16-2.6-3.577-2.554-4.689.109-2.725-2.428-5-4-3.859-.746.543-.665.926-.9.73A2.493,2.493,0,0,1,80,77.61a2.6,2.6,0,0,1,2-.982Zm46.1.94s.088,3.584-.045,4.375c-.265,2.389-3.356,2.64-3.477.73a8.205,8.205,0,0,0-1.054,2.566l-2.192-1.522a11.528,11.528,0,0,0,2.242-1.879c-1.625.124-2.533-1.3-1.446-2.5,1.208-1.384,4.548-1.533,5.973-1.766ZM47.488,78.7l.969,1.1c-8.638,15.454-5.593,35.21,15.257,45.59a65.632,65.632,0,0,1-1.862,13.986l-7.692-3.765c.052-17.474-9.75-34.132-25.4-45.082A92.061,92.061,0,0,1,47.488,78.7Zm62.98.132c.367,2.04,2.281,5.736,2.419,5.524-.02-.121-7.965,10.272-11.418,27.655l-2.95.012a97.715,97.715,0,0,1,11.949-33.191Zm24.487.486,1.569.958c-8.233,6.958-13.655,15.779-17.637,25.291l-2.081-.993c6.175-13.8,12.275-19.927,18.149-25.257Zm2.2,1.541c.431.027.942.578,1.735,1.017.775.429.582.657-.877,1.785-1.726,1.335-1.888,1.276-1.873-.628.009-1.264.326-2.106.93-2.17a.4.4,0,0,1,.085,0Zm-1.9,1.964a.218.218,0,0,1,.212.1,8.3,8.3,0,0,1-.089,2.8c-.163.75-2.375,2.635-3.165,3.381-.316.21-.461.133-.519-.241.025-.592.082-1.379.092-2.181,0-.247-.048-.506.173-.7,1.085-1.292,2.663-3.13,3.3-3.164Zm4.112.613a.066.066,0,0,1,.03.008,8.028,8.028,0,0,1,.027,2.885,6.329,6.329,0,0,1-2.811-.346c-.1-.3,2.34-2.563,2.754-2.546Zm-77.123.839.6,2.539s.172-.341.216-.408c1.192-1.84,2.642-.761,2.619,1.793a40.133,40.133,0,0,1-.735,4.034s-4.474-2.17-4.826-3.121a1.266,1.266,0,0,1,.969-1.836,3.342,3.342,0,0,1,.984,0l-1.923-1.984Zm51.236.338,2.03.757c-4.234,6.953-8.6,13.82-11.787,29.483H95.212a92.12,92.12,0,0,1,7.907-28.14s1.671-.519,2.615-.827c0,0-7.034,16.247-7.853,26.692l4.111.089c2.194-10.178,6.3-20.728,11.488-28.054Zm-16.115.252c1.144-.043,1.987.769,1.923,2.209-.014,1.317-.134,1.508-1.057.982a2.674,2.674,0,0,0-3.258.077c-.6.432-1.184.788-1.184.788a7.813,7.813,0,0,1,1.326-3.008,3.69,3.69,0,0,1,2.25-1.048ZM93,88.251a7.961,7.961,0,0,1-.511,1.79s.666-.262.984-.412a2.224,2.224,0,0,1,3.065,2.151,2.422,2.422,0,0,1-2.361,2.275,2.3,2.3,0,0,1-1.419-.5c.341,1.887.409,2.76-.958,3.707a2.357,2.357,0,0,1-3.419-2.221l.085-1.3-1.158.151a2.284,2.284,0,0,1-.681-4.514,3.056,3.056,0,0,1,2.173.613,3.64,3.64,0,0,1,.162-3.463c1.642-1.926,4.24-.175,4.038,1.72Zm28.233-2.508c.177,1.5.768,3.143.6,4.546-.252,1.793-1.763,2.855-2.95,1.693-.147-.144-.412-.443-.412-.443a8.316,8.316,0,0,0-.869,2.62l-2.1-1.3a10.835,10.835,0,0,0,1.858-1.619,1.487,1.487,0,0,0,.165-.473,1.516,1.516,0,0,1-1.838-1.9c.631-1.74,3.768-2.385,5.542-3.121Zm14.649,1.087a27.1,27.1,0,0,1,2.958.3c.737.13.328.55-1.324,2.174-1.516,1.492-1.469,1.351-2.638,1.331-2.73-.046-3.209.016-1.619-1.715a10.349,10.349,0,0,1,2.157-2.031,1.941,1.941,0,0,1,.466-.062Zm-4.923.315a.128.128,0,0,1,.089.039c.18.17.119.947.1,2.1-.021,1.223-.008,1.223-.516,1.863-.646.817-1.183,1.651-1.857,2.438-.584.64-.566.571-.915-.967-.339-1.491-.151-1.956,1.753-4.118C130.258,87.661,130.717,87.134,130.959,87.145Zm8.527.85.023,3.024a51.114,51.114,0,0,0-12.065,18.707l-1.961-.788a57.275,57.275,0,0,1,14-20.943ZM90.65,89.823a1.7,1.7,0,1,0,1.689,1.7A1.692,1.692,0,0,0,90.65,89.823Zm-.011.536a1.176,1.176,0,1,1-1.161,1.176A1.171,1.171,0,0,1,90.639,90.359Zm-62.589.718C45.624,102.457,53.5,120.1,53.468,135.254l-.992-.451c-1.029-21.414-12.561-34.581-25.025-43.1Zm104.04.163c.4,0,.939.064,1.723.155,1.455.079,1.633.171.631,1.332-.275.318-.8.982-1.173,1.483A4.183,4.183,0,0,1,132.24,95.3a21.974,21.974,0,0,1-3.588-.116c-.239-.033.074-.279,1.319-2.073.954-1.375,1.055-1.83,1.957-1.871.052,0,.1,0,.162,0Zm7.319.582s.349,9.761.1,15.986c-4.009-.149-6.363,1.386-7.342,4.294l-4.211-2.1A55.288,55.288,0,0,1,139.409,91.822ZM127,92.047c.228,0,.358.48.423,1.417.265,1.678.236,1.874-.458,2.951-.345.536-.819,1.293-1.049,1.685-.4.682-.688.886-.789.555-.549-1.811-.722-2.931-.527-3.3.32-.6,1.816-2.745,2.027-3.024.146-.194.269-.289.373-.287ZM26.758,92.23c14.126,8.828,24.46,23.905,24.887,42.119,0,0-3.01-1.426-4.869-2.469l-.1-1.77.981-.031.315,2,2.157-.069-.573-4.981-3.376.322-.681-2.822,1.023-.221.565,1.82,2.2-.586L48.118,121.1l-3.392.936-1.084-3,1.126-.408.912,1.794,2.065-.726L45.8,115.25l-3.119,1.487-1.584-2.9,1.219-.656.981,1.727,1.93-1.009L42.834,109.8l-2.961,1.669-1.489-2.252.919-.648,1.016,1.184,1.7-1.211-2.6-3.529-2.834,2.24-2.1-2.45.966-.826,1.442,1.3,1.612-1.421-3.089-3.4-2.7,2.485L30.7,101.186l.985-1.1,1.254.967,1.334-1.6-3.361-2.8L28.4,99.179l-2.416-1.611v-1.2a21.659,21.659,0,0,1,2.358,1.06l1.25-1.91-3.608-2.457Zm39.34.753.535,3.113c.507-.846.91-1.429,2.007-1.1,1.318.542,1.336,2.544.219,5.609a10.035,10.035,0,0,1-.461,1.06,6.348,6.348,0,0,1-.962-.508,9.053,9.053,0,0,1-2.857-2.291c-.727-1.156-.743-2.774.592-2.636a4.954,4.954,0,0,1,.789.128l-2-2.577Zm-40.117.928L28.427,95.5l-.507.932-1.939-.881Zm61.323.734c.709,1-1.785,3.947,1.477,5.124a1.178,1.178,0,0,1-.6,1.091c-1.6,1.171-3.888-.967-3.176-3.168C85.459,96.284,86.774,94.653,87.3,94.645Zm6.769.093s.984.725,1.181.916c1.816,1.758,1.833,4.278.188,5.159a2.031,2.031,0,0,1-2.761-.738.566.566,0,0,1,.546-.8c.784,0,1.382-1.51,1.15-3.106-.092-.632-.3-1.428-.3-1.428Zm21.43.586a21.413,21.413,0,0,0,.526,3.109c.954,2.679-.264,4.309-2.046,3.413a3.572,3.572,0,0,1-.7-.711l-.177,3.079-2.535-.746c.549-.889,1.338-1.522,1.927-2.523,0,0-.379-.013-.712-.015-1.514.052-2.072-1.642-.484-3.036a29.258,29.258,0,0,1,4.2-2.57Zm13.249.714c.306,0,.689.023,1.215.023,1.608,0,2.02-.218,1.312.792-.277.394-.951,1.491-1.15,1.864-.406.757-.487,1-1.162,1.145a23.17,23.17,0,0,1-3.2.112c-.243-.012.256-.852.534-1.374.683-1.279,1.1-2.157,1.685-2.426a1.772,1.772,0,0,1,.769-.136Zm-4.969.99c.194-.01.338.341.523,1.068.431,1.695.543,1.737-.154,3.128-.351.7-.95,1.892-1.2,2.384-.632,1.262-.667,1.25-1.065.12-.763-2.167-.83-1.944.431-4.378C123.109,97.829,123.5,97.043,123.783,97.028Zm-92.694.594,2.273,1.84-.646.633-1.258-.936L29.6,101.166l3.053,2.811,2.585-2.57,2.215,2.337-.677.578-1.3-1.265-1.946,1.677,2.9,3.462,2.926-2.251,1.835,2.426-.75.474-1.2-1.173L37.346,109l2.369,3.369,2.985-1.727,1.7,2.814-.942.458-.962-1.545L40.35,113.62l2.023,3.94L45.6,116.2l1.3,3.009-.985.4L45.08,117.8l-2.169.866,1.454,4.138,3.269-.947.792,3.075-1.007.283-.5-1.7-2.08.5.869,4.154,3.327-.213.4,3.357-1.035.047-.258-2-2.119.027c.012.706.093,2.147.093,2.147l-1.281-.6a46.176,46.176,0,0,0-18.8-30.819l-.054-1.525,2.462,1.576s2.257-2.03,2.646-2.547Zm97.1,2.977c.706-.005.394.547-.465,2.2-.958,1.841-1.129,1.879-2.923,2.321-2.183.537-2.119.657-.939-1.883a7.045,7.045,0,0,1,1.2-2.162c.547-.427,1.607-.263,2.758-.439a2.615,2.615,0,0,1,.365-.034ZM26.1,101.143c10.5,6.837,17.136,20.979,17.96,29.553a6.759,6.759,0,0,0-.858-.458c-.8-.368-.991-.61-1.223-1.778A43.711,43.711,0,0,0,26.147,102.8Zm94.682,1.751c.445-.094,1.254,3.125,1.012,3.8-.174.486-1.736-.66-2.3-.9-.284-.122.992-2.833,1.292-2.9Zm-50.631.147-.05,3.339a5.5,5.5,0,0,1,.6-.629c.781-.575,1.974.222,2.019,1.207.062,1.367-.142,1.922-1.227,3.82-.336.587-.842,1.335-.842,1.335a23.993,23.993,0,0,1-2.681-2.329c-1.513-1.521-1.224-3.553.1-3.56a3.43,3.43,0,0,1,1.1.245,20.367,20.367,0,0,0-1.35-2.892Zm41.04,2.5a12.581,12.581,0,0,1,1.473,3.308c.752,2.288-.406,4.011-1.977,3.148a2.7,2.7,0,0,1-.577-.489,17.371,17.371,0,0,0,.111,3.121l-2.534-.447a18.972,18.972,0,0,0,1.492-2.783s-.157.125-.854.124c-2.546,0-2.018-3.059.923-4.755.442-.255,1.942-1.227,1.942-1.227Zm14.6.039c.551-.025.29.514-.319,1.77-.675,1.39-.506,1.269-1.931.536-1.993-.983-1.876-1.136.65-1.825a6.907,6.907,0,0,1,1.6-.481Zm-36.144.408c2,.012,3.468,2,3.173,4.825-.507,4.85-.216,4.551.307,5.035.954.882-.337,1.411-1.473.571-.79-.586-1.048-1.163-1.011-3.84.042-3.076-.122-3.859-1.212-3.591-.68.168-.894.752-.819,2.826.106,2.912-.085,3.645-1.18,4.577-1.181.923-2.456.1-1.377-.508.493-.56.586-1.272.4-3.032-.208-1.5-1.074-6.889,3.2-6.863Zm50.1,2.453c3.841.146,13.554.943,13.554.943l.084,2.9c-.434.27-7.682-.846-13.014-.745-1.247.024-2.129.579-3.031.112.865.363.786,4.731-3.027,3.673-3.233-1.174-1.658-5.587,2.477-6.7a18.626,18.626,0,0,1,2.957-.179Zm-22.129,1.933,8.3,4.131c1.161,15.727,6.54,32.342,24.86,44.937a101.356,101.356,0,0,1-18.922,11.013l-.7-.753c10.1-17.342,2.47-36.43-15.223-45.069A69.391,69.391,0,0,1,117.622,110.374Zm29.194,2.636c1.592-.063,2.006.122,2.143.85.128.688.634.85,1.234.629,1.461-.537,2.352,2.078,1.142,3.238-.751.72-.619,1,0,1,1.526.01,1.481,2.025-.069,3.168-.643.474-.634.689.039,1.025,1.127.561.9,1.671-.531,2.585-.778.5-.8.619-.161.8,1.619.445-.033,2.773-1.8,2.36a2.616,2.616,0,0,0-2.111.447c-1.9.8-2.214.955-4.262.7-1.8-.333-2.6-.93-3.065-2.523-1.054-3.239-2.191-6.828-2.2-10.365-.158-2.171,3.447-4.134,5.155-4.219,1.391-.212,2.987.3,4.5.31ZM33.3,113.064a3.486,3.486,0,1,1-3.454,3.486A3.47,3.47,0,0,1,33.3,113.064Zm38.382,1.025-.312,3.048s.508-.4.627-.5a1.244,1.244,0,0,1,2,1.269,13.876,13.876,0,0,1-2.592,4.779s-2.853-3.137-3.158-3.75c-.678-1.363.249-2.784,1.481-2.182a7.956,7.956,0,0,1,.685.466l-.9-2.892Zm-38.152.245c-1.22.042-2.379.8-2.223,1.8.1.43.755-.191,1.4-.6a1.718,1.718,0,0,1,1.643-.116c.5.178.708.64,1,1,.244.3.51.548.661.4a.625.625,0,0,0,.043-.539,2.361,2.361,0,0,0-2.515-1.949Zm93.006.474,1.235.636c1.661,22.226,12.795,35.292,24.494,43.074l-.931.567a54.971,54.971,0,0,1-24.8-44.277Zm1.869.912s3.1,1.6,4.723,2.341l.062,2.01-1.085.039-.369-1.89-2.254.163.7,4.65,3.634-.45.508,2.811-1.231.26-.631-1.728-2.084.513,1.35,4.518,3.277-1.067,1.027,2.954-1.1.4-.7-1.732-2.158.761,1.669,4.41,3.412-1.106,1.377,2.76-1.035.462-.988-1.712-2.046,1.056,2.4,4.118,3.081-1.63,1.438,2.2-1.13.765-1.027-1.347-1.658,1.1,2.654,3.657,2.654-2.007,1.984,2.31-.877.784-1.354-1.386-1.6,1.444,3.161,3.5,2.746-2.407,1.95,1.832-.577.614-1.312-.827-1.738,1.863,3.319,2.916,2.635-2.916,2.234,1.662v1.226l-2-1.021-1.339,2.035,3.335,2.546-.023,1c-19.035-11.463-24.044-29.242-25.014-42.465Zm-38.971.221c.823-.025,1.692.756,3.127,2.434,4.011,4.69,2.941,11.946-2.3,15.73-.765.551-1.072.5-2-.307-5.379-4.665-5.689-10.9-.9-16.382.828-.947,1.441-1.455,2.081-1.475Zm19.226.644c.989,1.531,2.238,3.106,2.381,4.965-.071,1.838-1.3,2.177-2.57,1.107a9.033,9.033,0,0,0,.385,2.845l-2.3-.248a7.773,7.773,0,0,0,.938-2.586,1.582,1.582,0,0,1-2.6-1.521c.456-2.008,2.091-3.362,3.765-4.562Zm-19.157,1.2a1.412,1.412,0,0,0-.684.388,10.04,10.04,0,0,0-3.073,4.01,8.529,8.529,0,0,0,2.3,9.282c1.381,1.374,1.867,1.28,3.984-1.561a8.3,8.3,0,0,0,1.05-8.121,8.943,8.943,0,0,0-2.657-3.493c-.445-.354-.677-.524-.919-.505Zm44.244.571,1.785.885c2.276,15.156,9.656,24.4,17.925,30.78l-.015,1.405-2.219-1.735-2.658,2.807-2.154-1.782.808-.792,1.227.788,1.569-1.774-3.088-2.78-2.692,2.357-2.242-2.33.68-.574,1.55,1.366,1.735-1.552-3-3.4-2.685,2.053-1.873-2.507.816-.489.98,1.358,2.07-1.3-2.189-3.4-3.119,1.615-1.6-2.9.908-.438,1.034,1.63,1.943-.943L137.29,132.7l-3.188,1.063-1.173-3.152.911-.338.8,1.864,2.157-.7-1.465-4.313-3.3.939-.815-3.171,1.019-.221.535,1.711,2.265-.458-.831-4.107-3.373.431a30.7,30.7,0,0,1-.6-3.288l1.039-.085.327,1.809,2.269-.078Zm-44.124.33c1.237.171,2.747,2.574,3.088,3.447a7.7,7.7,0,0,1,.112,5.275,11.894,11.894,0,0,1-2.866,4.15c-.745.408-1.369.106-2.434-1.355-2.1-2.886-2.511-6.356-.85-8.734,1.268-1.816,2.209-2.785,2.95-2.783Zm46.516.749.9.427c1.1,8.783,6.257,20.836,16.407,28.047v1.1c-7.894-5.719-15.14-15.581-17.3-29.577Zm-46.674.6c-3.534,2.689-2.969,6.9-.292,9.735C92.055,127.841,93.075,122.638,89.462,120.033Zm-53.939.178c1.994-.046,3.258.655,3.865,2.05a12.972,12.972,0,0,1,1.266,3.715c.11.65.282,1.63.377,2.178,1.035,5.888.273,8.107-3.269,9.025a8.194,8.194,0,0,1-3.562.113c-.27-.066-1.26-.072-2.038-.1a3.707,3.707,0,0,1-2.792-.85,1.876,1.876,0,0,0-.885-.466c-1.767-.283-2.295-1.917-.954-3.125.764-.688.84-.779.769-.9a1.424,1.424,0,0,0-.726-.124c-1.782-.011-1.764-1.861.03-3.183.853-.629,1.237-1.221.673-1.076-1.625.387-2.2-2.01-.5-2.753.9-.51,1.554-.937.681-.985-.733.064-1.329-.481-1.1-1.125a2.552,2.552,0,0,1,2.616-1.224c.67.208,1.323.4,1.742.094a4.749,4.749,0,0,1,2.346-1.188,10.977,10.977,0,0,1,1.466-.082Zm59.254.451,8.192.159-.242,8.109-7.715-.147A10.568,10.568,0,0,0,94.777,120.662Zm-18.356.186,7.845.1a12.5,12.5,0,0,0-.334,7.966l-7.681-.121Zm13.1.012c2.108,1.239,2.688,5.754-.241,8.075C86.5,126.044,87.055,122.524,89.524,120.86Zm-19.357,3.524,2.1.2-.75,3.04a2.509,2.509,0,0,1,.45-.4c2.7-1.281,2.9,1.622.146,4.243-.608.578-1.584,1.37-1.584,1.37s-.766-1.168-1.373-2.224a4.932,4.932,0,0,1-1.042-2.8c.171-.876,1.215-1.455,1.88-.92a8.84,8.84,0,0,1,.708.664Zm37.56,2.229s.882.913,1.419,1.506c1.857,2.051,2.176,3.97,1.234,4.553a1.628,1.628,0,0,1-1.961-.415,12.71,12.71,0,0,0,1.111,3.152l-2.773.45a18.034,18.034,0,0,0,.627-3.509,6.183,6.183,0,0,1-.823.551c-1.81.668-2.707-1.408-1.219-3.478a21.53,21.53,0,0,1,2.385-2.81Zm37.878,3.843a3.4,3.4,0,1,1-3.369,3.4A3.384,3.384,0,0,1,145.6,130.456Zm1.661,1.556c-.145.034-.264.371-.28,1.115a1.775,1.775,0,0,1-2.8,1.432c-.556-.286-1.029-.709-1.031-.384a3.925,3.925,0,0,0,.762,1.393c1.165,1.058,4,.807,3.938-1.657-.031-1.16-.346-1.953-.589-1.9ZM86.1,133.29a1.507,1.507,0,0,1,1.127.438c.921.635,1.1,1.446,1.154,4.507.051,2.7,0,2.766.438,3.094,1.081.8,1.732-.42,1.423-3.156-.3-2.634.643-4.548,2.219-4.538.776,0,.92.465.331,1.052-.622.62-.772,1.377-.577,2.9.5,3.9.068,5.819-1.557,6.611a3,3,0,0,1-4.258-2.283,18.151,18.151,0,0,1-.073-4.759c.031-1.693-.008-1.886-.592-2.857-.414-.652-.105-.977.365-1.009Zm-42.628,1.265a2.793,2.793,0,0,1,2.492,1.759c1.4,2.925-1.637,5.331-4.426,5.52a111.2,111.2,0,0,1-15.457-1.285l.077-2.764c4.46.26,9.489.625,14.907.881-.617-2.57.845-4.107,2.407-4.111Zm25.468.567,2.7.6-1.716,2.83a1.645,1.645,0,0,1,1.37-.191c1.1.4,1.113,1.805.307,3.118a12.717,12.717,0,0,1-3.649,2.791c-.687-1.488-2.2-4.093-1.6-5.517a1.456,1.456,0,0,1,2.034-.71c.274.165.8.435.8.435Zm6.372.077,8.215.1c-1.194,8.383-3.53,19.578-8.134,28.7l-1.934.5a95.2,95.2,0,0,0,8.022-27.076H77.371c-2.363,10.2-5.858,19.658-11.234,27.872l-2.388-.784c5.743-9.191,10.295-19.449,11.561-29.316Zm18.738.148H103.2c1.684,17.07,7.4,28.72,15.9,40.244a1.734,1.734,0,0,1-.854-.015,5.306,5.306,0,0,0-3.011-2.131c-7.148-10.387-11.943-24.909-13.1-36.017H96.7c.62,13.952,4.449,25.392,9.545,36.471l-2.765.512c-4.092-9.915-8.579-18.544-9.43-39.064Zm14.249,2.108c.753.588,1.568,1.166,2.334,1.727,2.062,1.461,2.035,4.221.031,4.208-.213,0-.708-.031-.708-.031s.819,1.81,1.335,2.725c-.835.225-2.581.556-2.581.556a22.334,22.334,0,0,0,.2-3.25,2.565,2.565,0,0,1-.612.509c-1.33.561-2.454-.611-2.288-2,.224-1.869,2.288-4.449,2.288-4.449Zm-61.177.334,4.507,2.259c-3.071,7.057-6.589,13.665-11.676,18.688l.131-16.308C42.858,142.346,45.706,142.321,47.119,137.789Zm30.821.256h2.773c-1.23,13.02-9.753,30.632-11.353,32.756l-.527.4c.032-.018-1.092-3.993-2.369-5.423C71.272,159.231,76.31,146.652,77.94,138.045Zm19.5,0h4.188c1.305,10.374,4.482,21.582,12.534,35.194a2.62,2.62,0,0,1-1.431-.3c-1.372-.859-2.326.278-3.145.234a6.982,6.982,0,0,0-2.816.17A96.336,96.336,0,0,1,97.439,138.045ZM52.2,140.374l1.5.711c-3.216,7.509-6.1,13.477-13.718,20.8l-.027-2.182c5.353-5.233,8.96-12.13,12.249-19.332Zm2.177,1.048a19.263,19.263,0,0,1,2.181,1.076c.224.09.163.292.165.5-.283.714-1.531,1.026-2,1.165-.57.164-1.132.279-1.234.3-.652.154-.446-.5.261-1.949.319-.65.444-1.084.631-1.1Zm2.988,1.592a7.869,7.869,0,0,1,2.643,1.343c.137.428-.253,1.1-.823,2.349-.878,1.916-1.053,1.959-1.316.384-.045-.271-.307-1.167-.465-1.762C57.036,143.947,57,143.153,57.364,143.014Zm3.273,1.549s1.051.515,1.392.741c-4.692,14.186-17.189,25.911-17.121,25.641l-1.95-1.157c8.316-7.585,14.411-16.541,17.679-25.225Zm-4.961.2c.454.009.059.573-.554,1.937-.581,1.336-.771,1.81-1.315,2.022a20.141,20.141,0,0,1-2.892.47c-.425.074-.247-.254.407-1.6.769-1.574.812-1.9,2.016-2.228a17.136,17.136,0,0,1,2.338-.605Zm1.646,2.818c.484,1.757.474,2.1.15,2.713-.607,1.145-1.4,2.48-1.619,2.842-.547.9-.7.716-1.027-1.483a7.555,7.555,0,0,1-.229-2.571c.273-.671,1.087-2.256,1.547-3.182C56.8,143.925,57.156,147.408,57.322,147.583Zm8.638-1.533,2.461.815-1.93,2.352a5.52,5.52,0,0,1,.9-.108c1.937.129,1.615,2.073.115,3.249a27,27,0,0,1-3.684,1.98c-.328-1.739-1.005-2.85-.843-4.636.114-.961.2-1.828,1.366-1.855.613-.033.862.6,1.261,1.11Zm44.62,2.107A21.5,21.5,0,0,1,113.438,150c1.793,1.392,2.1,3.029.308,3.66a3.319,3.319,0,0,1-.8.043,16.562,16.562,0,0,0,1.666,2.158,8.723,8.723,0,0,1-2.335,1.029s-.228-2.159-.446-2.993a1.952,1.952,0,0,1-.531.656c-1.726,1.084-3.081-.959-2.153-3.544a14.337,14.337,0,0,1,1.43-2.849Zm-18.979.362c4.311-.106,1.786,7.02-.369,6.56-.037-.065,1.779-4.215-.666-4.876-1.121-.3-.154-1.7,1.035-1.684Zm-7.069.5c1.34-.008,2.314.945,1.034,1.545-2.013.945-.814,3.206-.769,4.488.028.783-1.793-.683-2.18-2.275-.5-2.058-.269-3.582,1.915-3.758Zm-31.886.749a1.273,1.273,0,0,1,.6.082c.126.336-.476,1.387-1.354,2.733a2.925,2.925,0,0,1-.954,1.087,5.917,5.917,0,0,1-2.427.341c-1.185.016-.976-.008.335-2.069a9.107,9.107,0,0,1,1.3-1.913,15.512,15.512,0,0,1,2.5-.261Zm1.553,1.487c0,2.578.868,3.422.231,4.235a35.749,35.749,0,0,1-2.134,3.09c-.609.739-.541.6-.7-1.331a8.756,8.756,0,0,1-.062-2.772c.521-1.263,1.14-1.867,1.784-3.21.506-1.082.881-.9.881-.012Zm34.029,1.293c1.252.017,2.025,1.36,1.969,2.593l-.054,1.18c1.618-.626,3.627-.017,3.716,1.584.15,2.716-1.831,2.4-3.508,2.287.169.064.416,2.454-.581,3.369-1.565,1.768-4.482-.038-3.749-2.632a5.5,5.5,0,0,0,.184-.877,6.416,6.416,0,0,1-1.415.365c-3.174-.137-2.931-4.667.258-4.135a6.913,6.913,0,0,1,1.092.268s-.069-.286-.177-.691C85.5,154.119,86.473,152.528,88.228,152.552Zm63.5.807,1.711.994v1.926l-2.434-1.817Zm-102.59,1.289c.675-.006,1.205.047,1.1.21a14.75,14.75,0,0,1-2.35,3.362c-.744.806-.849.691-2.669.6-.714-.035-1.18-.041-1.161-.233.838-1.109,1.993-2.537,2.792-3.73A12.354,12.354,0,0,1,49.138,154.648Zm1.665.905c.126,0,.165.273.162.873,0,.453.062,1.854.127,2.461.118,1.1.119,1.1-.35,1.763-.572.619-1.155,1.533-1.892,2.243-1.108,1.239-.994,1.309-.977-1.339.013-2.069-.142-2.068.273-2.554.228-.267.932-1.136,1.4-1.817.7-1.033,1.077-1.627,1.261-1.63Zm10.554.365,2.276,1.226-2.28,2.333a6.623,6.623,0,0,1,.761.035c1.465.287,1.355,1.854-.119,3.024a35.264,35.264,0,0,1-4.015,1.72,31.39,31.39,0,0,1-.331-3.944,2.9,2.9,0,0,1,.577-1.925,1.213,1.213,0,0,1,1.719-.082,3.157,3.157,0,0,1,.642.808Zm26.867.795a1.631,1.631,0,1,0,1.615,1.631A1.623,1.623,0,0,0,88.224,156.713Zm25.452.385A17.048,17.048,0,0,1,118,159.47c1.254,1.055.664,2.794-.581,2.83-.09,0-.619-.078-.619-.078.422.647,1.835,2.236,1.835,2.236l-2.3.943s-.369-1.79-.654-2.8c-.8,1.872-2.784.654-2.915-.512-.32-1.709.4-3.379.915-5Zm-25.452.143a1.134,1.134,0,1,1-1.123,1.134A1.129,1.129,0,0,1,88.224,157.241Zm-43.982,2.318c.8-.007,1.8.03,2.254.058.342.265-.373,1.088-1.754,2.551-1.107,1.173-1.27,1.01-2.611,1.021-2.25.018-2.306.033-1.273-1.153a12.65,12.65,0,0,1,2.315-2.407,6.02,6.02,0,0,1,1.069-.07Zm2.742,1.141c.238-.048.174.565.135,1.953l-.065,2.352-1.75,1.7c-2.025,1.829-1.784,1.944-1.769.233a7.991,7.991,0,0,1,.288-2.92c.885-1.075,1.806-2.028,2.812-3.055a.925.925,0,0,1,.35-.264Zm44.486.586c.487-.041,1.731,2.106,2.042,3.906.711,4.108,3.149,6.056,4.865,4.406.7-.97.777.088.743.594-.36,5.2-6.2,3.038-6.869-2.132-2.051,1.344-3.965-1.37-2.742-1.327,2.891-.928,2.1-3.607,1.961-5.447Zm-6.769.039c.287,1.8-2.929,4.884-4.738,2.721-.92-1.1-.081-3.369,1.089-1.972,1.293.967,2.547-.154,3.65-.749Zm-44.182,2.469c.662-.014,1.618.112,2.035.054.59.061.168.348-1.108,1.522-1.1,1.012-1.413,1.462-1.538,1.021-.061-.684-.035-1.5-.031-2.461a1.109,1.109,0,0,1,.643-.136Zm14.992,1.2,1.961,1.444-1.946,1.809c1.745-.087,1.9,1.564,1.239,2.484-.429.646-2.084,1.325-3.739,1.6-1,.163-1.807.283-1.807.283s-.038-.774-.065-2.061c-.058-2.632.12-3.668,1.123-4.181a1.921,1.921,0,0,1,2.23.881,5.78,5.78,0,0,0,.358.61Zm-12.623.143a.018.018,0,0,1,.016,0c.11.151-.289,4.434-.289,4.434l-2.842-1.615s2.877-2.771,3.115-2.822Zm75.219.5c2.024.963,3.541.775,4.9,1.968a1.6,1.6,0,0,1-.03,2.737,3.311,3.311,0,0,1-1.038.054,14.725,14.725,0,0,0,2.284,2.019l-2.492,1.052s-.341-1.7-.658-2.62a1.791,1.791,0,0,1-2.865.695c-.62-.48-.876-2.086-.581-3.479.078-.367.477-2.426.477-2.426ZM104.8,205.5c-24.575,5.878-44.536,2.243-46.516,1.549l-1.566,2.356c-.191.4-.308,1.6-1.369,1.922l-1.592,2.4.311.334L52.653,215.3l.342.415-1.027,1.506-.4-.042-2.377,3.645.361.408-5.457,8.621,73.83.024c-4.291-8.171-8.883-16.183-13.126-24.379Zm-.446,1.06.438,1.23c-1.22-.151-2.646-.226-4.1-.291C101.966,207.236,103.242,206.911,104.35,206.562Zm-4.288,1.071a12.482,12.482,0,0,0-4.835,3.773,12.779,12.779,0,0,0-5.092-2.267Zm-41.49.6,1.046.12s-.351.275-.6.218A1.242,1.242,0,0,1,58.572,208.231Zm47.032.613.665,1.328c-1.6-.856-8.439-2.815-10.38,4.049-2.042-2.787-10.463-6.827-14.734,1.762-1.214-2.327-8.285-9.021-14.734-.489-2.541-5.3-4.664-5.747-9.33-5.023,3.316-3.216,7.981.131,9.958,2.869,5.563-4.658,10.215-3.258,14.279.531,5.245-5.763,10.475-4.374,14.153-1.482,2.585-3.839,5.11-5,10.123-3.545Zm-42.955.035c3.306.451,6.612.655,9.918.819a15.618,15.618,0,0,0-5.434,2.745,12.7,12.7,0,0,0-4.484-3.564Zm23.852.532a24.59,24.59,0,0,0-5.307,3.5,16.553,16.553,0,0,0-5.3-3.18,72.806,72.806,0,0,0,10.607-.322Zm21.168,2.725s-.667.114-.881.171a2.507,2.507,0,0,0,.72,4.934,9.963,9.963,0,0,0,1-.113c-.057,2.811.789,3.5,3.634,3.339l4.823,8.7-71.342-.31,4.53-7.314c2.279.27,3.712-1.01,3.2-2.962a12.416,12.416,0,0,0,1.8.435c2.579.016,3.246-3.978.773-4.67-.275-.077-.965-.154-1.05-.179C56,211.32,59.109,213,60,214.186a3.118,3.118,0,0,1,5.165,1.234s-.373-.21-.489-.295c-2.345-1.731-4.527,1.855-2.23,3.51a3.054,3.054,0,0,0,.7.3,2.729,2.729,0,0,0-.535.664,2.653,2.653,0,0,0,3.046,3.855c1.78-.7,1.805-2.054,1.8-3.54,0,0,.615.047,1.165.054,2.136.026,2.748-2.735,1.441-4.019a3.36,3.36,0,0,0-2.087-.729c2.462-2.44,4.131-.756,5.869.369.263-.006,3.016-3.343,6.288-.066a2.5,2.5,0,0,0-3.237,2.289c.032,1.074.793,2.023,2.438,2.1a4.686,4.686,0,0,0-.3,1.466,2.474,2.474,0,0,0,3.031,2.574,2.511,2.511,0,0,0,1.981-3.211,1.874,1.874,0,0,0-.547-.846,2.41,2.41,0,1,0,.791-4.742,2.464,2.464,0,0,0-1.975.9c1.763-3.639,4.988-2.909,6.2-1.421,1.656-1.215,3.94-2.874,6.672.082a3.713,3.713,0,0,0-1.634.029,2.26,2.26,0,0,0-.458,4.2,3.6,3.6,0,0,0,1.712.351,2.6,2.6,0,0,0,3.812,2.882c1.3-.8,1.642-2.69.234-4.415,2.37-.107,2.6-3.089,1.234-4.134-1.073-.82-2.337-.43-3.253.652-.295-.856,2.048-3.833,5.357-1.689,1.753-1.483,3.492-1.939,5.48-.458Zm1.035,2.329.927,1.7A1.072,1.072,0,0,1,108.7,214.465Zm-11.961,1.728a1.06,1.06,0,1,1-1.05,1.06A1.055,1.055,0,0,1,96.743,216.193Zm-43.3.062c.139.569.2,1.136-.824,1.246ZM65.5,217.28a.971.971,0,1,1-.961.97A.966.966,0,0,1,65.5,217.28Zm16,.3a1.029,1.029,0,1,1-1.019,1.028A1.023,1.023,0,0,1,81.505,217.583Z"/><path id="81043ab8-4541-4854-8142-22f991fc473f" data-name="path153-6-3-1-9-0-4-7" d="M48.375,26.652c-7.381,10.526-15.279,16.583-15.41,24.8-.044,2.659,1.394,7.179,5.9,8.044,2.922.559,6.944-1.806,7.028-6.61-.013-.956,1.013-.932,1,.379A27.259,27.259,0,0,1,43.54,65.053h9.669A27.259,27.259,0,0,1,49.856,53.26c-.01-1.311,1.016-1.335,1-.379.084,4.8,4.106,7.169,7.028,6.61,4.5-.865,5.941-5.385,5.9-8.044-.132-8.212-8.029-14.269-15.41-24.795Z"/><path id="6e27a316-b337-4d37-bcaa-50a064e1ebb0" data-name="path153-6-3-1-8-6-4-8-4" d="M131.2,223.789c-7.381-10.525-15.278-16.582-15.41-24.794-.044-2.659,1.394-7.179,5.9-8.044,2.922-.559,6.944,1.806,7.028,6.61-.013.956,1.013.932,1-.379a27.259,27.259,0,0,0-3.353-11.793h9.669a27.273,27.273,0,0,0-3.353,11.793c-.01,1.311,1.016,1.335,1,.379.084-4.8,4.107-7.169,7.028-6.61,4.5.865,5.941,5.385,5.9,8.044-.131,8.212-8.029,14.269-15.409,24.794Z"/></g><rect id="49f95704-c04c-4e7e-84d6-865032c0328e" data-name="rect17634" x="0.497" y="0.496" width="178.583" height="249.449" rx="8.504" ry="8.504" opacity="0.08" fill="url(#2e54d96e-577c-443c-a34f-d676b3bb650f)" style="isolation:isolate"/></g></g></g></svg>