<svg xmlns="http://www.w3.org/2000/svg" xmlns:xlink="http://www.w3.org/1999/xlink" viewBox="0 0 179.576 250.442"><defs><pattern id="468a0d74-77bb-410d-9cae-36af4fbb20cb" data-name="pattern17762" width="595.276" height="841.89" patternTransform="matrix(0.8, 0, 0, -0.8, -615.4, 1813.785)" patternUnits="userSpaceOnUse" viewBox="0 0 595.276 841.89"><rect width="595.276" height="841.89" fill="none"/></pattern></defs><title>QC</title><g id="19a6d45f-967b-4758-b920-cd27c2e71e9b" data-name="Layer 2"><g id="29b1d96d-6ced-4a4b-b199-46cdaddbcd89" data-name="Clubs"><g id="2fd174cb-eb08-4ff5-867e-f9d6c9de6f77" data-name="QC"><g id="da100805-5e55-40a2-95d7-8660ea1d469e" data-name="g101418"><rect id="856a2075-33d7-4f6e-9dd0-9152a9bb9857" data-name="rect5200" x="0.496" y="0.496" width="178.583" height="249.449" rx="8.504" ry="8.504" fill="#fff" stroke="#b3b0b0" stroke-width="0.993"/><path id="b60c16b2-2b5d-4eee-b440-d05b045b3944" data-name="path147-6-9-8-7-0-5-6-46-4-5" d="M165.307,209.967c3.142-.071,4.551-3.751,2.224-6.609-.337-.417-.372-.656.246-.256,1.567,1.09,4.57.374,4.724-2.958.19-4.106-5.324-5.289-6.359-.923-.055.461-.414.45-.328-.2a14.023,14.023,0,0,1,1.36-5.05h-3.735a14,14,0,0,1,1.359,5.05c.087.654-.273.665-.328.2-1.035-4.366-6.549-3.183-6.359.923.154,3.332,3.158,4.048,4.725,2.958.618-.4.583-.161.245.256-2.326,2.858-.918,6.538,2.224,6.609h0Z"/><path id="8c0578de-2546-4940-a76c-0484408b3dc5" data-name="path147-6-9-8-7-4-5-62-9-4-5" d="M14.269,40.475c-3.142.071-4.55,3.751-2.224,6.609.338.417.373.656-.245.256-1.567-1.09-4.571-.374-4.725,2.958-.19,4.106,5.324,5.289,6.359.923.055-.46.415-.45.328.2a14,14,0,0,1-1.359,5.05h3.735a14.018,14.018,0,0,1-1.36-5.05c-.086-.654.273-.664.328-.2,1.035,4.366,6.549,3.183,6.359-.923-.154-3.332-3.158-4.048-4.724-2.958-.618.4-.583.161-.246-.256,2.327-2.858.918-6.538-2.223-6.609h0Z"/><path id="b206b068-ccf3-4843-94f2-1576789d9223" data-name="path37-5-2-4" d="M8.454,29.231H6.248V26.223H8.454s.017-1.62.081-4.479c.137-6.094.289-7.04,2.053-8.717,3.483-3.315,9.317-.614,9.248,4.37-.1,7.035-.028,13.742-.233,14.692-.365,1.673-.4,1.767-.253,2.073.3.614,2.941.88,2.941.708v2.963a5.45,5.45,0,0,1-4.46-1.183,6.617,6.617,0,0,1-6.5.8c-1.851-.871-3.254-3.123-2.875-8.217h0Zm7.457,5.251c-1.093-1.58-2.933-3.736-4.664-4.5-.108,1.817.049,3.34.687,4.159a2.542,2.542,0,0,0,3.977.343Zm.908-17.376c-.812-2.3-2.9-3.078-4.42-1.639-.953.894-1.1,1.836-1.125,6.952-.012,3.155-.012,4.481-.012,4.481,2.965.962,5.737,4.419,5.713,4.374l.073-9.543a26.744,26.744,0,0,0-.229-4.625Z"/><path id="8ec93fa1-28b8-4bec-bf45-b1003aef3ab3" data-name="path37-3-2-7-4" d="M171.12,221.211h2.206v3.008H171.12s-.017,1.62-.08,4.479c-.137,6.094-.289,7.04-2.053,8.717-3.484,3.315-9.318.614-9.249-4.37.1-7.035.028-13.741.233-14.692.365-1.673.4-1.767.253-2.073-.3-.614-2.94-.88-2.94-.708v-2.963a5.451,5.451,0,0,1,4.459,1.183,6.617,6.617,0,0,1,6.5-.8c1.851.872,3.254,3.123,2.876,8.217Zm-7.457-5.25c1.093,1.579,2.933,3.735,4.664,4.5.108-1.816-.049-3.34-.687-4.159a2.541,2.541,0,0,0-3.977-.342Zm-.907,17.375c.811,2.3,2.9,3.078,4.42,1.639.952-.894,1.1-1.836,1.125-6.951.012-3.156.012-4.482.012-4.482-2.966-.962-5.738-4.419-5.714-4.374l-.072,9.543a26.744,26.744,0,0,0,.228,4.625h0Z"/><g id="db99d96d-9bab-410a-8436-f601603cdc91" data-name="g5457-6-3-6"><g id="17547e9a-d8cc-4f71-bc5d-eb687adda1fd" data-name="g3405-1-0-4"><path id="1631b70a-8122-4b24-99da-b1af46663b3d" data-name="path3391-4-8-9-0" d="M96.074,229.257c.442-6.53.063-13.54.36-18.855-.2-.375.524-1.406.562-1.406a7.2,7.2,0,0,1-.031-4.607c4.262-16.285,11.982-28.958,19.933-40.777,6.466,19.532-13.837,33.235-18.107,50.3-1.424,5.91-1.21,10.036-1.756,15.375Zm-33.755.249L38.166,192.094l5.245-2.56,24.826,39.841ZM93.56,160.2c.213,1.074,1.056,1.651,1.95,1.159.876-.481.978-.513.433.334a1.743,1.743,0,0,0,2.8,2.075,1.43,1.43,0,0,0,.145-1.97c-.571-.532-.695-.808.146-.4,2.114.858,3.278-2.208,1.23-3.239a2.036,2.036,0,0,0-1.943.375c-.467.489-.533.317-.409-.062a9.63,9.63,0,0,1,.3-1.022,5.741,5.741,0,0,0,.238-.8l-2.16.023s.175.5.352.913c.166.393.229.687.31.85.291.588-.059.37-.642-.065a1.683,1.683,0,0,0-2.446.367A2.481,2.481,0,0,0,93.56,160.2Zm3.118-30.437,4.643-.139,5.106,14.128c-4.087,6.8-5.189,14.476-.434,22.252l-14.724.024C94.723,154.309,95.256,141.879,96.678,129.762Zm4.855,18.382a1.636,1.636,0,0,0,.135-2.247c-.714-.85-.55-.893.407-.338,1.382.8,2.7-.931,1.889-2.462a1.818,1.818,0,0,0-2.834-.323c-.533.72-.474.06-.063-.9.15-.353.367-1.014.367-1.014l-2.25.046s.291.639.446,1.049c.41,1.089.427,1.433-.206.733a1.737,1.737,0,0,0-3,1.344,1.5,1.5,0,0,0,2.18,1.5c.614-.363.89-.45.2.383a1.763,1.763,0,0,0,.324,2.282A1.987,1.987,0,0,0,101.533,148.144Zm-31.1,4.4c.18-.134.247-.046.136.134a6.688,6.688,0,0,1-.544.6c-1.05,1.171.309,2.659,2,2.429,1.152-.157,1.828-1.974.977-2.691-.276-.185-.492-.22-.7-.473-.017-.1.03-.169.132-.129.15.062.457.311.612.353a1.651,1.651,0,0,0,2.151-.91,2.206,2.206,0,0,0-.708-2.31,1.64,1.64,0,0,0-2.218.443c-.586.78-.667.038-.188-1.038a5.964,5.964,0,0,0,.3-.977l-2.068.11s.11.446.292.959c.46,1.171.789,1.507.2.9-2.527-1.492-3.366.537-3.407,1.344a1.8,1.8,0,0,0,3.027,1.251Zm10.115-22.914,3.732.013c-2.814,15-8.581,27.573-18.284,36.222l-18.261-.056-8.8-6.169,3.4-4.425C65.513,157.613,75.386,146.088,80.545,129.633Zm-16.8,34.783a1.651,1.651,0,0,0,.824-2.556c-.653-.753-.72-.988.284-.4,1.343.785,2.641-.781,1.983-2.314a1.762,1.762,0,0,0-2.632-.6c-.817.611-.8.338-.374-.627a7.962,7.962,0,0,0,.374-1.243l-2.288.032a9.576,9.576,0,0,0,.332.919c.381.859.52,1.253.342,1.255-.085,0-.368-.261-.534-.414a1.972,1.972,0,0,0-2.163-.056c-1.369,1.31-.6,3.6,1.144,3.179,1.125-.273,1.382-.7.45.359C60.339,163.255,62.118,165.136,63.745,164.416Zm-14.432-.455a1.53,1.53,0,0,0,.733-2.247c-.533-.711-.8-1.17.152-.529,1.26.636,2.362-.209,2.346-1.646a1.784,1.784,0,0,0-2.944-1.3,2.045,2.045,0,0,1-.513.291c-.151,0,.124-.813.425-1.346.131-.231.362-.7.362-.7l-2.288-.088a8.912,8.912,0,0,0,.307,1.106c.364.976.454,1.3-.185.747-1.721-1.612-3.556.441-2.832,2.214a1.446,1.446,0,0,0,2.251.5c.628-.488.307.16-.124.675C45.827,163.04,47.551,164.787,49.313,163.961ZM153.8,126.342l.12,2.775-29.567,24.707-1.239-1.905Zm-109.969,5.2c4.257-3.037,8.992-8.491,13.666-11.333C60.91,128.074,52.9,135.788,43.83,131.538Zm77.728-1.445c-3.009-16.635,14.814-13.168,13.875-11.684ZM25.846,119.918,55.115,95.992,56.445,98,25.567,123.367Zm80.178-24.135c.082.25.967,1.2.969,1.29-.253-.189-1.756-1.034-2.49-.213a2.8,2.8,0,0,0-.548,1.763,1.735,1.735,0,0,0,2.9.891c.309-.263.575-.581.637-.469a2.482,2.482,0,0,1-.252.918c-.158.373-.748,1.155-.32,1.155l2.078,0a4.336,4.336,0,0,0-.325-1.029c-.465-1.009-.446-1.557.115-.83,1.092,1.416,3.209.235,2.988-1.462a1.585,1.585,0,0,0-2.308-1.343c-.1.064-.392.354-.433.356-.112.005.193-.462.395-.85.671-1.289-.33-2.483-1.862-2.354a2.134,2.134,0,0,0-1.04.4A1.7,1.7,0,0,0,106.024,95.783Zm25.27-12a50.289,50.289,0,0,0,8.785,6.41l-2.764,4.374c-18.728-1.738-32.348,5.687-38.031,25.815l-3.087.595c1.162-12.556,5.358-25.007,17.764-37.174Zm-17.949,3c0,.595,1.095,1.3.853,1.467-.112.06-.761-.507-1.059-.539-2.163-.23-2.611,3.141-.468,3.52a2.739,2.739,0,0,0,1.55-.4c.343-.283.58-.515.651-.489.131.047-.168.649-.4,1.094a13.28,13.28,0,0,0-.523,1.276l2.458.011s-.223-.756-.444-1.293c-.283-.686-.343-1.121-.152-1.075.081.02.174.235.346.383a1.831,1.831,0,0,0,3.038-.907c.386-1.346-1.221-2.732-2.34-1.979-.391.263-.392.066,0-.525a1.787,1.787,0,0,0-.054-1.841A2.029,2.029,0,0,0,113.345,86.784ZM131,90.777c-.059-.3.017-.215.332.114a1.813,1.813,0,0,0,3.116-.5c.431-1.361-.887-2.918-2.035-2.383-.6.278-.608.18-.266-.266a1.7,1.7,0,0,0-1.6-2.646,1.654,1.654,0,0,0-1.522,2.493c.275.468.185.568-.3.333-1.412-.687-2.729,1.554-1.694,2.883a1.989,1.989,0,0,0,2.82.088c.429-.413.425-.215.114.639a14.246,14.246,0,0,1-.572,1.345l2.444.022A10.481,10.481,0,0,1,131,90.777ZM78.668,120.885c.712-.185-2.51-10.414-4.869-14.976,2.688-6.456,6.367-12.712.182-22.007l15.031-.042c-4.644,10.557-4.743,37.2-5.833,37.266Zm1.319-11.849a4.442,4.442,0,0,1-.788-1.852c-.089-.532.048-.565.324-.023,1.339,1.484,3.151.052,3.159-1.263.154-1.2-1.249-2.232-2.149-1.632-.632.42-.8.3-.24-.483A1.62,1.62,0,0,0,78.8,101.26c-1.845.021-2.551,1.749-1.229,2.982.977.911.066.373-.709.047-1.511-.634-2.5.908-1.824,2.465a1.592,1.592,0,0,0,2.646.484c.441-.476.849-.755.61-.035a10.432,10.432,0,0,1-.8,1.817ZM82.314,92.81a5.9,5.9,0,0,1-1.044-1.96c-.052-.31.167-.231.673.2,1.617,1.392,3.838-1.1,2.331-2.629a1.286,1.286,0,0,0-1.649-.359c-.755.4-.694.2-.318-.2a1.653,1.653,0,0,0-.083-2.225c-1.644-1.469-4.246.72-2.718,2.291.665.683.35.594-.382.155-1.385-.831-2.918,1.445-1.878,2.782,1.233,1.045,2.157.531,3.01-.126.185-.1.345-.142.346-.062,0,.151-.852,2.166-.852,2.166ZM62.6,86.5c-.917-.061-1.573-8.654-.452-11.374,2.39-11.477,9.685-19.836,14.225-26.866C83.656,37.8,82.751,20.406,83.06,21.1l1.033.121s-.8,10.193-.347,14.8c.47,4.049.367,4.3.078,4.7-.077.377.036,1.481-.046,1.86C80.537,57.576,72.8,72.993,64.813,84.632ZM137.489,60.31l-24.6-38.89,5.911-.533C121,24.372,142.364,57.6,142.364,57.6Z" fill="#d40000"/><path id="160a2db6-a537-4b25-b962-d8a6a94b25a7" data-name="path3395-8-0-1-6" d="M36.21,230.2c2.8-10.282-4.781-34.195-9.516-37.319,5.553-.235,12.234-.135,12.023-.656,0,0,23.617,37.248,23.425,37.445s-25.932.53-25.932.53Zm95.723-58.334c-5.724-.815-3.467-5.579.213-6.074-.479.08.4-2.368,3.363-3.358.674-1.226,1.2-3.319,1.819-4.291-1.779.58-3.941,2.087-12.023.9.7-3.841,8.435-4.5,11.223-3.9,1.61.375,3.2,2.781,3.689,2.831,4.962-.829,11.275,3.673,9.365,8.243-.3.651-1.05-.774-2.721-1.382-5.4-1.963-5.778-4.893-7.019-6.2-.451-.085-2.839,4.653-2.839,4.653l.745,3.218c1.3-.118,7.051,3.448-.114,5.863-1.981,6.847-5.712,2.015-5.7-.495ZM145.5,141.293c-.306-.312.241-2.443.967-3.669a2.128,2.128,0,0,1,1.831-1.014c.948.167.8,1.548-.455,5.592C147.786,142.786,146.505,142.847,145.5,141.293ZM31.515,112.976c-1.571,0-.162-4.288.8-5.648.317-.422,1.571.478,1.635,1.1C34.07,109.538,32.367,113.417,31.515,112.976ZM30.4,83.856a23.592,23.592,0,0,1,6.388,3.461c1.8,1.345,1.308,3.987,2.746,4.221.972-.482,2.754-4.808,2.754-4.808s.447-2.222-.82-2.906c-3.153-1.7-3.1-3.543-2.9-3.707.935-2.43,2.8-2,3.8-2.133.021-1.331-.023-4.139,2.724-3.85,2.4.228,2.638,3.669,1.628,3.7-.019-.058,4.543-.656,4.5,2.361-.024,1.636-2.73,3.729-3.572,2.969,0,0,.451,3.261-3.637,4.378-.954.975-1.734,5.12-1.734,4.752,2.465-2.23,6.325-2.753,12.415-1.952-3.773,7.013-14.205,3.731-15.021,2.374C34.427,91.129,29.5,89.061,30.4,83.856Zm44.936-16.81c5.552.5,11.626-1.242,16.243-.317.526.072,1.1.853,1.414,1.026,2.387,1.305,4.884.9,8.725-.558.949-.36,18.552-.223,18.552-.223,4.01,5.939,11.139,17.112,11.294,16.734,0,0-9.758-.111-14.254.156-3.161.187-1.3.619-3.5.715C98.431,96.163,95.5,121.2,95.5,121.2s4.888-1.29,6.166.064c6.047-17.738,17.528-25.838,33.538-24.252,7.4.733,16.227,8.029,16.227,8.029L135.6,117.956c-12.265-6.2-17.52,12.082-13.8,12.128l31.883-26.133s.545,2.133.491,2.205c-2.273,2.987-40.283,33.925-40.283,33.925l-1.669-1.849s-1.049.933-1.6,1.555a3.409,3.409,0,0,0,1.068,2.665c-7.53,6.06-7.779,17.176-2.228,23.245,0,0-2.462.175-2.721.219-3.128.537-6.363-14.929-.162-22.126-3.129-6.151-5.056-14.52-5.448-14.908.084.986-4.938.658-4.938.658a169.59,169.59,0,0,1-4.68,36.569l23.069.5-9.82,17.089s-11.02-.277-15.767-.609c-4.957-2.892-7.814-.694-12.466.377-6.62.195-16.364-.114-16.364-.024a80.106,80.106,0,0,0-11.684-17.062c-.614-1.025,19.594-.392,19.594-.392s10.1-15.322,11.942-19.649c1.436-3.378,4.657-15.674,4.657-15.674.149.641-1.834-3.2-6.454-3.11C74.4,153.013,44.228,161.59,26.072,145.2l-.169-2.961L65.914,109.7l1.778,2.06c-.382-.306-24.563,19.871-24.162,19.743,7.167,3.761,15.46.717,14.495-11.63a136,136,0,0,0,15.65-13.805c.106-.192,5.516,12.17,5.383,14.549,3.111-1.048,4.954,1.149,4.895.774-1.119-7.149,5.124-34.254,5.243-37.37-3.467-.28-8.066-.152-15.277-.439,5.792,11.242,3.78,18.857-4.316,25.782L67.91,107.23c.687.384,11.826-9.282,2.857-23.722-.41.034-4.727-.392-4.727-.392S74.89,69.038,75.337,67.046Zm42.992-46.461s25.252-.608,25.26.134a59.3,59.3,0,0,0,9.988,37.49s-11.185-.4-10.98-.256Z" fill="#e2cf00"/><path id="5cf39454-93d5-4dc9-8414-1f75b94bf792" data-name="path3393-8-5-4-3" d="M155.388,19.621H24.188v211.2h131.2Zm-12.334.918c-.011-.011-1.693,22.351,9.944,37-7.109-1.08-11.179.012-15.317,2.945l.566.584c5.7-3.511,10.536-2.588,15.485-2.041V87.8c-.035,1.4-5.925.773-9.56-1.967a17.166,17.166,0,0,1-4.949-4.777c-.3-.489-.623-.973-.711-1.075q-.5-.578-6.213-11.59c-1.934-3.728-4.492-8.813-6.569-12.755-1.345-2.551-3.845-7.372-4.022-7.756-.367-.8-3.089-6.127-4.149-8.064-2.8-5.118-7.317-14.049-8.929-17.25-.357-.831-.9-1.213.072-1.186a3.108,3.108,0,0,1,.554.048c.171.085.379-.294.379-.294ZM26,141.519v-2.262l38.226-31.551,1.217,1.57ZM63.018,86.254c-.153.057-.32.114-.5.173-.981-4.381-.422-10.235.734-14.635,1.683-6.109,4.825-11.009,8.324-15.933,8-11.244,11.539-19.72,11.4-34.824l1.143.122c-.048,2.386-.362,4.18-.454,7.355a57.1,57.1,0,0,0,.274,9.309c.177,1.632.284,2.69.01,2.9a1.048,1.048,0,0,0-.129.879c-.02.453-.081,1.358-.081,1.358C81.9,51.953,72.076,75.011,63.018,86.254ZM67.789,106.7l-2.021-2.487a1.747,1.747,0,0,1-.158-2.678c4.039-4.107,4.066-9.327.162-14.022-.263-.6,1.213-3.607,1.213-3.607l3.074.05C74.854,89.8,76.161,100.138,67.789,106.7Zm2.825-23.214c.1-.4-4.555-.245-4.555-.245,2.889-4.318,5.346-8.76,7.76-13.214,3.746-6.741,8.94-18.551,10.568-27.112,1.212,10.013,2.975,24.873,11.52,25.46,2.8.192,6.046-1.733,6.575-1.415l17.751-.141a69,69,0,0,0,12.183,17.232,45.716,45.716,0,0,0,11.31,4.387c2.228.555,2.442.185,6.838.814a8.882,8.882,0,0,0,2.91-.326c-3.512,2.778-7.564,1.991-12.026.8-.249-.067-.512-.144-.772-.237l-3.369,5.083c-7.5-1.782-31.575-.521-37.922,25.727,0,0,.652.333.5.152,5.041-22.782,26.333-27.323,36.484-25.054l-.873,1.336c-16.843-2.066-30.557,8.5-33.823,23.477l.325.3c6.321-22.648,32.89-31.027,49.363-15.329l3.021-2.146-.1,2.9-40.5,34.024-1.62-1.68s-.285.217-.608.487c-1.045.872-1.458,1.085-1.165,1.572s1.429,1.583,1.479,1.706c-6.717,5.488-8.848,16.073-2.466,23.486.712.785.583,1,.452.111-5.725-6.247-5-17.3,2.139-22.534L113.436,145c-3.143,6.92-4.82,17.713,3.445,18.647,2.961,7.956-.445,17.384-4.248,23.7-4.03,7.281-8.913,13.332-11.962,21.261-1.482,3.309-3.839,13.123-3.715,20.622l-.889-.009c0-3.061.2-6.689.228-9.009.124-11.31.108-10.639.362-10.926.084-.095.32-.195.343-.275.034-.119-.185-.353-.27-.63a3.912,3.912,0,0,1-.223-1.2c.015-.419.407-1.03.332-1.166-1.778-6.241-1.924-17.458-7.662-22.61-2.814-2.423-6.552-2.521-11.393-.533-10.682.019-9.1.569-17.725.076a80.157,80.157,0,0,0-12.58-17.665c-2.189-2.447-5.232-3.788-8.094-5.562a13.713,13.713,0,0,1,3.873-4.815,7.07,7.07,0,0,1,.878-1.235c29.089,2.8,35.4-25.446,34.069-24.728l-.258.224c-7.952,29.1-36.254,28.045-50.481,15.462,0,0-2.009,1.75-2.016-.171-.006-1.746.629-2.252.629-2.252L66.01,109.557c.729.466,1.516,2.017,1.843,1.843.736-.392,1.82-1.179,1.786-1.648a19.667,19.667,0,0,0-1.46-2.626c10.682-11.09,5.864-16.044,2.435-23.643ZM85.751,21.159a.583.583,0,0,1,.509.3c.243.385-.726,2.634-1.325,3.031-.567.375-.608-.061-.2-2.237A1.248,1.248,0,0,1,85.751,21.159Zm58.589.066h9.392v35.59C146.821,47.074,143.246,35.884,144.34,21.225Zm-56.106.059c.231-.011.434.053.5.222.237.6-1.119,3.194-2.8,5.345-.871,1.115-1.31,1.438-1.582,1.172-.229-.508-.222-1.1.579-2.026a20.127,20.127,0,0,0,2.25-3.554C87.385,21.857,87.585,21.326,88.234,21.284Zm9.5.127c.27,0,.547,0,.625.126a18.408,18.408,0,0,0,7.766,7.873c.454.258.24.906.392,1.361-3.5-.521-8.082-5.486-9.308-9.11C97.2,21.4,97.461,21.408,97.73,21.411Zm5.466,0c.7.708,1.789,1.564,2.035,2.373a2.6,2.6,0,0,1,.156,1.332c-.607.381-3.625-3.129-3.509-3.54A1.547,1.547,0,0,1,103.2,21.408Zm-13.086-.05c.3.011.75-.006.816.218.377,1.531-3.11,7.5-5.653,9.186-.9.6-.962.443-.89-.565.049-.677.114-.623,1.042-1.512a17.842,17.842,0,0,0,3.566-4.959C90.012,21.5,89.762,21.363,90.11,21.358Zm2.366.023a.911.911,0,0,1,.727.261c.116.2-.04.525-.148.927A26.2,26.2,0,0,1,85.7,33.185c-1.305,1.009-1.526,1-1.62-.039-.056-.605.222-.781.835-1.208A17.864,17.864,0,0,0,91.4,23.021c.211-.683.131-1.3.5-1.5A1.2,1.2,0,0,1,92.476,21.381Zm17.658,5.649c.137.234,1.113,1.764.315,1.188a25.219,25.219,0,0,1-1.869-2.026c-2.239-2.549-2.306-2.391-2.262-3.025.022-.827-.568-2.183.706-1.831C108.276,22.811,109.063,25.19,110.134,27.03Zm-10.194-5.6a3.911,3.911,0,0,1,.8.093c1.474,2.78,5.074,5.22,5.06,5.207a5.367,5.367,0,0,1-.04,1.424c-.075.372-5.717-3.926-6.345-6.5C99.479,21.492,99.686,21.436,99.94,21.432Zm-4.015.05c1.324,2.44,4.058,7.978,10.48,10.215.461.1.953,1.419.6,1.781A18.039,18.039,0,0,1,94.927,21.516,1.06,1.06,0,0,1,95.925,21.482Zm-1.725.474c-.22,0,3.032,9.416,12.3,12.223.8.251,1.271.6,1.22,1.075-.064.6-.045.674-.937.226a10.233,10.233,0,0,0-9.139-.411c-.47.239-.946.892-.568,1.3.216.209.747.054,1.424-.211,3.5-1.366,8.864-.562,9.81,1.586.673,1.525.787,2.649.42,2.836-.28.143-.756-.37-1.593-1.106-2.665-2.345-5.851-3-8.384-.744-.548.487-1.091.4-1.282.6s.034.632.19,1.059a.98.98,0,0,1,.008.947,3.962,3.962,0,0,0-.206,1.671c.06,1.2.852,2.235,3.131,3.818,1.776,1.233,3.164,1.927,1,.171-3.73-3.029-4.407-4.263-1.989-3.214,2.414.973,5.761,0,8.131-1.815.807-.014,1.287-.155,1.712.156,1.768,4.161,3.214,9.7,5.564,15.068-2.806,3.18-12.579,10.967-19.546,10.689-6.017-.24-8.141-10.113-9.471-15.57a34.366,34.366,0,0,1-.9-7.92.342.342,0,0,1,.264-.058,11.231,11.231,0,0,0,3.625.117c1.6-.376,1.923-.662,2.017-.425.11.279-.557.907-1.721,1.706-.507.348-1.982,1.061-1.826,1.165.352.237,2.136-.716,2.436-.97.466-.4.786-.421,1.01-.2.261.257.315-.016-.548,2.131-.951,2.367-.86,2.582.995,4.04a8.774,8.774,0,0,1,1.375,1.235c.178.291.3.634.381.744.313.421.121-.256-.066-1.332a4.133,4.133,0,0,0-1.547-1.971c-1.012-.706-.855-1.4-.017-3.8,2.472-7.09,1.842-10.253-.88-11.793-1.228-.694-4.664-.509-5.748.4-.533.447-.46-.431-.375-.49C91,30.39,92.534,26.1,94.2,21.956Zm12.6,3.474a75.516,75.516,0,0,1,5.549,6.131,24.469,24.469,0,0,1,1.771,2.921c.116.181.23.388.148.472-.031.036-.3-.119-.443-.23-1.358-1.027-6.966-7.43-6.966-7.43C106.6,26.243,106.425,25.885,106.8,25.43Zm1.108,4.346s4.859,5.32,7.642,7.936a32.66,32.66,0,0,1,1.57,3.093c-.012.124-.595-.327-.595-.327-3.075-2.841-5.917-6.035-8.869-9.062.027.016-.234-1.252-.237-1.764C107.49,29.4,107.785,29.677,107.912,29.776Zm10.541,13.635c.653,1.067,1.13,2.022,1.445,2.65.519.993.345,1.021-.113.654-3.476-2.853-6.388-6.326-9.662-9.509-.426-.439-1.275-1.415-1.275-1.415.031.036-1.067-2.294-.378-2.247.539.211.893.8,1.241,1.171C111.428,36.559,114.7,39.728,118.453,43.411Zm-30.328-7.6a4.438,4.438,0,0,1,3.559,1.211c.648.8.91,2.071.55,2.44-.224.23-1.02-.419-1.02-.419-3.377-1.9-4.54-.984-6.372-.427-.261.08-.539-.627-.2-1.325.673-1.162,2.377-1.446,3.488-1.48Zm21.248,1.8c3.612,3.631,7.281,7.664,11.189,10.787.548.468.924.769,1.174,1.021.516,1.025,1.7,3.467,1.7,3.467-4.188-2.937-13.623-13.06-13.519-12.993C110.013,39.937,109.129,38.037,109.373,37.607Zm-7.07.6a5.443,5.443,0,0,1,1.953.428c1.82.724,2.965,1.495,1.08,1.238a14.442,14.442,0,0,0-4.479-.222c-1.784.287-1.923.487-2.079.2C98.369,39.109,100.325,38.227,102.3,38.208Zm-14.889.213a5.137,5.137,0,0,1,2.071.448c2.224.975,2.616,1.611.722,1.3a11.7,11.7,0,0,0-4.075.191,7.938,7.938,0,0,0-.968.378c-.457.146-.584-.2-.388-.771A2.611,2.611,0,0,1,87.414,38.421Zm16.106,2.846.46.034c-.574,3.258-3.819,2.94-4.693.142l.459-.01C101.456,44.109,102.734,42.535,103.52,41.267Zm1.808.169c1.5-.016,1.4.887-.159,1.492-1.2.465-1.332.381-.893-.518C104.7,41.546,104.654,41.444,105.328,41.436Zm-15.451.118a2.105,2.105,0,1,1-4.183.272l.388-.019c1.336,2.517,2.88,1,3.362-.253Zm1.814.4c.462.317.176.751-.827,1.364-.905.564-1.137-.118-.392-1.064A1.035,1.035,0,0,1,91.691,41.954Zm7.075,0c.179-.057.6.737.241.927-.214.113-.531-.212-.567-.452A.444.444,0,0,1,98.766,41.951Zm12.215.183a103.742,103.742,0,0,0,13.478,12.571,24.942,24.942,0,0,1,1.379,2.809c-.194.241-.3.213-.858-.066a91.839,91.839,0,0,1-13.894-13.542C110.906,43.26,110.5,42.638,110.981,42.134Zm-25.953.3c.309-.011.746.682.5,1.1-.2.157-.507-.086-.641-.276a.786.786,0,0,1-.046-.69A.213.213,0,0,1,85.028,42.434ZM112.12,46.6c-.022-.1,12.659,12.783,14.286,12.537.757.447,2.641,4.11,2.641,4.11.055.116.046.331-.26.179-2.143-1.063-11.106-8.52-15.688-14.071A22.238,22.238,0,0,1,112.12,46.6ZM97.047,48.491c2.211,1.071,1.259,3.268-1.074,1.871-1.839-1.121-3.3-1.223-3.287-.254a1.093,1.093,0,0,0,.991.931,17.625,17.625,0,0,1,2.626.589c1.394.3,2.436-.071,2.785-.919a2.23,2.23,0,0,0-1.743-2.927c-.928.083-.695.529-.3.709Zm17.509,3.522a89.628,89.628,0,0,0,15.113,12.825A23.032,23.032,0,0,1,131,67.557c-.035.193-.229,0-.229,0-4.449-2.578-10.32-7.692-15.883-13.5a14.468,14.468,0,0,1-.7-2.123C114.307,51.887,114.439,51.96,114.556,52.013ZM99.881,54.569c-.2.028-.468.331-.8.514-.677.374-.892.474-2.556-.027-.9-.272-1.05-.253-1.589.148a1.024,1.024,0,0,1-1.259.171c-.947-.425-1.385-.116-2.261.191-.835.3-1.122-.066-1.873-.237a16.481,16.481,0,0,0-.043,3.136c.035.033.781-.458,1.2-.674.728-.372.623-.313,1.686-.269a8.243,8.243,0,0,0,4.173-.234,3.275,3.275,0,0,1,3.232.44c.548.451,1.276.377.851-.451a5.187,5.187,0,0,1-.439-1.734c.06-.587-.07-.962-.288-.974A.17.17,0,0,0,99.881,54.569Zm16.753,2.369c2.974,2.859,6.64,7.222,15.265,12.279.45.79,1.057,1.838,1.442,2.657.035.227-.021.429-.241.35a72.222,72.222,0,0,1-15.681-12.333,19.526,19.526,0,0,1-1.329-3.027C116.171,56.574,116.512,56.864,116.634,56.938Zm-1.255,1.09,3.3,6.21-11.108-.023A43.012,43.012,0,0,0,115.379,58.028Zm-18.411.141c-1.824.727-2.1.878-3.909.436-1.054-.257-.765.355-.225.609a4.844,4.844,0,0,0,4.074-.319C97.392,58.583,97.723,57.868,96.968,58.169ZM95.1,60.085c-1.91.027-3.712.7-3.846,1.473-.026.15.13.32.427.14,1.294-.781,4.508-1.036,6.939-.156.394.143.462-.1.054-.44A5.565,5.565,0,0,0,95.1,60.085Zm24.243,2.653a71.277,71.277,0,0,0,14.8,10.843,20.786,20.786,0,0,0,1.5,2.8c-7.252-3.529-15.156-10.5-15.156-10.5a25.331,25.331,0,0,1-1.529-3.174C118.936,62.394,119.237,62.658,119.338,62.738Zm2.476,5.184a82.959,82.959,0,0,0,14.169,9.425c.305.3,1.065,2.1,1.313,2.3s-.3.2-.843-.086c-3.95-1.824-12.421-7.663-12.421-7.663C123.219,70.558,122.056,69.169,121.814,67.922ZM42.585,91.383a41.708,41.708,0,0,0,1.623-3.922,3.738,3.738,0,0,0,3.328-1.474c.913-.025,1.612-.021,2.856-.057-.041-1.233.016-2.979.016-2.979,1.261-1.3,2.116-2.8.161-5.106,0,0-.078-1.072-.107-2.9a21.017,21.017,0,0,0-2.921-.051,3.163,3.163,0,0,0-5.408,0s-1.3.072-2.194.075c-.019.488-.173,2.648-.173,2.648s-3.807,2.6.143,5.671l-.054,2.578a15.6,15.6,0,0,1,2.234.195s-1.511,3.518-2.5,5.187c-.339.09-.258-.106-.669-1.273a9,9,0,0,0-2.56-3.618c-1.285-1-3.043-1.3-4.27-2.167-1.182-.832-2.017-1.906-2.393-1.706a11.887,11.887,0,0,0,.186,4.363c.627,2.539,4.27,4.158,7.312,5.373.234.151.442.381.443.463,0,.42-.4.291-1.4.191a2.145,2.145,0,0,0-2.661,1.555,7.73,7.73,0,0,1-.839,1.231,4.791,4.791,0,0,0-.668.872c-.045.155-.358.939-.669,1.594a3.445,3.445,0,0,0-.532,1.422,31.934,31.934,0,0,0,.175,5.8c.2,1.132,1.627,1.782,2.117,1.874.754.141.892.908.774,1.535-.581,3.093-2.357,4.986-2.926,3.97-.15-.267-.308-1.531-.35-1.516a4.087,4.087,0,0,0-.194,1.508.975.975,0,0,0,1.29.6c.868-.315,1.551-1.178,2.09-3.14.221-.8.43-1.251.8-1.309.686.048,1.757,1.465,1.757,1.465-3.563,2.977-10.4,8.381-10.4,8.381V21.225H82.175a48.966,48.966,0,0,1-3.39,21.205C75.5,49.848,70.412,55.362,66.516,62.19a36.578,36.578,0,0,0-4.607,25.4,58.384,58.384,0,0,1-12.7,12.267s-2.882-3.038-4.483-4.738c0,0,.675-.056,1.465-.089,3.652-.41,7.6-.929,9.13-4.741.218-.423.126-.611-.132-.67-2.859.4-5.343-.006-6.965.109-3.965.281-5.64,1.659-5.64,1.659Zm.435,2.806S38.432,92,38.092,91.941c-2-.364-6.824-2.884-7.639-4.6C30.347,87.121,30.08,84,30,83.355c.029-.2.111-.2.311-.051.515.356,2.514,1.662,3.252,2.022,3.047,1.485,4.226,2.542,4.973,4.776a6.468,6.468,0,0,0,.493,1.262c.244.265.347.243.653.008A15.1,15.1,0,0,0,42.2,86.448c.079-.2.249-.41.148-.7-.238-.8-.824-1.843-.225-2.629-1.909.087-3.736-1.312-3.5-2.713.508-2.6,1.607-2.129,3.666-2.507-.238-6,5.368-4.547,5.354-.364,6.158.52,3.248,6.23-.329,5.357,1.418,3.244-2.844,4.462-3.443,3.91-.24,1.048-1.863,4.425-2.209,5.428,4.563-3.243,11.905-1.8,12.969-2.011C51.975,95.775,43.308,94.422,43.02,94.189Zm82.166-20.468c1.158.894,10.984,7.056,12.8,7.195,0,0,.869.977,1.586,1.866.667.828.913.959.99,1.126s-.252.158-.307.152c-4.42-1.927-8.917-3.954-12.739-7.157a4.594,4.594,0,0,1-.886-.974C126.29,75.482,125.29,73.887,125.186,73.721Zm3.256,4.97c4.494,2.532,8.314,4.987,12.409,6.308a5.623,5.623,0,0,1,1.173.44c.291.206,1.539.98,1.834,1.153,1.868,1.1,2.06,1.047,1.6,1.231-.514.2-3.794-.757-6.566-1.784-4.918-1.823-6.657-2.857-8.435-4.465C130.053,81.159,128.185,78.918,128.442,78.691ZM38.849,92.814a2.933,2.933,0,0,1,1.616.713,21.855,21.855,0,0,0,3.019,1.9c.351.15.46.189.46.189l4.419,5.03-11.378,9.275s-.924-.947-1.218-1.264c-.278-.3-.2-.549.149-.888a1.507,1.507,0,0,0,.252-1.154,1.222,1.222,0,0,1,.486-1.316,1.289,1.289,0,0,0,.486-1.048,1.493,1.493,0,0,1,.617-.818,1.771,1.771,0,0,0,.77-2.131c-.113-.351-.174-.442.283-.748A2.113,2.113,0,0,0,39.887,98.7a1.4,1.4,0,0,0-.043-.358c-.16-.844.582-.631,1.193.428a8.638,8.638,0,0,1,.594,2.6c.2,1.27.331,1.617.4,1.437.4-1.025-.071-4.877-1.239-5.4-1.708-.764-3.136-2.322-2.708-2.934.148-.212.174-.139,1.216.343a9.215,9.215,0,0,0,1.259.514c1.205.038.474-.479.081-.534a5.323,5.323,0,0,1-2.047-1.227C38.318,93.076,38.47,92.822,38.849,92.814Zm-2.91.662c1.112-.012,1.325.286,1.337,1.247.007.566.217,1,1.1,2.131.361.46.6.813.579.993-.039.3-.146-.011-1.371-.156-.435-.051-.656-.059-.809.168-.421.627-1.315-.026-1.864-.951C33.6,94.7,34.065,93.5,35.939,93.476Zm21.184,1.329,12.1,14.844-1.364,1.063L55.713,96.068Zm-2.022.911,1.3,2.194s-3.749,3.211-4.735,4.117c-7.963,6.467-25.94,21.145-25.94,21.145l-.242-2.952Zm-21.835.4c.236.006.507.306.89.893a12.892,12.892,0,0,0,1.8,2.228c1.474,1.362,1.616,1.238.419,1.367-.475.052-.63,0-.921.721-.878,1.1-3.47-2.835-2.863-4.34C32.831,96.4,33.03,96.107,33.266,96.113Zm4.22,2.124a1.564,1.564,0,0,1,.843.276c.642.264.684.418.578,1.033-.1.588-.547.74-1.425-.036-.668-.63-.555-1.246,0-1.273Zm19.307.363,1.421,1.84L26,126.6v-3.011C26.786,123.69,47.434,105.665,56.793,98.6Zm-25.019.3c.086-.018.221.278.579.818a9.3,9.3,0,0,0,2.16,2.4c.721.545.8.849.307.853a.939.939,0,0,0-.652.487c-.306.526-.332.4-.8.125a3.551,3.551,0,0,1-1.62-1.777,5.248,5.248,0,0,1-.074-2.68C31.706,98.982,31.735,98.907,31.774,98.9Zm5.094,2.088a1.069,1.069,0,0,1,.87,1.706c-.3.3-.575.438-1.177.082-.8-.469-.939-1.192-.288-1.6A1.207,1.207,0,0,1,36.868,100.987Zm-5.292,2.076c.173-.008.484.242,1.006.78a6.24,6.24,0,0,0,1.376.919c.625.349.654.471.314.752-.144.12-.62.127-.749.506-.37,1.085-1.937-.175-2.087-1.726C31.36,103.507,31.354,103.074,31.576,103.063Zm3.94.129a1.03,1.03,0,0,1,.7,1.839c-.447.322-1.573-.247-1.686-.838C34.452,103.813,35.125,103.176,35.516,103.192Zm24.056.9a1.083,1.083,0,1,1-1.08,1.083A1.081,1.081,0,0,1,59.572,104.087Zm-3.229.448a1.083,1.083,0,1,1-1.08,1.083A1.081,1.081,0,0,1,56.343,104.535Zm-21.635,1.446c.065,0,.134,0,.206,0,.991.049,1.043,1,.454,1.5a.755.755,0,0,1-1.127.035C33.427,106.867,33.729,106.037,34.708,105.981Zm24.04,1.585a1.083,1.083,0,1,1-1.084,1.083A1.081,1.081,0,0,1,58.748,107.566Zm94.852.063v2.739l-38.12,31.817-1.29-1.69Zm-97.044.234-2.82,6.35-.847-1.637H50.78l.647-1.894-1.242-1.515Zm60.027,26.411,5.02-4.035c-2.161-10.932,6.465-15.282,14.656-12.106l5.1-4.356C131.9,105.793,109.661,111.209,116.583,134.274Zm-67.9-21.367a1.083,1.083,0,1,1-1.08,1.083A1.081,1.081,0,0,1,48.678,112.907Zm-3.279.265a1.024,1.024,0,0,1,1.046,1.049,1.063,1.063,0,1,1-1.046-1.049Zm17.452,2.2-4.976,4c1.286,10.467-3.792,15.8-14.709,12.209l-5.28,4.2C52.151,145.612,70.817,132.931,62.851,115.371Zm-15.315.945a1.083,1.083,0,1,1-1.08,1.083A1.081,1.081,0,0,1,47.536,116.316Zm104.683.275a1.083,1.083,0,1,1-1.08,1.083A1.085,1.085,0,0,1,152.219,116.591ZM45.3,116.85l-3.182,6.31-.792-1.9-2.136.03.69-2.2-1.336-1.132Zm102.644.664.99,1.67,2.088.05-.786,1.59,1.509,1.558-6.805,1.677ZM37.71,122.1a1.083,1.083,0,1,1-1.08,1.083A1.085,1.085,0,0,1,37.71,122.1Zm-3.109.121a1.083,1.083,0,1,1-1.08,1.083A1.084,1.084,0,0,1,34.6,122.218Zm108.083.643a1.084,1.084,0,1,1-1.08,1.084A1.082,1.082,0,0,1,142.684,122.861Zm11.048.168v2.405l-30.957,25.809-1.3-1.677ZM36.766,125.375a1.085,1.085,0,1,1-1.081,1.083A1.082,1.082,0,0,1,36.766,125.375Zm108.128.26a1.085,1.085,0,1,1-1.08,1.083A1.081,1.081,0,0,1,144.894,125.635Zm-3.057.195a1.085,1.085,0,1,1-1.084,1.083A1.081,1.081,0,0,1,141.837,125.83Zm12.073.384-.09,3.061c-9.645,8.245-29.371,24.621-29.3,24.631l-1.49-2.063S144.651,133.165,153.91,126.214Zm-119.127-.45-2.975,6.73-1.284-1.812-1.878-.128.447-1.821-1.725-1.175Zm103.171,2.659,1.9-.362-.332,1.949,1.335,1.406-7,1.542,3.382-6.291Zm10.456,32.79c1.418,2.128,1.328,4.453.734,4.809-.626-.353-1.169-.967-1.817-1.247-3.261-1.41-5.864-2.568-6.329-4.642C139.222,155.441,147.227,159.443,148.41,161.213ZM131.274,148.75l10.969-8.954a11.145,11.145,0,0,1,2,1.264c.113.434-.19.567-.637.972a1.581,1.581,0,0,0-.346,1.088c-.012.614.19.89-.057,1.161-.414-.022-.744.52-.727.958.014.335-.423.7-.678.957-.454.447-.587.54-.878,2.056-.029.152-.019.546-.233.75-.634.057-1.094,1.614-1.383,1.713a1.84,1.84,0,0,1-1.378-1.435A7.215,7.215,0,0,1,137.97,147a6.694,6.694,0,0,0,.171-1.741c-.119-.452-.417-.174-.412.46a10.617,10.617,0,0,1-.261,1.757c-.163.729-.606,1.7-.407,2.272.3.858,1.393,1.221,1.886,1.674a7.229,7.229,0,0,1,1.729,2.041c1.039,1.9,1.042,2.228.782,3.661-.15.824-.951.684-1.434.349,0,0-3.084-2.251-4.426-3.369a15.071,15.071,0,0,1-4.324-5.349Zm4.162,6.155a35.271,35.271,0,0,1,4.24,2.706l-2.79,5.819a11.358,11.358,0,0,1,.713,3.175c3.528-.271,5.44,5.693-.056,5.142.627,3.687-5.3,6.576-5.133-.031-6.169.481-4.1-6.526-.3-5.212-.114-2.969,1.86-3.354,3.253-4.083a12.538,12.538,0,0,0,1.842-4.226l-.278-.895h0c-1.17,2.05-6.151,2.637-11.625,1.551,1.482-3.521,5.977-3.421,10.13-3.947Zm-10.884,4.43c-.186.7-.191.693.653.607.427-.043,2.142-.04,3.34.008,2.2.172,5.669.188,7.407-1.141.337-.322.522-.3.585-.124.148.858-1.54,3.68-1.54,3.68l-2.787,1.545s-1.141.054-2.554.02l-.025,2.514a3.266,3.266,0,0,0,.046,5.627l-.1,2.738,2.693.049c1.786,1.715,3.241,1.707,4.881.092l3.1,0L140.242,172a3.261,3.261,0,0,0,.184-5l-.039-3-2.388.015s-.5-.383-.508-.688a40.44,40.44,0,0,1,2.078-4.051c.434-.627.316-.269,1.01,1.177.994,2.068,1.978,2.911,4.5,4.132a13.68,13.68,0,0,1,3.7,2.223c.519.5.825.34,1.025-.4a6.067,6.067,0,0,0-.6-4.809c-1.912-3.186-5.243-3.333-5.772-4.071-.07-.175.608-.379,1.337-.7a10.326,10.326,0,0,0,3.343-4.024,5.88,5.88,0,0,1,.471-2.178,4.538,4.538,0,0,0,.268-2.31,5.229,5.229,0,0,1,.086-2.345,5.147,5.147,0,0,0-.88-2.81c-.219-1.042-.168-.771.5-3.117.109-.379.865-3.647-.1-3.871.012.029.1.129.128.183a5.567,5.567,0,0,1-.14,3.05c-.755,2.626-.771,2.933-1.461,2.711a16.528,16.528,0,0,1-1.406-1,12.851,12.851,0,0,1,.245-2.451c-.152.415-.254,1.483-.735,1.734-.257.06-.612-.17-1.282-.748-.255-.221-.8-.607-.8-.607s7.785-6.69,10.732-8.908v99.089l-55.917.024c-.7-6.137,1.14-14.257,4.188-22.391,1.884-5.027,4.59-8.756,7.641-13.256,5.85-8.58,10.275-17.292,8.569-28.336a17.452,17.452,0,0,1-.371-2.866,32.121,32.121,0,0,1,5.593-7.082c3.025-2.478,7.235-6.18,7.572-5.961a13.354,13.354,0,0,0,3.77,4.7c.277.3.284.566-.355.7-4.177-.038-8.476.882-9.87,4.587Zm-97.3-28.152a1.083,1.083,0,1,1-1.08,1.083A1.082,1.082,0,0,1,27.251,131.183ZM132,131.428a1.084,1.084,0,1,1-1.08,1.084A1.081,1.081,0,0,1,132,131.428Zm2.353,2.972a1.083,1.083,0,1,1-1.08,1.083A1.081,1.081,0,0,1,134.355,134.4Zm-3.495.461a1.083,1.083,0,1,1-1.08,1.083A1.081,1.081,0,0,1,130.86,134.861ZM127,137.329l1.954-.1a15.07,15.07,0,0,0-.516,2.159l1.591,1.171-6.882,1.174,2.965-6.114Zm-4.695,17.833-11.589-15,1.4-1.134L123.8,153.865Zm-1.415-14.578a1.083,1.083,0,1,1-1.08,1.083A1.081,1.081,0,0,1,120.89,140.584Zm24.342,1.68c.939.733,0,1.76-.9,1.355a.76.76,0,0,1-.107-1.44A.909.909,0,0,1,145.232,142.264Zm1.25.7c.964.015,2.029,2.306,1.833,2.979-.287.783-.551.811-1.911-.342-1.343-1.139-1.363-1.187-.819-1.8.3-.35.446-.812.9-.833Zm-22.923.418a1.085,1.085,0,1,1-1.08,1.083A1.081,1.081,0,0,1,123.559,143.381Zm-3.349.417a1.083,1.083,0,1,1-1.08,1.083A1.081,1.081,0,0,1,120.21,143.8Zm23.724.772c1.066.158,1.345.966.855,1.566-.667.813-2.161.075-1.807-.892a1.016,1.016,0,0,1,.952-.674Zm1.912,1.22c.418-.036,1.047.542,1.734,1.5.774,1.078.836,1.426.617,2.084-.319.959-.519,1.134-1.213.2a20.825,20.825,0,0,0-1.3-1.634c-.925-.972-1.07-.725-.518-1.467C145.419,146.131,145.6,145.811,145.846,145.79Zm-2.5,1.133c.957.5,1.049,1.141.483,1.6a1.649,1.649,0,0,1-2.069-.728C141.422,146.825,142.444,146.334,143.341,146.923Zm1.622,1.428c.542-.035.988.526,1.65,1.6,1.129,1.827,1.19,2.442.229,3.646-.692.866-.762.912-1.44-.468a10.717,10.717,0,0,0-2.579-3.241c-.407-.331-.55-.795-.257-.826.086-.009.446-.026.8-.039a1.2,1.2,0,0,0,.994-.37A.943.943,0,0,1,144.963,148.351Zm-3.888,1.425a2.163,2.163,0,0,1,1.64.814c.549.579.484,1.109-.595,1.215-.485.191-1.808-.678-1.814-1.262A.727.727,0,0,1,141.075,149.776Zm2.542,2.118a.508.508,0,0,1,.078,0c.453.021.687.46,1.2,1.484.781,1.572.555,2.429-.795,3.124-.916.473-1.616.614-1.734.074-.034-.157-.035-.61-.11-1.05a4.659,4.659,0,0,0-.753-1.978c-.825-1.248-.971-1.691-.065-1.323a1.779,1.779,0,0,0,1.55-.117,1.587,1.587,0,0,1,.633-.214Zm-4.581,2.528c-.314-.006-.516.187-.431.7.285.14.736.009,1.076.132.459.166.742.913,1.232.791.051-.63-1.186-1.61-1.877-1.625Zm-93.51,10.964c-2.525-1.206-8.78-4-11.793-4.038-5.588-1.572-5.775-.858-7.734-1.362a20.648,20.648,0,0,1,19.935,5.008C47.121,166.18,46.474,165.839,45.526,165.386Zm6.6,24.515c5.934,10.322,11.466,21.965,20.746,39.206l-.892.279L36.6,229.45c1.752-19.047-8.512-37.194-9.207-36.482,8.017.148,14.671-1.4,16.076-4.364l-1.142-.329C37.657,192.313,30.662,192.5,26,191.25c.106-9.924-.308-20.406,0-30.327a14.129,14.129,0,0,1,12.97,5.654C44.105,173.366,47.588,182,52.13,189.9ZM35.9,162.4c1.419-.109,9.165,3.086,12.63,5.473a19.854,19.854,0,0,1,2.37,2.9c.006.461-.678-.108-4.025-2.022a77.83,77.83,0,0,0-7.719-3.664l-.351-.15a3.93,3.93,0,0,0-.515-.471c-.911-.707-2.681-1.961-2.39-2.069Zm3.765,3.619a57.162,57.162,0,0,1,13.857,7.733,11.138,11.138,0,0,1,1.828,3.1c-.551-1.04-10.3-6.89-13.726-8.23C41.621,168.623,39.666,166.023,39.666,166.023Zm2.736,3.741c.423-.254,11.771,6.462,13.434,8.195a11.84,11.84,0,0,1,2.525,3.951c.006.5-.546.068-1.562-.873a54.014,54.014,0,0,0-12.837-8.5Zm2.106,3.9c5.328,2.261,12.021,7.7,15.4,10.932a6.3,6.3,0,0,1,1.562,2.618c.071.35-.105.327-.175.514-4.378-5.038-14-10.79-15.275-11.239A20.494,20.494,0,0,1,44.508,173.666Zm17.691,15.7c.614.627,1.585,2.825,1.368,3.094-.107.131-.1.062-.353-.117a99.729,99.729,0,0,0-14.6-11.39c-.564-.283-2.454-3.273-2.053-3.33,3.138,1.027,12.115,8.213,15.639,11.743Zm-12.984-7.145a2.93,2.93,0,0,1,.614.32c5.521,3.054,13.525,10.744,15.042,12.592a5.088,5.088,0,0,1,.849,2.255c-.069.5-.27.075-2.5-2.127a80.236,80.236,0,0,0-12.086-9.794c-.841-.58-.68-.654-1.29-1.718s-.854-1.544-.626-1.528Zm35.312.117c3.943.113,5.484,3.106,7.912,8.622a45.666,45.666,0,0,1,2.9,14.379c.006.266-.477.04-.7-.02a7.424,7.424,0,0,0-3.893-.163c-1.119.283-2.182.251-1.033-.5.37-.243,1.373-1.174,1.907-1.507,1.081-.675.424-.666-.648-.137-.813.4-1.356.909-1.691.99-.206.05-.078-.633.121-1.122,1.146-2.827,1.493-4.5-.214-5.026a4.184,4.184,0,0,1-1.379-.857c-.235-.229-.435-1.143-.509-1.18s-.134.833-.132.966a3.206,3.206,0,0,0,1.286,1.878c1.188.854,1.422,1.09.777,3.112-.9,2.833-1.1,3.527-1.263,4.184-.095.379-.28,1.021-.373,1.438a15.509,15.509,0,0,0-.248,4.344c.39,2.982,3.6,4.453,7.9,2.8.407-.159.576-.016.576-.016-3.427,3.5-7.274,5.73-9.516,12.792-2.884-5.826-6.968-10.392-13.758-12.221l-.1-1.217c2.368,1.139,6.96,2.687,9.874.946,1.561-1.068,1.086-1.757-.808-1.02-2.255.877-6.327.775-8.361-.374a1.1,1.1,0,0,0-.955.008c-.106-.685-1.084-3.266-.941-4.237-.084-.135.619-.142.755.039a8.948,8.948,0,0,0,6.387,2.82,5.458,5.458,0,0,0,3.971-1.893c.107-.095.629-.163.7-.243.114-.129.031-.321.027-.39-.032-.1-.224-.386-.35-.7a1.264,1.264,0,0,1-.171-.793c0-.187.127-.285.223-.415a1.088,1.088,0,0,0,.019-.736.45.45,0,0,1-.09-.666c.4-.456-3.456-3.986-4.212-3.978-.272,0-.111.507.443.877,1.961,1.305,3.39,3.01,3.066,3.233-.25.172-1.128-.2-2.022-.416a7.063,7.063,0,0,0-6.285,1c-.874.72-3.185.828-3.185.828-.029-1.262-5.348-15.354-5.358-14.742,1.935-2.262,8.015-7.618,14.108-9.926a13.066,13.066,0,0,1,5.237-.75Zm-23.1,3.155,11.059.171c-2.78,1.4-7.832,6.437-7.832,6.437-1.446-2.916-1.887-4.371-3.227-6.608Zm-9.56,1.462c.824,0,9.6,7.177,10.851,8.87.151.205,1.04,1.146,1.978,2.089,2.27,2.282,3.206,3.6,3.217,4.542,0,.445-.4.155-1.007-.514a64.845,64.845,0,0,0-13.124-11.7c-.638-.343-2.618-2.986-1.946-3.28a.071.071,0,0,1,.031-.008Zm30.027,1.32c-.247-.008-.207.23-.072.449,1.393,1.234,5.07,1.18,6.338.182,1.151-.905-.358-.427-.827-.225a5.614,5.614,0,0,1-3.808.011,13.784,13.784,0,0,0-1.631-.416Zm3.391,2.011c-1.286.012-2.63.4-2.331.872.109.173.461.5,1.3.039,1.213-.6,3.706.188,3.78.207.255.067-.829-.716-1.193-.877A3.98,3.98,0,0,0,85.287,190.286Zm-30.99,1.34c4.717,2.894,10.464,8.685,13.913,12.821a4.2,4.2,0,0,1,.994,2.1c.009.742-.15.331-3.282-2.852a90.274,90.274,0,0,0-8.622-7.8c-1.475-1.078-1.738-1.219-2.432-2.5-.651-1.2-.886-1.795-.571-1.776Zm29.39.966a4.368,4.368,0,0,1-3.21-.062c-1.037-.358-.794-.052-.4,1.083a6.9,6.9,0,0,1,.292,1.355c0,.253,0,.271.734-.14.638-.358.773-.481,2.133-.163,1.383.322,1.405.2,2.055-.137.567-.3.684-.473,1.071-.317a2.891,2.891,0,0,0,2.588-.076,1.094,1.094,0,0,1,1.334.046c.468.237.649.086.466-.381a6.674,6.674,0,0,1-.214-1.239c-.007-.48-.125-.912-.326-.81a4.62,4.62,0,0,1-2.057.76c-1.3-.024-2.441-.807-4.466.081ZM26,193.579c11.758,14.687,9.881,35.861,9.489,35.689L26,229.309Zm30.793,2.968a72.917,72.917,0,0,1,13.384,13.038c.527.688.1.905.361,1.734.1.308-.423-.146-1.915-1.753-1.859-2-4.915-5.012-6.928-6.759a24.594,24.594,0,0,1-3.31-3.042c-.37-.541-1.88-3.142-1.592-3.218ZM83.224,197.9c-.05,0-.1,0-.148,0a1.82,1.82,0,0,0-1.088,3.284c.539.5,1.394.794,1.391.526a1.782,1.782,0,0,0-.458-.479c-1.194-.92-1.071-2.354.287-2.369.471,0,.5.163,1.589.947,1.281.921,2.792.922,2.774,0-.013-.681-.266-1.378-1.41-1.266a3.16,3.16,0,0,1-1.053-.027,3.693,3.693,0,0,1-.758-.351A2.884,2.884,0,0,0,83.224,197.9Zm-23.379,4.324c3.593,2.419,8.531,7.889,11.055,11.114a2.035,2.035,0,0,1,.383,2.042c-.055.089-.5-.187-.5-.187-2.919-3.445-6.228-6.578-9.476-9.759C61.31,205.432,59.38,202.32,59.845,202.222Zm34.831,5.232-.776.387c-1.176-1.768-2.252-1.792-3.153.273l-.577-.145c-.431-.476,1.548-4.968,4.506-.515Zm-.174-1.507c.324.011.89.187,1.022.518a.432.432,0,0,1-.462.635,4.219,4.219,0,0,1-.711-.855C94.193,206.048,94.261,205.94,94.5,205.947Zm-13.195,2.162-.869.041c-1.654-2.18-2.892-.717-3.633.193l-.93-.127c.148-2.394,4.369-3.229,5.432-.107Zm8.452-1.861a1.1,1.1,0,0,1,.38.074,3.243,3.243,0,0,0-.478,1.426c-.337.14-.819.432-1.177.058-.666-.606.359-1.576,1.275-1.558Zm-13.571.244c.41,0,.287-.025.109.2a4.191,4.191,0,0,0-.557,1.017c-.055.258-.1.351-.339.359a10.658,10.658,0,0,1-1.383-.143c-.353-.335,1.109-1.4,2.17-1.437Zm5.255.305c.274-.033.21.359.122.513-.173.2-.242.272-.338.017a1.089,1.089,0,0,0-.178-.294c-.135-.174-.119-.183.048-.213A3.237,3.237,0,0,1,81.443,206.8Zm14.2,1.74c1.012-.026.335,1.695-1.073,2.112a5.274,5.274,0,0,1-5.151-.436c-1.035-.592-1.349-1.216-.447-.967,3.4.938,4.223.765,6.272-.564A.662.662,0,0,1,95.641,208.537Zm-32.688-.372c3.383,2.873,5.929,6.127,8.633,9.126a2.321,2.321,0,0,1,.688,1.749c-.13.543-1.24-.752-1.24-.752.028.013-6.6-7.083-6.6-7.083A20.08,20.08,0,0,1,62.953,208.165Zm10.108.992a9.251,9.251,0,0,1,1.453.311c3.253.989,4.238.953,6.108.092,1.191-.549,1.684-.47,1.174.355-.939,1.518-4.254,1.686-6.742.839a6.84,6.84,0,0,1-1.873-1.095C72.841,209.3,72.759,209.147,73.061,209.157Zm15,1.006a2.846,2.846,0,0,1,1,.462c2.725,1.55,4.737,1.266,6.416.226.3-.277.469-.144.509.125.143.944.186,1.622-.244,2.077a3.339,3.339,0,0,1-1.317.6c-2.639.89-5.851.254-6.466-1.73-.2-1.021-.327-1.732.1-1.759ZM66.438,214.42a.107.107,0,0,1,.031,0c.191.029.631.415,1.325,1.2,3.628,4.126,5.635,6.5,5.268,7.69-.033,0-.056.257-.209.125a24.286,24.286,0,0,1-4.837-5.591C66.686,215.685,66.14,214.446,66.438,214.42Zm29.246,2.9c-3.062,2.347-6.775,7.933-7.108,10.685-.064.526-.008.921-.2,1.111-.154.151-.5.165-.964.074-.284-.052-.216-.084-.283-.405-.263-1.26.94-4.43,3.43-8.166,1.307-1.96,4.275-4.607,5.1-4.625C96.214,216.226,95.677,217.348,95.684,217.323Zm-22.668-1.275a2.9,2.9,0,0,1,1.018.308,18.976,18.976,0,0,1,5.552,3.066c3.314,2.71,7,9.145,5.917,9.747-.475.265-.812.1-1-.5a14.989,14.989,0,0,0-.8-1.775,20.013,20.013,0,0,0-9.185-8.9c-1.5-.735-1.657-.654-1.771-1.27-.086-.462-.006-.666.272-.674Zm22.623,2.365c.276-.023.342.481.248,1.495-.076.826-.125.809-1.044,1.778a14.955,14.955,0,0,0-4.01,6.844.685.685,0,0,1-.213.437c-.378.325-.855.166-1.182.159-.234-.125-.17-.641-.128-.931a20.924,20.924,0,0,1,4.919-8.562c.729-.786,1.167-1.2,1.41-1.22Zm-22.052.074c1.455-.034,6.626,3.84,8.718,7.231,1.368,2.216,1.737,3.125,1.422,3.447a1.713,1.713,0,0,1-1.286.047c-.35-.137-.483-.671-1.138-1.905a15.175,15.175,0,0,0-6.834-6.782,2.878,2.878,0,0,1-.921-.553c-.179-.369-.408-1.408.039-1.485Zm.785,2.879a12,12,0,0,1,2.747,1.667c1.847,1.36,4.66,5.517,4.079,6.113a1.427,1.427,0,0,1-1.164.067,21.944,21.944,0,0,0-5.59-6.194C74.127,222.486,73.388,221.229,74.372,221.366Zm-4.111.623c.086-.021.432.32,1.061.982,1.857,1.955,3.035,4.122,2.762,5.217-.23.925-.5.418-2.626-3.647C70.564,222.83,70.136,222.021,70.261,221.989Zm25.405.055a6.332,6.332,0,0,1-.167,2c-.081.406-.348.595-.6.911a11.778,11.778,0,0,0-1.709,3.253c-.3.889-.161,1.1-1.251.982-.509-.067-.386-.2-.187-.791.687-1.927,2.335-5.048,3.916-6.354Zm-21.1,2.119c.023-.577,4.982,4.429,4.3,4.992-.646.113-1.03.137-1.3-.094a18.081,18.081,0,0,0-2.891-3.448Zm20.83,1.578a.065.065,0,0,1,.031,0,9.555,9.555,0,0,1-.086,3.378,1.774,1.774,0,0,1-1.379,0,.445.445,0,0,1-.2-.577C93.96,227.946,95.035,225.815,95.391,225.741Zm-18.718,3.385c-.156.245-1.121.288-1.485.012a4.59,4.59,0,0,1-.095-1.892C75.463,227,76.8,228.8,76.673,229.126Z" fill="#131f67"/><path id="af13d41d-2b34-4e0e-9912-4a60a2e84dc0" data-name="path3389-2-3-5-0" d="M111.95,20l.621.818-3.632.019c.594.5,14.053,27.662,31.264,59.041,2.849,5.506,8.283,7.492,14.592,7.733L138.081,60.62c1.781-.972,5.315-3.575,7.453-3.092.132.658.767.4.776-.188l.773.015.272.425H150.6l.266-.384,2.8.4c-7.483-9.248-11.43-23.5-10.148-37.411l-24.815.055-.33-.436Zm-3.011.837c-.014-.011-.024-.017-.024,0ZM80.41,38.94c-2.821,9.135-9.8,16.652-13.94,24.22-4.441,8.258-5.485,15.445-4.235,23.3l.812.071A135.26,135.26,0,0,0,83.949,42.9c.09-.332-.064-.917.012-1.252a1.008,1.008,0,0,1,.089-.955c.239-.251.15-1.239-.027-2.871a66.691,66.691,0,0,1,.045-13.049c.311-3.373.294-3.9.294-3.9l-1.621-.025a50.538,50.538,0,0,1-2.331,18.1Zm38.972-17.706,2.663.055c.411,8.16,7.265,9.222,8.325,9.1-1.75,5.518,1.147,11.575,8.124,12.434-1.6,5.116,1.232,11.861,6.814,11.678l.59.374a6.793,6.793,0,0,0-.415,2.275,18.324,18.324,0,0,0-2.72.432C135.549,46.679,119.382,21.234,119.382,21.234Zm23.669,0c-.807,9.116,1.017,21.637,5.287,29.035a3.774,3.774,0,0,1-.225.631c-.407.615-.608.083-.855-.413-.909-1.685-2.627-1.947-3.38-1.009-1.662,2.271.14,3.167,1.539,4.45-5.717-.35-7.622-6.658-6.3-9.779a4.14,4.14,0,0,0,.708,2.13c1.606,2.444,3.953.383,3.28-1.55a10.924,10.924,0,0,0-1.3-2.134,7.391,7.391,0,0,0,1.961-.55,1.6,1.6,0,0,0,.73-1.718,3.48,3.48,0,0,0-.482-1.5,2.3,2.3,0,0,0-1.782-.852c-1.18.078-1.323.892-2.1,1.45-.191-1.466-1.128-2.582-2.657-2.3a1.993,1.993,0,0,0-1.289,3.005c.36.793.866,1.034,1.375,1.721-8.214-.922-7.319-10.7-6.41-10.527,0,0,.247-.046.174.328-.468,2.393,2.5,3.823,3.8,2.084.828-1.41-.951-3.637-.951-3.637a8.078,8.078,0,0,0,1.723-.566c2.145-1.241-.141-4.8-2.137-3.929-.7.32-.879.971-1.562,1.318-.457-.51-.484-1.068-1.3-1.526-2.253-1.257-3.661,1.718-2.414,3.027.511.53,1.414,1.013,1.237,1.078-6.983-.884-6.915-8.212-6.756-8.161ZM83.027,21.3h.961c-.285,4.347-.9,10.083-.5,14.322.47,4.049.491,4.624.2,5.025-.4.447-.187.657-.109,1.021a1.87,1.87,0,0,1,.02,1.051A88.835,88.835,0,0,1,80.3,53.2C75.807,65.622,68.476,79.168,62.726,86.273c0-.025-.262.022-.266,0A36.049,36.049,0,0,1,66,64.7c3.558-6.876,9.147-12.745,12.466-19.948A49.714,49.714,0,0,0,83.027,21.3Zm35.376-.042,23.42,36.519-4.274,2.1L113.581,21.386Zm13.726,7.133a1.1,1.1,0,1,1-1.1,1.1A1.1,1.1,0,0,1,132.129,28.386ZM139.9,40.565a1.114,1.114,0,1,1-1.111,1.114A1.113,1.113,0,0,1,139.9,40.565Zm-55.8,2.174c.4,1.592-7.434,25.476-18.564,40.675l4.86.1.15.538c6.809,10.081,2.551,19-2.947,23.141l1.9,2.544-1.713,1.391-1.713-2.046c-13.935,10.481-41.125,33.679-41.125,33.679l.152,3.721,2.121-1.676c13.793,13.388,43.039,12.655,50.709-14.979l2.055.047c-4.639,20.254-23.516,28.182-37.763,24.824l-3.338,4.807.894.479c-.165-.256-.316-.345-.074-.58l2.836-3.658C63.853,158.484,76.724,146.387,80.9,130l2.72.046a66.706,66.706,0,0,1-17.946,35.37c-6.623-.027-18.268-.179-18.268-.179,4.241,4.119,12.339,16.692,12.662,17.967,0,0,8.33.266,17.266.047,3.275-1.478,7.658-2.071,9.7-1.036,3.6,1.817,6.977,8.561,8.5,19.381a45.48,45.48,0,0,0,.855,4.531c.019.1.263.174.3.156.137-.073-.218.492-.233.911a2.29,2.29,0,0,0,.2,1.27c.252.278.221.461.186.581a4.77,4.77,0,0,1-.509.529c-.072,6.3-.037,12.026-.38,19.779l1.235.008c-.009-12.475,3.745-24.019,9.53-31.965,3.518-5.215,7.239-10.835,9.3-16.187a30.666,30.666,0,0,0,1.394-17.694l-.847.047c-5.088-3.5-7.161-10.963-.893-16.3l-2.219-2.895c-6.259,4.852-7.7,13.8-1.212,21.213l-2.537-.008c-6.327-7.918-4.926-17.01,2.386-23.5l-1.636-2.085,1.778-1.571,1.6,1.761,40.816-34.2-.029-3.742-3.128,2.544c-18.309-16.973-45.459-5.063-49.44,15.381l-2.488.026c5.217-22,24.444-28.217,38.352-25.291l3.432-5.207a20.417,20.417,0,0,1-7.312-4.377,18.219,18.219,0,0,1-2.309-2.187c-6.588-6.98-11.059-16.673-11.269-16.69L102.545,66.4c-2.628,1.3-7.127,2.785-9.6.785-5.3-4.293-7.081-12.954-7.81-18.528-.221-1.735-.408-4.753-.571-5.754a.41.41,0,0,0-.473-.163Zm63.5,9.634a1.089,1.089,0,1,1-1.084,1.09A1.088,1.088,0,0,1,147.6,52.373Zm2.331,1.281a13.286,13.286,0,0,1,2.106,3.581c-.412-.013-.8.115-1.256-.243A5,5,0,0,0,149.5,54.13Zm-3.275,1.609c.362.178.649,1.549.4,1.785-.436.093-.733.061-.88-.091A1.923,1.923,0,0,1,146.652,55.263ZM75.417,67.176l16.629.02c2.893,2.224,5.721,1.929,9.826.147h18.489l1.045,1.9H74.516C74.777,68.538,75.417,67.176,75.417,67.176Zm-1.371,2.973H121.9l1.208,1.952H72.861Zm4.619,2.836h5.37l-1.99,3.386h-5.54Zm11.92,0H95.71l-2.281,3.382H88.351Zm16.574,0L105,76.367h-5.21l2.238-3.351Zm6.426,0h5.133l-1.92,3.382h-5.315Zm-68.937.526c-3.328-.038-2.711,4.387-2.4,4.249-2.089-.48-3.633.515-3.89,2.3a3.068,3.068,0,0,0,3.589,3.153,3.89,3.89,0,0,0,.328,2.707A11.72,11.72,0,0,1,41.045,88.9c-1.512,3.163-1.82,3.313-2.506,1.235-.737-2.234-1.876-3.366-4.845-4.811a18.273,18.273,0,0,1-2.486-1.492c-1.325-1-1.341-.985-1.278,1.048.081,2.64.879,3.8,3.691,5.357a20.627,20.627,0,0,0,4.487,1.835,14.347,14.347,0,0,1,3.4,1.527,8.393,8.393,0,0,0,3.143,1.016,16.1,16.1,0,0,0,7.568-1.531c1.217-.7,1.686-1.334,2.584-3.136a20.849,20.849,0,0,1-4.476-.21c-2.916-.172-4.366,0-6.578,1.149-1.85.963-1.953,1.136-1.181-.456a23.417,23.417,0,0,0,.979-2.446c.323-.852.408-.923,1.216-1.005a3.015,3.015,0,0,0,2.949-2.988,4.887,4.887,0,0,0-.027-.981c1.208.179,3.68-.422,3.6-2.931-.069-2.255-1.673-2.774-3.648-2.929A3.156,3.156,0,0,0,44.648,73.511Zm.04.7c2.916.02,2.848,2.7,1.577,4.227l-1.551-1.28-1.25,1.157C42.1,77.443,42.107,74.193,44.688,74.211Zm79.776.032,1.433,2.124h-2.96ZM70.029,77.294h5.489l-2.2,3.105H68.125S69.287,78.416,70.029,77.294Zm17.3,0-2.074,3.225h-4.8l1.924-3.159Zm6.43,0h4.962l-1.962,3.44h-4.9Zm11.675,0h5.024l-2.044,3.44h-4.954Zm11.38,0h5.175l-2.137,3.44h-4.989Zm-72.059.639,2.468,2.493-2.4,2.415-2.479-2.376Zm6.256,2.428c-.437,2.9-3.22,2.739-4.011,1.323l1.134-1.3-1.391-1.368C48.1,76.846,51.345,78.174,51.015,80.361Zm-8.284-1.386L41.4,80.482l1.463,1.41c-.943,1.314-4.567,1.21-3.84-1.952A2.056,2.056,0,0,1,42.731,78.975Zm84.561-.368,1.527,2.1-2.863.024ZM67.748,81.19l61.39.2,1.643,2.014c-21.434.371-42.422-.345-64.319-.362ZM46.165,82.5c2.432,1.5.636,4.648-1.975,4.112-1.947-.856-2.345-2.88-.594-4.055l1.372,1.133Zm21.051,1.207-1.675.008-1.632,1.913c6.169,6.516,5.942,12.167.2,17.094l2.311,2.595C72.862,99.786,74.291,91.1,67.216,83.706Zm6.336.25C77.01,89.373,80,99.633,69.7,109.033l-1.243-1.512c8.97-8.784,6.862-16.171,2.844-23.5Zm.96.132,13.94.055c-2.984,11.4-5.078,18.118-5.392,35.957l-4.029.024c.438-.411-2.087-10.772-5.032-14.364C80.176,95.244,76.847,89.314,74.512,84.088ZM30.664,84.1a6,6,0,0,1,1.7.892c.868.521,1.995,1.181,2.506,1.468a6.479,6.479,0,0,1,3.411,3.643c.408,1.161.154,1.183-1.018.09a33.553,33.553,0,0,0-4.122-3.109c-.818-.562-1.077-.47-.6.214a8.886,8.886,0,0,0,2.568,1.963c1.081.661,2.568,1.983,2.451,2.178-.106.178-.291.162-.812-.066-.24-.1-1.018-.425-1.725-.713-3.036-1.235-4.332-2.752-4.514-5.275C30.445,84.511,30.391,84.106,30.664,84.1Zm63.616.054a3.742,3.742,0,0,1,.474.787c.117.5-.373.96-1.915,1.648-.53.236-.97.364-.956.674.07.727,1.46,1.837,1.29,2.828-.32.758-2.249,1.5-2.732,2.4,0,.615,1.255,1.556,1.077,2.392-.1.249-.5.5-1.1,1.025-1.224,1.065-1.3,1.228-.851,2.057,1.043,1.926,1.082,1.783-.342,3.151s-1.408,1.362-.722,2.56c.739,1.292.7,1.233-.288,2.061-.972.811-.933.976-.412,1.983.5.974.619.988-.229,1.741-.991.88-1.177.973-.478,2.08.723,1.146.776,1.1-.039,2.034-.771.887-.861.928-.443,1.531.526.758.626.959.074,1.792-.595.9-.592.837-.046,1.675a2.549,2.549,0,0,1,.38,1.492l-1.725,0a4.272,4.272,0,0,0-.213-1.36c-.489-.887-.476-1.162.1-1.948.6-.807.5-.876-.059-1.683s-.481-.808.249-1.737c.669-.853.7-1.255.322-1.742-.9-1.154-.9-1.64.008-2.4.693-.582.757-.841.159-1.838-.585-.976-.658-1.065.416-2.038,1.1-.994,1.086-.973.35-2.1-.714-1.093-.676-1.165.47-2.232s1.175-1.081.416-2.443c-.711-1.274-.717-1.252.672-2.493,1.383-1.155,1.854-1.3.474-2.961-.769-1.315-.222-1.444,1.041-2.1,2.214-1.357,1.206-1.272.276-3.285-.778-1.349-.334-1.359,1.022-2.033A11.579,11.579,0,0,0,92.1,85.14c.907-.507.416-.97.416-.97Zm2.894.031,6.656.086c-7.714,9.877-11.427,22.51-12.759,35.837l-2.514-.039C88.4,109.665,91.665,96.663,97.174,84.189Zm34.174.232c3.806,3.213,6.627,5.052,8.633,5.777,0,0-2.684,4.467-2.89,4.3a32.588,32.588,0,0,0-37.955,25.506l-2.432.016A53.579,53.579,0,0,1,103.3,99.356a57.266,57.266,0,0,1,12.124-14.993Zm-26.563-.165,3.28.058s.615.741.893,1.009c1.415,1.609,1.537,1.289-1.581,3.054-1.97,1.115-2.842,1.633-2.957,2.1-.088.471.86,1.4.972,2.034,0,.07-2.678,1.868-3.163,2.123-.676.328-.71.611-.039,1.78.771,1.344.709,1.3-.956,2.462-1.624,1.137-1.943,1.024-1.251,2.155.961,1.57.509,1.924-1.752,3.147-.571.309-.585.619-.186,1.691.554,1.49.7,1.34-.47,2.147-1.38.952-1.623.979-1.318,1.562.889,1.695,1.241,2.107.055,2.661-.905.422-.924.661-.424,1.78s.633,1.08-.26,1.714c-.828.588-1.315.457-.509,1.418.638.761.581,1.361.062,1.827-.446.19-.654,1.041-.524,1.06l-1.15.031a1.3,1.3,0,0,1,.322-2.033c.147-.281-.033-.479-.4-1.138-.5-.907-.483-1.016.237-1.546s.749-.4.264-1.582c-.564-1.378-.537-1.535.35-2.174s.884-.768.291-1.975c-.626-1.273-.626-1.274.925-2.306,1.091-.727,1.106-.683.528-2.03-.4-.93-.117-1.252,1.368-2.271.848-.583.912-.7.513-1.391-1.1-1.912-1.089-1.97.808-3.2,1.552-1.009,1.539-1.1.94-2.439-.648-1.455-.706-1.343,1.422-2.622,1.752-1.053,1.848-.992,1.127-2.26-.9-1.576-.84-1.318,2.665-3.327,1.263-.867,2.4-.567,1.146-2.045C105.464,85.019,104.785,84.256,104.785,84.256Zm-61.9,2.594c.243-.009.432.291.419.845a6.819,6.819,0,0,1-.765,2.334c-.741,1.583-1.48,2.754-1.869,2.758-.916.01-.891-.2.327-2.583.556-1.089,1.129-2.334,1.22-2.575C42.414,87.107,42.673,86.858,42.887,86.85Zm11.267,3.584c.016,3.351-10.465,5.04-11.01,3.348,1.827-1.434,7.23-.8,8.374-2.08-1.38-.08-3.249.148-4.53.171-1.6.028-4.179.713-4.2,1-.167-.882,2.744-2.537,5.05-2.641C49.988,90.134,52.33,90.39,54.154,90.434Zm.9,5.115S34.613,112.507,24.51,120.712l.062,3.658L56.905,97.828Zm-.066.838,1.306,1.589-30.351,24.8-.109-2.6Zm95.936,8.7-1.091,1.167c-29.644-22.116-56.942,11.464-41.89,35.486a6.093,6.093,0,0,1-1.183,1.077C89.98,114.93,122.081,82.3,150.921,105.088Zm-16.313-4.844a9.692,9.692,0,0,1,6.088,2.75c1.523,1.839,1.08,2.658-.855.923-2.079-1.515-3.8-1.866-.909-.077a4.523,4.523,0,0,1,1.24,1.25c.1.307-.428-.015-2.848-.9a8.08,8.08,0,0,1-3.738-2.918C133.232,100.547,133.727,100.237,134.608,100.244Zm-6.24.05a4.947,4.947,0,0,1,1.325.133,9.1,9.1,0,0,1,3.579,1.546c.54.422.367.726-.261.456a16.536,16.536,0,0,0-3.461-.962c-.6.062,0,.457.866.674,1.917.481,2.868.977,1.5,1a35.475,35.475,0,0,1-4.686.016c-1.42-.168-3.547-1.467-3.058-1.932C124.7,100.719,126.794,100.307,128.368,100.294Zm-6.08,2c2.514.03,3.875.971,1.127,1.161-4.724.75-5.632,1.78-.4.553,1.218-.285,1.195.155.353.569-.689.335-1.549.5-2.265.849a10.2,10.2,0,0,1-5.4.218C114,104.994,119.346,102.258,122.288,102.293Zm20.23.428c1.271.033,3.981,1.88,5.187,3.612.788,1.132.4,1.945-.8,1.036-.239-.182-1.951-1.641-2.044-1.675-.16-.059,1.42,1.446,1.651,1.87.2.359.654,1.183-.2,1.2-1.332-.165-4.46-3.669-4.48-5.4C141.833,102.9,142.1,102.71,142.518,102.721Zm-15.762.986c.529-.017.259.265-.746.974-1.813,1.28-.868,1.024,1.251-.07a8.091,8.091,0,0,1,1.694-.643c.273-.05.6-.125.723-.164.569-.175.13.53-.8,1.274a16.937,16.937,0,0,1-5.672,3.175c-1.938.481-2.348.543-1.632-.67,1.138-1.926,2.8-3.467,4.379-3.767A5.839,5.839,0,0,1,126.756,103.707Zm6.519.031a15.624,15.624,0,0,1,3.377.491c1.1.346.815.42-.509.565-2.491.273-1.454.564.967.522,3.3-.025-1.655,1.194-3.263,1.438a15.165,15.165,0,0,1-4.36-.5c-1.042-.2-.417-.962,1.558-1.909A5.034,5.034,0,0,1,133.275,103.738Zm20.417.448.089,2.135-40,33.535-1.359-1.508Zm-13.61,1.835c1.595-.021,3.9,1.088,3.652,1.757-.092.25-.27.239-1.488-.086-.8-.213-2.23-.438-2.039-.261a11.074,11.074,0,0,0,1.608.593c1.409.339,3.1,1.138,2.724,1.375-.653.4-1.251.087-2.025,0-1.934-.27-5.11-1.249-5.633-1.738C136.288,107.11,138.366,106.044,140.082,106.021Zm-18.656.125c.287.015.395.283.12.65a12.869,12.869,0,0,0-.983,1.691,10.248,10.248,0,0,1-3.465,3.693c-1.286.8-1.469.665-1.356-1.005a5.711,5.711,0,0,1,3.131-4.414c.808-.114,1.271-.328.424.69-1.5,1.805-.475,1.621.928-.429C120.671,106.371,121.138,106.131,121.426,106.146Zm-5.2.241c.867,0,1.158.3.047.826a17.225,17.225,0,0,0-3.213,2.135c-.088.275.7-.156,2.008-.873,1.749-.957,1.9-.934,1.057.16A12.205,12.205,0,0,1,111.068,112c-2.526.694-2.465.209-1.053-1.671,1.346-2.044,2.488-3.019,4.211-3.576A7.017,7.017,0,0,1,116.231,106.387Zm-42.846.312c9.166,15.85,4.078,31.955-6.556,40.168-11.117,8.586-28.414,8.076-38.62-2.229l1.415-1.34c-.007.006,16.09,16.444,36.363,1.853,10.288-7.405,14.538-24.891,6.05-37.081Zm-41.058.035a.127.127,0,0,0-.07.016,20.041,20.041,0,0,0-1.706,5.045,1.269,1.269,0,0,0,.373,1.157c.239.234.627.082.746.035.775-.352,1.2-.891,1.881-2.6a4.545,4.545,0,0,0,.427-2.442,1.636,1.636,0,0,0-.6-.737A2.837,2.837,0,0,0,32.327,106.734Zm.179.713a1.7,1.7,0,0,1,1.181,1.021c.006.743-.418,1.979-.735,1.8-.529-.66-1.138-.244-1.239-.483a5,5,0,0,1,.723-2.326A.259.259,0,0,1,32.506,107.447Zm98.994.592a16.642,16.642,0,0,1,11.1,3.841l-1.589,1.461a17.341,17.341,0,0,0-19.92-.163c-4.766,3.331-8.985,10.7-4.852,21.091l-1.492,1.356a18.7,18.7,0,0,1,6.049-24.617,20.194,20.194,0,0,1,10.3-2.965C131.235,108.041,131.368,108.039,131.5,108.039Zm-60.271,1.22c.124,0,.312.406.292.9-.024.6-.277,1.378-.68,1.543-.455.186-.742-1.173-.742-1.173A5.24,5.24,0,0,1,71.229,109.259Zm72.972.467a2.693,2.693,0,0,1,.466.016c.455.056.459.465.031.857-.462.423-.7.446-1.17.1-.416-.3-.437-.528-.077-.787A1.619,1.619,0,0,1,144.2,109.726Zm-78.279.094,1.352,1.671-4.685,3.779-.56.043L26.161,145.1l-.008-2.646Zm74.943,4.032-4.885,4.042c-9.764-5.087-17.593,3.977-14.831,12.21l-4.225,3.676c-7.556-20.792,14.543-27.907,23.941-19.928Zm-25.578-3.175a.089.089,0,0,1,.043,0,.221.221,0,0,1,.1.062,10.5,10.5,0,0,1-.424,3.436,1.554,1.554,0,0,0-.163.534,21.857,21.857,0,0,1-1.6,3.366,8.073,8.073,0,0,0-.63,1.375c-.566,2.73-1.787-1.66-1.356-4.208.2-1.2,1.9-3.669,2.39-3.486.25.093.232.282-.206,1.239-1.224,2.669-1.531,4.046-.245,1.464C114.672,111.484,115.057,110.719,115.287,110.677Zm-82.983.054a.443.443,0,0,1,.4.323,1.2,1.2,0,0,1,.011.741,1.4,1.4,0,0,1-1.293.9.58.58,0,0,1-.513-.468,1.139,1.139,0,0,1,.311-.9,1.635,1.635,0,0,1,1.08-.6Zm37.188.172c.579.028,1.189,1.589.8,2.3-.318.584-.377.475-.933-.655a12.8,12.8,0,0,1-.516-1.231l.474-.374a.338.338,0,0,1,.12-.039A.332.332,0,0,1,69.492,110.9Zm-.975.658a7.841,7.841,0,0,1,.758,1.987c.091.538.076.437-.513.214a2.734,2.734,0,0,1-.855-.822,5.59,5.59,0,0,0-.38-.584Zm3.66.238c.308-.011.638.3.94,1.063,1.136,2.863,1.031,6.076-.244,7.593-.212.251-.263.262-.517.105a2.894,2.894,0,0,1-.027-1.874,6,6,0,0,0,.264-1.406c.033-1.1-.268-1.238-.412-.218-.167,1.178-.348,2-.668,1.293a10.159,10.159,0,0,1-.365-1.1C70.509,114.777,71.254,111.83,72.177,111.8Zm-4.946.732s1.093,1.415,1.543,1.921c.159.273.152.343-.1.44-.433.166-1.879-.8-2.452-1.1-.309-.247-.175-.436-.175-.436A13.252,13.252,0,0,1,67.231,112.531Zm43.1.051c.583-.007.583.2-.039,1.094-3.475,5.013-2.774,4.269-.564,1.527,1.23-1.524,1.443-1.669,1.578-1.328a18.3,18.3,0,0,1-2.118,4.3,8.933,8.933,0,0,1-2.4,1.827c-1.652.839-1.469.5-.858-1.578C106.7,115.2,108.66,112.6,110.326,112.582Zm-45.134,1.733c9.526,23.755-16.561,34.182-28.331,23.2l1.371-1.095c16.374,11.135,32.534-6.7,25.137-20.663C63.369,115.753,64.04,115.194,65.192,114.315Zm2.206.577c1.569.161,3.885,3.037,4,4.64.248,1.138-.073,1.333-.629.533-.94-1.74-.827-.637-.027,1.091.424.873.523,1.919.081,1.975-.6-.122-1.909-2.209-2.308-3.069a10.082,10.082,0,0,1-1.542-4.36C66.877,115.179,67.013,114.9,67.4,114.892Zm-4.74.779c7.257,13.954-8.354,30.721-24.231,19.884l4.759-3.787c8.287,3.986,17.532-.958,14.884-12.416Zm72.394,2.6L121.961,129.21C119.267,120.144,129.158,114.966,135.052,118.273Zm-24.314-.023c.427-.089.79,2.656.87,6.51.077,3.769.174,4.142-1,2.754a11.134,11.134,0,0,1-1.36-1.613c-.776-1.471-.529-3.012-.314-5.166.2-2.009.917-1.695.8.41-.075,1.353-.061,3.037.152,3.034.076,0,.1-.131.05-.315a33.74,33.74,0,0,1,.552-5.263C110.575,118.379,110.658,118.267,110.738,118.25ZM74.66,119.91c.945.371,1.214,3.535.19,6.595a4.393,4.393,0,0,1-2.125,2.7c-.72.378-.888.258-.563-.4a10.9,10.9,0,0,0,1.157-3.576c.1-1.354-.615-.267-.555.312-.558,2.525-1.292,2.905-1.2.245a6.477,6.477,0,0,1,1.247-4.149C73.277,120.965,73.773,120.036,74.66,119.91Zm32.833.319c.389,0,.485.527.136,1.547-.241.706-1.063,3-.967,2.988.06,0,.943-2.064,1.123-2.4.3-.552.405-.656.664-.631a9.981,9.981,0,0,1-.132,3.338c-.535,2.744-2.4,5.577-3.112,4.734-1.163-1.374-.618-6.938.925-8.629C106.711,120.539,107.191,120.226,107.493,120.229Zm-49.858.421c1.406,9.7-6.579,13.846-13.478,10.92C44.3,131.533,57.635,120.65,57.635,120.65Zm32.643.179,1.391,1.831,2.549.132-1.306,1.929,1.3,2.47-2.844.054-1.636,1.886-1.422-1.7-2.486-.132,1.449-2.318L86.1,122.761l2.684-.128Zm-21.388.834a7.173,7.173,0,0,1,2.048,2.847c.475,1.853.3,5.357-.365,5.236-.721-2.524-.441-3.827-.7-3.537-.448.464.278,4.333.039,5.287-.114.243-.5-.05-.932-.674-1.157-1.668-1-8.19-.117-9.152A.05.05,0,0,1,68.89,121.663ZM154,125.6l-31.455,26.127,1.815,2.342,29.7-24.585Zm-45.43.45c.138-.028.452.193,1.042.842a16.43,16.43,0,0,1,2.517,4.78,16.575,16.575,0,0,0,.54,1.687c.221.533.239.68.109.841-.545.674-2.824-1.022-3.559-2.645-1.032-2.28-1.058-4.334-.023-2.333.377.727.844,1.788.839,1.367a13.416,13.416,0,0,0-.808-2.33C109.013,127.826,108.222,126.117,108.573,126.045Zm45.1.635.066,2.163-29.294,24.566-1.15-1.4S150.883,129,153.669,126.68Zm-45.737,1.337c.138.014.209.211.167.65-.134,1.428-.484,4.538-.411,4.812.044.164.463-2.059.559-2.455.5-2.06,1.266,2.865.8,5.072-.072.348-.219.907-.3,1.251a5.032,5.032,0,0,1-.42,1.087c-.829,1.309-2.779-3.9-2.451-6.557C106.089,130.224,107.441,127.967,107.932,128.017Zm-33.89,1.141c.383-.02.457.357.392,1.149-.221,2.718-2.023,5.572-4,6.331s-2.149.6-.983-.806c.884-1.07,1.419-2.193,1.27-2.338-.082-.08-.279.369-1,1.29-.9,1.154-1.045.177-.229-1.52a6.9,6.9,0,0,1,2.689-3.128A5.124,5.124,0,0,1,74.042,129.158Zm17.814.826a86.35,86.35,0,0,1-8.925,35.471l-5.249.012c6.427-9.493,10.53-21.247,11.672-35.432Zm2.307.012a9.822,9.822,0,0,1,1.108,1.371c.353.609.451,1.141-.191,1.6-.745.632-1.055.4.16,1.964.64.825.432.96-.362,1.655-.819.718-.866.756-.105,1.726.815,1.038.962,1.2-.1,2-.957.722-.969.891-.221,2.065.688,1.08.9,1.07-.424,2.189-1.128.956-1.154.691-.066,2.45.4.648.373.69-.361,1.341-1.8,1.6-1.709,1.5-1.453,1.92,1.976,2.84,1.083,2.759-.851,4.114-.39.335-.29.712.583,2.131.741,1.206.634,1.467-1.1,2.665-1.808,1.247-1.867,1.415-.963,2.688.891,1.253.91,1.168-.536,2.462-.653.584-1.189,1.122-1.189,1.122h-3.2s.676-.62,1.138-.962c2.632-1.954,2.622-1.747,1.511-3.156-.982-1.246-.887-1.328.109-2.041.716-.513,1.681-1.042,2.405-1.566.39-.278.1-.51-.548-1.742-.727-1.38-.767-1.22.587-2.337,1.482-1.223,1.507-1.178.7-2.727s-.819-1.419.2-2.252c1.513-1.238,1.585-1.172.789-2.606-.635-1.144-.641-1.112.431-2.186s.947-1.015.307-2.006c-.65-1.008-.616-1.144.241-1.909.924-.825.793-.774.027-1.827s-.743-.96.175-1.765c.483-.423.968-.853.94-1.052a6.043,6.043,0,0,0-1.029-1.94c-.18-.267.179-.349.753-.947s.558-.455.117-1.262c-.239-.436-.692-1.172-.692-1.172Zm-8.59.027.913.023a4.967,4.967,0,0,0,.369.425c.587.6.613.952.024,1.274-.566.309-.349.742.124,1.437.5.739.5.654-.221,1.38-.742.6-1.125.775-.307,1.92.465.531.407,1.079-.315,1.555-.555.365-1.477.669-.5,2.06.474.992.511.929-.478,1.633-1.317.937-1.564.774-.96,2.139.673,1.518.739,1.541-.641,2.559-1.6,1.183-1.658,1.279-.99,2.7s.69,1.067-1.007,2.392c-1.243.971-1.526,1.024-1.158,1.827.69,1.5.983,1.908-1.029,2.941-2.323,1.194-2.44,1.283-1.325,3.058.907,1.445.706,1.24-.793,2.1-2.165,1.25-3.122,1.794-3.189,2.182-.044.439,1.69,1.745,1.69,1.745l-3.023.082s-1.271-1.034-1.764-1.516c-1.367-1.334-1.382-.9,3.163-3.108,2.508-1.221,2.3-.944,1.888-1.656-1.209-2.1-1.251-2.322,1.018-3.467,1.972-1,1.633-1.067,1.154-2.571-.418-1.312-.351-1.191.688-1.964,2.511-1.868,2.443-1.675,2.051-2.591-.386-.9-.682-1.32-.393-1.764.906-1.3,2.831-1.579,2.044-3.129-.367-1-.5-1.223.61-2.088,1-.834,1-.733.365-1.835-.779-1.011-.667-1.177.474-1.971.813-.745.8-.726.346-1.453-.629-1-.6-1.034.3-1.823.732-.643.859-.678.393-1.387-.619-.941-.517-1.148.3-1.609.5-.283.5-.4.454-.877a5.242,5.242,0,0,0-.268-.623Zm11.337.055,4.208.011a34.737,34.737,0,0,0,5.047,13.511c-5.321,8.564-4.111,15.677-.863,21.972l-13.326-.051A117.458,117.458,0,0,0,96.91,130.078Zm-28.882.031c.154-.011.263.239.524.685.843,1.441.247,3.485-.987,5.626-.923,1.6-1.09.378-.668-1.929.266-1.454-.465.725-.812,2.482-.188.952-.643,1.721-1.138,1.675-.466-.076-.322-1.41-.307-1.706.105-2.1.887-3.592,2.405-5.68C67.62,130.471,67.852,130.121,68.028,130.109Zm42.954,4.114a1.64,1.64,0,0,1,.824.272c.268.155.75.447,1.084.631,1.167.645,1.261.841.707,1.489-.686.8-1.125.5-2.312-.838C110.485,134.877,110.471,134.246,110.982,134.223Zm-.388,1.76a1.709,1.709,0,0,1,.956.643c.768.882.675,1.627-.175,1.414-.348-.509-.527-1.284-.859-1.858C110.441,136.052,110.481,135.981,110.594,135.983Zm37.585.113a2.937,2.937,0,0,0-2.23,1.991c-.724,3.061-.723,2.928-.074,3.374.191.131.334.226.427.284.381.3.9.767.968.674.618,0,1.558-3.917,1.527-4.725.039-.853.068-.957-.144-1.344A.5.5,0,0,0,148.179,136.1Zm-38.156.067a.247.247,0,0,1,.186.078,5.854,5.854,0,0,1,.933,1.983,1.243,1.243,0,0,1-.125.49c-.422.813-1.078.025-1.146-1.375-.038-.787,0-1.148.152-1.176Zm38.039.6a.736.736,0,0,1,.094,0c.5.022.422.541-.272,1.293-.366.4-1.119.583-1.368.339-.362-.355.386-1.331,1.2-1.566A1.517,1.517,0,0,1,148.062,136.767Zm-84.514.428c.028,0,.054,0,.082,0a.917.917,0,0,1,.652.335,1.782,1.782,0,0,1,.035,1.586c-.395,1.4-3.009,4.107-3.947,4.118-.558-.1,1.776-3.072,1.849-3.573-.173-.17-1.62,1.5-2.3,2.669a6.08,6.08,0,0,1-.843,1.289c-.487.057-1.049.368-1.053.039.081-1.486,2.982-4.724,3.971-5.625a2.534,2.534,0,0,1,1.554-.838Zm7,.14c2.242-.025-2.172,4.894-5.027,5.6a5.948,5.948,0,0,1-2.646.094c-.117-.185.015-.336.381-.433a15.393,15.393,0,0,0,3.5-2.236c0-.275-1.208.182-2.238.85-.666.432-.979.343-.617-.18a7.908,7.908,0,0,1,6.643-3.7Zm38.8.008c.127.011.254.264.334.83.407,1.054.427,1.342.042,1.652-.657.53-.819.382-.812-.838.007-1,.223-1.661.436-1.644Zm-73.846,1.4s.818.307.478.7c-.236.271-1.242.04-1.243-.039Zm112.612.031c.267-.018.273.229.132.853a5.993,5.993,0,0,1-.967,2.528,3.646,3.646,0,0,1-1.123-.677c-.1-.106-.427-.348-.47-.507a1.6,1.6,0,0,1,.4-1.535,1.17,1.17,0,0,1,.629-.206,3.4,3.4,0,0,0,.859-.281A1.818,1.818,0,0,1,148.113,138.773ZM35.789,139.961a5.547,5.547,0,0,1,1.76.246A23.066,23.066,0,0,1,42.7,142.5c.68.651-1.093,1.344-3.224,1.368-1.13.012-1.343-.223-2.906-1.161-.2-.133-1.112-.732-.847-.951.289-.3,1.162.085,2.249.639.355.181,1.218.129,1.216-.031a17.3,17.3,0,0,0-3.8-1.516c-1.068-.34-1.043-.683-.388-.829a5.657,5.657,0,0,1,.789-.055Zm-2.137.744s.45.4,1.033.838a7.683,7.683,0,0,1,1.881,1.842c.74.905,1.91,3.157,1.779,3.565-.3.935-3.424-.7-5.979-3.268a18.288,18.288,0,0,1-1.317-1.454l.975-.884s.856.718,1.845,1.593c1.856,1.642,1.843,1.078-.023-.65-.528-.489-1.014-.927-1.014-.927C32.857,141.046,33.152,140.769,33.652,140.705Zm76.332.078s1,1.038,1.367,1.516c-6.08,5.96-8.4,14.287-2.533,23.156L106,165.443c-5.275-10.41-2.774-18.248,3.983-24.66Zm-51.428.246c.378-.018.034.429-.637,1.573-1.253,2.138-1.5,2.678-3.536,3.211a9.474,9.474,0,0,1-1.577.066c-.875.11-.486,0,.854-.873,1.858-1.208.28-.587-1.437.3-.995.514-2.038.488-2.129.222-.05-.146.4-.532.7-.795,2.616-2.344,3.418-2.246,5.851-3.093A12.309,12.309,0,0,1,58.556,141.029Zm-10.933,2.138a12.4,12.4,0,0,1,2.615.277c.52.118,1.366.222.652.869a8.857,8.857,0,0,1-4.608,1.874c-.226.008-3.554-.228-2.844-.943a8.119,8.119,0,0,1,.983-.133c1.844-.349,1.345-.647-.924-.526-2.842.152-2.972-.142-.82-.732a18.8,18.8,0,0,1,4.538-.682c.138,0,.273,0,.408,0Zm15.183.218c1.265-.012,2.248.214,2.254.7.008.784-2.387,2.5-3.959,2.844-.371.08-.9.2-1.17.257a21.123,21.123,0,0,1-3.881-.09c-1.422-.518-.433-.721,2.175-1.024,1.136-.132,1.677-.431,1.675-.647a4.7,4.7,0,0,0-2.082.023c-1.391.177-1.118-.234.613-1.133A10.738,10.738,0,0,1,62.806,143.385ZM39.4,144.472a5.57,5.57,0,0,1,1.313.448c1.514.442,3.595.942,5.02,2.5,1.15,1.117,1.43,1.477,1.189,1.869-.293.476-3.863.114-5.366-.529a7.135,7.135,0,0,1-2.716-2.127c-1.309-1.912-.758-2.416.906-1.08,2,1.611,2.3,1.776,2.657,1.7.143-.03-.21-.36-.882-.861-1.688-1.258-2.51-1.934-2.121-1.925Zm12.351,2.053a6.586,6.586,0,0,1,3.671.877c2.04.721,1.546,1.362-2.074,2.267a6.668,6.668,0,0,1-4.962-.689c-2.917-1.8-2.725-2.16.533-1.356,1.07.264,2.137.314,2.2.113.051-.154-1.244-.484-2.3-.834-1.139-.378-.16-.346,2.118-.37.3,0,.568-.008.808-.007Zm83.956,7.778s-.373.177-.537.267a13.911,13.911,0,0,1-2.242.281,15.8,15.8,0,0,0-4.959,1.044,8.089,8.089,0,0,0-3.325,3.28c1.49-.1,9.92,1.427,12.259-1.619.49-.637-1.257,4.813-2.153,5.055-2.222-.267-3.157,3.229-2.935,3.081-2.241.871-3.978,1.382-3.409,3.99.249,1.137,1.4,2.488,3.834,2.149-.663,4.522,4.856,5.692,5.464.241,0,0,1.076-.206,1.491-.255,2.516-.6,3.126-4.285-.568-5.454-1.024-.305-1.082-.5-1.082-.5a3.369,3.369,0,0,0-.455-2.675c.815-1.946,2.843-5.7,2.843-5.7Zm.39,1.125c.508.68-2.14,1.805-4.96,2.048a17.351,17.351,0,0,0-2.059.246c-.3.533,5.452.146,7.245-.861.615-.345.67-.042.4.49-2.082,2.684-7.107,2.023-11.036,1.551-.225-.226-.034-.5.847-1.219a8.439,8.439,0,0,1,5.326-2.014C132.573,155.646,135.774,155.042,136.1,155.428Zm3.113,2.777a49.889,49.889,0,0,1-2.253,4.679c-.233.233-1.061.4-1-.495.01-.957,1.8-4.9,2.281-4.979A.845.845,0,0,1,139.208,158.205Zm1.2.269c.554,4.044,3.615,5.005,6.551,6.28.773.355,1.428.986,2.2,1.394,1.451-1.984-.184-5.838-2.739-7.094-1.9-.888-3.628-1.595-4.7-1.515-.619.046-1.309.444-1.318.935Zm1.57-.242a11.8,11.8,0,0,1,2.514.55,6.514,6.514,0,0,1,4.891,5.126c.02.1.152,2.057-.294,1.987-.674-.194-1.037-.875-2.118-1.328a16.078,16.078,0,0,1-4.406-2.369A4.563,4.563,0,0,1,141,159.635c-.116-.819.157-.9.843-.242,1.536,1.225,3.051,1.645,4.569,2.828.422.329,1.937,1.171.9.123a19.153,19.153,0,0,0-3.858-2.476c-1.523-.733-2.35-1.626-1.477-1.636ZM25.384,162.268l17.355,27.2c-4.271,2.26-6.377,3.249-13.47,2.692l.027.359-3.013-.176c5.2,8.147,11.63,18.777,9.807,37.32l21.141-.022s.33.315.362.336c.309.21.773-.368.773-.368l9.536-.051.258.309,4.447-.031s-20.332-38.149-30.544-57.092c-4.195-7.6-8.564-10.975-16.679-10.48Zm109.438.9a2.178,2.178,0,0,1,2.28,2.283,4.759,4.759,0,0,1-.664,1.9l-1.549-1.48-1.48,1.486a2.562,2.562,0,0,1-.922-2.409,2.737,2.737,0,0,1,2.335-1.783Zm-17.95.542c1.469,5.74,3.056,13.654-9.682,31.945-7.533,10.818-10,21.024-10.3,33.48l-.762,0c.36-6.836.408-19.229.408-19.229l.711-.636a4.3,4.3,0,0,1-.466-1.145c-.24-1.042-.038-.695.583-3.494,2.6-13.521,19.507-40.925,19.507-40.925Zm-68.014,2.633,64.553.3-.859,1.7-62.466-.448Zm86.045.491,2.4,2.341-2.342,2.638-2.467-2.587Zm-1.966,1-1.308,1.395,1.134,1.2c-1.167,2.457-4.273.54-4.169-1.3.122-2.151,2.628-3.032,4.343-1.292Zm4.143,2.772,1.041-1.328-1.177-1.294c1.928-1.909,3.751-.228,3.927,1.365C141.059,171.042,138.419,172.958,137.08,170.6Zm-76.453-1.624,5.287.05-1.966,3.69-5.361-.024ZM72.406,169h4.857l-2.052,3.74H70.3Zm11.469,0h5.152l-2.09,3.74H81.645Zm11.532,0h5.272l-1.919,3.74H93.289Zm11.745,0h5.081l-2.059,3.74h-5.229Zm-56.118.019h3.415l-1.395,2.463Zm85.154,2.36a2.342,2.342,0,0,1-1.44,4.2,2.392,2.392,0,0,1-1.236-4.286l1.468,1.345Zm-71.836,1.988h4.966l-1.869,3.366H62.585Zm11.038.027h5.447l-1.919,3.366H73.735Zm11.663,0h5.42l-1.767,3.366H85.231Zm11.621,0h5.377l-1.674,3.366H96.693Zm-44.345.129h3.426l-1.46,2.7Zm2.583,3.9,50.317.448-.855,1.636-48.183.007Zm1.768,2.929,47.151.117-1.084,2.263-16.291-.074c-3.179-2.379-6.812-1.279-10.956.074,0,0-12.471.131-17.375,0ZM43,189.951,67.868,229.31l-5.5-.062L38.757,192.223Zm-4.984,2.564L61.493,229.3c-1.078-.025-2.078.041-3.155.025a9.376,9.376,0,0,0-8.317-10.255c1.944-8.035-3.9-11.415-7.8-12.053,1.58-10.442-7.04-11.922-7.165-11.817a9.518,9.518,0,0,0-.234-2.191l3.188-.5Zm-3.8.583c-.05.221.442,2.3-.485,1.918L33.66,193.1Zm-4.942.053c.335,1.383,1.044,1.658,2.007,2.586,0,0-1.232.209-1.517.012a12.029,12.029,0,0,1-1.581-2.609Zm3.672,2.34a1.082,1.082,0,1,1-1.076,1.083A1.08,1.08,0,0,1,32.941,195.491Zm2.133.832c3.088-.2,7.567,3.119,6.386,9.334a10.28,10.28,0,0,0-.95-2.067c-2.129-2.879-4.635,1.066-2.946,2.676.828.79,1.216,1.1,1.127,1.172a2.254,2.254,0,0,0-2.553,3.2c1.32,2.428,3.154,1.142,4.216-.3,0,0,.654,2.172,1.3,2.449a2.233,2.233,0,0,0,2.835-1.319c.7-1.793-1-2.253-1.368-3.251,3.572.116,8.124,5.352,6.053,9.892a2.452,2.452,0,0,0-2.986-2.755c-1.074.376-1.449,1.946-.582,3.561a5.742,5.742,0,0,0,.428.709,5.162,5.162,0,0,0-1.175.274c-2.791,1.723.807,6.424,2.884,3.485a6.707,6.707,0,0,1,.559-.749c.343.655.448,1.577,1.074,1.892,2.571,1.3,3.717-1.441,2.637-2.784-.609-.757-1.3-1.63-1.3-1.63-.108-.483,7.706,1.571,6.755,9.194l-20.716-.029c1.921-11.709-2.729-25.1-5.1-29.187l1.028-1.36c.258.506.686,1.779,1.442,2.023,2.4.776,3.135-.909,2.813-2.64-.172-.921-1.459-1.663-1.868-1.8Zm5.486,11.019a1.027,1.027,0,1,1-1.026,1.029A1.025,1.025,0,0,1,40.56,207.342Zm7.774,12.2a1.036,1.036,0,1,1-1.034,1.036A1.035,1.035,0,0,1,48.334,219.54Z"/></g></g><path id="3c26a3d3-f020-4c7d-b1e1-45aeea7045cb" data-name="path147-0-8-1-3-6-7-5-8" d="M131.2,223.79c7.855-.171,11.377-9,5.56-15.862-.844-1-.931-1.574.614-.613,3.917,2.615,11.427.9,11.811-7.1.475-9.853-13.31-12.692-15.9-2.215-.136,1.106-1.036,1.081-.819-.489a32.558,32.558,0,0,1,3.4-12.12h-9.338a32.577,32.577,0,0,1,3.4,12.12c.217,1.57-.682,1.595-.819.489-2.588-10.477-16.373-7.638-15.9,2.215.385,8,7.9,9.716,11.811,7.1,1.545-.961,1.458-.387.614.613-5.817,6.859-2.3,15.691,5.56,15.862,0,0,0,0,.008,0Z"/><path id="80d9b70d-1264-4095-8755-b0cb39f83044" data-name="path147-0-8-1-0-3-83-6-6-4" d="M48.378,26.653c7.855.17,11.377,9,5.559,15.861-.843,1-.93,1.575.615.614,3.916-2.616,11.426-.9,11.811,7.1.475,9.853-13.31,12.692-15.9,2.215-.137-1.106-1.036-1.08-.819.489a32.563,32.563,0,0,0,3.4,12.121H43.706a32.582,32.582,0,0,0,3.4-12.121c.217-1.569-.683-1.594-.819-.489-2.588,10.477-16.373,7.638-15.9-2.215.384-8,7.894-9.716,11.811-7.1,1.545.961,1.458.386.614-.614-5.817-6.859-2.295-15.691,5.56-15.861h.006Z"/></g><rect id="da89956d-d2dc-4e88-9e91-a037b740eebd" data-name="rect17710" x="0.496" y="0.496" width="178.583" height="249.449" rx="8.504" ry="8.504" opacity="0.08" fill="url(#468a0d74-77bb-410d-9cae-36af4fbb20cb)" style="isolation:isolate"/></g></g></g></svg>