<svg xmlns="http://www.w3.org/2000/svg" xmlns:xlink="http://www.w3.org/1999/xlink" viewBox="0 0 179.579 250.446"><defs><pattern id="915a8324-e31d-4926-a7b7-3c78dfbbaf89" data-name="pattern17608" width="595.276" height="841.89" patternTransform="matrix(0.8, 0, 0, -0.8, -615.4, 967.046)" patternUnits="userSpaceOnUse" viewBox="0 0 595.276 841.89"><rect width="595.276" height="841.89" fill="none"/></pattern></defs><title>QD</title><g id="f84465b3-93f4-4d1d-8928-1472711ef11f" data-name="Layer 2"><g id="4a51a47d-6c75-46db-b372-6b2f6e0ebeed" data-name="Diamonds"><g id="c6e9662f-d582-4b4e-9d93-3fdd3d364574" data-name="QD"><g id="7f69f825-029f-4552-a23d-9ddb1afa049b" data-name="g101333"><rect id="56b42dca-b69c-4b6d-a2dc-eb3d3e8d892a" data-name="rect6242" x="0.498" y="0.498" width="178.583" height="249.449" rx="8.504" ry="8.504" fill="#fff" stroke="#b3b0b0" stroke-width="0.997"/><path id="3ed0711c-36f8-44c1-a2a1-7c8e32858fea" data-name="path6307-8" d="M112.858,21.532s20.283,29.39,27.162,34.607c.506.238,8.987-1.386,8.987-1.386-4.347-10.432-7.143-21.225-4.323-33.325Zm11.27,46.482c-13.983,3.956-27.94,7.677-43.1,1.228L64.475,85.275c-.138.414,20,9.134,20.338,8.114-9.872,26.634,5.52,31.47,15.319,2.172,12.827-1.683,28.215-3.427,40.934-12.278A60.472,60.472,0,0,1,124.128,68.014Zm-84.1,4.741c-5.3-3.26-9.442,3.45-5.561,6.8-.457,1.957-.611,4.871,1.278,6.15,1.735,1.1,4.973-.04,5.44-.028.034,0,.084,3.523-.186,3.514-.5-.017-2.4-1.636-3.566-1.987-3.95-1.187-9.506-1.773-9.407-1.568.164.342-.984,1.154,3.423,3.929,1.638,1.03,6.811-.13,10.93,1.172,2.51.794,4.765,2.06,6.128,1.4,3.594-.984,5-5.691,4.752-5.657-.12-.142-10.867,2.772-9.856,3.284l-.033-4.087c4.239.468,8.065-2.612,3.9-7.892,3.1-3.091-1.237-10.459-7.241-5.033Zm17.66,18.691C47.259,101.981,25.95,121.752,25.95,121.752l.228,14.755L47,155.182c1.649-19.824,12.887-38.326,23.587-47.582C71.566,104.785,59.95,92.433,57.684,91.446ZM131.96,95.09c-1.571,12.19-3,28.813-23.627,47.291,3.574,6.1,8.124,12.314,14.672,15.279.465,1.048,18.927-19.151,30.284-28.7l-.06-12.937ZM38.986,97.707c-.043.265-.8,3.467-1,3.382.016.175,2.113-.78,2.35-1.658.208-.77.689-1.813.72-1.961C40.582,94.174,39.688,96.515,38.986,97.707Zm-7.722,8.522a17.6,17.6,0,0,0-1.192,7.315c3.693,1.854,4.7-5.855,3.7-6.592a9.711,9.711,0,0,0-2.512-.723Zm114.059,35.346c-.342,1.537-.27,1.993.413,2.293,1.2.525,1.732-.109,2.692-2.613.572-1.49,1.081-3.733.62-4.624-2.265-1.585-3.462,3.782-3.725,4.944ZM80.731,154.511C65.572,156.918,50.4,158.4,38.367,167.817c1.356-.16,15.946,13.575,16.7,15.507,22.3-10.918,43.951-2.671,43.951-2.671l16.317-15.765c.629-.3-17.747-7.887-21.209-9.166,12.515-33.769-7.3-28.694-13.4-1.211Zm59.668-3.856a12.194,12.194,0,0,0-2.262,2.567l.779,1.261,2-2.205ZM126.12,164.864c2.1-.951,9.559-4.575,9.879-3.737l-.158,3.628c-1.141-.374-8.505.846-4.246,8.466-2.682,6.053,3.295,9.175,7.482,5.173,8.774,3.017,7.6-5.784,5.789-7.206,1.427-2.222-.366-6.953-1.259-6.97,0,0,7.657,1.731,6.909.364a6.574,6.574,0,0,0-2.472-2.838c-1.961-1.313-5.406-.836-8.2-1.421-2.981-.625-4.9-1.694-7.406-1.845-3.782.346-7.311,3.673-6.323,6.386ZM40.787,193.431l-10.55,2.826a77.449,77.449,0,0,1,4.593,15.019,72.928,72.928,0,0,1,.291,18.074l30.62.155Z" fill="#e2cf00"/><path id="55ed0b36-bcf4-43bd-9264-f82b6085e666" data-name="path6309-7" d="M68.283,229.4C54.847,210.174,42.4,191.888,25.87,171.734c0,0,.014-7.79.072-15.515l50.776,72.989Zm27.2-31.038a79.822,79.822,0,0,0-2.241-11.781l9.271-8.763c-1,7.831-2.536,13.838-7.03,20.544Zm44.309-27.62c2.075,2.763-1.427,4.3-2.749,3.067C134.362,171.314,138.288,168.738,139.791,170.739Zm-91.926-17.4c-1.538.989,2.765-24.09,14.576-37.051C69.625,136.919,56.95,148.485,47.865,153.341Zm58.271-.092-7.844-2.123,3.693-11s7.578,1.73,6.95,4.014a83.508,83.508,0,0,1-2.8,9.107Zm-36.314-4.228a67.5,67.5,0,0,0,5.221-11.31l7.858-.164-3.948,10.9ZM117.1,133.588c-6.071-12.119,1.081-31.3,14.291-36.579A58.351,58.351,0,0,1,117.1,133.588Zm-40.8-3.444a62.67,62.67,0,0,0-.819-12.812,153.115,153.115,0,0,0,27.612,3.69l.965,11.6A126.823,126.823,0,0,0,76.3,130.144Zm20.056-17.679a59.235,59.235,0,0,1,3.6-10.516l9.568-.446c-.05-.187-4.082,6.382-5.048,11.124-1.524-.162-8.12-.162-8.12-.162ZM78.211,109.6c-2.792-.988-6.61-1.264-8.095-3.429l2.9-9.228,8.6,2.646Zm24.144-88.044,6.742-.065s32.395,41.554,44.537,57.724c-.4,1.646.135,15.6.135,15.6-17.2-24.263-51.414-73.254-51.414-73.254ZM40.232,79.533A1.515,1.515,0,1,1,42.5,77.6C43.554,79.132,41.187,80.561,40.232,79.533ZM76.581,72.72c.105-9.63,6.916-21.058,6.846-20.766-.08-.019.971,9.414,2.28,12.382C85.353,64.859,76.9,73.323,76.581,72.72Z" fill="#d40000"/><path id="e2055587-7bce-4b30-8562-1a08b2a8d6d0" data-name="path6311-0" d="M24.483,19.961V230.485H155.1V19.961Zm119.627,1.6c-1.063,11.657-1.248,20.672,4.785,32.762-1.09,1.145-9.3,1.47-11.887,2.827-.048.326.664.889.664.889,2.707-1.259,13.262-2.408,13.262-2.408-4.42-7.724-8.057-22.677-5.319-34.07h7.922V77.816s.093,10.693.319,16.8c-4.056-5.255-9.281-12.453-12.794-17.9-4.261-6.01-9.006-13.06-13.877-19.674-1.437-2.083-3.484-4.787-5.155-7.221-2.624-3.76-4.793-6.677-7.514-10.724-2.906-4.191-5.691-7.994-9.144-12.86-2.928-4.141-3.064-4.674-3.064-4.674Zm-50.033,0c4.939,8.6,13.778,11.614,16,12.194l1.293,1.894a28.134,28.134,0,0,1-18.624-12.9,3.012,3.012,0,0,1-.181-1.185Zm-4.888,0A23.441,23.441,0,0,1,84.1,28.739l.062-2.089a18.975,18.975,0,0,0,3.628-5.09Zm2.392,0a3.313,3.313,0,0,1-.126,1.108c-1.046,3.387-7.544,9.817-7.357,8.853l-.066-1.658c-.029.071,4.881-4.783,6.167-8.3Zm-4.725,0c-.507.946-2.4,3.9-2.567,3.107l.168-3.107Zm14.844,0c.819,1.188,1.563,2.154,2.424,3.369a.941.941,0,0,1,.217.609c-.131.338-.52.087-1.6-.869a26.211,26.211,0,0,1-2.964-3.109Zm-6.571,0h1.6a23.217,23.217,0,0,0,11.288,9.172c.547.605,1.137,1.711,1.367,1.956C103.845,31.185,97.644,26.4,95.129,21.56Zm3.881,0c1.76,2.546,4.518,4.405,6.072,5.623.835.657,1.938,2,1.835,2.264-3.46-1.1-7.506-5.038-9.364-7.887Zm-6.784,1.649.962,1.535A32.611,32.611,0,0,1,84.038,34.8l-.02-2.011c4.422-3.193,6.333-6.4,8.208-9.58Zm1.56,2.224a29.524,29.524,0,0,0,18.367,11.293,11.418,11.418,0,0,1,1.34,1.579c1.009,1.378,1.025,1.432,1.158,3.689a45.987,45.987,0,0,0,2.758,13.263c-.165.877-.318,1.324-1.968,3.557-6.872,9.305-21.513,18.107-28.727,6.094-2.405-3.849-2.639-11.227-2.792-15.828,0,0,.046-.324.063-.411.174-.835.412-.7,1.714-.346,1.32.568,2.7.109,4.092-.272,1.591-.644,1.723-.147.189,1.288a9.508,9.508,0,0,0-1.112,1.218,8.772,8.772,0,0,0,1.355-.7c1.226-.935,1.516-.577,1.062.453-1.927,4.367-2.269,4.541.441,5.754a4.866,4.866,0,0,1,1.268.813c1.853,1.748,1.188.806.669,0-.8-1.257-.076-1.921,1.27-1.143a4.3,4.3,0,0,0,2.724.741c1.247-.407,1.628-1.777,1.257-3.284-.3-.834-2-2.306-1.607-.765a1.448,1.448,0,0,1,1.019,2.4c-.672.908-1.87.417-3.707-.8-1.015-.765-2.248-.374-2.2.567.032.631-.86.486-1.44-.319-.322-.446-.1-1.733.5-2.952,3.809-7.676.6-15.119-6-13.021-.725.231-1.379.418-1.379.418l-.036-2.937a34.979,34.979,0,0,0,9.718-10.345Zm3.851,13.781c-.994,1.2-.642,2.275,1.541,1.2a6.971,6.971,0,0,1,3.963-1.052c2.75-.1,5.218.777,8.272,2.655,2.025,1.245,2.32,1.34,1.77.56-1.635-3.138-11.3-7.9-15.546-3.359Zm-9.34.359c1.909.482,3.741,1.746,3.422,2.27-.115.188-.226.224-.469.1a7.362,7.362,0,0,0-6.84-.443c-.354.152-.551-.084-.55-.512,0-.833,1.4-1.5,2.877-1.551A6.87,6.87,0,0,1,88.3,39.573Zm11.088,2.434c-1.137.592-1.528.908-2.012.643-1.154-.633-.91-.136-.193,1.138.506.9.5,1.084.426,1.634-.082.6-.07.622.511,1.262a15.8,15.8,0,0,0,3.792,3.9,10.608,10.608,0,0,0,1.235.725c.162.005.1-.125-.19-.408-2.082-2.008-3.724-3.807-1.6-3.043,2.468.807,4.816-.2,6.742-.855a11.363,11.363,0,0,1,1.814-.447c1.778,0,2.2-.74,1.061-1.871-3.846-4.324-7.039-5.342-11.583-2.674Zm9.127.81c.8.736,1.215,1.136,1.135,1.328s-.7-.143-1.723-.691a9.3,9.3,0,0,0-7.328-.516c-2.27.657-1.6-.386.93-1.367a6.558,6.558,0,0,1,6.987,1.246Zm-21.2-1.489a7.277,7.277,0,0,1,4.747,1.586c.843.728.227.9-1.142.33a6.476,6.476,0,0,0-5.515-.2,5.782,5.782,0,0,1-1.317.532.91.91,0,0,1-.159-1.149,5.237,5.237,0,0,1,3.386-1.1Zm28.579.6c.127.006.319.209.6.61.519.73.538,1.09.108,2.368-.525,1.561-.735,1.308-.867-.87-.086-1.412-.088-2.118.154-2.108Zm1.719,2.353c.2-.028.429.322.8,1.045.258.5.2.655-.608,3.016-.336.989-.653,1.776-.662,1.783-.248.2-.216.178-.322.042-.573-.735-.532-2.168-.038-3.886.374-1.3.578-1.964.833-2Zm-15.624.179a4.061,4.061,0,0,1,.447.078c-.04,3.5,2.659,2.794,3.016.31,0,0,.666-.069.767.1.32.52-.422,2.016-1.533,2.506a2.464,2.464,0,0,1-2.57-.333,5.245,5.245,0,0,1-.638-2.181c.13-.314.324-.461.512-.477Zm-1.607.408h.081a.531.531,0,0,1,.562.407l.578,1.777c-.425.51-2.041-.523-2.038-1.3a.861.861,0,0,1,.817-.886Zm-10.971,0c.407-.039.551.006.6.388A2.508,2.508,0,0,1,87.5,47.725a1.907,1.907,0,0,1-2.181-2.058c0-.834.718-.938.8-.279.229,1.9,1.85,2.011,2.591.961C88.99,45.937,88.926,44.923,89.412,44.86Zm17.753.387a1.555,1.555,0,0,1,.5.117c1.491.477,1.531.708.255,1.169-1.521.549-1.619.621-1.262-.443.2-.594.258-.832.511-.843Zm-15.807.168c1.1.069,1.2,1.006.226,1.319-1.448.641-1.936.6-1.375-.346C90.513,45.719,90.785,45.428,91.358,45.415Zm-6.916.337a.745.745,0,0,1,.445.171c.166.5.448.889.67,1.409a.924.924,0,0,1-1.114-.052c-.692-.55-.573-1.522,0-1.528ZM119.2,46.835c.429,0,.865.685,1.008,1.193-1.5,1.931-1.264,5.538-1.613,6.627-.3.886-.4.121-1.234-2.174-.337-.926,1.361-5.532,1.753-5.634a.357.357,0,0,1,.086-.012Zm1.533,1.981a1.773,1.773,0,0,1,.868,1.32,5.037,5.037,0,0,1-.279,1.46,38.938,38.938,0,0,0-.86,5.8c-.062.931-.059,1.767-.1,1.848-.451.887-1.4-1.5-1.321-3.4.3-1.516.461-6.827,1.693-7.035Zm2.119,2.725a2.324,2.324,0,0,1,.411.776,4.79,4.79,0,0,1-.241,2.1,26.609,26.609,0,0,0-.139,9.509c.094.695-.388.347-1.116-.85a6.63,6.63,0,0,1-.786-2.648,33.279,33.279,0,0,1,.651-8.045c.185-1.111.313-2.091,1.22-.839Zm1.142,1.817,1.2,1.456a46.077,46.077,0,0,0-.511,5.133,78.218,78.218,0,0,0,.821,8.531c-.74-.832-1.087-1.321-1.9-2.365-.092.015-.8-7.166-.31-9.913a21.358,21.358,0,0,1,.693-2.842Zm1.89,2.893c.2-.007.46.221.783.676a2.085,2.085,0,0,1,.449,1.258c.011.372-.172.659-.178,1.323a58.237,58.237,0,0,0,1.17,11.291c.237,1.288-.224.762-.986-.053a4.341,4.341,0,0,1-1.084-2.09c-.074-.212-.818-7.508-.811-8.059a13.3,13.3,0,0,1,.351-4.074C125.663,56.345,125.762,56.255,125.883,56.251Zm-4.377,7.95s-1.4.723-1.77.469c-.592-1.619-2.728-5.952-2.765-6.72a8.759,8.759,0,0,1,.875-1.392C119.027,59.125,120.089,61.752,121.506,64.2ZM95.114,59c-.423.5-.926.29-1.946-.159-.523-.161-.442.055-1.306.5a2.273,2.273,0,0,1-1.348.354c-.586,0-.8-.211-.8.2a9.863,9.863,0,0,1-.173,1.793c-.189.725-.353,1.046-.25,1.172.3.273.548.106,1.176-.5,1.041-1.008,1.743-.719,2.9-.344,1.319.426,1.592.584,2.8.161,1.709-.6,2.739-.6,3.419-.165,1.173.749,1.527.7,1.044-1.343-.156-.66-.167-1.683-.263-1.86-.109-.2-.407.372-.719.582-.6.4-.905.395-2.25-.046-.8-.262-1.69-1.118-2.286-.35Zm21.634.267c.52,1.23,2.592,5.338,2.529,5.8-.4.364-.943.629-1.264.3a37.358,37.358,0,0,1-2.188-5.043c-.251-.508.5-1.8.923-1.058Zm11.127-.151c.146-.021.453.285.681.591a2.594,2.594,0,0,1,.774,2.089,44.588,44.588,0,0,0,1.584,11.4,16.446,16.446,0,0,1,.55,1.572c-.348.51-1.964-.854-2.451-2.927a57.623,57.623,0,0,1-1.28-7.168c-.271-3.145-.27-5.4.141-5.56Zm-12.43,2.039c.6,1.154,1.349,3.145,1.855,4.339.231.519-.949.927-1.22.751-.472-.353-.695-1.346-1-1.941-.985-2.159-1.163-2.2-.617-2.877C114.8,60.956,115.2,60.383,115.445,61.151Zm14.769,1.324c.086,0,.2.084.34.268a5.739,5.739,0,0,1,1.209,1.848A7.161,7.161,0,0,1,131.828,66c.112,1.884.6,4.454,2,9.715a7.275,7.275,0,0,1,.3,1.285c-.135.966-1.548-.6-1.96-2.217a48.355,48.355,0,0,1-1.6-6.348c-.528-3.441-.821-5.964-.353-5.964ZM114.2,63.866c1.175,2.749,1.268,2.744.528,2.961-.782.23-.829.155-1.748-1.717-.67-1.366-.8-1.537-.239-2.029.86-1.017,1.086-.048,1.459.785ZM97.835,63.21c-.134,0-.528.3-.924.459a6.768,6.768,0,0,1-3.745.094c-1.862-.749-1.338.224.309.816,1.279.431,3.81.1,4.2-.7.241-.256.329-.671.157-.668Zm14.158,1.446c1.049,1.625,1.364,2.274,1.187,2.4a1.783,1.783,0,0,1-1.34.315c-.429-.211-.8-1.214-.991-2,.132-.384.821-1.073,1.144-.714Zm-26.277.684c.469,0,1.688,1.645,1.44,1.942-.068.152-.525.007-1.594-.29-.356-.131-1.162-.237-.907-.755a2.97,2.97,0,0,1,1.061-.9Zm25.151,2.252c-.105.281-.9.347-1.231.326a4.658,4.658,0,0,1-.446-1.289c.109-.239.651-.859.918-.737a8.63,8.63,0,0,1,.759,1.7Zm21.825-1.584c.167.006.457.3.887.916.813,1.166.7,1.081,1.286,3.864.662,3.156,1.454,5.4,2.254,8.627.011.535-.205.393-.8.031-.968-.591-1.287-1.248-1.592-2.958-.52-2.826-1.619-5.441-2.041-8.779-.222-1.1-.24-1.709,0-1.7Zm-24.4,1.128c.572-.02.5.863.331,1.006-.418.365-1.569.256-1.767.277C106.417,67.723,107.922,67.159,108.3,67.136Zm27.3,3c.168.024.62.662,1.464,1.852.812,1.144.634.957,1.119,2.839.688,2.6,1.825,4.475,2.491,6.868,0,.274-.331.238-.647.109a7.122,7.122,0,0,1-1.685-1.122c-.356-.386-.353-.876-1.406-4.5-.379-1.309-.478-1.649-.952-3.638-.4-1.663-.574-2.43-.384-2.4ZM47.615,77.908c2.759,5.09,1.737,7.347-4.2,8.052-.429-.061-.025,2.607-.036,3.8,2.973-1.7,6.569-2.1,9.883-3.174-.9,2.9-2.486,6.178-7.284,5.673-5.014-3.884-10.916-1.55-14.92-3.127a5.291,5.291,0,0,1-3.035-3.655c2.612.263,5.56.824,8.091.64-2.764-2.135-1.956-5.089-1.566-6.44-3.235-4.089-.534-8.689,4.164-7.62a9.667,9.667,0,0,1,1.445.584c4.532-4.067,9.786-.246,7.455,5.267Zm91.7-2.477c.188-.017.6.474,1.433,1.639a73.987,73.987,0,0,1,4.566,6.853c-.106.595-2.675-.448-3.323-1.3a29.1,29.1,0,0,1-2.812-6.767C139.183,75.589,139.221,75.441,139.319,75.431ZM38.944,90.236c1.282.189,1.64.3,1.627.8.109.427-3.111.483-3.548.167-.349-.253.1-.807.445-.94a3.333,3.333,0,0,1,1.476-.027Zm88.787.458c-17.995,8.52-25.356,31.181-16.274,48.548l-1.25.905c-8.9-18.361-2.28-38.036,12.188-47.973.586-.417,1.882-.739,2.484-1.14,0,0-5.9,1.35-7.9,2.134a4.868,4.868,0,0,0-2.875,1.8A39.907,39.907,0,0,0,109.6,101l-9.29.375.008.344,9.118-.211c-9.389,15.5-7.082,30.243-1.285,40.563l.144.1c.337.227,1.224-.423,3.063-2.17.758-.72,1.713-1.614,2.123-1.988a55.8,55.8,0,0,0,3.869-4.147c-6.314-12.9-.085-29.89,14.688-37.546a13.774,13.774,0,0,0-.157-1.652s-.558-.5-.888-.451c-16.46,7.268-23.054,25.317-16.362,41.729l-1.1,1.205c-8.409-17,.617-38.241,16.356-44.259-.008-.384-.349-.875-.772-.58a33.631,33.631,0,0,0-16.072,45.316l-1.049.929c-9.469-18.847.508-39.967,16.15-47.183.461-.107-.411-.68-.411-.68Zm-91.585.176s-.12,1,.234,1.346c.163.716-.1.639-.705.493-1.5-.357-.329.5.9,1.185,1.206.678,1.044.655-.008,1.324-.707.449-.633.618-.538.959.141.506.237.169.53-.1a2.239,2.239,0,0,1,1.654-.707c.821,0,.905.662.759,1.177-.326,1.079-1.434,1.021-2.343.753-1.486-.439-3.914-3.024-3.876-4.545-.1-1.363,1.757-1.946,3.4-1.884Zm6.683.333c.576.212,1.3.5,2.1.831a12.531,12.531,0,0,1,2.938,1.4,4.871,4.871,0,0,1,1.9,4.687L38.44,108.885s-.64-.313-1.243-.621c-1.9-.975-2.362-1.488-1.3-2.027a1.657,1.657,0,0,0,.751-1.375c.1-.737.06-.611.5-.947.766-.585.8-.826.806-1.8a2.289,2.289,0,0,1,.3-1.343,6.177,6.177,0,0,0,.511-1.759c.022-.126.028-.442.053-.553a1.623,1.623,0,0,1,.451-.915,3.958,3.958,0,0,0,.472-1c.316-.9.257-.764.767-.664.742.144.635.577.554,1.265a1.58,1.58,0,0,1-.186.493,2.7,2.7,0,0,1,.651-.337c.237-.055.473.027.534.4.034.207-.056.589-.05.885a10.075,10.075,0,0,0,.221,2.287c.84,2.91.673,2.506.387.085a9.8,9.8,0,0,1-.066-2.139,4.434,4.434,0,0,1,.4-1.456c.5-.869.525-1.04-.553-1.468-.4-.159-1.083-.437-1.224-.714a2.156,2.156,0,0,0-1.356-.959c-1.627-.384-2.574-1.96-2.339-2.194.154-.153.809.047,1.224.062,1.485.053,1.8-.023,2.459-.59.35-.3.508-.57.787-.59a2.859,2.859,0,0,1,.886.291Zm77.1,1.743c-15.217,12.342-17.884,32.306-10.293,47.711l-1.313,1.035c-9.54-18.07-3.133-37.564,8.588-48.224ZM32.077,94.418c.269-.025.562.369,1.631,1.514A10.614,10.614,0,0,0,35.571,97.6c.893.429.7.25-.047.959-.761.875-.341,1.595-1.251,1.157-2.367-1.114-4.03-4.4-2.49-5.187A.831.831,0,0,1,32.077,94.418ZM30.9,97.87a.579.579,0,0,1,.182.019c.292.071.646.622,1.026,1.006A7.554,7.554,0,0,0,34.49,100.8c.827.367.849.456.267,1.1a1.946,1.946,0,0,0-.387.675c-.05.158-.062.358-.24.392-.922.178-3.985-1.685-4.106-2.97.1-1.2.4-2.095.876-2.131Zm6.491.357c.531-.014.843.461.84,1.231,0,.533-.3.75-.91.978-1.3.488-2.1-.445-1.193-1.475A2.031,2.031,0,0,1,37.391,98.227ZM36.6,101.36c.981,0,1.266.834.546,1.549-.676.673-2.04.676-2.037-.062A1.893,1.893,0,0,1,36.6,101.36Zm-6.085.993c.664.2,2.28,1.364,2.991,1.5.038.393-.435.5.236,1.241.3.336.33.565.065.707-.81.433-3.619-.936-3.807-2.345C29.906,102.769,30.134,102.377,30.512,102.353Zm3.664,1.686c.967.041,2.06.069,1.945.532-.084.336-.429,1.222-.872,1.056a1.939,1.939,0,0,1-.573-.439C34.16,104.693,34.023,104.033,34.176,104.039Zm36.541,4.01c2.815,2.555,13.041,29.241-8.269,48.682l-4.522,1.359c20.459-16.1,17.056-38.969,11.535-48.833,0-.289-.08-.256-.59.206-.445.405-.493.492-.313.567,6.239,9.625,8.571,36.81-16.012,49.928-.412.429.423.364.423.364.043-.353,11.069-3.039,10.291-3.107,10.276-9.106,19.223-30.822,8.085-49.751-.269-.177-.628.585-.628.585Zm-3.55,3.022-.143.6c8.919,17.553.405,39.059-16.174,47.019a5.115,5.115,0,0,0,.88.482c18.808-10.152,24.232-31.64,16.027-48.283Zm-1.491,1.245-.1.637c7.384,14.939,1.522,35.671-16.1,44.081-.168.9,0,.64.827.6,20.39-10.962,22.307-31.808,15.927-45.346Zm-1.266,1.791c-.576.763-1.631,1.158-1.981,2.14,5.924,15.7-1.732,30.8-14.693,37.172-.01.79-.576,2.744.8,2.432,16.012-7.272,22.979-26.6,15.978-41.814,0,0-.092.067-.1.07Zm80.429,30.345c.59.042,1.118.221,1.665.292,1.989.259,3.28,1.712,2.391,2.6-.292.29-.7.123-1.993-.511-.593-.291-.688-.564-.811-1.22-.148-.787-.3-.867-.5-.256s-.419,1-1.1.843C142.583,145.753,143.3,144.437,144.839,144.452Zm-21.276,13.362c-4.776-2.717-10.674-7.616-14.045-13.183a80.046,80.046,0,0,0-3.646,8.891l-7.5-2.1-.088.157,7.409,2.14-.722,2.478c-.078.268-1.225,3.089-1.225,3.089l11.573,5.414a18.831,18.831,0,0,1-2.494,2.9,2.228,2.228,0,0,0-.577,1.358L128.3,153.618a37.054,37.054,0,0,0,2.84,3.775c.722.654.946.812.1,1.008-3.77.554-6.7,3.415-5.676,7.254.165.427.5.27,1.212-.181,2.5-2.272,8.621-4.376,8.83-3.842l.024,2.444c-6.587.1-5.911,4.95-5.429,7.554,0,.056-1.905,1.725-1.905,1.725a17.85,17.85,0,0,1,1.956,1.157c-.579,3.238,2.173,7.932,7.58,5.529.467.481.909.964,1.424,1.567a10.944,10.944,0,0,0,1.191-2.155c2.686,1.219,8.258-1.508,5.408-7.754l1.571-1.5-1.509-.954a7.649,7.649,0,0,0-1.23-4.39,28.878,28.878,0,0,0,4.411.757h0c1.159.1,2.135.134,2.038-.568a14.456,14.456,0,0,0-.315-1.549c-.56-1.636-3.462-2.837-6.281-3-.46-.025-.955-.011-1.053-.131-.185-.224.146-.543.449-.49a2.934,2.934,0,0,0,3.3-2.329,3.524,3.524,0,0,1,.821-1.22c.8-.881.866-.858.851-2.132a2.211,2.211,0,0,1,.551-1.673,4.1,4.1,0,0,0,.5-3.088,2.51,2.51,0,0,1-.134-1.773c.473-1.466-.567-2.806-1.931-3.569-.109-.031-.076.076-.166.184a4.033,4.033,0,0,1-2.744-.5c-.311-.153,1.053-8.1,3.881-7.391.469.286.668,1.667.633,1.691.13,0,.2-.813.017-1.353a1.238,1.238,0,0,0-1.473-.947,3.954,3.954,0,0,0-1.75,1.43c-1.321,1.687-1.336,2.764-1.777,4.559-.212.848-.236.8-1.407-.118-.84-.659-1.248-.869-.955-1.255.131-.174.676-.722.676-.722l10.707-9.872v99.191H95.192L95.6,215.95c1.086-8.933-.825-27.691-2.27-29.456,1.115-1.255,4.574-4.283,4.383-4.419l-.458-.272-1.829,1.686-4.517-1.371a19.512,19.512,0,0,0-5.933-3.092c-3.331-.857-9.746,1.874-9.752,1.9a53.148,53.148,0,0,0-18.34,4.9,8.691,8.691,0,0,1-1.053-1.714c-5.283-7.37-10.476-11.5-17.571-16.536l8.987-4.976L25.947,140.3l-.188-18.113L56.61,92.616c.182-.51,9.842,6.84,13.44,12.822a71.5,71.5,0,0,1,3.044-8.45c.112-.263,6.138,2.233,7.925,2.339a.674.674,0,0,0,.483-.267l-7.953-2.592,1.627-4.67s.566-1.269-.073-1.479c-3.625-1.176-7.027-3.248-10.494-5.013,0,0,1.619-1.8,1.643-1.885s.68-1.043.524-1.377c-1.764,1.715-16.158,15.1-16.158,15.1a7.056,7.056,0,0,0-2.452-4.516,6.482,6.482,0,0,0,2.645-1.3c2.11-1.54,3.258-4.289,2.982-5.895A46.138,46.138,0,0,1,47.4,87.3a8.142,8.142,0,0,0-3.6,1.6l-.126-2.563c.008.03,3.412.6,4.991-1.693,1.36-1.976.8-4.237.49-5.39.035-.256-.041-.227.546-.769.433-.4,1.108-.916,1.108-.916.028-.145-1.76-.81-2.062-1.417.476-4.749-3.309-6.583-6.513-5.739-.6.181-.885.294-1.6-.5-.106-.119-.961-1.024-.961-1.024s-.377.872-.57,1.254c-.628,1.242-.8.869-2.155.935-3.432.169-4.963,2.946-4.175,6.356.185.8.1.677-.422,1.689-.268.517-.7,1.177-.7,1.177s.629.349,1.053.539c.628.282.661.611.659,1.239a6.343,6.343,0,0,0,1.184,3.5,19.663,19.663,0,0,1-7.185-1c.373,3.753,3.132,5.15,6.511,5.7a2.751,2.751,0,0,1-.727.48A1.7,1.7,0,0,0,31.872,92.3a2.957,2.957,0,0,1-.853,1.511,2.282,2.282,0,0,0-.751,2.344,2.19,2.19,0,0,1-.534,1.507,2.79,2.79,0,0,0-.577,2.287,9.739,9.739,0,0,1,.1,2.263c-.145,1.56.412,2.145,1.119,3.242.459.712.362.731.256,1.247a28.333,28.333,0,0,1-.794,2.819c-.615,2.109-.638,3.708-.135,4.119a2.108,2.108,0,0,0,2.014.31c2.99-.925,2.472-3.868,2.63-5.843.085-.508.258-.752.426-.728a9.271,9.271,0,0,0,2.89,2.19c-3.979,4.06-6.527,6.544-11.557,10.973V21.56H83.577s.06.828-.077,4.406c-.249,7.272-.554,14.889-.078,22.3a67.491,67.491,0,0,0,.4,7.637c.358,2.473.516,5.14,1.669,7.443.463,1.249.478,1.153-1.287,2.788a6.8,6.8,0,0,0-1.57,1.807c.011.05-.038.238.095.132.088-.071.728-.706.8-.79.478-.565,1.278.16,4.008.932A7.367,7.367,0,0,1,89.4,69.293c4.081,3.447,9.822,2.372,14.114.492a9.114,9.114,0,0,1,3.474-.821,67.624,67.624,0,0,0,14.978-4.027l.946,1.554a.629.629,0,0,1,.61.325c4.169,7.894,17.781,16.914,17.539,16.5l-8.9,4.938c6.477,8.023,21.374,21.634,21.374,21.634v19.563a131.554,131.554,0,0,0-11.4,10.413c-1.006,1-1.716,1.567-1.334,1.586.908-.138,1.692.759,2.43,1.381.468.523.355.476-.185,1.19-.379.5-.518.647-.519,1.01a1.776,1.776,0,0,1-.615,1.7,2.478,2.478,0,0,0-.678,1.377,2.413,2.413,0,0,1-.46,1.455c-.67.143-.734,1.121-.616,1.559a1.451,1.451,0,0,1,.447,1.294c-1.341,1.458-2.747,2.722-1.849.683a6.132,6.132,0,0,0,.546-1.388s-.646.67-.983.987c-.517.479-.706.2-.721-1.292a9.85,9.85,0,0,0-.729-3c-.1-.168-.123.123-.073,1.207a6.444,6.444,0,0,1-.267,3.265c-.677,1.925-1.158,2.2-.059,2.131,1.042-.063,1.922-.074,2.378.549a2.127,2.127,0,0,0,.772.782,7.87,7.87,0,0,1,2.015,1.51c1.541,1.679,1.1,3.18-1.88,2.162-1.568-.536-.541-1.211,1.144-1.055,1.036.1,1.21-.286.314-.561-1.667-.309-1.935-.5-3.035.813a10.707,10.707,0,0,1-8.454-5.153c-.521-.881-.681-1.05-.318-1.549.143-.2.056-.137-.19.136s-.916.5-1.138.7c-1.551,1.551-3.123,3.218-4.52,4.479Zm20.094-10.863c.784.1.768.756.069,1.39-.658.5-1.108.6-1.479.221C141.6,147.906,142.436,146.946,143.657,146.951Zm2.282.457a3.873,3.873,0,0,1,2.394,1.086c1.143.951,1.4,3.256.354,3.655-.439.167-.507,0-1.444-.889a8.181,8.181,0,0,0-1.99-1.467c-1.377-.657-1.554-.905-.623-1.353a1.707,1.707,0,0,0,.565-.524C145.434,147.532,145.507,147.41,145.939,147.408Zm-1.488,3.068a2.184,2.184,0,0,1,.81.322c2.321,1.271,3.455,3.263,2.67,4.388-.515.737-1.354.456-1.993-.59a6.487,6.487,0,0,0-2.4-1.9c-1.243-.632-1.27-.722-.372-1.153a1.824,1.824,0,0,0,.825-.746c.209-.369.226-.333.461-.326Zm.744,4.747c1.754,1.753,1.553,2.7.414,3.415-.778.487-2.025.609-2.434.2-.661-.579-.644-1.242.087-1.456.681-.146.426-.419-.211-.581-2.274-.647-3.671-1.857-1.2-1.595a2.263,2.263,0,0,0,1.767-.918c.537-.653,1.261.614,1.577.93ZM25.617,155.9l51.07,73.089H35.42c1.453-11.625-1.463-24.526-5.322-32.944a123.121,123.121,0,0,0,12.2-2.933l-.812-1.057a49.71,49.71,0,0,1-13.335,3.088c5.508,9.4,7.474,22.354,5.822,33.846H26.11V172.244Zm9.147,10.878a4.006,4.006,0,0,1,2.743,2.2,23.349,23.349,0,0,0,1.038,2.471c.011.2,1.785,3.413,1,3.133-1.551-2.112-4.322-5.71-5.019-7.462C34.531,166.888,34.562,166.784,34.764,166.776Zm5.528,3.212a17.554,17.554,0,0,0,1.057,2.833c1.105,2.383,2.815,6.119,2.468,7.183-.235.717.008.679-.62-.206-.306-.433-1.262-1.769-1.491-2.077-.56-.752-.184-.062-.5-1.287-.762-3.466-1.993-5.287-2.793-7.312C38.125,168.171,39.926,169.605,40.292,169.988Zm.984.529c.148.105,2.177,1.534,2.382,1.739.719,2.563,3.593,10.774,2.849,12.241A6.667,6.667,0,0,1,45,182.287a27.452,27.452,0,0,0-2.907-9.676C41.718,171.729,41.423,170.848,41.276,170.517Zm3.815,2.883a4.559,4.559,0,0,1,1.683,1.675,7.126,7.126,0,0,1,.617,2.029c.735,3.35,2.138,6.745,1.507,10.32-.393.535-1.249-.678-1.371-1.872a46.465,46.465,0,0,0-2.142-10.51C45.116,174.139,44.912,173.431,45.091,173.4Zm3.257,3.071c.137,0,.418.262.887.7a2.677,2.677,0,0,1,1.046,2.6c.029,2.092.724,4.481.832,6.593a29.421,29.421,0,0,1,.1,4.558c-.265.367-1.442-.969-1.351-3.017a24.951,24.951,0,0,0-1.019-8.573c-.484-1.968-.729-2.809-.519-2.857a.117.117,0,0,1,.027,0Zm94.484-12.434c3.656,2.353,2.367,6.7,1.584,7.23,5.049,6.4-2.8,9.67-5.29,7.371-3.687,3.673-10.015.595-7.578-5.459,0,0-4.631-8.867,4.5-8.275,0,0,.157-3.583-.1-3.747-3.261-.219-7.692,2.927-8.947,3.8-.7.422-.849.22-.849.22-.174-1.859-.178-2.711.575-3.748,1.316-1.809,3.491-2.421,6.348-3.05,3.535,1.091,6.9,2.8,10.177,2.538a11.3,11.3,0,0,1,5.4,1.243c1.18.558,1.794,2.651,1.794,2.651C148.594,165.78,142.832,164.037,142.832,164.037Zm-1.739-13.149a1.41,1.41,0,0,1,1.435-1.261.842.842,0,0,1,.234,1.642c-.249.2-1.052-.095-1.1.128.059.391-.334.226-.41.085A.958.958,0,0,1,141.093,150.888Zm-.587,2.5a1.956,1.956,0,0,1,1.01-.319c.549-.067,1.251.016,1.407.593s-.93.9-1.807.915c-.446.008-.962.094-1.1-.22-.125-.294.307-.836.487-.969ZM29.835,112.95c.7-2.458.265-3.835,1.441-6.865l2.862.955a16.271,16.271,0,0,1-.456,4.628c-.578,1.655-2.476,2.974-3.847,1.282Zm21.321,66.483c.338.041,1.167,1.225,1.541,2.307.344,1,.23,2.277.481,3.358a38.844,38.844,0,0,1,.379,8.538c-.074.559-.434.331-.925-.2-.716-.775-.617-.791-.608-2.943a66.418,66.418,0,0,0-.589-7.326,15.286,15.286,0,0,1-.411-3.627C51.047,179.46,51.093,179.426,51.156,179.433Zm33.477.444c3.686.588,6.633,3.111,8.321,7.263,1.63,4.223,2.032,9.985,2.285,15.282-.018,1.267-.539.947-1.9.16-1.492-.731-1.809-.519-3.987-.019-1.358.311-1.236-.615,1-2.151.761-.5,1.646-1.163,1.355-1.262a2.252,2.252,0,0,0-1.321.532c-2.193,1.776-2.787,2.209-2.155.481.16-.437.668-1.648.88-2.228.794-2.171-.121-3.1-2.819-4.473-.675-.344-1.119-.918-.445.283.551.982-.588,1.774-2,.625a2.784,2.784,0,0,0-3.586.73,2.508,2.508,0,0,0,.928,3.35c1.07.461,1.469.129.434-.59-1.331-.925-1.072-2.486.423-2.48a10.491,10.491,0,0,1,2.669,1.312c1.179.639,2.019.369,2.02-.586,0-.639.366-.587,1.141-.2,1.045.518.93.987.379,2.434-.373,1.01-.558,2.158-.9,3.214-.88,3.555-1,7.581-.024,8.836,2.588,3.338,5.336,2.984,7.689.778l-.1,3.655c-2.4,1.931-5.2,3.247-9.53,10.4-1.509-1.9-7.984-9.669-18.368-11.424l-2.336-3.205c.04-.2-1.746-11.919-2.914-15.91,0,0,1.285-1.955,2.452-3.4,4.662-5.758,12.542-12.348,20.411-11.411ZM71.091,183.2c-.4.127-.529-.671-.312-.823a5.7,5.7,0,0,1,1.131.01c.364.023.355.44-.819.813Zm-17.522-.6a10.958,10.958,0,0,1,1.77,2.276c.342.5.148,1.336.2,2.159.075,1.166.2,3.089.287,4.271a12.491,12.491,0,0,1-.391,4.927c-.344.832-1.04.257-1.213-.882-.041-.273.186-3.1.186-4.651C54.409,188.036,53.729,184.741,53.569,182.605Zm15.717-.016a.448.448,0,0,1,.444.152c.559.718.786,1.152.276,1.546-.675.565-1.289.422-1.664-.651C68.1,182.872,68.67,182.631,69.286,182.589Zm-2.082.633a3.512,3.512,0,0,1,1.263,2.24c-.038.211-.223.39-.628.718-.4.368-.528.344-.975-.364-.7-1.1-1.031-1.823-.894-2.2A1.241,1.241,0,0,1,67.2,183.222Zm24.544.139a21.33,21.33,0,0,1,2.979.778l-1.493,1.448C92.789,184.845,92.284,184.1,91.748,183.361Zm-26.777.755a8.086,8.086,0,0,1,1.463,3.3,1.686,1.686,0,0,1-.591.584c-.183.05-.348-.272-.971-1.376-1.082-1.92-1.4-2.461-.837-2.692A1.274,1.274,0,0,1,64.971,184.116Zm-2.182.446a11.939,11.939,0,0,1,2.088,4.2.954.954,0,0,1-.218.575c-.908.979-.678.821-2.031-1.969-1.141-2.3-1.443-2.521-.688-2.779a1.483,1.483,0,0,1,.848-.029Zm-2.171.746c.4,0,.508.659,1.28,2.173,1.294,2.861,1.779,3.258,1.486,3.564-.361.456-.572.777-.915.223-.78-1.272-1.553-2.894-2.28-4.318-.581-1.063-.633-1.192-.26-1.452a1.362,1.362,0,0,1,.689-.189Zm23.087.813c-.486.137-2.44.758-1.243.87.242.023.855-.131,1.286-.161,1.21-.083,3.727.145,3.637-.087C87.155,185.871,84.365,185.952,83.705,186.121Zm-24.779.268c0,.048.313.606.626,1.152,1.838,3.561,2.86,4.857,2.534,5.42-.269.34-.684.768-.93.666-.395-.163-.922-1.329-2.238-3.967-1.36-2.726-1.5-2.93-.8-3.284.286-.133.633-.232.81.013Zm-1.837,1.256c.846,1.377.734,1.2.725,5.677-.008,2.788-.364,4.567-.829,5.253-.244.359-.674.148-.887-.555-.1-.322.18-.8.232-1.309.329-3.355.1-6.708.107-9.884C56.692,186.8,56.953,187.421,57.089,187.645Zm21.794,1.1c.394.563.3,1.017.3,1.774-.008,1.072.073,1.151.81.61.654-.48.707-.511,1.874.283a1.71,1.71,0,0,0,2.13,0c.4-.366.535-.2,1.069-.062.58.323.745.373,1.99-.233.841-.373.875-.427,1.375-.163.88.778,1.01.5.891-.52a7.738,7.738,0,0,1,.209-1.448c.438-1.808-.271-1.828-1.208-.676a1.638,1.638,0,0,1-1.936.28,7.665,7.665,0,0,0-4.068-.094,2.97,2.97,0,0,1-2.788-.675c-.34-.291-1.118-.551-1.2-.328s.09.574.561,1.248Zm-20.047,2.535c.187-.04.475.516.9,1.693.542,1.52-.406,6.8-.976,7.669-.3.454-.5.732-1.115-.109-.247-.37-.055-.487.189-1.526a32.179,32.179,0,0,0,.7-5.327c.008-1.544.09-2.354.3-2.4Zm1.906,5.126c.134.009.292.314.507.916a6.625,6.625,0,0,1-.244,3.642,9.6,9.6,0,0,1-.848,2.1c-.135.357-.825.232-1.015-.559-.12-.5.295-1.121.5-1.918s.432-1.817.546-2.33c.211-1.25.361-1.869.558-1.855Zm14.748,2.341a.079.079,0,0,0-.042,0s-.008.008-.012.012c-.031.031,1.438,1.636,1.832,2.085.206.174,1.976,2.332.875,1.836a7.551,7.551,0,0,0-8.029,1.347c-.25.243-.457,0-1.216-.062-1.554-.116-2.119.5-1.173,1.27.144.117.447.17.583.359.125.173.088.483.153.57,3.006,4,8.573,4.778,12.068,2.165.44-.328.686-.444,1.1-.322.813.243.885-.44.167-1.394-.314-.416-.7-.9-.474-1.033.443-.383.663-1.009-.109-1.243a2.528,2.528,0,0,1-1.427-1.583c-.35-.968-3.773-3.94-4.292-4.011ZM61.845,200.5c.654-.015.684,3.854-.038,5.028-.371.445-1.22-.382-1.092-1.231a26.494,26.494,0,0,1,.949-3.7.285.285,0,0,1,.182-.093Zm13.32,2.415a2.951,2.951,0,0,1,1.9.781c.322.292.887,1.558.652,2.053-.065.252-.743.238-.8.053-.373-2.553-2.438-2.924-3.093-.54,0,0-.425.362-.48-.336.147-1.354.782-2,1.829-2.011Zm16.627.221a1.686,1.686,0,0,1,1.6,1.021,1.554,1.554,0,0,1,.159,1.118c-.066.16-.287.091-.287.091-1.048-2.882-2.474-1.549-2.991.044,0,0-.539.166-.607-.005a1.353,1.353,0,0,1,.19-.945,2.227,2.227,0,0,1,1.932-1.324Zm-14.02.179a2.358,2.358,0,0,1,1.481.762c.483.488.53.779.14,1.141-.234.217-1.067.432-1.228.054l-.7-1.642c-.067-.156.139-.306.307-.315Zm-5.051.078c.416,0,.5.1-.149,1.617-.139.325-1.813-.147-1.5-.775A2.778,2.778,0,0,1,72.721,203.39Zm16.767.12a.429.429,0,0,1,.36.093,9.945,9.945,0,0,0-.782,1.658c-.6-.072-1.312.012-1.441-.477-.122-.463.119-.745.96-1.068A3.447,3.447,0,0,1,89.488,203.51Zm4.9.412a.942.942,0,0,1,.7,1.048c-.061.21-.361.212-.573.05a1.654,1.654,0,0,1-.476-.9C94.1,203.848,94.185,203.845,94.386,203.922ZM62.81,205.4c.2.368.546,2.451.135,2.4-.4-.1-.584-.731-.654-1.3C62.276,206.387,62.632,205.417,62.81,205.4Zm6.975,1.112a3.1,3.1,0,0,1,1.34.528,10.43,10.43,0,0,0,7.078.7c1.427-.372,1.791-.589,1.993-.344.342.417-.2.835-2.214,1.514-2.21.744-4.5.619-7.519-1.514-.81-.573-.915-.853-.678-.887Zm25.221.574c.374.7-.9,1.364-1.545,1.551a6.644,6.644,0,0,1-4.621-.495,3.315,3.315,0,0,1-.283-.189c-.954-.712-.559-1.221.5-.672a6.425,6.425,0,0,0,4.7.1c.618-.3,1.043-.674,1.244-.3Zm-28.222,1.305c-.127.029.087.35.53.831,3.109,3.5,10.527,5.4,14.7,1.791,1.306-1.229,1.107-1.781-.952-.8a19.564,19.564,0,0,1-8.314.434,12.218,12.218,0,0,1-4.756-1.549c-.717-.525-1.093-.731-1.2-.707Zm21.437.1a3.414,3.414,0,0,1,1.245.462,7.283,7.283,0,0,0,4.228.072c1.651-.611,1.99.165.426,1.031a4.732,4.732,0,0,1-5.55-.718c-.435-.391-.67-.877-.479-.916C88.11,208.426,88.194,208.5,88.221,208.5ZM67.61,214.687c6.122.561,15.362,6.984,18.965,14.3H84.5c-3.62-5.758-9.189-10.724-15.8-12.453-.262-.2-1.234-1.592-1.094-1.847Zm27.176,1.34L94.5,218.05a32.771,32.771,0,0,0-7.576,8.857c-.581-.027-.863-.729-.766-1.207,2.233-4.414,4.9-6.852,8.625-9.673ZM70.042,217.61c1.4-.1,10.543,5.156,13.621,11.377H81.978c-3.462-4.519-7.309-7.8-10.725-8.983C70.423,219.126,69.514,217.649,70.042,217.61ZM94.5,219.017l-.016,2.734a24.962,24.962,0,0,0-5.036,7.236h-1.7a3.89,3.89,0,0,1-.246-1.549,24.11,24.11,0,0,1,7-8.421Zm-13.884,9.97H78.977a20.041,20.041,0,0,0-5.338-5.314c-.775-.963-1.643-2.151-1.293-2.344.02-.711,7.293,4.548,8.274,7.658Zm13.919-5.893-.035,1.581c-1.112,1.425-2.044,2.953-2.934,4.312h-1.4c1.277-2.763,4.485-6.64,4.37-5.893Zm-18.857,3.06c.506.134,2.358,2.239,2.3,2.833h-.834a17.5,17.5,0,0,1-1.351-2.17c-.205-.383-.337-.738-.115-.663Zm18.535.489c.008,0,.008,0,.012,0l-.016,2.344H92.807a4.691,4.691,0,0,1,1.41-2.344Z" fill="#131f67"/><path id="6f94e5e4-8bc3-4c14-ac23-744f7031a971" data-name="path6313-8" d="M101.855,21.292l52.322,74.421.042-16.533-16.79-21.721a63.126,63.126,0,0,1,12.161-2.326c-4.719-10.487-7.079-20.335-5-33.834-14.667-.176-29.4-.146-42.735-.008Zm41.864.353c-.41,4.765-.948,10.079-.085,15.981-2.723-1-3.362.706-3.813.885-.513-1.145-2.411-3.126-4.559-.8-1.118,1.211-.575,3.488,2.019,4.515-2.97.228-4.513-2.316-5.034-4.94-1.605-1.03-3.292-2.048-3.453-5.659l.823.138a2.529,2.529,0,0,0,3.866,2.6c.988-.759,1.094-1.93.7-3.749a2.653,2.653,0,0,0,2.162-3.337c-.679-3.306-4.065-2.918-5.613-.744-1.286-1.6-3.643-1.892-4.589.586a2.642,2.642,0,0,0,2.037,3.231c-3.029.582-4.556-3.6-4.725-6.438L122.2,21.684c8.188-.048,11.768-.039,21.515-.039Zm-41.012.081,6.077,0,44.35,57.534.093,14.323Zm15.364,0,.969.012a12.563,12.563,0,0,0,8.633,10.514c.258,4.138,2.248,9.758,9.8,11.656-.223,4.672,2.771,9.136,5.976,11.276a13.187,13.187,0,0,1-1.542.279c-4.309-3.425-5.371-8.468-5.8-10.549-.145-.3-.556-.374-.883-.447a13.33,13.33,0,0,1-8.06-8.048l-.8-3.639c0-.467-.093-.247-1.19-.652-2.844-1.05-5.474-4.135-6.653-7.82a5.641,5.641,0,0,1-.454-2.582Zm-3.908.012,3.405,0s.02.6.069.994c.458,3.628,3.708,8.181,7.022,9.691a8.226,8.226,0,0,1,1.274.656c.927,5.948,3.616,9.529,9.292,11.982.09.094.346.154.422.272.774,3.678,2.465,7.941,5.682,10.285l-1.391.144Zm16.631,6.242a1.4,1.4,0,1,1-1.4,1.4A1.4,1.4,0,0,1,130.794,27.984ZM83.806,35.611c.08.2-19.042,16.417-17.181,46.926l-.554.621.151.218c-.631.718-1.24,1.3-1.929,2a69.412,69.412,0,0,0,10.9,5.226l-1.321,3.067,8.262,2.675-1.108,2.916s-5.748-1.91-8.13-2.706a72.457,72.457,0,0,0-2.742,8.088c-.08.219-.268.113-.561-.311C65.3,96.99,56.486,91.7,56.783,92.221l-31.256,29.73-.213,18.372,21.632,22.349a103.469,103.469,0,0,0-9.222,5.114c2.3,1.884,4.91,3.335,7.2,5.117,4.736,3.349,7.933,8.271,11,11.605a52.784,52.784,0,0,1,41.651-2.426c-1.467,1.547-3.1,2.888-4.616,4.566,3.66,9.628,2.489,28.748,2.3,29.268a63.447,63.447,0,0,0,17.444-48.1l3.207-3.223c-.058-.165-8.022-4.438-11.34-5.369l.918-2.928-7.948-2.489.887-2.326,7.917,2.3c1.5-3.689,3.087-8.857,3.087-8.857a40.761,40.761,0,0,0,13.819,13.442l31.078-29.807-.2-19.165L132.975,88.183l8.807-4.6c-.846-.685-2.073-1.334-2.944-2.019-.062-.049.175-.2.113-.245-.221-.17-.383-.309-.608-.466-.051-.035-.21.195-.26.159a52.916,52.916,0,0,1-8.331-6.682c-.059-.063.028-.325-.031-.388-1.223-1.309-2.44-2.528-3.683-3.817a19.948,19.948,0,0,1-1.53-1.968l-.055-.458-1.336-1.685c-4.3,2.544-22.648,8.93-40.4,1.859l3.373-3.381a25.879,25.879,0,0,1-1.712-6.582c-.928-7.961-.573-22.3-.573-22.3Zm55.958,4.508a1.476,1.476,0,1,1-1.468,1.475A1.474,1.474,0,0,1,139.764,40.119Zm4.6,1.755a66.824,66.824,0,0,0,4.037,12.581l-1.955.217c-1.592-1.037-3.274-2.55-3.451-4.695-4.3.033-5.563-6.736-3.991-5.923a2.562,2.562,0,0,0,3.078,3c1.4-.2,2.606-2.13.942-4.266a2.331,2.331,0,0,0,1.34-.91Zm-61,10.844A61.114,61.114,0,0,0,85.425,64.37l-8.5,8.045A43.969,43.969,0,0,1,83.364,52.718Zm40.792,15.446,1.08,1.553c-12.291,7.235-33.27,7.747-46.051,1.646l1.7-1.619c11.238,5.087,29.536,5.465,43.274-1.58ZM44.327,70.579a6.84,6.84,0,0,0-4.182,1.615c-5.639-2.575-9.332,3.444-5.845,7.431-.516,2.87-.907,3.4,1.247,6.31-2.288.292-5.177-.309-7.634-.688.416,4.25,6.486,5.239,9.013,4.772a9.086,9.086,0,0,1,5.415.792c1.6.449,2.6,1.223,4.183,1.6,2.609.622,6.429-2.443,6.983-5.354.052-.391.173-.745-.042-.8-1.784.457-3.743,1.1-5.481,1.483A10.351,10.351,0,0,0,43.7,89.58L43.6,86.071c8.833.421,4.989-8,4.489-8.36,1.641-3.322-.333-7.09-3.757-7.132Zm80.29.264,1.921,4.632-5.1,1.735-1.305-4.535Zm-80.657.139c3,.029,5.687,3.2,2.8,6.748,5.589,4.942-1.574,10.238-4.985,6.562-4.541,4.169-9.365-.185-6.828-4.725C30.108,75.223,36.08,69.4,40.16,73.149a4.428,4.428,0,0,1,3.8-2.167Zm34.857,1.7a1.3,1.3,0,1,1-1.3,1.3A1.3,1.3,0,0,1,78.817,72.679Zm-33.258.1a.407.407,0,0,0-.259.121c-.146.013-.462.557-1.255,1.479-1.379,1.6-1.528,1.617-1.528,1.617a3.638,3.638,0,0,0-3.418.392A6.539,6.539,0,0,1,36.473,74.9c-.7-.582-1.068-.708-1.189-.4-.129.332.186.66,1.518,1.569,1.843,1.257,1.729,1.161,1.729,1.161a4.959,4.959,0,0,0,.482,2.839,13.484,13.484,0,0,1-1.634,2.5,3.658,3.658,0,0,0-.674,1.173c0,.668.58.219,1.917-1.476.525-.664,1.244-1.615,1.244-1.615a3.615,3.615,0,0,0,3.107-.137s.338.252,1.2.936c1.568,1.253,1.907,1.387,2.1,1.228.259-.214.225-.284-.368-.715a13.9,13.9,0,0,1-2.377-2.025,4.557,4.557,0,0,0-.419-3.3s.028-.179,1.026-1.3a9.347,9.347,0,0,0,1.673-2.3.248.248,0,0,0-.244-.272Zm36.194.284,4.6,1.432-1.014,4.792-4.9-1.585Zm33.27,1.176,1.282,4.675-4.783,1.273-.783-4.962Zm3.358.078a1.3,1.3,0,1,1-1.3,1.3A1.3,1.3,0,0,1,118.381,74.314Zm10.872.167,4.02,3.587-4.462,2.26-2.15-4.675Zm-37.91,1.036,4.671.552-.19,5.032-5.36-.719Zm-16.2.055,5.2,2.287-1.875,5.249-5.322-2.291Zm13.4.407a1.305,1.305,0,1,1-1.3,1.305A1.306,1.306,0,0,1,88.535,75.979Zm16.805,0,.639,5.036-4.849.295-.1-5.117Zm3.335.575a1.3,1.3,0,1,1-1.3,1.3A1.3,1.3,0,0,1,108.675,76.558Zm-67.507.472a1.346,1.346,0,1,1-1.341,1.344A1.343,1.343,0,0,1,41.168,77.03Zm57.421-.049a1.3,1.3,0,1,1-1.3,1.305A1.3,1.3,0,0,1,98.589,76.981Zm22.84.323,1.89,5.175-5.3,1.712-1.5-5.315Zm3.718.139a1.3,1.3,0,1,1-1.3,1.305A1.3,1.3,0,0,1,125.147,77.443Zm9.16,1.468,3.424,2.427-1.7.947c-.444-1.067-1.229-2.332-1.727-3.374Zm-48.94.47,5.054,1.1-.77,5.307-5.516-1.1Zm-15.032.291,2.684,1.266-1.77,4.422-4.341-2.318Zm12,.287a1.305,1.305,0,1,1-1.3,1.3A1.3,1.3,0,0,1,82.334,79.959Zm29.192.292.9,5.307-5.7.8-.353-5.413Zm21.344.1a1.305,1.305,0,1,1-1.3,1.305A1.3,1.3,0,0,1,132.87,80.351Zm-4.043.039,1.886,4.679-5.577,2.337-1.65-4.682Zm-14.222.338a1.3,1.3,0,1,1-1.3,1.305A1.3,1.3,0,0,1,114.605,80.728ZM95.77,81.26l5.337.1-.062,5.366L95.2,86.56Zm42.685.373,2.1,1.46C118.95,97.019,88.6,98.746,64.917,85.038c0,0,.968-.967,1.518-1.534C87.786,96.313,118.956,94.516,138.455,81.633Zm-45.578.605a1.305,1.305,0,1,1-1.3,1.305A1.3,1.3,0,0,1,92.877,82.238Zm10.957.3a1.3,1.3,0,1,1-1.3,1.3A1.3,1.3,0,0,1,103.834,82.534Zm-25.419.718,5.573,1.615-.949,4.411-6.112-1.763Zm-3.687.031a1.3,1.3,0,1,1-1.3,1.3A1.3,1.3,0,0,1,74.728,83.283Zm43.289.939,1.332,4.951-6.162,1.32-.744-4.869Zm3.54.719a1.3,1.3,0,1,1-1.3,1.3A1.3,1.3,0,0,1,121.557,84.941Zm-80.5.769-.012,3.471c-1.022-.845-2.176-1.744-3.358-2.652a6.433,6.433,0,0,0,3.369-.819ZM28.363,85.8a14.529,14.529,0,0,0,1.723.225c2.51-.008,7.2.777,8.583,1.918a5.926,5.926,0,0,1,1.53,1.328c0,.292-.413.3-1.019-.078A15.163,15.163,0,0,0,33.5,87.461c-.468-.065-.526-.046-.527.174,0,.273.431.432,1.793.657a15.33,15.33,0,0,1,2.529.57c1.047.288.378.672-.7.775-4.4.413-7.692-1.484-8.355-3.652-.054-.142,0-.189.124-.19Zm61.284.078,5.534.718-.252,4.644-6.057-.695Zm-47.066.4c.967.761.3,3.068-.225,3.747-.341.382-1.139.179-1.135-.357.121-.482-.049-2.776.055-3.487a1.288,1.288,0,0,1,1.3.1Zm64.138.206.287,4.788-6.038.275.046-4.7Zm-20.372.323a1.3,1.3,0,1,1-1.3,1.3A1.3,1.3,0,0,1,86.347,86.805ZM52.7,86.871c.223,3.513-5.159,5.9-7.173,4.818-.892-.478-.521-.772,1.247-1.13,2.288-.607,3.794-1.2,3.8-1.627,0-.263-.346-.231-1.278.117-1.436.483-2.929.691-4.3,1.308-1.024.467-1.423.63-1.653.35-.483-.588,1.794-2.072,4.155-2.466,1.772-.3,3.559-1.243,5.206-1.37Zm57.349.438a1.3,1.3,0,1,1-1.3,1.305A1.3,1.3,0,0,1,110.05,87.309Zm-12.1.955a1.305,1.305,0,1,1-1.3,1.305A1.3,1.3,0,0,1,97.946,88.264Zm29,2.217c8.71,8.314,18.257,17.885,26.132,25.758-.011,4.12-.034,12.359-.034,12.359l-30.071,28.65a39.071,39.071,0,0,1-14.3-14.9,9.01,9.01,0,0,0,1.263-1.13l-1.568.94c-5.548-8.894-7.9-26.614,1.522-40.819l-9.52.35,1.553-3.25,10.364-.567,4.191-4.508s1.328-.246,2.428-.5,3.32-.891,4.954-1.421,3.024-.963,3.087-.963Zm-70.3,2.3a37.689,37.689,0,0,1,13.92,14.642C54.5,121.278,48.444,137.41,47.077,154.2c-8.743-8.2-13.161-12.733-21.061-20.694l.286-11.881Zm33.789,1.549a125.154,125.154,0,0,0-6.093,16.226l-2.49-.738s1.611-.675,2.328-1.1l-1.294-2.088,2.452-1.01-1.449-1.77,2.487-1.445-1.243-1.565L87.408,99.7l-1.414-1.631,2.39-1.335-1.247-1.561Zm.763.012s.32.061.7.136c.09-.035-.449,1.3-.391,1.347.87.179.92.131,1.181.21l.662-1.375,1.089.206a90.207,90.207,0,0,0-5.891,16.284l-1.283-.268s.375-1.24.376-1.406c-.15-.032-.872-.336-1.1-.427-.077.194-.535,1.631-.535,1.631l-1.014-.027a77.342,77.342,0,0,1,6.2-16.311Zm4.171.19,2.273,1.887-2.579,1.006L96.4,99.21l-2.734.99,1.568,1.852-2.707,1,1.615,2.24-2.816.951,1.778,1.969-2.541,1.192,1.523,1.51s-1.586.524-1.677.547a5.684,5.684,0,0,1-1.321-.2,88.421,88.421,0,0,1,6.282-16.73Zm-55.312.955c-.627.408-.269,1.3-1.057,2.058a1.7,1.7,0,0,0-.186.722c-.038.207-.66,2.688-.66,2.688a3.42,3.42,0,0,0,.407-.981c.212-.675.4-1.956.512-2.17.58-.178.668-2.076,1.257-1.816.34.15.275.46.083,1.188-.418,1.455-.583,2.068.136,1.076,1.074-1.3,1.179-2.467-.031-2.714a4.468,4.468,0,0,0-.461-.051Zm16.244.54L28.2,122.479l-.085,9.869,9.779,9.936,6.941,6.745c2.52-15.1,8.3-29.514,22.53-41.984A33.957,33.957,0,0,0,56.3,96.03Zm75.742.272c-16.51,7.778-20.307,23.732-15.194,38.174,7.868-10.144,14.043-19.674,15.194-38.174Zm-58.762.807,7.5,2.419-2.824,9.652-6.75-2.053-.69-1.709Zm57.933.253a59.809,59.809,0,0,1-14.02,35.406A28.216,28.216,0,0,1,131.212,97.362Zm-40.385.069-.472,1.2,1.038.3.442-1.219Zm-1.038,2.835-.426,1.219,1.065.361.4-1.239Zm44.231.221c-2.311,17.905-11.96,34.2-22.154,42.5A39.516,39.516,0,0,0,122.815,154.5l28.715-27.575-.112-9.2ZM58.139,105.24c-.177.654-.239.987-.239.987a6.649,6.649,0,0,1,1.2-.785c5.642-2.821,3.822,1.469,1.164,3.056-.594.317-1.205.693-1.205.693s.564.128,1.176.242c3.424.714,2.7,2.721-.876,2.409-.528-.046-1.148-.147-1.148-.117a13.126,13.126,0,0,0,.461,1.408c1.2,3.04-1.042,3.276-2.519,1.343-.206-.269-.672-1.011-.672-1.011s-.146.562-.235,1.1c-1.276,4.764-4.425,4.643-3.249-.191.147-.5.326-1.393.326-1.393a15.366,15.366,0,0,1-1.479.774c-4.077,1.825-4.739-.054-1.035-2.8,1.054-.782,1.411-1.089,1.411-1.089a10.783,10.783,0,0,1-1.8-.285c-2.955-.744-3.743-2.514.992-2.431.7.014,1.412.06,1.412.06s-.234-1.018-.48-1.785c-1.142-3.551,1.159-3.974,3.1-.792.414.676.532.681.532.681a7.026,7.026,0,0,1,.592-2.334c2.351-4.365,3.272-.381,2.561,2.255Zm50.784-3.534a39.987,39.987,0,0,0-4.513,10.588l-7.672-.132a41.27,41.27,0,0,1,3.5-10.083C103.366,101.994,106.183,101.856,108.923,101.706Zm-20.257,1.55-.441,1.285,1.111.341.4-1.25Zm-57.375,2.411a48.273,48.273,0,0,0-1.554,6.437c-.192,1.108,0,1.57.667,1.817a2.821,2.821,0,0,0,3.063-1.219c.429-.615.741-1.886.806-4.131l.074-2a19.767,19.767,0,0,1-3.056-.9Zm56.337.279-.368,1.181,1.073.4.411-1.191Zm49.692.443a4.163,4.163,0,0,1,2.731.85l2.281,2.353a3.152,3.152,0,0,0,2.173,5.428,5.509,5.509,0,0,0,2.207-.908l3.616,3.753c-2.108.926-4.171-1.2-4.948-2.046a1.1,1.1,0,0,1-.229-.333,1.4,1.4,0,0,1-.043.52c-.3,1.671-1.947,6.6-3.519,6.341-1.771-.3.032-7.347.051-7.185-1.218,1.29-7.15,2.664-6.734,1.223.825-2.861,5.262-3.964,5.846-4.461-2.359-1.423-5.351-5.369-3.432-5.535Zm-105.743.092a5.339,5.339,0,0,1,1.778.358c.238.064.249.263.275.451.008.845.216,3.325-.565,3.35a3.608,3.608,0,0,0-2.255.606c-.459.352-.611.1-.488-.8.121-.873.554-2.708.74-3.451a.534.534,0,0,1,.515-.51Zm23.444.032a3.153,3.153,0,1,0,3.145,3.153A3.15,3.15,0,0,0,55.021,106.513Zm0,1.1a2.048,2.048,0,1,1-2.045,2.05A2.048,2.048,0,0,1,55.021,107.616Zm16.227.038c7.209,12.474,6.373,29.6-2.125,42.05l9.137-.64-1.2,2.345-9.741.951c-1.488,1.366-2.843,2.927-4.307,4.387l-.015.517a87.961,87.961,0,0,0-10.085,2.9c-1.8-1.769-5.176-5.305-5.154-5.394l.217-1.144c23.166-11.848,16.389-35.61,14.758-37.564a70.045,70.045,0,0,1,8.516-8.41Zm64.3,2.268a1.7,1.7,0,1,1-1.7,1.7A1.7,1.7,0,0,1,135.543,109.922Zm7.552.458,2.847,2.939a2.046,2.046,0,1,1-2.847-2.939Zm-97.776.365a1.7,1.7,0,1,1-1.7,1.7A1.7,1.7,0,0,1,45.319,110.745Zm-12.642.715c.8.266.61,1.012-.418,1.667a1.739,1.739,0,0,1-1.859.2C29.291,112.736,31.592,111.071,32.677,111.46Zm13.134,4.17-10.237,9.928a14.237,14.237,0,0,0,.717-4.943c3.08.318,4.369-1.248,3.919-4.473a18.3,18.3,0,0,0,5.6-.512Zm16.4,1.133c4.747,13.568.624,27.926-14.222,36.241C48.6,140,54.046,127.574,62.213,116.763Zm13.521,1.188a108.356,108.356,0,0,0,27.05,3.142,64.251,64.251,0,0,0,1,11.306,100.982,100.982,0,0,0-27.371-2.974c.415-3.882-.25-8.285-.678-11.474Zm60.413,2.008-8.676,10.169.364-5.553c2.922.373,3.963-1.172,3.532-4.224A15.238,15.238,0,0,0,136.147,119.959Zm-84.3.563-.685,4.061c-1.732.047-3.432.663-3.409,4.539l-5.174-.062Zm95.479.749a1.7,1.7,0,1,1-1.7,1.7A1.7,1.7,0,0,1,147.324,121.271Zm-103.349.517a1.7,1.7,0,1,1-1.7,1.7A1.7,1.7,0,0,1,43.975,121.788Zm99.558,1.747-.907,6.15c-2.363-.208-4.336.157-3.729,4.325a40.447,40.447,0,0,0-6.639.439Zm-8.471,1.114a1.7,1.7,0,1,1-1.7,1.7A1.7,1.7,0,0,1,135.062,124.649Zm-103.543,1.32a1.7,1.7,0,1,1-1.7,1.705A1.7,1.7,0,0,1,31.519,125.969Zm5.635,2.015c2.171.489,1.167,5.56.678,6.939-.037.037,6.055-3.2,6.418-1.771.238,2.865-5.043,4.861-5.043,4.861s3.559,3.1,3.66,5.048c.009,1.26-1.488,1.027-3.431-.571-.831-.818-1.474-1.431-2.045-2a3.15,3.15,0,1,0-4.45-4.431c-.451-.435-.961-.942-1.647-1.592-1.122-1.052-1.91-1.888-1.8-2.267,1.482-1.045,4.428,1.763,4.691,2.019C33.967,133.672,35.6,128.276,37.154,127.984Zm-2.966,6.236c.012.029.028.047.05.047Zm92.512-2.275c1.032-.015.968,2.341.6,3.564-.252.933-.5,1.7-.5,1.7a10.768,10.768,0,0,1,1.255-.862c2.809-1.319,3.856.174,2.44,1.906-.681.891-1.609,1.089-2.363,1.837a7.262,7.262,0,0,1,3.234.834c.722.433,1.288.957,1.286,1.282,0,.728-1.786,1.12-3.454.932a9.7,9.7,0,0,1-2.046-.365,12.02,12.02,0,0,1,.756,1.491c.623,1.732.4,3.762-.5,3.758-1.507-.4-2.242-2.083-2.831-3.289a9.086,9.086,0,0,1-2.03,3.782c-1.068.991-1.616.168-1.561-1.51a22.611,22.611,0,0,1,.512-2.66c-6.328,2.142-5.858-.756-.92-3.293-3.042-1.454-4.89-2.762.284-3.059-.137-.124-1.04-2.9-.073-3.553.9-.6,2.813,1.472,2.905,1.573a7.263,7.263,0,0,1,1.413-2.955c.7-.791,1.215-1.105,1.588-1.11Zm-5.833,6.045c.008.006.013.006.016,0Zm27.7-1.835c-1.1.1-1.787,1.081-2.3,1.936-.1.173-.294.235-.365.464a28.949,28.949,0,0,0-1.1,5.437,5.7,5.7,0,0,0,2.969.512c.2-.083.135-.59.2-.758a19.187,19.187,0,0,0,1.642-6.12C149.619,136.6,149.267,136.091,148.568,136.155Zm-113.226-.126a2.049,2.049,0,0,1,1.27,3.654c-1.317-1.317-1.991-2.006-2.874-2.873A2.039,2.039,0,0,1,35.342,136.029Zm113.616.976c.276.673-.612,1.4-1.761,1.4-.684,0-.906.094-.6-.5.362-.722,1.834-2.185,2.363-.9Zm-15.418-.475a1.7,1.7,0,1,1-1.7,1.705A1.7,1.7,0,0,1,133.54,136.53Zm-89.627.121a1.7,1.7,0,1,1-1.7,1.7A1.7,1.7,0,0,1,43.913,136.651Zm80.382.691a3.153,3.153,0,1,0,3.145,3.152A3.15,3.15,0,0,0,124.3,137.342Zm-42.031.423a52.092,52.092,0,0,1-3.706,10.541c-3.032.184-6.309.325-8.471.633,3.6-6.32,3.687-7.806,5.02-11.155Zm5.21.512c.851.1,1.784.23,2.626.393a98.955,98.955,0,0,1-6.236,16.462l-1.6-.248-.759-.94,2.541-1.017-1.98-2.027,3.281-.994-2.018-2,3.242-.811-1.736-2.112,2.909-1.138L85.9,141.457,89,140.6Zm36.821.167a2.049,2.049,0,1,1-2.045,2.05A2.049,2.049,0,0,1,124.3,138.444Zm-33.615.311,1.081.175-.333,1.161,1.232.264.4-1.254a6.588,6.588,0,0,1,1.1.17c-1.29,5.272-5.852,16.3-5.91,16.246l-1.173-.175.309-1.115-1.092-.155v-.012l-.527,1.212-1.165-.1a114.812,114.812,0,0,0,6.084-16.42Zm57.407.419c.867,0,.814.444.186,2.081-.589,1.539-.81,2.155-1.1,2.354-.683.486-2.153.079-2.034-.629.387-2.3.525-3.279,1.116-3.591A9.644,9.644,0,0,1,148.087,139.174Zm-53.061.191,2.82.547-2.359,1.406,1.5,1.755-2.9,1.238,1.758,1.825-2.8,1.145,1.7,2.008-2.9,1.227,1.975,1.716-3.261,1.033,1.236,1.9-1.228.687-1.514-.237c2.513-5.878,4.129-10.714,5.968-16.252Zm6.929,1.405,5.523,1.507,1.1,1.976-2.591,8.771-7.359-2.167Zm-10.976.847-.527,1.44,1.216.252.469-1.483Zm-1.069,3.308-.527,1.44,1.143.225.538-1.456Zm-1.077,2.908-.538,1.432,1.111.229.531-1.436Zm51.89,2.636a6.254,6.254,0,0,0-.712.591c.123.329.479.834.426,1.166-.049.249-.326.45-.743.9-1.039,1.213-1.405,1.081-.8-.214a4.185,4.185,0,0,0,.286-.784,8.487,8.487,0,0,0-.585,1.055c-.343.662-.662,1.287-.662,1.287a5.542,5.542,0,0,1,1.53,1.043s.217-.587.368-1.148a1.989,1.989,0,0,1,1.131-1.375,3.074,3.074,0,0,0,.625-.479,5.12,5.12,0,0,1-.863-2.037Zm-53.04.353-.57,1.526,1.108.272.616-1.557Zm-62.489,3.836c-.1,6.077.1,10.077-.112,16.63l16.41,21.32-2.56.862s-.028.3-.166.334c-3.507.967-9.195,1.929-9.195,1.929,4.23,9.684,6.974,21.793,5.081,33.889l42.473-.113Zm89.825,10.3-1.464,1.472c-21.6-11.719-51.349-11.673-73.058,2.516l-1.77-1.3c23.694-15.217,52.844-15.122,76.292-2.687ZM25.988,156.79l49.99,71.989-5.872.086-44.075-57.8Zm107.281,1.3s-1.444.375-2.657.765c-3.473,1.115-5.1,3.128-4.779,5.925.094.826.308.814,1.723-.082,3.312-2.1,3.52-2.189,7.645-3.4a2.207,2.207,0,0,1,.783-.023l-.182,3.265c-6.878-.026-6.5,5.45-4.524,8.3-.693,1.317-2.208,5.913,2.781,7.661a6.47,6.47,0,0,0,5.042-1.635c4.59,2.176,9.917-1.472,5.764-7.792,1.561-2.757.46-4.8-1.03-6.562,0,0,.251.022,2.424.423a20.1,20.1,0,0,0,4.555.5c.008-2.973-2.452-4.3-7.576-4.706C139.61,161.24,133.269,158.065,133.269,158.091Zm-55.339.345c.248,0,.494,0,.74,0l-.24,5.079-5.581.256-.364-5.059c1.922-.133,3.708-.274,5.445-.28Zm6.689.125,5.988.73-.906,4.748-5.516-.594Zm48.542.058c.5.057.337.631-.341.765-1.077.211-3.837,1.822-3.839,2.24,0,.27.136.231,1.147-.311a25.187,25.187,0,0,1,2.339-1.028c.78-.3,1.673-.656,1.983-.8.928-.42,1.388-.13,1.054.664-.221.524-.309.565-2.46,1.25a11.139,11.139,0,0,0-3.54,1.572c-.461.3-1.278.769-1.816,1.049-1.271.66-1.529.662-1.526-.226-.069-2.63,2.833-4.6,6.766-5.171a.7.7,0,0,1,.234-.008Zm-51.8.613a1.359,1.359,0,1,1-1.356,1.359A1.358,1.358,0,0,1,81.362,159.232Zm-14.815.361.446,4.609-5.488,1.413-1.255-4.76c2.1-.515,4.2-.878,6.3-1.262Zm70.7.35c1.5.229,1.385,3.683.615,4.282-1.184.855-1.911-.932-1.382-3.3.148-.713.423-.962.766-.978Zm-67.586.186a1.359,1.359,0,1,1-1.355,1.359A1.358,1.358,0,0,1,69.661,160.129Zm26.81.4,6.2,1.7-1.519,4.815-5.821-1.643Zm-3.378.093a1.359,1.359,0,1,1-1.355,1.359A1.358,1.358,0,0,1,93.093,160.618Zm50.757.4c2.673.028,6.2,1.372,6.205,3.444-.054.589-5.6-.193-8.161-1.227-.908-.366-2.016-1.483-2.014-1.949,0-.277.543-.257.763.012.361.439,1.638.9,4.571,1.638,2.253.569,2.477.592,2.479.249,0-.312-1.331-.742-2.774-.982a24.127,24.127,0,0,0-2.517-.435c-.52,0-.647-.329-.213-.552a5.772,5.772,0,0,1,1.662-.2Zm-4.721,1.072c.674.317.918.949,1.29,1.281a3.031,3.031,0,0,1-1.418.5,4.809,4.809,0,0,1,.128-1.778Zm-81.253.373a1.359,1.359,0,1,1-1.356,1.359A1.357,1.357,0,0,1,57.876,162.467Zm-3.649.384,1.464,4.706-5.244,2.287-1.859-4.663A46.6,46.6,0,0,1,54.227,162.851Zm24.249.769s4.178,0,5.62.023l-.336,5.312-5.214.038Zm-5.581.291.291,5.3-5.02.675-.991-5.334Zm31.737.047a1.359,1.359,0,1,1-1.356,1.358A1.357,1.357,0,0,1,104.632,163.958Zm36.318.124c3.056.013,5.971,3.538,2.951,7.229,4.953,3.821-.432,10.243-4.81,6.5-6.261,6.165-9.76-2.206-7.17-4.426-3.826-6.3.875-10.286,5.725-7.506A3.95,3.95,0,0,1,140.95,164.082Zm-51.16.151L95.3,165.46l-1.108,5.246-5.38-1.095Zm18.227.128,5.035,2.509-3.9,3.766-2.9-1.448Zm-32.282.594a1.359,1.359,0,1,1-1.356,1.359A1.358,1.358,0,0,1,75.735,164.955Zm10.879.171a1.359,1.359,0,0,1,0,2.718,1.358,1.358,0,0,1,0-2.718Zm-25.078.765,1.227,5.246-5.1,1.727-1.825-5.109Zm3.5.373a1.359,1.359,0,1,1-1.356,1.359A1.357,1.357,0,0,1,65.041,166.264Zm75.506,2.419c-.384.478-.888,1.041-.888,1.041a3.49,3.49,0,0,0-3.322.251s-.875-.7-1.674-1.347c-1.384-1.121-1.845-1.377-1.847-.908a4.91,4.91,0,0,0,1.042,1.068,12.071,12.071,0,0,1,1.88,1.821,3.307,3.307,0,0,0,.345,3.188s.03.133-.518.713c-1,1.051-2.02,2.675-1.784,2.914.294.3,1.124-.415,2.167-1.827.743-1.007.967-1.029.967-1.029,1.268.343,1.97.654,3.237-.4a4.973,4.973,0,0,1,1.433.936c1.489,1.231,2.023,1.5,2.185,1.079.132-.341-.064-.568-1.325-1.53-.821-.626-1.733-1.359-1.733-1.359a3.105,3.105,0,0,0-.46-3.083s.036.071,1.393-1.692c.9-1.173,1.06-1.322.76-1.573-.4-.523-1.724,1.565-1.859,1.732Zm-39.339-1.5,4.969,2.093L104.4,174.48l-4.8-1.965Zm-54.677.35a1.359,1.359,0,1,1-1.355,1.359A1.357,1.357,0,0,1,46.531,167.53Zm50.835.139a1.359,1.359,0,1,1-1.356,1.359A1.358,1.358,0,0,1,97.366,167.669Zm-54.3.373,1.627,4.038-3.7-2.764Zm40.78,1.041,4.95.586-.783,4.729-4.268-.388Zm-5.4.011-.051,4.862-4.7.2-.4-4.853Zm-24.191.886a1.359,1.359,0,1,1-1.356,1.359A1.357,1.357,0,0,1,54.247,169.98Zm-3.75.1,1.914,4.884L49.444,176.4l-3.978-3.774Zm17.7.062.767,4.647L64.057,176l-1.189-4.729Zm70.084.046a1.938,1.938,0,1,1-1.933,1.938A1.936,1.936,0,0,1,138.277,170.185Zm-57.372.148a1.359,1.359,0,1,1-1.355,1.359A1.357,1.357,0,0,1,80.905,170.333Zm13.355.5,5.228,1.7-1.758,4.2L93.214,175.5Zm-23.173.174a1.359,1.359,0,1,1-1.356,1.359A1.358,1.358,0,0,1,71.087,171.008Zm19.88.5a1.359,1.359,0,1,1-1.355,1.359A1.358,1.358,0,0,1,90.967,171.509Zm-33.2,1.592,1.8,4.155-4.918,2.131-2.142-4.236Zm3.486.249a1.359,1.359,0,1,1-1.356,1.359A1.357,1.357,0,0,1,61.253,173.35ZM79.375,174.6a55.467,55.467,0,0,1,21.217,4.1l-1.743,1.638c-18.981-6.538-31.393-3.592-44.122,2l-1.286-1.592A58.878,58.878,0,0,1,79.375,174.6Zm21.473.05a1.359,1.359,0,1,1-1.356,1.359A1.358,1.358,0,0,1,100.848,174.654Zm-49.464,2.982c1.089.065,1.193,2.1.686,1.515l-1.212-1.406A1.157,1.157,0,0,1,51.384,177.636Zm50.742.843c-.04,1.545-1.5,11.9-6.426,19.017a50.468,50.468,0,0,0-2.134-10.778S98.866,181.808,102.126,178.479Zm-63.012,15.69,25.632,34.649-2.691-.02a16.85,16.85,0,0,0-2.975-7.093,12.113,12.113,0,0,0-4.787-3.832c-1.4-.639-1.581-.5-1.669-1.581-.423-6.06-5.318-9.871-9.067-11.322a14.038,14.038,0,0,0-6.147-10.3Zm-2.5.829c2.342,1.614,4.909,3.014,6.292,9.375.1,1.33.185,1.188,1.228,1.58,4.085,1.2,7.638,6.122,7.955,10.425,0,1.3.419,1.413,2.014,2.085a12.641,12.641,0,0,1,5.143,4.286,14.1,14.1,0,0,1,2.169,6.03l-1.409.008c-1.006-6.339-4.984-8.867-9.192-10.051.327-8.949-6.613-11.742-9.037-12.162.142-6.446-4.018-9.1-6.7-11.267a8.044,8.044,0,0,1,1.54-.308Zm-4.146.889c2.1.687,3.686,3.616,3.524,4.964,2.766.349,5.671,3.029,5.034,5.82a.677.677,0,0,1-.848-.178c.742-5.415-7.323-2.734-4.1,1.184l-1.441.943a67.226,67.226,0,0,0-4.134-12.4C31.072,196.066,32.472,195.887,32.472,195.887Zm6.677,11.355a1.3,1.3,0,1,1-1.3,1.3A1.3,1.3,0,0,1,39.149,207.242Zm6.923,5.845a5.581,5.581,0,0,1,3.975,5.135l-.673-.015c-1.083-4.951-6.712-2.258-4.362,1.69-3.009,1.115-2.772,3.9-1.886,5a3.207,3.207,0,0,0,5.291-.866c2.926,3.793,6.962-.464,3.4-4,2.916,1.077,3.384,4.994,2.946,6.218a5.965,5.965,0,0,1,2.7,2.6l-21.852,0s1.058-8.84-.066-15.511c1.454.35,2.429.7,4.1-1.266,2.707,2.247,4.652.551,4.512-1.39a3.656,3.656,0,0,0-2.068-2.749c2.369-.584,4.161,3.524,3.975,5.146Zm2.438,6.228a1.34,1.34,0,1,1-1.336,1.339A1.338,1.338,0,0,1,48.51,219.315Z"/><path id="ac164052-6eec-4fd9-b602-5bef8c479530" data-name="path7198-0" d="M14.609,56.477a45.069,45.069,0,0,0-5.82-8,45.069,45.069,0,0,0,5.82-8,45.124,45.124,0,0,0,5.821,8A45.124,45.124,0,0,0,14.609,56.477Z" fill="#d40000"/><path id="7ce2221a-84a7-48a8-94f2-39ce0a5c27df" data-name="path7202-9" d="M164.971,209.969a45.119,45.119,0,0,0-5.82-8,45.119,45.119,0,0,0,5.82-8,45.119,45.119,0,0,0,5.82,8A45.119,45.119,0,0,0,164.971,209.969Z" fill="#d40000"/><path id="c49f2ab0-486a-4879-a26d-c049fabffabc" data-name="path7204-2" d="M48.562,65.054c-4.149-6.851-8.514-13.511-13.969-19.2,5.455-5.688,9.82-12.348,13.969-19.2,4.149,6.852,8.514,13.512,13.968,19.2C57.076,51.543,52.711,58.2,48.562,65.054Z" fill="#d40000"/><path id="f8f9ada7-7a66-4f58-ba3b-8fe3d3fbe84f" data-name="path7222-2" d="M131.018,223.8c-4.149-6.852-8.514-13.511-13.968-19.2,5.454-5.689,9.819-12.348,13.968-19.2,4.149,6.852,8.514,13.511,13.969,19.2C139.532,210.29,135.167,216.949,131.018,223.8Z" fill="#d40000"/><path id="eb1c818a-46e4-4baf-9525-f23f6344959d" data-name="path37-2-1-6-5" d="M8.794,29.233H6.588V26.225H8.794s.017-1.62.081-4.479c.136-6.094.289-7.04,2.053-8.717,3.483-3.315,9.317-.614,9.248,4.37-.1,7.035-.028,13.742-.233,14.692-.365,1.673-.4,1.767-.253,2.073.3.614,2.94.88,2.94.708v2.963a5.451,5.451,0,0,1-4.459-1.183,6.617,6.617,0,0,1-6.5.8c-1.851-.871-3.254-3.123-2.876-8.217Zm7.457,5.25c-1.093-1.579-2.933-3.735-4.664-4.5-.108,1.816.049,3.34.687,4.159a2.541,2.541,0,0,0,3.977.342Zm.908-17.375c-.812-2.3-2.9-3.078-4.42-1.639-.952.894-1.105,1.836-1.125,6.951C11.6,25.576,11.6,26.9,11.6,26.9c2.965.962,5.737,4.419,5.714,4.374l.072-9.543a26.844,26.844,0,0,0-.229-4.625Z" fill="#d40000"/><path id="4649f2f8-1abb-4808-8a9e-cad14e298906" data-name="path37-3-27-1-5" d="M170.786,221.213h2.206v3.008h-2.206s-.017,1.62-.08,4.479c-.137,6.094-.289,7.04-2.053,8.717-3.484,3.315-9.318.614-9.249-4.37.1-7.035.028-13.742.233-14.692.366-1.673.4-1.767.254-2.073-.306-.614-2.941-.88-2.941-.708v-2.963a5.453,5.453,0,0,1,4.46,1.183,6.615,6.615,0,0,1,6.5-.8c1.851.871,3.255,3.123,2.876,8.217Zm-7.457-5.25c1.093,1.579,2.933,3.735,4.664,4.5.108-1.817-.049-3.34-.687-4.159a2.541,2.541,0,0,0-3.977-.342Zm-.907,17.375c.811,2.3,2.9,3.078,4.419,1.639.953-.894,1.1-1.836,1.126-6.951.011-3.156.011-4.482.011-4.482-2.965-.962-5.737-4.419-5.713-4.374l-.072,9.543a26.744,26.744,0,0,0,.228,4.625h0Z" fill="#d40000"/></g><rect id="d7a010a5-1d94-4227-a7d6-11eac7daca03" data-name="rect16722" x="0.498" y="0.498" width="178.583" height="249.449" rx="8.504" ry="8.504" opacity="0.08" fill="url(#915a8324-e31d-4926-a7b7-3c78dfbbaf89)" style="isolation:isolate"/></g></g></g></svg>