<svg xmlns="http://www.w3.org/2000/svg" xmlns:xlink="http://www.w3.org/1999/xlink" viewBox="0 0 179.576 250.442"><defs><pattern id="3e220a94-00c5-47b9-8e72-31b1f763d8a3" data-name="pattern17788" width="595.276" height="841.89" patternTransform="matrix(0.8, 0, 0, -0.8, -615.4, 1531.539)" patternUnits="userSpaceOnUse" viewBox="0 0 595.276 841.89"><rect width="595.276" height="841.89" fill="none"/></pattern></defs><title>QH</title><g id="1dd53dd5-c60c-4442-9dae-8690ad2c90a6" data-name="Layer 2"><g id="7a003738-8786-477d-99a8-e211bed3dfe8" data-name="Hearts"><g id="e8e91ea1-ddc2-49c3-be83-09f8e6f1de13" data-name="QH"><g id="d65d164e-45d5-4bc3-8c62-c49f4c95744f" data-name="g101385"><rect id="69131b0c-ad11-4fa0-9037-17500c5346e0" data-name="rect5927" x="0.496" y="0.496" width="178.583" height="249.449" rx="8.504" ry="8.504" fill="#fff" stroke="#b3b0b0" stroke-width="0.993"/><path id="47650aea-9335-4ae5-9dc7-1bff40848ffc" data-name="path10446-4-8" d="M14.271,56.475s-1.78-2.552-4.181-5.552c-1.606-2.008-2.89-4.182-3.009-6.054a3.878,3.878,0,0,1,3.505-4.389c2.345-.1,3.3,1.649,3.685,3.094.387-1.445,1.339-3.2,3.684-3.094a3.878,3.878,0,0,1,3.506,4.389c-.119,1.872-1.4,4.046-3.01,6.054-2.4,3-4.18,5.552-4.18,5.552Z" fill="#d40000"/><path id="a74bc207-21b4-4515-b3e5-ab53506cc7b3" data-name="path10448-8-7" d="M165.306,193.967s-1.78,2.552-4.18,5.552c-1.607,2.008-2.891,4.182-3.01,6.054a3.878,3.878,0,0,0,3.5,4.389c2.346.1,3.3-1.649,3.685-3.094.388,1.445,1.339,3.2,3.685,3.094a3.878,3.878,0,0,0,3.5-4.389c-.119-1.872-1.4-4.046-3.009-6.054C167.086,196.519,165.306,193.967,165.306,193.967Z" fill="#d40000"/><path id="8c5c32fe-aaa3-4bd9-80ba-2ce43452a21c" data-name="path37-2-5-5-0" d="M8.455,29.231H6.248V26.223H8.455s.016-1.62.08-4.479c.137-6.094.289-7.04,2.053-8.717,3.484-3.315,9.318-.614,9.249,4.37-.1,7.035-.028,13.742-.234,14.692-.365,1.673-.4,1.767-.253,2.073.306.614,2.941.88,2.941.708v2.963a5.453,5.453,0,0,1-4.46-1.183,6.615,6.615,0,0,1-6.5.8c-1.852-.871-3.255-3.123-2.876-8.217Zm7.457,5.25c-1.094-1.579-2.934-3.735-4.665-4.5-.108,1.817.049,3.34.687,4.159a2.541,2.541,0,0,0,3.977.342h0Zm.907-17.375c-.812-2.3-2.9-3.078-4.42-1.639-.953.894-1.1,1.836-1.125,6.951-.012,3.156-.012,4.482-.012,4.482,2.965.962,5.737,4.419,5.713,4.374l.073-9.543a26.744,26.744,0,0,0-.229-4.625Z" fill="#d40000"/><path id="927e4e39-bdcc-4b28-a73a-7dbade89ecd5" data-name="path37-3-27-3-0-9" d="M171.12,221.211h2.206v3.008H171.12s-.017,1.62-.081,4.479c-.136,6.094-.289,7.04-2.053,8.717-3.483,3.315-9.317.614-9.248-4.37.1-7.035.028-13.742.233-14.692.365-1.673.4-1.767.253-2.073-.3-.614-2.941-.88-2.941-.708v-2.963a5.452,5.452,0,0,1,4.46,1.183,6.617,6.617,0,0,1,6.5-.8c1.851.871,3.254,3.123,2.875,8.217h0Zm-7.457-5.25c1.093,1.579,2.933,3.735,4.664,4.5.108-1.816-.049-3.34-.687-4.159a2.541,2.541,0,0,0-3.977-.342Zm-.907,17.375c.811,2.3,2.9,3.078,4.419,1.639.953-.894,1.1-1.836,1.126-6.951.012-3.156.012-4.482.012-4.482-2.966-.962-5.738-4.419-5.714-4.374l-.072,9.543a26.744,26.744,0,0,0,.228,4.625h0Z" fill="#d40000"/><path id="fb44f014-ee8d-4f3a-9be1-3913c63f166e" data-name="path3054-4-0-3" d="M155.388,19.621H24.188v211.2h131.2Zm-16.167,1.7h14.1v81.422s-1.163-.025-1.083-.594a4.211,4.211,0,0,0-.541-2.789,5.584,5.584,0,0,1-.733-.94,3.852,3.852,0,0,0-1.437-1.681c-.237-.1-.512-.157-.548-.323s-.111-.66-.213-1.126c-.253-1.167-.479-1.13.259-2.291,2.558-4.023,3.543-7.724,3.22-11.394a12.841,12.841,0,0,0-.522-2.835c-2.472,2.492-4.262,5.571-5.945,7.846a78.859,78.859,0,0,1-.375-8.309,3.671,3.671,0,0,0,2.688-2.894s1.415,1.115,2.282.956l-.571-2.1c3.786-1.168,4.3-6.137-.167-7.187l.4-2.617s-1.349.454-1.942.746c-.3.125-.369.026-.576-.4-2.085-3.262-5.323-2.568-6.75.648l-1.746-.745a7.012,7.012,0,0,1,.255,2.683c-3.663,1.641-2.758,6.131.167,6.719l-.255,2.1,2.2-.714a3.351,3.351,0,0,0,1.915,2.664c-.043,4.4-.114,7.144.024,11.049a18.124,18.124,0,0,0-8.384-5.2,13.7,13.7,0,0,0,.189,2.385c.074.474.06.4-.162.4-.5-.012-2.777-3.686-2.777-3.686a.774.774,0,0,0-.494.233c-.271.27.348.769,1.217,2.066,1.016,1.519.918,1.454.119,2.136-4.541,3.875-11.1,18.625-10,20.059-2.871.173-14.06,5.69-16.092,17.066-.12.512-.359,1.176-.359,1.176l-3.236-.808c1.952-9.316,6.356-28.261,6.356-28.261a39.292,39.292,0,0,1,4.909-1.08l-.02-.734-4.263,1,.2-1.623,4.024-.8-.012-.385-4.259.575.695-2.7s-9.562,1.412-12.987,1.309c.217,10.511-.608,19.243-.164,30.571l-4.675-2.849c-.416-7.887-.54-27.808-.54-27.808L79.719,90.213l.428,3.13c-10.7-4.266-21.435-8.19-29.339-16.529,4.866-3.755,12.987-7.48,12.987-7.48l-.266-.6C43.561,79.089,36.317,86.281,26.284,95.2V21.324H80.339l-.182,13.539a1.452,1.452,0,0,1-.174.47c-.666,3.259,1.247,9.044.862,11.86a13.984,13.984,0,0,1,.115,2.486,40.82,40.82,0,0,0-6.426,13.946c-.56.224-1.386.685-1.969.843l-.166.711a42.445,42.445,0,0,1,4.9-1.857c16.126,7.907,27.976,5.972,40.66.1-2.023,7.138,2.374,16.216,9.608,18.125a7.336,7.336,0,0,0,3.054.19c.81-.235-1.823-6.294-2.989-6.521-3.494-1.522-4.933-5.1-4.56-9.2l-.58-.979c-1.191,4.983,1.676,10.043,5.612,11.278l1.058,2.323c-7.134-2.152-10.172-8.87-7.8-15.512.042-4.144-2.629-5.977-3.854-7.763-6.2-2.38-7.357-8.158-6.271-12.828,2.888,1.235-1.947-4.1-1.947-4.1-2.127,4.633-3.016,10.491,1.85,16.428A42.466,42.466,0,0,1,99.4,65.206c-6.631,3.48-11.606,1.135-14.809-6.571a35.566,35.566,0,0,1-2.6-14.071c.011-2.991.044-3.082,1.158-2.575a6.441,6.441,0,0,0,4.673-.159c1.847-.958,1.76-.375-.251,1.7a10.144,10.144,0,0,0-1.132,1.185c0,.614.859.1,2.086-1.127.448-.446.779-.876.919-.87.16.008.146.583-.039,1.2-.07.239-.3,1.247-.5,2.237s-.488,2.154-.625,2.587c-.546,1.717-.4,2.514,1.24,3.307A12.844,12.844,0,0,1,91.839,53.9a7.6,7.6,0,0,1-.222-2.063c.157-.6.871-.177,1.6.172,1.607.772,2.542.794,3.405.07A2.368,2.368,0,0,0,96,48.25c-1.079-.43-1.268-.032-.191.723,1.617,1.134-.206,2.886-1.579,1.8-1.073-.85-2.938-.945-3.146-.238-.2.669-.4.548-1.143.111-1.155-.679-1.165-.8-.2-4.544,1.833-7.093,1.654-9.7-.776-11.853a6.584,6.584,0,0,0-7.851-.563V31.27c4.524-1.818,7.815-4.911,10.469-9.946H92.1c2.642,5.754,6.913,9.972,14.948,13,3.14,3.117-3.979-8.954-1.707-4.012a19.708,19.708,0,0,1-10.156-8.991h1.162a21.862,21.862,0,0,0,8.125,7.356c1.925.012-2.835-5.865-3.525-7.356h37.037c-1.175,9.072-2.83,18.779,3.683,36.447-3.055-1.613-15.3,1.824-13.148,2.5,1.083-1.256,8.888-3.111,14.663-1.74-.477-.415-8.807-19.895-3.962-37.21Zm3.963,37.21c.01.01.02.014.023,0ZM114.568,93.542l.035,1.421.293-.07-.17-1.382ZM81.13,21.324h1.625a4.084,4.084,0,0,1-1.672,1.833Zm2.8,0h1.75a13.153,13.153,0,0,1-4.561,4.622l.031-1.709a22.947,22.947,0,0,0,2.781-2.913Zm2.893,0h1.614c-2.191,3.385-4.439,5.743-7.318,7.181V27.122A24.912,24.912,0,0,0,86.818,21.324Zm2.464,0h1.305a18.4,18.4,0,0,1-9.473,9.006V29.3a19.757,19.757,0,0,0,8.168-7.973Zm3.568,0h1.568a22.03,22.03,0,0,0,11.527,10.234l.749,1.743c-6.469-2.335-10.753-5.828-13.844-11.977Zm4.537,0h1.12a16.581,16.581,0,0,0,4.271,4.191l1.016,1.976A20.873,20.873,0,0,1,97.387,21.324Zm2.043,0h1.251l1.657,2.928c-1.1-.623-1.94-1.977-2.908-2.928ZM97.994,32.571a6.855,6.855,0,0,0-4.407,1.4c-1.193.978-.315,2.044,1.4,1.242,2.925-1.366,6.286-.75,9.913,1.247,3.054,1.681,1.984-.071-.865-1.942A11.165,11.165,0,0,0,97.994,32.571Zm-13.8,2.2c2.461.02,5.28,1.116,5.349,2.567a7.981,7.981,0,0,0-8.059-.629c-.241-.051-.275-.912-.132-1.227A4.827,4.827,0,0,1,84.2,34.773Zm14.9.936A4.563,4.563,0,0,0,95.464,37c-.336.417-.425.462-.8.4-.724-.121-.684.3.142,1.452a1.569,1.569,0,0,1-.2,1.954c-.615.87-.5.9,1.336,1.786a41.079,41.079,0,0,1,3.8,2.459c.908.515,1.09.061.251-.618-.288-.233-1.141-.846-1.908-1.348-1.3-.85-2.253-1.71-1.22-1.328a6.25,6.25,0,0,0,1.116.3,9.551,9.551,0,0,0,3.784.225,6.479,6.479,0,0,0,2.719-1.448c.22-.1.438.008.973.027,2.046.08,1.594-.524-1.344-2.136-2.907-1.595-5.188-1.886-7.048-1.01-.787.371-1.238.464-1.123.229a1.745,1.745,0,0,1,.691-.734c3.006-1.808,5.421-.309,8.071,1.049,1.137.681,1.444.859,1.579.641.173-.279-1.267-1.309-3.2-2.284a8.963,8.963,0,0,0-3.981-.909ZM89.492,37.8c.509.2.281.785-.184.6-2.775-1.253-3.332-1.864-6.641-.7-1.093.384-1.526.045-.185-.534C85.405,35.937,87.526,36.766,89.492,37.8Zm-1.9,1.474c-.752,3.841-4.554,2.657-4.124.02l.7.008c.054,2.319,2.366,2.3,2.761.023Zm22.108.008,1.024,2.2a11.312,11.312,0,0,0,7.41,14.8s1.067,1.648.858,1.857C106.58,55.384,107.535,43.487,109.7,39.286Zm-11.755.144.348.019c1.072,2.677,2.628,1.139,2.931.008l.792.02c-.242,2.772-4.424,3.243-4.071-.047Zm-9.565.078c.5-.059.673.7.533.839-.039.038-.958.936-1.07.408a1.026,1.026,0,0,1,.536-1.247Zm-5.789.078a.737.737,0,0,1,.131.008,1.323,1.323,0,0,1,.267,1.32c-.185.193-.93-.07-1.074-.357a.669.669,0,0,1,.676-.971Zm20.127.256c.245.01.919.3.854.629-.017.083-.955.778-1.167.665-.407-.219.156-1.216.236-1.278a.124.124,0,0,1,.077-.015Zm-5.483.121h.015a.712.712,0,0,1,.162,1.122,1.581,1.581,0,0,1-.726-.276C96.629,40.406,97.139,39.991,97.233,39.963Zm15.037,4.862c-.151,3.187.675,6.282,4.136,8.269l-.745-1.368c-.887-.71-2.746-2.739-2.514-5.153Zm-31.079,5.7.39,2.1a47.845,47.845,0,0,0-4.549,9.965l-1.8.66a39.539,39.539,0,0,1,5.959-12.723Zm.757,3.267.51,1.8A27.032,27.032,0,0,0,79.92,61.56l-1.988.738A28.917,28.917,0,0,1,81.948,53.789Zm6.306.745a.249.249,0,0,0-.089.012c-.021.355-.017,1.337.058,2.955.014.307.314.178,1.158-.256.737-.379.661-.439,1.375-.2a5.252,5.252,0,0,0,3.649.185,2.531,2.531,0,0,1,2.344.23,5.73,5.73,0,0,0,.993.431c.542.2.336-.042-.035-1.514-.416-1.657-.238-1.839-.9-1.407a2.623,2.623,0,0,1-.793.354c-.575.068-1.536-.641-2.109-.416-1.387.546-1.375.4-2.663.085-.644-.159-1.261.236-1.82.347-.32.04-.725-.812-1.17-.808Zm23.6.859c2.344,2.162,4.754,2.9,7.368,3.72-.315,1.075-.946,2.285-1.24,3.69-13.605,7.232-27.277,7.005-40.173.439L84.5,60.671c3.656,6.368,8.343,8.068,13.613,5.984a35.562,35.562,0,0,0,13.74-11.262ZM82.786,56.666l.579,1.562L82.5,60.581l-1.642.668a13.559,13.559,0,0,1,1.924-4.583Zm12.3,1.81a13.386,13.386,0,0,1-2.425.3,13.545,13.545,0,0,0-1.649,0c-.611.125.1.4,1.472.793s3.04-.2,3.247-.8c.051-.146-.129-.32-.644-.3Zm-11.334.769.359.793-.614.221Zm36.173.447,1.016,2.326c-1.76,3.83-2.928,14.328,8.82,17.593l.513,1.5c-8,.158-16.009-10.064-10.349-21.422Zm-26.9.792a5.1,5.1,0,0,0-3.124.893c-.7.557.156.908,1.066.463a4.983,4.983,0,0,1,4.3.2c.884.605,1.344.5.753-.424a3.69,3.69,0,0,0-3-1.13Zm51.3,2.614c3.07-.051,3.39,4.37,2.792,4.75a4.23,4.23,0,0,1,1.444-.194c2.25.059,3.423,1.31,3.553,3.13s-1.255,2.855-3.275,2.753c-.75-.037-1.266-.114-1.232.02.375,1.465-.078,3.674-2.008,4.225a1.012,1.012,0,0,0-.544.486c-.145,2.324.513,10.307.513,10.307s3.619-6.117,4.434-7.045c1.593-2.187,2.165-1.98,1.884,1.643-.389,5.013-1.153,6.178-4.02,10.428-1.264,1.822-4.256.865-3.985,2.1a4.087,4.087,0,0,0,1.031,1.223,1.615,1.615,0,0,0,1.359.458c1.277-.042,1.774-.3,1.012.813-.6.883-2.725,1.066-2.964,1.525-.556,1.069-.175.833-1.126,1.771-.727.8-.474.393-.142,1.053.52.851.3,2.549-.213,3.693a3.649,3.649,0,0,0-.373,1.6,6.018,6.018,0,0,0,1.535-2.715c.295-1.246.64-1.871.638-1.173,0,.88.149,2.076.938,2.532.624.361.714.721.61,1.165-.107.459.38.863.861,1.247.113.113.493.262.452.5-.128.765.181,1.666.736,1.812.247.124,1.823-.011,2.083-.9-.026-.284,0-1.454-.629-1.522-.443-.205-.4-.328.274-.73a8.849,8.849,0,0,1,2.228-1.126,2.659,2.659,0,0,0,1.3-.816l.128,48.119a141.065,141.065,0,0,1-21.089,18.226,103.469,103.469,0,0,0-16.269-11.612l-2-1.192.719-.924-3.48-4.614,3.916-3.169.992,1.262-1.853,1.81,2.78,3.091,6.248-6.128-4.116-3.962,2.143-4.035,1.371.676-1.035,2.559,3.132,1.992,3.919-7.829-4.97-2.276,1.259-5.259,1.533.164-.509,3.786,3.873.773,1.575-8.929-5.684-1.021.483-5.092,1.587.02-.232,2.816,4.016.574.757-7.783-5.572-.928.718-6.008,1.274.183-.247,3.7,4.089.7c.45-2.513.816-5.668,1.483-8.133l-5.267-1.973,1.865-5.045,1.186.416-1.035,2.734,3.889,1.662,3.278-6.505-4.58-3.259a21.224,21.224,0,0,1,3.518-4.726l.9.788a7.011,7.011,0,0,0-.838,1.006c-.617.859-.81,1.292-.726,1.515a19.8,19.8,0,0,0,3.128,2.322,5.521,5.521,0,0,0,1.672-1.437c.518-.618.789-.677,1.324-.291a2.439,2.439,0,0,1,.371.361.781.781,0,0,1,.193.385.3.3,0,0,1-.038.2,1.842,1.842,0,0,1,.355-.237c.384-.216-.745-1.214-1.668-1.732-2.762-1.559-6.011-4.5-6.762-8.172-.276-1.65,3.967.335,6.889,3.263.443.443,2.089,2.046,2.089,2.046-.24-4.247-.584-8.563-.4-12.862l-.645-.451a3.489,3.489,0,0,1-1.333-2.711c-.056-.717.556-1.084-.841-1.037-2.908.026-4.591-2.726-2.827-5.08.63-.88,3.312-1.31,3.309-1.289a3.437,3.437,0,0,1,2.889-4.466Zm2.792,4.75-.081.027A.163.163,0,0,0,147.107,67.848ZM50.286,77.04c8.121,6.876,13.3,11.5,29.831,16.681l.41,2.462c-9.5-2.206-19.873-6.674-32.2-17.779Zm-2.445,1.589A84.082,84.082,0,0,0,63.589,90.218l1.873,1.134-.965.994L67.636,96.9,63.6,100.211l-.961-.963,2.108-2.078-3-2.967-6.113,6.221,4.19,3.736-2.429,3.756-.881-.4L57.8,104.9l-3.893-2.136-4.352,8.043,5.542,2.537-1.252,4.936-1.293-.066.436-3.868-4.167-.742-1.4,9.037,5.361.847-.128,5.2-1.429-.023.1-2.94-4.233-.2-.378,7.585,5.209.679-.517,6.156-1.282-.33.143-4-3.97-.392-1.367,8.5,5.356,1.538-1.892,5.3-1.163-.641.761-2.734c-.976-.428-3.722-1.577-3.722-1.577l-3.5,6.6,4.537,3.107-2.792,4.932-1.077-.726,1.926-2.878L39.6,154.264l-2.148,2.948a40.566,40.566,0,0,1-3.174-2.641,1.906,1.906,0,0,0-2.035-.5c-.678.161-1.331.284-1.182.043a38.316,38.316,0,0,1,3.329-2.245c.55-.351.984-.657.977-.971-.008-.234.3-.6.7-.846.44-.268.341-.516.27-.793a8.939,8.939,0,0,1,.6-5.355c.5-1.043.653-1.23.328-1.232-.957.124-2.124,3.612-2.348,4.595a10.915,10.915,0,0,1-.247-1.352c-.122-.639-.212-1.035-.722-1.157-.611-.146-.417-.44-.479-.9a1.713,1.713,0,0,0-1.089-1.488c-.613-.254-.679-.357-.653-.97a2.54,2.54,0,0,0-.872-1.558l-2.124.754a1.608,1.608,0,0,0,.405,1.561c1.068,1.01-.494,1.024-1.564,1.681-.289.189-.635.6-.869.463-.679-.224-.626,1.816-1.293,1.561l.162-48.946c5.691-5.927,22.274-18.285,22.274-18.285Zm86.016,8.657.819.912a52.053,52.053,0,0,0-6.411,9.446,38.5,38.5,0,0,0-4.012,12.1c-.605,2.881-.7,5.814-1.073,8.762-.382,3.172-.455,7.443-1.058,10.793-1.115,9.186-3.68,14.074-9.257,19.286-2.451,2.291-10.076,6.617-10.284,6.575l-1.807-.45c15.635-8.05,19.544-13.6,21.236-32.655.33-23.9,11.142-33.164,11.847-34.774Zm1.537,1.6.838.811-4.564,6.482,4.5,3.189-1.784,4.19-1.363-.508.969-2.859-3.784-1.6-3.058,8.327,5.39,1.709-.888,5.425-1.089-.3v-3.7l-4-.82-1.163,9.3,5.893.823-.432,4.8-1.394-.1-.054-2.858-4.09-.217-.934,8.062,5.8.99-1.05,5.729-1.236-.3.278-3.779-3.892-.517-2.252,7.737,4.889,2.478-2.406,4.959-1.031-.722,1.332-2.933-3.8-1.887-3.672,6.4,3.985,3.942-3.892,4.1-.869-1.119,2.008-2.175-3-2.986-6.24,4.99,3.186,4.222-.375.532-3.29-1.328-1.576-2.094-1.884.831-1.487-.571c9.217-4.86,15.214-10.5,17.691-18.995,1.359-4.7,1.763-9.827,2.2-15,.23-2.684.467-5.379.854-8.031a40.32,40.32,0,0,1,2.862-12.145,47.735,47.735,0,0,1,7.87-12.505Zm-49.6,3.2,6.329,3.355-.092,2.23L86.18,94.727Zm1.78.062,4.511.621L92.1,94.6Zm-20.332.058L69.876,93.4l2.232,2.591,1.672-1.1,1.815.683c-5.735,2.964-10.823,6.511-14.786,12.63-4.417,6.819-4.907,15.746-5.473,24.363-.942,11.885-2.968,20.234-10.824,29.869l-1.158-.734,4.24-6.773-4.781-3.107,2.178-4,1.1.381-.854,2.388,3.954,2.1,3.032-8.536L46.648,142.4l.934-5.34,1.4.125-.37,3.825,3.985.633,1.143-9.026-5.372-.827.12-4.769,1.317.128-.008,2.9,4.236.229.328-8.233-5.267-.587.649-5.814,1.475.152-.34,3.487,4.055.583,1.923-7.527-5.267-2.392,2.842-5.084,1.278.591-1.3,2.815,3.653,1.791,3.831-5.888-4.07-3.93,4-4.206L62.8,97l-2.171,2.509,3.009,2.8,5.955-5.026-2.908-4.4Zm37.88.28-.185,2.109-6.345,3.623V96.156Zm34.053.074,1.4.873-1.015,1.212-1.224-.777Zm-36.721.3-3.8,2.206v-2.2Zm44.811,2.058a.987.987,0,0,1,.521.14.722.722,0,0,1-.1,1.173c-.562.4-2.1.369-2.255-.039-.22-.588.978-1.294,1.838-1.274Zm-60.648.87L92.07,98.75l-.02,2.086-5.248-2.9Zm17.764.066-.321,2.719-5.615,2.994L98.4,99.213ZM77.2,95.908l2.236.57c-8.278,3.714-16.458,9.1-19.641,18.5a43.412,43.412,0,0,0-2.1,9.95c-.205,4.226-.747,8.386-.946,11.91-.4,7.177-2.753,16.9-10.868,27.222l-.776-.614a46.179,46.179,0,0,0,9.164-17.671c2.533-9.4,1.277-19.779,3.978-29.244A31.947,31.947,0,0,1,68.44,101.17,56.259,56.259,0,0,1,77.2,95.908Zm3.757.788c.025,0,.036,0,.039.008,2.009,6.8,4.491,19.205,4.491,19.205-5.316-2.586-14.165-2.113-14.165-2.113s-4.978-6.459-5.943-6.991C69.363,101.4,80.2,96.734,80.959,96.7ZM149.4,97.768c1.225-.04,1.137,1.831-.413,3.1-.791.65-1.158.558-1.741.039a1.289,1.289,0,0,0-1.035-.354c-.868,0,.848-1.809,2.375-2.555a2.046,2.046,0,0,1,.815-.233ZM87.258,99.29,92.12,101.8l.046,2.066-4.5-2.454Zm16.482.28-.263,2.272-5.063,2.648.028-2.093Zm47.375.846a.478.478,0,0,1,.421.187c.69.773-.621,3.115-2.108,3.818a1.093,1.093,0,0,1-1.4-.187c-.231-.2-.573-.463-.769-.443-.851.089-.381-.872.305-.928a13.943,13.943,0,0,0,2.282-1.666,2.954,2.954,0,0,1,1.267-.781Zm-5.143.913c1.074-.026,1.465.874.193,1.266-.907.28-1.412.081-1.41-.532.191-.629.739-.7,1.217-.734Zm-58.046,1.216,4.314,2.175.019,2.229L88.3,104.871Zm15.435.307-.3,2.108-4.646,2.4.012-1.744Zm48.693.885c.293.018.38.348.378.932a2.6,2.6,0,0,1-1.6,2.3c-.7.32-1.2.3-1.545-.081a.978.978,0,0,0-.494-.315c-1.5-.06-1.259-.449.177-1.052a14.561,14.561,0,0,0,1.97-1.243,2.163,2.163,0,0,1,1.112-.54Zm-5.507.687c.736,0,1.384.526.977.863a2.157,2.157,0,0,1-1.738.151C145.342,104.988,145.737,104.421,146.547,104.424Zm-57.907,1.5,3.677,1.992-.019,2.12-3.511-2Zm14.1.163-.085,2.171-4.221,2.093-.027-2.07Zm45.414.9c.714.052.624.747.047,1.084a.875.875,0,0,1-1.217-.209C146.474,106.881,147.64,107,148.157,106.987Zm1.432,2.228a.687.687,0,0,1-.181.8c-.313.133-1.125-.006-1.251-.244-.1-.195-.079-.3.12-.5C148.609,109.013,149.356,108.816,149.589,109.215Zm-60.416.041,3.14,1.724-.019,2.082-2.885-1.686Zm13.057.054-.155,2-3.653,1.822.05-1.954Zm-38.247,1.262c.783.01,1.388.534.927,1.43-.288.559-.5.765-1.757,1.654-.511.363-.954.695-.989.738s-.36.27-.575.419c-1.122.782-.733-.85.668-3.254A1.99,1.99,0,0,1,63.983,110.572Zm37.969,1.787-.29,2.206L98.4,116.243v-2.125Zm-12.284.206,2.641,1.316.039,2.148-2.4-1.266Zm31.731.167a.237.237,0,0,1,.213.1,4.289,4.289,0,0,1,.039,2.365c-.37.876-1.089-1.334-1.008-1.895a1.216,1.216,0,0,1,.756-.571Zm-55.527.4c1.068-.02,1.84.714,1.479,1.8-.417,1.05-2.828,1.711-3.916,2.435-.711.355-.884-.03-.664-.649.1-.286.18-.51-.363-.59-1.317-.195-.515-.839,1.9-2.466a2.928,2.928,0,0,1,1.564-.532Zm52.975.687a1.9,1.9,0,0,1,1.328.746c.83.906,1.43,2.813.977,3.309-.346-.039-.518.475-.536.683-.053.6-1.143-.5-2.174-2.225-.831-1.393-.429-2.5.405-2.513Zm-44.491.323c3.256-.023,9.474.654,18.081,6.07a38.369,38.369,0,0,0,3.437,2.07,31.545,31.545,0,0,0,10.168,3.759l-.12,2.191c-.038.691,1.095,4.693.575,6.944-.772-.015.746.664.746.664l.988,2.035a58.563,58.563,0,0,1-7.515-.509c-3.783-.619-10.688-3.844-14.025-6.381A34.546,34.546,0,0,0,73.5,125.478l-.062-1.883a69.541,69.541,0,0,0-.8-7.333l-.826-2.039c.2.082,1.068-.071,2.548-.081Zm27.167,1.413-.251,2.163-2.865,1.352v-1.853Zm14.281.1c.8,0,2.016.946,3.4,2.832a3.233,3.233,0,0,1,.6,1.048.271.271,0,0,1-.333.342c-.546-.1-.746-.3-.9.384-.038.169.059.475-.128.42-.973-.287-3.754-3.11-3.584-4.012.129-.678.462-1.015.943-1.014Zm-25.518.144,2.089,1.119.093,2.132-1.858-.8Zm-22.453.649a1.158,1.158,0,0,1,1.244.734c.491,1.206-.379,1.933-2.962,2.477-2.244.537-2.2.57-1.885-.268.209-.555-.485-.617-.872-.765-.655-.249-.119-.326,1.765-1.27A7.185,7.185,0,0,1,67.833,116.445Zm-7.468.571c.064-.006.14.055.251.194a8.643,8.643,0,0,1-1.707,12.63c-.469.312-.486.022-.433-.6l.082-1.18c.02-.235,4.745-3.151,1.251-9.64l.293-.916c.094-.292.157-.48.263-.49Zm53.311,1.235c1.288,0,4.9,3.3,3.364,3.421-.181.014-.119.25-.12.4a2.229,2.229,0,0,1-.05.544c-.111.288-.532.231-1.181-.155a11.818,11.818,0,0,1-2.588-1.834c-1.119-1.065-.8-2.382.576-2.376Zm-12.732.567-.023,1.778-2.576,1.255.015-1.608ZM68.3,120.1c1.734-.06,2.709,1.677.977,2.591-.692.365-2.971.109-4.032.015-1.2-.1-.49-.463-.425-.571.165-.271.292-.313-.332-.687-.5-.525-.779-.653.46-.816a22.223,22.223,0,0,0,2.568-.388A2.829,2.829,0,0,1,68.3,120.1Zm52.77.424c.128-.006.114.207.062.761l-.085,1.188c-.789.127-4.712,5.031-1.525,10.735l-.267,1.013c-.122.5-.162.575-.575.265-2.388-1.66-3.163-10.11,1.784-13.6A2.174,2.174,0,0,1,121.071,120.519Zm-9.314.99a4.284,4.284,0,0,1,1.672.435,8.409,8.409,0,0,1,2.742,1.616c.144.227-.082.416-.386.5-.368.107-.413.262-.313.7,0,.252.063.53-.251.547a7.9,7.9,0,0,1-3.194-1.091C109.809,123.016,110.11,121.479,111.757,121.509Zm-11.269.027V123.7l-2.116-.982ZM65.015,123.4a7.892,7.892,0,0,1,.911.109,11.422,11.422,0,0,0,1.6.144c2.412-.042,3.411,1.646,1.421,2.5-.544.235-.771.209-2.259-.225-.713-.208-1.586-.427-1.943-.529-.717-.2-.965-.431-.49-.594.442-.151.48-.459.2-.866-.066-.408.063-.557.556-.544Zm56.045,0c-.342,3.35-.621,5.961-1.124,9.24C119.569,132.49,116.966,126.312,121.06,123.4ZM110.911,125a11.19,11.19,0,0,1,3.4.828c1.126.417,1.268.528.49.862-.47.2-.413.382-.274.691.214.232.62.7-.019.6a22,22,0,0,1-3.356-.163c-1.818-.321-2.313-1.969-.823-2.734A1.328,1.328,0,0,1,110.911,125Zm-46.7.847a4.755,4.755,0,0,1,1.035.268c3.264,1.036,4.588,2.29,2.989,3.507-.463.353-1.183.2-2.541-.559a12.813,12.813,0,0,1-2.344-1.484c-.256-.274-.117-.589.278-.563.542.036.461-.237.417-.7C64.015,126,64,125.848,64.211,125.847Zm8.805.3,2.5.571L69.27,154.2a22.536,22.536,0,0,0-4.862,1.7l4.322-.749-.375,1.965-3.923.742-.089.586,4.495-.816s-.161,1.876-.317,2.6c4.29-.348,8.526-1.547,12.84-1.581,0,0,.1-21.688.089-24.052-.017-2.554,0-5.608,0-5.608l4.325,2.454.715,27.334,13.547,2.214c-.1-.461-.463-2.574-.463-2.574,10.043,2.978,20.227,7.381,29.24,16.479-4.194,2.283-8.158,4.547-12.234,6.741l-.59.854a150.941,150.941,0,0,0,37.333-26.1v72.483H99.334V222.12l.031-6.043c-.221-3.875.45-8.143-.73-11.4l-.232-3.406c3.346-3.913,5.154-8.849,6.75-13.892,0,0,1.611-.627,2.395-.9l.27-.99c-1.556.8-5.128,2.14-5.128,2.14.384-.3-7.595-3.681-12.524-4.474a48.962,48.962,0,0,0-27.793,4.389c-.427.3-.609.295-.5-.1a13.8,13.8,0,0,0-9.728-17A11.5,11.5,0,0,0,49.255,170l.135.649c12.235,1.386,15.105,14.388,10.395,20.428-1.235,1.993-1.423,2.574,1.169,2.508,10.476-.086,14.117,11.686,9.343,18.2a7.222,7.222,0,0,1,.387.758A13.066,13.066,0,0,0,69.178,195.8c3.9-4.373,11.388-11.373,17.864-10.963,2.357.149,4.683,3.018,6.233,5.309,3.28,4.85,4.123,11.622,4.356,15.484.057,1.012.191,1.747.193,2.28.008,1.546-.289,1.361-1.282,1.1a8.49,8.49,0,0,0-4.221.05c-2.031.622-1.7.268.1-1.984,1.066-1.329,1.21-1.739.768-1.826-.134-.026-.586.429-1.177,1.344-1.783,2.758-1.644,1.626-.356-2.676.838-2.8.753-2.992-1.529-4.73a18.8,18.8,0,0,1-1.765-1.309c-.43-.918-.609.234-.224.99.377.74-.421,1.077-1.823.315-3.3-1.838-5.447,1.883-2.5,3.495.694.38,1.081.068.544-.431-1.811-1.685-.551-3.1,1.9-1.612,1.417.863,1.955.587,2.429-.493.263-.44,2.463,1.145,2.46,1.759a14.292,14.292,0,0,1-.506,2.56,44.587,44.587,0,0,0-1.2,4.781c-.553,2.869-.538,4.339.054,5.6a5.992,5.992,0,0,0,7.569,3.021,8.313,8.313,0,0,1,1.228-.3l.035,2.073c-5.717,2.178-9.847,8.973-9.659,9.2l-2.039,0a24.179,24.179,0,0,0-13.519-11.721c-1.183-1.034.3,2.759,1.652,3.6,2.875,1.47,6.679,4.076,8.778,8.121l-1.444.023a23.751,23.751,0,0,0-6.206-6.113c-.509-.107.371,4.9,2.448,6.44l-37.266.652c2.543-10.006,3.032-21.11-2.927-35.664a28.253,28.253,0,0,0,13.339-2.525l-.363-1.036A26.984,26.984,0,0,1,36.5,192.732c3.812,7.1,7.148,21.836,3.9,36.14H26.282V151.1a9.9,9.9,0,0,1,.956.66,3.649,3.649,0,0,1,.842,1.55c.156.6.321.636,1.174,1.277.409.308.645.579.645.738a1.556,1.556,0,0,0,.247,1.06c.751.914.618,1.5.054,2.09-2.623,2.743-4.265,8.509-2.939,14.591,3.11-2.1,6.313-7.611,6.414-7.62l.3,7.519a3.238,3.238,0,0,0-2.2,2.548,5.3,5.3,0,0,1-2.78-.431l.628,2.214a3.618,3.618,0,0,0,.336,6.926s-.338,1.717-.628,2.639l2.4-.368c1.395,4.19,6.752,2.849,6.726-.075,0,0,1.63.616,2.248.89l-.6-2.857c6.091-3.056,1.535-7.058.144-7,.018-.8.383-1.05.717-1.981l-2.46.155a4.409,4.409,0,0,0-2.166-2.52L36,162.346a31.365,31.365,0,0,0,6.155,4.6c2.276,1.2,2.508.931,2.171-1.138a9.479,9.479,0,0,1-.14-1.545c.854.2,3.008,3.016,2.9,4.4.787,1.032,1.5-1.745-.529-4.109a44.153,44.153,0,0,0,10.4-21.543l7.183-2.874.081-.94c4.893-3.293,7.446-7.873,8.789-13.053Zm5.978,1.682,1.653.741-1.877.936Zm-15.926.454a10.1,10.1,0,0,1,1.464.955c1.405,1.036,2.224,1.749,2.251,2.377a1.07,1.07,0,0,1-.567.9c-.849.453-1.66.082-3.495-1.806a14.685,14.685,0,0,1-1.17-1.207c-.211-.317-.056-.615.293-.486,1.489.676.2-1.2,1.225-.734Zm50.616.388a4.352,4.352,0,0,1,.7.039c.4.081.513.307.267.528-.382.343-.274.689.112.874.264.127.157.395-.163.579a4.583,4.583,0,0,1-.861.346c-2.255.709-3.917.5-4.352-.56-.5-1.214.457-1.8,3.213-1.8.409,0,.779,0,1.085,0Zm-32.836.723-.019,1.627-2.34,1.13.254-1.65Zm-19.892.509c.2.012.542.329,1.031.932,2.258,2.78,2.562,3.316,1.823,4.054-.876.874-2.105.029-3.429-2.408a7.89,7.89,0,0,0-.525-.9c-.486-.571-.272-.75.343-.7.337.026.5-.093.506-.442.01-.369.092-.542.251-.532Zm54.1,1.405c.411,0,.38.141.2.622-.141.425-.372.563.224.831.1.048.319.321.12.439a24.738,24.738,0,0,1-3.337,1.538c-1.479.494-2.39-.719-1.521-1.923.364-.5,2.866-1.418,4.113-1.5.077,0,.146-.008.2-.008Zm-55.277,1.612c1.5,2.25,1.688,3.3.7,3.958-.625.478-1.958-.209-2.263-1.663a5.843,5.843,0,0,1,.02-3.2c.546-1.4,1.389.671,1.544.9Zm21.062-.932.012,1.759L78,135.187l.263-1.938Zm5.8.07,2.676,1.744.154,1.5-2.765-1.53Zm29.854,1.732c.071,0,.109.033.109.117,0,.207-.053.943.347,1.009.787.132.608.379-.081.975a13,13,0,0,1-2.329,1.938c-2.32.863-3.049-1.6-.853-2.885a9.069,9.069,0,0,1,1.958-.894A6.476,6.476,0,0,1,116.491,133.793ZM86.71,134.7l3.1,1.837.108,1.849-3.082-1.577Zm-5.982.171.011,1.608-3.027,1.744.251-1.8Zm12.531,1.313c.858.4,11.862,3.476,15.5,2.427,0,0,3.119,4.521,5.426,6.14-3.572,5.271-15.667,10.439-15.667,10.439Zm24.77.112c.2-.007.248.194.247.571-.049,1.094-1.836,5.12-3.26,3.057-.391-.769.009-1.564,1.256-2.513.99-.753,1.5-1.106,1.757-1.115Zm-59.914.635c.272.3.149,1.214-.436,1.154-.17-.018-.192-.948-.082-1.453C57.766,136.547,58.021,136.831,58.115,136.929Zm22.652.511-.019,2.043-3.592,1.965.386-2.272Zm5.939.287,3.557,1.907.417,2.257-3.943-2.055ZM80.759,140.5v2.059l-4.035,2.081L77,142.613Zm6.017.179,3.977,2.276.522,2.143L86.834,142.8Zm-56.381.066a.621.621,0,0,1,.393,1.134c-.325.3-1.247.242-1.328,0C29.044,141.479,29.615,140.759,30.4,140.749Zm1.216,2.179a.855.855,0,0,1,.267.019.834.834,0,0,1,.474,1.192c-.53.719-1.93.221-1.726-.687C30.68,143.212,31.194,142.956,31.611,142.928Zm49.079.687v1.841l-4.391,2.33.278-2.058Zm6.209.256,4.53,2.447.348,2.062-4.87-2.547Zm-57.439.055a.484.484,0,0,1,.487.213,1.486,1.486,0,0,0,.5.707c.587.343.648.414-.467.905a15.533,15.533,0,0,0-1.715,1.056c-.986.668-1.388.444-1.46-.345-.091-.995,1.71-2.484,2.657-2.536Zm3.4,1.507a1.011,1.011,0,0,1,.611.136.6.6,0,0,1,.034,1.005c-.829.534-2.127-.2-1.436-.835a1.317,1.317,0,0,1,.791-.306Zm47.824,1,.023,2.388-4.9,2.6.324-2.423Zm-50.245.279a1.339,1.339,0,0,1,.9.257,1.175,1.175,0,0,0,.842.489c.84.033.572.341-.309.746a10.689,10.689,0,0,0-2.943,2.081c-.909.85-.975,1.032-1.274.684-1.111-1.294,1.055-4.158,2.788-4.257Zm56.536.028,5.132,2.823.44,2.385-5.572-3.119Zm-53.165,1.681a.824.824,0,0,1,.556.171c.365.3.154.878-.351,1.138a1.436,1.436,0,0,1-1.34-.078c-.485-.491.394-1.213,1.135-1.231Zm-2.479,1.2c.312-.03.6.371.85.8.088.108.439.06.691.062.96.008,1.1.417.162.936a18.518,18.518,0,0,0-1.765,1.352c-1.611,1.547-2.484,1.184-2.278-.4a3.291,3.291,0,0,1,2.34-2.754Zm55.644.148,5.661,3.122.552,2.568-6.213-3.368Zm-6.248.047-.024,2.365-5.329,2.835.413-2.4Zm6.333,3.009,6.341,3.861.231,2.513-6.572-3.806Zm-6.337.42.011,2.318-5.893,3.006.3-2.19Zm-47.839,1.534a.939.939,0,0,1,.409.074c.69.319.509.872-.529,1.441-1.059.58-1.422.48-1.649-.171C30.922,155.573,32.068,154.8,32.882,154.777Zm66.209.314c11.025,2.538,21.82,8.027,32.3,17.609l-2.189,1.558s-9.184-10.533-29.593-16.708Zm-11.968,1.1,3.059,1.814.008.462-3.066-.252Zm-52.106.02a6.122,6.122,0,0,1,1.529.672c4.39,3.187,6.147,5.108,7.237,8.6.653,2.094.641,2.008-1.506.87a21.092,21.092,0,0,1-6.572-5.181,99.078,99.078,0,0,0,.336,12.211c2.741,1.358,1.854,4.9,1.846,4.875,7.056-1.937,5.51,7.427.252,5.408,1.254,7.025-6.745,6.453-5.925.432-6.367-.248-5.241-7.226.044-6.261a3.542,3.542,0,0,1,2.157-4.536l-.3-9.2s-5.188,7.488-6.055,7.371c-.509-.069-1.275-.929.015-7.5.672-3.419,4.277-7.582,6.295-7.717.357-.023.506-.061.645-.054Zm5.075.07.93.641-.876,1.572-.97-.706Zm40.6.45-.031,1.379-2.857.171ZM50.808,173.24c6.725,1.047,10.838,9.32,7.727,15.31-.376.269.205,1.573.583,1.083,3.28-4.676.839-16.168-8.731-17.263-1.944-.238-.18.35.421.87Zm1.089,2.2c-.541,1.49-.683,1.847.7,1.239,2.448.911,5.089,4.919,4.244,8.944-.272.47.2-.306.525,1.018,1.208-2.947,0-9.3-5.472-11.2Zm31.083,7.5a38.424,38.424,0,0,1,19.115,4.625c-1.841,1.03-7.719,2.466-7.719,2.466-3.3-3.728-4.987-7.455-10.96-5.55-6.255,1.624-11.888,7.069-15.058,10.682a14.408,14.408,0,0,0-7.718-2.526c-.163-.005-.405.717-.2-.446a21.381,21.381,0,0,0,1.9-4.094A42.574,42.574,0,0,1,82.98,182.942Zm21.4,4.784a38.849,38.849,0,0,1-6.144,12.723l-.371-1.934a44.611,44.611,0,0,0,4.766-10.062Zm-2.665,1.158c.176.283-2.737,7.266-4.174,8.536l-.564-1.8a38.734,38.734,0,0,0,2.857-6.117Zm-17.772.008c-.09.008-.123.088-.123.264,0,.641.662,1.145,1.873,1.421,1.635.373,3.928-.2,3.931-.975,0-.449-.318-.482-1.255-.046-1.175.547-2.212.439-3.746-.377A1.838,1.838,0,0,0,83.941,188.892Zm14.571,1.114a13.619,13.619,0,0,1-1.993,4.23l-.278-.89a31.712,31.712,0,0,0,1.5-3.153Zm-1.711.548a5,5,0,0,1-.969,1.794l-.657-1.4Zm-10.356,1.3c-1.108.021-2.206.38-2.3.973-.046.283.38.174,2.441-.079,1.088-.133,1.607.515,2.6.447.508-.061.033-.532-.124-.669A4.27,4.27,0,0,0,86.445,191.85Zm-4.732,1.29c-.111.023.014.308.429,1.034a5.009,5.009,0,0,1,.324,1.689c-.053,1.234-.049,1.2.556.482.382-.381,1.123-.3,2.3.023.757.206.939.28,1.465-.052.609-.384.752-.19,1.277-.084a3.272,3.272,0,0,0,1.521-.257,2.02,2.02,0,0,1,1.4,0c.9.43.771.392.846-1.145.076-1.513-.008-1.621-.877-1.111a2.682,2.682,0,0,1-2.718.264,3,3,0,0,0-2.611-.066c-1.209.366-1.759.491-2.722-.1a5.047,5.047,0,0,0-1.186-.676Zm-19.706,2.284.54.886c4.876,1.754,8.179,5.761,6.229,12.517l.464.745c2.44-6.806-.345-12.433-7.233-14.148Zm1.51,2.882.664,1.371c3.669,1.782,3.449,6.69,3.244,6.5L68,207.452c.918-3.176-.755-7.866-4.483-9.146Zm15.323,7.321a.265.265,0,0,0-.278.151c-.094.244.189.391,1.865,1.557,1.44,1,2.553,1.745,2.468,1.888a4.832,4.832,0,0,1-1.591-.315,7.293,7.293,0,0,0-5.53,1.084c-.352.237-.937-.022-1.445-.155a2.2,2.2,0,0,0-.872-.055c-1.048.276-.034,1.282,2.529,2.587,3.146,1.6,4.847,1.747,6.758.776,1.269-.659,1.724-.17.336.583-2.423,1.315-4.744.908-8.573-1.74-1.773-1.226-2.482-1.022-.958.148,2.676,2.1,7.826,4.669,10.987,1.534a2.165,2.165,0,0,1,.548-.023c.658,0,.686-.206,0-1.3-.413-.657-1.248-1.35-.231-2.155.771-.611.715-.9-.216-1.181-.246-.068-.222.094-.591-.206-2.238-1.814-4.427-3.184-5.206-3.18Zm.969,3.584a2.425,2.425,0,0,1,2.182,2.062,3.631,3.631,0,0,1,.066.362l-.8.03c-.664-2.666-2.663-1.783-2.862-.221l-.721-.1c.265-1.487,1.2-2.162,2.136-2.136Zm16.579,2.276-.533.079c-.349-.982-1.928-2.3-2.68.092l-.672-.027c.468-3.242,3.394-2.738,3.885-.144ZM92.3,210.14c.218.311-.165.836-.387,1.075s-.686.036-.883-.19a.607.607,0,0,1,.243-.816c.3-.153.807-.291,1.027-.069Zm-9.369.1c.224.5-.4.878-.48.708a1.508,1.508,0,0,1-.223-.931c.207-.007.619.061.7.223Zm14.084-.082a.773.773,0,0,1,.773.571.642.642,0,0,1-.622.544.926.926,0,0,1-.6-1C96.683,210.059,96.821,210.139,97.017,210.155Zm-19.579.159c.119.183-.1.727-.154.8a1.922,1.922,0,0,1-.73-.046,1.511,1.511,0,0,1,.108-.762c.2-.127.632-.2.776.008ZM90.5,212.07a.716.716,0,0,1,.351.128c2.011,1.316,4.6,1.9,6.461.963.416-.21.688-.2.687,0,0,.222-.461.677-1.321.936-1.919.579-5.087-.186-6.182-1.367-.322-.348-.276-.671,0-.664Zm-17.637,1.378c-.192,0-.254.109-.216.342.127.785,5.506,3.888,7.754,4.307a6.244,6.244,0,0,0,4.41-.47c2.743-1.6,2.039-3.768-.645-2.136-1.8,1.1-6.372.592-9.09-.986a7.4,7.4,0,0,0-2.213-1.057Zm24.232,1.135c.679-.286.971-.386,1.12-.261.692.582-.441,1.489-2.507,1.843a4.845,4.845,0,0,1-4.532-1.077c-1.46-1.087-.772-1.613.066-1.12a6.1,6.1,0,0,0,5.852.615Zm-23.753,3.394c4.758,1.713,10.171,5.846,12.574,10.866l-1.468-.011a23.165,23.165,0,0,0-10.194-9.065A3.506,3.506,0,0,1,73.341,217.977Zm24.989,2.349V221.9a17.577,17.577,0,0,0-7.264,6.948L89.4,228.82a19.76,19.76,0,0,1,8.928-8.494Zm0,2.393v1.926a13.661,13.661,0,0,0-4.5,4.2H91.862A15.1,15.1,0,0,1,98.33,222.719ZM76.546,224.2a14.486,14.486,0,0,1,4.615,4.684l-.757.035A26.264,26.264,0,0,0,77.4,225.9a4.443,4.443,0,0,1-.85-1.7Zm21.784,1.235c.024,0,.024.015,0,.047v1.53a11.176,11.176,0,0,0-2.012,1.833h-1.6a8.882,8.882,0,0,1,3.611-3.409Zm0,2.544v.866l-1,0a3.578,3.578,0,0,1,1.008-.87Zm-19.594.218a1.729,1.729,0,0,1,.532.727l-.269.029Z" fill="#131f67"/><path id="09eece40-007d-495e-bc6e-347d5834f3fe" data-name="path3052-2-5-5" d="M38.064,194.305c3.31.091,10.294-1.153,10.182-1.026,0,0,21.668,36.207,20.787,35.848-.282.449-27.758.433-27.758.433C40.679,229.567,47.1,216.144,38.064,194.305ZM47.89,168.8c10.558-8.8,21.619-8.863,33.5-10.074l.272-29.9,4.3,2.588.09,27.4a68.426,68.426,0,0,1,40.823,17.063c.146.219-16.811,9.337-24.238,11.75-5.765-4.256-20.977-6.939-31.064-3.667-2.771.9-6.173,2.337-9.483,3.4,2.4-14.435-8.811-16.566-12.753-17.232C48.837,170.036,48.248,168.968,47.89,168.8Zm-13.553,4.667a70.078,70.078,0,0,0-.243-9.3c-.061-.718-6.175,9.357-6.516,6.913-.856-6.117,2.165-13.9,6.91-14.849.474-.644,9.875,5.209,9.445,10.265-.14,1.647-8.386-5.564-8.42-5.133-.194.843.243,12.128.5,12.106,2.375,1.343,1.858,3.069,2.117,4.5,6.364-.943,6.016,6.155.01,5.933.371,8.386-7.373,4.6-5.848.131-7.8-.37-3.958-7.7-.075-6.086-.234-1.849.221-3.777,2.122-4.48Zm8.948-35.579c-.449-.179-16.638-1.013-16.638-1.013l.847-39.642c8.264-19.082,39.368-10.158,34.42-6.1C47.051,100.923,44.788,118.779,43.285,137.885ZM73.142,121.6l-.494-4.4c-1.27-2.736,33.1,13.224,33.485,13.565l1,4.7C107.331,137.524,85.273,127.1,73.142,121.6Zm62.561-7.81c-2.564,19.755-2.42,39.632-16.973,46.5,10.946,10.66,20.1,2.447,33.879-4.462.375,0-.457-42.3-.689-42.274C146.459,113.849,141.069,113.973,135.7,113.79Zm7.582-19.282c-2.707-.416-9.007-6.984-7.7-8.97.04-1.491,7.837,4.215,8.648,5.753-.4-.457-.455-13.939-.582-13.4-.3.158-2.381-1.343-1.838-4.153-5.978,1.329-5.65-6.481-.426-6.161-.675-7.1,7.957-4.5,5.661.262,7.387-1.368,6.111,6.97.529,5.613.474,3.162-.823,4.036-2.638,4.668.116,1.325.611,10.166.611,10.166s5.462-8.414,5.853-7.689c1.39,2.03-.855,15.971-8.118,13.914Zm-25.31-31.031c-2.465,8.541,4.288,18.3,10.668,18.271,1.282-.2,3.74.494,2.892,1.185-10.064,8.2-33.55,9.9-33.556,9.544.246,10.064-.2,20.229-.442,30.289l-4.3-2.606c-.138-9.177-.363-18.564-.572-27.74C77.612,90.446,64.088,85.566,53.4,75.185,60.5,69.9,68.975,66.6,77.119,63.258c10.253,5.354,24.529,8.448,40.856.219ZM110.548,22.9c-.472-.209,1.623-1.772,1.623-1.772s17.484.23,26.156.113c-3.16,13.04-.925,24.723,3.156,35.942-1.082-.254-8.263.332-10.017,1.12C131.184,58.586,110.77,23.218,110.548,22.9Z" fill="#e2cf00"/><path id="bb32d882-9a20-4629-9adb-f46ccbbdad49" data-name="path3050-3-4-7" d="M69.6,229.077,48.463,193.192l3.172-1.386,21.793,37.322ZM31.988,181.1l3.054-3.159L38.1,181.06l-3.2,2.991Zm67.82-20.125-.429-2.564a65.3,65.3,0,0,1,29.315,16.147l-1.706,1.256C127.52,175.668,109.686,162.22,99.808,160.975Zm-34.983-2.338,3.472-.751-.109,2.156-3.369.675Zm70.9-1.893-2.1-1.705,1.514-1.8,2.044,1.62ZM64.193,139.357c5.228-2.488,9.31-12.528,8.8-13.2l2.849.679-6.582,27.5-4.554,1C64.682,150.084,64.191,144.617,64.193,139.357ZM98.6,154.92c-1.772-5.79-5.262-18.887-5.262-18.887.127.427,11.34,3.633,15.34,2.465a46.549,46.549,0,0,0,5.566,6.309A48.253,48.253,0,0,1,98.6,154.92Zm47-21.079-1.975-1.721,1.772-2.181,2.17,1.661Zm-25.8-1.151c-1.609-2.907-1.721-6.194,1.265-9.435ZM58.4,127.626a31.492,31.492,0,0,1,1.025-8.493C61.159,122.274,61.135,125.429,58.4,127.626Zm45.159-2.71s4.342-20.232,6.223-28.16l4.8-1.117-.213,16.385c-4.775,3.914-8.127,13.24-7.974,13.24Zm-69.787-3.365-2.1-1.968,1.774-1.952,1.85,1.9Zm37.556-7.887a57.366,57.366,0,0,0-5.76-6.775c3.568-4.989,9.491-7.878,15.766-10.145l4.25,19.011c-4.8-1.455-9.982-3.032-14.256-2.091ZM41.9,96.719l1.477-1.846L45.308,96.4l-1.47,2.043Zm69.451-5.56,2.992-.671.109,2.331-3.585.665ZM50.865,76.633l2.282-1.427A67.754,67.754,0,0,0,79.655,90.263l.322,2.695C69.1,89.585,59.143,84.9,50.866,76.633Zm93.607-2.885L141.5,70.807l2.672-2.987,3.172,2.757A18.765,18.765,0,0,1,144.472,73.748ZM128.034,59.434,105.826,21.341l3.208-.027,21.853,36.693Z" fill="#d40000"/><path id="32cafff5-40c3-477e-bc87-72fe7e61d2fd" data-name="path3048-5-8-9" d="M105.624,20.7l-5.306.019L130.436,81.63a6.39,6.39,0,0,1-2.413-.283c-7.234-1.909-11.692-9.593-10.056-17.131a6.427,6.427,0,0,0,.208-1.088c-18.647,8.487-30.191,5.361-40.957-.043l-4.592,1.771c.3-2.788,3.736-13.26,8.867-18.191l-.008-5.282-.124-2.493-.406-4.524c-7.633,7.228-16.541,18.6-17.655,34.763,0,0-6.951,3.59-12.883,7.561.329-.044,9.241,10.96,30.651,17.139l-.943-3.511A92.553,92.553,0,0,0,92.336,92.5l.6,27.578,5.114,3.045.173-30.534a68.459,68.459,0,0,0,12.462-1.316l-.606,2.943,4.256-.842v2.147l-4.665,1.107-6.642,28.542,3.869.866c1.132-5.749,3.992-10.4,8.137-13.252l-.043-1.095c2.658-1.917,8.182-3.442,8.218-3.406,1.884-9.256,6.27-15.67,10.932-21.772l-2.22-3.033,8.515-3.142L128.617,60.114c4.548-3.156,13.567-1.98,13.567-1.98-3.866-10.494-7.263-21.318-3.445-37.2l-32.879.027Zm10.787.658c-.008,2.653-3.455,2.38-3.876-.014Zm21.123-.083c-2.092,12.162-1.4,24.01,3.452,35.267,0,0-.707.041-.795.024-.067-.014.082-.607.046-.765-.1-.423-.794-.225-1.378.171a8.42,8.42,0,0,1-.734.462,17.3,17.3,0,0,1-3.648.278c.994-.676,2.392-2.582,1.581-3.693-.184-.237-.295-.132-.474.187-.866,1.547-1.3,1.79-2.452,1.775-1.815-.022-3.113-1.153-2.966-2.858.142-1.657,2.567-2.532,2.209-.924-.1,1.432,1.314,1.71,1.575.283.1-.534.02-.286.136-.913,2.825-1.507,1.265-4.576-1.371-3.934-.62.165-.7.223-1.136,0-.813-.421-1.488-.288-1.8.3-.271.521.141.938.745.94.626,0,.747.306.745.684,0,.878-1.511,1.3-2.51.788-2.638-1.353-1.66-4.87,1.4-4.859.931,0,1.319.062,1.359-.139.111-.568-1.31-1.551-2.112-1.406-.681.133-1.094.312-.734-.6a3.579,3.579,0,0,0,.027-2.07c-.489-1.008-.478-.492-.78.326-1.009,1.682-2.529,2.054-3.839,1.134-1.214-.854-1.178-2.475-.023-3.631.8-.8,1.664-.257,1.182.64a.63.63,0,0,0,.316.925c.725.186,1.175-.243,1.178-1.127-.015-.486-.149-.594.722-1.095a2.1,2.1,0,0,0-1.977-3.7c-.558.25-.689.494-.942.377-1.064-1.012-2.59.267-1.688.943a3.332,3.332,0,0,0,.993.276c.22.126.146.441-.174.835-1.054,1.25-3.447.633-4.012-1.13-.654-2.042,1.421-4.188,3.012-3,.47.351.878.388.88-.132a2.057,2.057,0,0,0-2.309-1.651c-1.316.093-1.172.264-.456-.932a2.673,2.673,0,0,0,0-2.73c-.355-.483-.72-.584-.683-.074a2.306,2.306,0,0,1-3.063,2.423,2.736,2.736,0,0,1-1.459-3.709c.658-1.31,2.254-1.445,1.989-.046-.125.892.549,1.361,1.2.835.236-.192.292-.361.309-.936.018-.641-.241-.829.17-1.2,1.077-.144,1.144-2.445.98-2.54l17.305-.082Zm-19.29.077c.684,0,1.252.234,1.252.921a1.238,1.238,0,1,1-2.476,0C117.02,21.585,117.561,21.351,118.244,21.351Zm-12.126.09h2.75L130.592,57.85l-2.573,1.258Zm4.517,1.272a9.953,9.953,0,0,0,4.183,1.54,8.933,8.933,0,0,0-1,3.908Zm4.425,7.332c1.34.483,2.5,1.215,4.712.475a8.78,8.78,0,0,0-2.343,3.622Zm11.3,4.4a1.152,1.152,0,1,1-1.147,1.154A1.151,1.151,0,0,1,126.362,34.443Zm-7.038,2.875a7.791,7.791,0,0,0,3.111.545,6,6,0,0,0-.783,3.283Zm3.326,5.739a6.126,6.126,0,0,0,3.841.875,6.293,6.293,0,0,0-1.108,3.645Zm10.887,4.226a1.208,1.208,0,1,1-1.2,1.208A1.2,1.2,0,0,1,133.537,47.283ZM126.789,50a5.255,5.255,0,0,0,2.461.607,8.224,8.224,0,0,0-.53,2.61Zm3.781,6.2a7.1,7.1,0,0,0,3.218.708,13.821,13.821,0,0,0-2.449.712Zm13.766,6.809c-2.812.182-3.464,2.351-3.131,4.548a3.469,3.469,0,0,0-3.873,4.2c.636,2.37,2.828,2.453,4.341,2.3a3.883,3.883,0,0,0,1.891,4.15l.31,12.305s-1.025-.947-1.695-1.618c-2.922-2.927-7.319-5.048-7.043-3.4.04.243.134.858.2,1.367.465,2.786,4.187,5.8,6.724,7.313a7.757,7.757,0,0,1,1.467,1.053c-4.746,5.1-7.3,10.547-7.932,15.95-.59,5.02-1.067,9.543-1.537,14.152-1.936,23.124-11.8,28.94-12.272,30.072l-.186,3.084-2.753-.206-3.174,2.761c10.4,5.4,16.462,11.923,16.377,12.047a169.3,169.3,0,0,0,22.232-17.826l-.131-51.486a4.344,4.344,0,0,1-.707.206c-.513,0-.578.23-.757,1.215a3.583,3.583,0,0,1-.652,1.36c-.465.658-.3.325.286.563,1.332.542-.4,3-2.29,3.3-1.363.216-2.125.468-2.356.784-2.869,2.525-5.728,2.924-7.889,2a4.384,4.384,0,0,1-2.611-2.237c-.888-2.528.962-6.169,2.047-8.273a26.158,26.158,0,0,1,5.294-6.753l-.54-.591a4.988,4.988,0,0,0,.772-.035c2.852-1.043,3.029-1.058,3.553-1.817a30.645,30.645,0,0,0,2.12-3.643c1.466-3.834,1.663-4.083,1.66-6.6,0-2.037-.137-3.4-.529-3.507-2.246,1.733-4.515,5.779-5.842,8.164-.459-3.533-.595-9.7-.595-9.7.476-.529,3.174-.233,2.576-4.657a3.258,3.258,0,0,0,4.773-2.871c-.163-3.582-2.907-3.476-5.141-3.024a3.36,3.36,0,0,0-2.99-4.64Zm-.044.3c2.935.091,3.517,3.353,1.719,5.2,0,0-1.166-.9-1.784-1.415-.587.464-.756.865-1.4,1.343a3.269,3.269,0,0,1-1.232-2.542,2.818,2.818,0,0,1,2.7-2.585Zm-67.048.1c11.876,6.675,26.767,7.152,40.4.35l-.166,1.13-1.5.847.846,1.557.467-.225.012,1.029c-11.236,6.1-30.058,7.367-44.792-2.769l1.282-.6s.289.2.568.376a20.558,20.558,0,0,0,2.008,1.134l.892-1.293s-1.362-.835-1.228-.889l1.208-.649Zm1.047,2.047-.68,1.553,1.7.913.649-1.565Zm-6.461.175c18.288,11.544,35.311,8.107,45.534,3.386l.131,1.231c-13.2,5.646-30.544,7.161-47.059-4Zm43.047.741-1.626.653.645,1.5,1.672-.718Zm-45.233.28c14.862,9.637,30.8,11.524,47.978,4.462l.657,1.845c-16.73,6.757-34.386,5.978-50.515-5.507Zm11.42.055L80.4,68.321l1.842.7.537-1.585Zm31.253.668-1.611.524.5,1.546,1.668-.571Zm-28.438.442-.4,1.624,1.881.532.328-1.631Zm68.06,2.673c.254,2.761-3.817,4.093-5.34,1.516l1.342-1.639-1.2-1.126a2.781,2.781,0,0,1,5.2,1.249ZM67.355,67.906l4.433,3.064L68.567,76,63.794,72.78Zm76.836.139,2.816,2.455-2.584,3.041-2.641-2.68Zm-1.75.833-1.583,1.851,1.713,1.832a2.805,2.805,0,0,1-5.033-1.828c.023-2.029,3.111-4,4.9-1.855Zm-32.82-.712-1.691.509.386,1.491,1.749-.458Zm-22.815.47-.313,1.6,1.943.419.328-1.6Zm20.023.272-1.8.392.309,1.6,1.8-.381Zm37.551.376L142.9,70.748l1.482,1.546,1.5-1.546Zm-54.458.047-.228,1.616,2.036.275.158-1.635Zm13.706.221-1.831.21.186,1.585,1.9-.241Zm-10.805.187L92.8,71.4l1.784.144V69.9Zm7.87.155L98.9,69.96l.012,1.6,1.83-.117-.05-1.553ZM68,69.91a1.919,1.919,0,1,0,1.908,1.918A1.911,1.911,0,0,0,68,69.91Zm29.689.054-1.761.015.008,1.624,1.815.008-.061-1.647Zm46.692.008.773.777-.773.765-.791-.765ZM68,70.586a1.26,1.26,0,1,1-1.256,1.258A1.254,1.254,0,0,1,68,70.586Zm-6.786.093,2.537,2.078a48.955,48.955,0,0,1-3.363,4.835L55.7,73.813l2.452-1.394a1.879,1.879,0,1,0,3.545.862,1.883,1.883,0,0,0-1.754-1.88Zm-1.417,1.336a1.264,1.264,0,1,1-1.259,1.266A1.263,1.263,0,0,1,59.793,72.015Zm86.233.6a2.441,2.441,0,0,1,.861.525,2.856,2.856,0,0,1-2.338,4.55,2.676,2.676,0,0,1-1.533-4.787l1.489,1.415Zm-69.268.855L82.01,75.5l-1.993,5.74-5.742-2.369Zm-21.587.6a63.334,63.334,0,0,0,73.99,7.923l1.348-.027.715.738a65.314,65.314,0,0,1-77.691-7.566Zm59,1.158,1.692,5.674-5.809,1.538-1.3-5.748Zm-61.2.206a64.074,64.074,0,0,0,26.5,14.956l.266,2.326c-11.462-3.462-20.12-8.085-28.553-16.11Zm25.175.089a1.886,1.886,0,1,0,1.877,1.887A1.883,1.883,0,0,0,78.148,75.518Zm-9.341.423,5.417,2.882-2.7,5.433-5.754-3.1Zm9.318.2a1.265,1.265,0,1,1-1.259,1.266A1.263,1.263,0,0,1,78.125,76.139Zm8.971.773,5.2.761-.239,5.8-6.075-.734C86.22,80.7,87.1,76.912,87.1,76.912Zm25.143.144a1.886,1.886,0,1,0,1.877,1.887A1.883,1.883,0,0,0,112.239,77.056Zm-.023.621a1.265,1.265,0,1,1-1.259,1.266A1.263,1.263,0,0,1,112.216,77.677Zm-42.325.082a1.886,1.886,0,1,0,1.877,1.887A1.882,1.882,0,0,0,69.891,77.759Zm33.281.008.745,5.829-5.685.284L97.9,78.066Zm40.741.52h.807a138.74,138.74,0,0,0,1.047,15.12c.086.639.126.828.061.943-.558.994-1.206-.257-1.459-3.111-.07-.786-.159-1.931-.255-2.683-.292-2.275-.2-10.269-.2-10.269Zm-96.076.09c-8.547,5.362-22.765,18.172-22.68,18.471l.058,49.222,1.112.054.919-1.81c-1.422-.358-1.024-3.045,1.7-3.584a9.332,9.332,0,0,0,2.233-.839c2.067-1.585,5.425-2.521,7.781-1.9,3.436.884,4.14,3.424,2.487,7.842-1.3,3.482-3.886,7.934-6.31,9.2-.2.1-.626.315-.626.315s.564.515.769.648c6.679-3.881,10.051-17.8,9.87-26.467.27-8.873,1.791-17.778,5.353-24.254,5.886-10.7,13.671-15.006,13.632-15.046C64.134,90.237,53.638,83.83,47.837,78.377Zm22.031,0a1.264,1.264,0,1,1-1.259,1.266A1.263,1.263,0,0,1,69.868,78.381Zm51.921.2L123.816,84l-5.634,2.319-2.031-5.694Zm-32.407.027A1.886,1.886,0,1,0,91.258,80.5,1.882,1.882,0,0,0,89.382,78.61Zm11.453.47a1.886,1.886,0,1,0,1.877,1.887A1.882,1.882,0,0,0,100.835,79.08Zm-11.477.151A1.264,1.264,0,1,1,88.1,80.5,1.263,1.263,0,0,1,89.358,79.231Zm11.454.47a1.264,1.264,0,1,1-1.259,1.266A1.263,1.263,0,0,1,100.812,79.7Zm19.162.645a1.886,1.886,0,1,0,1.877,1.887A1.883,1.883,0,0,0,119.974,80.346Zm-.023.621a1.264,1.264,0,1,1-1.259,1.266A1.263,1.263,0,0,1,119.951,80.967Zm-39.795.1,5.63,1.449-1.309,5.938-6.353-1.7Zm71.226-.153c.921,2.9-.769,6.621-.854,6.864-1.023,2.918-2.255,5.3-2.7,5.441-.381.146-.55.053-.549-.306a45.567,45.567,0,0,1,2.248-6.692,17.5,17.5,0,0,0,.8-2.667c0-.45-.433.283-.9,1.405-.906,2.244-2.227,4.647-2.514,6.823-.205,1.779-.541,1.528-.787-.59-.342-2.939.3-4.451,3.583-8.544.786-.979,1.593-1.985,1.673-1.734ZM110.019,82.42l1.629,5.814L105,89.375l-1.035-5.895Zm-27.828.586a1.886,1.886,0,1,0,1.877,1.888A1.883,1.883,0,0,0,82.191,83.006Zm9.936.377,6.021.345.053,6.043-6.534-.283Zm-9.959.244a1.265,1.265,0,1,1-1.259,1.267A1.264,1.264,0,0,1,82.168,83.627Zm25.267.536a1.886,1.886,0,1,0,1.877,1.888A1.883,1.883,0,0,0,107.435,84.163Zm-12.481.486a1.886,1.886,0,1,0,1.877,1.887A1.883,1.883,0,0,0,94.954,84.649Zm12.458.136a1.264,1.264,0,1,1-1.259,1.266A1.263,1.263,0,0,1,107.412,84.785Zm-12.481.485a1.265,1.265,0,1,1-1.259,1.266A1.264,1.264,0,0,1,94.931,85.27Zm41.054.361c.1,0,.23.017.316.016,1.345-.015,5.879,3.26,7.04,5.243.964,1.751.465,2.446-.645.882-1.53-1.715-4.358-4.259-4.719-4.261-.386,0,.146.553,1.947,2.319,1.786,1.75,3.67,4.032,3.668,4.439,0,.268-.355.234-.865-.082a18.113,18.113,0,0,1-2.576-1.856c-.3-.282-.867-.8-1.27-1.157-1.665-1.469-3.563-4.854-3.028-5.5a.181.181,0,0,1,.132-.039Zm-84,.482a2.325,2.325,0,0,1,2.521,2.066c.038.96.1,1.033.966,1.049.823.015,3.2.3,3.2.3l.016,2.687s-1.149-.007-2.472-.07c-2.253-.107-2.243-.11-2.529.886a1.415,1.415,0,0,1-.727.9c-2.023,1.337-3.974-1.088-2.718-3.379.431-.786.456-1.055.158-1.526a1.987,1.987,0,0,1,1.583-2.909Zm.494,1.375a1.1,1.1,0,0,0-.773.357,1.788,1.788,0,0,0,0,1.833c.318.528.31.67-.061,1.018a1.589,1.589,0,0,0-.035,2.285c.581.417,1.2-.133,1.2-.976,0-.924.646-.907.646-.907l4.234.074.013-.694-3.071-.155a2.175,2.175,0,0,1-1.2-.267c-.349-.243-.747-.665-.367-1.178a.809.809,0,0,0-.579-1.39ZM43.3,89.076l2.008,3.433,2.34.086.2,2.089L50.7,96.527l-2.915,1.714-.143,2.1-2.208.28-2.051,2.582-1.965-2.579-2.167.012-.031-2.155L36.24,96.552,39.5,94.708l-.035-2.463,2.313-.155L43.3,89.076Zm70.932,1.562.1,2.073-3.286.587.428-2.113ZM93.174,92.727l4.429.136-.255,29.108-1.039-.008-.019-1.134-1.417.047L93.432,120ZM43.3,93.465l-2.6,3.309,3.148,2.765L46.624,96.3Zm51.2.443v1.339H96.36V93.908ZM43.361,95.053,45.192,96.4l-1.4,1.853-1.764-1.538Zm70.967.762-.058,15.931c-6.086,4.8-7.982,13.259-7.982,13.258l-2.475-.147L110.1,96.793Zm-32.991.353c-5.476,2.62-11,4.6-16.427,10.855a30.46,30.46,0,0,1,6.3,7.088c4.522-.678,9.554.136,15.042,2.307Zm13.165.357v1.387H96.36V96.525Zm-61.56,2a4.718,4.718,0,0,1,.178.878c4.016-.339,2.992,4.348.433,4.509-.3.039.248.831.845,1.084a2.708,2.708,0,0,0,3.611-1.107,8.043,8.043,0,0,0,.811-1.173l2.479,1.32s.071-.036-.367,1.107c-.8,2.081.366,4.633,1.263,2.773a2.408,2.408,0,0,1,2.858-1.146c1.138.48,1.532,2.523.734,3.81-.242.39-.249.471-.1.832a4.3,4.3,0,0,1,.128,2.388c-.3.584-.653.717-1.336.241a8.213,8.213,0,0,0-3.086-1.379c-2.857-.541-3.416-1.552-4.553-3.915-3.384,1.02-8.448-1.114-7.773-6.167.307-1.115.391-3.256-.174-3.693-1.108-.859.108-2.1,1.772-2.3,1.368-.136,2.027,1.167,2.279,1.934ZM80.82,97.061l4.4,18.541c-4.833-1.78-9.575-3.169-13.771-2.136a29.4,29.4,0,0,0-5.692-6.606c4.153-5.036,9.434-7.854,15.06-9.8Zm-49.808.909a1.423,1.423,0,0,0-.943.419,2.015,2.015,0,0,1,.46.591c.259.543.262.543-.031,1.747-1.343,4.83,1.842,8.026,6.371,6.63,1.113-.346,1.07-.308,1.39,1.006.528,2.162,2.049,3.279,5.071,3.689a2.017,2.017,0,0,1,.741.237c1.33.853.785-.281.421-.722a4.086,4.086,0,0,0-.734-.688s.406-.264.595-.365c.853-.454,1.171-2.235.467-2.617-.642-.349-1.734.178-1.737.839-.008,1.208-1.521,1.336-2.847.332-1.7-1.289-.2-4.537-.185-4.533l-.959-.424c.127.114-2.022,3.184-4.666,2.113-1.846-.748-3.148-2.9-2.291-3.512.623-.168,1.371.176,1.845-.19.944-.745.183-2.052-1.166-2a8.913,8.913,0,0,0-.927.136,6.212,6.212,0,0,0,.151-1.624,1.121,1.121,0,0,0-1.027-1.06Zm63.509,1.41v1.142l1.839.011V99.391Zm-.019,2.353v1.177H96.36v-1.177Zm0,2.536v1.2H96.36v-1.2Zm0,2.365v1.274H96.36v-1.274Zm0,2.373V110.2H96.36v-1.189Zm0,2.42v1.2H96.36v-1.2ZM34.113,112.6l1.564,2.656,1.857.082.073,1.825,3.159,2.428-2.761,1.984-.2,1.969-2.19.07-1.772,3.006-2.182-2.637-1.753-.283-.2-2.4-2.7-2.031,2.537-2.039.2-2.132,2.067.183ZM136.9,113.87a1.278,1.278,0,0,1,.553.151c.656.333.863.372,2.568.459,1.977.1,2.676.278,3.657.936.591.4.625.394,1.258-.028,2.777-1.85,5.949-.168,6.179,3.278a4.6,4.6,0,0,0,.506,2.031c.242.527.493.942.348,1.278-.445,1.026-2.585,1.092-3.75-.431a.889.889,0,0,0-.71-.33c-.579.216-2.06-.956-2.043-1.006-.138.816-.207,1.464-.352,2.649l-2.591-.039s-.058-.478-.178-2.144c-.138-1.915-.611-2.476-1.22-1.441a2.183,2.183,0,0,1-3.993-1.122c-.055-.719-.095-.812-.486-1.115-1.312-1.014-.93-3.15.254-3.126Zm-42.4.1v1.064H96.36v-1.064Zm42.7,1.138c-.514.037-.221.955.63,1.441.483.275.484.273.421,1.118-.115,1.531,1.352,2.281,2,1.025a1.076,1.076,0,0,0,.116-.679c-.273-1.113,2.12-.809,2.695.341a6.3,6.3,0,0,1,.352,1.678c.067.673.085,1.453.085,1.453h.764a8.883,8.883,0,0,1,.035-.909c.189-1.9,1.026-3.1,2.155-3.1.481,0,.5.088.162.714-.57,1.06-.021,1.828,1.309,1.837.844.006.84.008,1.155.61.344.662.6.872.927.75.226-.087.23.041-.066-2.218-.442-3.366-2.39-4.273-5.078-2.365-.761.54-.928.523-1.6-.132-1.012-.983-1.652-1.208-3.63-1.282a11.332,11.332,0,0,1-2.062-.206.852.852,0,0,0-.371-.077Zm-63.815.963c-.439.007-.95.1-1.392.138a78.088,78.088,0,0,1,.945,7.8c2.264-.4,5.2-.027,9.067,1.787a60.2,60.2,0,0,1,8.314,5.161,29.174,29.174,0,0,0,10.433,4.413c4,.873,7.215.8,7.127.609a35.879,35.879,0,0,1-1.277-7.752,32.414,32.414,0,0,1-14.962-5.364C86.23,119.176,79.98,115.963,73.382,116.076Zm21.12.217v1.08H96.36v-1.08Zm-60.953.214-2.939,3.08,3.2,3.045,2.714-3.1Zm-.081,1.4,1.664,1.6-1.344,1.713L31.915,119.6Zm41.436.253c.392,0,.775.279,2.07,1.009,1.086.754,1.954,1.224,1.637.043.248-.34,1.451.767,2.869,1.464,1.71,1.378,1.717,1.046,1.939.361.229-.5.545-.162,1.912,1.111,1.8,1.672,1.634,1.674,1.992,1.258.409-.781.546-.772,2.008.917,1.521,1.706,1.842,2.07,2.167,1.34.5-.378.759-.011,2.823,1.938,1.014,1.018,1.253.86,1.444.175.2-.706.252-.547,1.966.819,1.984,1.6,2.18,1.714,2.263,1.161.131-.878.745-.566,2.788.909,1.238.89,1.7,1.137,1.969.917.27-.48-.671-1.4,1.325-.532l.548,2.912-.691-.2c-.425-.121-1.355-.438-1,.47.2.525-.3.462-1.85-.466-2.22-1.33-2.63-1.635-2.8-1.363-.293,1-.256,1.06-1.753-.121-1.743-1.328-2.093-1.7-2.337-1.242-.032,1-.518.8-2.143-.61-1.374-1.208-1.666-1.84-2.282-.915-.169.321-.338.24-.566.073a32.132,32.132,0,0,1-2.859-2.789c-.357-.392-.561-.265-.854.058-.274.3-.3.208-1.182-.61-2.118-1.954-2.511-2.442-2.807-2.175-.241.458-.01,1.081-1.637-.209-2.04-1.478-2.927-2.134-2.788-1.166-.351.434-.105.519-2.147-.617-1.942-1.08-2.188-1.4-2.468-1.033a.6.6,0,0,1-.842.342l-.394-2.964.7.008a3.967,3.967,0,0,1,.981-.275Zm-15.574.248c-.156.458-1.226,3.1-1.24,9.83a7.654,7.654,0,0,0,2.777-4.843A10.554,10.554,0,0,0,59.33,118.406Zm35.168.187v1.227h1.858v-1.227Zm-35.036.972c2.361,3.765-.241,7.314-.889,7.565A34.5,34.5,0,0,1,59.462,119.565Zm61.964,3.163c-3.881,2.46-3.251,9.116-1.347,10.822A61.848,61.848,0,0,0,121.426,122.728Zm-.531.819-1.045,8.567C118.493,130.6,118.252,126.1,120.9,123.547Zm24.478,1.446,2.05,2.594,1.823.136.405,1.872,2.661,2.179-2.664,1.817-.236,2.074-1.981.2-1.962,3.1-1.919-3.041-1.838-.2-.058-2-2.889-2.144,2.757-1.666.054-2.256,2.159.008Zm-72.62.812a20.054,20.054,0,0,1-8.8,13.36l.023.629-7.395,2.982a46.709,46.709,0,0,1-10.639,21.97l1.7,3.48-8.26,2.855,11.825,20.393c.814,0-5.729,3.115-13.628,2.3,5,12.309,6.029,25.052,3.263,36.212l38.706-.163L49.965,171.45l-.483-.952c-.41-.762,15.726,2.282,12.3,17.333-.048.349.072.393.266.249,3.138-2.71,23.97-10.224,40.606-.3l4.943-2.059c-2.352,8.282-5.026,13.979-9.534,18.972l.764,11.787a50.207,50.207,0,0,0,17.8-34.658c3.592-1.76,6.717-3.759,10.064-5.643l.444.144,2.166-1.309c-6.948-7.644-21.135-14.951-30.225-16.871l.536,2.591a73.755,73.755,0,0,0-12.67-2.07l-.6-27.427-5.051-3-.159,30.255a119.5,119.5,0,0,0-12.462,1.545l.39-2.586-3.977.823-.069-2.52,4.5-1.3,6.519-27.791Zm.544.617,2.078.423-6.453,27.248a28.032,28.032,0,0,1-3.842.867c-.288-5.11-.4-15.524-.4-15.524,6.369-5.339,7.366-9.119,8.615-13.014Zm-44.29,2c.973-.012,2.019.7,2.085,1.34.167.4.306.566.568.6,1.628.226,1.68.66,1.726,1.6-.229,1.81.976.29,1.317-1.507.036-.187.016-1.561.016-1.561l1.992-.02s.068,1.435.1,1.663c.175,1.39.765,2.517,1.174,1.778,1.4-2.531,4.612-1.24,4.105,1.2-.125.577-.117.614.274,1.052a2.223,2.223,0,0,1,.664,2.132c-.2.644-.653.742-1.618.354a7.361,7.361,0,0,0-2.471-.292c-2.078-.061-2.208-.1-3.016-.889l-.51-.5-.881.52a4.094,4.094,0,0,1-4.348.1c-1.009-.52-1.6-1.766-1.753-3.709-.03-1.032-.318-1.78-.954-2.027-.343-.325.039-.971.626-1.561a1.557,1.557,0,0,1,.907-.284Zm116.2.3-2.738,3.434,3.255,2.928,3.032-3.585Zm-63.422.494,3.793,2.182.486,27.039-4.286-.121.008-29.1Zm-52.67.376c-.288.029-.107.494.105,1.2a3.259,3.259,0,0,1,.177,1.472c-.4,2.963,2.976,4.47,5.415,2.416.648-.747.754-.7,1.3.1.669.843,1.643,1.117,3.684.994.932-.056,1.55.444,1.954.113.293-.214.009-.778-.556-1.107-.345-.2-.358-.233-.289-.928.173-1.754-1.265-2.218-2.286-.738-.844,1.222-2.116.414-2.526-1.6-.244-1.554-.438-1.529-.622-.175-.2,1.647-2.355,3.432-3.216,2.621-.236-.238-.234-.179.008-1,.311-1.062.061-1.457-1.089-1.733a.808.808,0,0,1-.479-.349c-.61-.949-.583-1.282-1.576-1.282Zm116.366.629,1.738,1.507-1.514,1.8-1.85-1.429Zm-62.506.964v1.277h1.622V131.18Zm0,2.574V135.1h1.622v-1.344Zm9.77,1.546q2.727,10.183,5.476,20.359c1.73-.695,11.717-5.154,16.428-10.859a31.7,31.7,0,0,1-5.72-6.638c-4.71.781-10.122-.212-16.184-2.862Zm-9.77.808v1.254h1.622v-1.254Zm10.793.342c4.294,1.287,9.793,3.063,14.857,2.159a22.091,22.091,0,0,0,5.329,6.094c-3.833,4.192-9.374,7.39-15.107,9.853Zm40.749.489a.968.968,0,0,1,.645.272,4.259,4.259,0,0,0,2.592,1.045,5.225,5.225,0,0,1,4.425,3.643c.2.786.315.829,1.429.547,4.219-1.068,7.472,2.451,6.468,7.146-.35,1.64-.458,1.836.031,2.486,1.073,1.162,1.306,1.178.132,2.2a2.331,2.331,0,0,1-3.642-1.068c-.431-.859-.424-.924-1.132-1.037a2.389,2.389,0,0,1-.046-4.715,3.442,3.442,0,0,0,.486-.043c.737-.335-.8-2.086-2.073-1.817-1.56.329-2.337,1.335-2.951,2.912l-2.456-1.409c.617-1.282,1.069-2.933.533-3.954-.433-.861-.979-.894-1.147-.07-.393,1.94-2.79,2.519-4.364.94a2.376,2.376,0,0,1-.336-3.107c.419-.827.429-.886.251-1.235-.618-1.214.219-2.744,1.155-2.738Zm-51.542,1.577v1.309l1.626-.008v-1.3H82.971Zm51.844.109c-.5,0-.5.493-.035,1.087.41.418.49.61-.077.971a1.887,1.887,0,0,0-.375,2.42,1.219,1.219,0,0,0,2.244-.839c-.137-.943.6-1.365,1.772-1.01a3.237,3.237,0,0,1,1.846,4.361c-.126.364-.377,1.212-.377,1.212l.5.307s.6-.959.831-1.25c1.936-2.393,6.512-1.18,6,1.813-.079.94-.075,1.067-1.093.773-.676-.351-1.329.377-1.309,1.285a1.439,1.439,0,0,0,1.718,1.344c.776-.146.971-.12.916.932a1.709,1.709,0,0,0,.826,1.464c1.156.48,1.75-.181.826-1.153a2.171,2.171,0,0,1-.174-2.354,6.833,6.833,0,0,0-.444-4.532c-.929-1.824-3.53-2.589-5.707-1.678-1,.535-1.1.659-1.2-.279a5.185,5.185,0,0,0-4.457-4.241,13.264,13.264,0,0,1-2.236-.633ZM82.971,141v1.208H84.6V141Zm0,2.362V144.7h1.622v-1.332Zm0,2.6v1.332s.887-.025,1.622,0v-1.332Zm52.967,2.136,1.777,2.641,1.965.132.232,2.132,2.981,1.868L140.31,156.5l-.02,2.063-2.463.209-2.178,2.905-1.854-2.563-1.854.008-.436-2.287-3.283-1.674,3.368-1.93-.093-2.4,2.29-.016,2.151-2.711Zm-52.967.315v1.367h1.622v-1.367Zm0,2.5v1.351h1.622v-1.351Zm51.971,1-2.545,3.406,3.429,2.851,2.727-3.445Zm-51.971,1.364v1.479h1.622v-1.479Zm52.234.178,1.768,1.375-1.263,1.612-1.757-1.348ZM82.971,156.02v1.239h1.622V156.02Zm-48.272.159c-3.126.014-6.084,5.107-6.792,7.519-.838,3.089-.962,8.678-.167,8.835,2.8-2.028,4.132-5.465,6.237-8.039.327,2.976.275,8.716.275,8.716a5.857,5.857,0,0,0-1.918,1.7,3.218,3.218,0,0,0-.226,2.865,3.373,3.373,0,0,0-4.541,2.96c.1,4.074,4.525,3.5,4.541,3.444-.094-.025-.871,4.335,3.055,4.8,1.409.166,3.887-.867,3.151-4.831,2.478.411,4.615-.962,4.642-3.36a3.06,3.06,0,0,0-3.348-3.064,9.347,9.347,0,0,0-1.387.2,4.074,4.074,0,0,0-2.02-4.637l-.451-11.8s.992,1.088,1.436,1.5a22.085,22.085,0,0,0,5.364,3.829c2.146,1.138,1.882.858,1.51-1.305-1.014-3.247-3.134-5.7-7.619-8.769a3.017,3.017,0,0,0-1.742-.567Zm.309.252.63,16.682h-.931l-.8-16.665Zm92.018.552a1.988,1.988,0,0,1,.254.008,2.176,2.176,0,0,1,1.634,3.456c-.36.4-.484.486-.3.731.869,1.106.384,2.853-.475,3.122-2.73.854-3.143-.648-3.135-2.416l-4.217-.159.027-2.47,4.649.093a1.755,1.755,0,0,1,1.561-2.365Zm-93.972.027a.209.209,0,0,1,.05,0c.437.037-.013,1.212-1.232,3a30.155,30.155,0,0,0-2.313,4.206c-.75,1.885-1.256,5.266-.753,4.645.454-1.413.5-2,.889-3.017a40.282,40.282,0,0,1,3.386-6.11c.407-.366.512-.141.5,1.084-.02,2.759-1.321,5.662-4.421,9.061a9.88,9.88,0,0,1-1.255,1.184c-.3,0-.291-.626-.286-1.938.02-5.212,1.944-9.866,4.9-11.868a1.3,1.3,0,0,1,.529-.249Zm3.14.241c1.36.4,3.8,2.6,4.808,3.724,1.165,1.265,2.727,4.767,2.452,5.305-.091.237-.288.2-.969-.186-4.329-2.45-7.428-5.47-6.615-6.447.226-.273,1.156.29,2.4,1.453.847.755,1.713,1.521,2.488,2.287,1.216,1.205,1.49,1.382.756.043a19.479,19.479,0,0,0-4.78-4.932c-.918-.7-1.126-1.258-.541-1.247Zm91.1.7a.42.42,0,0,0-.151.027c-.851.361-.505,1.471-.587,2.322l-4.68-.163-.027.653,4.391.241c.077.666-.268,2.1.3,2.345,1.229.514,1.9-1.078.857-2.035-.371-.331-.773-.479.259-.947a1.572,1.572,0,0,0,.2-2.233.9.9,0,0,0-.564-.21Zm-59.215.194-.236,1.744-2.715.687-.069-1.864Zm32.017.617c10.023,2.716,21.164,8.88,28.4,15.842l-1.448.956A68.4,68.4,0,0,0,100.5,160.645Zm-17.269.268c16.5-.045,31.55,6.407,43.691,16.829l-1.985,1.258c-11.075-9.207-23.345-15.347-39.853-16.079-10.79-.478-23.1,2.3-35.238,9.018l-.9-1.65c11.786-6.463,23.357-9.345,34.288-9.376Zm-1.3,2.5,6.492.19-.4,6.062-5.9-.194Zm-6.982.431.915,5.849-5.649,1.06-1.6-5.865Zm20.548.773,6.449,1.728-2.127,5.961-5.662-1.623Zm-10.33.085a1.864,1.864,0,1,0,1.854,1.864A1.858,1.858,0,0,0,84.763,162.824Zm0,.645a1.222,1.222,0,1,1-1.235,1.219A1.226,1.226,0,0,1,84.763,163.469Zm-12.805.011a1.865,1.865,0,1,0,1.854,1.864A1.859,1.859,0,0,0,71.958,163.48Zm0,.645a1.222,1.222,0,1,1-1.236,1.219A1.227,1.227,0,0,1,71.958,164.125Zm25.53.75a1.864,1.864,0,1,0,1.853,1.864A1.859,1.859,0,0,0,97.488,164.875Zm-35.937.217,1.911,5.7-5.472,2.229-2.05-5.635Zm35.937.427a1.222,1.222,0,1,1-1.236,1.22A1.227,1.227,0,0,1,97.488,165.519Zm10.72,1.367,5.8,3.084-3,5.453-5.411-2.835Zm-48.6.494a1.864,1.864,0,1,0,1.854,1.864A1.859,1.859,0,0,0,59.612,167.38Zm21.927.178.27,5.76-5.14.365-.934-5.725Zm6.167.3,5.858.816-1.378,5.546-5.3-.859.822-5.5Zm-28.094.163a1.222,1.222,0,1,1-1.236,1.22A1.227,1.227,0,0,1,59.612,168.024Zm19.193.746a1.864,1.864,0,1,0,1.853,1.864A1.859,1.859,0,0,0,78.805,168.77ZM69.444,169l1.518,5.6-5.65,1.627-1.734-5.39Zm20.51.089a1.865,1.865,0,1,0,1.853,1.864A1.859,1.859,0,0,0,89.954,169.092Zm-11.149.323a1.221,1.221,0,1,1-1.236,1.219A1.226,1.226,0,0,1,78.805,169.415Zm11.149.322a1.222,1.222,0,1,1-1.236,1.219A1.227,1.227,0,0,1,89.954,169.737Zm19.826.012a1.864,1.864,0,1,0,1.854,1.864A1.859,1.859,0,0,0,109.78,169.749Zm-10.029.543,5.661,1.946-2.259,5.321-5.418-2.074Zm10.029.1a1.222,1.222,0,1,1-1.236,1.22A1.227,1.227,0,0,1,109.78,170.393Zm-42.587.2a1.865,1.865,0,1,0,1.853,1.865A1.86,1.86,0,0,0,67.193,170.591Zm0,.645a1.222,1.222,0,1,1-1.236,1.22A1.227,1.227,0,0,1,67.193,171.236Zm34.3,1.088a1.864,1.864,0,1,0,1.853,1.864A1.858,1.858,0,0,0,101.493,172.324Zm0,.644a1.222,1.222,0,1,1-1.236,1.22A1.228,1.228,0,0,1,101.493,172.968Zm-66.314.649a2.918,2.918,0,0,1,2.66,2.793c.052,1.058-1.291,2.444-1.291,2.444L34.986,177.4l-1.5,1.39c-.253.085-1.419-1.908-1.063-2.939a2.865,2.865,0,0,1,2.756-2.233Zm84.17,0,4.484,3.689s-1.968,1.2-2.333,1.418a1.905,1.905,0,0,0,.066-.5,1.854,1.854,0,1,0-2.274,1.818c-.461.266-1.074.609-1.074.609l-2.367-2Zm-7.1,9.861-1.983.818c-12.209-8.065-28.91-12.478-48-4.357l-.657-1.592C75.782,172.412,93.664,170.563,112.251,183.478Zm-1.085-8.059,4.8,2.963-3.05,4.711-4.692-3.018Zm-1.452,9.134-2.016.762c-14.9-9.63-30.785-9.116-44.977-3.344l-.219-1.353c16.711-7.276,33.482-4.961,47.212,3.935Zm10-7.553a1.221,1.221,0,1,1-1.235,1.219A1.226,1.226,0,0,1,119.712,177ZM33,179.208l-1.657,1.681,1.513,1.71a6.492,6.492,0,0,1-.828.6,2.763,2.763,0,0,1-4.049-2.481C28.134,178.02,31.366,176.734,33,179.208Zm78.854-1.288a1.864,1.864,0,1,0,1.853,1.864A1.859,1.859,0,0,0,111.858,177.92ZM39.712,178a2.8,2.8,0,0,1,2.762,2.46,2.877,2.877,0,0,1-1.592,2.758c-1.58.964-3.416-.6-3.384-.692L38.83,181.2l-1.6-1.648A3.341,3.341,0,0,1,39.712,178Zm-4.614.32,2.73,2.738-2.888,2.707-2.676-2.7Zm72,7.286-1.533.707-2.089-1.266-.618,1.192,1.162.742-1.208.456c-13.924-7.867-29.657-5.588-40.115-.368,0,0,.091-.809.1-.809l1.139-.584-.425-1.449-.61.179-.047-1.6c14.932-6.762,31.875-5.213,44.247,2.8Zm4.757-7.037a1.222,1.222,0,1,1-1.235,1.219A1.226,1.226,0,0,1,111.857,178.565Zm-76.817.978L33.584,181l1.448,1.553,1.414-1.5Zm45.576.323-1.908.085.1,1.565,1.861-.046Zm1.3.008.035,1.565,1.73-.008-.008-1.546-1.757-.012Zm3.071.027-.085,1.557,1.718.078.124-1.55Zm-7.415.2-1.954.214.216,1.573,1.85-.218Zm10.616.023-.139,1.608,1.765.2.239-1.538Zm-53.141.008.849.909-.845.847-.9-.886Zm39.231.478-1.884.3.2,1.62,1.838-.365Zm17.1,0-.313,1.5,1.753.424L93.1,181Zm-20.185.656-1.583.424.343,1.577,1.672-.412Zm23.193.063-.332,1.522,1.788.489.36-1.46Zm-25.808.757-1.656.59.429,1.46,1.683-.57Zm28.886.167-.552,1.464,1.548.625.684-1.328Zm-31.62.858-1.571.649.648,1.448,1.491-.683Zm-32.4.045,1.591,1.6,1.891-1.715c1.649,1.466,1.623,4.9-1.3,5.47-2.55.5-4.883-3.339-2.185-5.353Zm66.854.309-.606,1.343,1.711.758L102,184.27Zm-48.8,8.621,21.587,36.9-3.414-.066L48.784,193.261Zm-3.544,1.406,1.194,1.865c-2.338-1.872-5.774-.3-5.629,2.062.115,1.053,1,1.694,1,.679-.106-1.06,1.388-1.983,2.472-1.934,2,.027,3.223,2.612,1.842,3.9-.908.841-2.137.8-1.722-.35.065-.4.033-.543-.155-.714a.88.88,0,0,0-1.374.912c.169.5.219.617-.371,1.025-2.289,1.617-.694,4.8,2.077,3.352.567-.205.8-.235,1.055-.136,1.153.446,1.939-.56.846-1.083-.636-.3-.652-.823-.039-1.235,1.308-.88,3.347.494,3.34,2.252-.008,1.244-1.637,2.163-3.2,1.8-.93-.214-1.042.419-.19,1.076,1.652,1.273,4.124.218,4.862-2.074a2.424,2.424,0,0,0,.2-.872l2.2,3.658a10.84,10.84,0,0,0-1.1-.452c-2.074-.636-4.4.716-4.407,2.563,0,.871.509,1.208.8.525a2.587,2.587,0,0,1,3.611-1.538,2.516,2.516,0,0,1,1.471,3.278c-.564,1.312-2.457,1.7-2.244.458.1-.591-.256-.952-.888-.893-.239.022-.546.72-.463,1.056.077.314.022.39-.788,1.025-1.924,1.509-.444,3.972,1.958,3.259a1,1,0,0,1,.915.066c.869.421,1.781.159,1.784-.513,0-.461-.2-.639-.749-.641-.823,0-.645-.94.267-1.4,2.285-1.148,4.62,1.752,3.228,4.012-.6.971-.976,1.071-3.113.835-.344-.038-.5.2-.3.481a3.346,3.346,0,0,0,3.608.688,3.834,3.834,0,0,0,1.986-3.345l2.415,4.241a3.233,3.233,0,0,0-5.64,1.609c0,.717.647,1.09.873.5a2.425,2.425,0,0,1,4.68.987,1.584,1.584,0,0,1-.371,1.083c-.681,1.322-2.424,1.649-2.108.462.141-.367-.139-.766-.618-.881s-.772.283-.761,1.006c.009.54.013.705.013.705a2.7,2.7,0,0,0-1.616,2.157l-16.909.039c2.01-11.787,1.538-22.43-2.306-32.5-.332-.873-.809-2.142-.809-2.142l2.984.079c.72.628,3.441.384,4.5-.586Zm2.871,4.628,1.746,3.155a5.781,5.781,0,0,0-2.583-.788,6.888,6.888,0,0,0,.837-2.367Zm-4.591,3.353a1.158,1.158,0,1,1-1.154,1.158A1.154,1.154,0,0,1,46.239,201.471ZM58.28,210.9l1.682,3.011a6.562,6.562,0,0,0-2.788-.727A6.7,6.7,0,0,0,58.28,210.9Zm-4.85,3.225a1.1,1.1,0,1,1-1.089,1.1A1.1,1.1,0,0,1,53.43,214.121Zm12.186,9.384,2.483,4.43a5.54,5.54,0,0,0-3.347-1.139A5.825,5.825,0,0,0,65.616,223.505Zm-3.3,5.527-2.664.009C60.181,226.7,62.334,227.308,62.312,229.032Zm2.521-1.129a2.522,2.522,0,0,1,2.176,1.152l-3.352.008A1.159,1.159,0,0,1,64.833,227.9Z"/><path id="3751536d-c4dd-4dae-b7b4-0f6a4cdbd574" data-name="path163-0-2-5-8-7-5-8-8-7" d="M48.375,65.052s-3.733-6.124-8.769-13.325c-3.369-4.818-6.062-10.036-6.312-14.53-.288-5.134,2.431-10.284,7.353-10.534s6.915,3.959,7.728,7.428c.813-3.47,2.809-7.677,7.728-7.428s7.64,5.4,7.353,10.534c-.25,4.494-2.943,9.712-6.312,14.53-5.036,7.2-8.769,13.325-8.769,13.325Z" fill="#d40000"/><path id="ad88dbe0-d2a5-447c-abef-c2dc04289c5d" data-name="path163-0-2-5-8-7-7-8-4-8-6" d="M131.2,185.39s-3.733,6.124-8.769,13.325c-3.368,4.818-6.062,10.036-6.312,14.53-.287,5.134,2.431,10.284,7.353,10.534s6.915-3.958,7.728-7.428c.813,3.47,2.809,7.677,7.728,7.428s7.641-5.4,7.353-10.534c-.25-4.494-2.943-9.712-6.312-14.53C134.934,191.514,131.2,185.39,131.2,185.39Z" fill="#d40000"/></g><rect id="452fdd70-5c6f-4640-ac3c-cb748660a5fe" data-name="rect17736" x="0.496" y="0.496" width="178.583" height="249.449" rx="8.504" ry="8.504" opacity="0.08" fill="url(#3e220a94-00c5-47b9-8e72-31b1f763d8a3)" style="isolation:isolate"/></g></g></g></svg>