<svg xmlns="http://www.w3.org/2000/svg" xmlns:xlink="http://www.w3.org/1999/xlink" viewBox="0 0 179.576 250.442"><defs><pattern id="d3b6ee93-ba0a-4232-b5fd-70ba4cd49607" data-name="pattern17658" width="595.276" height="841.89" patternTransform="matrix(0.8, 0, 0, -0.8, -615.4, 1249.292)" patternUnits="userSpaceOnUse" viewBox="0 0 595.276 841.89"><rect width="595.276" height="841.89" fill="none"/></pattern></defs><title>QS</title><g id="5a68829f-7095-450b-b7b2-dd4039f8e53d" data-name="Layer 2"><g id="a5b98568-68f5-4cc8-99d5-cadeb470936b" data-name="Spades"><g id="7170995f-0e97-45dd-b888-80364b7f94d0" data-name="JQ"><g id="9f08b9f8-ab97-4899-9977-15b84eea2757" data-name="g101359"><rect id="ef6ed41d-efea-4c0b-bc06-39c29282cbd8" data-name="rect5539" x="0.496" y="0.496" width="178.583" height="249.449" rx="8.504" ry="8.504" fill="#fff" stroke="#b3b0b0" stroke-width="0.993"/><path id="c59af3b5-e8d8-4769-bd65-4407b6b63f0e" data-name="path7431-0-1" d="M14.27,40.475c-3.448,4.386-7.138,6.91-7.2,10.331a3.322,3.322,0,0,0,2.755,3.352A2.861,2.861,0,0,0,13.11,51.4c-.008-.4.473-.388.468.158a10.44,10.44,0,0,1-1.566,4.913h4.517a10.452,10.452,0,0,1-1.567-4.913c-.008-.546.475-.557.469-.158a2.861,2.861,0,0,0,3.284,2.754,3.323,3.323,0,0,0,2.755-3.352C21.408,47.385,17.719,44.861,14.27,40.475Z"/><path id="4b9562e9-145c-47dd-8367-280010eb231a" data-name="path7435-3-6" d="M165.306,209.967c-3.448-4.386-7.138-6.91-7.2-10.331a3.322,3.322,0,0,1,2.755-3.352,2.86,2.86,0,0,1,3.283,2.754c-.008.4.473.389.469-.158a10.445,10.445,0,0,0-1.567-4.913h4.518A10.445,10.445,0,0,0,166,198.88c-.008.547.475.557.469.158a2.86,2.86,0,0,1,3.283-2.754,3.322,3.322,0,0,1,2.755,3.352c-.061,3.421-3.751,5.945-7.2,10.331Z"/><path id="5de9f7dd-5155-4b6f-a94b-c8ad33a9f0f7" data-name="path37-0-2-9" d="M8.454,29.231H6.248V26.223H8.454s.017-1.62.081-4.479c.137-6.094.289-7.04,2.053-8.717,3.483-3.315,9.317-.614,9.248,4.37-.1,7.035-.028,13.742-.233,14.692-.365,1.673-.4,1.767-.253,2.073.3.614,2.941.88,2.941.708v2.963a5.453,5.453,0,0,1-4.46-1.183,6.617,6.617,0,0,1-6.5.8c-1.851-.871-3.254-3.123-2.875-8.217h0Zm7.457,5.251c-1.093-1.58-2.933-3.736-4.664-4.5-.108,1.816.049,3.34.687,4.159a2.542,2.542,0,0,0,3.977.343Zm.908-17.376c-.812-2.3-2.9-3.078-4.42-1.639-.953.894-1.1,1.836-1.126,6.951-.012,3.156-.012,4.482-.012,4.482,2.966.962,5.738,4.419,5.714,4.374l.072-9.543a26.744,26.744,0,0,0-.228-4.625Z"/><path id="63ae54b7-1865-44e6-9620-778972a7855b" data-name="path37-0-5-5-3" d="M171.12,221.211h2.206v3.008H171.12s-.017,1.62-.081,4.479c-.136,6.094-.289,7.04-2.053,8.717-3.483,3.315-9.317.614-9.248-4.37.1-7.035.028-13.742.233-14.692.365-1.673.4-1.767.253-2.073-.3-.614-2.94-.88-2.94-.708v-2.963a5.451,5.451,0,0,1,4.459,1.183,6.617,6.617,0,0,1,6.5-.8c1.851.871,3.254,3.123,2.876,8.217Zm-7.457-5.25c1.093,1.579,2.933,3.735,4.664,4.5.108-1.816-.049-3.34-.687-4.159a2.541,2.541,0,0,0-3.977-.342Zm-.908,17.375c.812,2.3,2.9,3.078,4.42,1.639.952-.894,1.1-1.836,1.125-6.951.012-3.156.012-4.482.012-4.482-2.965-.962-5.737-4.419-5.713-4.374l-.073,9.543a26.744,26.744,0,0,0,.229,4.625Z"/><path id="4221acb3-c65b-473b-9b5d-ee2a0f746d70" data-name="path4075-4-3-9" d="M82.159,229.432l18.779-34.27a93,93,0,0,0,9.782,3.146c-5.089,13.284-.037,30.808-.037,30.808s-28.538.288-28.524.316ZM30.7,170.911c-1.066-14.554.615-26.9,1.293-40.262.044-.187-6.1-3.994-6.1-3.994l14.439-8.148c1.439.747,2.265.617,2.6-.767-1.457-4.957-1.742-9.757,1.594-13.863,2.5-3,8.206-1.458,9.866-1.465,1.292-.006,4.367-10.24-.833-13.257-1.1-.639-1.624,5.973-2.376,8.754-3.346-1.958-9.532-3.607-10.358-7.06-.423-1.913,5.654-5.594,4.461-7.751-1.738-3.142-6.228-7.84-8.15-6.551-1.817,1.644-6.15,5-6.121,7.3,1.354,4.12,4.794,4.406,6.6,8.3A52.755,52.755,0,0,0,41.4,96.535c-1.248,1.912.772,5.253.866,4.742L26.509,94.4s3.61,27.212-.2,31.239c-.4.426,3.373-1.067,3.437-.835,1.148,1.455,13.87,9.557,17.511,12.469,6.467-9.034,8.829-13.008,17.163-21.022,1.829-1.514,5.908-4.281,8.24-7.6a11.722,11.722,0,0,0,2.314-8.011c-.435-3.019-.7-5.085-2.564-7.49C68.111,87.591,61.275,82.29,61.4,82.193l2.336-1.9s8.43,6.981,12,12.116c2.405,3.46,1.326,7.427,3.4,8.137.5.171,3.905-.114,5.024.1.135.026,24.8,17.461,20.328,18.466-6.191,1.392-16.063.484-16.063.484-7.047-6.89-10.45-9.156-14.65-7,0,0-10.644,9.325-16.787,16.627-3.5,4.161-9.051,12.861-9.051,12.861-.413-.182-12.6-9.829-12.091-8.747,0,0,2.922,26.425,1.622,36.1-.892,8.214-2.113,17.036-2.658,24.612,1.728-.376,4.278-.867,4.761,1.773.422,3.607-4.215,2.77-4.323,2.457.009,0,2.588,5.564,2.588,5.564s-4.016,6.938-3.9,6.636c.069-.186-3.651-6.159-3.651-6.159s2.761-5.014,3.177-6.03c.284-.695-4.226,1.83-4.4-1.829-.182-3.765,4.706-2.867,4.453-2.391-.6-8.05-1.953-16.374-2.807-23.156Zm60.387,18.11c.111-.083-10.658-4.328-20.551-3.928-3.485-1.359-9.17-2.781-12.964-.248a139.41,139.41,0,0,1-11.694-9.234c1.048-.013,5.557-25.936,7.542-34.114-1.145-10.944,9.384-10.936,10.3-2.17,11.342,11.744,25.23,23.891,39.545,35.843-2.277,4.73-10.5,8.336-12.176,13.851Zm24.8-77.419C102.952,98.4,75.889,74.8,75.889,74.8L88.557,62.417c6.65,1.985,13.484,3.643,21.209,3.722.031.03,8.467,3.843,12.961-.011l11.694,9.279s-4.85,25.545-7.7,34.461c.06,3.532-1.274,7.833-4.757,8.472-2.975.546-5.263-3.677-6.083-6.738ZM142.02,81.02c1.349-8.3,1.627-14.349,2.563-24.038-5.833,1.711-5.754-6.161-.024-4.09L141.9,47.031l3.933-6.6,3.61,6.269-3.109,5.557c6.462.318,4.9,6.324-.661,4.874,1.049,9.281,3.359,18.657,3.247,27.833,2,14.716-2.461,35.192-1.722,35.678l6.3,4.339L152.426,157l-9.951-4.367-2.961,2c.95,1.884,2.16,3.69,2.568,5.737,0,0,6.853,5.644,5.9,7.4.442.259-4.876,7.308-6.437,7.131-2.975-.336-6.425-4.191-7.418-6.927-.841-2.758,6.152-5.461,5.27-7.478-1.055-2.414-3.719-3.574-6.08-4.284a10.325,10.325,0,0,1-4.9-3.558s-1.265,10.233-2.483,9.415c-4.9-3.292-1.549-13.733-.64-13.442a40.161,40.161,0,0,0,4.668.73c8.908.934,8.3-10.031,6.578-15.338-.617-2.077,2.024-1.41,3.147-1.725,4.325-1.277,11.015-5.746,11.015-5.746a156.49,156.49,0,0,1-18.62-12.46A85.687,85.687,0,0,1,120.9,128.9c-4.416,4.415-5.135,5.919-12.526,11.6-.143.111-5.6,6.643-3,14.271,2.224,6.528,12.912,13.594,12.834,14.066l-2.1,2.013c.084.117-15.13-9.45-14.776-19.74-.017-.389-6.915-.523-6.915-.523l-20.048-18.6,16.983-.073,8.72,7.13,5.449.283c.356.314.553-1.441,5.352-5.025,9.168-6.847,20.528-24.429,20.528-24.429s12.012,8.459,12.024,8.46c-.6-12.7-2.646-26.364-1.4-37.313ZM98.285,20.987S85.8,44.461,78.958,55.518l-9.7-2.784c4.064-10.8.173-31.371-.849-31.889Z" fill="#e2cf00"/><path id="980329a2-a983-4efa-a31e-eb6287ade00f" data-name="path4073-4-2-4" d="M24.188,19.621v211.2h131.2V19.621Zm90.693,153.185a113.338,113.338,0,0,1,18.112-14.027c2.229-1.346,2.906-1.543,3.781-.745,1.429,1.3,2.318,2.434,1.852,3.345a3.258,3.258,0,0,1-.442.547l-3.434-1.308,1.113,3.9c-3.09,1.26-3.034,4.607-.052,6.382l-2.052,4.728,4.77-2.1a3.163,3.163,0,0,0,5.7,0l4.307,2.106-1.484-5.282c1.414-1.35,2.238-3.506.014-5.494l1.024-4.137-3.89,1.268c-.975-1.335-1.541-1.243-1.765-1.607a6.243,6.243,0,0,0-.725-2.723,19.054,19.054,0,0,0-1.718-2.477c-.3-.514-.061-.557,1.492-1.4.73-.4,1.333-.8,1.333-.8s7.611,3.846,10.734,5.311v70.765h-41.77c-4.722-14.117-1.33-26.381-.079-31.517-2.2-.183-13.558-3.867-13.9-5.135,4.5-7.158,10.6-13.662,17.077-19.6ZM33.173,193.413c-5.477-1.772-5.533,4.834-2.735,5.346a4.791,4.791,0,0,0,2.618-.125c.282.058-3.28,5.538-3.28,5.538s2.852,5.188,4.218,7.393l4.313-7.663-2.82-5.3c4.415,2.254,6.7-4.457,2.065-5.335a5.024,5.024,0,0,0-2.357.408l2.437-22.955c1.965,1.337,5.55,4.019,5.55,4.019.816,12.647.218,23.187,7.278,41.587l.072,12.741H25.942v-66.78l4.5,3.04c.091.378-.676.125-.262,4.777.373,4.2,1.65,11.489,2.993,23.313ZM120.2,21.584a5.424,5.424,0,0,1,.346,1.251c.981,3.274,4.391,7.2,7.109,8.238.952.362,1.321.911.772,1.462-.7.7-3.559-1.207-5.674-3.673-1.92-2.24-3.2-4.094-3.485-5.5a4.067,4.067,0,0,1-.128-1.806.594.594,0,0,1,1.06.028Zm3.389-.354c.359,0,.843.422,1.133,1.193a9.1,9.1,0,0,0,3.5,4.438c.453.318.634.794.4,1.073a.61.61,0,0,1-.322.189c-1.335.373-4.848-3.7-5.128-6.226-.061-.549.131-.666.411-.667Zm4.372.05c.71,0,1.05,1.48.639,2.257-.268.245-.857-.133-1.379-1.107-.449-.836-.269-1.145.74-1.149Zm-2.378.024c.159,0,.488-.09.654.142a6.859,6.859,0,0,0,2.348,3.53c.155.29.227.9-.111,1.057-.807.358-3.235-2.407-3.252-4.006-.008-.482.142-.716.361-.723Zm-3.081.971a11.958,11.958,0,0,0,4.758,6.265c1.32.841,1.829,1.319,1.217,1.749a1.035,1.035,0,0,1-.341.182c-3.09-1.181-6.888-5.663-7.016-8.835.673-.864,1.267.1,1.382.639ZM111.805,34.42a13.384,13.384,0,0,0-5.231,1.107c-2.249,1.022-2.813,1.7-2.485,1.948.236.173,1.683-.449,2.409-.543,3.916-.971,6.611-1.21,9.163-.095,1.973.861,1.985.466.66-.969a6.141,6.141,0,0,0-4.516-1.448Zm13.8,2.15c1.3-.013,2.619.29,3.089.9.366,1.959-.61,1.063-1.4.673a6.673,6.673,0,0,0-3.654-.792c-.781.12-.8.081-.36-.171A4.946,4.946,0,0,1,125.608,36.57Zm-15.35.762c-3.7.289-4.986,2.165-7.377,4.1-.983.748-.759,1.327.438,1.131a6.653,6.653,0,0,1,4.089.5c2.2.752,3.777,1.064,4.987.6,2.286-.88,2.09-.734-1.18,2.437-1.749,1.408-1.043,1.334.729.115a10.189,10.189,0,0,0,2.484-2.29c.133-.279.144-1.279.391-1.278.832,0,.4-1.04-.353-1.481-.5-.354-.386-.725.257-1.407,1.01-1.063.667-1.544-.429-.881-.193.105-.288-.22-.957-.625a5.462,5.462,0,0,0-3.078-.924Zm2.67,1.393c.895.755.512.963-1.441.945a14.2,14.2,0,0,0-5.018.809c-2.227.74-2.363.759-1.055-.358C107.213,38.585,110.869,37.044,112.928,38.725Zm11.57-.652a4.489,4.489,0,0,1,2.34.486c1.866,1.031,2.281,1.924.2,1.2a7.833,7.833,0,0,0-4.278-.055c-1.256.348-1.473.471-1.3-.208.209-.831,1.539-1.386,3.037-1.419Zm-14.673,3.04c.443,2.22,2.123,1.495,2.29.154l.614,0c-.261,1.782-2.684,3.274-3.626-.157.2-.006,1.079.056.722,0Zm13.409.037.456-.014c.3,1.7,1.879,2.259,2.566.129l.551.012C126.385,44.828,122.633,43.1,123.234,41.15Zm-14.7.166c.3.108.442.94.391,1.16-.106.455-1.589-.03-1.9-.475.31-.33,1.042-.851,1.513-.685Zm20.188.378v.622c-.685.165-.97.55-1.61.424a2.293,2.293,0,0,1,.341-1.407,1.1,1.1,0,0,1,1.273.361Zm-14.951.719a1.485,1.485,0,0,1-.737.272c-.067-.595-.168-1.264.573-1.27A.582.582,0,0,1,113.775,42.413Zm8.55-.987c.261.019.566.668.6,1.046-.076.621-1.6.373-1.6-.245C121.324,41.966,121.962,41.427,122.325,41.426ZM108.36,64.938c-1.178-.59-10.112-6.028-12.4-15.645l-.455.984c.97,2.3,2.4,6.042,2.4,6.042-.059-.322.366,2.5,1.276,7.305a6.007,6.007,0,0,1-1.542-.272c-1.178-4.395-1.457-7.84-2.446-12.14l-.431,1.2s1.244,7.716,2.087,10.733c-.482-.046-1.369-.245-1.369-.245-.7-3.255-1.245-5.437-1.906-8.7l-.608.789a51.062,51.062,0,0,1,1.653,7.64,4.963,4.963,0,0,1-1.774-.466s-.9-4.681-1.02-4.749a2.2,2.2,0,0,0-.485.792,18.648,18.648,0,0,1,.723,3.681,17.939,17.939,0,0,1-2.27-.618,4.1,4.1,0,0,0-.841,1.018C89.3,63.777,109.8,67,108.566,65.769c-.008.129,9.037,3.966,14.085.706,0,0,8.779,6.521,12.208,9.126a7.814,7.814,0,0,0,2.425,2.557l3.475,2.682c1.01.786,1.414.217,1.568-1.263.17-1.648,1.366-12.757,1.645-15.125,1.044-7.979,1.042-7.895-.167-7.528-1.85.562-3.515-.168-3.515-2.063a2.55,2.55,0,0,1,1.769-2.569,4.069,4.069,0,0,1,1.331-.12c.239.043.682.072.729.081.589-.033-2.281-5.238-2.281-5.238s2.742-4.9,4.062-6.72l3.549,6.444-2.907,5.683c5.661-.426,5.107,6.7-.434,4.316,0,0-.033,2.118-.022,1.962.054-.606.045-1.123.236-1.237,5.369,2.038,6.463-5.8.677-5.444.953-1.662,2.013-3.381,3-5.213l-4.183-7.639-4.726,7.875,2.378,4.916a4.01,4.01,0,0,0-1.536,0c-3.5.719-2.749,6.364,1.253,5.588a5.812,5.812,0,0,0,1.145-.435l-2.584,23.062s-.255.207-1.292-.542c-1.2-.864-3.706-2.742-3.866-2.935A93.751,93.751,0,0,0,129.6,36.732c-.267-.745-.109-15.372-.109-15.372h24.057v68c-1.247-.791-2.727-1.831-4.009-2.736a1.112,1.112,0,0,1-.457-1.275c-.422.9-.167,1.291-.167,1.291l5.263,4.212-.209,66.855s-8.5-4.386-13.728-6.5c-2.36-.964-2.466-.687-2.466-.687s1.668,3.75,1.194,4.427c1.125,1.083,3.015,3.349,3.107,5.568a6.966,6.966,0,0,1,2.045,2.239l3.157-1.144-.717,3.295c3.357,2.355.124,5.522-.5,5.231a36.574,36.574,0,0,1,1.819,4.633,32.831,32.831,0,0,1-3.929-1.823c-1.927,3.8-5.18.611-5.207.051l-3.608,1.61,1.277-4.115c-2.323-1.416-3.894-3.557-.136-5.862l-.868-3.21,3.091,1.216s.576-.927,1.015-1.6c-1.156-5.042-8.757-4.088-11.2-8.623a67.641,67.641,0,0,1-1.214,7.709c-.24,5.415-4.027-.062-4.027-5.79,0-1.294,1.623-5.645,2.173-5.857.571-.079,6,2.548,9.639-.062,1.659-1.728,4.52-6.59,1.772-14.2-.91-1.759,1.729-1.981,2.585-1.387,0,0,7.929-4.155,11.508-6.156-6-3.305-18.49-12.1-18.481-12.516-1.665,2.649-3.574,4.871-6.255,8.616-4.348,5.128-7.746,10-13.263,14.1-7.76,5.659-9.582,11.356-7.418,18.044.876,2.89,2.639,5.821,5.527,6.836,1.469,1.487,7.371,7.085,7.371,7.085-9.853,8.987-16.617,16.378-21.361,24.545,4,2.109,13.662,5.164,13.662,5.164-3.587,11.943-1.954,21.429.409,30.951,0,0-28.033.036-42.579-.422a4.374,4.374,0,0,1-1.72-.062c-.057-1.064,2.62-3.991,3.422-3.583.4-.4,1.254-.6,1.1-1.088-2.006-.239-5.052,3.234-5.172,4.671h-1.2c-.246-.214,2.172-5.868,7.017-6.318-.05.2.65-.44.124-.715-5.648.67-8.278,6.948-8.111,7.034h-.873a11.52,11.52,0,0,1,9.815-8.391c.028-.012.938-.33.694-.87-6.4,1.112-9.584,3.885-11.121,9.26H61.2c.832-5.452,6.431-10.228,12.759-10.072.2-.126.441-.274.337-.894-7.023.792-10.525,3.14-13.41,9.183-2.581-6.711-9.753-9.895-9.839-9.923,0,0-.173-1.879.227-1.8,6.119,2.219,8.455-3.1,8.2-6.195a26.248,26.248,0,0,0-.621-5.15A22.468,22.468,0,0,1,58,199.482c.04-.95.338-1.142,1.038-1.461,1.312-.595,2.133-2.752,1.842-3.016-.675,1.569-2.456,1.839-3.277,2.894-.655.868-.366,2.25.8,7.05.711,2.925-.132,1.58-1.791.664l-1.109-.628c.743.766,1.529,1.487,2.287,2.237.677.621.3,1-.674.645a5.8,5.8,0,0,0-5.132.475c-.4.287-.546.258-.648-.007-.452-7.455.33-12.04,2.8-17.642,1.594-3.808,3.966-6.66,7.131-6.863,3.188-.265,7.772.854,11.936,3.687,4.89,3.328,9.656,8.387,10.162,14.594.019.072.376-.531.538-.849.224-.738-.592-2.954-1.866-5.523-.236-1.933-.9-5.321-1.421-7.613a1.613,1.613,0,0,1,1.479.21c.895,3.789,1.532,6.74,2.3,11.818.012.5.646-.735.648-1.061-.11-.758-2.222-10.692-2.18-10.466.012-.337,2,.107,1.73.42,0,0,1.514,8.334,1.622,8.075l.512-.707s-1.445-6.086-1.265-7.259c.124-.18,1.244.184,1.6.377.445.6.731,2.77.919,4.251.515.394.617-.744.578-1.045-.371-.59-.764-2.79-.469-2.9a4.149,4.149,0,0,1,1.761.641c.289.259,1.408-1.293,1.124-1.562a61.642,61.642,0,0,0-19.441-3.77,9.442,9.442,0,0,1-3.915-.925c-5.217-1.887-9.531-.007-10.163.59-6.37-4.435-13.481-10.627-19.142-14.579a2.9,2.9,0,0,0-.971-.281c-.9,6.879-1.526,14.838-2.291,21.187-.312,2.513-.348,2.709-.234,2.781s.3-.039.375-.079c1.863-.688,3.546-.24,4.438,1.445a2.571,2.571,0,0,1-3.876,2.853c-.824-.425-.942-.342-.566.462.649,1.447,2.521,5.258,2.521,5.258s-2.529,5.172-3.809,6.58c-1.248-2.019-2.84-4.06-3.53-6.265.98-1.922,2.832-4.4,3.417-6.292a1.546,1.546,0,0,0-.938.175c-3.238,1.535-3.758-1.354-3.715-2.393.087-2.111,1.923-2.56,4.589-1.576-2.881-19.18-3.5-30.108-2.76-28.926a58.58,58.58,0,0,1-5.211-4.183l.2-139.617h41.3c4.246,11.4,3.077,25.114.539,32.254a41.592,41.592,0,0,1,14.2,4.85C73.291,71.226,59.649,85.02,44.873,93.851c-.838.379-3.589-1.34-3.912-3.039-.075-.394.143-1.172.586-1.157,1.086.353,2.138.837,3.2,1.27,0,0-1.477-3.711-.764-4.275a6.318,6.318,0,0,0,1.14-.874,3.006,3.006,0,0,0-.147-4.126,4.526,4.526,0,0,0-1.244-.922s1.042-2.9,1.564-4.261l-4.1,1.358c-1.328-1.843-3.769-3.277-5.573-.533-.344.732-.273.62-2.811-.5-1.438-.638-2.325-.964-2.325-.964.539,1.609,1.245,3.12,1.862,4.983-2.825,1.8-2.181,4.846.2,5.754l-1.253,4.11s2.671-1,4.119-1.385a7.691,7.691,0,0,1,1.646,2.492A10.535,10.535,0,0,0,40.1,96.23a20.719,20.719,0,0,1-4.048,2.354l6.006,2.43C41.68,99.742,40.884,98.8,40.8,97.19a2.519,2.519,0,0,0-1.039-2.336c-1.634-1.428-1.808-3.122-2.357-4.241a4.176,4.176,0,0,1-1.583-1.888c-.4-.83-2.978,1.115-3.369.747-.479-.513.832-3.137.686-3.4-1.054-.09-4.007-2.4-.49-4.964L31.53,76.932s2.677,1.172,3.961,1.828c.891-4.173,4.956-2.172,5.613-.373,0,0,3.222-1.061,3.023-.2-.09.773-.613,2.7-.613,2.7,2.9,2.57,2.3,3.831-.057,5.516a15.689,15.689,0,0,0,.535,3.48,26.357,26.357,0,0,0-2.719-1.035c-.432.433-.923,1.215-.841,1.618.733,3.248,4.731,4.152,10.655,7.472.2-2.1,1.649-4.967,1.812-7.485.1-1.836.165-1.865,1.455-1.279,3.394,2.456,2.358,9.2,1.121,11.974-.733,1.567-.853,1.527-2.277,1.072a14.412,14.412,0,0,0-7.378.276c-2.653,1.089-3.905,7.017-3.934,8.818a12.314,12.314,0,0,0,.981,5.522c.372,1.353-.311,2.4-1.528,2.033-.273-.082-.923-.331-.923-.331l-11.452,5.934,2.158,1.272s-1.591-.951-.605-1.466l9.818-5.133c1.83.715,1.584.861,2.77-.377a1.9,1.9,0,0,1,2.009-.656c5.789.557,8.353-.288,9.354-2.718.15-.364.093-.352.684-.651a2.368,2.368,0,0,0,1.666-2.166c.036-.635.311-.722.794-1.166a2.269,2.269,0,0,0,.516-2.934c-.267-.5-.471-.66-.361-1.181a3.167,3.167,0,0,0-.973-2.744c-.964-1.107-.958-.92.857-2.613,3.565-3.395,6.706-5.993,10.174-9.065,2.371-2.1,2.115-1.95,3.038-.989a14.28,14.28,0,0,1,3.2,13.911c-.071.227-.1.2.074,0,.961-1.092.988-6.585.167-9.02-1-2.993-1.971-4.552-5.283-7.482-2.067-1.871-7.694-7.269-7.694-7.269,8.185-7.111,17-15.95,21.946-24.076-2.537-2.725-14.3-5.238-14.3-5.238,1.464-3.043,4.36-16.711-.6-31.866,14.556.672,29.217-.395,43.756.591,0,0,.227-.087.348-.118.4-.106.606.18.508.633-.311,1.157-2.005,3.865-3.2,3.641-.532-.207-.382.819-.621,1.247,1.885-.245,4.095-2.637,4.648-5.008.3-.5.5-.582.8-.486.348.111.261.443-.116,1.59-1.18,2.868-3.573,5.533-6.354,5.266l-.361.979c3.753-.061,6.654-3.586,7.512-6.222.6-1.567.622-1.78,1.224-1.628.5.461.19,1.123.02,1.669-1.887,6.038-7.069,7.652-9.649,7.389-.31-.038-.365.253-.271.75,5.543.367,9.958-4.417,10.582-8.522.3-1.14.831-1.529,1.135-1.008a2.493,2.493,0,0,1,.03,1.366c-1.515,6.48-8.411,10.16-12.624,9.109-.195-.183-.513.713-.054,1.033,8.506-.322,11.132-4.719,13.072-8.6,2.314,3.5,4.207,7.1,9.752,9.221,0,0,.553,1.22.117,1.494-.23.144-.581.077-1.09-.006-6.76-1.093-9,5.236-6.118,14.69.788,2.589.435,2.193-1.249,3.813-.8.772-1.184,2.14-.973,2.172.288-.163.383-.606,1.086-1.189.3-.254.933-.5,1.4-.816,1.25-.727,1.239-1.224.79-2.941-.333-1.277-1.183-5.16-1.184-5.554,0-.745.173-.666,1.1,0,1.3.964,2.032.895.463-.339a6.208,6.208,0,0,1-1.187-1.119c-.25-.365-.095-.6.411-.442a7.349,7.349,0,0,0,6.59-.7c.258,6.237-.6,15.7-5.814,22.465-4,4.5-11.663,1.1-14.5-.326Zm6.129-14.333a3.157,3.157,0,0,0-1.059.321c-1.537.882-1.17,4.008.507,4.424a3.08,3.08,0,0,0,2.42-.282,3.8,3.8,0,0,1,1.886-.464c.557.233.733-.26.851-.816.266-1.243-1.769-1.272-3.388.012-2.043,1.621-3.609-.771-1.684-2.572.642-.415.623-.63.467-.623ZM98.618,57.3l1.716,1.987,1.078,4.735a2.961,2.961,0,0,1-1.447-.253A58.452,58.452,0,0,1,98.618,57.3Zm23.369,1.192a.193.193,0,0,0-.057.015,2.854,2.854,0,0,1-.834.226c-.256.028-.641-.154-.916-.136a6.063,6.063,0,0,0-1.641.345.717.717,0,0,1-.655.02,3.979,3.979,0,0,0-2.689.054,2.086,2.086,0,0,1-1.73,0c-.208-.107-.42-.379-.458-.342a14.544,14.544,0,0,0-.485,1.936c0,.182-.125.486-.05.516.095.039.4-.241.783-.435.78-.4,1.651-.367,3.181.008,1.889.463,2.624.329,3.74-.241a2.633,2.633,0,0,1,2.017-.4c.146.04.533.241.586.19.1-.1-.182-.661-.427-1.216-.177-.4-.242-.559-.364-.544Zm-20.379,2.136a17.967,17.967,0,0,0,2.582,2.219l-.051,1.517a8.273,8.273,0,0,1-1.912-.167c-.2-.591-1.062-3.553-.619-3.569Zm13.647,1.02a2.1,2.1,0,0,0,.5.235c2.641.992-.122.742-.385,1.687,0,.085.121.1.251.047a10.369,10.369,0,0,1,4.127-.392c1.307.442,1.389.136.132-.521-.919-.363.2-.61.571-.927.779-.5.243-.709-.749-.233a4.738,4.738,0,0,1-3.569.018,3.366,3.366,0,0,0-.869-.361c-.338-.014-.158.34-.01.446Zm-10.4,1.7,1.546,1.211-1.581-.152ZM69.846,93.762a.568.568,0,1,0,.567.567A.567.567,0,0,0,69.846,93.762Zm2.064.572-7.091,3.372,1.874.629-.015,1.943,1.726-.551.731,1.815Zm.314,1.588a.568.568,0,1,0,.566.568A.568.568,0,0,0,72.224,95.922Zm-8.989,3.451a.566.566,0,1,0,.566.564A.564.564,0,0,0,63.235,99.373Zm2.179,1.055-7.959,3.663,2.359.718-.623,2.434,1.922-.809,1.073,1.633Zm.235,1.744a.567.567,0,1,0,.562.567A.567.567,0,0,0,65.649,102.172Zm-15.792.364c2.992,0,6.349,1.137,7.495,3.7.3,1.283-.955,2.047-3.643,1.309-4.444-1.221-5.273-1.359-4.535-.6a2.011,2.011,0,0,0,.958.571,23.244,23.244,0,0,0,5.788,1.143c1.194-.159,2.02.4,1.722,1.395-.338,1.133-1.889,1.6-4.22,1.267a32.637,32.637,0,0,1-4.547-.863c-1.03-.312-1.066-.285-.578.439.255.378.279.68.656.75a32.022,32.022,0,0,1,4.756.354c2.628.236,3.039.982,1.109,2.122-.914.54-3.651.392-5.206-.168-1.111-.4-3.659-.974-2.676-.2.236.186.155.644.566.789,1.348.186,5.157.453,5.753.993.383.348-.481,1.231-2.259,1.692-2.677.508-6.68.3-7.738-.428-1.957-3.993-.9-10.529,2.161-13.084a7.522,7.522,0,0,1,4.438-1.186Zm17.549,2.083a.566.566,0,1,0,.567.568A.564.564,0,0,0,67.406,104.619Zm2.364.606-8.218,4.1,2.079.619-.493,2.395,1.926-.794,1.167,1.611Zm.064,2.006a.568.568,0,1,0,.566.567A.568.568,0,0,0,69.834,107.231Zm4.779,4.834c-3.644,3.553-7.751,6.368-11.5,9.818l.813-.033L65.967,120l57.568-.181-1.345,1.967.566.243a20.246,20.246,0,0,0,1.609-2.674c-12.648.036-22.411.007-36.286.1-2.529-2.509-5.2-4.861-7.844-7.244Zm-17.5,2.279a.567.567,0,1,0,.563.567A.567.567,0,0,0,57.114,114.344Zm75.156.433c4.973,3.7,10.865,8.232,15.755,10.923,1.958.852,1.768,1.143-.221,2.085-1.956,1.218-5.211,2.787-7.926,4.158-1.176.445-1.69-.135-2.525.019a1.6,1.6,0,0,0-1.133.743c-.588.779-.428.752-3.573.61-3.172-.144-4.481-.073-5.163.276-.656.335-1.781,1.48-1.781,1.954a1.387,1.387,0,0,1-1.012,1.24,1.891,1.891,0,0,0-1.6,1.726,3.077,3.077,0,0,1-1.016,1.4,2.112,2.112,0,0,0-.553,2.481,1.913,1.913,0,0,1,.211,1.417c-.215,2.575-.392,2.358,2.359,4.264l-14.054,12.268c-.326.257-.422.232-.718.027a11.147,11.147,0,0,1-3.594-5.489c-2.374-6.552.525-11.935,4.378-15.229,1.335-1.141,3.129-2.5,3.628-2.844,7.256-6.2,13.566-14.979,18.54-22.033Zm-73.058.48-8.035,3.8,2.588.437-.495,2.24,1.874-.712.992,1.888Zm.491,1.776a.566.566,0,1,0,0,1.131.566.566,0,0,0,0-1.131Zm73.621,2.492-.912-2.161s-2.538,6.262-3.075,8.384c2.15-1.11,8.449-4.322,8.449-4.322l-2.695-.5.3-2.452Zm-91.777.386a.568.568,0,1,0,.567.568A.568.568,0,0,0,41.547,119.911Zm2.461.517s-5.978,2.811-8.677,4.023l2.52.529-.443,2.455,2.274-.889.917,2.426Zm.32,1.854a.566.566,0,1,0,.567.568A.568.568,0,0,0,44.328,122.282Zm84.6.408a.566.566,0,1,0,.563.564A.564.564,0,0,0,128.931,122.69Zm9.775.513-2.845,7.922,7.7-3.881-2.089-.572.011-1.96-1.719.5Zm-90.948,1.9a.568.568,0,1,0,.566.568A.568.568,0,0,0,47.758,125.107Zm84.171.144a.566.566,0,1,0,.566.568A.565.565,0,0,0,131.929,125.251Zm-81.812.581-8.154,3.985,2.531.594-.278,2.551,2.058-1.171,1.117,2.326Zm.51,1.685a.542.542,0,0,0-.535.567.565.565,0,0,0,1.129,0A.592.592,0,0,0,50.627,127.517Zm84.8.5a.566.566,0,1,0,.567.567A.568.568,0,0,0,135.425,128.018Zm-11.237,2.606-.757-2.133-3.017,7.821,8.113-3.723-2.575-.606.046-2.042Zm-8.243-1.684c-.092,0-.174.021-.174.082a24.85,24.85,0,0,1-2.073,2.21l-23.947.221c.049,0,1.993.543,1.993.543,3.141,2.514,8.064,6.974,8.064,6.974l5.945-.238c3.292-3.237,8.238-5.7,10.444-9.7a.414.414,0,0,0-.252-.093Zm22.447,1.612a.566.566,0,1,0,0,1.131.566.566,0,0,0,0-1.131Zm-18.485,2.731a.566.566,0,0,0,0,1.131.566.566,0,1,0,0-1.131Zm12.156.819c1.717-.009,3.37.05,3.8.377,2.653,2.238,1.4,12.7-1.948,14.019-3.67.828-6.208.981-9.393-1.124-.9-.44-2.7-1.774-2.346-2.875.477-1.353,1.789-1.254,5.551-.081,1.373.428,2.128.342,2.479.074.327-.251-.1-.53-.8-.533a16.383,16.383,0,0,1-2.514-.614,9.961,9.961,0,0,0-2.77-.626c-1.557-.092-2.009-.153-2.009-1.107,0-1.782,2.473-2.017,7.025-.972a12.072,12.072,0,0,0,1.773.257c.176.067-.347-.59-.434-.983-.165-.141-.459-.207-1.234-.234-2.927-.287-5.357-.486-5.41-.87-.259-1.886,3.528-2.4,7.454-.886,1.008.388,1.028.228,1.021-.066-.015-.543-1.7-1.492-4.192-1.466-2.421.025-2.083-1.208-.093-2.134.68-.316,2.329-.148,4.045-.156Zm-9.363,2.021a.568.568,0,1,0,.566.567A.565.565,0,0,0,122.7,136.123Zm-8.725,3.914-.512-2.114-3.294,8.224,8.321-4.245-2.744-.516.241-1.731Zm-4.24,3.3a.568.568,0,1,0,.563.567A.568.568,0,0,0,109.735,143.339Zm8.29,2.333-.7-2-2.8,7.158,7.1-3.177-2.1-.574.3-2.169Zm-5.652.021a.568.568,0,1,0,.563.567A.568.568,0,0,0,112.373,145.693Zm1.818,2.734a.566.566,0,1,0,.563.564A.564.564,0,0,0,114.191,148.427Zm-3.568,1.676-2.4,6.78,6.671-3.235-1.949-.643s.107-1.525-.076-1.454c-.117.044-1.373.4-1.373.4Zm5.938.811a.566.566,0,1,0,.567.564A.564.564,0,0,0,116.561,150.914Zm-8.845,3.262a.568.568,0,1,0,.567.567A.567.567,0,0,0,107.716,154.176Zm2.551,2.623a.566.566,0,1,0,.566.564A.565.565,0,0,0,110.267,156.8Zm-35.19,31.226c-.306.045-1.1-.682-1.255-1.023a1.38,1.38,0,0,1,1.174.182C75.205,187.383,75.354,187.894,75.077,188.025Zm2.415-.491c-.107.829.405,2.327.307,2.682-.262.129-1.589-1.3-1.916-1.644a6.249,6.249,0,0,1,.031-1.345,1.964,1.964,0,0,1,1.578.307Zm2.391.413c.283,1.835,1.089,4.787.963,5.782a15.766,15.766,0,0,1-1.9-2.178,14.524,14.524,0,0,1-.644-3.946A2.164,2.164,0,0,1,79.883,187.947Zm-16.012-.207a6.136,6.136,0,0,1-2.908.712c-.935,0-2.543-.489-2.381-.369.426.762,1.537.362,1.558.86-.276.492-1.015.445-1.382.916-.077.125.109.231.629.176a7.825,7.825,0,0,1,5.526-.083c.4.083.136-.3,0-.4a2.338,2.338,0,0,0-.991-.41c-1.649-.294-.924-.46.178-.954.809-.3,1.013-1.025-.23-.45Zm3.571,2.332a9.848,9.848,0,0,0-1.369.541,4.8,4.8,0,0,1-3.321-.066,3.056,3.056,0,0,0-2.8.357,2.239,2.239,0,0,1-2.262.292c-.8-.459-.8-.3-.4.831.1.283-.1,1.139.253,1.337.267.15.574-.35.78-.42s1.5.513,2.223-.128c1.288-.468,1.676.291,2.568.218,1.449-.512,2.355-1.045,3.6-.057.074-.37.364-2.391.827-2.87-.012-.027-.047-.038-.1-.035ZM64.8,195.89c-1.043.013-1.607.654-2.951.532A.993.993,0,0,0,60.865,198c.32.49.749.58,2.213-.092.6-.276,1.439-.884,1.928-.835,1.432.143,1.778,1.529.586,2.7-.58.342-.585.713-.408.72a2.107,2.107,0,0,0,1.641-1.2c.594-1.8-.473-3.427-2.022-3.4Zm4.677,8.3a8.249,8.249,0,0,0-3.976,2.856c-.622.984-1.217,2.1-.782,2.646.356.451.854.889.9,1.133.037.213-.254.425-.526.73-1.191,1.334-.908,1.408.762.541.847-.439,1.24-.615,1.793-.471a9.013,9.013,0,0,0,4.977-.381c.615-.226,1.218-.533,1.264-.376a6.8,6.8,0,0,1-6.695,1.884c-.193-.05-.342-.038-.341.028,0,.133.32.422,1,.726,1.143.508,3.889-.032,5.606-1.286,3.4-2.225,5.266-4.351,2.591-3.463-1.227.408-1.687.337-3.177-.338-2.234-1.011-3.945-1.307-5.8-.66-2.343.818-.546-1.117,2.091-2.795.572-.364.643-.78.308-.773ZM56.837,209.97l-.781.012c-.559-1.887-1.91-1.883-2.495.011l-.653-.046c.64-2.351,3.055-2.835,3.929.023Zm13.9.156-.587.026c-.356-1.142-1.612-2.147-2.5-.275l-.407-.084c.722-2.99,3.6-1.327,3.49.333Zm-3.916-1.719c.366,0,.459.417.043,1.092-.293.476-.641.433-.989.074-.315-.315-.3-.371.046-.684A1.524,1.524,0,0,1,66.825,208.407Zm4.326.012a3.6,3.6,0,0,1,.8.241c.891.3,1.093.551.728.917a1.259,1.259,0,0,1-1.354.264c-.014-.449-.458-.8-.474-1.246C70.851,208.474,70.992,208.424,71.151,208.419Zm-13.962.016c.618-.029,1.447.338,1.386.695-.066.391-.675.646-1.178.689-.336.043-.323-.093-.411-.332-.079-.214-.18-.487-.238-.7-.138-.41.125-.34.441-.352Zm-4.225.135s-.346,1.032-.5,1.384c-1.293-.069-1.171-.64-.56-1.053a2.219,2.219,0,0,1,1.061-.331Zm-1,2.453a5.271,5.271,0,0,1,.931.338,9.718,9.718,0,0,0,4.531-.016c.711-.164,1.047-.385,1.2-.272.278.2-.01.905-1.036,1.357a6.531,6.531,0,0,1-4.919-.028c-1.32-.674-1.467-1.393-.709-1.379Zm-.353,1.477a5.7,5.7,0,0,0,3.922.915c2.243-.083,2.643-.36.753.643-1.747.927-4.439.756-4.958-.249C51.027,213.234,51.219,212.548,51.607,212.5Zm10.87,1.344a.049.049,0,0,0-.019,0c.181,1.213,2.213,2.322,3.188,2.585,2.07.919,5.36.009,7.836-1.061,1.809-.782,2.461-1.961.307-1.291-3.466,1.079-7.817,1.16-10,.323a7.13,7.13,0,0,0-1.316-.56Zm-11.406,4.541c4.337.98,9.58,7.682,9.561,10.611h-1.4a14.19,14.19,0,0,0-8.213-9.511c-.248-.915.064-1.122.053-1.1ZM51,220.273A13.671,13.671,0,0,1,58.762,229H57.255a11.644,11.644,0,0,0-6.265-7.2A3.44,3.44,0,0,1,51,220.273Zm-.008,2.284c2.641.78,4.97,4.264,5.632,6.439l-1.319-.008a7.893,7.893,0,0,0-4.364-4.881,3.973,3.973,0,0,1,.051-1.55Zm-.043,2.367A5.852,5.852,0,0,1,54.594,229H53.383a6.887,6.887,0,0,0-2.422-2.914C50.961,225.85,50.951,224.924,50.951,224.924Zm.128,2.019c.133-.083,1.984,1.587,1.672,2.053H51.083c-.019-.519-.031-2.058-.008-2.053Z" fill="#131f67"/><path id="d3ad4fb0-d3d7-46e5-b8d1-f3b7030c0bcd" data-name="path4071-9-6-8" d="M98.317,21.311c-3.144,6.1-19.275,33.574-19.439,34.53l4.132,1.83,20.055-36.22S98.909,21.316,98.317,21.311Zm47.454,22.995-1.747,2.487,1.417,2.845,1.719-2.713ZM71.986,71.82s-5.785,5.757-8.045,8.442C68.8,85.119,78.088,91.217,78.156,100.6l6.4.025L105.286,119.2s18.769.137,19.119.055c.378-.088,7.047-9.651,7.047-9.651l11.893,8.687s-.57-9.355-1.02-15.088c-.147-3.834-.273-6.193,2.524-7.89-3.844-1.835-3.6-5.21-.774-7.688-.932-1.292-2.326-1.53-2.535-6.11a11.854,11.854,0,0,0-1.882-1.539l-.768.688c-2.468,2.22-4.149,4.484-4.426,5.958-.527,2.805,2.317,4.727,3.96,2.677.464-.577.877-.416.877.338,0,1.53-1.921,2.394-3.546,1.6a2.091,2.091,0,0,0-.748-.276c-.059.059,1.612,4.159,2.064,5.063a11.039,11.039,0,0,1,1.2,4.6c.062,1.688.028,1.905-.76,4.822-.743,2.749-.393,4.384.935,4.384.747,0,.724.719-.032.983-1.6.561-2.6-.624-2.657-3.155-.035-1.539-.061-1.577-.849-1.2-2.745,1.292-5.726-1.018-4.435-3.436.272-.507.593-.347.761.377a2.143,2.143,0,0,0,2.312,1.955c2.962-.011,4.2-4.2,2.494-8.425-.343-.847-.515-.8-.966.272-.706,1.68-1.89,2.175-2.866,1.2-.328-.328-.486-.86-.264-.886.051-.007.377-.02.721-.031,1.726-.056,2.322-1.733,1.513-4.256a23.107,23.107,0,0,1-1.032-3.82,7.324,7.324,0,0,1,.819-5.067A22.3,22.3,0,0,1,136.4,81.6c1.285-1.3,2.39-2.3,2.39-2.3-1.224-1.025-2.334-1.832-3.715-2.862,0,0-8.82,24.262-8.2,33.714-1.119,12.454-10.259,9.009-10.932.384Zm-.394,3.638c3.015-.051,5,3.943,6.137,12.229.376,2.746,2.047,6.592,3.259,7.5,3.058,2.293,7.844.526,7.848-2.9.008-4.264-5.972-4.9-6.064-.642-.022,1-.535,1.055-1.028.1a3.174,3.174,0,0,1,.811-3.245c.547-.514.5-.611-.539-1.189-3.636-2.01-5.182-5.008-3.24-6.284.85-.557,2.011.148,1.478.9-.833,1.173-.843,1.358-.147,2.332.791,1.106,1.729,1.659,3.953,2.316A18.235,18.235,0,0,1,87.1,87.625a4.863,4.863,0,0,1,2.8,6.156c-.208.581-.41,1.155-.45,1.275-.09.27.058.272,1.835.035,2.828-.378,5.97.635,7.518,2.421a8.773,8.773,0,0,1,1.521,4.92,12.146,12.146,0,0,0,.24,1.741c.13.61.3,1.643.381,2.292.74,6.165,5.862,9.318,8.076,4.971,1.393-2.736-1.828-5.472-3.468-2.946-.576.887-1.169.479-.838-.575.645-2.049,3.2-2.4,4.939-.672a4.9,4.9,0,0,1,.934,4.391c-.239.7-.214.749.307.567a4.475,4.475,0,0,1,3.914.762c1.708,1.831,1.366,4.029-.737,4.741a1.79,1.79,0,0,1-2.394-1.135c-.155-.8.394-1.03.819-.342.8,1.289,2.527.25,2.118-1.27-.465-1.73-1.941-2.1-4.667-1.158-4.332,1.493-5.731,1.368-7.8-.7-1.481-1.474-2.037-2.747-2.436-5.557-.44-3.1-.482-3.184-1.249-2.53-3.666,3.125-8.51-1.6-5.4-4.7.961-.962,1.668-.124.8.952-1.262,1.57.383,3.758,2.444,3.249,3.753-.928,2.987-6.429-1.074-7.715-1.238-.391-4.639-.229-7.255.346-7.3,1.606-10.53-1.517-12.033-11.635a36.447,36.447,0,0,0-1.074-4.6c-.823-3.02-3.621-4.659-5.148-3.016-1.218,1.31-.577,3.074,1.117,3.078s1.172,1.165-.589,1.321c-3.056.273-3.588-4.824-.656-6.284a4.711,4.711,0,0,1,2.009-.551Zm-39.934,1.83,1,3.677,3.776,1.069-1.2-3.451ZM41.4,78.421,40.382,81.7l2.813-.982.984-3.144Zm31.065,5.372a1.089,1.089,0,1,1-1.086,1.089A1.088,1.088,0,0,1,72.461,83.793ZM36.359,85.7,33.079,86.8l-.573,2.6,3.015-.678Zm6.852,1.176-2.356-.724.557,2.686,2.577,1.055Zm105.558-.509-1.564,1.219c4.56,3.971-.362,7.8-.515,7.539,3.3,2.185,2.709,5.634,2.281,8.79-.78,5.632-1.084,10.959-1.935,16.73a45.136,45.136,0,0,0,6.614,3.808c.05.007.016-33.863.016-33.863Zm-56.275,5.1a1.088,1.088,0,1,1-1.087,1.088A1.087,1.087,0,0,1,92.494,91.469ZM25.816,94.254l.136,31.6,6.531-11.7-4.493-5.193,3.883-4.154a113.336,113.336,0,0,1-6.057-10.56Zm63.59,4.816a1.088,1.088,0,1,1-1.086,1.088A1.087,1.087,0,0,1,89.406,99.07Zm14.826,3.233a1.089,1.089,0,1,1-1.086,1.088A1.088,1.088,0,0,1,104.232,102.3Zm42.47,35.209,4.8,4.932-3.8,4.674,5.95,10.029-.095-31.031ZM25.756,127.132l.228,33.993,5.129,3.749,1.3-1.231c-3.31-3.541-1.333-6.175,1.162-7.7-4.4-1.027-3.065-6.876-2.8-9.587-.108-5.032,1.733-10.773,1.166-15.611ZM55.3,131.857l-7.351,10.261s-8.079-6.13-12.152-8.895c.436,4.428.833,10.077,1.374,14.84,1.321,6.954-2.118,7.074-2.15,7.74,5.466,4.156.879,8.042.057,7.847,2.91,1.588,2.671,6.411,2.671,6.411l1.38.783s.45-.275.64-.377a12.189,12.189,0,0,0,4.434-5.5c.935-3.173-1.816-5.809-3.545-3.4-.85,1.185-1.531.393-.834-.971a2.683,2.683,0,0,1,3.4-1.279c.641.344.5-.548-.493-3.046a28.762,28.762,0,0,1-1.071-3.607,10.788,10.788,0,0,1,.509-6.155c1.131-3.173.73-5.163-1.083-5.336-.967-.093-1.072-.4-.283-.843,1.761-1,3.468.423,3.4,2.833-.038,1.3-.023,1.325.664,1.049,3.473-1.4,6.218,2.215,3.79,4.986-.743.847-1.21.309-.722-.828.755-1.757.036-3.01-1.73-3.023-2.563-.02-3.981,3.526-2.972,7.426.315,1.217.364,1.233,1.215.42.755-.722,1.319-.953,1.9-.777,1.213.363,1.531,1.656.369,1.5-2-.275-2.523,1.821-1.393,5.549,1.5,4.947-.018,8.978-4.453,11.845-.225.145-.582.424-.582.424a29.762,29.762,0,0,0,5.065,3.773l8.071-32.669a26.1,26.1,0,0,0-.335-2.73c-.008-8.769,8.161-9.609,10.717-1.647a19.065,19.065,0,0,0,1.544,2.717l42.519,37.8s7.938-7.684,7.829-7.888c-6.03-6.089-14.174-10.393-14.471-20.054-1.445-.042-6.276.048-6.276.048l-20.675-19c-6.488.042-12.243-.423-18.977-.224Zm11.585.712c1.135-.036,2.281.555,2.281,1.5,0,.818-.547,1.006-1,.342-.634-.928-1.369-1-2.118-.214-2.075,2.185,1.149,4.182,4.857,3.008,2.27-.719,3.37-.913,4.2-.746,3.5.7,5.194,3.071,5.493,7.683.152,2.344.148,2.336,1.16,1.406a3.855,3.855,0,0,1,6.579,2.328,3.125,3.125,0,0,1-2.758,3.23c-.573,0-.482-.6.136-.894a2.344,2.344,0,0,0,.1-3.972c-1.915-1.216-4.437.681-4.406,3.315.038,3.166,2.4,4.625,7.06,4.356.683-.039,2.4-.12,3.805-.178,2.227-.095,4.621-.516,6.89,1.2,2.376,1.893,3.954,5.656,4.628,11.1,1.062,6.693,1.883,8.486,4.127,8.647a2.357,2.357,0,0,0,2.46-2.36,1.742,1.742,0,0,0-2.161-1.441c-1.126.372-1.353-.85-.244-1.314,1.536-.643,3.411.6,3.828,2.53.244,1.127-1.026,3.289-2.358,3.829-3.474,1.407-5.945-1.468-6.758-7.9a38.8,38.8,0,0,0-1.691-7.461c-1.686-4.642-4.456-6.557-7.472-5.169-3.416,1.572-2.738,6.695.881,6.657,1.988.158,2.4-1.306,2.445-2.872.047-1.156,1.354-.071,1.466.724a3.576,3.576,0,0,1-1.518,2.724c-1.232.826-.794.775.466,1.107,3.387.625,5.9,5.115,3.879,6.64-1.052.642-2.17-.3-1.441-1.233,1.16-1.477-.8-3.811-4.376-4.595-4.679-1.027-6.543-4.516-4.855-8.1.558-1.186.607-1.158-1.676-1.029-5.022.284-6.806-.412-8.491-3.327-.509-.88-.734-2.057-.842-4.4-.194-4.187-.575-6.778-1.1-7.508-2.608-3.614-8.034-2.533-7.355,1.465a2.251,2.251,0,0,0,4,1.243c1.117-1.154,1.638-.081.547,1.127-2.622,2.908-7.186-.486-5.83-4.337.31-.881.352-.853-1.331-.9-3.743-.108-5.524-3.316-3.111-5.6a2.431,2.431,0,0,1,1.606-.61Zm9.031,13.772a1.089,1.089,0,1,1-1.086,1.088A1.087,1.087,0,0,1,75.914,146.341ZM90.961,150.2a1.088,1.088,0,1,1-1.086,1.088A1.088,1.088,0,0,1,90.961,150.2Zm-3.231,7.1a1.089,1.089,0,1,1-1.086,1.088A1.087,1.087,0,0,1,87.73,157.3Zm47.82,4.232.688,3.219,2.493.657-.389-2.758Zm8.72,1.114-.053,1.909,2.217.261.785-3.29Zm-37.229,2.881a1.089,1.089,0,1,1-1.086,1.088A1.087,1.087,0,0,1,107.041,165.531Zm31.847,4.433-2.607.725-1.252,3.626,3.337-1.21Zm5.1.327.319,2.687,3.212,1.454-1.087-3.83ZM96.651,193.2,76.713,229.3l5.448-.076,18.818-34.047Zm-62.707,8.741-1.761,2.374,1.672,2.756,1.92-2.767Z" fill="#d40000"/><path id="069e65fb-46c4-467b-902f-be7e47a26e81" data-name="path4069-2-6-0" d="M67.824,20.408c3.671,11.15,4.012,22.138.827,32.7a44.253,44.253,0,0,1,14.092,4.822C81.937,60,69.579,75.228,61.191,82.09c2.384,2.365,5.008,4.73,7.766,7.337,4.171,3.965,5.644,6.695,5.92,11.841a14.329,14.329,0,0,1-2.506,7.722,17.463,17.463,0,0,1-5,4.59c-2.346,1.556-5.774,4.906-10.086,9.844-1.644,1.883-4.418,5.311-6.715,8.58-.869,1.189-3.429,4.9-3.429,4.9A125.986,125.986,0,0,0,29.222,124.58s9.225-4.925,11.165-5.929c1.491.958,3.514.139,2.543-1.97A14.488,14.488,0,0,1,44.658,103.5c.549-.831,1.872-1.315,4.011-1.465.929-.06,1.91-.03,2.894-.043a4.9,4.9,0,0,1,1.835.424c1.743.954,2.093-.273,3.181-4.4,1.082-4.109-.66-9.306-3.143-9.323-.583,0-.911.212-.791,1.674a4.4,4.4,0,0,1-.458,2.371,17,17,0,0,0-1.145,4.986c.363.074-2.3-2.659-6.508-3.742-2.732-.324-4.119-3.731-4-3.738a5.709,5.709,0,0,1,.768-1.283,19.232,19.232,0,0,0,2.956,1.3S44,88.882,43.9,88.514c-.507-1.9-.48-2.193.252-2.588,1.816-.98,2.007-2.732.59-4.325a2.962,2.962,0,0,0-1.14-.875l.9-3.575s-.821.177-1.478.377c-1.9.578-1.758.6-2.568-.327C38.69,75.19,36,75.573,35.6,77.893c-.044.257-.163.665-.163.665l-4.052-1.97a42.664,42.664,0,0,0,1.17,4.177c-3.545,2.759-.549,5.2.418,5.461,0,0-.828,2.64-1.113,3.738l4-1.145A3.914,3.914,0,0,0,37.437,90.7c.217,2.253,1.951,4.07,3.145,5.164a4.338,4.338,0,0,1,.069,1.351c-.258,1.311,1.071,3.386,1.3,3.51-5.488-2.249-11.209-4.948-16.732-7.6l.345,68s1.286,1.154,3.837,2.985c1.225.879,1.225.883.97,1.9-.337,1.337-.253,2.357.884,11.153.6,4.653,1.259,9.477,1.847,13.8a25.015,25.015,0,0,1,.265,2.587c-1.219-.565-2.994-.623-3.912.409a2.79,2.79,0,0,0,2.029,4.652,2.448,2.448,0,0,0,1.354-.5.787.787,0,0,1,.646-.022l-3.5,6.16,4.029,6.795,4.019-7.267L35.1,198.03a1.331,1.331,0,0,1,.681.167,3.72,3.72,0,0,0,1.288.37c2.039.015,2.458-.916,2.673-2.593,0-2.157-1.714-3.133-4.073-2.32a3.747,3.747,0,0,1-.78.164L37.369,170.1l1.327.976.434-.237-1.159-.991c.251-3.8-1-5.147-2.352-6.066,4.521-2.576,2.561-6.648-.444-7.9,0,0,1.953-1.143,2.344-2.343.333-1.072.209-2.772-.169-5.787-.283-4.649-1.28-14.255-1.28-14.255,3.949,2.983,8,6.175,11.816,9.191l7.642-10.64,18.419.128s14,12.733,21.045,19.225l6.082.055s.067.651.128,1.084c.577,6.287,4.787,10.605,8.62,13.633,1.562,1.405,5.423,5.1,5.423,5.1l-7.157,7.228L64.26,139.283s-.209-.572-.294-.921c-1.013-4.153-3.76-5.893-6.258-5.6-2.621.307-4.856,2.893-4.744,7.294a14.552,14.552,0,0,0,.264,1.881l-8.007,33.41s-3.2-2.449-4.93-3.626l-.381.221,4.687,3.529.349-.151,1.33,1.041.1.711c4.1,2.794,11.052,8.01,11.052,8.01,3.282-2.443,6.732-1.627,10.187-.708a16.87,16.87,0,0,0,3.848.836,58.331,58.331,0,0,1,19.113,3.758l-23,40.851,43.82.09c-2.16-8.551-4.455-17.236-.353-31.82-4.321-.874-13.93-4.726-13.93-4.726s-.046-.219.361-.719c1.776-2.545,6.268-9.442,10.478-13.431.512-.367,7.85-7.5,7.921-7.725a1.678,1.678,0,0,1,.5-.8c.677-.452,2.474-2.155,2.474-2.155l-9.182-7.976a2.15,2.15,0,0,1-.534-.112c-1.282-.719-3.6-4.725-4.166-7.408-1.311-6.17,1.11-11.049,7.94-16.058,6.67-4.575,19.316-22.332,19.358-22.726,6.819,5.655,12.143,8.584,18.143,12.293-3.625,2.083-6.58,3.476-9.116,4.853-1.646.94-1.872,1.137-3.262.742-1.576.013-2.115.621-1.715,1.982,2.385,3.775,1.361,12.563-1.864,14.257a9.2,9.2,0,0,1-7.768.239c-1.736-.557-1.713-.563-2.487,1.014a11.172,11.172,0,0,0-.241,10.174c1.29,2.8,3.206,4.071,3.442.3.139-2.214,1.113-4.8,1.082-7.18a11.344,11.344,0,0,0,6.459,4.03c2.151.336,4.437,3.04,4.366,4.142-.591.6-.771,1.361-.866,1.307-1.048-.343-3.318-1.31-3.318-1.31l.966,3.42a2.84,2.84,0,0,1-.625.392c-2.136,1.092-2,4.043.245,5.223.456.241.489.354.295.984-.279,1.4-.891,2.344-1.222,3.734a13.61,13.61,0,0,0,2.863-1.173l1-.467.6.649a2.7,2.7,0,0,0,4.306-.023l.637-.657,1.776.9c1.674.85,2.115,1.026,2.115,1.026s-.966-3.752-1.145-4.182a1.034,1.034,0,0,0-.438-.52c-.239-.089-.2-.145.434-.649,1.611-1.279,1.772-3.043.4-4.384a5.644,5.644,0,0,1-.59-.618l.834-3.478-3.458,1.148a3.825,3.825,0,0,0-1.961-1.929c-.059-1.57-.255-3.183-2.948-5.637.907-.83-.171-2.83-1.06-4.03,1.515.51,5.3,2.115,5.3,2.115l.572-.024,1.809.869.212.322s5.689,2.689,8.3,3.948c-.008-.14-.028-2.956-.035-33.946-.008-18.476.026-33.673-.012-33.77a10.435,10.435,0,0,0-1.311-1.069c-1.2-.906-1.443-1.082-2.964-2.1-1.22-.815-1.138-.809-.884-1.748.291-1.08.285-2.564-.1-5.344-.285-2.052-1.317-9.269-2.037-15.094-.5-4.086-.624-4.993-.748-5.65a9.578,9.578,0,0,1-.022-2.4c5.713,2.479,6.164-5.742.437-4.632,1.1-2.214,2.019-3.242,2.958-5.606-1.194-2.577-3.839-6.933-3.839-6.933l-4.185,7.3,2.463,5.052c-2.834-.511-4.338,1.555-3.813,3.408a2.436,2.436,0,0,0,3.522,1.438c1.066-.421,1.065-.528.12,7.481-.279,2.368-1.52,13.442-1.691,15.09-.115,1.107-.186,1.414-.636,1.17A10.326,10.326,0,0,1,140,79.662l-.342.318c.544.442,1.188,1.013,1.846,1.619-.15,2.933-.091,4.632,2.346,6.064-4.417,2.773-1.835,7.041.76,7.657-1.547.4-3.071,2.393-2.7,6.353l1.253,16.318-11.975-8.907-7.029,10.077-18.52.023L84.748,100.3s-4.58-.063-6.459-.109c.213-.1-.395-5.837-3.418-9.583C71.585,86.7,64.105,80.235,64.11,80.233l7.856-7.99,44.1,39.767s.213,1.126.325,1.6c1.475,6.278,8.6,6.659,10.121.264a17.175,17.175,0,0,0,.431-3.723,15.381,15.381,0,0,1,.493-2.331c2.371-9.315,4.39-17.351,6.722-26.294.322-1.231.663-2.6.757-3.047.384-1.814.327-1.8,2.223-.373,1.161.876,1.641,1.189,1.641,1.189l.368-.384c-1.3-1.01-3.53-2.62-3.53-2.62l.023-.684c-7.16-5.137-8.635-6.5-12.875-9.867-3.285,2.9-7.983,1.725-10.928.7-.758-.3-2.622-.785-2.622-.785a62.348,62.348,0,0,1-19.862-3.4l23.462-41.854h-9.062l-.316.356H98.725l-.015-.356Zm26.744.945,3.208.062L78.791,55.349l-2.017-.788s.184-.1.182-1.528a4.29,4.29,0,0,0-1.024-3.1c-.578-.784-.824-.828.869-.595A4.462,4.462,0,0,0,81.347,43.1c-.531-1.135-.456-1.2.947-1.345a4.518,4.518,0,0,0,2.63-7.737c-.565-.512-.313-.838.741-.61,3.34.722,5.928-2.988,4.6-5.895-.433-.811-.044-.946.566-1.026a4.686,4.686,0,0,0,3.736-5.138Zm-25.588,0,14.862,0c-2,3.064,1.531,4.878,1.978,4.664-3.2,1.753-2.324,4.223-.662,5.072,1.612.824,4.03.083,3.385-3.483l.8-.346c.773.876,1.54,6.305-4.357,5.55-1.05-.135-1.619.847-.741,1.391,4.66,5.367-2.634,7.738-2.952,6.847l-.024-.908c1.973.364,4.5-2.183,2.284-4.446-1.259-1.287-4.909-.66-4.284,3.245-2.156-3.226-4.509-2.253-5.143-.548a2.557,2.557,0,0,0,2.284,3.437C74,43.851,75.17,46.1,76.821,46.6c1.822.548,3.683-.2,3.181-3.512.028-.314.665-.212.717-.229C82.6,47.565,78.1,49.3,75.668,48.323c-.9-.351-1.372,1.041-.415,1.749,1.452,1.075,1,4.17.834,4.2a42.482,42.482,0,0,0-6.424-1.727,58.321,58.321,0,0,0-.682-31.189Zm23.695,0,1.342,0a4.28,4.28,0,0,1-4.1,4.66,5.638,5.638,0,0,0-.155-1.551c1.23-.279,2.862.063,2.91-3.113Zm5.861.105,4.287.02L82.655,57.347l-3.224-1.659Zm-10.574,2.72a1.374,1.374,0,1,1-1.37,1.372A1.373,1.373,0,0,1,87.962,24.186Zm-8.6,15.638A1.273,1.273,0,1,1,78.1,41.1,1.27,1.27,0,0,1,79.365,39.824Zm66.393,1.015,3.414,5.953-3.9,6.91-3.25-6.622Zm-.061,2.028-2.4,3.972,2.18,4.069,2.479-3.867Zm.046,1.7,1.242,2.4-1.509,2.437-1.253-2.577Zm-3.309,8.068a2.146,2.146,0,0,1,.819.175c2.3.963,1.566,4.465-.889,4.248a2.588,2.588,0,0,1-1.059-.408C139.6,55.252,140.627,52.632,142.434,52.637Zm5.621.066a2.234,2.234,0,0,1,1.106,4.151,2.454,2.454,0,0,1-3.15-.789,2.364,2.364,0,0,1,.861-3.07A2.477,2.477,0,0,1,148.055,52.7Zm-2.793,4c.2.017.42,1,.621,2.693.073.616.269,2.155.434,3.42.317,2.706.643,5.226.924,7.835.055.512.194,1.6.306,2.425,1.163,8.472,1.427,11.178,1.152,11.9-.734,2.526-4.175,2.719-5.613,1.251-1.087-1.109-1.247-2.328-.819-5.5.248-1.834.349-2.756,1.075-9.763.17-1.641.415-3.824.547-4.85.288-2.741.628-5.31,1-8.013.107-.967.235-1.407.372-1.4ZM88.9,63s11.022,3.639,19.408,3.474a6.763,6.763,0,0,1,2.963.489c.909.3,2.339.7,3.177.894a11.848,11.848,0,0,0,6.87-.462c.317-.129.781-.519,1.25-.377.285.086.7.657.7.657-7.342,1.953-24.519,1.592-35.212-2.923Zm56.629,1.158c-.046.008-.094.07-.147.155-.18.284-.032,2.149.636,8.079,1.275,11.329,1.269,11.572-.276,12.763-.759.585-.877.82-.512,1.033.272.159.25.158.8,0,1.3-.361,1.838-1.395,1.827-3.5a36.527,36.527,0,0,0-.527-5.755c-.173-1.368-.41-3.3-.528-4.291-.836-7.057-1.029-8.524-1.276-8.483ZM87.791,65.341c10.974,3.936,22.439,5.051,36.26,2.926,0,0,1.328.863,2,1.287l-.465.108.209,1.912,2.347-.376s1.27,1.011,2.215,1.632c-12.323,3.769-32.225,3.119-44.5-2.348A6.762,6.762,0,0,1,85.111,70a4.473,4.473,0,0,1,.911-1.4l2.243.641.647-2.048L87.2,66.561Zm2.875,2.452-.718,2.017,3.135.933.535-2.06Zm4.8,1.248-.415,2.3,3.146.583.391-2.234Zm5.206,1.076-.249,2.215,3.336.354.206-2.243Zm22.93.035-2.84.311.179,1.951,2.87-.338Zm-5.008.564-2.816.186.1,2.044,2.832-.179Zm-12.689.042v2.173l2.886.108.035-2.219Zm7.937.272-2.661.012-.011,2.067,2.688.012ZM82.981,71.4c.287-.009.943.631,1.215,1.348.533,1.41.288,2.973-.547,3.49-1.138.7-2.474-.4-1.692-1.395a1.328,1.328,0,0,1,.5-.4c.585-.186.721-1.108.4-2.7C82.81,71.5,82.869,71.4,82.981,71.4Zm4.256.54a76.4,76.4,0,0,0,39.242,2.355s-6.58,26.922-6.723,26.935Zm-5.823.081c.625,0,.739,1.064.175,1.629-.721.721-2.095.142-1.808-.762a3,3,0,0,1,1.633-.867Zm3.414.626c.129-.009.375.248.764.773,1.334,1.8,1.439,3.81.244,4.726-1.4,1.074-2.424-.593-1.257-2.048.3-.377.347-1.073.167-2.615-.064-.55-.048-.826.081-.836Zm46.058.649a2.953,2.953,0,0,1,.97.381c.851.418,1.147,1.029.737,1.523-.6.719-2.228-.7-1.921-1.675.047-.147.095-.225.214-.229Zm-1.28.937c.213.021.554.412.95,1.208.254.511.4.658.83.812,1.016.368,1.2,1.422.311,1.734-.971.339-1.694-.36-2.138-2.068-.293-1.126-.228-1.714.047-1.686Zm-42.49.754c.148-.009.43.321.877.983,1.328,1.963.87,5.731-.8,6.61a1.355,1.355,0,0,1-1.842-.287c-.865-.867-.652-1.552.632-2.025,1.093-.4,1.447-1.649,1.109-3.917-.134-.907-.14-1.354.028-1.364Zm6.324.621c8.111,6.7,15.434,13.885,24.873,22.272,2.242-6.909,5.51-21.253,5.52-21.3-.357.3-15.855,2.5-30.393-.972Zm30.393.972c.008-.007.01-.011,0-.016Zm5.032-.952a5.134,5.134,0,0,1,.748,1.927,4.719,4.719,0,0,0,1.315,2.281c1.6.272,2.279,1.164,1.49,1.955-.58.581-1.835.252-2.44-.637-1.137-1.671-1.913-5.526-1.114-5.526Zm-90.511.925a2.144,2.144,0,0,1,2.126,1.873c.272,1.462-.552,2.525-1.25,2.354-.759-.284-1.017-1.487-1.017-1.487a5.4,5.4,0,0,1-.491,1.476c-.68,1.04-2.111-.5-1.855-2a2.529,2.529,0,0,1,2.487-2.215Zm57.735.384a96.958,96.958,0,0,0,26.972.529L118.1,96.776Zm-6.672.031c.131.009.4.244.818.688,1.373,1.454,1.769,3.472.877,4.473-.543.61-.909.68-1.486.284-.737-.506-.793-1.266-.116-1.617.621-.322.678-1.029.186-2.37-.367-1-.471-1.47-.28-1.458Zm-57.63.5L35.014,78.8l1.156,2.732L32.951,80.7Zm12.2.361-.958,2.721-2.483.928.966-2.941Zm84.191.572c.119,0,.3.342.512,1.053.533,1.759.759,2.2,1.245,2.436a.9.9,0,0,1,.1,1.683c-.475.217-.632.172-.97-.272a6.585,6.585,0,0,1-1.028-3.206c-.072-1.114-.014-1.692.14-1.694Zm-35.93,1.228c.094-.007.231.131.435.373,1.254,1.493,1.39,3.783.268,4.469-1.088.664-2.609-.706-1.661-1.5.086-.072.282-.23.438-.35.265-.2.287-.32.311-1.617.018-.963.054-1.369.209-1.379Zm9.527.159L117.23,93.849l3.548-13.916A111.314,111.314,0,0,1,101.779,79.782Zm-37.958.707C68.7,85.653,75.09,89.827,76.607,94.961a17.032,17.032,0,0,1-5.64,19.96,60.169,60.169,0,0,0-9.822,8.852c-4.7,5.013-7.838,10.491-10.978,14.465-.533.668-1.936,2.771-1.936,2.771s-.687.786-2.983-1.143a110.16,110.16,0,0,0-18.993-13.112l2.754-1.543A125.269,125.269,0,0,1,47.273,137.88s4.831-7.068,6.373-9.093a91.624,91.624,0,0,1,5.889-7.027c5.317-6.576,10.808-8.752,13.092-12.082a14.479,14.479,0,0,0,.737-15.6c-2.714-4.711-7.993-7.941-11.5-11.841Zm46.334.381h6.04s-.887.741-1.567,1.2c-.427.286-.925.247-1.866-.148-.913-.383-2.607-1.049-2.607-1.049Zm6.917,0,1.408.043a22.5,22.5,0,0,1-3.546,3.358c-.182.078-.284.111-.709-.028-2.887-.956-5.537-2.172-8.349-3.322l2.506-.012s1.206.386,3.018,1.139c2.078.863,2.616,1.129,3.418.6.773-.515,1.412-1.29,2.254-1.78Zm2.851,0-.5,1.854a33.663,33.663,0,0,1-3.969,3.466c-.333.175-.322.206-1.78-.361-5.369-2.089-7.964-3.447-7.964-3.447l-1.09-.976s1.4.4,2.323.766c.63.249,1.7.657,2.386.909s2.193.9,3.2,1.294c2.324.919,2.2.947,4.423-1.022a33.381,33.381,0,0,1,2.975-2.483Zm-81.336.171L40.93,83.73l-3.123,2.631-2.358-2.782Zm88.9,0a11.314,11.314,0,0,0,1.775,3.055c.659.629.823,1.115.432,1.469-1.019.631-1.195-.388-1.511-1.054-.555-1.173-1.233-2.759-.7-3.471Zm-84.728.269c.06,0,.12,0,.182,0,2.5.038,3.089,3.736.738,4.624a2.271,2.271,0,0,1-2.336-.349c-.507-.508-.578-.938-.23-1.2a4.342,4.342,0,0,1,1.832-.412,14.18,14.18,0,0,1-1.693-.691c-1.027-.587-.137-1.9,1.507-1.968Zm51.443,0q.212.012.729.866c1.261,2.086,1.194,6.053-.12,7.058a1.5,1.5,0,0,1-2.106-.187c-.754-.836-.522-1.68.6-2.176,1.081-.479,1.3-1.549.861-4.193-.153-.922-.143-1.378.039-1.368Zm-60.629.066a2,2,0,0,1,1.823.855c.265.435.137.755-.362.973a12.949,12.949,0,0,1-1.76.458,10.567,10.567,0,0,1,1.793.459c.845.373.779,1.059-.459,1.648-2.383,1.135-4.634-1.965-2.668-3.744A2.574,2.574,0,0,1,33.575,81.383Zm62.665,1.5a.225.225,0,0,1,.058,0,2.192,2.192,0,0,1,1.028.882c1.421,1.885,1.668,4.718.458,5.27-1.277.583-2.2-.62-1.276-1.671.651-.745.571-1.834-.3-3.991-.126-.314-.1-.47.027-.49Zm30.681.089c.112-.008.316.445.644,1.361.723,2.015,1.34,2.86,2.084,2.86a1.035,1.035,0,0,1,.686,1.8c-1.456,1.022-3.363-1.481-3.5-4.6-.042-.938-.023-1.41.09-1.419Zm-7.7,1.007-.431,1.644s-.992.967-1.7,1.581c-1.128.977-1.406,1.171-2.3.867-1.371-.474-2.727-.9-4.155-1.337l-3.3-2.736,7.533,2.946s.653.193.881-.035c.986-.987,2.07-1.753,3.472-2.93Zm7.107,1.539c.094-.022.19.1.256.4.341,1.548.836,2.67,1.253,2.845a.813.813,0,0,1,.508,1.146c-.641,1.347-2.328-1.032-2.328-3.284,0-.639.153-1.071.311-1.107Zm-27.19.109c.092-.006.241.132.473.365,1.042,1.043,1.357,3.926.52,4.764-1.209,1.212-2.5-.589-1.326-1.849.31-.334.311-.357.236-1.835C98.994,86.04,98.989,85.632,99.142,85.623Zm-63.107.287-.815,2.7-2.6.672.609-2.226Zm3.119.276a1.114,1.114,0,0,1,.686.249,2.369,2.369,0,0,1,.652,3.054,2.24,2.24,0,0,1-2.382,1.124,2.157,2.157,0,0,1-2.072-2.286,2.252,2.252,0,0,1,.745-1.682c.31-.218.564-.128.832.317.251.437.678,1.424.678,1.424a8.216,8.216,0,0,1,.157-1.534.791.791,0,0,1,.7-.666Zm1.986.237,1.885.645.745,2.565-2.11-.82Zm107.493.479a21.954,21.954,0,0,1,3.116,2.276c.643.513,1.73,1.493,1.73,1.493l-.062,33.471-6.112-3.8.32-2.93s.84-8.854,1.482-13.493c.449-5.171,1.441-6.655-2.014-8.848,3.719-2.339,2.669-5.978.335-7.494Zm-30.32.127-.341,1.532c-1.224,2.1-2.32,1.991-4.193,1.018l-2.25-1.916a33.584,33.584,0,0,1,3.662,1.22,1.252,1.252,0,0,0,1.462-.377c.572-.521,1-.91,1.661-1.477Zm-16.68.805c.762.834.961,1.655.9,3.684-.147,1.443-.083,2.518-1.265,3.327a1.944,1.944,0,0,1-2.021,0c-1.07-.718-.48-2.153.922-2.224.884-.015,1.248-2.912.746-4.721-.078-.281-.058-.465.081-.478a1.051,1.051,0,0,1,.641.408Zm23.908-.109c.171,0,.475.439.655,1.158a2.649,2.649,0,0,0,1.2,1.92c.737.377.975,1.1.5,1.527-.938.85-1.9-.169-2.2-2.343C125.685,89.74,125.255,87.748,125.541,87.725Zm20.125.358a3.137,3.137,0,0,1,3.271,3.275,3.414,3.414,0,0,1-2.007,3.124c-3.071.905-4.748-1.154-4.718-3.158A3.341,3.341,0,0,1,145.666,88.083ZM103.46,89.245c1.759,1.761,1.838,5.53.116,5.53-2.065-.685-.454-1.906-.414-2.223a8.125,8.125,0,0,0-.439-3.342c-.133-.717.543-.175.737.035Zm42.319-.171c-.369-.012-.343.36.333.944a1.676,1.676,0,0,1-.927,3.019c-.717,0-.892.488-.268.739,2.412.97,4.059-2.7,1.9-4.232a2.184,2.184,0,0,0-1.035-.47Zm-92.232.493c1.94.663,2.61,4.367,2.683,5.674.088,2.274-.969,5.992-1.912,6.735-2.441,1.923-3.586-4.877-1.5-9.253a2.835,2.835,0,0,0,.325-1.737c-.085-.887.065-1.412.4-1.419Zm64.134.358a12.586,12.586,0,0,1-.5,1.717c-.3.7-.522.725-1.222.125-.39-.335-1.036-1.026-1.036-1.026.61.095,1.155.412,1.672.155A2.879,2.879,0,0,0,117.681,89.925Zm7.367.058c.138,0,.313.391.547,1.158.639,2.1,1.2,2.887,2.044,2.887a1.07,1.07,0,0,1,.381,2.1,1.707,1.707,0,0,1-1.269-.008c-.934-.25-2.212-3.407-2.029-5.013.086-.756.188-1.132.326-1.127ZM39.627,91.2c.509-.012.709.239,1.009.859a5.216,5.216,0,0,0,1.989,1.994c1.823.9,3.743,1.6,5.544,2.5,2.335,1.176,4.428,4.774,3,5.15a5.4,5.4,0,0,1-1.649.077,2.98,2.98,0,0,1-.753-.878,9.9,9.9,0,0,0-6.129-4.255c-2.166-.564-4.106-3.237-4.523-4.493-.108-.325-.113-.58.179-.664a5.992,5.992,0,0,1,1.338-.288Zm65.854.218c.1-.016.239.108.454.338,1.289,1.38,1.449,3.915.291,4.632-1.256.778-2.355-.508-1.37-1.6.435-.482.435-.481.435-1.927,0-1,.029-1.416.19-1.442Zm18.768,1.609c.154.006.387.435.667,1.278.4,1.2.452,1.292.908,1.527.77.4.895,1,.329,1.563-1.053,1.055-2.114-.644-2.118-3.389C124.035,93.349,124.113,93.024,124.249,93.03Zm-16.853.189a1.55,1.55,0,0,1,.572.467c1.579,1.877,1.261,6.27-.5,6.929-.588.221-.767.233-1.133.074-1.313-.569-1.153-1.958.466-2.84C108.01,97.189,107.148,93.237,107.4,93.219ZM26.643,94.6l6.521,3.241s1.788,3.77,2.611,5.184c.565.98,1.7,1.926.528,2.58-1.962,1.333-3.075,2.091-3.057,2.919.014.669.845,1.352,1.963,2.67,1.6,1.893,1.59,1.457.131,4.344a32.643,32.643,0,0,0-2.067,6.611l-6.587,3.4a40.715,40.715,0,0,1,6.854-11.534,30.58,30.58,0,0,1-5.221-4.893,37.831,37.831,0,0,1,4.4-4.465A29.132,29.132,0,0,1,26.643,94.6Zm82.473.058a.129.129,0,0,1,.034,0c.274.018.9.7,1.448,1.791.709,1.412.777,3.189.147,3.82-1.086,1.089-2.5-.31-1.486-1.468.716-.522.521-1.819-.042-3.168-.261-.647-.257-.95-.1-.975ZM25.922,95.3a61.558,61.558,0,0,0,5.539,9.331l-4.244,4.461a45.428,45.428,0,0,0,5.113,5.045c-2.729,3.04-4.519,7.3-6.311,11.316Zm97.6.078c.148.011.356.449.571,1.329.27,1.11.456,1.394,1.1,1.671,1.027.441,1.051,1.434.043,1.792a1.436,1.436,0,0,1-1.346-.727,5.37,5.37,0,0,1-.566-2.483c-.06-1.059.031-1.595.2-1.582Zm23.531.669c1.6.45,2.183,2.061,1.871,5.044-.419,3.989-.911,8.428-1.312,12.093-.461,4.229-.842,6.917-.842,6.917l-.395-.305s.114-2.287.264-3.689c.359-3.158.557-5.923.861-9.078.682-7.02.515-9.239-.753-9.887-.98-.5-1.4-.2-.678.478,1.379,1.066,1.336,1.512-.14,18.8-.151,1.788-.213,3.054-.213,3.054l-1.874-1.166s-.139-1.481-.314-3.719c-.423-4.214-.67-8.707-.95-12.746-.3-4.31.5-5.818,3.173-5.923a4.456,4.456,0,0,1,1.3.129Zm-34.427,2.5c.2.571,1.135,4.822-1.246,3.6a.861.861,0,0,1-.2-1.465,3.054,3.054,0,0,0,.384-2.74c-.16-.762-.353-1.394-.353-1.394.459.168,1.362,1.849,1.416,2ZM41.834,97.213a11.308,11.308,0,0,1,5.652,3.032c.885.942.84,1.7-.543,1.789-1.331.2-1.36.413-2-.139a3.46,3.46,0,0,0-1.476-.872c-2.009-.311-3.035-4.076-1.637-3.81Zm81.294,1.113a11.358,11.358,0,0,1,.411,1.5c.3,1.347,1.223,2.343,2.052,2.219.557-.067,1.326.1,1.408.769a1.1,1.1,0,0,1-.745,1.345,1.93,1.93,0,0,1-2.056-.447c-1.239-1.167-2-4.975-1.071-5.382Zm-9.688.053c.722.278,1.644,2.595,1.743,4.432,0,1.316-.206,2.972-1.338,3.6a1.259,1.259,0,0,1-1.789-.443,1.355,1.355,0,0,1,.722-1.943c1.008-.456,1.336-2.5.722-4.5-.035-.334-.539-1.279-.06-1.141Zm-76.932.962,5.315,2.7a13.064,13.064,0,0,0-1.8,3.155A23.212,23.212,0,0,1,36.508,99.341Zm78.93.923c.091,0,.4.29.664.55,1.327,1.286,1.9,3.623,1.1,4.476-.64.683-1.76.636-1.947-.081a2.892,2.892,0,0,1,.469-1.325,4.371,4.371,0,0,0-.081-2.794C115.475,100.65,115.32,100.267,115.438,100.264Zm-36.922.53,6,.206,20.118,18.152-1.889-.042L84.265,102.236l-5.753.015Zm-34.6,3.27a14.525,14.525,0,0,0-1.511,12.341c1.069,2.9-1.265,3.073-2.222,1.162A13.068,13.068,0,0,1,39.251,111c.313-4.282,2.286-8.581,3.866-9.1C44.721,101.381,44.369,103.482,43.919,104.064Zm82.432,8.785c-.61,2.855-1.74,4.276-3.344,4.869-6.568,2.43-9.429-10.84-3.336-14.013,5.808-1.934,7.486,5.373,6.68,9.144Zm-48.2-8.67,5.663.117c5.164,4.7,10.714,9.093,16.239,14.814H97.381l-.966-.921c-4.994-4.469-8.693-8.117-13.507-12.269l-5.055-.14Zm43.211.875c-3.063.124-3.312,4.281-3.22,5.855.222,2.268,1.125,5.62,4,5.356,2.109-.211,3.085-2.713,2.893-5.718-.181-2.827-1.333-5.5-3.672-5.493Zm-43.727,1.379,4.969.113c4.378,3.824,9.007,7.979,13.608,12.564H94.045s-.567-.541-.737-.715c-3.725-3.373-7.511-7.132-11.122-10.163l-5.156-.2Zm43.808.163c.87.323,1.015,2.444.256,3.323-.52.6-1.716-.538-1.823-1.974A1.26,1.26,0,0,1,121.444,106.6Zm-82.131.264a25.384,25.384,0,0,0-.827,4.582L36.407,108.8Zm83.71,2.554a.921.921,0,1,1-.919.921A.919.919,0,0,1,123.023,109.414Zm-41.752.462,9.9,9.327-2.82.031-8.123-7.376-5.156-.194,1.009-1.761Zm38.517.16a.921.921,0,1,1-.92.921A.92.92,0,0,1,119.788,110.036Zm11.788.019a191.018,191.018,0,0,0,21.651,14.791,9.413,9.413,0,0,1-2.592,1.4,124.285,124.285,0,0,1-18.647-12.506c-4.433,6.537-12.948,18.429-20.517,23.919-4.777,3.424-7.183,7.643-7.169,12.576.014,5.1,1.813,8.424,6.823,12.6,3.233,2.7,6.766,6.136,6.766,6.136l-1.858,1.6a109.053,109.053,0,0,1-10.594-9.653c-2.843-2.859-4.108-9.134-3.624-12.521.658-4.6,2.19-7.906,6.549-11.461a47.715,47.715,0,0,0,4.837-3.781c13.54-14.509,18.376-23.111,18.376-23.111Zm-9.061,2.37c.512,1.055.793,2.438-.811,2.53-.951.055-1.495-1.53-.671-2.941.623-1.112,1.178-.166,1.481.411ZM74.8,112.146l5.345.159s5.272,4.6,7.933,7.154h17.907c9.848,0,17.942.04,17.988.086.123.123-1.272,2-1.272,2l-59.058.035c.012-.009,3.648-3.252,4.95-4.162A29.485,29.485,0,0,0,74.8,112.146Zm-36.19,2.226a21.594,21.594,0,0,0,1.378,4.2l-4.1,2.181a46.205,46.205,0,0,1,2.724-6.382Zm113.864,11.877a45.717,45.717,0,0,1-5.52,10.2c-.511.659-.861,1.174-.861,1.174l5.023,4.818-4.36,4.644a28.453,28.453,0,0,1,5.609,9.576,38.434,38.434,0,0,1-5.528-2.615c-.689-1.734-1.393-3.571-2.168-5.154-1.78-3.611-1.755-3.258-.3-4.321,2.127-1.556,2.76-1.917,2.208-2.7-.389-.551-2.9-3.536-3.049-3.63-.231-.142-.128-.584.3-1.29a40.1,40.1,0,0,0,3.387-8.06Zm.95.182.132,30.367c-1.8-3.628-3.671-7.334-5.757-9.649-.078-.158,4.551-4.687,4.551-4.687-1.7-1.575-2.689-2.516-5.059-4.7C149.6,134.427,151.426,130.071,153.424,126.431Zm-127.4,1.053,5.76,3.35c-.3,4.283-.689,9.906-1.279,15.611-.5,4.451-.7,6.5.089,7.738a9.59,9.59,0,0,0,2.465,1.88c-3.029,1.229-4.2,4.852-.8,7.563a14.6,14.6,0,0,0-1.191,1.041l-4.725-3.54Zm90.15,1.536a34.555,34.555,0,0,1-5.415,5.145,33.969,33.969,0,0,0-5.385,4.5s-3.391-.017-5.687-.109l-7.921-7.08s.283-.105-10.5-.016c-13.933.115-25.223-.039-25.223-.039l1.583-2.226Zm28.237,1.391a25.1,25.1,0,0,1-3.522,7.007,16.773,16.773,0,0,0-1.292-4.493Zm-111.9.8.69.494s-.411,5.24-.546,6.773c-.243,2.834-.363,5.387-.609,8.274-.5,5.732-.414,6.576.709,7.462.864.647,1.453.353.687-.467a2.317,2.317,0,0,1-.656-1.593,24.165,24.165,0,0,1,.062-4.345c.855-15.143,1.033-15.653,1.051-15.657l1.722,1.115c-.095.233,1.578,15.263,1.408,19-.2,4.368-6.069,3.4-6.347.161-.116-.745,1-13.013,1-13.013ZM80.4,132.1l2.3.066,14.213,13.089,4.845.1-.422,1.652L96.655,147Zm8.813,0h2.231l8.135,7.388,5.008.078-.955,1.422-4.981-.144Zm-2.777.008L98.46,142.967l4.1.214-.632,1.485-4.861-.137-13.511-12.4Zm-11.595.039h2.5l18.8,16.956,4.927.089-.074,1.527-5.932-.027Zm63.263.482c.991.249,1.48,1.212,2.18,4.784.815,4.165-.952,10.926-3.166,12.195-1.145.9-2.392-.055-1.583-1.232,2.642-3.843,2.99-10.132,1.428-13.648C136.466,133.594,136.976,132.423,138.1,132.626Zm-79.758.626c6.007.072,7.56,12.43,1.651,14.163-3.839.568-5.815-2.912-6.373-6.053C52.966,137.459,54.682,133.208,58.344,133.252Zm-3.3,7.414c.358,2.476,1.892,5.313,4.121,5.07,2.931-.319,3.3-4.239,3.009-6.213-.351-2.381-1.661-4.54-3.755-4.658C55.3,134.687,54.766,138.755,55.043,140.666Zm3.22-4.81c.837-.014,1.455,1.107,1.225,2.5-.148.9-.49,2.01-1.5,1.257a3.678,3.678,0,0,1-.779-2.636c.074-.62.38-1.1,1.055-1.119Zm82.829,2.856,2.82,3.268-3.2,2.25A15.1,15.1,0,0,0,141.092,138.712Zm-80.785.3a.923.923,0,1,1-.919.925A.923.923,0,0,1,60.307,139.007Zm-3.29.568a.921.921,0,1,1-.923.921A.92.92,0,0,1,57.017,139.575Zm1.862,1.189a2.058,2.058,0,0,1,1.005.935,2.324,2.324,0,0,1,.258,2.549c-.883,1.052-2.263-.073-2.1-1.7.122-1.19.437-1.908.834-1.787Zm7.875,3.606a1.22,1.22,0,0,1,.555,2.32c-.739.5-.9,2.106-.446,4.337.37,1.611.176,1.86-.784.408-1.639-2.632-1.216-7.065.675-7.065Zm-3.084.847c1.157-.044,1.528.842.853,1.52a2.749,2.749,0,0,0,.086,2.553c.624,1.381.477,1.8-.691.47-1.614-1.729-1.589-4.491-.248-4.543Zm76.475.673a30.439,30.439,0,0,1,3.538,6.614l-5.691-2.619Zm-83.162,7.028c-.4-.467-.6-1.979-.928-2.625-.256-.776-.479-1.228-.9-1.2-2.4.2-2.3-2.1-.922-2.534C57.092,145.657,58.134,152.566,56.983,152.918Zm11.931-2.324c-.408,1.207-.111,1.929-.027,3.218.072.586.1.741-.378.291-1.141-1-1.747-4.4-.72-5.029C69.17,148.226,69.589,149.657,68.914,150.594Zm57.014-1.615a1.688,1.688,0,0,1,1.505,1.209,14.554,14.554,0,0,1,.182,5.472c-.348,2.3-.9,4.408-1.128,5.988-.806.959-2.789-2.433-2.976-5.11-.312-2.123.418-6.534,2.048-7.466a.962.962,0,0,1,.369-.093Zm7.683.362c.5-.023.385.145.754.532a2.893,2.893,0,0,0,1.579.979c1.632.514,3.427,2.794,2.736,3.487-.547.434-2.034-.386-2.542-.56-.546-.189-1.228-.424-1.517-.521-1.367-.462-3.335-2.989-2.723-3.5a4.017,4.017,0,0,1,1.713-.419Zm-3.978.419c1.011.01,1.287.263,1.866,1.353a7.3,7.3,0,0,0,4.763,3.412c2.953.9,5.5,2.617,5.378,5.794a7.381,7.381,0,0,0-2.115.269,6.436,6.436,0,0,0-4.6-4.023c-4.038-.918-7.784-5.021-6.719-6.649a2.886,2.886,0,0,1,1.428-.156Zm-69.644.2,34.878,30.429c-14.719-5.47-28.222-5.353-41.279-3.33Zm14.874,2.015c-.066.947-1.363,1.15-1.631,1.384-.652.568-.565,2.208-.287,4.121.214,1.149-.072,1.1-.675.2a7.081,7.081,0,0,1-.338-5.984c.912-2.1,3.023-1.046,2.931.281Zm-20.057-1.49c1.337.139,1.706,1.962,1.761,3.171,0,1.666-.471,1.6-.737,0-.126-.71-.347-.986-.919-1.158-1.3-.391-1.386-2.013-.105-2.013Zm16.207,1.861c-.342.378-.35,2.144-.038,3.331.172.656-.147.707-.59.186-1.443-1.7-1.575-4.57-.236-5.125,1.09-.284,1.373,1.048.865,1.608Zm-15.09,3.4c.032,1.692-.353,1.848-.861.225a2.05,2.05,0,0,0-.528-.87c-.949-.651-1.116-1.159-.566-1.71C55.32,152.289,55.905,155.246,55.923,155.749Zm5.1-1.492-4.729,20.2c11.639-.978,16.927-1.183,29.362,1.251Zm14.1.334c.711.179.957,1.109.128,1.989-.273.349-.526.888-.194,2.316.454,1.954-.311,1.329-1.242-.516C73.218,157.2,73.492,154.181,75.122,154.591Zm-22.263.062c1.264,0,2.436,2.056,2.455,4.306.014,1.818-.245,1.687-.919-.051-.475-1.149-.857-1.565-1.719-1.865-1.595-.556-1.456-2.39.183-2.39Zm8.546.583,21.9,19.174a92.731,92.731,0,0,0-26.325-.47Zm18.228.723c1.718,0,2.394,2.126.288,2.87-1.256.443-.72,2.987-.489,4.5.087.57-.093.61-.454.1-1.324-1.957-2.064-6.891.655-7.469Zm-2.32,2.39a2.4,2.4,0,0,0-.132,1.974c.557,2.051.7,2.43-.461,1.387-1.224-1.3-1.759-3.864-.733-4.624,1.151-.854,2.189.093,1.326,1.263Zm-43.28-1.583c2.033-.015,3.51,1.3,3.432,3.142a3.293,3.293,0,0,1-3.211,3.409,3.239,3.239,0,0,1-3.4-3.273,3.074,3.074,0,0,1,3.183-3.278Zm-.035.813a2.456,2.456,0,0,0-1.272,4.485c.825.608,1.478.437.8-.21a2.073,2.073,0,0,1,.919-3.6c.833-.184.51-.67-.446-.673Zm28.33.521-2.8,13.609a77.96,77.96,0,0,1,18.012-.116Zm-9.434.517c1.393-.071,1.8,2.029,1.812,2.864,0,1.081-.127,1.643-.326,1.066-.469-1.363-.931-2.111-1.435-2.111a1.351,1.351,0,0,1-.726-.428.846.846,0,0,1,.675-1.391Zm9.694.544,1.847,1.57c-1.188-.522-2.2.828-2.2.828Zm19.005,2.569c-.536.675-.532,2.1-.117,3.758.117.464-.316.12-.752-.432a4.449,4.449,0,0,1-1.065-3.269c.166-2.534,3.376-2.04,1.934-.057Zm-29.211-1.213c1.2.136,1.646,2.635,1.617,3.393-.039.792-.219,1.326-.375.845a6.579,6.579,0,0,0-1.494-2.889c-.944-.59-.677-1.265.252-1.349Zm91.5,2.8a2.317,2.317,0,0,1-.865,2.075c-.555.3-.893-.1-1.223-1.122-.243-.747-.33-1.034-.33-1.034s-.205.935-.27,1.13c-.432,1.3-1.838,1.309-2.428-.14-.627-1.689,1.125-3.421,2.471-3.359a2.587,2.587,0,0,1,2.646,2.45ZM64.062,161.43a10.984,10.984,0,0,1,2.048.731l1.622,1.438s-1.492-.649-2.017-.836c-1.256-.445-1.229-.448-2.243.381-1.044.855-1.9,1.481-1.9,1.481l.321-1.846s1.528-1.348,2.169-1.348Zm-10.641,4.536c.24,1.95-.3,2.115-.834.252-.453-1.595-.9-2.176-1.668-2.176a1.212,1.212,0,0,1-.62-2.316c2.4-.676,3.02,3.47,3.122,4.24Zm82.318-4.279,2.215,1.03.469,2.3-2.04-.506Zm-49.646.212a1.3,1.3,0,1,1,.762,2.458c-1,.24-.993,1.788-.708,4.037.065.514.2,1.135.17,1.221-.152.407-.659-.215-1.342-1.656-1.02-2.628-.7-5.555,1.118-6.06Zm60.938-.033-.616,2.658-1.874-.128-.07-1.629Zm-63.125,1.728c-1.027,1.489-.1,2.863.123,4.028.04.677-.832.015-1.335-.972-1.048-2.058-1.108-3.72-.166-4.462C83.847,161.414,84.454,162.8,83.906,163.594Zm-19.223-.364a6.971,6.971,0,0,1,1.885.6c.782.3,2.592,1.038,2.592,1.038l2.393,2.118s-2.1-.776-3.565-1.4c-3.3-1.4-2.822-1.44-5.427.548-.751.573-1.536,1.228-1.536,1.228l.318-1.7a20.707,20.707,0,0,1,2.211-1.866c.529-.382.767-.571,1.129-.567Zm-30.654.8a3.376,3.376,0,0,1,3.2,2.8,7.45,7.45,0,0,1-.016,2.507c-1.164,8.935-1.676,17.227-2.746,25.5-.132.4-.275.248-.446-.463-1.239-7.5-2.046-15.735-3.088-23.169-.238-2.776-.954-6.406,2.553-7.115a3.252,3.252,0,0,1,.543-.059Zm-.1.991a2.412,2.412,0,0,0-1.935,1.2c-.638,1.346-.472,4.088.741,12.3.1.684.241,1.825.31,2.537a18.308,18.308,0,0,0,.71,4.236c.4.613.447-.045.163-2.18-.145-1.089-.343-2.755-.438-3.7-.545-3.9-.664-6.668-1-10.224-.169-1.748.533-3.036,1.85-3.385.713-.189.751-.51.085-.727A1.393,1.393,0,0,0,33.928,165.025Zm111.529.109a2.456,2.456,0,0,1,.958,4.679c-.895.452-2.395.239-2.768-.483a.837.837,0,0,1,.469-1.127,9.419,9.419,0,0,1,1.341-.539s-1.305-.253-1.672-.872c-.792-1.333.662-1.632,1.671-1.658Zm-92.675,3.727c-.028.651-.36.382-.443,0a5.084,5.084,0,0,0-1.284-2.18c-.561-.452-.7-1.065-.314-1.446,1.43-1.266,2.033,3.22,2.041,3.626Zm83.568-3.736a2.891,2.891,0,0,1,2.031.74c.7.7.662.964-.511,1.392-.57.212-.962.377-.962.377s.529.209.922.318c1.125.377,1.066,1.03.033,1.8-1.407,1.052-3.667-.344-3.64-2.2a2.237,2.237,0,0,1,2.128-2.434Zm5.2-.011,2.25,2.484-2.63,2.728-2.475-2.721Zm-76.46.234c.033,0,.064,0,.1,0,.7.013,1.811.484,4.539,1.585,1.5.605,3.231,1.294,3.231,1.294l2.456,2.177a47.651,47.651,0,0,1-4.535-1.652c-.254-.129-.813-.367-1.241-.529s-1.492-.577-2.363-.928c-1.872-.755-1.894-.76-2.521-.23-.269.227-.927.745-1.463,1.151s-1.317,1-1.738,1.321c-.495.377-1.121.948-1.121.948l.4-2.1a11.683,11.683,0,0,1,.985-.832l1.94-1.488c.563-.433.857-.7,1.338-.719Zm24.149,1.842c.069.437.028.521-.474,1.033-.633.648-.719,1.71-.256,3.086a3.99,3.99,0,0,1,.249.864c-.669.67-2.43-3.562-2.01-4.824.5-1.508,2.157-1.531,2.49-.159Zm-38.618.182a1.4,1.4,0,0,1,1.264,1.057c.728,2.037.283,4.536-.461,2.208a4.5,4.5,0,0,0-.78-1.29c-.261-.279-.848-.6-.834-1.054A.894.894,0,0,1,50.621,167.372Zm15.055.059a4.741,4.741,0,0,1,1.4.447c.64.262,2.44.863,3.465,1.259,1.59.615,3.25,1.426,3.25,1.426l-3.6-.2s-1.224-.408-1.952-.708c-2.636-1.085-2.489-1.079-3.8-.081a14.081,14.081,0,0,0-1.06.933l-1.831.1a17.341,17.341,0,0,1,2.1-1.842c.406-.3.961-.733,1.23-.956a1.131,1.131,0,0,1,.8-.377Zm28.164.711a1.282,1.282,0,0,1,1.488,1.363,1.876,1.876,0,0,1-1.61,1.489,11.25,11.25,0,0,0-.43,4.893c.263,1.167-.23,1.193-.733.074-.815-1.814-2-7.2,1.285-7.819Zm-2.86,2a3.975,3.975,0,0,0-.337,2.791c.261,1.275.316,1.589-.407.792-1.4-1.871-1.606-4.85-.315-5.192,1.246-.33,1.52,1.025,1.059,1.609Zm-42-1.4c2.186.347,2.83,4.078,2.525,5.674-.579,1.932-.55.626-.753-.179-.538-1.944-1.161-3-1.827-3.113-1.793-.3-1.542-2.634.055-2.382Zm16.758.735a.4.4,0,0,1,.1.008c.719.12,2.646.716,1.815.917l-2.843.015c-.552.021.359-.9.923-.94Zm76.568.61c.276-.025.652.3,1.094.75,1.012,1.032.568,2.66-.8,3.462a2.464,2.464,0,0,1-3.41-3.295c.647-1.2,1.424-.983,2.087.706.121.205,0-.212.226-.726s.527-.872.8-.9Zm-3.6.12-.644,2.6-2.614,1.259.954-3.2Zm5.439.443,2.083.167,1.156,3.374-3-1.283Zm-49.224,1.907c1.515.062,1.669,1.5.8,2.123a2.526,2.526,0,0,0-.554,2.227c.045.481.14,1.07.135,1.139-.014.23-.205.194-.465-.09-1.6-1.747-1.387-5.46.085-5.4Zm-45.833.561c.96,0,2.049,2.756,1.513,3.81-.337.619-.663.466-.786-.252a1.527,1.527,0,0,0-1.165-1.366C47.529,174.952,47.9,173.12,49.092,173.12Zm48.6,1.667a.954.954,0,0,1,.14,1.7c-.514.367-.65.677-.73,1.671.169,2.263-1.1.827-1.22-1.231C95.82,175.8,96.425,174.142,97.7,174.787Zm-49.41.7c.689,0,1.508,1.239,1.327,1.963-.1.575-.4.473-.819.046a2.682,2.682,0,0,0-.7-.311.857.857,0,0,1,.191-1.7Zm19.586.952c9.315-.044,19.005,1.438,27.058,4.659l-.663,1.193-2.114-.726-.726,1.92,1.742.664-.819,1.772c-9.505-3.132-19.755-5.464-36.79-2.938-.846-.589-2.374-1.752-2.374-1.752l1.361-.3-.178-1.9-3.441.614-1.005-1.053a74.707,74.707,0,0,1,17.95-2.157Zm31.244.416c.892,0,1.445,1,.791,1.434-.458.3-1.475.382-1.68.136C97.8,177.911,98.4,176.849,99.115,176.851Zm-32.559,1.173-.039,1.967,2.809-.09.058-1.865Zm4.907.043L71.475,180l2.728.09.127-1.893Zm-7.134.132-2.758.183.085,1.8,2.735-.12Zm12.332.3-.07,1.862,2.774.307.2-1.893Zm-17.464.09-2.774.353.237,1.854,2.7-.3Zm22.826.6-.272,1.943,2.588.385.333-1.846Zm5.128,1.088-.256,1.963,2.63.559.353-1.822ZM68.534,182.54a65.841,65.841,0,0,1,23.4,4.049,11.331,11.331,0,0,1-1.175,2.08,62.073,62.073,0,0,0-18.547-3.809,9.647,9.647,0,0,1-3.227-.389c-4.222-1.39-7.949-1.992-11.386.063l-1.4-1a79.019,79.019,0,0,1,12.343-1ZM31.651,193.756c2,.023,2.947,3.09.838,4.379a2.166,2.166,0,0,1-1.909.008,2.325,2.325,0,0,1,1.071-4.387Zm65.272.1c.715.437,3.355,1.609,3.355,1.609L81.732,229.054l-4.489.035Zm-59.821.079a2.273,2.273,0,1,1-.082,4.545C34.772,198.353,33.765,194.309,37.1,193.936Zm63.781,1.747c.5.274,2.3.573,2.456.921a3.82,3.82,0,0,1-.109.96,5,5,0,0,0,.815,3.2c1.057,1.472-.088.8-1.144.785-2.384-.61-5.421,2.644-4.267,5.993.266.741.214.8-1.063,1.189a4.64,4.64,0,0,0-2.772,6.72c.726,1.435.748,1.362-.529,1.468-3.549.295-5.61,3.449-4.12,6.673.23.5.084.636-.691.781-2.422.445-3.507,2.474-3.813,4.7l-3.2.031Zm3.073,1.185,6.156,1.683c-2.556,8.708-2.91,18.825.167,30.526l-14.155.012c1.965-1.768,1.189-4.21-1.109-4.748,2.23-1.283,2.231-4.7-.441-5.105-2.349-.361-3.563,1.877-2.519,4.119l-1,.274a4.452,4.452,0,0,1-.552-.867c-.886-2.588.969-5.158,4.131-5.149,1.951,0,2.354-.548,1.276-1.749a3.916,3.916,0,0,1,1.2-6.352,2.156,2.156,0,0,1,1.841-.184L99,210.75s-.469.046-.835.1c-2.779.445-2.264,4.883.561,4.845a2.7,2.7,0,0,0,2.667-2.9v-1.18c1.428,2.447,3.88,2.622,4.924.632,1.23-2.343-1-3.816-3.237-3.575,0,0,.469-.3.766-.458a2.486,2.486,0,1,0-3.351-1.266,7.927,7.927,0,0,0,.314.745l-1.075.273a1.8,1.8,0,0,1-.353-.357c-1.844-2.888,1.118-6.069,4.849-5.348,1.366.429,1.322-.517.555-1.371-.825-1.233-1.441-2.629-.834-4.027Zm-69.574,1.26,3.231,5.7L33.994,210.4l-3.588-6.156Zm-.319,2.969-2.242,3.093,2.2,3.552,2.083-3.595Zm-.1,1.162,1.458,1.958-1.47,2.406-1.439-2.258Zm66.777,6.163a1.232,1.232,0,1,1-1.23,1.232A1.233,1.233,0,0,1,100.744,208.422Zm-8.7,15.467a1.277,1.277,0,1,1-1.272,1.275A1.276,1.276,0,0,1,92.044,223.889Zm-1.929.869a2.727,2.727,0,0,0,.282,1.617c-1.838.113-2.325,1.521-2.5,2.71l-1.647,0c.275-4.022,3.752-4.112,3.869-4.323Z"/><path id="d0ba3bce-e420-4f50-92f1-86d1017ccfcb" data-name="path153-6-3-1-9-55-1-6" d="M48.375,26.652C40.994,37.178,33.1,43.235,32.966,51.447c-.045,2.659,1.393,7.179,5.9,8.044,2.922.559,6.944-1.806,7.028-6.61-.013-.956,1.013-.932,1,.379A27.275,27.275,0,0,1,43.54,65.053h9.669A27.273,27.273,0,0,1,49.856,53.26c-.009-1.311,1.016-1.335,1-.379.084,4.8,4.107,7.169,7.028,6.61,4.5-.865,5.941-5.385,5.9-8.044-.131-8.212-8.028-14.269-15.409-24.795Z"/><path id="6f290ffa-da00-4cf3-b8d0-5c150c570472" data-name="path153-6-3-1-8-6-8-8-0" d="M131.2,223.789c-7.381-10.525-15.278-16.582-15.409-24.794-.044-2.659,1.394-7.179,5.9-8.044,2.921-.559,6.944,1.806,7.028,6.61-.013.956,1.012.932,1-.379a27.265,27.265,0,0,0-3.353-11.792h9.668a27.265,27.265,0,0,0-3.353,11.792c-.009,1.311,1.016,1.335,1,.379.083-4.8,4.106-7.169,7.028-6.61,4.5.865,5.94,5.385,5.9,8.044-.131,8.212-8.028,14.269-15.409,24.794Z"/></g><rect id="86e74fcf-df2d-408a-a7d5-da342867ad91" data-name="rect17632" x="0.496" y="0.496" width="178.583" height="249.449" rx="8.504" ry="8.504" opacity="0.08" fill="url(#d3b6ee93-ba0a-4232-b5fd-70ba4cd49607)" style="isolation:isolate"/></g></g></g></svg>